<?xml version="1.0" encoding="UTF-8" standalone="no"?>
<!DOCTYPE svg PUBLIC "-//W3C//DTD SVG 1.1//EN"
 "http://www.w3.org/Graphics/SVG/1.1/DTD/svg11.dtd">
<!-- Generated by graphviz version 12.0.0 (20240704.0754)
 -->
<!-- Title: dependency&#45;cruiser output Pages: 1 -->
<svg width="1814pt" height="774pt"
 viewBox="0.00 0.00 1814.12 774.00" xmlns="http://www.w3.org/2000/svg" xmlns:xlink="http://www.w3.org/1999/xlink">
<g id="graph0" class="graph" transform="scale(1 1) rotate(0) translate(4 770)">
<title>dependency&#45;cruiser output</title>
<polygon fill="white" stroke="none" points="-4,4 -4,-770 1810.12,-770 1810.12,4 -4,4"/>
<g id="clust1" class="cluster">
<title>cluster_src</title>
<path fill="#ffffff" stroke="black" stroke-width="2" d="M20,-8C20,-8 1786.12,-8 1786.12,-8 1792.12,-8 1798.12,-14 1798.12,-20 1798.12,-20 1798.12,-746 1798.12,-746 1798.12,-752 1792.12,-758 1786.12,-758 1786.12,-758 20,-758 20,-758 14,-758 8,-752 8,-746 8,-746 8,-20 8,-20 8,-14 14,-8 20,-8"/>
<text text-anchor="middle" x="903.06" y="-745.45" font-family="Helvetica,sans-Serif" font-weight="bold" font-size="9.00">src</text>
</g>
<g id="clust2" class="cluster">
<title>cluster_src/app</title>
<path fill="#ffffff" stroke="black" stroke-width="2" d="M28,-191C28,-191 347.88,-191 347.88,-191 353.88,-191 359.88,-197 359.88,-203 359.88,-203 359.88,-325 359.88,-325 359.88,-331 353.88,-337 347.88,-337 347.88,-337 28,-337 28,-337 22,-337 16,-331 16,-325 16,-325 16,-203 16,-203 16,-197 22,-191 28,-191"/>
<text text-anchor="middle" x="187.94" y="-324.45" font-family="Helvetica,sans-Serif" font-weight="bold" font-size="9.00">app</text>
</g>
<g id="clust3" class="cluster">
<title>cluster_src/app/providers</title>
<path fill="#ffffff" stroke="black" stroke-width="2" d="M103.38,-225C103.38,-225 339.88,-225 339.88,-225 345.88,-225 351.88,-231 351.88,-237 351.88,-237 351.88,-299 351.88,-299 351.88,-305 345.88,-311 339.88,-311 339.88,-311 103.37,-311 103.37,-311 97.38,-311 91.38,-305 91.38,-299 91.38,-299 91.38,-237 91.38,-237 91.38,-231 97.38,-225 103.38,-225"/>
<text text-anchor="middle" x="221.62" y="-298.45" font-family="Helvetica,sans-Serif" font-weight="bold" font-size="9.00">providers</text>
</g>
<g id="clust4" class="cluster">
<title>cluster_src/app/providers/layout</title>
<path fill="#ffffff" stroke="black" stroke-width="2" d="M227.12,-233C227.12,-233 331.88,-233 331.88,-233 337.88,-233 343.88,-239 343.88,-245 343.88,-245 343.88,-273 343.88,-273 343.88,-279 337.88,-285 331.88,-285 331.88,-285 227.12,-285 227.12,-285 221.12,-285 215.12,-279 215.12,-273 215.12,-273 215.12,-245 215.12,-245 215.12,-239 221.12,-233 227.12,-233"/>
<text text-anchor="middle" x="279.5" y="-272.45" font-family="Helvetica,sans-Serif" font-weight="bold" font-size="9.00">layout</text>
</g>
<g id="clust5" class="cluster">
<title>cluster_src/app/providers/router</title>
<path fill="#ffffff" stroke="black" stroke-width="2" d="M111.38,-233C111.38,-233 195.12,-233 195.12,-233 201.12,-233 207.12,-239 207.12,-245 207.12,-245 207.12,-273 207.12,-273 207.12,-279 201.12,-285 195.12,-285 195.12,-285 111.38,-285 111.38,-285 105.38,-285 99.38,-279 99.38,-273 99.38,-273 99.38,-245 99.38,-245 99.38,-239 105.38,-233 111.38,-233"/>
<text text-anchor="middle" x="153.25" y="-272.45" font-family="Helvetica,sans-Serif" font-weight="bold" font-size="9.00">router</text>
</g>
<g id="clust6" class="cluster">
<title>cluster_src/entities</title>
<path fill="#ffffff" stroke="black" stroke-width="2" d="M813.88,-144C813.88,-144 1390.12,-144 1390.12,-144 1396.12,-144 1402.12,-150 1402.12,-156 1402.12,-156 1402.12,-680 1402.12,-680 1402.12,-686 1396.12,-692 1390.12,-692 1390.12,-692 813.88,-692 813.88,-692 807.88,-692 801.88,-686 801.88,-680 801.88,-680 801.88,-156 801.88,-156 801.88,-150 807.88,-144 813.88,-144"/>
<text text-anchor="middle" x="1102" y="-679.45" font-family="Helvetica,sans-Serif" font-weight="bold" font-size="9.00">entities</text>
</g>
<g id="clust7" class="cluster">
<title>cluster_src/entities/pokemon</title>
<path fill="#ffffff" stroke="black" stroke-width="2" d="M821.88,-430C821.88,-430 1187.62,-430 1187.62,-430 1193.62,-430 1199.62,-436 1199.62,-442 1199.62,-442 1199.62,-654 1199.62,-654 1199.62,-660 1193.62,-666 1187.62,-666 1187.62,-666 821.88,-666 821.88,-666 815.88,-666 809.88,-660 809.88,-654 809.88,-654 809.88,-442 809.88,-442 809.88,-436 815.88,-430 821.88,-430"/>
<text text-anchor="middle" x="1004.75" y="-653.45" font-family="Helvetica,sans-Serif" font-weight="bold" font-size="9.00">pokemon</text>
</g>
<g id="clust8" class="cluster">
<title>cluster_src/entities/pokemon/api</title>
<path fill="#ffffff" stroke="black" stroke-width="2" d="M829.88,-580C829.88,-580 927.12,-580 927.12,-580 933.12,-580 939.12,-586 939.12,-592 939.12,-592 939.12,-620 939.12,-620 939.12,-626 933.12,-632 927.12,-632 927.12,-632 829.88,-632 829.88,-632 823.88,-632 817.88,-626 817.88,-620 817.88,-620 817.88,-592 817.88,-592 817.88,-586 823.88,-580 829.88,-580"/>
<text text-anchor="middle" x="878.5" y="-619.45" font-family="Helvetica,sans-Serif" font-weight="bold" font-size="9.00">api</text>
</g>
<g id="clust9" class="cluster">
<title>cluster_src/entities/pokemon/lib</title>
<path fill="#ffffff" stroke="black" stroke-width="2" d="M959.12,-588C959.12,-588 1047.38,-588 1047.38,-588 1053.38,-588 1059.38,-594 1059.38,-600 1059.38,-600 1059.38,-628 1059.38,-628 1059.38,-634 1053.38,-640 1047.38,-640 1047.38,-640 959.12,-640 959.12,-640 953.12,-640 947.12,-634 947.12,-628 947.12,-628 947.12,-600 947.12,-600 947.12,-594 953.12,-588 959.12,-588"/>
<text text-anchor="middle" x="1003.25" y="-627.45" font-family="Helvetica,sans-Serif" font-weight="bold" font-size="9.00">lib</text>
</g>
<g id="clust10" class="cluster">
<title>cluster_src/entities/pokemon/model</title>
<path fill="#ffffff" stroke="black" stroke-width="2" d="M1106.88,-438C1106.88,-438 1152.88,-438 1152.88,-438 1158.88,-438 1164.88,-444 1164.88,-450 1164.88,-450 1164.88,-508 1164.88,-508 1164.88,-514 1158.88,-520 1152.88,-520 1152.88,-520 1106.88,-520 1106.88,-520 1100.88,-520 1094.88,-514 1094.88,-508 1094.88,-508 1094.88,-450 1094.88,-450 1094.88,-444 1100.88,-438 1106.88,-438"/>
<text text-anchor="middle" x="1129.88" y="-507.45" font-family="Helvetica,sans-Serif" font-weight="bold" font-size="9.00">model</text>
</g>
<g id="clust11" class="cluster">
<title>cluster_src/entities/pokemon/ui</title>
<path fill="#ffffff" stroke="black" stroke-width="2" d="M962.88,-528C962.88,-528 1179.62,-528 1179.62,-528 1185.62,-528 1191.62,-534 1191.62,-540 1191.62,-540 1191.62,-568 1191.62,-568 1191.62,-574 1185.62,-580 1179.62,-580 1179.62,-580 962.88,-580 962.88,-580 956.88,-580 950.88,-574 950.88,-568 950.88,-568 950.88,-540 950.88,-540 950.88,-534 956.88,-528 962.88,-528"/>
<text text-anchor="middle" x="1071.25" y="-567.45" font-family="Helvetica,sans-Serif" font-weight="bold" font-size="9.00">ui</text>
</g>
<g id="clust12" class="cluster">
<title>cluster_src/entities/session</title>
<path fill="#ffffff" stroke="black" stroke-width="2" d="M1106.88,-152C1106.88,-152 1382.12,-152 1382.12,-152 1388.12,-152 1394.12,-158 1394.12,-164 1394.12,-164 1394.12,-256 1394.12,-256 1394.12,-262 1388.12,-268 1382.12,-268 1382.12,-268 1106.88,-268 1106.88,-268 1100.88,-268 1094.88,-262 1094.88,-256 1094.88,-256 1094.88,-164 1094.88,-164 1094.88,-158 1100.88,-152 1106.88,-152"/>
<text text-anchor="middle" x="1244.5" y="-255.45" font-family="Helvetica,sans-Serif" font-weight="bold" font-size="9.00">session</text>
</g>
<g id="clust13" class="cluster">
<title>cluster_src/entities/session/model</title>
<path fill="#ffffff" stroke="black" stroke-width="2" d="M1327.88,-160C1327.88,-160 1374.12,-160 1374.12,-160 1380.12,-160 1386.12,-166 1386.12,-172 1386.12,-172 1386.12,-230 1386.12,-230 1386.12,-236 1380.12,-242 1374.12,-242 1374.12,-242 1327.88,-242 1327.88,-242 1321.88,-242 1315.88,-236 1315.88,-230 1315.88,-230 1315.88,-172 1315.88,-172 1315.88,-166 1321.88,-160 1327.88,-160"/>
<text text-anchor="middle" x="1351" y="-229.45" font-family="Helvetica,sans-Serif" font-weight="bold" font-size="9.00">model</text>
</g>
<g id="clust14" class="cluster">
<title>cluster_src/entities/session/ui</title>
<path fill="#ffffff" stroke="black" stroke-width="2" d="M1219.62,-190C1219.62,-190 1295.88,-190 1295.88,-190 1301.88,-190 1307.88,-196 1307.88,-202 1307.88,-202 1307.88,-230 1307.88,-230 1307.88,-236 1301.88,-242 1295.88,-242 1295.88,-242 1219.62,-242 1219.62,-242 1213.62,-242 1207.62,-236 1207.62,-230 1207.62,-230 1207.62,-202 1207.62,-202 1207.62,-196 1213.62,-190 1219.62,-190"/>
<text text-anchor="middle" x="1257.75" y="-229.45" font-family="Helvetica,sans-Serif" font-weight="bold" font-size="9.00">ui</text>
</g>
<g id="clust15" class="cluster">
<title>cluster_src/entities/user</title>
<path fill="#ffffff" stroke="black" stroke-width="2" d="M855.5,-276C855.5,-276 1160.88,-276 1160.88,-276 1166.88,-276 1172.88,-282 1172.88,-288 1172.88,-288 1172.88,-410 1172.88,-410 1172.88,-416 1166.88,-422 1160.88,-422 1160.88,-422 855.5,-422 855.5,-422 849.5,-422 843.5,-416 843.5,-410 843.5,-410 843.5,-288 843.5,-288 843.5,-282 849.5,-276 855.5,-276"/>
<text text-anchor="middle" x="1008.19" y="-409.45" font-family="Helvetica,sans-Serif" font-weight="bold" font-size="9.00">user</text>
</g>
<g id="clust16" class="cluster">
<title>cluster_src/entities/user/lib</title>
<path fill="#ffffff" stroke="black" stroke-width="2" d="M968.88,-344C968.88,-344 1037.62,-344 1037.62,-344 1043.62,-344 1049.62,-350 1049.62,-356 1049.62,-356 1049.62,-384 1049.62,-384 1049.62,-390 1043.62,-396 1037.62,-396 1037.62,-396 968.88,-396 968.88,-396 962.88,-396 956.88,-390 956.88,-384 956.88,-384 956.88,-356 956.88,-356 956.88,-350 962.88,-344 968.88,-344"/>
<text text-anchor="middle" x="1003.25" y="-383.45" font-family="Helvetica,sans-Serif" font-weight="bold" font-size="9.00">lib</text>
</g>
<g id="clust17" class="cluster">
<title>cluster_src/entities/user/model</title>
<path fill="#ffffff" stroke="black" stroke-width="2" d="M980.25,-284C980.25,-284 1152.88,-284 1152.88,-284 1158.88,-284 1164.88,-290 1164.88,-296 1164.88,-296 1164.88,-324 1164.88,-324 1164.88,-330 1158.88,-336 1152.88,-336 1152.88,-336 980.25,-336 980.25,-336 974.25,-336 968.25,-330 968.25,-324 968.25,-324 968.25,-296 968.25,-296 968.25,-290 974.25,-284 980.25,-284"/>
<text text-anchor="middle" x="1066.56" y="-323.45" font-family="Helvetica,sans-Serif" font-weight="bold" font-size="9.00">model</text>
</g>
<g id="clust18" class="cluster">
<title>cluster_src/pages</title>
<path fill="#ffffff" stroke="black" stroke-width="2" d="M248.5,-352C248.5,-352 781.88,-352 781.88,-352 787.88,-352 793.88,-358 793.88,-364 793.88,-364 793.88,-716 793.88,-716 793.88,-722 787.88,-728 781.88,-728 781.88,-728 248.5,-728 248.5,-728 242.5,-728 236.5,-722 236.5,-716 236.5,-716 236.5,-364 236.5,-364 236.5,-358 242.5,-352 248.5,-352"/>
<text text-anchor="middle" x="515.19" y="-715.45" font-family="Helvetica,sans-Serif" font-weight="bold" font-size="9.00">pages</text>
</g>
<g id="clust19" class="cluster">
<title>cluster_src/pages/home</title>
<path fill="#ffffff" stroke="black" stroke-width="2" d="M256.5,-454C256.5,-454 773.88,-454 773.88,-454 779.88,-454 785.88,-460 785.88,-466 785.88,-466 785.88,-690 785.88,-690 785.88,-696 779.88,-702 773.88,-702 773.88,-702 256.5,-702 256.5,-702 250.5,-702 244.5,-696 244.5,-690 244.5,-690 244.5,-466 244.5,-466 244.5,-460 250.5,-454 256.5,-454"/>
<text text-anchor="middle" x="515.19" y="-689.45" font-family="Helvetica,sans-Serif" font-weight="bold" font-size="9.00">home</text>
</g>
<g id="clust20" class="cluster">
<title>cluster_src/pages/home/@fractal&#45;widgets</title>
<path fill="#ffffff" stroke="black" stroke-width="2" d="M465.88,-462C465.88,-462 765.88,-462 765.88,-462 771.88,-462 777.88,-468 777.88,-474 777.88,-474 777.88,-664 777.88,-664 777.88,-670 771.88,-676 765.88,-676 765.88,-676 465.88,-676 465.88,-676 459.88,-676 453.88,-670 453.88,-664 453.88,-664 453.88,-474 453.88,-474 453.88,-468 459.88,-462 465.88,-462"/>
<text text-anchor="middle" x="615.88" y="-663.45" font-family="Helvetica,sans-Serif" font-weight="bold" font-size="9.00">@fractal&#45;widgets</text>
</g>
<g id="clust21" class="cluster">
<title>cluster_src/pages/home/@fractal&#45;widgets/SearchPokemonById</title>
<path fill="#ffffff" stroke="black" stroke-width="2" d="M473.88,-470C473.88,-470 757.88,-470 757.88,-470 763.88,-470 769.88,-476 769.88,-482 769.88,-482 769.88,-544 769.88,-544 769.88,-550 763.88,-556 757.88,-556 757.88,-556 473.88,-556 473.88,-556 467.88,-556 461.88,-550 461.88,-544 461.88,-544 461.88,-482 461.88,-482 461.88,-476 467.88,-470 473.88,-470"/>
<text text-anchor="middle" x="615.88" y="-543.45" font-family="Helvetica,sans-Serif" font-weight="bold" font-size="9.00">SearchPokemonById</text>
</g>
<g id="clust22" class="cluster">
<title>cluster_src/pages/home/@fractal&#45;widgets/SearchPokemonById/model</title>
<path fill="#ffffff" stroke="black" stroke-width="2" d="M703.88,-478C703.88,-478 749.88,-478 749.88,-478 755.88,-478 761.88,-484 761.88,-490 761.88,-490 761.88,-518 761.88,-518 761.88,-524 755.88,-530 749.88,-530 749.88,-530 703.88,-530 703.88,-530 697.88,-530 691.88,-524 691.88,-518 691.88,-518 691.88,-490 691.88,-490 691.88,-484 697.88,-478 703.88,-478"/>
<text text-anchor="middle" x="726.88" y="-517.45" font-family="Helvetica,sans-Serif" font-weight="bold" font-size="9.00">model</text>
</g>
<g id="clust23" class="cluster">
<title>cluster_src/pages/home/@fractal&#45;widgets/SearchPokemonById/ui</title>
<path fill="#ffffff" stroke="black" stroke-width="2" d="M554,-478C554,-478 661.75,-478 661.75,-478 667.75,-478 673.75,-484 673.75,-490 673.75,-490 673.75,-518 673.75,-518 673.75,-524 667.75,-530 661.75,-530 661.75,-530 554,-530 554,-530 548,-530 542,-524 542,-518 542,-518 542,-490 542,-490 542,-484 548,-478 554,-478"/>
<text text-anchor="middle" x="607.88" y="-517.45" font-family="Helvetica,sans-Serif" font-weight="bold" font-size="9.00">ui</text>
</g>
<g id="clust24" class="cluster">
<title>cluster_src/pages/home/@fractal&#45;widgets/StrongestPokemons</title>
<path fill="#ffffff" stroke="black" stroke-width="2" d="M473.88,-564C473.88,-564 757.88,-564 757.88,-564 763.88,-564 769.88,-570 769.88,-576 769.88,-576 769.88,-638 769.88,-638 769.88,-644 763.88,-650 757.88,-650 757.88,-650 473.88,-650 473.88,-650 467.88,-650 461.88,-644 461.88,-638 461.88,-638 461.88,-576 461.88,-576 461.88,-570 467.88,-564 473.88,-564"/>
<text text-anchor="middle" x="615.88" y="-637.45" font-family="Helvetica,sans-Serif" font-weight="bold" font-size="9.00">StrongestPokemons</text>
</g>
<g id="clust25" class="cluster">
<title>cluster_src/pages/home/@fractal&#45;widgets/StrongestPokemons/model</title>
<path fill="#ffffff" stroke="black" stroke-width="2" d="M703.88,-572C703.88,-572 749.88,-572 749.88,-572 755.88,-572 761.88,-578 761.88,-584 761.88,-584 761.88,-612 761.88,-612 761.88,-618 755.88,-624 749.88,-624 749.88,-624 703.88,-624 703.88,-624 697.88,-624 691.88,-618 691.88,-612 691.88,-612 691.88,-584 691.88,-584 691.88,-578 697.88,-572 703.88,-572"/>
<text text-anchor="middle" x="726.88" y="-611.45" font-family="Helvetica,sans-Serif" font-weight="bold" font-size="9.00">model</text>
</g>
<g id="clust26" class="cluster">
<title>cluster_src/pages/home/@fractal&#45;widgets/StrongestPokemons/ui</title>
<path fill="#ffffff" stroke="black" stroke-width="2" d="M543.88,-572C543.88,-572 671.88,-572 671.88,-572 677.88,-572 683.88,-578 683.88,-584 683.88,-584 683.88,-612 683.88,-612 683.88,-618 677.88,-624 671.88,-624 671.88,-624 543.88,-624 543.88,-624 537.88,-624 531.88,-618 531.88,-612 531.88,-612 531.88,-584 531.88,-584 531.88,-578 537.88,-572 543.88,-572"/>
<text text-anchor="middle" x="607.88" y="-611.45" font-family="Helvetica,sans-Serif" font-weight="bold" font-size="9.00">ui</text>
</g>
<g id="clust27" class="cluster">
<title>cluster_src/pages/home/ui</title>
<path fill="#ffffff" stroke="black" stroke-width="2" d="M379.88,-478C379.88,-478 425.88,-478 425.88,-478 431.88,-478 437.88,-484 437.88,-490 437.88,-490 437.88,-518 437.88,-518 437.88,-524 431.88,-530 425.88,-530 425.88,-530 379.88,-530 379.88,-530 373.88,-530 367.88,-524 367.88,-518 367.88,-518 367.88,-490 367.88,-490 367.88,-484 373.88,-478 379.88,-478"/>
<text text-anchor="middle" x="402.88" y="-517.45" font-family="Helvetica,sans-Serif" font-weight="bold" font-size="9.00">ui</text>
</g>
<g id="clust28" class="cluster">
<title>cluster_src/pages/profile</title>
<path fill="#ffffff" stroke="black" stroke-width="2" d="M256.5,-360C256.5,-360 433.88,-360 433.88,-360 439.88,-360 445.88,-366 445.88,-372 445.88,-372 445.88,-434 445.88,-434 445.88,-440 439.88,-446 433.88,-446 433.88,-446 256.5,-446 256.5,-446 250.5,-446 244.5,-440 244.5,-434 244.5,-434 244.5,-372 244.5,-372 244.5,-366 250.5,-360 256.5,-360"/>
<text text-anchor="middle" x="345.19" y="-433.45" font-family="Helvetica,sans-Serif" font-weight="bold" font-size="9.00">profile</text>
</g>
<g id="clust29" class="cluster">
<title>cluster_src/pages/profile/ui</title>
<path fill="#ffffff" stroke="black" stroke-width="2" d="M379.88,-368C379.88,-368 425.88,-368 425.88,-368 431.88,-368 437.88,-374 437.88,-380 437.88,-380 437.88,-408 437.88,-408 437.88,-414 431.88,-420 425.88,-420 425.88,-420 379.88,-420 379.88,-420 373.88,-420 367.88,-414 367.88,-408 367.88,-408 367.88,-380 367.88,-380 367.88,-374 373.88,-368 379.88,-368"/>
<text text-anchor="middle" x="402.88" y="-407.45" font-family="Helvetica,sans-Serif" font-weight="bold" font-size="9.00">ui</text>
</g>
<g id="clust30" class="cluster">
<title>cluster_src/shared</title>
<path fill="#ffffff" stroke="black" stroke-width="2" d="M1422.12,-374C1422.12,-374 1778.12,-374 1778.12,-374 1784.12,-374 1790.12,-380 1790.12,-386 1790.12,-386 1790.12,-720 1790.12,-720 1790.12,-726 1784.12,-732 1778.12,-732 1778.12,-732 1422.12,-732 1422.12,-732 1416.12,-732 1410.12,-726 1410.12,-720 1410.12,-720 1410.12,-386 1410.12,-386 1410.12,-380 1416.12,-374 1422.12,-374"/>
<text text-anchor="middle" x="1600.12" y="-719.45" font-family="Helvetica,sans-Serif" font-weight="bold" font-size="9.00">shared</text>
</g>
<g id="clust31" class="cluster">
<title>cluster_src/shared/api</title>
<path fill="#ffffff" stroke="black" stroke-width="2" d="M1430.12,-382C1430.12,-382 1770.12,-382 1770.12,-382 1776.12,-382 1782.12,-388 1782.12,-394 1782.12,-394 1782.12,-604 1782.12,-604 1782.12,-610 1776.12,-616 1770.12,-616 1770.12,-616 1430.12,-616 1430.12,-616 1424.12,-616 1418.12,-610 1418.12,-604 1418.12,-604 1418.12,-394 1418.12,-394 1418.12,-388 1424.12,-382 1430.12,-382"/>
<text text-anchor="middle" x="1600.12" y="-603.45" font-family="Helvetica,sans-Serif" font-weight="bold" font-size="9.00">api</text>
</g>
<g id="clust32" class="cluster">
<title>cluster_src/shared/api/base</title>
<path fill="#ffffff" stroke="black" stroke-width="2" d="M1438.12,-390C1438.12,-390 1762.12,-390 1762.12,-390 1768.12,-390 1774.12,-396 1774.12,-402 1774.12,-402 1774.12,-488 1774.12,-488 1774.12,-494 1768.12,-500 1762.12,-500 1762.12,-500 1438.12,-500 1438.12,-500 1432.12,-500 1426.12,-494 1426.12,-488 1426.12,-488 1426.12,-402 1426.12,-402 1426.12,-396 1432.12,-390 1438.12,-390"/>
<text text-anchor="middle" x="1600.12" y="-487.45" font-family="Helvetica,sans-Serif" font-weight="bold" font-size="9.00">base</text>
</g>
<g id="clust33" class="cluster">
<title>cluster_src/shared/api/pokemon</title>
<path fill="#ffffff" stroke="black" stroke-width="2" d="M1438.12,-508C1438.12,-508 1597.12,-508 1597.12,-508 1603.12,-508 1609.12,-514 1609.12,-520 1609.12,-520 1609.12,-578 1609.12,-578 1609.12,-584 1603.12,-590 1597.12,-590 1597.12,-590 1438.12,-590 1438.12,-590 1432.12,-590 1426.12,-584 1426.12,-578 1426.12,-578 1426.12,-520 1426.12,-520 1426.12,-514 1432.12,-508 1438.12,-508"/>
<text text-anchor="middle" x="1517.62" y="-577.45" font-family="Helvetica,sans-Serif" font-weight="bold" font-size="9.00">pokemon</text>
</g>
<g id="clust34" class="cluster">
<title>cluster_src/shared/lib</title>
<path fill="#ffffff" stroke="black" stroke-width="2" d="M1716.12,-624C1716.12,-624 1762.12,-624 1762.12,-624 1768.12,-624 1774.12,-630 1774.12,-636 1774.12,-636 1774.12,-694 1774.12,-694 1774.12,-700 1768.12,-706 1762.12,-706 1762.12,-706 1716.12,-706 1716.12,-706 1710.12,-706 1704.12,-700 1704.12,-694 1704.12,-694 1704.12,-636 1704.12,-636 1704.12,-630 1710.12,-624 1716.12,-624"/>
<text text-anchor="middle" x="1739.12" y="-693.45" font-family="Helvetica,sans-Serif" font-weight="bold" font-size="9.00">lib</text>
</g>
<g id="clust35" class="cluster">
<title>cluster_src/shared/ui</title>
<path fill="#ffffff" stroke="black" stroke-width="2" d="M1438.12,-654C1438.12,-654 1484.12,-654 1484.12,-654 1490.12,-654 1496.12,-660 1496.12,-666 1496.12,-666 1496.12,-694 1496.12,-694 1496.12,-700 1490.12,-706 1484.12,-706 1484.12,-706 1438.12,-706 1438.12,-706 1432.12,-706 1426.12,-700 1426.12,-694 1426.12,-694 1426.12,-666 1426.12,-666 1426.12,-660 1432.12,-654 1438.12,-654"/>
<text text-anchor="middle" x="1461.12" y="-693.45" font-family="Helvetica,sans-Serif" font-weight="bold" font-size="9.00">ui</text>
</g>
<g id="clust36" class="cluster">
<title>cluster_src/widgets</title>
<path fill="#ffffff" stroke="black" stroke-width="2" d="M972.25,-16C972.25,-16 1390,-16 1390,-16 1396,-16 1402,-22 1402,-28 1402,-28 1402,-124 1402,-124 1402,-130 1396,-136 1390,-136 1390,-136 972.25,-136 972.25,-136 966.25,-136 960.25,-130 960.25,-124 960.25,-124 960.25,-28 960.25,-28 960.25,-22 966.25,-16 972.25,-16"/>
<text text-anchor="middle" x="1181.12" y="-123.45" font-family="Helvetica,sans-Serif" font-weight="bold" font-size="9.00">widgets</text>
</g>
<g id="clust37" class="cluster">
<title>cluster_src/widgets/LoginDialog</title>
<path fill="#ffffff" stroke="black" stroke-width="2" d="M980.25,-24C980.25,-24 1382,-24 1382,-24 1388,-24 1394,-30 1394,-36 1394,-36 1394,-98 1394,-98 1394,-104 1388,-110 1382,-110 1382,-110 980.25,-110 980.25,-110 974.25,-110 968.25,-104 968.25,-98 968.25,-98 968.25,-36 968.25,-36 968.25,-30 974.25,-24 980.25,-24"/>
<text text-anchor="middle" x="1181.12" y="-97.45" font-family="Helvetica,sans-Serif" font-weight="bold" font-size="9.00">LoginDialog</text>
</g>
<g id="clust38" class="cluster">
<title>cluster_src/widgets/LoginDialog/model</title>
<path fill="#ffffff" stroke="black" stroke-width="2" d="M1328,-32C1328,-32 1374,-32 1374,-32 1380,-32 1386,-38 1386,-44 1386,-44 1386,-72 1386,-72 1386,-78 1380,-84 1374,-84 1374,-84 1328,-84 1328,-84 1322,-84 1316,-78 1316,-72 1316,-72 1316,-44 1316,-44 1316,-38 1322,-32 1328,-32"/>
<text text-anchor="middle" x="1351" y="-71.45" font-family="Helvetica,sans-Serif" font-weight="bold" font-size="9.00">model</text>
</g>
<g id="clust39" class="cluster">
<title>cluster_src/widgets/LoginDialog/ui</title>
<path fill="#ffffff" stroke="black" stroke-width="2" d="M1079.38,-32C1079.38,-32 1293.62,-32 1293.62,-32 1299.62,-32 1305.62,-38 1305.62,-44 1305.62,-44 1305.62,-72 1305.62,-72 1305.62,-78 1299.62,-84 1293.62,-84 1293.62,-84 1079.38,-84 1079.38,-84 1073.38,-84 1067.38,-78 1067.38,-72 1067.38,-72 1067.38,-44 1067.38,-44 1067.38,-38 1073.38,-32 1079.38,-32"/>
<text text-anchor="middle" x="1186.5" y="-71.45" font-family="Helvetica,sans-Serif" font-weight="bold" font-size="9.00">ui</text>
</g>
<!-- src/app/entry.css -->
<g id="node1" class="node">
<title>src/app/entry.css</title>
<g id="a_node1"><a xlink:href="src/app/entry.css" xlink:title="entry.css">
<path fill="#ffffcc" stroke="black" d="M174.33,-216.88C174.33,-216.88 132.17,-216.88 132.17,-216.88 129.21,-216.88 126.25,-213.92 126.25,-210.96 126.25,-210.96 126.25,-205.04 126.25,-205.04 126.25,-202.08 129.21,-199.12 132.17,-199.12 132.17,-199.12 174.33,-199.12 174.33,-199.12 177.29,-199.12 180.25,-202.08 180.25,-205.04 180.25,-205.04 180.25,-210.96 180.25,-210.96 180.25,-213.92 177.29,-216.88 174.33,-216.88"/>
<text text-anchor="start" x="135.25" y="-204.32" font-family="Helvetica,sans-Serif" font-size="9.00">entry.css</text>
</a>
</g>
</g>
<!-- src/app/entry.tsx -->
<g id="node2" class="node">
<title>src/app/entry.tsx</title>
<g id="a_node2"><a xlink:href="src/app/entry.tsx" xlink:title="entry.tsx">
<path fill="#bbfeff" stroke="black" d="M72.08,-237.88C72.08,-237.88 29.92,-237.88 29.92,-237.88 26.96,-237.88 24,-234.92 24,-231.96 24,-231.96 24,-226.04 24,-226.04 24,-223.08 26.96,-220.12 29.92,-220.12 29.92,-220.12 72.08,-220.12 72.08,-220.12 75.04,-220.12 78,-223.08 78,-226.04 78,-226.04 78,-231.96 78,-231.96 78,-234.92 75.04,-237.88 72.08,-237.88"/>
<text text-anchor="start" x="34.12" y="-225.32" font-family="Helvetica,sans-Serif" font-size="9.00">entry.tsx</text>
</a>
</g>
</g>
<!-- src/app/entry.tsx&#45;&gt;src/app/entry.css -->
<g id="edge1" class="edge">
<title>src/app/entry.tsx&#45;&gt;src/app/entry.css</title>
<path fill="none" stroke="#000000" stroke-width="2" stroke-opacity="0.200000" d="M78.34,-223.48C90.31,-220.97 104.64,-217.97 117.48,-215.28"/>
<polygon fill="#000000" fill-opacity="0.200000" stroke="#000000" stroke-width="2" stroke-opacity="0.200000" points="117.68,-217.39 123.12,-214.1 116.82,-213.28 117.68,-217.39"/>
</g>
<!-- src/app/providers/router/RouterProvider.tsx -->
<g id="node3" class="node">
<title>src/app/providers/router/RouterProvider.tsx</title>
<g id="a_node3"><a xlink:href="src/app/providers/router/RouterProvider.tsx" xlink:title="RouterProvider.tsx">
<path fill="#bbfeff" stroke="black" d="M193.21,-258.88C193.21,-258.88 113.29,-258.88 113.29,-258.88 110.33,-258.88 107.38,-255.92 107.38,-252.96 107.38,-252.96 107.38,-247.04 107.38,-247.04 107.38,-244.08 110.33,-241.12 113.29,-241.12 113.29,-241.12 193.21,-241.12 193.21,-241.12 196.17,-241.12 199.12,-244.08 199.12,-247.04 199.12,-247.04 199.12,-252.96 199.12,-252.96 199.12,-255.92 196.17,-258.88 193.21,-258.88"/>
<text text-anchor="start" x="115.38" y="-246.32" font-family="Helvetica,sans-Serif" font-size="9.00">RouterProvider.tsx</text>
</a>
</g>
</g>
<!-- src/app/entry.tsx&#45;&gt;src/app/providers/router/RouterProvider.tsx -->
<g id="edge2" class="edge">
<title>src/app/entry.tsx&#45;&gt;src/app/providers/router/RouterProvider.tsx</title>
<path fill="none" stroke="#000000" stroke-width="2" stroke-opacity="0.200000" d="M78.34,-234.52C84.84,-235.88 92.04,-237.39 99.32,-238.91"/>
<polygon fill="#000000" fill-opacity="0.200000" stroke="#000000" stroke-width="2" stroke-opacity="0.200000" points="98.6,-240.91 104.91,-240.08 99.46,-236.8 98.6,-240.91"/>
</g>
<!-- src/app/providers/layout/BaseLayoutProvider.tsx -->
<g id="node4" class="node">
<title>src/app/providers/layout/BaseLayoutProvider.tsx</title>
<g id="a_node4"><a xlink:href="src/app/providers/layout/BaseLayoutProvider.tsx" xlink:title="BaseLayoutProvider.tsx">
<path fill="#bbfeff" stroke="black" d="M329.96,-258.88C329.96,-258.88 229.04,-258.88 229.04,-258.88 226.08,-258.88 223.12,-255.92 223.12,-252.96 223.12,-252.96 223.12,-247.04 223.12,-247.04 223.12,-244.08 226.08,-241.12 229.04,-241.12 229.04,-241.12 329.96,-241.12 329.96,-241.12 332.92,-241.12 335.88,-244.08 335.88,-247.04 335.88,-247.04 335.88,-252.96 335.88,-252.96 335.88,-255.92 332.92,-258.88 329.96,-258.88"/>
<text text-anchor="start" x="231.12" y="-246.32" font-family="Helvetica,sans-Serif" font-size="9.00">BaseLayoutProvider.tsx</text>
</a>
</g>
</g>
<!-- src/app/providers/router/RouterProvider.tsx&#45;&gt;src/app/providers/layout/BaseLayoutProvider.tsx -->
<g id="edge5" class="edge">
<title>src/app/providers/router/RouterProvider.tsx&#45;&gt;src/app/providers/layout/BaseLayoutProvider.tsx</title>
<path fill="none" stroke="#000000" stroke-width="2" stroke-opacity="0.200000" d="M199.46,-250C204.23,-250 209.14,-250 214.08,-250"/>
<polygon fill="#000000" fill-opacity="0.200000" stroke="#000000" stroke-width="2" stroke-opacity="0.200000" points="213.92,-252.1 219.92,-250 213.92,-247.9 213.92,-252.1"/>
</g>
<!-- src/pages/home/index.ts -->
<g id="node7" class="node">
<title>src/pages/home/index.ts</title>
<g id="a_node7"><a xlink:href="src/pages/home/index.ts" xlink:title="index.ts">
<path fill="#ddfeff" stroke="black" d="M300.58,-491.88C300.58,-491.88 258.42,-491.88 258.42,-491.88 255.46,-491.88 252.5,-488.92 252.5,-485.96 252.5,-485.96 252.5,-480.04 252.5,-480.04 252.5,-477.08 255.46,-474.12 258.42,-474.12 258.42,-474.12 300.58,-474.12 300.58,-474.12 303.54,-474.12 306.5,-477.08 306.5,-480.04 306.5,-480.04 306.5,-485.96 306.5,-485.96 306.5,-488.92 303.54,-491.88 300.58,-491.88"/>
<text text-anchor="start" x="263.75" y="-479.32" font-family="Helvetica,sans-Serif" font-size="9.00">index.ts</text>
</a>
</g>
</g>
<!-- src/app/providers/router/RouterProvider.tsx&#45;&gt;src/pages/home/index.ts -->
<g id="edge6" class="edge">
<title>src/app/providers/router/RouterProvider.tsx&#45;&gt;src/pages/home/index.ts</title>
<path fill="none" stroke="#000000" stroke-width="2" stroke-opacity="0.200000" d="M154.64,-259.06C156.4,-289.41 165.82,-388.97 215.12,-449 222.77,-458.3 233.64,-465.42 244.23,-470.68"/>
<polygon fill="#000000" fill-opacity="0.200000" stroke="#000000" stroke-width="2" stroke-opacity="0.200000" points="243.14,-472.49 249.46,-473.08 244.89,-468.67 243.14,-472.49"/>
</g>
<!-- src/pages/profile/index.ts -->
<g id="node8" class="node">
<title>src/pages/profile/index.ts</title>
<g id="a_node8"><a xlink:href="src/pages/profile/index.ts" xlink:title="index.ts">
<path fill="#ddfeff" stroke="black" d="M300.58,-389.88C300.58,-389.88 258.42,-389.88 258.42,-389.88 255.46,-389.88 252.5,-386.92 252.5,-383.96 252.5,-383.96 252.5,-378.04 252.5,-378.04 252.5,-375.08 255.46,-372.12 258.42,-372.12 258.42,-372.12 300.58,-372.12 300.58,-372.12 303.54,-372.12 306.5,-375.08 306.5,-378.04 306.5,-378.04 306.5,-383.96 306.5,-383.96 306.5,-386.92 303.54,-389.88 300.58,-389.88"/>
<text text-anchor="start" x="263.75" y="-377.32" font-family="Helvetica,sans-Serif" font-size="9.00">index.ts</text>
</a>
</g>
</g>
<!-- src/app/providers/router/RouterProvider.tsx&#45;&gt;src/pages/profile/index.ts -->
<g id="edge7" class="edge">
<title>src/app/providers/router/RouterProvider.tsx&#45;&gt;src/pages/profile/index.ts</title>
<path fill="none" stroke="#000000" stroke-width="2" stroke-opacity="0.200000" d="M162.79,-259C183.72,-281.07 237.74,-338.02 263.89,-365.6"/>
<polygon fill="#000000" fill-opacity="0.200000" stroke="#000000" stroke-width="2" stroke-opacity="0.200000" points="262.16,-366.83 267.82,-369.74 265.21,-363.94 262.16,-366.83"/>
</g>
<!-- src/entities/session/index.ts -->
<g id="node5" class="node">
<title>src/entities/session/index.ts</title>
<g id="a_node5"><a xlink:href="src/entities/session/index.ts" xlink:title="index.ts">
<path fill="#ddfeff" stroke="black" d="M1150.96,-228.88C1150.96,-228.88 1108.79,-228.88 1108.79,-228.88 1105.83,-228.88 1102.88,-225.92 1102.88,-222.96 1102.88,-222.96 1102.88,-217.04 1102.88,-217.04 1102.88,-214.08 1105.83,-211.12 1108.79,-211.12 1108.79,-211.12 1150.96,-211.12 1150.96,-211.12 1153.92,-211.12 1156.88,-214.08 1156.88,-217.04 1156.88,-217.04 1156.88,-222.96 1156.88,-222.96 1156.88,-225.92 1153.92,-228.88 1150.96,-228.88"/>
<text text-anchor="start" x="1114.12" y="-216.32" font-family="Helvetica,sans-Serif" font-size="9.00">index.ts</text>
</a>
</g>
</g>
<!-- src/app/providers/layout/BaseLayoutProvider.tsx&#45;&gt;src/entities/session/index.ts -->
<g id="edge3" class="edge">
<title>src/app/providers/layout/BaseLayoutProvider.tsx&#45;&gt;src/entities/session/index.ts</title>
<path fill="none" stroke="#000000" stroke-width="2" stroke-opacity="0.200000" d="M336.23,-245.19C379.69,-241.85 441.57,-238 495.88,-238 495.88,-238 495.88,-238 879.5,-238 956.16,-238 1045.74,-229.43 1093.92,-224.12"/>
<polygon fill="#000000" fill-opacity="0.200000" stroke="#000000" stroke-width="2" stroke-opacity="0.200000" points="1093.97,-226.23 1099.7,-223.47 1093.51,-222.05 1093.97,-226.23"/>
</g>
<!-- src/widgets/LoginDialog/index.ts -->
<g id="node6" class="node">
<title>src/widgets/LoginDialog/index.ts</title>
<g id="a_node6"><a xlink:href="src/widgets/LoginDialog/index.ts" xlink:title="index.ts">
<path fill="#ddfeff" stroke="black" d="M1024.33,-70.88C1024.33,-70.88 982.17,-70.88 982.17,-70.88 979.21,-70.88 976.25,-67.92 976.25,-64.96 976.25,-64.96 976.25,-59.04 976.25,-59.04 976.25,-56.08 979.21,-53.12 982.17,-53.12 982.17,-53.12 1024.33,-53.12 1024.33,-53.12 1027.29,-53.12 1030.25,-56.08 1030.25,-59.04 1030.25,-59.04 1030.25,-64.96 1030.25,-64.96 1030.25,-67.92 1027.29,-70.88 1024.33,-70.88"/>
<text text-anchor="start" x="987.5" y="-58.33" font-family="Helvetica,sans-Serif" font-size="9.00">index.ts</text>
</a>
</g>
</g>
<!-- src/app/providers/layout/BaseLayoutProvider.tsx&#45;&gt;src/widgets/LoginDialog/index.ts -->
<g id="edge4" class="edge">
<title>src/app/providers/layout/BaseLayoutProvider.tsx&#45;&gt;src/widgets/LoginDialog/index.ts</title>
<path fill="none" stroke="#000000" stroke-width="2" stroke-opacity="0.200000" d="M286.73,-240.95C310.07,-208.22 396.11,-98 495.88,-98 495.88,-98 495.88,-98 727.88,-98 814.44,-98 915.07,-80.17 967.08,-69.6"/>
<polygon fill="#000000" fill-opacity="0.200000" stroke="#000000" stroke-width="2" stroke-opacity="0.200000" points="967.5,-71.66 972.95,-68.39 966.65,-67.55 967.5,-71.66"/>
</g>
<!-- src/entities/session/model/actions.ts -->
<g id="node17" class="node">
<title>src/entities/session/model/actions.ts</title>
<g id="a_node17"><a xlink:href="src/entities/session/model/actions.ts" xlink:title="actions.ts">
<path fill="#ddfeff" stroke="black" d="M1372.21,-215.88C1372.21,-215.88 1329.79,-215.88 1329.79,-215.88 1326.83,-215.88 1323.88,-212.92 1323.88,-209.96 1323.88,-209.96 1323.88,-204.04 1323.88,-204.04 1323.88,-201.08 1326.83,-198.12 1329.79,-198.12 1329.79,-198.12 1372.21,-198.12 1372.21,-198.12 1375.17,-198.12 1378.12,-201.08 1378.12,-204.04 1378.12,-204.04 1378.12,-209.96 1378.12,-209.96 1378.12,-212.92 1375.17,-215.88 1372.21,-215.88"/>
<text text-anchor="start" x="1331.88" y="-203.32" font-family="Helvetica,sans-Serif" font-size="9.00">actions.ts</text>
</a>
</g>
</g>
<!-- src/entities/session/index.ts&#45;&gt;src/entities/session/model/actions.ts -->
<g id="edge17" class="edge">
<title>src/entities/session/index.ts&#45;&gt;src/entities/session/model/actions.ts</title>
<path fill="none" stroke="#000000" stroke-width="2" stroke-opacity="0.200000" d="M1147.01,-210.76C1162.11,-202.67 1185.61,-191.53 1207.62,-187 1251.27,-178.02 1265.05,-174.72 1307.88,-187 1311.91,-188.16 1312.17,-190.04 1315.88,-192 1317.64,-192.94 1319.49,-193.86 1321.35,-194.77"/>
<polygon fill="#000000" fill-opacity="0.200000" stroke="#000000" stroke-width="2" stroke-opacity="0.200000" points="1325.95,-199.25 1321.41,-194.8 1327.74,-195.45 1325.95,-199.25"/>
</g>
<!-- src/entities/session/model/store.ts -->
<g id="node18" class="node">
<title>src/entities/session/model/store.ts</title>
<g id="a_node18"><a xlink:href="src/entities/session/model/store.ts" xlink:title="store.ts">
<path fill="#ddfeff" stroke="black" d="M1372.08,-185.88C1372.08,-185.88 1329.92,-185.88 1329.92,-185.88 1326.96,-185.88 1324,-182.92 1324,-179.96 1324,-179.96 1324,-174.04 1324,-174.04 1324,-171.08 1326.96,-168.12 1329.92,-168.12 1329.92,-168.12 1372.08,-168.12 1372.08,-168.12 1375.04,-168.12 1378,-171.08 1378,-174.04 1378,-174.04 1378,-179.96 1378,-179.96 1378,-182.92 1375.04,-185.88 1372.08,-185.88"/>
<text text-anchor="start" x="1336.38" y="-173.32" font-family="Helvetica,sans-Serif" font-size="9.00">store.ts</text>
</a>
</g>
</g>
<!-- src/entities/session/index.ts&#45;&gt;src/entities/session/model/store.ts -->
<g id="edge18" class="edge">
<title>src/entities/session/index.ts&#45;&gt;src/entities/session/model/store.ts</title>
<path fill="none" stroke="#000000" stroke-width="2" stroke-opacity="0.200000" d="M1141.96,-210.89C1156.15,-199.88 1181.99,-181.96 1207.62,-175 1244.07,-165.1 1287.71,-167.73 1316.99,-171.46"/>
<polygon fill="#000000" fill-opacity="0.200000" stroke="#000000" stroke-width="2" stroke-opacity="0.200000" points="1322.47,-174.32 1316.8,-171.43 1323.03,-170.15 1322.47,-174.32"/>
</g>
<!-- src/entities/session/ui/LogoutButton.tsx -->
<g id="node19" class="node">
<title>src/entities/session/ui/LogoutButton.tsx</title>
<g id="a_node19"><a xlink:href="src/entities/session/ui/LogoutButton.tsx" xlink:title="LogoutButton.tsx">
<path fill="#bbfeff" stroke="black" d="M1293.96,-215.88C1293.96,-215.88 1221.54,-215.88 1221.54,-215.88 1218.58,-215.88 1215.62,-212.92 1215.62,-209.96 1215.62,-209.96 1215.62,-204.04 1215.62,-204.04 1215.62,-201.08 1218.58,-198.12 1221.54,-198.12 1221.54,-198.12 1293.96,-198.12 1293.96,-198.12 1296.92,-198.12 1299.88,-201.08 1299.88,-204.04 1299.88,-204.04 1299.88,-209.96 1299.88,-209.96 1299.88,-212.92 1296.92,-215.88 1293.96,-215.88"/>
<text text-anchor="start" x="1223.62" y="-203.32" font-family="Helvetica,sans-Serif" font-size="9.00">LogoutButton.tsx</text>
</a>
</g>
</g>
<!-- src/entities/session/index.ts&#45;&gt;src/entities/session/ui/LogoutButton.tsx -->
<g id="edge19" class="edge">
<title>src/entities/session/index.ts&#45;&gt;src/entities/session/ui/LogoutButton.tsx</title>
<path fill="none" stroke="#000000" stroke-width="2" stroke-opacity="0.200000" d="M1157.26,-217.27C1172.15,-215.74 1191.23,-213.77 1208.68,-211.96"/>
<polygon fill="#000000" fill-opacity="0.200000" stroke="#000000" stroke-width="2" stroke-opacity="0.200000" points="1214.75,-213.45 1208.57,-211.98 1214.32,-209.27 1214.75,-213.45"/>
</g>
<!-- src/widgets/LoginDialog/ui/LoginDialogTrigger.tsx -->
<g id="node44" class="node">
<title>src/widgets/LoginDialog/ui/LoginDialogTrigger.tsx</title>
<g id="a_node44"><a xlink:href="src/widgets/LoginDialog/ui/LoginDialogTrigger.tsx" xlink:title="LoginDialogTrigger.tsx">
<path fill="#bbfeff" stroke="black" d="M1178.46,-57.88C1178.46,-57.88 1081.29,-57.88 1081.29,-57.88 1078.33,-57.88 1075.38,-54.92 1075.38,-51.96 1075.38,-51.96 1075.38,-46.04 1075.38,-46.04 1075.38,-43.08 1078.33,-40.12 1081.29,-40.12 1081.29,-40.12 1178.46,-40.12 1178.46,-40.12 1181.42,-40.12 1184.38,-43.08 1184.38,-46.04 1184.38,-46.04 1184.38,-51.96 1184.38,-51.96 1184.38,-54.92 1181.42,-57.88 1178.46,-57.88"/>
<text text-anchor="start" x="1083.38" y="-45.33" font-family="Helvetica,sans-Serif" font-size="9.00">LoginDialogTrigger.tsx</text>
</a>
</g>
</g>
<!-- src/widgets/LoginDialog/index.ts&#45;&gt;src/widgets/LoginDialog/ui/LoginDialogTrigger.tsx -->
<g id="edge58" class="edge">
<title>src/widgets/LoginDialog/index.ts&#45;&gt;src/widgets/LoginDialog/ui/LoginDialogTrigger.tsx</title>
<path fill="none" stroke="#000000" stroke-width="2" stroke-opacity="0.200000" d="M1030.68,-59.24C1041.69,-58.09 1054.97,-56.71 1068.16,-55.33"/>
<polygon fill="#000000" fill-opacity="0.200000" stroke="#000000" stroke-width="2" stroke-opacity="0.200000" points="1074.26,-56.81 1068.07,-55.34 1073.82,-52.63 1074.26,-56.81"/>
</g>
<!-- src/pages/home/ui/Page.tsx -->
<g id="node32" class="node">
<title>src/pages/home/ui/Page.tsx</title>
<g id="a_node32"><a xlink:href="src/pages/home/ui/Page.tsx" xlink:title="Page.tsx">
<path fill="#bbfeff" stroke="black" d="M423.96,-503.88C423.96,-503.88 381.79,-503.88 381.79,-503.88 378.83,-503.88 375.88,-500.92 375.88,-497.96 375.88,-497.96 375.88,-492.04 375.88,-492.04 375.88,-489.08 378.83,-486.12 381.79,-486.12 381.79,-486.12 423.96,-486.12 423.96,-486.12 426.92,-486.12 429.88,-489.08 429.88,-492.04 429.88,-492.04 429.88,-497.96 429.88,-497.96 429.88,-500.92 426.92,-503.88 423.96,-503.88"/>
<text text-anchor="start" x="385.25" y="-491.32" font-family="Helvetica,sans-Serif" font-size="9.00">Page.tsx</text>
</a>
</g>
</g>
<!-- src/pages/home/index.ts&#45;&gt;src/pages/home/ui/Page.tsx -->
<g id="edge40" class="edge">
<title>src/pages/home/index.ts&#45;&gt;src/pages/home/ui/Page.tsx</title>
<path fill="none" stroke="#000000" stroke-width="2" stroke-opacity="0.200000" d="M306.84,-485.6C324.97,-487.4 349.2,-489.79 368.66,-491.72"/>
<polygon fill="#000000" fill-opacity="0.200000" stroke="#000000" stroke-width="2" stroke-opacity="0.200000" points="374.39,-494.39 368.62,-491.71 374.8,-490.21 374.39,-494.39"/>
</g>
<!-- src/pages/profile/ui/Page.tsx -->
<g id="node33" class="node">
<title>src/pages/profile/ui/Page.tsx</title>
<g id="a_node33"><a xlink:href="src/pages/profile/ui/Page.tsx" xlink:title="Page.tsx">
<path fill="#bbfeff" stroke="black" d="M423.96,-393.88C423.96,-393.88 381.79,-393.88 381.79,-393.88 378.83,-393.88 375.88,-390.92 375.88,-387.96 375.88,-387.96 375.88,-382.04 375.88,-382.04 375.88,-379.08 378.83,-376.12 381.79,-376.12 381.79,-376.12 423.96,-376.12 423.96,-376.12 426.92,-376.12 429.88,-379.08 429.88,-382.04 429.88,-382.04 429.88,-387.96 429.88,-387.96 429.88,-390.92 426.92,-393.88 423.96,-393.88"/>
<text text-anchor="start" x="385.25" y="-381.32" font-family="Helvetica,sans-Serif" font-size="9.00">Page.tsx</text>
</a>
</g>
</g>
<!-- src/pages/profile/index.ts&#45;&gt;src/pages/profile/ui/Page.tsx -->
<g id="edge43" class="edge">
<title>src/pages/profile/index.ts&#45;&gt;src/pages/profile/ui/Page.tsx</title>
<path fill="none" stroke="#000000" stroke-width="2" stroke-opacity="0.200000" d="M306.84,-381.87C324.97,-382.47 349.2,-383.26 368.66,-383.91"/>
<polygon fill="#000000" fill-opacity="0.200000" stroke="#000000" stroke-width="2" stroke-opacity="0.200000" points="374.52,-386.2 368.59,-383.9 374.66,-382 374.52,-386.2"/>
</g>
<!-- src/entities/pokemon/api/queryPokemonById.ts -->
<g id="node9" class="node">
<title>src/entities/pokemon/api/queryPokemonById.ts</title>
<g id="a_node9"><a xlink:href="src/entities/pokemon/api/queryPokemonById.ts" xlink:title="queryPokemonById.ts">
<path fill="#ddfeff" stroke="black" d="M925.21,-605.88C925.21,-605.88 831.79,-605.88 831.79,-605.88 828.83,-605.88 825.88,-602.92 825.88,-599.96 825.88,-599.96 825.88,-594.04 825.88,-594.04 825.88,-591.08 828.83,-588.12 831.79,-588.12 831.79,-588.12 925.21,-588.12 925.21,-588.12 928.17,-588.12 931.12,-591.08 931.12,-594.04 931.12,-594.04 931.12,-599.96 931.12,-599.96 931.12,-602.92 928.17,-605.88 925.21,-605.88"/>
<text text-anchor="start" x="833.88" y="-593.33" font-family="Helvetica,sans-Serif" font-size="9.00">queryPokemonById.ts</text>
</a>
</g>
</g>
<!-- src/entities/pokemon/lib/mapPokemonDto.ts -->
<g id="node10" class="node">
<title>src/entities/pokemon/lib/mapPokemonDto.ts</title>
<g id="a_node10"><a xlink:href="src/entities/pokemon/lib/mapPokemonDto.ts" xlink:title="mapPokemonDto.ts">
<path fill="#ddfeff" stroke="black" d="M1045.46,-613.88C1045.46,-613.88 961.04,-613.88 961.04,-613.88 958.08,-613.88 955.12,-610.92 955.12,-607.96 955.12,-607.96 955.12,-602.04 955.12,-602.04 955.12,-599.08 958.08,-596.12 961.04,-596.12 961.04,-596.12 1045.46,-596.12 1045.46,-596.12 1048.42,-596.12 1051.38,-599.08 1051.38,-602.04 1051.38,-602.04 1051.38,-607.96 1051.38,-607.96 1051.38,-610.92 1048.42,-613.88 1045.46,-613.88"/>
<text text-anchor="start" x="963.12" y="-601.33" font-family="Helvetica,sans-Serif" font-size="9.00">mapPokemonDto.ts</text>
</a>
</g>
</g>
<!-- src/entities/pokemon/api/queryPokemonById.ts&#45;&gt;src/entities/pokemon/lib/mapPokemonDto.ts -->
<g id="edge8" class="edge">
<title>src/entities/pokemon/api/queryPokemonById.ts&#45;&gt;src/entities/pokemon/lib/mapPokemonDto.ts</title>
<path fill="none" stroke="#000000" stroke-width="2" stroke-opacity="0.200000" d="M931.56,-600.39C936.38,-600.71 941.27,-601.03 946.13,-601.34"/>
<polygon fill="#000000" fill-opacity="0.200000" stroke="#000000" stroke-width="2" stroke-opacity="0.200000" points="945.64,-603.42 951.77,-601.71 945.92,-599.22 945.64,-603.42"/>
</g>
<!-- src/shared/api/pokemon/index.ts -->
<g id="node11" class="node">
<title>src/shared/api/pokemon/index.ts</title>
<g id="a_node11"><a xlink:href="src/shared/api/pokemon/index.ts" xlink:title="index.ts">
<path fill="#ddfeff" stroke="black" d="M1482.21,-563.88C1482.21,-563.88 1440.04,-563.88 1440.04,-563.88 1437.08,-563.88 1434.12,-560.92 1434.12,-557.96 1434.12,-557.96 1434.12,-552.04 1434.12,-552.04 1434.12,-549.08 1437.08,-546.12 1440.04,-546.12 1440.04,-546.12 1482.21,-546.12 1482.21,-546.12 1485.17,-546.12 1488.12,-549.08 1488.12,-552.04 1488.12,-552.04 1488.12,-557.96 1488.12,-557.96 1488.12,-560.92 1485.17,-563.88 1482.21,-563.88"/>
<text text-anchor="start" x="1445.38" y="-551.33" font-family="Helvetica,sans-Serif" font-size="9.00">index.ts</text>
</a>
</g>
</g>
<!-- src/entities/pokemon/api/queryPokemonById.ts&#45;&gt;src/shared/api/pokemon/index.ts -->
<g id="edge9" class="edge">
<title>src/entities/pokemon/api/queryPokemonById.ts&#45;&gt;src/shared/api/pokemon/index.ts</title>
<path fill="none" stroke="#000000" stroke-width="2" stroke-opacity="0.200000" d="M889.58,-606.02C921.86,-633.93 1026.54,-717 1128.88,-717 1128.88,-717 1128.88,-717 1258.75,-717 1322.78,-717 1355.62,-747 1402.12,-703 1410.62,-694.96 1406.49,-662.11 1410.12,-651 1419.71,-621.73 1437.52,-590.59 1449.09,-571.97"/>
<polygon fill="#000000" fill-opacity="0.200000" stroke="#000000" stroke-width="2" stroke-opacity="0.200000" points="1450.86,-573.1 1452.29,-566.91 1447.31,-570.85 1450.86,-573.1"/>
</g>
<!-- src/entities/pokemon/lib/mapPokemonDto.ts&#45;&gt;src/shared/api/pokemon/index.ts -->
<g id="edge14" class="edge">
<title>src/entities/pokemon/lib/mapPokemonDto.ts&#45;&gt;src/shared/api/pokemon/index.ts</title>
<path fill="none" stroke="#000000" stroke-opacity="0.200000" d="M1007.51,-614.17C1014.81,-633.09 1034.42,-676.08 1067.38,-693 1100.46,-709.99 1373.47,-716.71 1402.12,-693 1416.76,-680.89 1403.89,-668.95 1410.12,-651 1420.56,-620.96 1439.04,-588.69 1450.38,-570.26"/>
<polygon fill="none" stroke="#000000" stroke-opacity="0.200000" points="1452.01,-571.61 1453.4,-565.41 1448.45,-569.39 1452.01,-571.61"/>
</g>
<!-- src/entities/pokemon/model/types.ts -->
<g id="node16" class="node">
<title>src/entities/pokemon/model/types.ts</title>
<g id="a_node16"><a xlink:href="src/entities/pokemon/model/types.ts" xlink:title="types.ts">
<path fill="#ddfeff" stroke="black" d="M1150.96,-493.88C1150.96,-493.88 1108.79,-493.88 1108.79,-493.88 1105.83,-493.88 1102.88,-490.92 1102.88,-487.96 1102.88,-487.96 1102.88,-482.04 1102.88,-482.04 1102.88,-479.08 1105.83,-476.12 1108.79,-476.12 1108.79,-476.12 1150.96,-476.12 1150.96,-476.12 1153.92,-476.12 1156.88,-479.08 1156.88,-482.04 1156.88,-482.04 1156.88,-487.96 1156.88,-487.96 1156.88,-490.92 1153.92,-493.88 1150.96,-493.88"/>
<text text-anchor="start" x="1114.5" y="-481.32" font-family="Helvetica,sans-Serif" font-size="9.00">types.ts</text>
</a>
</g>
</g>
<!-- src/entities/pokemon/lib/mapPokemonDto.ts&#45;&gt;src/entities/pokemon/model/types.ts -->
<g id="edge13" class="edge">
<title>src/entities/pokemon/lib/mapPokemonDto.ts&#45;&gt;src/entities/pokemon/model/types.ts</title>
<path fill="none" stroke="#000000" stroke-opacity="0.200000" d="M1042.79,-595.76C1049.14,-592.66 1055.06,-588.52 1059.38,-583 1075.41,-562.51 1053.43,-546.97 1067.38,-525 1074.86,-513.21 1087.22,-504.17 1098.91,-497.7"/>
<polygon fill="none" stroke="#000000" stroke-opacity="0.200000" points="1099.6,-499.71 1103.95,-495.07 1097.66,-495.99 1099.6,-499.71"/>
</g>
<!-- src/shared/api/pokemon/fetchPokemonApi.ts -->
<g id="node40" class="node">
<title>src/shared/api/pokemon/fetchPokemonApi.ts</title>
<g id="a_node40"><a xlink:href="src/shared/api/pokemon/fetchPokemonApi.ts" xlink:title="fetchPokemonApi.ts">
<path fill="#ddfeff" stroke="black" d="M1595.21,-563.88C1595.21,-563.88 1510.04,-563.88 1510.04,-563.88 1507.08,-563.88 1504.12,-560.92 1504.12,-557.96 1504.12,-557.96 1504.12,-552.04 1504.12,-552.04 1504.12,-549.08 1507.08,-546.12 1510.04,-546.12 1510.04,-546.12 1595.21,-546.12 1595.21,-546.12 1598.17,-546.12 1601.12,-549.08 1601.12,-552.04 1601.12,-552.04 1601.12,-557.96 1601.12,-557.96 1601.12,-560.92 1598.17,-563.88 1595.21,-563.88"/>
<text text-anchor="start" x="1512.12" y="-551.33" font-family="Helvetica,sans-Serif" font-size="9.00">fetchPokemonApi.ts</text>
</a>
</g>
</g>
<!-- src/shared/api/pokemon/index.ts&#45;&gt;src/shared/api/pokemon/fetchPokemonApi.ts -->
<g id="edge56" class="edge">
<title>src/shared/api/pokemon/index.ts&#45;&gt;src/shared/api/pokemon/fetchPokemonApi.ts</title>
<path fill="none" stroke="#000000" stroke-width="2" stroke-opacity="0.200000" d="M1488.49,-555C1491.22,-555 1494.06,-555 1496.95,-555"/>
<polygon fill="#000000" fill-opacity="0.200000" stroke="#000000" stroke-width="2" stroke-opacity="0.200000" points="1502.79,-557.1 1496.79,-555 1502.79,-552.9 1502.79,-557.1"/>
</g>
<!-- src/shared/api/pokemon/types.ts -->
<g id="node41" class="node">
<title>src/shared/api/pokemon/types.ts</title>
<g id="a_node41"><a xlink:href="src/shared/api/pokemon/types.ts" xlink:title="types.ts">
<path fill="#ddfeff" stroke="black" d="M1573.71,-533.88C1573.71,-533.88 1531.54,-533.88 1531.54,-533.88 1528.58,-533.88 1525.62,-530.92 1525.62,-527.96 1525.62,-527.96 1525.62,-522.04 1525.62,-522.04 1525.62,-519.08 1528.58,-516.12 1531.54,-516.12 1531.54,-516.12 1573.71,-516.12 1573.71,-516.12 1576.67,-516.12 1579.62,-519.08 1579.62,-522.04 1579.62,-522.04 1579.62,-527.96 1579.62,-527.96 1579.62,-530.92 1576.67,-533.88 1573.71,-533.88"/>
<text text-anchor="start" x="1537.25" y="-521.33" font-family="Helvetica,sans-Serif" font-size="9.00">types.ts</text>
</a>
</g>
</g>
<!-- src/shared/api/pokemon/index.ts&#45;&gt;src/shared/api/pokemon/types.ts -->
<g id="edge57" class="edge">
<title>src/shared/api/pokemon/index.ts&#45;&gt;src/shared/api/pokemon/types.ts</title>
<path fill="none" stroke="#000000" stroke-opacity="0.200000" d="M1487.84,-545.65C1493.21,-543.74 1498.84,-541.78 1504.12,-540 1508.75,-538.44 1513.65,-536.85 1518.47,-535.3"/>
<polygon fill="none" stroke="#000000" stroke-opacity="0.200000" points="1518.91,-537.36 1523.99,-533.54 1517.64,-533.36 1518.91,-537.36"/>
</g>
<!-- src/entities/pokemon/index.ts -->
<g id="node12" class="node">
<title>src/entities/pokemon/index.ts</title>
<g id="a_node12"><a xlink:href="src/entities/pokemon/index.ts" xlink:title="index.ts">
<path fill="#ddfeff" stroke="black" d="M899.58,-562.88C899.58,-562.88 857.42,-562.88 857.42,-562.88 854.46,-562.88 851.5,-559.92 851.5,-556.96 851.5,-556.96 851.5,-551.04 851.5,-551.04 851.5,-548.08 854.46,-545.12 857.42,-545.12 857.42,-545.12 899.58,-545.12 899.58,-545.12 902.54,-545.12 905.5,-548.08 905.5,-551.04 905.5,-551.04 905.5,-556.96 905.5,-556.96 905.5,-559.92 902.54,-562.88 899.58,-562.88"/>
<text text-anchor="start" x="862.75" y="-550.33" font-family="Helvetica,sans-Serif" font-size="9.00">index.ts</text>
</a>
</g>
</g>
<!-- src/entities/pokemon/model/consts.ts -->
<g id="node13" class="node">
<title>src/entities/pokemon/model/consts.ts</title>
<g id="a_node13"><a xlink:href="src/entities/pokemon/model/consts.ts" xlink:title="consts.ts">
<path fill="#ddfeff" stroke="black" d="M1150.96,-463.88C1150.96,-463.88 1108.79,-463.88 1108.79,-463.88 1105.83,-463.88 1102.88,-460.92 1102.88,-457.96 1102.88,-457.96 1102.88,-452.04 1102.88,-452.04 1102.88,-449.08 1105.83,-446.12 1108.79,-446.12 1108.79,-446.12 1150.96,-446.12 1150.96,-446.12 1153.92,-446.12 1156.88,-449.08 1156.88,-452.04 1156.88,-452.04 1156.88,-457.96 1156.88,-457.96 1156.88,-460.92 1153.92,-463.88 1150.96,-463.88"/>
<text text-anchor="start" x="1112.25" y="-451.32" font-family="Helvetica,sans-Serif" font-size="9.00">consts.ts</text>
</a>
</g>
</g>
<!-- src/entities/pokemon/index.ts&#45;&gt;src/entities/pokemon/model/consts.ts -->
<g id="edge10" class="edge">
<title>src/entities/pokemon/index.ts&#45;&gt;src/entities/pokemon/model/consts.ts</title>
<path fill="none" stroke="#000000" stroke-width="2" stroke-opacity="0.200000" d="M897.46,-544.65C930.39,-527.8 1002.98,-492.05 1067.38,-470 1076.41,-466.91 1086.39,-464.19 1095.64,-461.94"/>
<polygon fill="#000000" fill-opacity="0.200000" stroke="#000000" stroke-width="2" stroke-opacity="0.200000" points="1102.05,-462.59 1095.73,-461.92 1101.09,-458.5 1102.05,-462.59"/>
</g>
<!-- src/entities/pokemon/ui/PokemonCard.tsx -->
<g id="node14" class="node">
<title>src/entities/pokemon/ui/PokemonCard.tsx</title>
<g id="a_node14"><a xlink:href="src/entities/pokemon/ui/PokemonCard.tsx" xlink:title="PokemonCard.tsx">
<path fill="#bbfeff" stroke="black" d="M1041.71,-553.88C1041.71,-553.88 964.79,-553.88 964.79,-553.88 961.83,-553.88 958.88,-550.92 958.88,-547.96 958.88,-547.96 958.88,-542.04 958.88,-542.04 958.88,-539.08 961.83,-536.12 964.79,-536.12 964.79,-536.12 1041.71,-536.12 1041.71,-536.12 1044.67,-536.12 1047.62,-539.08 1047.62,-542.04 1047.62,-542.04 1047.62,-547.96 1047.62,-547.96 1047.62,-550.92 1044.67,-553.88 1041.71,-553.88"/>
<text text-anchor="start" x="966.88" y="-541.33" font-family="Helvetica,sans-Serif" font-size="9.00">PokemonCard.tsx</text>
</a>
</g>
</g>
<!-- src/entities/pokemon/index.ts&#45;&gt;src/entities/pokemon/ui/PokemonCard.tsx -->
<g id="edge11" class="edge">
<title>src/entities/pokemon/index.ts&#45;&gt;src/entities/pokemon/ui/PokemonCard.tsx</title>
<path fill="none" stroke="#000000" stroke-width="2" stroke-opacity="0.200000" d="M905.83,-552.07C919.15,-551.09 935.78,-549.87 951.46,-548.72"/>
<polygon fill="#000000" fill-opacity="0.200000" stroke="#000000" stroke-width="2" stroke-opacity="0.200000" points="957.73,-550.37 951.6,-548.71 957.43,-546.18 957.73,-550.37"/>
</g>
<!-- src/entities/pokemon/ui/PokemonCardStub.tsx -->
<g id="node15" class="node">
<title>src/entities/pokemon/ui/PokemonCardStub.tsx</title>
<g id="a_node15"><a xlink:href="src/entities/pokemon/ui/PokemonCardStub.tsx" xlink:title="PokemonCardStub.tsx">
<path fill="#bbfeff" stroke="black" d="M1177.71,-553.88C1177.71,-553.88 1082.04,-553.88 1082.04,-553.88 1079.08,-553.88 1076.12,-550.92 1076.12,-547.96 1076.12,-547.96 1076.12,-542.04 1076.12,-542.04 1076.12,-539.08 1079.08,-536.12 1082.04,-536.12 1082.04,-536.12 1177.71,-536.12 1177.71,-536.12 1180.67,-536.12 1183.62,-539.08 1183.62,-542.04 1183.62,-542.04 1183.62,-547.96 1183.62,-547.96 1183.62,-550.92 1180.67,-553.88 1177.71,-553.88"/>
<text text-anchor="start" x="1084.12" y="-541.33" font-family="Helvetica,sans-Serif" font-size="9.00">PokemonCardStub.tsx</text>
</a>
</g>
</g>
<!-- src/entities/pokemon/index.ts&#45;&gt;src/entities/pokemon/ui/PokemonCardStub.tsx -->
<g id="edge12" class="edge">
<title>src/entities/pokemon/index.ts&#45;&gt;src/entities/pokemon/ui/PokemonCardStub.tsx</title>
<path fill="none" stroke="#000000" stroke-width="2" stroke-opacity="0.200000" d="M905.8,-557.16C940.91,-560.87 1005,-565.8 1059.38,-560 1067.99,-559.08 1077.12,-557.54 1085.81,-555.78"/>
<polygon fill="#000000" fill-opacity="0.200000" stroke="#000000" stroke-width="2" stroke-opacity="0.200000" points="1092.14,-556.59 1085.83,-555.78 1091.27,-552.48 1092.14,-556.59"/>
</g>
<!-- src/entities/pokemon/ui/PokemonCard.tsx&#45;&gt;src/entities/pokemon/ui/PokemonCardStub.tsx -->
<g id="edge16" class="edge">
<title>src/entities/pokemon/ui/PokemonCard.tsx&#45;&gt;src/entities/pokemon/ui/PokemonCardStub.tsx</title>
<path fill="none" stroke="#000000" stroke-width="2" stroke-opacity="0.200000" d="M1047.84,-545C1054.01,-545 1060.46,-545 1066.9,-545"/>
<polygon fill="#000000" fill-opacity="0.200000" stroke="#000000" stroke-width="2" stroke-opacity="0.200000" points="1066.63,-547.1 1072.63,-545 1066.63,-542.9 1066.63,-547.1"/>
</g>
<!-- src/entities/pokemon/ui/PokemonCard.tsx&#45;&gt;src/entities/pokemon/model/types.ts -->
<g id="edge15" class="edge">
<title>src/entities/pokemon/ui/PokemonCard.tsx&#45;&gt;src/entities/pokemon/model/types.ts</title>
<path fill="none" stroke="#000000" stroke-opacity="0.200000" d="M1048,-536.8C1051.94,-535.43 1055.79,-533.84 1059.38,-532 1063.58,-529.84 1063.61,-527.85 1067.38,-525 1080.06,-515.4 1095,-505.65 1106.98,-498.18"/>
<polygon fill="none" stroke="#000000" stroke-opacity="0.200000" points="1108.01,-500.01 1112.01,-495.07 1105.8,-496.44 1108.01,-500.01"/>
</g>
<!-- src/shared/api/base/index.ts -->
<g id="node20" class="node">
<title>src/shared/api/base/index.ts</title>
<g id="a_node20"><a xlink:href="src/shared/api/base/index.ts" xlink:title="index.ts">
<path fill="#ddfeff" stroke="black" d="M1482.21,-421.88C1482.21,-421.88 1440.04,-421.88 1440.04,-421.88 1437.08,-421.88 1434.12,-418.92 1434.12,-415.96 1434.12,-415.96 1434.12,-410.04 1434.12,-410.04 1434.12,-407.08 1437.08,-404.12 1440.04,-404.12 1440.04,-404.12 1482.21,-404.12 1482.21,-404.12 1485.17,-404.12 1488.12,-407.08 1488.12,-410.04 1488.12,-410.04 1488.12,-415.96 1488.12,-415.96 1488.12,-418.92 1485.17,-421.88 1482.21,-421.88"/>
<text text-anchor="start" x="1445.38" y="-409.32" font-family="Helvetica,sans-Serif" font-size="9.00">index.ts</text>
</a>
</g>
</g>
<!-- src/entities/session/model/actions.ts&#45;&gt;src/shared/api/base/index.ts -->
<g id="edge20" class="edge">
<title>src/entities/session/model/actions.ts&#45;&gt;src/shared/api/base/index.ts</title>
<path fill="none" stroke="#000000" stroke-width="2" stroke-opacity="0.200000" d="M1356.79,-216.12C1373.5,-247.96 1429.43,-354.52 1451.28,-396.14"/>
<polygon fill="#000000" fill-opacity="0.200000" stroke="#000000" stroke-width="2" stroke-opacity="0.200000" points="1449.34,-396.97 1453.99,-401.31 1453.06,-395.02 1449.34,-396.97"/>
</g>
<!-- src/entities/session/model/store.ts&#45;&gt;src/shared/api/base/index.ts -->
<g id="edge21" class="edge">
<title>src/entities/session/model/store.ts&#45;&gt;src/shared/api/base/index.ts</title>
<path fill="none" stroke="#000000" stroke-width="2" stroke-opacity="0.200000" d="M1378.38,-179.71C1386.96,-181.83 1395.88,-185.53 1402.12,-192 1457.64,-249.44 1461.7,-353.28 1460.91,-394.97"/>
<polygon fill="#000000" fill-opacity="0.200000" stroke="#000000" stroke-width="2" stroke-opacity="0.200000" points="1458.81,-394.86 1460.73,-400.92 1463.01,-394.99 1458.81,-394.86"/>
</g>
<!-- src/entities/session/ui/LogoutButton.tsx&#45;&gt;src/entities/session/model/actions.ts -->
<g id="edge22" class="edge">
<title>src/entities/session/ui/LogoutButton.tsx&#45;&gt;src/entities/session/model/actions.ts</title>
<path fill="none" stroke="#000000" stroke-width="2" stroke-opacity="0.200000" d="M1300.37,-207C1305.18,-207 1310.05,-207 1314.77,-207"/>
<polygon fill="#000000" fill-opacity="0.200000" stroke="#000000" stroke-width="2" stroke-opacity="0.200000" points="1314.56,-209.1 1320.56,-207 1314.56,-204.9 1314.56,-209.1"/>
</g>
<!-- src/shared/api/base/endpoints.ts -->
<g id="node34" class="node">
<title>src/shared/api/base/endpoints.ts</title>
<g id="a_node34"><a xlink:href="src/shared/api/base/endpoints.ts" xlink:title="endpoints.ts">
<path fill="#ddfeff" stroke="black" d="M1579.46,-443.88C1579.46,-443.88 1525.79,-443.88 1525.79,-443.88 1522.83,-443.88 1519.88,-440.92 1519.88,-437.96 1519.88,-437.96 1519.88,-432.04 1519.88,-432.04 1519.88,-429.08 1522.83,-426.12 1525.79,-426.12 1525.79,-426.12 1579.46,-426.12 1579.46,-426.12 1582.42,-426.12 1585.38,-429.08 1585.38,-432.04 1585.38,-432.04 1585.38,-437.96 1585.38,-437.96 1585.38,-440.92 1582.42,-443.88 1579.46,-443.88"/>
<text text-anchor="start" x="1527.88" y="-431.32" font-family="Helvetica,sans-Serif" font-size="9.00">endpoints.ts</text>
</a>
</g>
</g>
<!-- src/shared/api/base/index.ts&#45;&gt;src/shared/api/base/endpoints.ts -->
<g id="edge51" class="edge">
<title>src/shared/api/base/index.ts&#45;&gt;src/shared/api/base/endpoints.ts</title>
<path fill="none" stroke="#000000" stroke-width="2" stroke-opacity="0.200000" d="M1488.49,-419.48C1496.07,-421.34 1504.49,-423.41 1512.65,-425.42"/>
<polygon fill="#000000" fill-opacity="0.200000" stroke="#000000" stroke-width="2" stroke-opacity="0.200000" points="1517.95,-428.89 1512.63,-425.41 1518.95,-424.81 1517.95,-428.89"/>
</g>
<!-- src/shared/api/base/fetchBaseApi.ts -->
<g id="node35" class="node">
<title>src/shared/api/base/fetchBaseApi.ts</title>
<g id="a_node35"><a xlink:href="src/shared/api/base/fetchBaseApi.ts" xlink:title="fetchBaseApi.ts">
<path fill="#ddfeff" stroke="black" d="M1690.21,-429.88C1690.21,-429.88 1623.04,-429.88 1623.04,-429.88 1620.08,-429.88 1617.12,-426.92 1617.12,-423.96 1617.12,-423.96 1617.12,-418.04 1617.12,-418.04 1617.12,-415.08 1620.08,-412.12 1623.04,-412.12 1623.04,-412.12 1690.21,-412.12 1690.21,-412.12 1693.17,-412.12 1696.12,-415.08 1696.12,-418.04 1696.12,-418.04 1696.12,-423.96 1696.12,-423.96 1696.12,-426.92 1693.17,-429.88 1690.21,-429.88"/>
<text text-anchor="start" x="1625.12" y="-417.32" font-family="Helvetica,sans-Serif" font-size="9.00">fetchBaseApi.ts</text>
</a>
</g>
</g>
<!-- src/shared/api/base/index.ts&#45;&gt;src/shared/api/base/fetchBaseApi.ts -->
<g id="edge53" class="edge">
<title>src/shared/api/base/index.ts&#45;&gt;src/shared/api/base/fetchBaseApi.ts</title>
<path fill="none" stroke="#000000" stroke-width="2" stroke-opacity="0.200000" d="M1488.62,-414.1C1519.81,-415.38 1572.11,-417.55 1609.88,-419.11"/>
<polygon fill="#000000" fill-opacity="0.200000" stroke="#000000" stroke-width="2" stroke-opacity="0.200000" points="1615.67,-421.45 1609.76,-419.1 1615.85,-417.25 1615.67,-421.45"/>
</g>
<!-- src/shared/api/base/types.ts -->
<g id="node36" class="node">
<title>src/shared/api/base/types.ts</title>
<g id="a_node36"><a xlink:href="src/shared/api/base/types.ts" xlink:title="types.ts">
<path fill="#ddfeff" stroke="black" d="M1677.71,-459.88C1677.71,-459.88 1635.54,-459.88 1635.54,-459.88 1632.58,-459.88 1629.62,-456.92 1629.62,-453.96 1629.62,-453.96 1629.62,-448.04 1629.62,-448.04 1629.62,-445.08 1632.58,-442.12 1635.54,-442.12 1635.54,-442.12 1677.71,-442.12 1677.71,-442.12 1680.67,-442.12 1683.62,-445.08 1683.62,-448.04 1683.62,-448.04 1683.62,-453.96 1683.62,-453.96 1683.62,-456.92 1680.67,-459.88 1677.71,-459.88"/>
<text text-anchor="start" x="1641.25" y="-447.32" font-family="Helvetica,sans-Serif" font-size="9.00">types.ts</text>
</a>
</g>
</g>
<!-- src/shared/api/base/index.ts&#45;&gt;src/shared/api/base/types.ts -->
<g id="edge55" class="edge">
<title>src/shared/api/base/index.ts&#45;&gt;src/shared/api/base/types.ts</title>
<path fill="none" stroke="#000000" stroke-opacity="0.200000" d="M1469.29,-422.37C1476.82,-431.39 1489.6,-444.46 1504.12,-450 1542.46,-464.62 1590.33,-461.8 1621.88,-457.36"/>
<polygon fill="none" stroke="#000000" stroke-opacity="0.200000" points="1622.02,-459.46 1627.64,-456.49 1621.4,-455.3 1622.02,-459.46"/>
</g>
<!-- src/shared/api/base/errors.ts -->
<g id="node37" class="node">
<title>src/shared/api/base/errors.ts</title>
<g id="a_node37"><a xlink:href="src/shared/api/base/errors.ts" xlink:title="errors.ts">
<path fill="#ddfeff" stroke="black" d="M1760.21,-462.88C1760.21,-462.88 1718.04,-462.88 1718.04,-462.88 1715.08,-462.88 1712.12,-459.92 1712.12,-456.96 1712.12,-456.96 1712.12,-451.04 1712.12,-451.04 1712.12,-448.08 1715.08,-445.12 1718.04,-445.12 1718.04,-445.12 1760.21,-445.12 1760.21,-445.12 1763.17,-445.12 1766.12,-448.08 1766.12,-451.04 1766.12,-451.04 1766.12,-456.96 1766.12,-456.96 1766.12,-459.92 1763.17,-462.88 1760.21,-462.88"/>
<text text-anchor="start" x="1722.62" y="-450.32" font-family="Helvetica,sans-Serif" font-size="9.00">errors.ts</text>
</a>
</g>
</g>
<!-- src/shared/api/base/index.ts&#45;&gt;src/shared/api/base/errors.ts -->
<g id="edge52" class="edge">
<title>src/shared/api/base/index.ts&#45;&gt;src/shared/api/base/errors.ts</title>
<path fill="none" stroke="#000000" stroke-width="2" stroke-opacity="0.200000" d="M1467.3,-422.01C1474.15,-432.97 1487.35,-450.97 1504.12,-459 1581.15,-495.86 1611.56,-477.84 1696.12,-466 1699,-465.6 1701.95,-465.05 1704.89,-464.4"/>
<polygon fill="#000000" fill-opacity="0.200000" stroke="#000000" stroke-width="2" stroke-opacity="0.200000" points="1711.23,-465.03 1704.9,-464.4 1710.24,-460.95 1711.23,-465.03"/>
</g>
<!-- src/shared/api/base/store.ts -->
<g id="node38" class="node">
<title>src/shared/api/base/store.ts</title>
<g id="a_node38"><a xlink:href="src/shared/api/base/store.ts" xlink:title="store.ts">
<path fill="#ddfeff" stroke="black" d="M1760.21,-422.88C1760.21,-422.88 1718.04,-422.88 1718.04,-422.88 1715.08,-422.88 1712.12,-419.92 1712.12,-416.96 1712.12,-416.96 1712.12,-411.04 1712.12,-411.04 1712.12,-408.08 1715.08,-405.12 1718.04,-405.12 1718.04,-405.12 1760.21,-405.12 1760.21,-405.12 1763.17,-405.12 1766.12,-408.08 1766.12,-411.04 1766.12,-411.04 1766.12,-416.96 1766.12,-416.96 1766.12,-419.92 1763.17,-422.88 1760.21,-422.88"/>
<text text-anchor="start" x="1724.5" y="-410.32" font-family="Helvetica,sans-Serif" font-size="9.00">store.ts</text>
</a>
</g>
</g>
<!-- src/shared/api/base/index.ts&#45;&gt;src/shared/api/base/store.ts -->
<g id="edge54" class="edge">
<title>src/shared/api/base/index.ts&#45;&gt;src/shared/api/base/store.ts</title>
<path fill="none" stroke="#000000" stroke-width="2" stroke-opacity="0.200000" d="M1488.51,-410.09C1531.92,-405.77 1621.07,-398.92 1696.12,-406 1699.03,-406.27 1702.04,-406.65 1705.05,-407.1"/>
<polygon fill="#000000" fill-opacity="0.200000" stroke="#000000" stroke-width="2" stroke-opacity="0.200000" points="1710.69,-410.15 1705.11,-407.11 1711.37,-406.01 1710.69,-410.15"/>
</g>
<!-- src/entities/user/index.ts -->
<g id="node21" class="node">
<title>src/entities/user/index.ts</title>
<g id="a_node21"><a xlink:href="src/entities/user/index.ts" xlink:title="index.ts">
<path fill="#ddfeff" stroke="black" d="M899.58,-351.88C899.58,-351.88 857.42,-351.88 857.42,-351.88 854.46,-351.88 851.5,-348.92 851.5,-345.96 851.5,-345.96 851.5,-340.04 851.5,-340.04 851.5,-337.08 854.46,-334.12 857.42,-334.12 857.42,-334.12 899.58,-334.12 899.58,-334.12 902.54,-334.12 905.5,-337.08 905.5,-340.04 905.5,-340.04 905.5,-345.96 905.5,-345.96 905.5,-348.92 902.54,-351.88 899.58,-351.88"/>
<text text-anchor="start" x="862.75" y="-339.32" font-family="Helvetica,sans-Serif" font-size="9.00">index.ts</text>
</a>
</g>
</g>
<!-- src/entities/user/model/store.ts -->
<g id="node22" class="node">
<title>src/entities/user/model/store.ts</title>
<g id="a_node22"><a xlink:href="src/entities/user/model/store.ts" xlink:title="store.ts">
<path fill="#ddfeff" stroke="black" d="M1024.33,-309.88C1024.33,-309.88 982.17,-309.88 982.17,-309.88 979.21,-309.88 976.25,-306.92 976.25,-303.96 976.25,-303.96 976.25,-298.04 976.25,-298.04 976.25,-295.08 979.21,-292.12 982.17,-292.12 982.17,-292.12 1024.33,-292.12 1024.33,-292.12 1027.29,-292.12 1030.25,-295.08 1030.25,-298.04 1030.25,-298.04 1030.25,-303.96 1030.25,-303.96 1030.25,-306.92 1027.29,-309.88 1024.33,-309.88"/>
<text text-anchor="start" x="988.62" y="-297.32" font-family="Helvetica,sans-Serif" font-size="9.00">store.ts</text>
</a>
</g>
</g>
<!-- src/entities/user/index.ts&#45;&gt;src/entities/user/model/store.ts -->
<g id="edge23" class="edge">
<title>src/entities/user/index.ts&#45;&gt;src/entities/user/model/store.ts</title>
<path fill="none" stroke="#000000" stroke-width="2" stroke-opacity="0.200000" d="M905.83,-333.99C924.44,-327.62 949.51,-319.05 969.42,-312.23"/>
<polygon fill="#000000" fill-opacity="0.200000" stroke="#000000" stroke-width="2" stroke-opacity="0.200000" points="975.69,-312.31 969.34,-312.26 974.33,-308.33 975.69,-312.31"/>
</g>
<!-- src/entities/user/model/store.ts&#45;&gt;src/entities/session/index.ts -->
<g id="edge28" class="edge">
<title>src/entities/user/model/store.ts&#45;&gt;src/entities/session/index.ts</title>
<path fill="none" stroke="#000000" stroke-width="2" stroke-opacity="0.200000" d="M1018.81,-291.86C1029.95,-284.84 1045.68,-274.88 1059.38,-266 1075.61,-255.47 1093.86,-243.39 1107.57,-234.25"/>
<polygon fill="#000000" fill-opacity="0.200000" stroke="#000000" stroke-width="2" stroke-opacity="0.200000" points="1108.74,-236 1112.56,-230.92 1106.41,-232.5 1108.74,-236"/>
</g>
<!-- src/entities/user/model/store.ts&#45;&gt;src/shared/api/base/index.ts -->
<g id="edge29" class="edge">
<title>src/entities/user/model/store.ts&#45;&gt;src/shared/api/base/index.ts</title>
<path fill="none" stroke="#000000" stroke-width="2" stroke-opacity="0.200000" d="M1025.37,-310.36C1037.63,-317.01 1052.06,-327.21 1059.38,-341 1071.99,-364.76 1048.04,-564.29 1067.38,-583 1184.88,-696.69 1390.57,-489.31 1446.02,-428.84"/>
<polygon fill="#000000" fill-opacity="0.200000" stroke="#000000" stroke-width="2" stroke-opacity="0.200000" points="1447.51,-430.32 1449.99,-424.46 1444.4,-427.5 1447.51,-430.32"/>
</g>
<!-- src/entities/user/lib/mapUserDto.ts -->
<g id="node23" class="node">
<title>src/entities/user/lib/mapUserDto.ts</title>
<g id="a_node23"><a xlink:href="src/entities/user/lib/mapUserDto.ts" xlink:title="mapUserDto.ts">
<path fill="#ddfeff" stroke="black" d="M1035.71,-369.88C1035.71,-369.88 970.79,-369.88 970.79,-369.88 967.83,-369.88 964.88,-366.92 964.88,-363.96 964.88,-363.96 964.88,-358.04 964.88,-358.04 964.88,-355.08 967.83,-352.12 970.79,-352.12 970.79,-352.12 1035.71,-352.12 1035.71,-352.12 1038.67,-352.12 1041.62,-355.08 1041.62,-358.04 1041.62,-358.04 1041.62,-363.96 1041.62,-363.96 1041.62,-366.92 1038.67,-369.88 1035.71,-369.88"/>
<text text-anchor="start" x="972.88" y="-357.32" font-family="Helvetica,sans-Serif" font-size="9.00">mapUserDto.ts</text>
</a>
</g>
</g>
<!-- src/entities/user/model/store.ts&#45;&gt;src/entities/user/lib/mapUserDto.ts -->
<g id="edge26" class="edge">
<title>src/entities/user/model/store.ts&#45;&gt;src/entities/user/lib/mapUserDto.ts</title>
<path fill="none" stroke="#000000" stroke-width="2" stroke-opacity="0.200000" d="M1003.25,-310.38C1003.25,-321.3 1003.25,-332.22 1003.25,-343.14"/>
<polygon fill="#000000" fill-opacity="0.200000" stroke="#000000" stroke-width="2" stroke-opacity="0.200000" points="1001.15,-342.88 1003.25,-348.88 1005.35,-342.88 1001.15,-342.88"/>
</g>
<!-- src/entities/user/model/types.ts -->
<g id="node24" class="node">
<title>src/entities/user/model/types.ts</title>
<g id="a_node24"><a xlink:href="src/entities/user/model/types.ts" xlink:title="types.ts">
<path fill="#ddfeff" stroke="black" d="M1150.96,-309.88C1150.96,-309.88 1108.79,-309.88 1108.79,-309.88 1105.83,-309.88 1102.88,-306.92 1102.88,-303.96 1102.88,-303.96 1102.88,-298.04 1102.88,-298.04 1102.88,-295.08 1105.83,-292.12 1108.79,-292.12 1108.79,-292.12 1150.96,-292.12 1150.96,-292.12 1153.92,-292.12 1156.88,-295.08 1156.88,-298.04 1156.88,-298.04 1156.88,-303.96 1156.88,-303.96 1156.88,-306.92 1153.92,-309.88 1150.96,-309.88"/>
<text text-anchor="start" x="1114.5" y="-297.32" font-family="Helvetica,sans-Serif" font-size="9.00">types.ts</text>
</a>
</g>
</g>
<!-- src/entities/user/model/store.ts&#45;&gt;src/entities/user/model/types.ts -->
<g id="edge27" class="edge">
<title>src/entities/user/model/store.ts&#45;&gt;src/entities/user/model/types.ts</title>
<path fill="none" stroke="#000000" stroke-opacity="0.200000" d="M1030.68,-301C1049.43,-301 1074.76,-301 1095,-301"/>
<polygon fill="none" stroke="#000000" stroke-opacity="0.200000" points="1094.97,-303.1 1100.97,-301 1094.97,-298.9 1094.97,-303.1"/>
</g>
<!-- src/entities/user/lib/mapUserDto.ts&#45;&gt;src/shared/api/base/index.ts -->
<g id="edge25" class="edge">
<title>src/entities/user/lib/mapUserDto.ts&#45;&gt;src/shared/api/base/index.ts</title>
<path fill="none" stroke="#000000" stroke-opacity="0.200000" d="M1008.41,-370.37C1019.16,-395.06 1047.81,-464.21 1059.38,-525 1062.58,-541.83 1054.95,-667.2 1067.38,-679 1080.86,-691.8 1388.68,-691.84 1402.12,-679 1416.12,-665.63 1404.93,-523.64 1410.12,-505 1418.26,-475.84 1436.97,-445.68 1449.05,-428.17"/>
<polygon fill="none" stroke="#000000" stroke-opacity="0.200000" points="1450.57,-429.66 1452.3,-423.55 1447.13,-427.25 1450.57,-429.66"/>
</g>
<!-- src/entities/user/lib/mapUserDto.ts&#45;&gt;src/entities/user/model/types.ts -->
<g id="edge24" class="edge">
<title>src/entities/user/lib/mapUserDto.ts&#45;&gt;src/entities/user/model/types.ts</title>
<path fill="none" stroke="#000000" stroke-opacity="0.200000" d="M1029.5,-351.66C1038.97,-347.97 1049.77,-343.52 1059.38,-339 1075.63,-331.35 1093.39,-321.61 1106.89,-313.91"/>
<polygon fill="none" stroke="#000000" stroke-opacity="0.200000" points="1107.68,-315.88 1111.84,-311.06 1105.59,-312.24 1107.68,-315.88"/>
</g>
<!-- src/pages/home/@fractal&#45;widgets/SearchPokemonById/index.ts -->
<g id="node25" class="node">
<title>src/pages/home/@fractal&#45;widgets/SearchPokemonById/index.ts</title>
<g id="a_node25"><a xlink:href="src/pages/home/@fractal-widgets/SearchPokemonById/index.ts" xlink:title="index.ts">
<path fill="#ddfeff" stroke="black" d="M517.96,-503.88C517.96,-503.88 475.79,-503.88 475.79,-503.88 472.83,-503.88 469.88,-500.92 469.88,-497.96 469.88,-497.96 469.88,-492.04 469.88,-492.04 469.88,-489.08 472.83,-486.12 475.79,-486.12 475.79,-486.12 517.96,-486.12 517.96,-486.12 520.92,-486.12 523.88,-489.08 523.88,-492.04 523.88,-492.04 523.88,-497.96 523.88,-497.96 523.88,-500.92 520.92,-503.88 517.96,-503.88"/>
<text text-anchor="start" x="481.12" y="-491.32" font-family="Helvetica,sans-Serif" font-size="9.00">index.ts</text>
</a>
</g>
</g>
<!-- src/pages/home/@fractal&#45;widgets/SearchPokemonById/ui/SearchPokemonById.tsx -->
<g id="node26" class="node">
<title>src/pages/home/@fractal&#45;widgets/SearchPokemonById/ui/SearchPokemonById.tsx</title>
<g id="a_node26"><a xlink:href="src/pages/home/@fractal-widgets/SearchPokemonById/ui/SearchPokemonById.tsx" xlink:title="SearchPokemonById.tsx">
<path fill="#bbfeff" stroke="black" d="M659.83,-503.88C659.83,-503.88 555.92,-503.88 555.92,-503.88 552.96,-503.88 550,-500.92 550,-497.96 550,-497.96 550,-492.04 550,-492.04 550,-489.08 552.96,-486.12 555.92,-486.12 555.92,-486.12 659.83,-486.12 659.83,-486.12 662.79,-486.12 665.75,-489.08 665.75,-492.04 665.75,-492.04 665.75,-497.96 665.75,-497.96 665.75,-500.92 662.79,-503.88 659.83,-503.88"/>
<text text-anchor="start" x="558" y="-491.32" font-family="Helvetica,sans-Serif" font-size="9.00">SearchPokemonById.tsx</text>
</a>
</g>
</g>
<!-- src/pages/home/@fractal&#45;widgets/SearchPokemonById/index.ts&#45;&gt;src/pages/home/@fractal&#45;widgets/SearchPokemonById/ui/SearchPokemonById.tsx -->
<g id="edge30" class="edge">
<title>src/pages/home/@fractal&#45;widgets/SearchPokemonById/index.ts&#45;&gt;src/pages/home/@fractal&#45;widgets/SearchPokemonById/ui/SearchPokemonById.tsx</title>
<path fill="none" stroke="#000000" stroke-width="2" stroke-opacity="0.200000" d="M524.26,-495C530,-495 536.31,-495 542.81,-495"/>
<polygon fill="#000000" fill-opacity="0.200000" stroke="#000000" stroke-width="2" stroke-opacity="0.200000" points="548.91,-497.1 542.91,-495 548.91,-492.9 548.91,-497.1"/>
</g>
<!-- src/pages/home/@fractal&#45;widgets/SearchPokemonById/ui/SearchPokemonById.tsx&#45;&gt;src/entities/pokemon/index.ts -->
<g id="edge34" class="edge">
<title>src/pages/home/@fractal&#45;widgets/SearchPokemonById/ui/SearchPokemonById.tsx&#45;&gt;src/entities/pokemon/index.ts</title>
<path fill="none" stroke="#000000" stroke-width="2" stroke-opacity="0.200000" d="M622.94,-504.37C640.43,-516.86 669.7,-540.71 683.88,-569 689.7,-580.63 682.07,-618.45 691.88,-627 726.05,-656.79 759.38,-656.41 793.88,-627 811,-612.4 787.08,-593.96 801.88,-577 812.03,-565.35 827.89,-559.5 842.47,-556.6"/>
<polygon fill="#000000" fill-opacity="0.200000" stroke="#000000" stroke-width="2" stroke-opacity="0.200000" points="842.74,-558.68 848.33,-555.64 842.07,-554.54 842.74,-558.68"/>
</g>
<!-- src/pages/home/@fractal&#45;widgets/SearchPokemonById/model/store.ts -->
<g id="node27" class="node">
<title>src/pages/home/@fractal&#45;widgets/SearchPokemonById/model/store.ts</title>
<g id="a_node27"><a xlink:href="src/pages/home/@fractal-widgets/SearchPokemonById/model/store.ts" xlink:title="store.ts">
<path fill="#ddfeff" stroke="black" d="M747.96,-503.88C747.96,-503.88 705.79,-503.88 705.79,-503.88 702.83,-503.88 699.88,-500.92 699.88,-497.96 699.88,-497.96 699.88,-492.04 699.88,-492.04 699.88,-489.08 702.83,-486.12 705.79,-486.12 705.79,-486.12 747.96,-486.12 747.96,-486.12 750.92,-486.12 753.88,-489.08 753.88,-492.04 753.88,-492.04 753.88,-497.96 753.88,-497.96 753.88,-500.92 750.92,-503.88 747.96,-503.88"/>
<text text-anchor="start" x="712.25" y="-491.32" font-family="Helvetica,sans-Serif" font-size="9.00">store.ts</text>
</a>
</g>
</g>
<!-- src/pages/home/@fractal&#45;widgets/SearchPokemonById/ui/SearchPokemonById.tsx&#45;&gt;src/pages/home/@fractal&#45;widgets/SearchPokemonById/model/store.ts -->
<g id="edge33" class="edge">
<title>src/pages/home/@fractal&#45;widgets/SearchPokemonById/ui/SearchPokemonById.tsx&#45;&gt;src/pages/home/@fractal&#45;widgets/SearchPokemonById/model/store.ts</title>
<path fill="none" stroke="#000000" stroke-width="2" stroke-opacity="0.200000" d="M666,-495C674.43,-495 682.89,-495 690.68,-495"/>
<polygon fill="#000000" fill-opacity="0.200000" stroke="#000000" stroke-width="2" stroke-opacity="0.200000" points="690.47,-497.1 696.47,-495 690.47,-492.9 690.47,-497.1"/>
</g>
<!-- src/shared/ui/Input.tsx -->
<g id="node28" class="node">
<title>src/shared/ui/Input.tsx</title>
<g id="a_node28"><a xlink:href="src/shared/ui/Input.tsx" xlink:title="Input.tsx">
<path fill="#bbfeff" stroke="black" d="M1482.21,-679.88C1482.21,-679.88 1440.04,-679.88 1440.04,-679.88 1437.08,-679.88 1434.12,-676.92 1434.12,-673.96 1434.12,-673.96 1434.12,-668.04 1434.12,-668.04 1434.12,-665.08 1437.08,-662.12 1440.04,-662.12 1440.04,-662.12 1482.21,-662.12 1482.21,-662.12 1485.17,-662.12 1488.12,-665.08 1488.12,-668.04 1488.12,-668.04 1488.12,-673.96 1488.12,-673.96 1488.12,-676.92 1485.17,-679.88 1482.21,-679.88"/>
<text text-anchor="start" x="1444.25" y="-667.33" font-family="Helvetica,sans-Serif" font-size="9.00">Input.tsx</text>
</a>
</g>
</g>
<!-- src/pages/home/@fractal&#45;widgets/SearchPokemonById/ui/SearchPokemonById.tsx&#45;&gt;src/shared/ui/Input.tsx -->
<g id="edge35" class="edge">
<title>src/pages/home/@fractal&#45;widgets/SearchPokemonById/ui/SearchPokemonById.tsx&#45;&gt;src/shared/ui/Input.tsx</title>
<path fill="none" stroke="#000000" stroke-width="2" stroke-opacity="0.200000" d="M623.07,-504.31C640.69,-516.73 670.09,-540.51 683.88,-569 690.98,-583.69 680.88,-629.94 691.88,-642 825.45,-788.44 930.67,-731 1128.88,-731 1128.88,-731 1128.88,-731 1258.75,-731 1322.73,-731 1342.84,-742.07 1402.12,-718 1419.23,-711.05 1435.26,-697.29 1446.11,-686.44"/>
<polygon fill="#000000" fill-opacity="0.200000" stroke="#000000" stroke-width="2" stroke-opacity="0.200000" points="1447.41,-688.11 1450.06,-682.33 1444.39,-685.2 1447.41,-688.11"/>
</g>
<!-- src/pages/home/@fractal&#45;widgets/SearchPokemonById/model/store.ts&#45;&gt;src/entities/pokemon/api/queryPokemonById.ts -->
<g id="edge32" class="edge">
<title>src/pages/home/@fractal&#45;widgets/SearchPokemonById/model/store.ts&#45;&gt;src/entities/pokemon/api/queryPokemonById.ts</title>
<path fill="none" stroke="#000000" stroke-width="2" stroke-opacity="0.200000" d="M737.18,-503.97C750.72,-517.33 776.15,-543.59 793.88,-569 798.2,-575.2 795.75,-579.58 801.88,-584 806.59,-587.41 811.9,-590.03 817.46,-592.04"/>
<polygon fill="#000000" fill-opacity="0.200000" stroke="#000000" stroke-width="2" stroke-opacity="0.200000" points="816.5,-593.94 822.85,-593.68 817.72,-589.92 816.5,-593.94"/>
</g>
<!-- src/pages/home/@fractal&#45;widgets/SearchPokemonById/model/store.ts&#45;&gt;src/entities/pokemon/index.ts -->
<g id="edge31" class="edge">
<title>src/pages/home/@fractal&#45;widgets/SearchPokemonById/model/store.ts&#45;&gt;src/entities/pokemon/index.ts</title>
<path fill="none" stroke="#000000" stroke-width="2" stroke-opacity="0.200000" d="M751.58,-504.35C776.97,-514.36 817.41,-530.3 845.58,-541.41"/>
<polygon fill="#000000" fill-opacity="0.200000" stroke="#000000" stroke-width="2" stroke-opacity="0.200000" points="844.73,-543.34 851.09,-543.58 846.27,-539.43 844.73,-543.34"/>
</g>
<!-- src/pages/home/@fractal&#45;widgets/StrongestPokemons/index.ts -->
<g id="node29" class="node">
<title>src/pages/home/@fractal&#45;widgets/StrongestPokemons/index.ts</title>
<g id="a_node29"><a xlink:href="src/pages/home/@fractal-widgets/StrongestPokemons/index.ts" xlink:title="index.ts">
<path fill="#ddfeff" stroke="black" d="M517.96,-593.88C517.96,-593.88 475.79,-593.88 475.79,-593.88 472.83,-593.88 469.88,-590.92 469.88,-587.96 469.88,-587.96 469.88,-582.04 469.88,-582.04 469.88,-579.08 472.83,-576.12 475.79,-576.12 475.79,-576.12 517.96,-576.12 517.96,-576.12 520.92,-576.12 523.88,-579.08 523.88,-582.04 523.88,-582.04 523.88,-587.96 523.88,-587.96 523.88,-590.92 520.92,-593.88 517.96,-593.88"/>
<text text-anchor="start" x="481.12" y="-581.33" font-family="Helvetica,sans-Serif" font-size="9.00">index.ts</text>
</a>
</g>
</g>
<!-- src/pages/home/@fractal&#45;widgets/StrongestPokemons/ui/StrongestPokemonsSlider.tsx -->
<g id="node30" class="node">
<title>src/pages/home/@fractal&#45;widgets/StrongestPokemons/ui/StrongestPokemonsSlider.tsx</title>
<g id="a_node30"><a xlink:href="src/pages/home/@fractal-widgets/StrongestPokemons/ui/StrongestPokemonsSlider.tsx" xlink:title="StrongestPokemonsSlider.tsx">
<path fill="#bbfeff" stroke="black" d="M669.96,-597.88C669.96,-597.88 545.79,-597.88 545.79,-597.88 542.83,-597.88 539.88,-594.92 539.88,-591.96 539.88,-591.96 539.88,-586.04 539.88,-586.04 539.88,-583.08 542.83,-580.12 545.79,-580.12 545.79,-580.12 669.96,-580.12 669.96,-580.12 672.92,-580.12 675.88,-583.08 675.88,-586.04 675.88,-586.04 675.88,-591.96 675.88,-591.96 675.88,-594.92 672.92,-597.88 669.96,-597.88"/>
<text text-anchor="start" x="547.88" y="-585.33" font-family="Helvetica,sans-Serif" font-size="9.00">StrongestPokemonsSlider.tsx</text>
</a>
</g>
</g>
<!-- src/pages/home/@fractal&#45;widgets/StrongestPokemons/index.ts&#45;&gt;src/pages/home/@fractal&#45;widgets/StrongestPokemons/ui/StrongestPokemonsSlider.tsx -->
<g id="edge36" class="edge">
<title>src/pages/home/@fractal&#45;widgets/StrongestPokemons/index.ts&#45;&gt;src/pages/home/@fractal&#45;widgets/StrongestPokemons/ui/StrongestPokemonsSlider.tsx</title>
<path fill="none" stroke="#000000" stroke-width="2" stroke-opacity="0.200000" d="M524.26,-585.97C526.95,-586.07 529.77,-586.17 532.68,-586.28"/>
<polygon fill="#000000" fill-opacity="0.200000" stroke="#000000" stroke-width="2" stroke-opacity="0.200000" points="538.52,-588.59 532.6,-586.27 538.68,-584.4 538.52,-588.59"/>
</g>
<!-- src/pages/home/@fractal&#45;widgets/StrongestPokemons/ui/StrongestPokemonsSlider.tsx&#45;&gt;src/entities/pokemon/index.ts -->
<g id="edge39" class="edge">
<title>src/pages/home/@fractal&#45;widgets/StrongestPokemons/ui/StrongestPokemonsSlider.tsx&#45;&gt;src/entities/pokemon/index.ts</title>
<path fill="none" stroke="#000000" stroke-width="2" stroke-opacity="0.200000" d="M615.55,-598.35C628.18,-615.14 657.42,-649.87 691.88,-663 734.24,-679.14 760.37,-693.53 793.88,-663 808.06,-650.07 789.74,-591.87 801.88,-577 811.64,-565.02 827.45,-559.13 842.1,-556.29"/>
<polygon fill="#000000" fill-opacity="0.200000" stroke="#000000" stroke-width="2" stroke-opacity="0.200000" points="842.41,-558.37 848.01,-555.36 841.76,-554.22 842.41,-558.37"/>
</g>
<!-- src/pages/home/@fractal&#45;widgets/StrongestPokemons/model/store.ts -->
<g id="node31" class="node">
<title>src/pages/home/@fractal&#45;widgets/StrongestPokemons/model/store.ts</title>
<g id="a_node31"><a xlink:href="src/pages/home/@fractal-widgets/StrongestPokemons/model/store.ts" xlink:title="store.ts">
<path fill="#ddfeff" stroke="black" d="M747.96,-597.88C747.96,-597.88 705.79,-597.88 705.79,-597.88 702.83,-597.88 699.88,-594.92 699.88,-591.96 699.88,-591.96 699.88,-586.04 699.88,-586.04 699.88,-583.08 702.83,-580.12 705.79,-580.12 705.79,-580.12 747.96,-580.12 747.96,-580.12 750.92,-580.12 753.88,-583.08 753.88,-586.04 753.88,-586.04 753.88,-591.96 753.88,-591.96 753.88,-594.92 750.92,-597.88 747.96,-597.88"/>
<text text-anchor="start" x="712.25" y="-585.33" font-family="Helvetica,sans-Serif" font-size="9.00">store.ts</text>
</a>
</g>
</g>
<!-- src/pages/home/@fractal&#45;widgets/StrongestPokemons/ui/StrongestPokemonsSlider.tsx&#45;&gt;src/pages/home/@fractal&#45;widgets/StrongestPokemons/model/store.ts -->
<g id="edge38" class="edge">
<title>src/pages/home/@fractal&#45;widgets/StrongestPokemons/ui/StrongestPokemonsSlider.tsx&#45;&gt;src/pages/home/@fractal&#45;widgets/StrongestPokemons/model/store.ts</title>
<path fill="none" stroke="#000000" stroke-width="2" stroke-opacity="0.200000" d="M676.26,-589C681.27,-589 686.2,-589 690.88,-589"/>
<polygon fill="#000000" fill-opacity="0.200000" stroke="#000000" stroke-width="2" stroke-opacity="0.200000" points="690.52,-591.1 696.52,-589 690.52,-586.9 690.52,-591.1"/>
</g>
<!-- src/pages/home/@fractal&#45;widgets/StrongestPokemons/model/store.ts&#45;&gt;src/entities/pokemon/api/queryPokemonById.ts -->
<g id="edge37" class="edge">
<title>src/pages/home/@fractal&#45;widgets/StrongestPokemons/model/store.ts&#45;&gt;src/entities/pokemon/api/queryPokemonById.ts</title>
<path fill="none" stroke="#000000" stroke-width="2" stroke-opacity="0.200000" d="M754.28,-590.41C771.61,-591.34 795.01,-592.59 816.76,-593.75"/>
<polygon fill="#000000" fill-opacity="0.200000" stroke="#000000" stroke-width="2" stroke-opacity="0.200000" points="816.51,-595.84 822.62,-594.07 816.74,-591.65 816.51,-595.84"/>
</g>
<!-- src/pages/home/ui/Page.tsx&#45;&gt;src/pages/home/@fractal&#45;widgets/SearchPokemonById/index.ts -->
<g id="edge41" class="edge">
<title>src/pages/home/ui/Page.tsx&#45;&gt;src/pages/home/@fractal&#45;widgets/SearchPokemonById/index.ts</title>
<path fill="none" stroke="#000000" stroke-width="2" stroke-opacity="0.200000" d="M429.99,-495C439.61,-495 450.66,-495 460.93,-495"/>
<polygon fill="#000000" fill-opacity="0.200000" stroke="#000000" stroke-width="2" stroke-opacity="0.200000" points="460.67,-497.1 466.67,-495 460.67,-492.9 460.67,-497.1"/>
</g>
<!-- src/pages/home/ui/Page.tsx&#45;&gt;src/pages/home/@fractal&#45;widgets/StrongestPokemons/index.ts -->
<g id="edge42" class="edge">
<title>src/pages/home/ui/Page.tsx&#45;&gt;src/pages/home/@fractal&#45;widgets/StrongestPokemons/index.ts</title>
<path fill="none" stroke="#000000" stroke-width="2" stroke-opacity="0.200000" d="M409.48,-504.09C417.94,-517.3 434.98,-542.06 453.88,-559 458.79,-563.41 464.55,-567.52 470.2,-571.11"/>
<polygon fill="#000000" fill-opacity="0.200000" stroke="#000000" stroke-width="2" stroke-opacity="0.200000" points="468.93,-572.8 475.15,-574.1 471.1,-569.2 468.93,-572.8"/>
</g>
<!-- src/pages/profile/ui/Page.tsx&#45;&gt;src/entities/session/index.ts -->
<g id="edge44" class="edge">
<title>src/pages/profile/ui/Page.tsx&#45;&gt;src/entities/session/index.ts</title>
<path fill="none" stroke="#000000" stroke-width="2" stroke-opacity="0.200000" d="M411.7,-375.76C436.86,-347.15 519.1,-262 606.88,-262 606.88,-262 606.88,-262 879.5,-262 959.94,-262 980.68,-258.66 1059.38,-242 1071.21,-239.49 1083.91,-235.79 1095.16,-232.13"/>
<polygon fill="#000000" fill-opacity="0.200000" stroke="#000000" stroke-width="2" stroke-opacity="0.200000" points="1095.55,-234.22 1100.58,-230.32 1094.22,-230.23 1095.55,-234.22"/>
</g>
<!-- src/pages/profile/ui/Page.tsx&#45;&gt;src/entities/user/index.ts -->
<g id="edge45" class="edge">
<title>src/pages/profile/ui/Page.tsx&#45;&gt;src/entities/user/index.ts</title>
<path fill="none" stroke="#000000" stroke-width="2" stroke-opacity="0.200000" d="M430.35,-382.65C510.68,-375.53 751.64,-354.16 842.4,-346.11"/>
<polygon fill="#000000" fill-opacity="0.200000" stroke="#000000" stroke-width="2" stroke-opacity="0.200000" points="842.4,-348.22 848.19,-345.6 842.03,-344.04 842.4,-348.22"/>
</g>
<!-- src/shared/api/base/endpoints.ts&#45;&gt;src/shared/api/base/fetchBaseApi.ts -->
<g id="edge46" class="edge">
<title>src/shared/api/base/endpoints.ts&#45;&gt;src/shared/api/base/fetchBaseApi.ts</title>
<path fill="none" stroke="#000000" stroke-width="2" stroke-opacity="0.200000" d="M1585.62,-430.61C1592.76,-429.63 1600.48,-428.57 1608.09,-427.52"/>
<polygon fill="#000000" fill-opacity="0.200000" stroke="#000000" stroke-width="2" stroke-opacity="0.200000" points="1608.28,-429.62 1613.94,-426.72 1607.71,-425.46 1608.28,-429.62"/>
</g>
<!-- src/shared/api/base/endpoints.ts&#45;&gt;src/shared/api/base/types.ts -->
<g id="edge47" class="edge">
<title>src/shared/api/base/endpoints.ts&#45;&gt;src/shared/api/base/types.ts</title>
<path fill="none" stroke="#000000" stroke-opacity="0.200000" d="M1585.62,-440.02C1597.23,-441.84 1610.38,-443.9 1622.12,-445.74"/>
<polygon fill="none" stroke="#000000" stroke-opacity="0.200000" points="1621.47,-447.77 1627.72,-446.62 1622.12,-443.62 1621.47,-447.77"/>
</g>
<!-- src/shared/api/base/fetchBaseApi.ts&#45;&gt;src/shared/api/base/errors.ts -->
<g id="edge48" class="edge">
<title>src/shared/api/base/fetchBaseApi.ts&#45;&gt;src/shared/api/base/errors.ts</title>
<path fill="none" stroke="#000000" stroke-width="2" stroke-opacity="0.200000" d="M1681.7,-430.24C1686.49,-432.12 1691.48,-434.1 1696.12,-436 1700.24,-437.68 1704.57,-439.49 1708.82,-441.29"/>
<polygon fill="#000000" fill-opacity="0.200000" stroke="#000000" stroke-width="2" stroke-opacity="0.200000" points="1707.69,-443.09 1714.03,-443.52 1709.34,-439.23 1707.69,-443.09"/>
</g>
<!-- src/shared/api/base/fetchBaseApi.ts&#45;&gt;src/shared/api/base/store.ts -->
<g id="edge49" class="edge">
<title>src/shared/api/base/fetchBaseApi.ts&#45;&gt;src/shared/api/base/store.ts</title>
<path fill="none" stroke="#000000" stroke-width="2" stroke-opacity="0.200000" d="M1696.46,-417.62C1698.55,-417.44 1700.65,-417.26 1702.73,-417.08"/>
<polygon fill="#000000" fill-opacity="0.200000" stroke="#000000" stroke-width="2" stroke-opacity="0.200000" points="1702.84,-419.18 1708.64,-416.56 1702.48,-414.99 1702.84,-419.18"/>
</g>
<!-- src/shared/lib/wait.ts -->
<g id="node39" class="node">
<title>src/shared/lib/wait.ts</title>
<g id="a_node39"><a xlink:href="src/shared/lib/wait.ts" xlink:title="wait.ts">
<path fill="#ddfeff" stroke="black" d="M1760.21,-649.88C1760.21,-649.88 1718.04,-649.88 1718.04,-649.88 1715.08,-649.88 1712.12,-646.92 1712.12,-643.96 1712.12,-643.96 1712.12,-638.04 1712.12,-638.04 1712.12,-635.08 1715.08,-632.12 1718.04,-632.12 1718.04,-632.12 1760.21,-632.12 1760.21,-632.12 1763.17,-632.12 1766.12,-635.08 1766.12,-638.04 1766.12,-638.04 1766.12,-643.96 1766.12,-643.96 1766.12,-646.92 1763.17,-649.88 1760.21,-649.88"/>
<text text-anchor="start" x="1726.38" y="-637.33" font-family="Helvetica,sans-Serif" font-size="9.00">wait.ts</text>
</a>
</g>
</g>
<!-- src/shared/api/base/fetchBaseApi.ts&#45;&gt;src/shared/lib/wait.ts -->
<g id="edge50" class="edge">
<title>src/shared/api/base/fetchBaseApi.ts&#45;&gt;src/shared/lib/wait.ts</title>
<path fill="none" stroke="#000000" stroke-width="2" stroke-opacity="0.200000" d="M1689.85,-430.17C1692.22,-431.81 1694.37,-433.73 1696.12,-436 1705.31,-447.85 1701.44,-488.25 1704.12,-503 1712.08,-546.67 1725.65,-597.12 1733.01,-623.25"/>
<polygon fill="#000000" fill-opacity="0.200000" stroke="#000000" stroke-width="2" stroke-opacity="0.200000" points="1730.93,-623.61 1734.59,-628.8 1734.97,-622.46 1730.93,-623.61"/>
</g>
<!-- src/shared/lib/app.d.ts -->
<g id="node42" class="node">
<title>src/shared/lib/app.d.ts</title>
<g id="a_node42"><a xlink:href="src/shared/lib/app.d.ts" xlink:title="app.d.ts">
<path fill="#ccffcc" stroke="black" d="M1760.21,-679.88C1760.21,-679.88 1718.04,-679.88 1718.04,-679.88 1715.08,-679.88 1712.12,-676.92 1712.12,-673.96 1712.12,-673.96 1712.12,-668.04 1712.12,-668.04 1712.12,-665.08 1715.08,-662.12 1718.04,-662.12 1718.04,-662.12 1760.21,-662.12 1760.21,-662.12 1763.17,-662.12 1766.12,-665.08 1766.12,-668.04 1766.12,-668.04 1766.12,-673.96 1766.12,-673.96 1766.12,-676.92 1763.17,-679.88 1760.21,-679.88"/>
<text text-anchor="start" x="1723" y="-667.33" font-family="Helvetica,sans-Serif" font-size="9.00">app.d.ts</text>
</a>
</g>
</g>
<!-- src/vite&#45;env.d.ts -->
<g id="node43" class="node">
<title>src/vite&#45;env.d.ts</title>
<g id="a_node43"><a xlink:href="src/vite-env.d.ts" xlink:title="vite&#45;env.d.ts">
<path fill="#ccffcc" stroke="black" d="M77.46,-543.88C77.46,-543.88 24.54,-543.88 24.54,-543.88 21.58,-543.88 18.62,-540.92 18.62,-537.96 18.62,-537.96 18.62,-532.04 18.62,-532.04 18.62,-529.08 21.58,-526.12 24.54,-526.12 24.54,-526.12 77.46,-526.12 77.46,-526.12 80.42,-526.12 83.38,-529.08 83.38,-532.04 83.38,-532.04 83.38,-537.96 83.38,-537.96 83.38,-540.92 80.42,-543.88 77.46,-543.88"/>
<text text-anchor="start" x="26.62" y="-531.33" font-family="Helvetica,sans-Serif" font-size="9.00">vite&#45;env.d.ts</text>
</a>
</g>
</g>
<!-- src/widgets/LoginDialog/ui/LoginDialog.tsx -->
<g id="node46" class="node">
<title>src/widgets/LoginDialog/ui/LoginDialog.tsx</title>
<g id="a_node46"><a xlink:href="src/widgets/LoginDialog/ui/LoginDialog.tsx" xlink:title="LoginDialog.tsx">
<path fill="#bbfeff" stroke="black" d="M1291.71,-57.88C1291.71,-57.88 1223.79,-57.88 1223.79,-57.88 1220.83,-57.88 1217.88,-54.92 1217.88,-51.96 1217.88,-51.96 1217.88,-46.04 1217.88,-46.04 1217.88,-43.08 1220.83,-40.12 1223.79,-40.12 1223.79,-40.12 1291.71,-40.12 1291.71,-40.12 1294.67,-40.12 1297.62,-43.08 1297.62,-46.04 1297.62,-46.04 1297.62,-51.96 1297.62,-51.96 1297.62,-54.92 1294.67,-57.88 1291.71,-57.88"/>
<text text-anchor="start" x="1225.88" y="-45.33" font-family="Helvetica,sans-Serif" font-size="9.00">LoginDialog.tsx</text>
</a>
</g>
</g>
<!-- src/widgets/LoginDialog/ui/LoginDialogTrigger.tsx&#45;&gt;src/widgets/LoginDialog/ui/LoginDialog.tsx -->
<g id="edge62" class="edge">
<title>src/widgets/LoginDialog/ui/LoginDialogTrigger.tsx&#45;&gt;src/widgets/LoginDialog/ui/LoginDialog.tsx</title>
<path fill="none" stroke="#000000" stroke-width="2" stroke-opacity="0.200000" d="M1184.62,-49C1192.68,-49 1200.95,-49 1208.87,-49"/>
<polygon fill="#000000" fill-opacity="0.200000" stroke="#000000" stroke-width="2" stroke-opacity="0.200000" points="1208.62,-51.1 1214.62,-49 1208.62,-46.9 1208.62,-51.1"/>
</g>
<!-- src/widgets/LoginDialog/model/store.ts -->
<g id="node45" class="node">
<title>src/widgets/LoginDialog/model/store.ts</title>
<g id="a_node45"><a xlink:href="src/widgets/LoginDialog/model/store.ts" xlink:title="store.ts">
<path fill="#ddfeff" stroke="black" d="M1372.08,-57.88C1372.08,-57.88 1329.92,-57.88 1329.92,-57.88 1326.96,-57.88 1324,-54.92 1324,-51.96 1324,-51.96 1324,-46.04 1324,-46.04 1324,-43.08 1326.96,-40.12 1329.92,-40.12 1329.92,-40.12 1372.08,-40.12 1372.08,-40.12 1375.04,-40.12 1378,-43.08 1378,-46.04 1378,-46.04 1378,-51.96 1378,-51.96 1378,-54.92 1375.04,-57.88 1372.08,-57.88"/>
<text text-anchor="start" x="1336.38" y="-45.33" font-family="Helvetica,sans-Serif" font-size="9.00">store.ts</text>
</a>
</g>
</g>
<!-- src/widgets/LoginDialog/model/store.ts&#45;&gt;src/shared/api/base/index.ts -->
<g id="edge59" class="edge">
<title>src/widgets/LoginDialog/model/store.ts&#45;&gt;src/shared/api/base/index.ts</title>
<path fill="none" stroke="#000000" stroke-width="2" stroke-opacity="0.200000" d="M1362.23,-58.28C1373.82,-69.4 1392.35,-89.15 1402.12,-110 1449.15,-210.28 1458.05,-346.26 1459.73,-394.83"/>
<polygon fill="#000000" fill-opacity="0.200000" stroke="#000000" stroke-width="2" stroke-opacity="0.200000" points="1457.63,-394.86 1459.91,-400.8 1461.83,-394.74 1457.63,-394.86"/>
</g>
<!-- src/widgets/LoginDialog/ui/LoginDialog.tsx&#45;&gt;src/shared/api/base/index.ts -->
<g id="edge61" class="edge">
<title>src/widgets/LoginDialog/ui/LoginDialog.tsx&#45;&gt;src/shared/api/base/index.ts</title>
<path fill="none" stroke="#000000" stroke-width="2" stroke-opacity="0.200000" d="M1272.02,-58.21C1305.88,-81.8 1393.41,-143.52 1402.12,-157 1452.4,-234.75 1459.41,-350.34 1460.16,-394.73"/>
<polygon fill="#000000" fill-opacity="0.200000" stroke="#000000" stroke-width="2" stroke-opacity="0.200000" points="1458.06,-394.75 1460.21,-400.73 1462.26,-394.71 1458.06,-394.75"/>
</g>
<!-- src/widgets/LoginDialog/ui/LoginDialog.tsx&#45;&gt;src/widgets/LoginDialog/model/store.ts -->
<g id="edge60" class="edge">
<title>src/widgets/LoginDialog/ui/LoginDialog.tsx&#45;&gt;src/widgets/LoginDialog/model/store.ts</title>
<path fill="none" stroke="#000000" stroke-width="2" stroke-opacity="0.200000" d="M1297.98,-49C1303.55,-49 1309.25,-49 1314.74,-49"/>
<polygon fill="#000000" fill-opacity="0.200000" stroke="#000000" stroke-width="2" stroke-opacity="0.200000" points="1314.69,-51.1 1320.69,-49 1314.69,-46.9 1314.69,-51.1"/>
</g>
</g>
</svg>
