<?xml version="1.0" encoding="UTF-8" standalone="no"?>
<!DOCTYPE svg PUBLIC "-//W3C//DTD SVG 1.1//EN"
 "http://www.w3.org/Graphics/SVG/1.1/DTD/svg11.dtd">
<!-- Generated by graphviz version 12.0.0 (20240704.0754)
 -->
<!-- Title: dependency&#45;cruiser output Pages: 1 -->
<svg width="1809pt" height="774pt"
 viewBox="0.00 0.00 1808.75 774.00" xmlns="http://www.w3.org/2000/svg" xmlns:xlink="http://www.w3.org/1999/xlink">
<g id="graph0" class="graph" transform="scale(1 1) rotate(0) translate(4 770)">
<title>dependency&#45;cruiser output</title>
<polygon fill="white" stroke="none" points="-4,4 -4,-770 1804.75,-770 1804.75,4 -4,4"/>
<g id="clust1" class="cluster">
<title>cluster_src</title>
<path fill="#ffffff" stroke="black" stroke-width="2" d="M20,-8C20,-8 1780.75,-8 1780.75,-8 1786.75,-8 1792.75,-14 1792.75,-20 1792.75,-20 1792.75,-746 1792.75,-746 1792.75,-752 1786.75,-758 1780.75,-758 1780.75,-758 20,-758 20,-758 14,-758 8,-752 8,-746 8,-746 8,-20 8,-20 8,-14 14,-8 20,-8"/>
<text text-anchor="middle" x="900.38" y="-745.45" font-family="Helvetica,sans-Serif" font-weight="bold" font-size="9.00">src</text>
</g>
<g id="clust2" class="cluster">
<title>cluster_src/app</title>
<path fill="#ffffff" stroke="black" stroke-width="2" d="M28,-191C28,-191 342.5,-191 342.5,-191 348.5,-191 354.5,-197 354.5,-203 354.5,-203 354.5,-325 354.5,-325 354.5,-331 348.5,-337 342.5,-337 342.5,-337 28,-337 28,-337 22,-337 16,-331 16,-325 16,-325 16,-203 16,-203 16,-197 22,-191 28,-191"/>
<text text-anchor="middle" x="185.25" y="-324.45" font-family="Helvetica,sans-Serif" font-weight="bold" font-size="9.00">app</text>
</g>
<g id="clust3" class="cluster">
<title>cluster_src/app/providers</title>
<path fill="#ffffff" stroke="black" stroke-width="2" d="M98,-225C98,-225 334.5,-225 334.5,-225 340.5,-225 346.5,-231 346.5,-237 346.5,-237 346.5,-299 346.5,-299 346.5,-305 340.5,-311 334.5,-311 334.5,-311 98,-311 98,-311 92,-311 86,-305 86,-299 86,-299 86,-237 86,-237 86,-231 92,-225 98,-225"/>
<text text-anchor="middle" x="216.25" y="-298.45" font-family="Helvetica,sans-Serif" font-weight="bold" font-size="9.00">providers</text>
</g>
<g id="clust4" class="cluster">
<title>cluster_src/app/providers/layout</title>
<path fill="#ffffff" stroke="black" stroke-width="2" d="M221.75,-233C221.75,-233 326.5,-233 326.5,-233 332.5,-233 338.5,-239 338.5,-245 338.5,-245 338.5,-273 338.5,-273 338.5,-279 332.5,-285 326.5,-285 326.5,-285 221.75,-285 221.75,-285 215.75,-285 209.75,-279 209.75,-273 209.75,-273 209.75,-245 209.75,-245 209.75,-239 215.75,-233 221.75,-233"/>
<text text-anchor="middle" x="274.12" y="-272.45" font-family="Helvetica,sans-Serif" font-weight="bold" font-size="9.00">layout</text>
</g>
<g id="clust5" class="cluster">
<title>cluster_src/app/providers/router</title>
<path fill="#ffffff" stroke="black" stroke-width="2" d="M106,-233C106,-233 189.75,-233 189.75,-233 195.75,-233 201.75,-239 201.75,-245 201.75,-245 201.75,-273 201.75,-273 201.75,-279 195.75,-285 189.75,-285 189.75,-285 106,-285 106,-285 100,-285 94,-279 94,-273 94,-273 94,-245 94,-245 94,-239 100,-233 106,-233"/>
<text text-anchor="middle" x="147.88" y="-272.45" font-family="Helvetica,sans-Serif" font-weight="bold" font-size="9.00">router</text>
</g>
<g id="clust6" class="cluster">
<title>cluster_src/entities</title>
<path fill="#ffffff" stroke="black" stroke-width="2" d="M808.5,-144C808.5,-144 1384.75,-144 1384.75,-144 1390.75,-144 1396.75,-150 1396.75,-156 1396.75,-156 1396.75,-680 1396.75,-680 1396.75,-686 1390.75,-692 1384.75,-692 1384.75,-692 808.5,-692 808.5,-692 802.5,-692 796.5,-686 796.5,-680 796.5,-680 796.5,-156 796.5,-156 796.5,-150 802.5,-144 808.5,-144"/>
<text text-anchor="middle" x="1096.62" y="-679.45" font-family="Helvetica,sans-Serif" font-weight="bold" font-size="9.00">entities</text>
</g>
<g id="clust7" class="cluster">
<title>cluster_src/entities/pokemon</title>
<path fill="#ffffff" stroke="black" stroke-width="2" d="M816.5,-430C816.5,-430 1182.25,-430 1182.25,-430 1188.25,-430 1194.25,-436 1194.25,-442 1194.25,-442 1194.25,-654 1194.25,-654 1194.25,-660 1188.25,-666 1182.25,-666 1182.25,-666 816.5,-666 816.5,-666 810.5,-666 804.5,-660 804.5,-654 804.5,-654 804.5,-442 804.5,-442 804.5,-436 810.5,-430 816.5,-430"/>
<text text-anchor="middle" x="999.38" y="-653.45" font-family="Helvetica,sans-Serif" font-weight="bold" font-size="9.00">pokemon</text>
</g>
<g id="clust8" class="cluster">
<title>cluster_src/entities/pokemon/api</title>
<path fill="#ffffff" stroke="black" stroke-width="2" d="M824.5,-580C824.5,-580 921.75,-580 921.75,-580 927.75,-580 933.75,-586 933.75,-592 933.75,-592 933.75,-620 933.75,-620 933.75,-626 927.75,-632 921.75,-632 921.75,-632 824.5,-632 824.5,-632 818.5,-632 812.5,-626 812.5,-620 812.5,-620 812.5,-592 812.5,-592 812.5,-586 818.5,-580 824.5,-580"/>
<text text-anchor="middle" x="873.12" y="-619.45" font-family="Helvetica,sans-Serif" font-weight="bold" font-size="9.00">api</text>
</g>
<g id="clust9" class="cluster">
<title>cluster_src/entities/pokemon/lib</title>
<path fill="#ffffff" stroke="black" stroke-width="2" d="M953.75,-588C953.75,-588 1042,-588 1042,-588 1048,-588 1054,-594 1054,-600 1054,-600 1054,-628 1054,-628 1054,-634 1048,-640 1042,-640 1042,-640 953.75,-640 953.75,-640 947.75,-640 941.75,-634 941.75,-628 941.75,-628 941.75,-600 941.75,-600 941.75,-594 947.75,-588 953.75,-588"/>
<text text-anchor="middle" x="997.88" y="-627.45" font-family="Helvetica,sans-Serif" font-weight="bold" font-size="9.00">lib</text>
</g>
<g id="clust10" class="cluster">
<title>cluster_src/entities/pokemon/model</title>
<path fill="#ffffff" stroke="black" stroke-width="2" d="M1101.5,-438C1101.5,-438 1147.5,-438 1147.5,-438 1153.5,-438 1159.5,-444 1159.5,-450 1159.5,-450 1159.5,-508 1159.5,-508 1159.5,-514 1153.5,-520 1147.5,-520 1147.5,-520 1101.5,-520 1101.5,-520 1095.5,-520 1089.5,-514 1089.5,-508 1089.5,-508 1089.5,-450 1089.5,-450 1089.5,-444 1095.5,-438 1101.5,-438"/>
<text text-anchor="middle" x="1124.5" y="-507.45" font-family="Helvetica,sans-Serif" font-weight="bold" font-size="9.00">model</text>
</g>
<g id="clust11" class="cluster">
<title>cluster_src/entities/pokemon/ui</title>
<path fill="#ffffff" stroke="black" stroke-width="2" d="M957.5,-528C957.5,-528 1174.25,-528 1174.25,-528 1180.25,-528 1186.25,-534 1186.25,-540 1186.25,-540 1186.25,-568 1186.25,-568 1186.25,-574 1180.25,-580 1174.25,-580 1174.25,-580 957.5,-580 957.5,-580 951.5,-580 945.5,-574 945.5,-568 945.5,-568 945.5,-540 945.5,-540 945.5,-534 951.5,-528 957.5,-528"/>
<text text-anchor="middle" x="1065.88" y="-567.45" font-family="Helvetica,sans-Serif" font-weight="bold" font-size="9.00">ui</text>
</g>
<g id="clust12" class="cluster">
<title>cluster_src/entities/session</title>
<path fill="#ffffff" stroke="black" stroke-width="2" d="M1101.5,-152C1101.5,-152 1376.75,-152 1376.75,-152 1382.75,-152 1388.75,-158 1388.75,-164 1388.75,-164 1388.75,-256 1388.75,-256 1388.75,-262 1382.75,-268 1376.75,-268 1376.75,-268 1101.5,-268 1101.5,-268 1095.5,-268 1089.5,-262 1089.5,-256 1089.5,-256 1089.5,-164 1089.5,-164 1089.5,-158 1095.5,-152 1101.5,-152"/>
<text text-anchor="middle" x="1239.12" y="-255.45" font-family="Helvetica,sans-Serif" font-weight="bold" font-size="9.00">session</text>
</g>
<g id="clust13" class="cluster">
<title>cluster_src/entities/session/model</title>
<path fill="#ffffff" stroke="black" stroke-width="2" d="M1322.5,-160C1322.5,-160 1368.75,-160 1368.75,-160 1374.75,-160 1380.75,-166 1380.75,-172 1380.75,-172 1380.75,-230 1380.75,-230 1380.75,-236 1374.75,-242 1368.75,-242 1368.75,-242 1322.5,-242 1322.5,-242 1316.5,-242 1310.5,-236 1310.5,-230 1310.5,-230 1310.5,-172 1310.5,-172 1310.5,-166 1316.5,-160 1322.5,-160"/>
<text text-anchor="middle" x="1345.62" y="-229.45" font-family="Helvetica,sans-Serif" font-weight="bold" font-size="9.00">model</text>
</g>
<g id="clust14" class="cluster">
<title>cluster_src/entities/session/ui</title>
<path fill="#ffffff" stroke="black" stroke-width="2" d="M1214.25,-190C1214.25,-190 1290.5,-190 1290.5,-190 1296.5,-190 1302.5,-196 1302.5,-202 1302.5,-202 1302.5,-230 1302.5,-230 1302.5,-236 1296.5,-242 1290.5,-242 1290.5,-242 1214.25,-242 1214.25,-242 1208.25,-242 1202.25,-236 1202.25,-230 1202.25,-230 1202.25,-202 1202.25,-202 1202.25,-196 1208.25,-190 1214.25,-190"/>
<text text-anchor="middle" x="1252.38" y="-229.45" font-family="Helvetica,sans-Serif" font-weight="bold" font-size="9.00">ui</text>
</g>
<g id="clust15" class="cluster">
<title>cluster_src/entities/user</title>
<path fill="#ffffff" stroke="black" stroke-width="2" d="M850.12,-276C850.12,-276 1155.5,-276 1155.5,-276 1161.5,-276 1167.5,-282 1167.5,-288 1167.5,-288 1167.5,-410 1167.5,-410 1167.5,-416 1161.5,-422 1155.5,-422 1155.5,-422 850.12,-422 850.12,-422 844.12,-422 838.12,-416 838.12,-410 838.12,-410 838.12,-288 838.12,-288 838.12,-282 844.12,-276 850.12,-276"/>
<text text-anchor="middle" x="1002.81" y="-409.45" font-family="Helvetica,sans-Serif" font-weight="bold" font-size="9.00">user</text>
</g>
<g id="clust16" class="cluster">
<title>cluster_src/entities/user/lib</title>
<path fill="#ffffff" stroke="black" stroke-width="2" d="M963.5,-344C963.5,-344 1032.25,-344 1032.25,-344 1038.25,-344 1044.25,-350 1044.25,-356 1044.25,-356 1044.25,-384 1044.25,-384 1044.25,-390 1038.25,-396 1032.25,-396 1032.25,-396 963.5,-396 963.5,-396 957.5,-396 951.5,-390 951.5,-384 951.5,-384 951.5,-356 951.5,-356 951.5,-350 957.5,-344 963.5,-344"/>
<text text-anchor="middle" x="997.88" y="-383.45" font-family="Helvetica,sans-Serif" font-weight="bold" font-size="9.00">lib</text>
</g>
<g id="clust17" class="cluster">
<title>cluster_src/entities/user/model</title>
<path fill="#ffffff" stroke="black" stroke-width="2" d="M974.88,-284C974.88,-284 1147.5,-284 1147.5,-284 1153.5,-284 1159.5,-290 1159.5,-296 1159.5,-296 1159.5,-324 1159.5,-324 1159.5,-330 1153.5,-336 1147.5,-336 1147.5,-336 974.88,-336 974.88,-336 968.88,-336 962.88,-330 962.88,-324 962.88,-324 962.88,-296 962.88,-296 962.88,-290 968.88,-284 974.88,-284"/>
<text text-anchor="middle" x="1061.19" y="-323.45" font-family="Helvetica,sans-Serif" font-weight="bold" font-size="9.00">model</text>
</g>
<g id="clust18" class="cluster">
<title>cluster_src/pages</title>
<path fill="#ffffff" stroke="black" stroke-width="2" d="M243.12,-352C243.12,-352 776.5,-352 776.5,-352 782.5,-352 788.5,-358 788.5,-364 788.5,-364 788.5,-716 788.5,-716 788.5,-722 782.5,-728 776.5,-728 776.5,-728 243.12,-728 243.12,-728 237.13,-728 231.12,-722 231.12,-716 231.12,-716 231.12,-364 231.12,-364 231.12,-358 237.12,-352 243.12,-352"/>
<text text-anchor="middle" x="509.81" y="-715.45" font-family="Helvetica,sans-Serif" font-weight="bold" font-size="9.00">pages</text>
</g>
<g id="clust19" class="cluster">
<title>cluster_src/pages/home</title>
<path fill="#ffffff" stroke="black" stroke-width="2" d="M251.12,-454C251.12,-454 768.5,-454 768.5,-454 774.5,-454 780.5,-460 780.5,-466 780.5,-466 780.5,-690 780.5,-690 780.5,-696 774.5,-702 768.5,-702 768.5,-702 251.12,-702 251.12,-702 245.12,-702 239.12,-696 239.12,-690 239.12,-690 239.12,-466 239.12,-466 239.12,-460 245.12,-454 251.12,-454"/>
<text text-anchor="middle" x="509.81" y="-689.45" font-family="Helvetica,sans-Serif" font-weight="bold" font-size="9.00">home</text>
</g>
<g id="clust20" class="cluster">
<title>cluster_src/pages/home/@fractal&#45;widgets</title>
<path fill="#ffffff" stroke="black" stroke-width="2" d="M460.5,-462C460.5,-462 760.5,-462 760.5,-462 766.5,-462 772.5,-468 772.5,-474 772.5,-474 772.5,-664 772.5,-664 772.5,-670 766.5,-676 760.5,-676 760.5,-676 460.5,-676 460.5,-676 454.5,-676 448.5,-670 448.5,-664 448.5,-664 448.5,-474 448.5,-474 448.5,-468 454.5,-462 460.5,-462"/>
<text text-anchor="middle" x="610.5" y="-663.45" font-family="Helvetica,sans-Serif" font-weight="bold" font-size="9.00">@fractal&#45;widgets</text>
</g>
<g id="clust21" class="cluster">
<title>cluster_src/pages/home/@fractal&#45;widgets/SearchPokemonById</title>
<path fill="#ffffff" stroke="black" stroke-width="2" d="M468.5,-470C468.5,-470 752.5,-470 752.5,-470 758.5,-470 764.5,-476 764.5,-482 764.5,-482 764.5,-544 764.5,-544 764.5,-550 758.5,-556 752.5,-556 752.5,-556 468.5,-556 468.5,-556 462.5,-556 456.5,-550 456.5,-544 456.5,-544 456.5,-482 456.5,-482 456.5,-476 462.5,-470 468.5,-470"/>
<text text-anchor="middle" x="610.5" y="-543.45" font-family="Helvetica,sans-Serif" font-weight="bold" font-size="9.00">SearchPokemonById</text>
</g>
<g id="clust22" class="cluster">
<title>cluster_src/pages/home/@fractal&#45;widgets/SearchPokemonById/model</title>
<path fill="#ffffff" stroke="black" stroke-width="2" d="M698.5,-478C698.5,-478 744.5,-478 744.5,-478 750.5,-478 756.5,-484 756.5,-490 756.5,-490 756.5,-518 756.5,-518 756.5,-524 750.5,-530 744.5,-530 744.5,-530 698.5,-530 698.5,-530 692.5,-530 686.5,-524 686.5,-518 686.5,-518 686.5,-490 686.5,-490 686.5,-484 692.5,-478 698.5,-478"/>
<text text-anchor="middle" x="721.5" y="-517.45" font-family="Helvetica,sans-Serif" font-weight="bold" font-size="9.00">model</text>
</g>
<g id="clust23" class="cluster">
<title>cluster_src/pages/home/@fractal&#45;widgets/SearchPokemonById/ui</title>
<path fill="#ffffff" stroke="black" stroke-width="2" d="M548.62,-478C548.62,-478 656.38,-478 656.38,-478 662.38,-478 668.38,-484 668.38,-490 668.38,-490 668.38,-518 668.38,-518 668.38,-524 662.38,-530 656.38,-530 656.38,-530 548.62,-530 548.62,-530 542.62,-530 536.62,-524 536.62,-518 536.62,-518 536.62,-490 536.62,-490 536.62,-484 542.62,-478 548.62,-478"/>
<text text-anchor="middle" x="602.5" y="-517.45" font-family="Helvetica,sans-Serif" font-weight="bold" font-size="9.00">ui</text>
</g>
<g id="clust24" class="cluster">
<title>cluster_src/pages/home/@fractal&#45;widgets/StrongestPokemons</title>
<path fill="#ffffff" stroke="black" stroke-width="2" d="M468.5,-564C468.5,-564 752.5,-564 752.5,-564 758.5,-564 764.5,-570 764.5,-576 764.5,-576 764.5,-638 764.5,-638 764.5,-644 758.5,-650 752.5,-650 752.5,-650 468.5,-650 468.5,-650 462.5,-650 456.5,-644 456.5,-638 456.5,-638 456.5,-576 456.5,-576 456.5,-570 462.5,-564 468.5,-564"/>
<text text-anchor="middle" x="610.5" y="-637.45" font-family="Helvetica,sans-Serif" font-weight="bold" font-size="9.00">StrongestPokemons</text>
</g>
<g id="clust25" class="cluster">
<title>cluster_src/pages/home/@fractal&#45;widgets/StrongestPokemons/model</title>
<path fill="#ffffff" stroke="black" stroke-width="2" d="M698.5,-572C698.5,-572 744.5,-572 744.5,-572 750.5,-572 756.5,-578 756.5,-584 756.5,-584 756.5,-612 756.5,-612 756.5,-618 750.5,-624 744.5,-624 744.5,-624 698.5,-624 698.5,-624 692.5,-624 686.5,-618 686.5,-612 686.5,-612 686.5,-584 686.5,-584 686.5,-578 692.5,-572 698.5,-572"/>
<text text-anchor="middle" x="721.5" y="-611.45" font-family="Helvetica,sans-Serif" font-weight="bold" font-size="9.00">model</text>
</g>
<g id="clust26" class="cluster">
<title>cluster_src/pages/home/@fractal&#45;widgets/StrongestPokemons/ui</title>
<path fill="#ffffff" stroke="black" stroke-width="2" d="M538.5,-572C538.5,-572 666.5,-572 666.5,-572 672.5,-572 678.5,-578 678.5,-584 678.5,-584 678.5,-612 678.5,-612 678.5,-618 672.5,-624 666.5,-624 666.5,-624 538.5,-624 538.5,-624 532.5,-624 526.5,-618 526.5,-612 526.5,-612 526.5,-584 526.5,-584 526.5,-578 532.5,-572 538.5,-572"/>
<text text-anchor="middle" x="602.5" y="-611.45" font-family="Helvetica,sans-Serif" font-weight="bold" font-size="9.00">ui</text>
</g>
<g id="clust27" class="cluster">
<title>cluster_src/pages/home/ui</title>
<path fill="#ffffff" stroke="black" stroke-width="2" d="M374.5,-478C374.5,-478 420.5,-478 420.5,-478 426.5,-478 432.5,-484 432.5,-490 432.5,-490 432.5,-518 432.5,-518 432.5,-524 426.5,-530 420.5,-530 420.5,-530 374.5,-530 374.5,-530 368.5,-530 362.5,-524 362.5,-518 362.5,-518 362.5,-490 362.5,-490 362.5,-484 368.5,-478 374.5,-478"/>
<text text-anchor="middle" x="397.5" y="-517.45" font-family="Helvetica,sans-Serif" font-weight="bold" font-size="9.00">ui</text>
</g>
<g id="clust28" class="cluster">
<title>cluster_src/pages/profile</title>
<path fill="#ffffff" stroke="black" stroke-width="2" d="M251.12,-360C251.12,-360 428.5,-360 428.5,-360 434.5,-360 440.5,-366 440.5,-372 440.5,-372 440.5,-434 440.5,-434 440.5,-440 434.5,-446 428.5,-446 428.5,-446 251.12,-446 251.12,-446 245.12,-446 239.12,-440 239.12,-434 239.12,-434 239.12,-372 239.12,-372 239.12,-366 245.12,-360 251.12,-360"/>
<text text-anchor="middle" x="339.81" y="-433.45" font-family="Helvetica,sans-Serif" font-weight="bold" font-size="9.00">profile</text>
</g>
<g id="clust29" class="cluster">
<title>cluster_src/pages/profile/ui</title>
<path fill="#ffffff" stroke="black" stroke-width="2" d="M374.5,-368C374.5,-368 420.5,-368 420.5,-368 426.5,-368 432.5,-374 432.5,-380 432.5,-380 432.5,-408 432.5,-408 432.5,-414 426.5,-420 420.5,-420 420.5,-420 374.5,-420 374.5,-420 368.5,-420 362.5,-414 362.5,-408 362.5,-408 362.5,-380 362.5,-380 362.5,-374 368.5,-368 374.5,-368"/>
<text text-anchor="middle" x="397.5" y="-407.45" font-family="Helvetica,sans-Serif" font-weight="bold" font-size="9.00">ui</text>
</g>
<g id="clust30" class="cluster">
<title>cluster_src/shared</title>
<path fill="#ffffff" stroke="black" stroke-width="2" d="M1416.75,-374C1416.75,-374 1772.75,-374 1772.75,-374 1778.75,-374 1784.75,-380 1784.75,-386 1784.75,-386 1784.75,-720 1784.75,-720 1784.75,-726 1778.75,-732 1772.75,-732 1772.75,-732 1416.75,-732 1416.75,-732 1410.75,-732 1404.75,-726 1404.75,-720 1404.75,-720 1404.75,-386 1404.75,-386 1404.75,-380 1410.75,-374 1416.75,-374"/>
<text text-anchor="middle" x="1594.75" y="-719.45" font-family="Helvetica,sans-Serif" font-weight="bold" font-size="9.00">shared</text>
</g>
<g id="clust31" class="cluster">
<title>cluster_src/shared/api</title>
<path fill="#ffffff" stroke="black" stroke-width="2" d="M1424.75,-382C1424.75,-382 1764.75,-382 1764.75,-382 1770.75,-382 1776.75,-388 1776.75,-394 1776.75,-394 1776.75,-604 1776.75,-604 1776.75,-610 1770.75,-616 1764.75,-616 1764.75,-616 1424.75,-616 1424.75,-616 1418.75,-616 1412.75,-610 1412.75,-604 1412.75,-604 1412.75,-394 1412.75,-394 1412.75,-388 1418.75,-382 1424.75,-382"/>
<text text-anchor="middle" x="1594.75" y="-603.45" font-family="Helvetica,sans-Serif" font-weight="bold" font-size="9.00">api</text>
</g>
<g id="clust32" class="cluster">
<title>cluster_src/shared/api/base</title>
<path fill="#ffffff" stroke="black" stroke-width="2" d="M1432.75,-390C1432.75,-390 1756.75,-390 1756.75,-390 1762.75,-390 1768.75,-396 1768.75,-402 1768.75,-402 1768.75,-488 1768.75,-488 1768.75,-494 1762.75,-500 1756.75,-500 1756.75,-500 1432.75,-500 1432.75,-500 1426.75,-500 1420.75,-494 1420.75,-488 1420.75,-488 1420.75,-402 1420.75,-402 1420.75,-396 1426.75,-390 1432.75,-390"/>
<text text-anchor="middle" x="1594.75" y="-487.45" font-family="Helvetica,sans-Serif" font-weight="bold" font-size="9.00">base</text>
</g>
<g id="clust33" class="cluster">
<title>cluster_src/shared/api/pokemon</title>
<path fill="#ffffff" stroke="black" stroke-width="2" d="M1432.75,-508C1432.75,-508 1591.75,-508 1591.75,-508 1597.75,-508 1603.75,-514 1603.75,-520 1603.75,-520 1603.75,-578 1603.75,-578 1603.75,-584 1597.75,-590 1591.75,-590 1591.75,-590 1432.75,-590 1432.75,-590 1426.75,-590 1420.75,-584 1420.75,-578 1420.75,-578 1420.75,-520 1420.75,-520 1420.75,-514 1426.75,-508 1432.75,-508"/>
<text text-anchor="middle" x="1512.25" y="-577.45" font-family="Helvetica,sans-Serif" font-weight="bold" font-size="9.00">pokemon</text>
</g>
<g id="clust34" class="cluster">
<title>cluster_src/shared/lib</title>
<path fill="#ffffff" stroke="black" stroke-width="2" d="M1710.75,-624C1710.75,-624 1756.75,-624 1756.75,-624 1762.75,-624 1768.75,-630 1768.75,-636 1768.75,-636 1768.75,-694 1768.75,-694 1768.75,-700 1762.75,-706 1756.75,-706 1756.75,-706 1710.75,-706 1710.75,-706 1704.75,-706 1698.75,-700 1698.75,-694 1698.75,-694 1698.75,-636 1698.75,-636 1698.75,-630 1704.75,-624 1710.75,-624"/>
<text text-anchor="middle" x="1733.75" y="-693.45" font-family="Helvetica,sans-Serif" font-weight="bold" font-size="9.00">lib</text>
</g>
<g id="clust35" class="cluster">
<title>cluster_src/shared/ui</title>
<path fill="#ffffff" stroke="black" stroke-width="2" d="M1432.75,-654C1432.75,-654 1478.75,-654 1478.75,-654 1484.75,-654 1490.75,-660 1490.75,-666 1490.75,-666 1490.75,-694 1490.75,-694 1490.75,-700 1484.75,-706 1478.75,-706 1478.75,-706 1432.75,-706 1432.75,-706 1426.75,-706 1420.75,-700 1420.75,-694 1420.75,-694 1420.75,-666 1420.75,-666 1420.75,-660 1426.75,-654 1432.75,-654"/>
<text text-anchor="middle" x="1455.75" y="-693.45" font-family="Helvetica,sans-Serif" font-weight="bold" font-size="9.00">ui</text>
</g>
<g id="clust36" class="cluster">
<title>cluster_src/widgets</title>
<path fill="#ffffff" stroke="black" stroke-width="2" d="M966.88,-16C966.88,-16 1384.62,-16 1384.62,-16 1390.62,-16 1396.62,-22 1396.62,-28 1396.62,-28 1396.62,-124 1396.62,-124 1396.62,-130 1390.62,-136 1384.62,-136 1384.62,-136 966.88,-136 966.88,-136 960.88,-136 954.88,-130 954.88,-124 954.88,-124 954.88,-28 954.88,-28 954.88,-22 960.88,-16 966.88,-16"/>
<text text-anchor="middle" x="1175.75" y="-123.45" font-family="Helvetica,sans-Serif" font-weight="bold" font-size="9.00">widgets</text>
</g>
<g id="clust37" class="cluster">
<title>cluster_src/widgets/LoginDialog</title>
<path fill="#ffffff" stroke="black" stroke-width="2" d="M974.88,-24C974.88,-24 1376.62,-24 1376.62,-24 1382.62,-24 1388.62,-30 1388.62,-36 1388.62,-36 1388.62,-98 1388.62,-98 1388.62,-104 1382.62,-110 1376.62,-110 1376.62,-110 974.88,-110 974.88,-110 968.88,-110 962.88,-104 962.88,-98 962.88,-98 962.88,-36 962.88,-36 962.88,-30 968.88,-24 974.88,-24"/>
<text text-anchor="middle" x="1175.75" y="-97.45" font-family="Helvetica,sans-Serif" font-weight="bold" font-size="9.00">LoginDialog</text>
</g>
<g id="clust38" class="cluster">
<title>cluster_src/widgets/LoginDialog/model</title>
<path fill="#ffffff" stroke="black" stroke-width="2" d="M1322.62,-32C1322.62,-32 1368.62,-32 1368.62,-32 1374.62,-32 1380.62,-38 1380.62,-44 1380.62,-44 1380.62,-72 1380.62,-72 1380.62,-78 1374.62,-84 1368.62,-84 1368.62,-84 1322.62,-84 1322.62,-84 1316.62,-84 1310.62,-78 1310.62,-72 1310.62,-72 1310.62,-44 1310.62,-44 1310.62,-38 1316.62,-32 1322.62,-32"/>
<text text-anchor="middle" x="1345.62" y="-71.45" font-family="Helvetica,sans-Serif" font-weight="bold" font-size="9.00">model</text>
</g>
<g id="clust39" class="cluster">
<title>cluster_src/widgets/LoginDialog/ui</title>
<path fill="#ffffff" stroke="black" stroke-width="2" d="M1074,-32C1074,-32 1288.25,-32 1288.25,-32 1294.25,-32 1300.25,-38 1300.25,-44 1300.25,-44 1300.25,-72 1300.25,-72 1300.25,-78 1294.25,-84 1288.25,-84 1288.25,-84 1074,-84 1074,-84 1068,-84 1062,-78 1062,-72 1062,-72 1062,-44 1062,-44 1062,-38 1068,-32 1074,-32"/>
<text text-anchor="middle" x="1181.12" y="-71.45" font-family="Helvetica,sans-Serif" font-weight="bold" font-size="9.00">ui</text>
</g>
<!-- src/app/entry.css -->
<g id="node1" class="node">
<title>src/app/entry.css</title>
<g id="a_node1"><a xlink:href="src/app/entry.css" xlink:title="entry.css">
<path fill="#ffffcc" stroke="black" d="M168.96,-216.88C168.96,-216.88 126.79,-216.88 126.79,-216.88 123.83,-216.88 120.88,-213.92 120.88,-210.96 120.88,-210.96 120.88,-205.04 120.88,-205.04 120.88,-202.08 123.83,-199.12 126.79,-199.12 126.79,-199.12 168.96,-199.12 168.96,-199.12 171.92,-199.12 174.88,-202.08 174.88,-205.04 174.88,-205.04 174.88,-210.96 174.88,-210.96 174.88,-213.92 171.92,-216.88 168.96,-216.88"/>
<text text-anchor="start" x="129.88" y="-204.32" font-family="Helvetica,sans-Serif" font-size="9.00">entry.css</text>
</a>
</g>
</g>
<!-- src/app/entry.tsx -->
<g id="node2" class="node">
<title>src/app/entry.tsx</title>
<g id="a_node2"><a xlink:href="src/app/entry.tsx" xlink:title="entry.tsx">
<path fill="#bbfeff" stroke="black" d="M72.08,-237.88C72.08,-237.88 29.92,-237.88 29.92,-237.88 26.96,-237.88 24,-234.92 24,-231.96 24,-231.96 24,-226.04 24,-226.04 24,-223.08 26.96,-220.12 29.92,-220.12 29.92,-220.12 72.08,-220.12 72.08,-220.12 75.04,-220.12 78,-223.08 78,-226.04 78,-226.04 78,-231.96 78,-231.96 78,-234.92 75.04,-237.88 72.08,-237.88"/>
<text text-anchor="start" x="34.12" y="-225.32" font-family="Helvetica,sans-Serif" font-size="9.00">entry.tsx</text>
</a>
</g>
</g>
<!-- src/app/entry.tsx&#45;&gt;src/app/entry.css -->
<g id="edge1" class="edge">
<title>src/app/entry.tsx&#45;&gt;src/app/entry.css</title>
<path fill="none" stroke="#000000" stroke-width="2" stroke-opacity="0.200000" d="M78.43,-223.15C88.81,-220.85 100.88,-218.18 111.96,-215.73"/>
<polygon fill="#000000" fill-opacity="0.200000" stroke="#000000" stroke-width="2" stroke-opacity="0.200000" points="112.23,-217.82 117.63,-214.47 111.32,-213.72 112.23,-217.82"/>
</g>
<!-- src/app/providers/router/RouterProvider.tsx -->
<g id="node3" class="node">
<title>src/app/providers/router/RouterProvider.tsx</title>
<g id="a_node3"><a xlink:href="src/app/providers/router/RouterProvider.tsx" xlink:title="RouterProvider.tsx">
<path fill="#bbfeff" stroke="black" d="M187.83,-258.88C187.83,-258.88 107.92,-258.88 107.92,-258.88 104.96,-258.88 102,-255.92 102,-252.96 102,-252.96 102,-247.04 102,-247.04 102,-244.08 104.96,-241.12 107.92,-241.12 107.92,-241.12 187.83,-241.12 187.83,-241.12 190.79,-241.12 193.75,-244.08 193.75,-247.04 193.75,-247.04 193.75,-252.96 193.75,-252.96 193.75,-255.92 190.79,-258.88 187.83,-258.88"/>
<text text-anchor="start" x="110" y="-246.32" font-family="Helvetica,sans-Serif" font-size="9.00">RouterProvider.tsx</text>
</a>
</g>
</g>
<!-- src/app/entry.tsx&#45;&gt;src/app/providers/router/RouterProvider.tsx -->
<g id="edge2" class="edge">
<title>src/app/entry.tsx&#45;&gt;src/app/providers/router/RouterProvider.tsx</title>
<path fill="none" stroke="#000000" stroke-width="2" stroke-opacity="0.200000" d="M78.35,-235.26C80.93,-235.85 83.51,-236.44 86,-237 88.6,-237.58 91.27,-238.18 93.97,-238.77"/>
<polygon fill="#000000" fill-opacity="0.200000" stroke="#000000" stroke-width="2" stroke-opacity="0.200000" points="93.36,-240.79 99.67,-240.02 94.26,-236.68 93.36,-240.79"/>
</g>
<!-- src/app/providers/layout/BaseLayoutProvider.tsx -->
<g id="node4" class="node">
<title>src/app/providers/layout/BaseLayoutProvider.tsx</title>
<g id="a_node4"><a xlink:href="src/app/providers/layout/BaseLayoutProvider.tsx" xlink:title="BaseLayoutProvider.tsx">
<path fill="#bbfeff" stroke="black" d="M324.58,-258.88C324.58,-258.88 223.67,-258.88 223.67,-258.88 220.71,-258.88 217.75,-255.92 217.75,-252.96 217.75,-252.96 217.75,-247.04 217.75,-247.04 217.75,-244.08 220.71,-241.12 223.67,-241.12 223.67,-241.12 324.58,-241.12 324.58,-241.12 327.54,-241.12 330.5,-244.08 330.5,-247.04 330.5,-247.04 330.5,-252.96 330.5,-252.96 330.5,-255.92 327.54,-258.88 324.58,-258.88"/>
<text text-anchor="start" x="225.75" y="-246.32" font-family="Helvetica,sans-Serif" font-size="9.00">BaseLayoutProvider.tsx</text>
</a>
</g>
</g>
<!-- src/app/providers/router/RouterProvider.tsx&#45;&gt;src/app/providers/layout/BaseLayoutProvider.tsx -->
<g id="edge5" class="edge">
<title>src/app/providers/router/RouterProvider.tsx&#45;&gt;src/app/providers/layout/BaseLayoutProvider.tsx</title>
<path fill="none" stroke="#000000" stroke-width="2" stroke-opacity="0.200000" d="M194.08,-250C198.85,-250 203.77,-250 208.7,-250"/>
<polygon fill="#000000" fill-opacity="0.200000" stroke="#000000" stroke-width="2" stroke-opacity="0.200000" points="208.55,-252.1 214.55,-250 208.55,-247.9 208.55,-252.1"/>
</g>
<!-- src/pages/home/index.ts -->
<g id="node7" class="node">
<title>src/pages/home/index.ts</title>
<g id="a_node7"><a xlink:href="src/pages/home/index.ts" xlink:title="index.ts">
<path fill="#ddfeff" stroke="black" d="M295.21,-491.88C295.21,-491.88 253.04,-491.88 253.04,-491.88 250.08,-491.88 247.12,-488.92 247.12,-485.96 247.12,-485.96 247.12,-480.04 247.12,-480.04 247.12,-477.08 250.08,-474.12 253.04,-474.12 253.04,-474.12 295.21,-474.12 295.21,-474.12 298.17,-474.12 301.12,-477.08 301.12,-480.04 301.12,-480.04 301.12,-485.96 301.12,-485.96 301.12,-488.92 298.17,-491.88 295.21,-491.88"/>
<text text-anchor="start" x="258.38" y="-479.32" font-family="Helvetica,sans-Serif" font-size="9.00">index.ts</text>
</a>
</g>
</g>
<!-- src/app/providers/router/RouterProvider.tsx&#45;&gt;src/pages/home/index.ts -->
<g id="edge6" class="edge">
<title>src/app/providers/router/RouterProvider.tsx&#45;&gt;src/pages/home/index.ts</title>
<path fill="none" stroke="#000000" stroke-width="2" stroke-opacity="0.200000" d="M149.27,-259.06C151.02,-289.41 160.45,-388.97 209.75,-449 217.39,-458.3 228.27,-465.42 238.86,-470.68"/>
<polygon fill="#000000" fill-opacity="0.200000" stroke="#000000" stroke-width="2" stroke-opacity="0.200000" points="237.76,-472.49 244.09,-473.08 239.51,-468.67 237.76,-472.49"/>
</g>
<!-- src/pages/profile/index.ts -->
<g id="node8" class="node">
<title>src/pages/profile/index.ts</title>
<g id="a_node8"><a xlink:href="src/pages/profile/index.ts" xlink:title="index.ts">
<path fill="#ddfeff" stroke="black" d="M295.21,-389.88C295.21,-389.88 253.04,-389.88 253.04,-389.88 250.08,-389.88 247.12,-386.92 247.12,-383.96 247.12,-383.96 247.12,-378.04 247.12,-378.04 247.12,-375.08 250.08,-372.12 253.04,-372.12 253.04,-372.12 295.21,-372.12 295.21,-372.12 298.17,-372.12 301.12,-375.08 301.12,-378.04 301.12,-378.04 301.12,-383.96 301.12,-383.96 301.12,-386.92 298.17,-389.88 295.21,-389.88"/>
<text text-anchor="start" x="258.38" y="-377.32" font-family="Helvetica,sans-Serif" font-size="9.00">index.ts</text>
</a>
</g>
</g>
<!-- src/app/providers/router/RouterProvider.tsx&#45;&gt;src/pages/profile/index.ts -->
<g id="edge7" class="edge">
<title>src/app/providers/router/RouterProvider.tsx&#45;&gt;src/pages/profile/index.ts</title>
<path fill="none" stroke="#000000" stroke-width="2" stroke-opacity="0.200000" d="M157.42,-259C178.34,-281.07 232.36,-338.02 258.51,-365.6"/>
<polygon fill="#000000" fill-opacity="0.200000" stroke="#000000" stroke-width="2" stroke-opacity="0.200000" points="256.79,-366.83 262.44,-369.74 259.84,-363.94 256.79,-366.83"/>
</g>
<!-- src/entities/session/index.ts -->
<g id="node5" class="node">
<title>src/entities/session/index.ts</title>
<g id="a_node5"><a xlink:href="src/entities/session/index.ts" xlink:title="index.ts">
<path fill="#ddfeff" stroke="black" d="M1145.58,-228.88C1145.58,-228.88 1103.42,-228.88 1103.42,-228.88 1100.46,-228.88 1097.5,-225.92 1097.5,-222.96 1097.5,-222.96 1097.5,-217.04 1097.5,-217.04 1097.5,-214.08 1100.46,-211.12 1103.42,-211.12 1103.42,-211.12 1145.58,-211.12 1145.58,-211.12 1148.54,-211.12 1151.5,-214.08 1151.5,-217.04 1151.5,-217.04 1151.5,-222.96 1151.5,-222.96 1151.5,-225.92 1148.54,-228.88 1145.58,-228.88"/>
<text text-anchor="start" x="1108.75" y="-216.32" font-family="Helvetica,sans-Serif" font-size="9.00">index.ts</text>
</a>
</g>
</g>
<!-- src/app/providers/layout/BaseLayoutProvider.tsx&#45;&gt;src/entities/session/index.ts -->
<g id="edge3" class="edge">
<title>src/app/providers/layout/BaseLayoutProvider.tsx&#45;&gt;src/entities/session/index.ts</title>
<path fill="none" stroke="#000000" stroke-width="2" stroke-opacity="0.200000" d="M330.86,-245.19C374.31,-241.85 436.2,-238 490.5,-238 490.5,-238 490.5,-238 874.12,-238 950.79,-238 1040.37,-229.43 1088.55,-224.12"/>
<polygon fill="#000000" fill-opacity="0.200000" stroke="#000000" stroke-width="2" stroke-opacity="0.200000" points="1088.6,-226.23 1094.33,-223.47 1088.13,-222.05 1088.6,-226.23"/>
</g>
<!-- src/widgets/LoginDialog/index.ts -->
<g id="node6" class="node">
<title>src/widgets/LoginDialog/index.ts</title>
<g id="a_node6"><a xlink:href="src/widgets/LoginDialog/index.ts" xlink:title="index.ts">
<path fill="#ddfeff" stroke="black" d="M1018.96,-70.88C1018.96,-70.88 976.79,-70.88 976.79,-70.88 973.83,-70.88 970.88,-67.92 970.88,-64.96 970.88,-64.96 970.88,-59.04 970.88,-59.04 970.88,-56.08 973.83,-53.12 976.79,-53.12 976.79,-53.12 1018.96,-53.12 1018.96,-53.12 1021.92,-53.12 1024.88,-56.08 1024.88,-59.04 1024.88,-59.04 1024.88,-64.96 1024.88,-64.96 1024.88,-67.92 1021.92,-70.88 1018.96,-70.88"/>
<text text-anchor="start" x="982.12" y="-58.33" font-family="Helvetica,sans-Serif" font-size="9.00">index.ts</text>
</a>
</g>
</g>
<!-- src/app/providers/layout/BaseLayoutProvider.tsx&#45;&gt;src/widgets/LoginDialog/index.ts -->
<g id="edge4" class="edge">
<title>src/app/providers/layout/BaseLayoutProvider.tsx&#45;&gt;src/widgets/LoginDialog/index.ts</title>
<path fill="none" stroke="#000000" stroke-width="2" stroke-opacity="0.200000" d="M281.36,-240.95C304.7,-208.22 390.73,-98 490.5,-98 490.5,-98 490.5,-98 722.5,-98 809.06,-98 909.7,-80.17 961.71,-69.6"/>
<polygon fill="#000000" fill-opacity="0.200000" stroke="#000000" stroke-width="2" stroke-opacity="0.200000" points="962.12,-71.66 967.57,-68.39 961.27,-67.55 962.12,-71.66"/>
</g>
<!-- src/entities/session/model/actions.ts -->
<g id="node17" class="node">
<title>src/entities/session/model/actions.ts</title>
<g id="a_node17"><a xlink:href="src/entities/session/model/actions.ts" xlink:title="actions.ts">
<path fill="#ddfeff" stroke="black" d="M1366.83,-215.88C1366.83,-215.88 1324.42,-215.88 1324.42,-215.88 1321.46,-215.88 1318.5,-212.92 1318.5,-209.96 1318.5,-209.96 1318.5,-204.04 1318.5,-204.04 1318.5,-201.08 1321.46,-198.12 1324.42,-198.12 1324.42,-198.12 1366.83,-198.12 1366.83,-198.12 1369.79,-198.12 1372.75,-201.08 1372.75,-204.04 1372.75,-204.04 1372.75,-209.96 1372.75,-209.96 1372.75,-212.92 1369.79,-215.88 1366.83,-215.88"/>
<text text-anchor="start" x="1326.5" y="-203.32" font-family="Helvetica,sans-Serif" font-size="9.00">actions.ts</text>
</a>
</g>
</g>
<!-- src/entities/session/index.ts&#45;&gt;src/entities/session/model/actions.ts -->
<g id="edge17" class="edge">
<title>src/entities/session/index.ts&#45;&gt;src/entities/session/model/actions.ts</title>
<path fill="none" stroke="#000000" stroke-width="2" stroke-opacity="0.200000" d="M1141.63,-210.76C1156.74,-202.67 1180.23,-191.53 1202.25,-187 1245.89,-178.02 1259.67,-174.72 1302.5,-187 1306.53,-188.16 1306.79,-190.04 1310.5,-192 1312.27,-192.94 1314.11,-193.86 1315.98,-194.77"/>
<polygon fill="#000000" fill-opacity="0.200000" stroke="#000000" stroke-width="2" stroke-opacity="0.200000" points="1320.58,-199.25 1316.04,-194.8 1322.36,-195.45 1320.58,-199.25"/>
</g>
<!-- src/entities/session/model/store.ts -->
<g id="node18" class="node">
<title>src/entities/session/model/store.ts</title>
<g id="a_node18"><a xlink:href="src/entities/session/model/store.ts" xlink:title="store.ts">
<path fill="#ddfeff" stroke="black" d="M1366.71,-185.88C1366.71,-185.88 1324.54,-185.88 1324.54,-185.88 1321.58,-185.88 1318.62,-182.92 1318.62,-179.96 1318.62,-179.96 1318.62,-174.04 1318.62,-174.04 1318.62,-171.08 1321.58,-168.12 1324.54,-168.12 1324.54,-168.12 1366.71,-168.12 1366.71,-168.12 1369.67,-168.12 1372.62,-171.08 1372.62,-174.04 1372.62,-174.04 1372.62,-179.96 1372.62,-179.96 1372.62,-182.92 1369.67,-185.88 1366.71,-185.88"/>
<text text-anchor="start" x="1331" y="-173.32" font-family="Helvetica,sans-Serif" font-size="9.00">store.ts</text>
</a>
</g>
</g>
<!-- src/entities/session/index.ts&#45;&gt;src/entities/session/model/store.ts -->
<g id="edge18" class="edge">
<title>src/entities/session/index.ts&#45;&gt;src/entities/session/model/store.ts</title>
<path fill="none" stroke="#000000" stroke-width="2" stroke-opacity="0.200000" d="M1136.59,-210.89C1150.78,-199.88 1176.61,-181.96 1202.25,-175 1238.69,-165.1 1282.34,-167.73 1311.61,-171.46"/>
<polygon fill="#000000" fill-opacity="0.200000" stroke="#000000" stroke-width="2" stroke-opacity="0.200000" points="1317.09,-174.32 1311.43,-171.43 1317.66,-170.15 1317.09,-174.32"/>
</g>
<!-- src/entities/session/ui/LogoutButton.tsx -->
<g id="node19" class="node">
<title>src/entities/session/ui/LogoutButton.tsx</title>
<g id="a_node19"><a xlink:href="src/entities/session/ui/LogoutButton.tsx" xlink:title="LogoutButton.tsx">
<path fill="#bbfeff" stroke="black" d="M1288.58,-215.88C1288.58,-215.88 1216.17,-215.88 1216.17,-215.88 1213.21,-215.88 1210.25,-212.92 1210.25,-209.96 1210.25,-209.96 1210.25,-204.04 1210.25,-204.04 1210.25,-201.08 1213.21,-198.12 1216.17,-198.12 1216.17,-198.12 1288.58,-198.12 1288.58,-198.12 1291.54,-198.12 1294.5,-201.08 1294.5,-204.04 1294.5,-204.04 1294.5,-209.96 1294.5,-209.96 1294.5,-212.92 1291.54,-215.88 1288.58,-215.88"/>
<text text-anchor="start" x="1218.25" y="-203.32" font-family="Helvetica,sans-Serif" font-size="9.00">LogoutButton.tsx</text>
</a>
</g>
</g>
<!-- src/entities/session/index.ts&#45;&gt;src/entities/session/ui/LogoutButton.tsx -->
<g id="edge19" class="edge">
<title>src/entities/session/index.ts&#45;&gt;src/entities/session/ui/LogoutButton.tsx</title>
<path fill="none" stroke="#000000" stroke-width="2" stroke-opacity="0.200000" d="M1151.89,-217.27C1166.78,-215.74 1185.85,-213.77 1203.3,-211.96"/>
<polygon fill="#000000" fill-opacity="0.200000" stroke="#000000" stroke-width="2" stroke-opacity="0.200000" points="1209.38,-213.45 1203.19,-211.98 1208.94,-209.27 1209.38,-213.45"/>
</g>
<!-- src/widgets/LoginDialog/ui/LoginDialogTrigger.tsx -->
<g id="node43" class="node">
<title>src/widgets/LoginDialog/ui/LoginDialogTrigger.tsx</title>
<g id="a_node43"><a xlink:href="src/widgets/LoginDialog/ui/LoginDialogTrigger.tsx" xlink:title="LoginDialogTrigger.tsx">
<path fill="#bbfeff" stroke="black" d="M1173.08,-57.88C1173.08,-57.88 1075.92,-57.88 1075.92,-57.88 1072.96,-57.88 1070,-54.92 1070,-51.96 1070,-51.96 1070,-46.04 1070,-46.04 1070,-43.08 1072.96,-40.12 1075.92,-40.12 1075.92,-40.12 1173.08,-40.12 1173.08,-40.12 1176.04,-40.12 1179,-43.08 1179,-46.04 1179,-46.04 1179,-51.96 1179,-51.96 1179,-54.92 1176.04,-57.88 1173.08,-57.88"/>
<text text-anchor="start" x="1078" y="-45.33" font-family="Helvetica,sans-Serif" font-size="9.00">LoginDialogTrigger.tsx</text>
</a>
</g>
</g>
<!-- src/widgets/LoginDialog/index.ts&#45;&gt;src/widgets/LoginDialog/ui/LoginDialogTrigger.tsx -->
<g id="edge58" class="edge">
<title>src/widgets/LoginDialog/index.ts&#45;&gt;src/widgets/LoginDialog/ui/LoginDialogTrigger.tsx</title>
<path fill="none" stroke="#000000" stroke-width="2" stroke-opacity="0.200000" d="M1025.3,-59.24C1036.32,-58.09 1049.6,-56.71 1062.78,-55.33"/>
<polygon fill="#000000" fill-opacity="0.200000" stroke="#000000" stroke-width="2" stroke-opacity="0.200000" points="1068.88,-56.81 1062.7,-55.34 1068.45,-52.63 1068.88,-56.81"/>
</g>
<!-- src/pages/home/ui/Page.tsx -->
<g id="node32" class="node">
<title>src/pages/home/ui/Page.tsx</title>
<g id="a_node32"><a xlink:href="src/pages/home/ui/Page.tsx" xlink:title="Page.tsx">
<path fill="#bbfeff" stroke="black" d="M418.58,-503.88C418.58,-503.88 376.42,-503.88 376.42,-503.88 373.46,-503.88 370.5,-500.92 370.5,-497.96 370.5,-497.96 370.5,-492.04 370.5,-492.04 370.5,-489.08 373.46,-486.12 376.42,-486.12 376.42,-486.12 418.58,-486.12 418.58,-486.12 421.54,-486.12 424.5,-489.08 424.5,-492.04 424.5,-492.04 424.5,-497.96 424.5,-497.96 424.5,-500.92 421.54,-503.88 418.58,-503.88"/>
<text text-anchor="start" x="379.88" y="-491.32" font-family="Helvetica,sans-Serif" font-size="9.00">Page.tsx</text>
</a>
</g>
</g>
<!-- src/pages/home/index.ts&#45;&gt;src/pages/home/ui/Page.tsx -->
<g id="edge40" class="edge">
<title>src/pages/home/index.ts&#45;&gt;src/pages/home/ui/Page.tsx</title>
<path fill="none" stroke="#000000" stroke-width="2" stroke-opacity="0.200000" d="M301.46,-485.6C319.59,-487.4 343.83,-489.79 363.28,-491.72"/>
<polygon fill="#000000" fill-opacity="0.200000" stroke="#000000" stroke-width="2" stroke-opacity="0.200000" points="369.01,-494.39 363.25,-491.71 369.43,-490.21 369.01,-494.39"/>
</g>
<!-- src/pages/profile/ui/Page.tsx -->
<g id="node33" class="node">
<title>src/pages/profile/ui/Page.tsx</title>
<g id="a_node33"><a xlink:href="src/pages/profile/ui/Page.tsx" xlink:title="Page.tsx">
<path fill="#bbfeff" stroke="black" d="M418.58,-393.88C418.58,-393.88 376.42,-393.88 376.42,-393.88 373.46,-393.88 370.5,-390.92 370.5,-387.96 370.5,-387.96 370.5,-382.04 370.5,-382.04 370.5,-379.08 373.46,-376.12 376.42,-376.12 376.42,-376.12 418.58,-376.12 418.58,-376.12 421.54,-376.12 424.5,-379.08 424.5,-382.04 424.5,-382.04 424.5,-387.96 424.5,-387.96 424.5,-390.92 421.54,-393.88 418.58,-393.88"/>
<text text-anchor="start" x="379.88" y="-381.32" font-family="Helvetica,sans-Serif" font-size="9.00">Page.tsx</text>
</a>
</g>
</g>
<!-- src/pages/profile/index.ts&#45;&gt;src/pages/profile/ui/Page.tsx -->
<g id="edge43" class="edge">
<title>src/pages/profile/index.ts&#45;&gt;src/pages/profile/ui/Page.tsx</title>
<path fill="none" stroke="#000000" stroke-width="2" stroke-opacity="0.200000" d="M301.46,-381.87C319.59,-382.47 343.83,-383.26 363.28,-383.91"/>
<polygon fill="#000000" fill-opacity="0.200000" stroke="#000000" stroke-width="2" stroke-opacity="0.200000" points="369.15,-386.2 363.22,-383.9 369.28,-382 369.15,-386.2"/>
</g>
<!-- src/entities/pokemon/api/queryPokemonById.ts -->
<g id="node9" class="node">
<title>src/entities/pokemon/api/queryPokemonById.ts</title>
<g id="a_node9"><a xlink:href="src/entities/pokemon/api/queryPokemonById.ts" xlink:title="queryPokemonById.ts">
<path fill="#ddfeff" stroke="black" d="M919.83,-605.88C919.83,-605.88 826.42,-605.88 826.42,-605.88 823.46,-605.88 820.5,-602.92 820.5,-599.96 820.5,-599.96 820.5,-594.04 820.5,-594.04 820.5,-591.08 823.46,-588.12 826.42,-588.12 826.42,-588.12 919.83,-588.12 919.83,-588.12 922.79,-588.12 925.75,-591.08 925.75,-594.04 925.75,-594.04 925.75,-599.96 925.75,-599.96 925.75,-602.92 922.79,-605.88 919.83,-605.88"/>
<text text-anchor="start" x="828.5" y="-593.33" font-family="Helvetica,sans-Serif" font-size="9.00">queryPokemonById.ts</text>
</a>
</g>
</g>
<!-- src/entities/pokemon/lib/mapPokemonDto.ts -->
<g id="node10" class="node">
<title>src/entities/pokemon/lib/mapPokemonDto.ts</title>
<g id="a_node10"><a xlink:href="src/entities/pokemon/lib/mapPokemonDto.ts" xlink:title="mapPokemonDto.ts">
<path fill="#ddfeff" stroke="black" d="M1040.08,-613.88C1040.08,-613.88 955.67,-613.88 955.67,-613.88 952.71,-613.88 949.75,-610.92 949.75,-607.96 949.75,-607.96 949.75,-602.04 949.75,-602.04 949.75,-599.08 952.71,-596.12 955.67,-596.12 955.67,-596.12 1040.08,-596.12 1040.08,-596.12 1043.04,-596.12 1046,-599.08 1046,-602.04 1046,-602.04 1046,-607.96 1046,-607.96 1046,-610.92 1043.04,-613.88 1040.08,-613.88"/>
<text text-anchor="start" x="957.75" y="-601.33" font-family="Helvetica,sans-Serif" font-size="9.00">mapPokemonDto.ts</text>
</a>
</g>
</g>
<!-- src/entities/pokemon/api/queryPokemonById.ts&#45;&gt;src/entities/pokemon/lib/mapPokemonDto.ts -->
<g id="edge8" class="edge">
<title>src/entities/pokemon/api/queryPokemonById.ts&#45;&gt;src/entities/pokemon/lib/mapPokemonDto.ts</title>
<path fill="none" stroke="#000000" stroke-width="2" stroke-opacity="0.200000" d="M926.18,-600.39C931,-600.71 935.9,-601.03 940.75,-601.34"/>
<polygon fill="#000000" fill-opacity="0.200000" stroke="#000000" stroke-width="2" stroke-opacity="0.200000" points="940.27,-603.42 946.39,-601.71 940.54,-599.22 940.27,-603.42"/>
</g>
<!-- src/shared/api/pokemon/index.ts -->
<g id="node11" class="node">
<title>src/shared/api/pokemon/index.ts</title>
<g id="a_node11"><a xlink:href="src/shared/api/pokemon/index.ts" xlink:title="index.ts">
<path fill="#ddfeff" stroke="black" d="M1476.83,-563.88C1476.83,-563.88 1434.67,-563.88 1434.67,-563.88 1431.71,-563.88 1428.75,-560.92 1428.75,-557.96 1428.75,-557.96 1428.75,-552.04 1428.75,-552.04 1428.75,-549.08 1431.71,-546.12 1434.67,-546.12 1434.67,-546.12 1476.83,-546.12 1476.83,-546.12 1479.79,-546.12 1482.75,-549.08 1482.75,-552.04 1482.75,-552.04 1482.75,-557.96 1482.75,-557.96 1482.75,-560.92 1479.79,-563.88 1476.83,-563.88"/>
<text text-anchor="start" x="1440" y="-551.33" font-family="Helvetica,sans-Serif" font-size="9.00">index.ts</text>
</a>
</g>
</g>
<!-- src/entities/pokemon/api/queryPokemonById.ts&#45;&gt;src/shared/api/pokemon/index.ts -->
<g id="edge9" class="edge">
<title>src/entities/pokemon/api/queryPokemonById.ts&#45;&gt;src/shared/api/pokemon/index.ts</title>
<path fill="none" stroke="#000000" stroke-width="2" stroke-opacity="0.200000" d="M884.21,-606.02C916.48,-633.93 1021.16,-717 1123.5,-717 1123.5,-717 1123.5,-717 1253.38,-717 1317.4,-717 1350.24,-747 1396.75,-703 1405.24,-694.96 1401.11,-662.11 1404.75,-651 1414.33,-621.73 1432.14,-590.59 1443.71,-571.97"/>
<polygon fill="#000000" fill-opacity="0.200000" stroke="#000000" stroke-width="2" stroke-opacity="0.200000" points="1445.48,-573.1 1446.92,-566.91 1441.94,-570.85 1445.48,-573.1"/>
</g>
<!-- src/entities/pokemon/lib/mapPokemonDto.ts&#45;&gt;src/shared/api/pokemon/index.ts -->
<g id="edge14" class="edge">
<title>src/entities/pokemon/lib/mapPokemonDto.ts&#45;&gt;src/shared/api/pokemon/index.ts</title>
<path fill="none" stroke="#000000" stroke-opacity="0.200000" d="M1002.14,-614.17C1009.43,-633.09 1029.05,-676.08 1062,-693 1095.09,-709.99 1368.09,-716.71 1396.75,-693 1411.39,-680.89 1398.52,-668.95 1404.75,-651 1415.18,-620.96 1433.67,-588.69 1445,-570.26"/>
<polygon fill="none" stroke="#000000" stroke-opacity="0.200000" points="1446.63,-571.61 1448.03,-565.41 1443.07,-569.39 1446.63,-571.61"/>
</g>
<!-- src/entities/pokemon/model/types.ts -->
<g id="node16" class="node">
<title>src/entities/pokemon/model/types.ts</title>
<g id="a_node16"><a xlink:href="src/entities/pokemon/model/types.ts" xlink:title="types.ts">
<path fill="#ddfeff" stroke="black" d="M1145.58,-493.88C1145.58,-493.88 1103.42,-493.88 1103.42,-493.88 1100.46,-493.88 1097.5,-490.92 1097.5,-487.96 1097.5,-487.96 1097.5,-482.04 1097.5,-482.04 1097.5,-479.08 1100.46,-476.12 1103.42,-476.12 1103.42,-476.12 1145.58,-476.12 1145.58,-476.12 1148.54,-476.12 1151.5,-479.08 1151.5,-482.04 1151.5,-482.04 1151.5,-487.96 1151.5,-487.96 1151.5,-490.92 1148.54,-493.88 1145.58,-493.88"/>
<text text-anchor="start" x="1109.12" y="-481.32" font-family="Helvetica,sans-Serif" font-size="9.00">types.ts</text>
</a>
</g>
</g>
<!-- src/entities/pokemon/lib/mapPokemonDto.ts&#45;&gt;src/entities/pokemon/model/types.ts -->
<g id="edge13" class="edge">
<title>src/entities/pokemon/lib/mapPokemonDto.ts&#45;&gt;src/entities/pokemon/model/types.ts</title>
<path fill="none" stroke="#000000" stroke-opacity="0.200000" d="M1037.41,-595.76C1043.77,-592.66 1049.68,-588.52 1054,-583 1070.04,-562.51 1048.05,-546.97 1062,-525 1069.49,-513.21 1081.85,-504.17 1093.53,-497.7"/>
<polygon fill="none" stroke="#000000" stroke-opacity="0.200000" points="1094.23,-499.71 1098.58,-495.07 1092.29,-495.99 1094.23,-499.71"/>
</g>
<!-- src/shared/api/pokemon/fetchPokemonApi.ts -->
<g id="node40" class="node">
<title>src/shared/api/pokemon/fetchPokemonApi.ts</title>
<g id="a_node40"><a xlink:href="src/shared/api/pokemon/fetchPokemonApi.ts" xlink:title="fetchPokemonApi.ts">
<path fill="#ddfeff" stroke="black" d="M1589.83,-563.88C1589.83,-563.88 1504.67,-563.88 1504.67,-563.88 1501.71,-563.88 1498.75,-560.92 1498.75,-557.96 1498.75,-557.96 1498.75,-552.04 1498.75,-552.04 1498.75,-549.08 1501.71,-546.12 1504.67,-546.12 1504.67,-546.12 1589.83,-546.12 1589.83,-546.12 1592.79,-546.12 1595.75,-549.08 1595.75,-552.04 1595.75,-552.04 1595.75,-557.96 1595.75,-557.96 1595.75,-560.92 1592.79,-563.88 1589.83,-563.88"/>
<text text-anchor="start" x="1506.75" y="-551.33" font-family="Helvetica,sans-Serif" font-size="9.00">fetchPokemonApi.ts</text>
</a>
</g>
</g>
<!-- src/shared/api/pokemon/index.ts&#45;&gt;src/shared/api/pokemon/fetchPokemonApi.ts -->
<g id="edge56" class="edge">
<title>src/shared/api/pokemon/index.ts&#45;&gt;src/shared/api/pokemon/fetchPokemonApi.ts</title>
<path fill="none" stroke="#000000" stroke-width="2" stroke-opacity="0.200000" d="M1483.12,-555C1485.85,-555 1488.68,-555 1491.58,-555"/>
<polygon fill="#000000" fill-opacity="0.200000" stroke="#000000" stroke-width="2" stroke-opacity="0.200000" points="1497.41,-557.1 1491.41,-555 1497.41,-552.9 1497.41,-557.1"/>
</g>
<!-- src/shared/api/pokemon/types.ts -->
<g id="node41" class="node">
<title>src/shared/api/pokemon/types.ts</title>
<g id="a_node41"><a xlink:href="src/shared/api/pokemon/types.ts" xlink:title="types.ts">
<path fill="#ddfeff" stroke="black" d="M1568.33,-533.88C1568.33,-533.88 1526.17,-533.88 1526.17,-533.88 1523.21,-533.88 1520.25,-530.92 1520.25,-527.96 1520.25,-527.96 1520.25,-522.04 1520.25,-522.04 1520.25,-519.08 1523.21,-516.12 1526.17,-516.12 1526.17,-516.12 1568.33,-516.12 1568.33,-516.12 1571.29,-516.12 1574.25,-519.08 1574.25,-522.04 1574.25,-522.04 1574.25,-527.96 1574.25,-527.96 1574.25,-530.92 1571.29,-533.88 1568.33,-533.88"/>
<text text-anchor="start" x="1531.88" y="-521.33" font-family="Helvetica,sans-Serif" font-size="9.00">types.ts</text>
</a>
</g>
</g>
<!-- src/shared/api/pokemon/index.ts&#45;&gt;src/shared/api/pokemon/types.ts -->
<g id="edge57" class="edge">
<title>src/shared/api/pokemon/index.ts&#45;&gt;src/shared/api/pokemon/types.ts</title>
<path fill="none" stroke="#000000" stroke-opacity="0.200000" d="M1482.46,-545.65C1487.83,-543.74 1493.47,-541.78 1498.75,-540 1503.38,-538.44 1508.27,-536.85 1513.09,-535.3"/>
<polygon fill="none" stroke="#000000" stroke-opacity="0.200000" points="1513.54,-537.36 1518.62,-533.54 1512.26,-533.36 1513.54,-537.36"/>
</g>
<!-- src/entities/pokemon/index.ts -->
<g id="node12" class="node">
<title>src/entities/pokemon/index.ts</title>
<g id="a_node12"><a xlink:href="src/entities/pokemon/index.ts" xlink:title="index.ts">
<path fill="#ddfeff" stroke="black" d="M894.21,-562.88C894.21,-562.88 852.04,-562.88 852.04,-562.88 849.08,-562.88 846.12,-559.92 846.12,-556.96 846.12,-556.96 846.12,-551.04 846.12,-551.04 846.12,-548.08 849.08,-545.12 852.04,-545.12 852.04,-545.12 894.21,-545.12 894.21,-545.12 897.17,-545.12 900.12,-548.08 900.12,-551.04 900.12,-551.04 900.12,-556.96 900.12,-556.96 900.12,-559.92 897.17,-562.88 894.21,-562.88"/>
<text text-anchor="start" x="857.38" y="-550.33" font-family="Helvetica,sans-Serif" font-size="9.00">index.ts</text>
</a>
</g>
</g>
<!-- src/entities/pokemon/model/consts.ts -->
<g id="node13" class="node">
<title>src/entities/pokemon/model/consts.ts</title>
<g id="a_node13"><a xlink:href="src/entities/pokemon/model/consts.ts" xlink:title="consts.ts">
<path fill="#ddfeff" stroke="black" d="M1145.58,-463.88C1145.58,-463.88 1103.42,-463.88 1103.42,-463.88 1100.46,-463.88 1097.5,-460.92 1097.5,-457.96 1097.5,-457.96 1097.5,-452.04 1097.5,-452.04 1097.5,-449.08 1100.46,-446.12 1103.42,-446.12 1103.42,-446.12 1145.58,-446.12 1145.58,-446.12 1148.54,-446.12 1151.5,-449.08 1151.5,-452.04 1151.5,-452.04 1151.5,-457.96 1151.5,-457.96 1151.5,-460.92 1148.54,-463.88 1145.58,-463.88"/>
<text text-anchor="start" x="1106.88" y="-451.32" font-family="Helvetica,sans-Serif" font-size="9.00">consts.ts</text>
</a>
</g>
</g>
<!-- src/entities/pokemon/index.ts&#45;&gt;src/entities/pokemon/model/consts.ts -->
<g id="edge10" class="edge">
<title>src/entities/pokemon/index.ts&#45;&gt;src/entities/pokemon/model/consts.ts</title>
<path fill="none" stroke="#000000" stroke-width="2" stroke-opacity="0.200000" d="M892.08,-544.65C925.01,-527.8 997.61,-492.05 1062,-470 1071.03,-466.91 1081.01,-464.19 1090.26,-461.94"/>
<polygon fill="#000000" fill-opacity="0.200000" stroke="#000000" stroke-width="2" stroke-opacity="0.200000" points="1096.67,-462.59 1090.35,-461.92 1095.71,-458.5 1096.67,-462.59"/>
</g>
<!-- src/entities/pokemon/ui/PokemonCard.tsx -->
<g id="node14" class="node">
<title>src/entities/pokemon/ui/PokemonCard.tsx</title>
<g id="a_node14"><a xlink:href="src/entities/pokemon/ui/PokemonCard.tsx" xlink:title="PokemonCard.tsx">
<path fill="#bbfeff" stroke="black" d="M1036.33,-553.88C1036.33,-553.88 959.42,-553.88 959.42,-553.88 956.46,-553.88 953.5,-550.92 953.5,-547.96 953.5,-547.96 953.5,-542.04 953.5,-542.04 953.5,-539.08 956.46,-536.12 959.42,-536.12 959.42,-536.12 1036.33,-536.12 1036.33,-536.12 1039.29,-536.12 1042.25,-539.08 1042.25,-542.04 1042.25,-542.04 1042.25,-547.96 1042.25,-547.96 1042.25,-550.92 1039.29,-553.88 1036.33,-553.88"/>
<text text-anchor="start" x="961.5" y="-541.33" font-family="Helvetica,sans-Serif" font-size="9.00">PokemonCard.tsx</text>
</a>
</g>
</g>
<!-- src/entities/pokemon/index.ts&#45;&gt;src/entities/pokemon/ui/PokemonCard.tsx -->
<g id="edge11" class="edge">
<title>src/entities/pokemon/index.ts&#45;&gt;src/entities/pokemon/ui/PokemonCard.tsx</title>
<path fill="none" stroke="#000000" stroke-width="2" stroke-opacity="0.200000" d="M900.46,-552.07C913.78,-551.09 930.4,-549.87 946.08,-548.72"/>
<polygon fill="#000000" fill-opacity="0.200000" stroke="#000000" stroke-width="2" stroke-opacity="0.200000" points="952.36,-550.37 946.22,-548.71 952.05,-546.18 952.36,-550.37"/>
</g>
<!-- src/entities/pokemon/ui/PokemonCardStub.tsx -->
<g id="node15" class="node">
<title>src/entities/pokemon/ui/PokemonCardStub.tsx</title>
<g id="a_node15"><a xlink:href="src/entities/pokemon/ui/PokemonCardStub.tsx" xlink:title="PokemonCardStub.tsx">
<path fill="#bbfeff" stroke="black" d="M1172.33,-553.88C1172.33,-553.88 1076.67,-553.88 1076.67,-553.88 1073.71,-553.88 1070.75,-550.92 1070.75,-547.96 1070.75,-547.96 1070.75,-542.04 1070.75,-542.04 1070.75,-539.08 1073.71,-536.12 1076.67,-536.12 1076.67,-536.12 1172.33,-536.12 1172.33,-536.12 1175.29,-536.12 1178.25,-539.08 1178.25,-542.04 1178.25,-542.04 1178.25,-547.96 1178.25,-547.96 1178.25,-550.92 1175.29,-553.88 1172.33,-553.88"/>
<text text-anchor="start" x="1078.75" y="-541.33" font-family="Helvetica,sans-Serif" font-size="9.00">PokemonCardStub.tsx</text>
</a>
</g>
</g>
<!-- src/entities/pokemon/index.ts&#45;&gt;src/entities/pokemon/ui/PokemonCardStub.tsx -->
<g id="edge12" class="edge">
<title>src/entities/pokemon/index.ts&#45;&gt;src/entities/pokemon/ui/PokemonCardStub.tsx</title>
<path fill="none" stroke="#000000" stroke-width="2" stroke-opacity="0.200000" d="M900.42,-557.16C935.54,-560.87 999.63,-565.8 1054,-560 1062.62,-559.08 1071.74,-557.54 1080.44,-555.78"/>
<polygon fill="#000000" fill-opacity="0.200000" stroke="#000000" stroke-width="2" stroke-opacity="0.200000" points="1086.76,-556.59 1080.46,-555.78 1085.89,-552.48 1086.76,-556.59"/>
</g>
<!-- src/entities/pokemon/ui/PokemonCard.tsx&#45;&gt;src/entities/pokemon/ui/PokemonCardStub.tsx -->
<g id="edge16" class="edge">
<title>src/entities/pokemon/ui/PokemonCard.tsx&#45;&gt;src/entities/pokemon/ui/PokemonCardStub.tsx</title>
<path fill="none" stroke="#000000" stroke-width="2" stroke-opacity="0.200000" d="M1042.46,-545C1048.64,-545 1055.09,-545 1061.53,-545"/>
<polygon fill="#000000" fill-opacity="0.200000" stroke="#000000" stroke-width="2" stroke-opacity="0.200000" points="1061.26,-547.1 1067.26,-545 1061.26,-542.9 1061.26,-547.1"/>
</g>
<!-- src/entities/pokemon/ui/PokemonCard.tsx&#45;&gt;src/entities/pokemon/model/types.ts -->
<g id="edge15" class="edge">
<title>src/entities/pokemon/ui/PokemonCard.tsx&#45;&gt;src/entities/pokemon/model/types.ts</title>
<path fill="none" stroke="#000000" stroke-opacity="0.200000" d="M1042.63,-536.8C1046.56,-535.43 1050.42,-533.84 1054,-532 1058.2,-529.84 1058.23,-527.85 1062,-525 1074.68,-515.4 1089.63,-505.65 1101.61,-498.18"/>
<polygon fill="none" stroke="#000000" stroke-opacity="0.200000" points="1102.64,-500.01 1106.64,-495.07 1100.43,-496.44 1102.64,-500.01"/>
</g>
<!-- src/shared/api/base/index.ts -->
<g id="node20" class="node">
<title>src/shared/api/base/index.ts</title>
<g id="a_node20"><a xlink:href="src/shared/api/base/index.ts" xlink:title="index.ts">
<path fill="#ddfeff" stroke="black" d="M1476.83,-421.88C1476.83,-421.88 1434.67,-421.88 1434.67,-421.88 1431.71,-421.88 1428.75,-418.92 1428.75,-415.96 1428.75,-415.96 1428.75,-410.04 1428.75,-410.04 1428.75,-407.08 1431.71,-404.12 1434.67,-404.12 1434.67,-404.12 1476.83,-404.12 1476.83,-404.12 1479.79,-404.12 1482.75,-407.08 1482.75,-410.04 1482.75,-410.04 1482.75,-415.96 1482.75,-415.96 1482.75,-418.92 1479.79,-421.88 1476.83,-421.88"/>
<text text-anchor="start" x="1440" y="-409.32" font-family="Helvetica,sans-Serif" font-size="9.00">index.ts</text>
</a>
</g>
</g>
<!-- src/entities/session/model/actions.ts&#45;&gt;src/shared/api/base/index.ts -->
<g id="edge20" class="edge">
<title>src/entities/session/model/actions.ts&#45;&gt;src/shared/api/base/index.ts</title>
<path fill="none" stroke="#000000" stroke-width="2" stroke-opacity="0.200000" d="M1351.41,-216.12C1368.12,-247.96 1424.06,-354.52 1445.9,-396.14"/>
<polygon fill="#000000" fill-opacity="0.200000" stroke="#000000" stroke-width="2" stroke-opacity="0.200000" points="1443.96,-396.97 1448.61,-401.31 1447.68,-395.02 1443.96,-396.97"/>
</g>
<!-- src/entities/session/model/store.ts&#45;&gt;src/shared/api/base/index.ts -->
<g id="edge21" class="edge">
<title>src/entities/session/model/store.ts&#45;&gt;src/shared/api/base/index.ts</title>
<path fill="none" stroke="#000000" stroke-width="2" stroke-opacity="0.200000" d="M1373.01,-179.71C1381.59,-181.83 1390.5,-185.53 1396.75,-192 1452.27,-249.44 1456.33,-353.28 1455.54,-394.97"/>
<polygon fill="#000000" fill-opacity="0.200000" stroke="#000000" stroke-width="2" stroke-opacity="0.200000" points="1453.44,-394.86 1455.36,-400.92 1457.64,-394.99 1453.44,-394.86"/>
</g>
<!-- src/entities/session/ui/LogoutButton.tsx&#45;&gt;src/entities/session/model/actions.ts -->
<g id="edge22" class="edge">
<title>src/entities/session/ui/LogoutButton.tsx&#45;&gt;src/entities/session/model/actions.ts</title>
<path fill="none" stroke="#000000" stroke-width="2" stroke-opacity="0.200000" d="M1294.99,-207C1299.81,-207 1304.68,-207 1309.39,-207"/>
<polygon fill="#000000" fill-opacity="0.200000" stroke="#000000" stroke-width="2" stroke-opacity="0.200000" points="1309.19,-209.1 1315.19,-207 1309.19,-204.9 1309.19,-209.1"/>
</g>
<!-- src/shared/api/base/endpoints.ts -->
<g id="node34" class="node">
<title>src/shared/api/base/endpoints.ts</title>
<g id="a_node34"><a xlink:href="src/shared/api/base/endpoints.ts" xlink:title="endpoints.ts">
<path fill="#ddfeff" stroke="black" d="M1574.08,-443.88C1574.08,-443.88 1520.42,-443.88 1520.42,-443.88 1517.46,-443.88 1514.5,-440.92 1514.5,-437.96 1514.5,-437.96 1514.5,-432.04 1514.5,-432.04 1514.5,-429.08 1517.46,-426.12 1520.42,-426.12 1520.42,-426.12 1574.08,-426.12 1574.08,-426.12 1577.04,-426.12 1580,-429.08 1580,-432.04 1580,-432.04 1580,-437.96 1580,-437.96 1580,-440.92 1577.04,-443.88 1574.08,-443.88"/>
<text text-anchor="start" x="1522.5" y="-431.32" font-family="Helvetica,sans-Serif" font-size="9.00">endpoints.ts</text>
</a>
</g>
</g>
<!-- src/shared/api/base/index.ts&#45;&gt;src/shared/api/base/endpoints.ts -->
<g id="edge51" class="edge">
<title>src/shared/api/base/index.ts&#45;&gt;src/shared/api/base/endpoints.ts</title>
<path fill="none" stroke="#000000" stroke-width="2" stroke-opacity="0.200000" d="M1483.12,-419.48C1490.69,-421.34 1499.12,-423.41 1507.28,-425.42"/>
<polygon fill="#000000" fill-opacity="0.200000" stroke="#000000" stroke-width="2" stroke-opacity="0.200000" points="1512.58,-428.89 1507.25,-425.41 1513.58,-424.81 1512.58,-428.89"/>
</g>
<!-- src/shared/api/base/fetchBaseApi.ts -->
<g id="node35" class="node">
<title>src/shared/api/base/fetchBaseApi.ts</title>
<g id="a_node35"><a xlink:href="src/shared/api/base/fetchBaseApi.ts" xlink:title="fetchBaseApi.ts">
<path fill="#ddfeff" stroke="black" d="M1684.83,-429.88C1684.83,-429.88 1617.67,-429.88 1617.67,-429.88 1614.71,-429.88 1611.75,-426.92 1611.75,-423.96 1611.75,-423.96 1611.75,-418.04 1611.75,-418.04 1611.75,-415.08 1614.71,-412.12 1617.67,-412.12 1617.67,-412.12 1684.83,-412.12 1684.83,-412.12 1687.79,-412.12 1690.75,-415.08 1690.75,-418.04 1690.75,-418.04 1690.75,-423.96 1690.75,-423.96 1690.75,-426.92 1687.79,-429.88 1684.83,-429.88"/>
<text text-anchor="start" x="1619.75" y="-417.32" font-family="Helvetica,sans-Serif" font-size="9.00">fetchBaseApi.ts</text>
</a>
</g>
</g>
<!-- src/shared/api/base/index.ts&#45;&gt;src/shared/api/base/fetchBaseApi.ts -->
<g id="edge53" class="edge">
<title>src/shared/api/base/index.ts&#45;&gt;src/shared/api/base/fetchBaseApi.ts</title>
<path fill="none" stroke="#000000" stroke-width="2" stroke-opacity="0.200000" d="M1483.25,-414.1C1514.43,-415.38 1566.73,-417.55 1604.51,-419.11"/>
<polygon fill="#000000" fill-opacity="0.200000" stroke="#000000" stroke-width="2" stroke-opacity="0.200000" points="1610.3,-421.45 1604.39,-419.1 1610.47,-417.25 1610.3,-421.45"/>
</g>
<!-- src/shared/api/base/types.ts -->
<g id="node36" class="node">
<title>src/shared/api/base/types.ts</title>
<g id="a_node36"><a xlink:href="src/shared/api/base/types.ts" xlink:title="types.ts">
<path fill="#ddfeff" stroke="black" d="M1672.33,-459.88C1672.33,-459.88 1630.17,-459.88 1630.17,-459.88 1627.21,-459.88 1624.25,-456.92 1624.25,-453.96 1624.25,-453.96 1624.25,-448.04 1624.25,-448.04 1624.25,-445.08 1627.21,-442.12 1630.17,-442.12 1630.17,-442.12 1672.33,-442.12 1672.33,-442.12 1675.29,-442.12 1678.25,-445.08 1678.25,-448.04 1678.25,-448.04 1678.25,-453.96 1678.25,-453.96 1678.25,-456.92 1675.29,-459.88 1672.33,-459.88"/>
<text text-anchor="start" x="1635.88" y="-447.32" font-family="Helvetica,sans-Serif" font-size="9.00">types.ts</text>
</a>
</g>
</g>
<!-- src/shared/api/base/index.ts&#45;&gt;src/shared/api/base/types.ts -->
<g id="edge55" class="edge">
<title>src/shared/api/base/index.ts&#45;&gt;src/shared/api/base/types.ts</title>
<path fill="none" stroke="#000000" stroke-opacity="0.200000" d="M1463.91,-422.37C1471.45,-431.39 1484.22,-444.46 1498.75,-450 1537.09,-464.62 1584.96,-461.8 1616.51,-457.36"/>
<polygon fill="none" stroke="#000000" stroke-opacity="0.200000" points="1616.65,-459.46 1622.27,-456.49 1616.02,-455.3 1616.65,-459.46"/>
</g>
<!-- src/shared/api/base/errors.ts -->
<g id="node37" class="node">
<title>src/shared/api/base/errors.ts</title>
<g id="a_node37"><a xlink:href="src/shared/api/base/errors.ts" xlink:title="errors.ts">
<path fill="#ddfeff" stroke="black" d="M1754.83,-462.88C1754.83,-462.88 1712.67,-462.88 1712.67,-462.88 1709.71,-462.88 1706.75,-459.92 1706.75,-456.96 1706.75,-456.96 1706.75,-451.04 1706.75,-451.04 1706.75,-448.08 1709.71,-445.12 1712.67,-445.12 1712.67,-445.12 1754.83,-445.12 1754.83,-445.12 1757.79,-445.12 1760.75,-448.08 1760.75,-451.04 1760.75,-451.04 1760.75,-456.96 1760.75,-456.96 1760.75,-459.92 1757.79,-462.88 1754.83,-462.88"/>
<text text-anchor="start" x="1717.25" y="-450.32" font-family="Helvetica,sans-Serif" font-size="9.00">errors.ts</text>
</a>
</g>
</g>
<!-- src/shared/api/base/index.ts&#45;&gt;src/shared/api/base/errors.ts -->
<g id="edge52" class="edge">
<title>src/shared/api/base/index.ts&#45;&gt;src/shared/api/base/errors.ts</title>
<path fill="none" stroke="#000000" stroke-width="2" stroke-opacity="0.200000" d="M1461.93,-422.01C1468.78,-432.97 1481.97,-450.97 1498.75,-459 1575.77,-495.86 1606.19,-477.84 1690.75,-466 1693.62,-465.6 1696.57,-465.05 1699.52,-464.4"/>
<polygon fill="#000000" fill-opacity="0.200000" stroke="#000000" stroke-width="2" stroke-opacity="0.200000" points="1705.85,-465.03 1699.53,-464.4 1704.86,-460.95 1705.85,-465.03"/>
</g>
<!-- src/shared/api/base/store.ts -->
<g id="node38" class="node">
<title>src/shared/api/base/store.ts</title>
<g id="a_node38"><a xlink:href="src/shared/api/base/store.ts" xlink:title="store.ts">
<path fill="#ddfeff" stroke="black" d="M1754.83,-422.88C1754.83,-422.88 1712.67,-422.88 1712.67,-422.88 1709.71,-422.88 1706.75,-419.92 1706.75,-416.96 1706.75,-416.96 1706.75,-411.04 1706.75,-411.04 1706.75,-408.08 1709.71,-405.12 1712.67,-405.12 1712.67,-405.12 1754.83,-405.12 1754.83,-405.12 1757.79,-405.12 1760.75,-408.08 1760.75,-411.04 1760.75,-411.04 1760.75,-416.96 1760.75,-416.96 1760.75,-419.92 1757.79,-422.88 1754.83,-422.88"/>
<text text-anchor="start" x="1719.12" y="-410.32" font-family="Helvetica,sans-Serif" font-size="9.00">store.ts</text>
</a>
</g>
</g>
<!-- src/shared/api/base/index.ts&#45;&gt;src/shared/api/base/store.ts -->
<g id="edge54" class="edge">
<title>src/shared/api/base/index.ts&#45;&gt;src/shared/api/base/store.ts</title>
<path fill="none" stroke="#000000" stroke-width="2" stroke-opacity="0.200000" d="M1483.14,-410.09C1526.54,-405.77 1615.69,-398.92 1690.75,-406 1693.66,-406.27 1696.67,-406.65 1699.68,-407.1"/>
<polygon fill="#000000" fill-opacity="0.200000" stroke="#000000" stroke-width="2" stroke-opacity="0.200000" points="1705.32,-410.15 1699.74,-407.11 1706,-406.01 1705.32,-410.15"/>
</g>
<!-- src/entities/user/index.ts -->
<g id="node21" class="node">
<title>src/entities/user/index.ts</title>
<g id="a_node21"><a xlink:href="src/entities/user/index.ts" xlink:title="index.ts">
<path fill="#ddfeff" stroke="black" d="M894.21,-351.88C894.21,-351.88 852.04,-351.88 852.04,-351.88 849.08,-351.88 846.12,-348.92 846.12,-345.96 846.12,-345.96 846.12,-340.04 846.12,-340.04 846.12,-337.08 849.08,-334.12 852.04,-334.12 852.04,-334.12 894.21,-334.12 894.21,-334.12 897.17,-334.12 900.12,-337.08 900.12,-340.04 900.12,-340.04 900.12,-345.96 900.12,-345.96 900.12,-348.92 897.17,-351.88 894.21,-351.88"/>
<text text-anchor="start" x="857.38" y="-339.32" font-family="Helvetica,sans-Serif" font-size="9.00">index.ts</text>
</a>
</g>
</g>
<!-- src/entities/user/model/store.ts -->
<g id="node22" class="node">
<title>src/entities/user/model/store.ts</title>
<g id="a_node22"><a xlink:href="src/entities/user/model/store.ts" xlink:title="store.ts">
<path fill="#ddfeff" stroke="black" d="M1018.96,-309.88C1018.96,-309.88 976.79,-309.88 976.79,-309.88 973.83,-309.88 970.88,-306.92 970.88,-303.96 970.88,-303.96 970.88,-298.04 970.88,-298.04 970.88,-295.08 973.83,-292.12 976.79,-292.12 976.79,-292.12 1018.96,-292.12 1018.96,-292.12 1021.92,-292.12 1024.88,-295.08 1024.88,-298.04 1024.88,-298.04 1024.88,-303.96 1024.88,-303.96 1024.88,-306.92 1021.92,-309.88 1018.96,-309.88"/>
<text text-anchor="start" x="983.25" y="-297.32" font-family="Helvetica,sans-Serif" font-size="9.00">store.ts</text>
</a>
</g>
</g>
<!-- src/entities/user/index.ts&#45;&gt;src/entities/user/model/store.ts -->
<g id="edge23" class="edge">
<title>src/entities/user/index.ts&#45;&gt;src/entities/user/model/store.ts</title>
<path fill="none" stroke="#000000" stroke-width="2" stroke-opacity="0.200000" d="M900.46,-333.99C919.07,-327.62 944.14,-319.05 964.05,-312.23"/>
<polygon fill="#000000" fill-opacity="0.200000" stroke="#000000" stroke-width="2" stroke-opacity="0.200000" points="970.32,-312.31 963.96,-312.26 968.96,-308.33 970.32,-312.31"/>
</g>
<!-- src/entities/user/model/store.ts&#45;&gt;src/entities/session/index.ts -->
<g id="edge28" class="edge">
<title>src/entities/user/model/store.ts&#45;&gt;src/entities/session/index.ts</title>
<path fill="none" stroke="#000000" stroke-width="2" stroke-opacity="0.200000" d="M1013.43,-291.86C1024.57,-284.84 1040.3,-274.88 1054,-266 1070.24,-255.47 1088.48,-243.39 1102.2,-234.25"/>
<polygon fill="#000000" fill-opacity="0.200000" stroke="#000000" stroke-width="2" stroke-opacity="0.200000" points="1103.36,-236 1107.19,-230.92 1101.03,-232.5 1103.36,-236"/>
</g>
<!-- src/entities/user/model/store.ts&#45;&gt;src/shared/api/base/index.ts -->
<g id="edge29" class="edge">
<title>src/entities/user/model/store.ts&#45;&gt;src/shared/api/base/index.ts</title>
<path fill="none" stroke="#000000" stroke-width="2" stroke-opacity="0.200000" d="M1019.99,-310.36C1032.25,-317.01 1046.68,-327.21 1054,-341 1066.62,-364.76 1042.66,-564.29 1062,-583 1179.51,-696.69 1385.2,-489.31 1440.64,-428.84"/>
<polygon fill="#000000" fill-opacity="0.200000" stroke="#000000" stroke-width="2" stroke-opacity="0.200000" points="1442.14,-430.32 1444.61,-424.46 1439.03,-427.5 1442.14,-430.32"/>
</g>
<!-- src/entities/user/lib/mapUserDto.ts -->
<g id="node23" class="node">
<title>src/entities/user/lib/mapUserDto.ts</title>
<g id="a_node23"><a xlink:href="src/entities/user/lib/mapUserDto.ts" xlink:title="mapUserDto.ts">
<path fill="#ddfeff" stroke="black" d="M1030.33,-369.88C1030.33,-369.88 965.42,-369.88 965.42,-369.88 962.46,-369.88 959.5,-366.92 959.5,-363.96 959.5,-363.96 959.5,-358.04 959.5,-358.04 959.5,-355.08 962.46,-352.12 965.42,-352.12 965.42,-352.12 1030.33,-352.12 1030.33,-352.12 1033.29,-352.12 1036.25,-355.08 1036.25,-358.04 1036.25,-358.04 1036.25,-363.96 1036.25,-363.96 1036.25,-366.92 1033.29,-369.88 1030.33,-369.88"/>
<text text-anchor="start" x="967.5" y="-357.32" font-family="Helvetica,sans-Serif" font-size="9.00">mapUserDto.ts</text>
</a>
</g>
</g>
<!-- src/entities/user/model/store.ts&#45;&gt;src/entities/user/lib/mapUserDto.ts -->
<g id="edge26" class="edge">
<title>src/entities/user/model/store.ts&#45;&gt;src/entities/user/lib/mapUserDto.ts</title>
<path fill="none" stroke="#000000" stroke-width="2" stroke-opacity="0.200000" d="M997.88,-310.38C997.88,-321.3 997.88,-332.22 997.88,-343.14"/>
<polygon fill="#000000" fill-opacity="0.200000" stroke="#000000" stroke-width="2" stroke-opacity="0.200000" points="995.78,-342.88 997.88,-348.88 999.98,-342.88 995.78,-342.88"/>
</g>
<!-- src/entities/user/model/types.ts -->
<g id="node24" class="node">
<title>src/entities/user/model/types.ts</title>
<g id="a_node24"><a xlink:href="src/entities/user/model/types.ts" xlink:title="types.ts">
<path fill="#ddfeff" stroke="black" d="M1145.58,-309.88C1145.58,-309.88 1103.42,-309.88 1103.42,-309.88 1100.46,-309.88 1097.5,-306.92 1097.5,-303.96 1097.5,-303.96 1097.5,-298.04 1097.5,-298.04 1097.5,-295.08 1100.46,-292.12 1103.42,-292.12 1103.42,-292.12 1145.58,-292.12 1145.58,-292.12 1148.54,-292.12 1151.5,-295.08 1151.5,-298.04 1151.5,-298.04 1151.5,-303.96 1151.5,-303.96 1151.5,-306.92 1148.54,-309.88 1145.58,-309.88"/>
<text text-anchor="start" x="1109.12" y="-297.32" font-family="Helvetica,sans-Serif" font-size="9.00">types.ts</text>
</a>
</g>
</g>
<!-- src/entities/user/model/store.ts&#45;&gt;src/entities/user/model/types.ts -->
<g id="edge27" class="edge">
<title>src/entities/user/model/store.ts&#45;&gt;src/entities/user/model/types.ts</title>
<path fill="none" stroke="#000000" stroke-opacity="0.200000" d="M1025.3,-301C1044.06,-301 1069.39,-301 1089.63,-301"/>
<polygon fill="none" stroke="#000000" stroke-opacity="0.200000" points="1089.59,-303.1 1095.59,-301 1089.59,-298.9 1089.59,-303.1"/>
</g>
<!-- src/entities/user/lib/mapUserDto.ts&#45;&gt;src/shared/api/base/index.ts -->
<g id="edge25" class="edge">
<title>src/entities/user/lib/mapUserDto.ts&#45;&gt;src/shared/api/base/index.ts</title>
<path fill="none" stroke="#000000" stroke-opacity="0.200000" d="M1003.04,-370.37C1013.79,-395.06 1042.43,-464.21 1054,-525 1057.2,-541.83 1049.57,-667.2 1062,-679 1075.49,-691.8 1383.3,-691.84 1396.75,-679 1410.75,-665.63 1399.55,-523.64 1404.75,-505 1412.88,-475.84 1431.59,-445.68 1443.68,-428.17"/>
<polygon fill="none" stroke="#000000" stroke-opacity="0.200000" points="1445.19,-429.66 1446.93,-423.55 1441.76,-427.25 1445.19,-429.66"/>
</g>
<!-- src/entities/user/lib/mapUserDto.ts&#45;&gt;src/entities/user/model/types.ts -->
<g id="edge24" class="edge">
<title>src/entities/user/lib/mapUserDto.ts&#45;&gt;src/entities/user/model/types.ts</title>
<path fill="none" stroke="#000000" stroke-opacity="0.200000" d="M1024.12,-351.66C1033.6,-347.97 1044.4,-343.52 1054,-339 1070.25,-331.35 1088.01,-321.61 1101.51,-313.91"/>
<polygon fill="none" stroke="#000000" stroke-opacity="0.200000" points="1102.31,-315.88 1106.46,-311.06 1100.21,-312.24 1102.31,-315.88"/>
</g>
<!-- src/pages/home/@fractal&#45;widgets/SearchPokemonById/index.ts -->
<g id="node25" class="node">
<title>src/pages/home/@fractal&#45;widgets/SearchPokemonById/index.ts</title>
<g id="a_node25"><a xlink:href="src/pages/home/@fractal-widgets/SearchPokemonById/index.ts" xlink:title="index.ts">
<path fill="#ddfeff" stroke="black" d="M512.58,-503.88C512.58,-503.88 470.42,-503.88 470.42,-503.88 467.46,-503.88 464.5,-500.92 464.5,-497.96 464.5,-497.96 464.5,-492.04 464.5,-492.04 464.5,-489.08 467.46,-486.12 470.42,-486.12 470.42,-486.12 512.58,-486.12 512.58,-486.12 515.54,-486.12 518.5,-489.08 518.5,-492.04 518.5,-492.04 518.5,-497.96 518.5,-497.96 518.5,-500.92 515.54,-503.88 512.58,-503.88"/>
<text text-anchor="start" x="475.75" y="-491.32" font-family="Helvetica,sans-Serif" font-size="9.00">index.ts</text>
</a>
</g>
</g>
<!-- src/pages/home/@fractal&#45;widgets/SearchPokemonById/ui/SearchPokemonById.tsx -->
<g id="node26" class="node">
<title>src/pages/home/@fractal&#45;widgets/SearchPokemonById/ui/SearchPokemonById.tsx</title>
<g id="a_node26"><a xlink:href="src/pages/home/@fractal-widgets/SearchPokemonById/ui/SearchPokemonById.tsx" xlink:title="SearchPokemonById.tsx">
<path fill="#bbfeff" stroke="black" d="M654.46,-503.88C654.46,-503.88 550.54,-503.88 550.54,-503.88 547.58,-503.88 544.62,-500.92 544.62,-497.96 544.62,-497.96 544.62,-492.04 544.62,-492.04 544.62,-489.08 547.58,-486.12 550.54,-486.12 550.54,-486.12 654.46,-486.12 654.46,-486.12 657.42,-486.12 660.38,-489.08 660.38,-492.04 660.38,-492.04 660.38,-497.96 660.38,-497.96 660.38,-500.92 657.42,-503.88 654.46,-503.88"/>
<text text-anchor="start" x="552.62" y="-491.32" font-family="Helvetica,sans-Serif" font-size="9.00">SearchPokemonById.tsx</text>
</a>
</g>
</g>
<!-- src/pages/home/@fractal&#45;widgets/SearchPokemonById/index.ts&#45;&gt;src/pages/home/@fractal&#45;widgets/SearchPokemonById/ui/SearchPokemonById.tsx -->
<g id="edge30" class="edge">
<title>src/pages/home/@fractal&#45;widgets/SearchPokemonById/index.ts&#45;&gt;src/pages/home/@fractal&#45;widgets/SearchPokemonById/ui/SearchPokemonById.tsx</title>
<path fill="none" stroke="#000000" stroke-width="2" stroke-opacity="0.200000" d="M518.89,-495C524.62,-495 530.93,-495 537.43,-495"/>
<polygon fill="#000000" fill-opacity="0.200000" stroke="#000000" stroke-width="2" stroke-opacity="0.200000" points="543.54,-497.1 537.54,-495 543.54,-492.9 543.54,-497.1"/>
</g>
<!-- src/pages/home/@fractal&#45;widgets/SearchPokemonById/ui/SearchPokemonById.tsx&#45;&gt;src/entities/pokemon/index.ts -->
<g id="edge34" class="edge">
<title>src/pages/home/@fractal&#45;widgets/SearchPokemonById/ui/SearchPokemonById.tsx&#45;&gt;src/entities/pokemon/index.ts</title>
<path fill="none" stroke="#000000" stroke-width="2" stroke-opacity="0.200000" d="M617.57,-504.37C635.05,-516.86 664.32,-540.71 678.5,-569 684.33,-580.63 676.69,-618.45 686.5,-627 720.68,-656.79 754.01,-656.41 788.5,-627 805.62,-612.4 781.71,-593.96 796.5,-577 806.66,-565.35 822.51,-559.5 837.09,-556.6"/>
<polygon fill="#000000" fill-opacity="0.200000" stroke="#000000" stroke-width="2" stroke-opacity="0.200000" points="837.37,-558.68 842.95,-555.64 836.69,-554.54 837.37,-558.68"/>
</g>
<!-- src/pages/home/@fractal&#45;widgets/SearchPokemonById/model/store.ts -->
<g id="node27" class="node">
<title>src/pages/home/@fractal&#45;widgets/SearchPokemonById/model/store.ts</title>
<g id="a_node27"><a xlink:href="src/pages/home/@fractal-widgets/SearchPokemonById/model/store.ts" xlink:title="store.ts">
<path fill="#ddfeff" stroke="black" d="M742.58,-503.88C742.58,-503.88 700.42,-503.88 700.42,-503.88 697.46,-503.88 694.5,-500.92 694.5,-497.96 694.5,-497.96 694.5,-492.04 694.5,-492.04 694.5,-489.08 697.46,-486.12 700.42,-486.12 700.42,-486.12 742.58,-486.12 742.58,-486.12 745.54,-486.12 748.5,-489.08 748.5,-492.04 748.5,-492.04 748.5,-497.96 748.5,-497.96 748.5,-500.92 745.54,-503.88 742.58,-503.88"/>
<text text-anchor="start" x="706.88" y="-491.32" font-family="Helvetica,sans-Serif" font-size="9.00">store.ts</text>
</a>
</g>
</g>
<!-- src/pages/home/@fractal&#45;widgets/SearchPokemonById/ui/SearchPokemonById.tsx&#45;&gt;src/pages/home/@fractal&#45;widgets/SearchPokemonById/model/store.ts -->
<g id="edge33" class="edge">
<title>src/pages/home/@fractal&#45;widgets/SearchPokemonById/ui/SearchPokemonById.tsx&#45;&gt;src/pages/home/@fractal&#45;widgets/SearchPokemonById/model/store.ts</title>
<path fill="none" stroke="#000000" stroke-width="2" stroke-opacity="0.200000" d="M660.63,-495C669.05,-495 677.51,-495 685.31,-495"/>
<polygon fill="#000000" fill-opacity="0.200000" stroke="#000000" stroke-width="2" stroke-opacity="0.200000" points="685.09,-497.1 691.09,-495 685.09,-492.9 685.09,-497.1"/>
</g>
<!-- src/shared/ui/Input.tsx -->
<g id="node28" class="node">
<title>src/shared/ui/Input.tsx</title>
<g id="a_node28"><a xlink:href="src/shared/ui/Input.tsx" xlink:title="Input.tsx">
<path fill="#bbfeff" stroke="black" d="M1476.83,-679.88C1476.83,-679.88 1434.67,-679.88 1434.67,-679.88 1431.71,-679.88 1428.75,-676.92 1428.75,-673.96 1428.75,-673.96 1428.75,-668.04 1428.75,-668.04 1428.75,-665.08 1431.71,-662.12 1434.67,-662.12 1434.67,-662.12 1476.83,-662.12 1476.83,-662.12 1479.79,-662.12 1482.75,-665.08 1482.75,-668.04 1482.75,-668.04 1482.75,-673.96 1482.75,-673.96 1482.75,-676.92 1479.79,-679.88 1476.83,-679.88"/>
<text text-anchor="start" x="1438.88" y="-667.33" font-family="Helvetica,sans-Serif" font-size="9.00">Input.tsx</text>
</a>
</g>
</g>
<!-- src/pages/home/@fractal&#45;widgets/SearchPokemonById/ui/SearchPokemonById.tsx&#45;&gt;src/shared/ui/Input.tsx -->
<g id="edge35" class="edge">
<title>src/pages/home/@fractal&#45;widgets/SearchPokemonById/ui/SearchPokemonById.tsx&#45;&gt;src/shared/ui/Input.tsx</title>
<path fill="none" stroke="#000000" stroke-width="2" stroke-opacity="0.200000" d="M617.69,-504.31C635.31,-516.73 664.72,-540.51 678.5,-569 685.61,-583.69 675.5,-629.94 686.5,-642 820.08,-788.44 925.29,-731 1123.5,-731 1123.5,-731 1123.5,-731 1253.38,-731 1317.36,-731 1337.47,-742.07 1396.75,-718 1413.85,-711.05 1429.88,-697.29 1440.73,-686.44"/>
<polygon fill="#000000" fill-opacity="0.200000" stroke="#000000" stroke-width="2" stroke-opacity="0.200000" points="1442.04,-688.11 1444.69,-682.33 1439.01,-685.2 1442.04,-688.11"/>
</g>
<!-- src/pages/home/@fractal&#45;widgets/SearchPokemonById/model/store.ts&#45;&gt;src/entities/pokemon/api/queryPokemonById.ts -->
<g id="edge32" class="edge">
<title>src/pages/home/@fractal&#45;widgets/SearchPokemonById/model/store.ts&#45;&gt;src/entities/pokemon/api/queryPokemonById.ts</title>
<path fill="none" stroke="#000000" stroke-width="2" stroke-opacity="0.200000" d="M731.81,-503.97C745.34,-517.33 770.77,-543.59 788.5,-569 792.82,-575.2 790.38,-579.58 796.5,-584 801.22,-587.41 806.52,-590.03 812.08,-592.04"/>
<polygon fill="#000000" fill-opacity="0.200000" stroke="#000000" stroke-width="2" stroke-opacity="0.200000" points="811.13,-593.94 817.48,-593.68 812.35,-589.92 811.13,-593.94"/>
</g>
<!-- src/pages/home/@fractal&#45;widgets/SearchPokemonById/model/store.ts&#45;&gt;src/entities/pokemon/index.ts -->
<g id="edge31" class="edge">
<title>src/pages/home/@fractal&#45;widgets/SearchPokemonById/model/store.ts&#45;&gt;src/entities/pokemon/index.ts</title>
<path fill="none" stroke="#000000" stroke-width="2" stroke-opacity="0.200000" d="M746.21,-504.35C771.6,-514.36 812.03,-530.3 840.21,-541.41"/>
<polygon fill="#000000" fill-opacity="0.200000" stroke="#000000" stroke-width="2" stroke-opacity="0.200000" points="839.36,-543.34 845.71,-543.58 840.9,-539.43 839.36,-543.34"/>
</g>
<!-- src/pages/home/@fractal&#45;widgets/StrongestPokemons/index.ts -->
<g id="node29" class="node">
<title>src/pages/home/@fractal&#45;widgets/StrongestPokemons/index.ts</title>
<g id="a_node29"><a xlink:href="src/pages/home/@fractal-widgets/StrongestPokemons/index.ts" xlink:title="index.ts">
<path fill="#ddfeff" stroke="black" d="M512.58,-593.88C512.58,-593.88 470.42,-593.88 470.42,-593.88 467.46,-593.88 464.5,-590.92 464.5,-587.96 464.5,-587.96 464.5,-582.04 464.5,-582.04 464.5,-579.08 467.46,-576.12 470.42,-576.12 470.42,-576.12 512.58,-576.12 512.58,-576.12 515.54,-576.12 518.5,-579.08 518.5,-582.04 518.5,-582.04 518.5,-587.96 518.5,-587.96 518.5,-590.92 515.54,-593.88 512.58,-593.88"/>
<text text-anchor="start" x="475.75" y="-581.33" font-family="Helvetica,sans-Serif" font-size="9.00">index.ts</text>
</a>
</g>
</g>
<!-- src/pages/home/@fractal&#45;widgets/StrongestPokemons/ui/StrongestPokemonsSlider.tsx -->
<g id="node30" class="node">
<title>src/pages/home/@fractal&#45;widgets/StrongestPokemons/ui/StrongestPokemonsSlider.tsx</title>
<g id="a_node30"><a xlink:href="src/pages/home/@fractal-widgets/StrongestPokemons/ui/StrongestPokemonsSlider.tsx" xlink:title="StrongestPokemonsSlider.tsx">
<path fill="#bbfeff" stroke="black" d="M664.58,-597.88C664.58,-597.88 540.42,-597.88 540.42,-597.88 537.46,-597.88 534.5,-594.92 534.5,-591.96 534.5,-591.96 534.5,-586.04 534.5,-586.04 534.5,-583.08 537.46,-580.12 540.42,-580.12 540.42,-580.12 664.58,-580.12 664.58,-580.12 667.54,-580.12 670.5,-583.08 670.5,-586.04 670.5,-586.04 670.5,-591.96 670.5,-591.96 670.5,-594.92 667.54,-597.88 664.58,-597.88"/>
<text text-anchor="start" x="542.5" y="-585.33" font-family="Helvetica,sans-Serif" font-size="9.00">StrongestPokemonsSlider.tsx</text>
</a>
</g>
</g>
<!-- src/pages/home/@fractal&#45;widgets/StrongestPokemons/index.ts&#45;&gt;src/pages/home/@fractal&#45;widgets/StrongestPokemons/ui/StrongestPokemonsSlider.tsx -->
<g id="edge36" class="edge">
<title>src/pages/home/@fractal&#45;widgets/StrongestPokemons/index.ts&#45;&gt;src/pages/home/@fractal&#45;widgets/StrongestPokemons/ui/StrongestPokemonsSlider.tsx</title>
<path fill="none" stroke="#000000" stroke-width="2" stroke-opacity="0.200000" d="M518.89,-585.97C521.58,-586.07 524.4,-586.17 527.3,-586.28"/>
<polygon fill="#000000" fill-opacity="0.200000" stroke="#000000" stroke-width="2" stroke-opacity="0.200000" points="533.15,-588.59 527.23,-586.27 533.3,-584.4 533.15,-588.59"/>
</g>
<!-- src/pages/home/@fractal&#45;widgets/StrongestPokemons/ui/StrongestPokemonsSlider.tsx&#45;&gt;src/entities/pokemon/index.ts -->
<g id="edge39" class="edge">
<title>src/pages/home/@fractal&#45;widgets/StrongestPokemons/ui/StrongestPokemonsSlider.tsx&#45;&gt;src/entities/pokemon/index.ts</title>
<path fill="none" stroke="#000000" stroke-width="2" stroke-opacity="0.200000" d="M610.17,-598.35C622.8,-615.14 652.04,-649.87 686.5,-663 728.86,-679.14 754.99,-693.53 788.5,-663 802.69,-650.07 784.37,-591.87 796.5,-577 806.27,-565.02 822.08,-559.13 836.72,-556.29"/>
<polygon fill="#000000" fill-opacity="0.200000" stroke="#000000" stroke-width="2" stroke-opacity="0.200000" points="837.04,-558.37 842.64,-555.36 836.38,-554.22 837.04,-558.37"/>
</g>
<!-- src/pages/home/@fractal&#45;widgets/StrongestPokemons/model/store.ts -->
<g id="node31" class="node">
<title>src/pages/home/@fractal&#45;widgets/StrongestPokemons/model/store.ts</title>
<g id="a_node31"><a xlink:href="src/pages/home/@fractal-widgets/StrongestPokemons/model/store.ts" xlink:title="store.ts">
<path fill="#ddfeff" stroke="black" d="M742.58,-597.88C742.58,-597.88 700.42,-597.88 700.42,-597.88 697.46,-597.88 694.5,-594.92 694.5,-591.96 694.5,-591.96 694.5,-586.04 694.5,-586.04 694.5,-583.08 697.46,-580.12 700.42,-580.12 700.42,-580.12 742.58,-580.12 742.58,-580.12 745.54,-580.12 748.5,-583.08 748.5,-586.04 748.5,-586.04 748.5,-591.96 748.5,-591.96 748.5,-594.92 745.54,-597.88 742.58,-597.88"/>
<text text-anchor="start" x="706.88" y="-585.33" font-family="Helvetica,sans-Serif" font-size="9.00">store.ts</text>
</a>
</g>
</g>
<!-- src/pages/home/@fractal&#45;widgets/StrongestPokemons/ui/StrongestPokemonsSlider.tsx&#45;&gt;src/pages/home/@fractal&#45;widgets/StrongestPokemons/model/store.ts -->
<g id="edge38" class="edge">
<title>src/pages/home/@fractal&#45;widgets/StrongestPokemons/ui/StrongestPokemonsSlider.tsx&#45;&gt;src/pages/home/@fractal&#45;widgets/StrongestPokemons/model/store.ts</title>
<path fill="none" stroke="#000000" stroke-width="2" stroke-opacity="0.200000" d="M670.88,-589C675.9,-589 680.82,-589 685.51,-589"/>
<polygon fill="#000000" fill-opacity="0.200000" stroke="#000000" stroke-width="2" stroke-opacity="0.200000" points="685.15,-591.1 691.15,-589 685.15,-586.9 685.15,-591.1"/>
</g>
<!-- src/pages/home/@fractal&#45;widgets/StrongestPokemons/model/store.ts&#45;&gt;src/entities/pokemon/api/queryPokemonById.ts -->
<g id="edge37" class="edge">
<title>src/pages/home/@fractal&#45;widgets/StrongestPokemons/model/store.ts&#45;&gt;src/entities/pokemon/api/queryPokemonById.ts</title>
<path fill="none" stroke="#000000" stroke-width="2" stroke-opacity="0.200000" d="M748.91,-590.41C766.23,-591.34 789.63,-592.59 811.39,-593.75"/>
<polygon fill="#000000" fill-opacity="0.200000" stroke="#000000" stroke-width="2" stroke-opacity="0.200000" points="811.14,-595.84 817.24,-594.07 811.36,-591.65 811.14,-595.84"/>
</g>
<!-- src/pages/home/ui/Page.tsx&#45;&gt;src/pages/home/@fractal&#45;widgets/SearchPokemonById/index.ts -->
<g id="edge41" class="edge">
<title>src/pages/home/ui/Page.tsx&#45;&gt;src/pages/home/@fractal&#45;widgets/SearchPokemonById/index.ts</title>
<path fill="none" stroke="#000000" stroke-width="2" stroke-opacity="0.200000" d="M424.62,-495C434.23,-495 445.28,-495 455.55,-495"/>
<polygon fill="#000000" fill-opacity="0.200000" stroke="#000000" stroke-width="2" stroke-opacity="0.200000" points="455.29,-497.1 461.29,-495 455.29,-492.9 455.29,-497.1"/>
</g>
<!-- src/pages/home/ui/Page.tsx&#45;&gt;src/pages/home/@fractal&#45;widgets/StrongestPokemons/index.ts -->
<g id="edge42" class="edge">
<title>src/pages/home/ui/Page.tsx&#45;&gt;src/pages/home/@fractal&#45;widgets/StrongestPokemons/index.ts</title>
<path fill="none" stroke="#000000" stroke-width="2" stroke-opacity="0.200000" d="M404.11,-504.09C412.56,-517.3 429.6,-542.06 448.5,-559 453.42,-563.41 459.18,-567.52 464.82,-571.11"/>
<polygon fill="#000000" fill-opacity="0.200000" stroke="#000000" stroke-width="2" stroke-opacity="0.200000" points="463.56,-572.8 469.78,-574.1 465.73,-569.2 463.56,-572.8"/>
</g>
<!-- src/pages/profile/ui/Page.tsx&#45;&gt;src/entities/session/index.ts -->
<g id="edge44" class="edge">
<title>src/pages/profile/ui/Page.tsx&#45;&gt;src/entities/session/index.ts</title>
<path fill="none" stroke="#000000" stroke-width="2" stroke-opacity="0.200000" d="M406.33,-375.76C431.48,-347.15 513.73,-262 601.5,-262 601.5,-262 601.5,-262 874.12,-262 954.56,-262 975.31,-258.66 1054,-242 1065.84,-239.49 1078.53,-235.79 1089.79,-232.13"/>
<polygon fill="#000000" fill-opacity="0.200000" stroke="#000000" stroke-width="2" stroke-opacity="0.200000" points="1090.18,-234.22 1095.2,-230.32 1088.85,-230.23 1090.18,-234.22"/>
</g>
<!-- src/pages/profile/ui/Page.tsx&#45;&gt;src/entities/user/index.ts -->
<g id="edge45" class="edge">
<title>src/pages/profile/ui/Page.tsx&#45;&gt;src/entities/user/index.ts</title>
<path fill="none" stroke="#000000" stroke-width="2" stroke-opacity="0.200000" d="M424.98,-382.65C505.31,-375.53 746.26,-354.16 837.03,-346.11"/>
<polygon fill="#000000" fill-opacity="0.200000" stroke="#000000" stroke-width="2" stroke-opacity="0.200000" points="837.03,-348.22 842.82,-345.6 836.66,-344.04 837.03,-348.22"/>
</g>
<!-- src/shared/api/base/endpoints.ts&#45;&gt;src/shared/api/base/fetchBaseApi.ts -->
<g id="edge46" class="edge">
<title>src/shared/api/base/endpoints.ts&#45;&gt;src/shared/api/base/fetchBaseApi.ts</title>
<path fill="none" stroke="#000000" stroke-width="2" stroke-opacity="0.200000" d="M1580.24,-430.61C1587.38,-429.63 1595.1,-428.57 1602.72,-427.52"/>
<polygon fill="#000000" fill-opacity="0.200000" stroke="#000000" stroke-width="2" stroke-opacity="0.200000" points="1602.91,-429.62 1608.57,-426.72 1602.34,-425.46 1602.91,-429.62"/>
</g>
<!-- src/shared/api/base/endpoints.ts&#45;&gt;src/shared/api/base/types.ts -->
<g id="edge47" class="edge">
<title>src/shared/api/base/endpoints.ts&#45;&gt;src/shared/api/base/types.ts</title>
<path fill="none" stroke="#000000" stroke-opacity="0.200000" d="M1580.24,-440.02C1591.86,-441.84 1605,-443.9 1616.74,-445.74"/>
<polygon fill="none" stroke="#000000" stroke-opacity="0.200000" points="1616.09,-447.77 1622.35,-446.62 1616.74,-443.62 1616.09,-447.77"/>
</g>
<!-- src/shared/api/base/fetchBaseApi.ts&#45;&gt;src/shared/api/base/errors.ts -->
<g id="edge48" class="edge">
<title>src/shared/api/base/fetchBaseApi.ts&#45;&gt;src/shared/api/base/errors.ts</title>
<path fill="none" stroke="#000000" stroke-width="2" stroke-opacity="0.200000" d="M1676.33,-430.24C1681.12,-432.12 1686.1,-434.1 1690.75,-436 1694.87,-437.68 1699.19,-439.49 1703.44,-441.29"/>
<polygon fill="#000000" fill-opacity="0.200000" stroke="#000000" stroke-width="2" stroke-opacity="0.200000" points="1702.31,-443.09 1708.66,-443.52 1703.96,-439.23 1702.31,-443.09"/>
</g>
<!-- src/shared/api/base/fetchBaseApi.ts&#45;&gt;src/shared/api/base/store.ts -->
<g id="edge49" class="edge">
<title>src/shared/api/base/fetchBaseApi.ts&#45;&gt;src/shared/api/base/store.ts</title>
<path fill="none" stroke="#000000" stroke-width="2" stroke-opacity="0.200000" d="M1691.09,-417.62C1693.18,-417.44 1695.27,-417.26 1697.35,-417.08"/>
<polygon fill="#000000" fill-opacity="0.200000" stroke="#000000" stroke-width="2" stroke-opacity="0.200000" points="1697.47,-419.18 1703.26,-416.56 1697.1,-414.99 1697.47,-419.18"/>
</g>
<!-- src/shared/lib/wait.ts -->
<g id="node39" class="node">
<title>src/shared/lib/wait.ts</title>
<g id="a_node39"><a xlink:href="src/shared/lib/wait.ts" xlink:title="wait.ts">
<path fill="#ddfeff" stroke="black" d="M1754.83,-649.88C1754.83,-649.88 1712.67,-649.88 1712.67,-649.88 1709.71,-649.88 1706.75,-646.92 1706.75,-643.96 1706.75,-643.96 1706.75,-638.04 1706.75,-638.04 1706.75,-635.08 1709.71,-632.12 1712.67,-632.12 1712.67,-632.12 1754.83,-632.12 1754.83,-632.12 1757.79,-632.12 1760.75,-635.08 1760.75,-638.04 1760.75,-638.04 1760.75,-643.96 1760.75,-643.96 1760.75,-646.92 1757.79,-649.88 1754.83,-649.88"/>
<text text-anchor="start" x="1721" y="-637.33" font-family="Helvetica,sans-Serif" font-size="9.00">wait.ts</text>
</a>
</g>
</g>
<!-- src/shared/api/base/fetchBaseApi.ts&#45;&gt;src/shared/lib/wait.ts -->
<g id="edge50" class="edge">
<title>src/shared/api/base/fetchBaseApi.ts&#45;&gt;src/shared/lib/wait.ts</title>
<path fill="none" stroke="#000000" stroke-width="2" stroke-opacity="0.200000" d="M1684.47,-430.17C1686.84,-431.81 1688.99,-433.73 1690.75,-436 1699.93,-447.85 1696.06,-488.25 1698.75,-503 1706.71,-546.67 1720.27,-597.12 1727.63,-623.25"/>
<polygon fill="#000000" fill-opacity="0.200000" stroke="#000000" stroke-width="2" stroke-opacity="0.200000" points="1725.55,-623.61 1729.21,-628.8 1729.59,-622.46 1725.55,-623.61"/>
</g>
<!-- src/shared/lib/app.d.ts -->
<g id="node42" class="node">
<title>src/shared/lib/app.d.ts</title>
<g id="a_node42"><a xlink:href="src/shared/lib/app.d.ts" xlink:title="app.d.ts">
<path fill="#ccffcc" stroke="black" d="M1754.83,-679.88C1754.83,-679.88 1712.67,-679.88 1712.67,-679.88 1709.71,-679.88 1706.75,-676.92 1706.75,-673.96 1706.75,-673.96 1706.75,-668.04 1706.75,-668.04 1706.75,-665.08 1709.71,-662.12 1712.67,-662.12 1712.67,-662.12 1754.83,-662.12 1754.83,-662.12 1757.79,-662.12 1760.75,-665.08 1760.75,-668.04 1760.75,-668.04 1760.75,-673.96 1760.75,-673.96 1760.75,-676.92 1757.79,-679.88 1754.83,-679.88"/>
<text text-anchor="start" x="1717.62" y="-667.33" font-family="Helvetica,sans-Serif" font-size="9.00">app.d.ts</text>
</a>
</g>
</g>
<!-- src/widgets/LoginDialog/ui/LoginDialog.tsx -->
<g id="node45" class="node">
<title>src/widgets/LoginDialog/ui/LoginDialog.tsx</title>
<g id="a_node45"><a xlink:href="src/widgets/LoginDialog/ui/LoginDialog.tsx" xlink:title="LoginDialog.tsx">
<path fill="#bbfeff" stroke="black" d="M1286.33,-57.88C1286.33,-57.88 1218.42,-57.88 1218.42,-57.88 1215.46,-57.88 1212.5,-54.92 1212.5,-51.96 1212.5,-51.96 1212.5,-46.04 1212.5,-46.04 1212.5,-43.08 1215.46,-40.12 1218.42,-40.12 1218.42,-40.12 1286.33,-40.12 1286.33,-40.12 1289.29,-40.12 1292.25,-43.08 1292.25,-46.04 1292.25,-46.04 1292.25,-51.96 1292.25,-51.96 1292.25,-54.92 1289.29,-57.88 1286.33,-57.88"/>
<text text-anchor="start" x="1220.5" y="-45.33" font-family="Helvetica,sans-Serif" font-size="9.00">LoginDialog.tsx</text>
</a>
</g>
</g>
<!-- src/widgets/LoginDialog/ui/LoginDialogTrigger.tsx&#45;&gt;src/widgets/LoginDialog/ui/LoginDialog.tsx -->
<g id="edge62" class="edge">
<title>src/widgets/LoginDialog/ui/LoginDialogTrigger.tsx&#45;&gt;src/widgets/LoginDialog/ui/LoginDialog.tsx</title>
<path fill="none" stroke="#000000" stroke-width="2" stroke-opacity="0.200000" d="M1179.25,-49C1187.31,-49 1195.57,-49 1203.5,-49"/>
<polygon fill="#000000" fill-opacity="0.200000" stroke="#000000" stroke-width="2" stroke-opacity="0.200000" points="1203.25,-51.1 1209.25,-49 1203.25,-46.9 1203.25,-51.1"/>
</g>
<!-- src/widgets/LoginDialog/model/store.ts -->
<g id="node44" class="node">
<title>src/widgets/LoginDialog/model/store.ts</title>
<g id="a_node44"><a xlink:href="src/widgets/LoginDialog/model/store.ts" xlink:title="store.ts">
<path fill="#ddfeff" stroke="black" d="M1366.71,-57.88C1366.71,-57.88 1324.54,-57.88 1324.54,-57.88 1321.58,-57.88 1318.62,-54.92 1318.62,-51.96 1318.62,-51.96 1318.62,-46.04 1318.62,-46.04 1318.62,-43.08 1321.58,-40.12 1324.54,-40.12 1324.54,-40.12 1366.71,-40.12 1366.71,-40.12 1369.67,-40.12 1372.62,-43.08 1372.62,-46.04 1372.62,-46.04 1372.62,-51.96 1372.62,-51.96 1372.62,-54.92 1369.67,-57.88 1366.71,-57.88"/>
<text text-anchor="start" x="1331" y="-45.33" font-family="Helvetica,sans-Serif" font-size="9.00">store.ts</text>
</a>
</g>
</g>
<!-- src/widgets/LoginDialog/model/store.ts&#45;&gt;src/shared/api/base/index.ts -->
<g id="edge59" class="edge">
<title>src/widgets/LoginDialog/model/store.ts&#45;&gt;src/shared/api/base/index.ts</title>
<path fill="none" stroke="#000000" stroke-width="2" stroke-opacity="0.200000" d="M1356.86,-58.28C1368.44,-69.4 1386.97,-89.15 1396.75,-110 1443.77,-210.28 1452.67,-346.26 1454.36,-394.83"/>
<polygon fill="#000000" fill-opacity="0.200000" stroke="#000000" stroke-width="2" stroke-opacity="0.200000" points="1452.26,-394.86 1454.53,-400.8 1456.46,-394.74 1452.26,-394.86"/>
</g>
<!-- src/widgets/LoginDialog/ui/LoginDialog.tsx&#45;&gt;src/shared/api/base/index.ts -->
<g id="edge61" class="edge">
<title>src/widgets/LoginDialog/ui/LoginDialog.tsx&#45;&gt;src/shared/api/base/index.ts</title>
<path fill="none" stroke="#000000" stroke-width="2" stroke-opacity="0.200000" d="M1266.65,-58.21C1300.51,-81.8 1388.04,-143.52 1396.75,-157 1447.03,-234.75 1454.03,-350.34 1454.78,-394.73"/>
<polygon fill="#000000" fill-opacity="0.200000" stroke="#000000" stroke-width="2" stroke-opacity="0.200000" points="1452.68,-394.75 1454.83,-400.73 1456.88,-394.71 1452.68,-394.75"/>
</g>
<!-- src/widgets/LoginDialog/ui/LoginDialog.tsx&#45;&gt;src/widgets/LoginDialog/model/store.ts -->
<g id="edge60" class="edge">
<title>src/widgets/LoginDialog/ui/LoginDialog.tsx&#45;&gt;src/widgets/LoginDialog/model/store.ts</title>
<path fill="none" stroke="#000000" stroke-width="2" stroke-opacity="0.200000" d="M1292.6,-49C1298.17,-49 1303.87,-49 1309.36,-49"/>
<polygon fill="#000000" fill-opacity="0.200000" stroke="#000000" stroke-width="2" stroke-opacity="0.200000" points="1309.31,-51.1 1315.31,-49 1309.31,-46.9 1309.31,-51.1"/>
</g>
</g>
</svg>
