<?xml version="1.0" encoding="UTF-8" standalone="no"?>
<!DOCTYPE svg PUBLIC "-//W3C//DTD SVG 1.1//EN"
 "http://www.w3.org/Graphics/SVG/1.1/DTD/svg11.dtd">
<!-- Generated by graphviz version 12.0.0 (20240704.0754)
 -->
<!-- Title: dependency&#45;cruiser output Pages: 1 -->
<svg width="714pt" height="328pt"
 viewBox="0.00 0.00 713.75 328.00" xmlns="http://www.w3.org/2000/svg" xmlns:xlink="http://www.w3.org/1999/xlink">
<g id="graph0" class="graph" transform="scale(1 1) rotate(0) translate(4 324)">
<title>dependency&#45;cruiser output</title>
<polygon fill="white" stroke="none" points="-4,4 -4,-324 709.75,-324 709.75,4 -4,4"/>
<g id="clust1" class="cluster">
<title>cluster_src</title>
<path fill="#ffffff" stroke="black" stroke-width="2" d="M20,-8C20,-8 685.75,-8 685.75,-8 691.75,-8 697.75,-14 697.75,-20 697.75,-20 697.75,-300 697.75,-300 697.75,-306 691.75,-312 685.75,-312 685.75,-312 20,-312 20,-312 14,-312 8,-306 8,-300 8,-300 8,-20 8,-20 8,-14 14,-8 20,-8"/>
<text text-anchor="middle" x="352.88" y="-299.45" font-family="Helvetica,sans-Serif" font-weight="bold" font-size="9.00">src</text>
</g>
<g id="clust2" class="cluster">
<title>cluster_src/app</title>
<path fill="#ffffff" stroke="black" stroke-width="2" d="M28,-16C28,-16 222,-16 222,-16 228,-16 234,-22 234,-28 234,-28 234,-116 234,-116 234,-122 228,-128 222,-128 222,-128 28,-128 28,-128 22,-128 16,-122 16,-116 16,-116 16,-28 16,-28 16,-22 22,-16 28,-16"/>
<text text-anchor="middle" x="125" y="-115.45" font-family="Helvetica,sans-Serif" font-weight="bold" font-size="9.00">app</text>
</g>
<g id="clust3" class="cluster">
<title>cluster_src/app/providers</title>
<path fill="#ffffff" stroke="black" stroke-width="2" d="M98,-50C98,-50 214,-50 214,-50 220,-50 226,-56 226,-62 226,-62 226,-90 226,-90 226,-96 220,-102 214,-102 214,-102 98,-102 98,-102 92,-102 86,-96 86,-90 86,-90 86,-62 86,-62 86,-56 92,-50 98,-50"/>
<text text-anchor="middle" x="156" y="-89.45" font-family="Helvetica,sans-Serif" font-weight="bold" font-size="9.00">providers</text>
</g>
<g id="clust4" class="cluster">
<title>cluster_src/entities</title>
<path fill="#ffffff" stroke="black" stroke-width="2" d="M404.25,-118C404.25,-118 526.62,-118 526.62,-118 532.62,-118 538.62,-124 538.62,-130 538.62,-130 538.62,-188 538.62,-188 538.62,-194 532.62,-200 526.62,-200 526.62,-200 404.25,-200 404.25,-200 398.25,-200 392.25,-194 392.25,-188 392.25,-188 392.25,-130 392.25,-130 392.25,-124 398.25,-118 404.25,-118"/>
<text text-anchor="middle" x="465.44" y="-187.45" font-family="Helvetica,sans-Serif" font-weight="bold" font-size="9.00">entities</text>
</g>
<g id="clust5" class="cluster">
<title>cluster_src/pages</title>
<path fill="#ffffff" stroke="black" stroke-width="2" d="M168,-136C168,-136 372.25,-136 372.25,-136 378.25,-136 384.25,-142 384.25,-148 384.25,-148 384.25,-274 384.25,-274 384.25,-280 378.25,-286 372.25,-286 372.25,-286 168,-286 168,-286 162,-286 156,-280 156,-274 156,-274 156,-148 156,-148 156,-142 162,-136 168,-136"/>
<text text-anchor="middle" x="270.12" y="-273.45" font-family="Helvetica,sans-Serif" font-weight="bold" font-size="9.00">pages</text>
</g>
<g id="clust6" class="cluster">
<title>cluster_src/pages/home</title>
<path fill="#ffffff" stroke="black" stroke-width="2" d="M254,-144C254,-144 364.25,-144 364.25,-144 370.25,-144 376.25,-150 376.25,-156 376.25,-156 376.25,-248 376.25,-248 376.25,-254 370.25,-260 364.25,-260 364.25,-260 254,-260 254,-260 248,-260 242,-254 242,-248 242,-248 242,-156 242,-156 242,-150 248,-144 254,-144"/>
<text text-anchor="start" x="297.12" y="-247.45" font-family="Helvetica,sans-Serif" font-weight="bold" font-size="9.00">home</text>
</g>
<g id="clust7" class="cluster">
<title>cluster_src/pages/home/@fractal&#45;widgets</title>
<path fill="#ffffff" stroke="black" stroke-width="2" d="M262,-152C262,-152 356.25,-152 356.25,-152 362.25,-152 368.25,-158 368.25,-164 368.25,-164 368.25,-222 368.25,-222 368.25,-228 362.25,-234 356.25,-234 356.25,-234 262,-234 262,-234 256,-234 250,-228 250,-222 250,-222 250,-164 250,-164 250,-158 256,-152 262,-152"/>
<text text-anchor="middle" x="309.12" y="-221.45" font-family="Helvetica,sans-Serif" font-weight="bold" font-size="9.00">@fractal&#45;widgets</text>
</g>
<g id="clust8" class="cluster">
<title>cluster_src/shared</title>
<path fill="#ffffff" stroke="black" stroke-width="2" d="M564.75,-140C564.75,-140 677.75,-140 677.75,-140 683.75,-140 689.75,-146 689.75,-152 689.75,-152 689.75,-210 689.75,-210 689.75,-216 683.75,-222 677.75,-222 677.75,-222 564.75,-222 564.75,-222 558.75,-222 552.75,-216 552.75,-210 552.75,-210 552.75,-152 552.75,-152 552.75,-146 558.75,-140 564.75,-140"/>
<text text-anchor="middle" x="621.25" y="-209.45" font-family="Helvetica,sans-Serif" font-weight="bold" font-size="9.00">shared</text>
</g>
<g id="clust9" class="cluster">
<title>cluster_src/widgets</title>
<path fill="#ffffff" stroke="black" stroke-width="2" d="M474.5,-54C474.5,-54 532.75,-54 532.75,-54 538.75,-54 544.75,-60 544.75,-66 544.75,-66 544.75,-94 544.75,-94 544.75,-100 538.75,-106 532.75,-106 532.75,-106 474.5,-106 474.5,-106 468.5,-106 462.5,-100 462.5,-94 462.5,-94 462.5,-66 462.5,-66 462.5,-60 468.5,-54 474.5,-54"/>
<text text-anchor="middle" x="503.62" y="-93.45" font-family="Helvetica,sans-Serif" font-weight="bold" font-size="9.00">widgets</text>
</g>
<!-- src/app/entry.css -->
<g id="node1" class="node">
<title>src/app/entry.css</title>
<g id="a_node1"><a xlink:href="src/app/entry.css" xlink:title="entry.css">
<path fill="#ffffcc" stroke="black" d="M142.08,-41.88C142.08,-41.88 99.92,-41.88 99.92,-41.88 96.96,-41.88 94,-38.92 94,-35.96 94,-35.96 94,-30.04 94,-30.04 94,-27.08 96.96,-24.12 99.92,-24.12 99.92,-24.12 142.08,-24.12 142.08,-24.12 145.04,-24.12 148,-27.08 148,-30.04 148,-30.04 148,-35.96 148,-35.96 148,-38.92 145.04,-41.88 142.08,-41.88"/>
<text text-anchor="start" x="103" y="-29.32" font-family="Helvetica,sans-Serif" font-size="9.00">entry.css</text>
</a>
</g>
</g>
<!-- src/app/entry.tsx -->
<g id="node2" class="node">
<title>src/app/entry.tsx</title>
<g id="a_node2"><a xlink:href="src/app/entry.tsx" xlink:title="entry.tsx">
<path fill="#bbfeff" stroke="black" d="M72.08,-58.88C72.08,-58.88 29.92,-58.88 29.92,-58.88 26.96,-58.88 24,-55.92 24,-52.96 24,-52.96 24,-47.04 24,-47.04 24,-44.08 26.96,-41.12 29.92,-41.12 29.92,-41.12 72.08,-41.12 72.08,-41.12 75.04,-41.12 78,-44.08 78,-47.04 78,-47.04 78,-52.96 78,-52.96 78,-55.92 75.04,-58.88 72.08,-58.88"/>
<text text-anchor="start" x="34.12" y="-46.33" font-family="Helvetica,sans-Serif" font-size="9.00">entry.tsx</text>
</a>
</g>
</g>
<!-- src/app/entry.tsx&#45;&gt;src/app/entry.css -->
<g id="edge1" class="edge">
<title>src/app/entry.tsx&#45;&gt;src/app/entry.css</title>
<path fill="none" stroke="#000000" stroke-width="2" stroke-opacity="0.200000" d="M78.49,-43.38C80.7,-42.82 82.97,-42.26 85.24,-41.69"/>
<polygon fill="#000000" fill-opacity="0.200000" stroke="#000000" stroke-width="2" stroke-opacity="0.200000" points="85.67,-43.75 90.99,-40.25 84.66,-39.67 85.67,-43.75"/>
</g>
<!-- src/app/providers/router/ -->
<g id="node3" class="node">
<title>src/app/providers/router/</title>
<g id="a_node3"><a xlink:href="src/app/providers/router/" xlink:title="router">
<polygon fill="#ffffcc" stroke="black" points="148,-75.88 95.97,-75.88 94,-73.9 94,-58.12 146.03,-58.12 148,-60.1 148,-75.88"/>
<polyline fill="none" stroke="black" points="146.03,-73.9 94,-73.9"/>
<polyline fill="none" stroke="black" points="146.03,-73.9 146.03,-58.12"/>
<polyline fill="none" stroke="black" points="146.03,-73.9 148,-75.88"/>
<text text-anchor="start" x="109" y="-63.33" font-family="Helvetica,sans-Serif" font-size="9.00">router</text>
</a>
</g>
</g>
<!-- src/app/entry.tsx&#45;&gt;src/app/providers/router/ -->
<g id="edge2" class="edge">
<title>src/app/entry.tsx&#45;&gt;src/app/providers/router/</title>
<path fill="none" stroke="#000000" stroke-width="2" stroke-opacity="0.200000" d="M78.49,-56.62C80.7,-57.18 82.97,-57.74 85.24,-58.31"/>
<polygon fill="#000000" fill-opacity="0.200000" stroke="#000000" stroke-width="2" stroke-opacity="0.200000" points="84.66,-60.33 90.99,-59.75 85.67,-56.25 84.66,-60.33"/>
</g>
<!-- src/app/providers/layout/ -->
<g id="node4" class="node">
<title>src/app/providers/layout/</title>
<g id="a_node4"><a xlink:href="src/app/providers/layout/" xlink:title="layout">
<polygon fill="#ffffcc" stroke="black" points="218,-75.88 165.97,-75.88 164,-73.9 164,-58.12 216.03,-58.12 218,-60.1 218,-75.88"/>
<polyline fill="none" stroke="black" points="216.03,-73.9 164,-73.9"/>
<polyline fill="none" stroke="black" points="216.03,-73.9 216.03,-58.12"/>
<polyline fill="none" stroke="black" points="216.03,-73.9 218,-75.88"/>
<text text-anchor="start" x="178.62" y="-63.33" font-family="Helvetica,sans-Serif" font-size="9.00">layout</text>
</a>
</g>
</g>
<!-- src/app/providers/router/&#45;&gt;src/app/providers/layout/ -->
<g id="edge5" class="edge">
<title>src/app/providers/router/&#45;&gt;src/app/providers/layout/</title>
<path fill="none" stroke="#000000" stroke-width="2" stroke-opacity="0.200000" d="M148.49,-67C150.7,-67 152.97,-67 155.24,-67"/>
<polygon fill="#000000" fill-opacity="0.200000" stroke="#000000" stroke-width="2" stroke-opacity="0.200000" points="154.9,-69.1 160.9,-67 154.9,-64.9 154.9,-69.1"/>
</g>
<!-- src/pages/home/ -->
<g id="node7" class="node">
<title>src/pages/home/</title>
<g id="a_node7"><a xlink:href="src/pages/home/" xlink:title="home">
<polygon fill="#ffffcc" stroke="black" points="218,-191.88 165.97,-191.88 164,-189.9 164,-174.12 216.03,-174.12 218,-176.1 218,-191.88"/>
<polyline fill="none" stroke="black" points="216.03,-189.9 164,-189.9"/>
<polyline fill="none" stroke="black" points="216.03,-189.9 216.03,-174.12"/>
<polyline fill="none" stroke="black" points="216.03,-189.9 218,-191.88"/>
<text text-anchor="start" x="179.38" y="-179.32" font-family="Helvetica,sans-Serif" font-size="9.00">home</text>
</a>
</g>
</g>
<!-- src/app/providers/router/&#45;&gt;src/pages/home/ -->
<g id="edge6" class="edge">
<title>src/app/providers/router/&#45;&gt;src/pages/home/</title>
<path fill="none" stroke="#000000" stroke-width="2" stroke-opacity="0.200000" d="M122.67,-76.33C124.54,-95.78 131.42,-141.08 156,-168 156.27,-168.3 156.55,-168.59 156.84,-168.88"/>
<polygon fill="#000000" fill-opacity="0.200000" stroke="#000000" stroke-width="2" stroke-opacity="0.200000" points="155.19,-170.26 161.22,-172.27 157.76,-166.93 155.19,-170.26"/>
</g>
<!-- src/pages/profile/ -->
<g id="node8" class="node">
<title>src/pages/profile/</title>
<g id="a_node8"><a xlink:href="src/pages/profile/" xlink:title="profile">
<polygon fill="#ffffcc" stroke="black" points="218,-161.88 165.97,-161.88 164,-159.9 164,-144.12 216.03,-144.12 218,-146.1 218,-161.88"/>
<polyline fill="none" stroke="black" points="216.03,-159.9 164,-159.9"/>
<polyline fill="none" stroke="black" points="216.03,-159.9 216.03,-144.12"/>
<polyline fill="none" stroke="black" points="216.03,-159.9 218,-161.88"/>
<text text-anchor="start" x="178.25" y="-149.32" font-family="Helvetica,sans-Serif" font-size="9.00">profile</text>
</a>
</g>
</g>
<!-- src/app/providers/router/&#45;&gt;src/pages/profile/ -->
<g id="edge7" class="edge">
<title>src/app/providers/router/&#45;&gt;src/pages/profile/</title>
<path fill="none" stroke="#000000" stroke-width="2" stroke-opacity="0.200000" d="M129.28,-76.2C140.73,-90.69 163.11,-118.99 177.27,-136.9"/>
<polygon fill="#000000" fill-opacity="0.200000" stroke="#000000" stroke-width="2" stroke-opacity="0.200000" points="175.53,-138.08 180.9,-141.49 178.82,-135.48 175.53,-138.08"/>
</g>
<!-- src/entities/session/ -->
<g id="node5" class="node">
<title>src/entities/session/</title>
<g id="a_node5"><a xlink:href="src/entities/session/" xlink:title="session">
<polygon fill="#ffffcc" stroke="black" points="530.62,-143.88 478.6,-143.88 476.62,-141.9 476.62,-126.12 528.65,-126.12 530.62,-128.1 530.62,-143.88"/>
<polyline fill="none" stroke="black" points="528.65,-141.9 476.62,-141.9"/>
<polyline fill="none" stroke="black" points="528.65,-141.9 528.65,-126.12"/>
<polyline fill="none" stroke="black" points="528.65,-141.9 530.62,-143.88"/>
<text text-anchor="start" x="487.88" y="-131.32" font-family="Helvetica,sans-Serif" font-size="9.00">session</text>
</a>
</g>
</g>
<!-- src/app/providers/layout/&#45;&gt;src/entities/session/ -->
<g id="edge3" class="edge">
<title>src/app/providers/layout/&#45;&gt;src/entities/session/</title>
<path fill="none" stroke="#000000" stroke-width="2" stroke-opacity="0.200000" d="M218.33,-70.24C275.79,-77.48 410.78,-95.48 454.5,-110 463.25,-112.91 472.36,-117.25 480.26,-121.51"/>
<polygon fill="#000000" fill-opacity="0.200000" stroke="#000000" stroke-width="2" stroke-opacity="0.200000" points="479.09,-123.26 485.35,-124.36 481.15,-119.6 479.09,-123.26"/>
</g>
<!-- src/widgets/LoginDialog/ -->
<g id="node6" class="node">
<title>src/widgets/LoginDialog/</title>
<g id="a_node6"><a xlink:href="src/widgets/LoginDialog/" xlink:title="LoginDialog">
<polygon fill="#ffffcc" stroke="black" points="536.75,-79.88 472.47,-79.88 470.5,-77.9 470.5,-62.12 534.78,-62.12 536.75,-64.1 536.75,-79.88"/>
<polyline fill="none" stroke="black" points="534.78,-77.9 470.5,-77.9"/>
<polyline fill="none" stroke="black" points="534.78,-77.9 534.78,-62.12"/>
<polyline fill="none" stroke="black" points="534.78,-77.9 536.75,-79.88"/>
<text text-anchor="start" x="478.5" y="-67.33" font-family="Helvetica,sans-Serif" font-size="9.00">LoginDialog</text>
</a>
</g>
</g>
<!-- src/app/providers/layout/&#45;&gt;src/widgets/LoginDialog/ -->
<g id="edge4" class="edge">
<title>src/app/providers/layout/&#45;&gt;src/widgets/LoginDialog/</title>
<path fill="none" stroke="#000000" stroke-width="2" stroke-opacity="0.200000" d="M218.48,-67.34C272.71,-68.04 396.72,-69.64 461.5,-70.47"/>
<polygon fill="#000000" fill-opacity="0.200000" stroke="#000000" stroke-width="2" stroke-opacity="0.200000" points="461.19,-72.57 467.21,-70.54 461.24,-68.37 461.19,-72.57"/>
</g>
<!-- src/shared/api/ -->
<g id="node10" class="node">
<title>src/shared/api/</title>
<g id="a_node10"><a xlink:href="src/shared/api/" xlink:title="api">
<polygon fill="#ffffcc" stroke="black" points="614.75,-165.88 562.72,-165.88 560.75,-163.9 560.75,-148.12 612.78,-148.12 614.75,-150.1 614.75,-165.88"/>
<polyline fill="none" stroke="black" points="612.78,-163.9 560.75,-163.9"/>
<polyline fill="none" stroke="black" points="612.78,-163.9 612.78,-148.12"/>
<polyline fill="none" stroke="black" points="612.78,-163.9 614.75,-165.88"/>
<text text-anchor="start" x="581.38" y="-153.32" font-family="Helvetica,sans-Serif" font-size="9.00">api</text>
</a>
</g>
</g>
<!-- src/entities/session/&#45;&gt;src/shared/api/ -->
<g id="edge9" class="edge">
<title>src/entities/session/&#45;&gt;src/shared/api/</title>
<path fill="none" stroke="#000000" stroke-width="2" stroke-opacity="0.200000" d="M531.06,-142.08C537.66,-143.85 544.83,-145.77 551.76,-147.63"/>
<polygon fill="#000000" fill-opacity="0.200000" stroke="#000000" stroke-width="2" stroke-opacity="0.200000" points="551.1,-149.62 557.44,-149.15 552.19,-145.57 551.1,-149.62"/>
</g>
<!-- src/widgets/LoginDialog/&#45;&gt;src/shared/api/ -->
<g id="edge20" class="edge">
<title>src/widgets/LoginDialog/&#45;&gt;src/shared/api/</title>
<path fill="none" stroke="#000000" stroke-width="2" stroke-opacity="0.200000" d="M513.41,-80.2C527.37,-94.82 554.76,-123.5 571.83,-141.37"/>
<polygon fill="#000000" fill-opacity="0.200000" stroke="#000000" stroke-width="2" stroke-opacity="0.200000" points="570.27,-142.78 575.93,-145.67 573.31,-139.88 570.27,-142.78"/>
</g>
<!-- src/pages/home/@fractal&#45;widgets/SearchPokemonById/ -->
<g id="node12" class="node">
<title>src/pages/home/@fractal&#45;widgets/SearchPokemonById/</title>
<g id="a_node12"><a xlink:href="src/pages/home/@fractal-widgets/SearchPokemonById/" xlink:title="SearchPokemonById">
<polygon fill="#ffffcc" stroke="black" points="360.25,-207.88 259.97,-207.88 258,-205.9 258,-190.12 358.28,-190.12 360.25,-192.1 360.25,-207.88"/>
<polyline fill="none" stroke="black" points="358.28,-205.9 258,-205.9"/>
<polyline fill="none" stroke="black" points="358.28,-205.9 358.28,-190.12"/>
<polyline fill="none" stroke="black" points="358.28,-205.9 360.25,-207.88"/>
<text text-anchor="start" x="266" y="-195.32" font-family="Helvetica,sans-Serif" font-size="9.00">SearchPokemonById</text>
</a>
</g>
</g>
<!-- src/pages/home/&#45;&gt;src/pages/home/@fractal&#45;widgets/SearchPokemonById/ -->
<g id="edge12" class="edge">
<title>src/pages/home/&#45;&gt;src/pages/home/@fractal&#45;widgets/SearchPokemonById/</title>
<path fill="none" stroke="#000000" stroke-width="2" stroke-opacity="0.200000" d="M218.35,-186.63C227.45,-187.88 238.04,-189.34 248.7,-190.81"/>
<polygon fill="#000000" fill-opacity="0.200000" stroke="#000000" stroke-width="2" stroke-opacity="0.200000" points="248.4,-192.89 254.63,-191.63 248.98,-188.73 248.4,-192.89"/>
</g>
<!-- src/pages/home/@fractal&#45;widgets/StrongestPokemons/ -->
<g id="node13" class="node">
<title>src/pages/home/@fractal&#45;widgets/StrongestPokemons/</title>
<g id="a_node13"><a xlink:href="src/pages/home/@fractal-widgets/StrongestPokemons/" xlink:title="StrongestPokemons">
<polygon fill="#ffffcc" stroke="black" points="358.38,-177.88 261.85,-177.88 259.88,-175.9 259.88,-160.12 356.4,-160.12 358.38,-162.1 358.38,-177.88"/>
<polyline fill="none" stroke="black" points="356.4,-175.9 259.88,-175.9"/>
<polyline fill="none" stroke="black" points="356.4,-175.9 356.4,-160.12"/>
<polyline fill="none" stroke="black" points="356.4,-175.9 358.38,-177.88"/>
<text text-anchor="start" x="267.88" y="-165.32" font-family="Helvetica,sans-Serif" font-size="9.00">StrongestPokemons</text>
</a>
</g>
</g>
<!-- src/pages/home/&#45;&gt;src/pages/home/@fractal&#45;widgets/StrongestPokemons/ -->
<g id="edge13" class="edge">
<title>src/pages/home/&#45;&gt;src/pages/home/@fractal&#45;widgets/StrongestPokemons/</title>
<path fill="none" stroke="#000000" stroke-width="2" stroke-opacity="0.200000" d="M218.35,-179.82C228.06,-178.65 239.47,-177.28 250.84,-175.91"/>
<polygon fill="#000000" fill-opacity="0.200000" stroke="#000000" stroke-width="2" stroke-opacity="0.200000" points="250.78,-178.03 256.49,-175.23 250.28,-173.86 250.78,-178.03"/>
</g>
<!-- src/pages/profile/&#45;&gt;src/entities/session/ -->
<g id="edge17" class="edge">
<title>src/pages/profile/&#45;&gt;src/entities/session/</title>
<path fill="none" stroke="#000000" stroke-width="2" stroke-opacity="0.200000" d="M214.05,-143.74C222.63,-140.49 232.64,-137.12 242,-135 334.34,-114.1 360.9,-105.75 454.5,-120 459.37,-120.74 464.42,-121.88 469.34,-123.21"/>
<polygon fill="#000000" fill-opacity="0.200000" stroke="#000000" stroke-width="2" stroke-opacity="0.200000" points="468.73,-125.22 475.08,-124.9 469.92,-121.19 468.73,-125.22"/>
</g>
<!-- src/entities/user/ -->
<g id="node11" class="node">
<title>src/entities/user/</title>
<g id="a_node11"><a xlink:href="src/entities/user/" xlink:title="user">
<polygon fill="#ffffcc" stroke="black" points="454.38,-143.88 402.35,-143.88 400.38,-141.9 400.38,-126.12 452.4,-126.12 454.38,-128.1 454.38,-143.88"/>
<polyline fill="none" stroke="black" points="452.4,-141.9 400.38,-141.9"/>
<polyline fill="none" stroke="black" points="452.4,-141.9 452.4,-126.12"/>
<polyline fill="none" stroke="black" points="452.4,-141.9 454.38,-143.88"/>
<text text-anchor="start" x="418.38" y="-131.32" font-family="Helvetica,sans-Serif" font-size="9.00">user</text>
</a>
</g>
</g>
<!-- src/pages/profile/&#45;&gt;src/entities/user/ -->
<g id="edge18" class="edge">
<title>src/pages/profile/&#45;&gt;src/entities/user/</title>
<path fill="none" stroke="#000000" stroke-width="2" stroke-opacity="0.200000" d="M218.47,-150.86C226.06,-150.25 234.36,-149.6 242,-149 293.93,-144.95 354.09,-140.41 391.2,-137.63"/>
<polygon fill="#000000" fill-opacity="0.200000" stroke="#000000" stroke-width="2" stroke-opacity="0.200000" points="391.27,-139.73 397.1,-137.19 390.96,-135.54 391.27,-139.73"/>
</g>
<!-- src/entities/pokemon/ -->
<g id="node9" class="node">
<title>src/entities/pokemon/</title>
<g id="a_node9"><a xlink:href="src/entities/pokemon/" xlink:title="pokemon">
<polygon fill="#ffffcc" stroke="black" points="454.5,-173.88 402.22,-173.88 400.25,-171.9 400.25,-156.12 452.53,-156.12 454.5,-158.1 454.5,-173.88"/>
<polyline fill="none" stroke="black" points="452.53,-171.9 400.25,-171.9"/>
<polyline fill="none" stroke="black" points="452.53,-171.9 452.53,-156.12"/>
<polyline fill="none" stroke="black" points="452.53,-171.9 454.5,-173.88"/>
<text text-anchor="start" x="408.25" y="-161.32" font-family="Helvetica,sans-Serif" font-size="9.00">pokemon</text>
</a>
</g>
</g>
<!-- src/entities/pokemon/&#45;&gt;src/shared/api/ -->
<g id="edge8" class="edge">
<title>src/entities/pokemon/&#45;&gt;src/shared/api/</title>
<path fill="none" stroke="#000000" stroke-width="2" stroke-opacity="0.200000" d="M454.74,-164.55C478.34,-164.04 513.88,-163 544.75,-161 546.99,-160.86 549.29,-160.69 551.61,-160.5"/>
<polygon fill="#000000" fill-opacity="0.200000" stroke="#000000" stroke-width="2" stroke-opacity="0.200000" points="551.74,-162.6 557.54,-160 551.38,-158.42 551.74,-162.6"/>
</g>
<!-- src/shared/lib/ -->
<g id="node15" class="node">
<title>src/shared/lib/</title>
<g id="a_node15"><a xlink:href="src/shared/lib/" xlink:title="lib">
<polygon fill="#ccffcc" stroke="black" points="681.75,-165.88 629.72,-165.88 627.75,-163.9 627.75,-148.12 679.78,-148.12 681.75,-150.1 681.75,-165.88"/>
<polyline fill="none" stroke="black" points="679.78,-163.9 627.75,-163.9"/>
<polyline fill="none" stroke="black" points="679.78,-163.9 679.78,-148.12"/>
<polyline fill="none" stroke="black" points="679.78,-163.9 681.75,-165.88"/>
<text text-anchor="start" x="649.88" y="-153.32" font-family="Helvetica,sans-Serif" font-size="9.00">lib</text>
</a>
</g>
</g>
<!-- src/shared/api/&#45;&gt;src/shared/lib/ -->
<g id="edge19" class="edge">
<title>src/shared/api/&#45;&gt;src/shared/lib/</title>
<path fill="none" stroke="#000000" stroke-width="2" stroke-opacity="0.200000" d="M615.19,-157C616.33,-157 617.49,-157 618.65,-157"/>
<polygon fill="#000000" fill-opacity="0.200000" stroke="#000000" stroke-width="2" stroke-opacity="0.200000" points="618.52,-159.1 624.52,-157 618.52,-154.9 618.52,-159.1"/>
</g>
<!-- src/entities/user/&#45;&gt;src/entities/session/ -->
<g id="edge10" class="edge">
<title>src/entities/user/&#45;&gt;src/entities/session/</title>
<path fill="none" stroke="#000000" stroke-width="2" stroke-opacity="0.200000" d="M454.76,-135C458.92,-135 463.27,-135 467.59,-135"/>
<polygon fill="#000000" fill-opacity="0.200000" stroke="#000000" stroke-width="2" stroke-opacity="0.200000" points="467.3,-137.1 473.3,-135 467.3,-132.9 467.3,-137.1"/>
</g>
<!-- src/entities/user/&#45;&gt;src/shared/api/ -->
<g id="edge11" class="edge">
<title>src/entities/user/&#45;&gt;src/shared/api/</title>
<path fill="none" stroke="#000000" stroke-width="2" stroke-opacity="0.200000" d="M446.37,-144.34C451.46,-146.58 457.09,-148.7 462.5,-150 492.07,-157.09 526.67,-158.5 551.84,-158.33"/>
<polygon fill="#000000" fill-opacity="0.200000" stroke="#000000" stroke-width="2" stroke-opacity="0.200000" points="551.66,-160.43 557.63,-158.25 551.6,-156.23 551.66,-160.43"/>
</g>
<!-- src/pages/home/@fractal&#45;widgets/SearchPokemonById/&#45;&gt;src/entities/pokemon/ -->
<g id="edge14" class="edge">
<title>src/pages/home/@fractal&#45;widgets/SearchPokemonById/&#45;&gt;src/entities/pokemon/</title>
<path fill="none" stroke="#000000" stroke-width="2" stroke-opacity="0.200000" d="M360.36,-190.42C368.43,-188.59 376.63,-186.46 384.25,-184 389.56,-182.29 395.1,-180.1 400.34,-177.83"/>
<polygon fill="#000000" fill-opacity="0.200000" stroke="#000000" stroke-width="2" stroke-opacity="0.200000" points="400.92,-179.88 405.52,-175.49 399.18,-176.05 400.92,-179.88"/>
</g>
<!-- src/shared/ui/ -->
<g id="node14" class="node">
<title>src/shared/ui/</title>
<g id="a_node14"><a xlink:href="src/shared/ui/" xlink:title="ui">
<polygon fill="#ffffcc" stroke="black" points="614.75,-195.88 562.72,-195.88 560.75,-193.9 560.75,-178.12 612.78,-178.12 614.75,-180.1 614.75,-195.88"/>
<polyline fill="none" stroke="black" points="612.78,-193.9 560.75,-193.9"/>
<polyline fill="none" stroke="black" points="612.78,-193.9 612.78,-178.12"/>
<polyline fill="none" stroke="black" points="612.78,-193.9 614.75,-195.88"/>
<text text-anchor="start" x="584" y="-183.32" font-family="Helvetica,sans-Serif" font-size="9.00">ui</text>
</a>
</g>
</g>
<!-- src/pages/home/@fractal&#45;widgets/SearchPokemonById/&#45;&gt;src/shared/ui/ -->
<g id="edge15" class="edge">
<title>src/pages/home/@fractal&#45;widgets/SearchPokemonById/&#45;&gt;src/shared/ui/</title>
<path fill="none" stroke="#000000" stroke-width="2" stroke-opacity="0.200000" d="M360.49,-205.57C408.32,-210.48 482.05,-214.54 544.75,-203 549.24,-202.17 553.87,-200.89 558.34,-199.4"/>
<polygon fill="#000000" fill-opacity="0.200000" stroke="#000000" stroke-width="2" stroke-opacity="0.200000" points="558.92,-201.43 563.83,-197.39 557.47,-197.48 558.92,-201.43"/>
</g>
<!-- src/pages/home/@fractal&#45;widgets/StrongestPokemons/&#45;&gt;src/entities/pokemon/ -->
<g id="edge16" class="edge">
<title>src/pages/home/@fractal&#45;widgets/StrongestPokemons/&#45;&gt;src/entities/pokemon/</title>
<path fill="none" stroke="#000000" stroke-width="2" stroke-opacity="0.200000" d="M358.75,-167.33C369.52,-166.96 380.73,-166.57 390.86,-166.22"/>
<polygon fill="#000000" fill-opacity="0.200000" stroke="#000000" stroke-width="2" stroke-opacity="0.200000" points="390.86,-168.32 396.78,-166.02 390.72,-164.13 390.86,-168.32"/>
</g>
</g>
</svg>
