<?xml version="1.0" encoding="UTF-8" standalone="no"?>
<!DOCTYPE svg PUBLIC "-//W3C//DTD SVG 1.1//EN"
 "http://www.w3.org/Graphics/SVG/1.1/DTD/svg11.dtd">
<!-- Generated by graphviz version 12.0.0 (20240704.0754)
 -->
<!-- Title: dependency&#45;cruiser output Pages: 1 -->
<svg width="575pt" height="260pt"
 viewBox="0.00 0.00 574.75 260.00" xmlns="http://www.w3.org/2000/svg" xmlns:xlink="http://www.w3.org/1999/xlink">
<g id="graph0" class="graph" transform="scale(1 1) rotate(0) translate(4 256)">
<title>dependency&#45;cruiser output</title>
<polygon fill="white" stroke="none" points="-4,4 -4,-256 570.75,-256 570.75,4 -4,4"/>
<g id="clust1" class="cluster">
<title>cluster_src</title>
<path fill="#ffffff" stroke="black" stroke-width="2" d="M20,-8C20,-8 546.75,-8 546.75,-8 552.75,-8 558.75,-14 558.75,-20 558.75,-20 558.75,-232 558.75,-232 558.75,-238 552.75,-244 546.75,-244 546.75,-244 20,-244 20,-244 14,-244 8,-238 8,-232 8,-232 8,-20 8,-20 8,-14 14,-8 20,-8"/>
<text text-anchor="middle" x="283.38" y="-231.45" font-family="Helvetica,sans-Serif" font-weight="bold" font-size="9.00">src</text>
</g>
<g id="clust2" class="cluster">
<title>cluster_src/app</title>
<path fill="#ffffff" stroke="black" stroke-width="2" d="M28,-16C28,-16 222,-16 222,-16 228,-16 234,-22 234,-28 234,-28 234,-116 234,-116 234,-122 228,-128 222,-128 222,-128 28,-128 28,-128 22,-128 16,-122 16,-116 16,-116 16,-28 16,-28 16,-22 22,-16 28,-16"/>
<text text-anchor="middle" x="125" y="-115.45" font-family="Helvetica,sans-Serif" font-weight="bold" font-size="9.00">app</text>
</g>
<g id="clust3" class="cluster">
<title>cluster_src/app/providers</title>
<path fill="#ffffff" stroke="black" stroke-width="2" d="M98,-50C98,-50 214,-50 214,-50 220,-50 226,-56 226,-62 226,-62 226,-90 226,-90 226,-96 220,-102 214,-102 214,-102 98,-102 98,-102 92,-102 86,-96 86,-90 86,-90 86,-62 86,-62 86,-56 92,-50 98,-50"/>
<text text-anchor="middle" x="156" y="-89.45" font-family="Helvetica,sans-Serif" font-weight="bold" font-size="9.00">providers</text>
</g>
<g id="clust4" class="cluster">
<title>cluster_src/entities</title>
<path fill="#ffffff" stroke="black" stroke-width="2" d="M254,-92C254,-92 376.38,-92 376.38,-92 382.38,-92 388.38,-98 388.38,-104 388.38,-104 388.38,-162 388.38,-162 388.38,-168 382.38,-174 376.38,-174 376.38,-174 254,-174 254,-174 248,-174 242,-168 242,-162 242,-162 242,-104 242,-104 242,-98 248,-92 254,-92"/>
<text text-anchor="middle" x="315.19" y="-161.45" font-family="Helvetica,sans-Serif" font-weight="bold" font-size="9.00">entities</text>
</g>
<g id="clust5" class="cluster">
<title>cluster_src/pages</title>
<path fill="#ffffff" stroke="black" stroke-width="2" d="M168,-136C168,-136 214,-136 214,-136 220,-136 226,-142 226,-148 226,-148 226,-206 226,-206 226,-212 220,-218 214,-218 214,-218 168,-218 168,-218 162,-218 156,-212 156,-206 156,-206 156,-148 156,-148 156,-142 162,-136 168,-136"/>
<text text-anchor="middle" x="191" y="-205.45" font-family="Helvetica,sans-Serif" font-weight="bold" font-size="9.00">pages</text>
</g>
<g id="clust6" class="cluster">
<title>cluster_src/shared</title>
<path fill="#ffffff" stroke="black" stroke-width="2" d="M414.5,-76C414.5,-76 538.75,-76 538.75,-76 544.75,-76 550.75,-82 550.75,-88 550.75,-88 550.75,-206 550.75,-206 550.75,-212 544.75,-218 538.75,-218 538.75,-218 414.5,-218 414.5,-218 408.5,-218 402.5,-212 402.5,-206 402.5,-206 402.5,-88 402.5,-88 402.5,-82 408.5,-76 414.5,-76"/>
<text text-anchor="middle" x="476.62" y="-205.45" font-family="Helvetica,sans-Serif" font-weight="bold" font-size="9.00">shared</text>
</g>
<g id="clust7" class="cluster">
<title>cluster_src/shared/api</title>
<path fill="#ffffff" stroke="black" stroke-width="2" d="M422.5,-84C422.5,-84 468.75,-84 468.75,-84 474.75,-84 480.75,-90 480.75,-96 480.75,-96 480.75,-154 480.75,-154 480.75,-160 474.75,-166 468.75,-166 468.75,-166 422.5,-166 422.5,-166 416.5,-166 410.5,-160 410.5,-154 410.5,-154 410.5,-96 410.5,-96 410.5,-90 416.5,-84 422.5,-84"/>
<text text-anchor="middle" x="445.62" y="-153.45" font-family="Helvetica,sans-Serif" font-weight="bold" font-size="9.00">api</text>
</g>
<g id="clust8" class="cluster">
<title>cluster_src/widgets</title>
<path fill="#ffffff" stroke="black" stroke-width="2" d="M324.25,-32C324.25,-32 382.5,-32 382.5,-32 388.5,-32 394.5,-38 394.5,-44 394.5,-44 394.5,-72 394.5,-72 394.5,-78 388.5,-84 382.5,-84 382.5,-84 324.25,-84 324.25,-84 318.25,-84 312.25,-78 312.25,-72 312.25,-72 312.25,-44 312.25,-44 312.25,-38 318.25,-32 324.25,-32"/>
<text text-anchor="middle" x="353.38" y="-71.45" font-family="Helvetica,sans-Serif" font-weight="bold" font-size="9.00">widgets</text>
</g>
<!-- src/app/entry.css -->
<g id="node1" class="node">
<title>src/app/entry.css</title>
<g id="a_node1"><a xlink:href="src/app/entry.css" xlink:title="entry.css">
<path fill="#ffffcc" stroke="black" d="M142.08,-41.88C142.08,-41.88 99.92,-41.88 99.92,-41.88 96.96,-41.88 94,-38.92 94,-35.96 94,-35.96 94,-30.04 94,-30.04 94,-27.08 96.96,-24.12 99.92,-24.12 99.92,-24.12 142.08,-24.12 142.08,-24.12 145.04,-24.12 148,-27.08 148,-30.04 148,-30.04 148,-35.96 148,-35.96 148,-38.92 145.04,-41.88 142.08,-41.88"/>
<text text-anchor="start" x="103" y="-29.32" font-family="Helvetica,sans-Serif" font-size="9.00">entry.css</text>
</a>
</g>
</g>
<!-- src/app/entry.tsx -->
<g id="node2" class="node">
<title>src/app/entry.tsx</title>
<g id="a_node2"><a xlink:href="src/app/entry.tsx" xlink:title="entry.tsx">
<path fill="#bbfeff" stroke="black" d="M72.08,-58.88C72.08,-58.88 29.92,-58.88 29.92,-58.88 26.96,-58.88 24,-55.92 24,-52.96 24,-52.96 24,-47.04 24,-47.04 24,-44.08 26.96,-41.12 29.92,-41.12 29.92,-41.12 72.08,-41.12 72.08,-41.12 75.04,-41.12 78,-44.08 78,-47.04 78,-47.04 78,-52.96 78,-52.96 78,-55.92 75.04,-58.88 72.08,-58.88"/>
<text text-anchor="start" x="34.12" y="-46.33" font-family="Helvetica,sans-Serif" font-size="9.00">entry.tsx</text>
</a>
</g>
</g>
<!-- src/app/entry.tsx&#45;&gt;src/app/entry.css -->
<g id="edge1" class="edge">
<title>src/app/entry.tsx&#45;&gt;src/app/entry.css</title>
<path fill="none" stroke="#000000" stroke-width="2" stroke-opacity="0.200000" d="M78.49,-43.38C80.7,-42.82 82.97,-42.26 85.24,-41.69"/>
<polygon fill="#000000" fill-opacity="0.200000" stroke="#000000" stroke-width="2" stroke-opacity="0.200000" points="85.67,-43.75 90.99,-40.25 84.66,-39.67 85.67,-43.75"/>
</g>
<!-- src/app/providers/router/ -->
<g id="node3" class="node">
<title>src/app/providers/router/</title>
<g id="a_node3"><a xlink:href="src/app/providers/router/" xlink:title="router">
<polygon fill="#ffffcc" stroke="black" points="148,-75.88 95.97,-75.88 94,-73.9 94,-58.12 146.03,-58.12 148,-60.1 148,-75.88"/>
<polyline fill="none" stroke="black" points="146.03,-73.9 94,-73.9"/>
<polyline fill="none" stroke="black" points="146.03,-73.9 146.03,-58.12"/>
<polyline fill="none" stroke="black" points="146.03,-73.9 148,-75.88"/>
<text text-anchor="start" x="109" y="-63.33" font-family="Helvetica,sans-Serif" font-size="9.00">router</text>
</a>
</g>
</g>
<!-- src/app/entry.tsx&#45;&gt;src/app/providers/router/ -->
<g id="edge2" class="edge">
<title>src/app/entry.tsx&#45;&gt;src/app/providers/router/</title>
<path fill="none" stroke="#000000" stroke-width="2" stroke-opacity="0.200000" d="M78.49,-56.62C80.7,-57.18 82.97,-57.74 85.24,-58.31"/>
<polygon fill="#000000" fill-opacity="0.200000" stroke="#000000" stroke-width="2" stroke-opacity="0.200000" points="84.66,-60.33 90.99,-59.75 85.67,-56.25 84.66,-60.33"/>
</g>
<!-- src/app/providers/layout/ -->
<g id="node4" class="node">
<title>src/app/providers/layout/</title>
<g id="a_node4"><a xlink:href="src/app/providers/layout/" xlink:title="layout">
<polygon fill="#ffffcc" stroke="black" points="218,-75.88 165.97,-75.88 164,-73.9 164,-58.12 216.03,-58.12 218,-60.1 218,-75.88"/>
<polyline fill="none" stroke="black" points="216.03,-73.9 164,-73.9"/>
<polyline fill="none" stroke="black" points="216.03,-73.9 216.03,-58.12"/>
<polyline fill="none" stroke="black" points="216.03,-73.9 218,-75.88"/>
<text text-anchor="start" x="178.62" y="-63.33" font-family="Helvetica,sans-Serif" font-size="9.00">layout</text>
</a>
</g>
</g>
<!-- src/app/providers/router/&#45;&gt;src/app/providers/layout/ -->
<g id="edge5" class="edge">
<title>src/app/providers/router/&#45;&gt;src/app/providers/layout/</title>
<path fill="none" stroke="#000000" stroke-width="2" stroke-opacity="0.200000" d="M148.49,-67C150.7,-67 152.97,-67 155.24,-67"/>
<polygon fill="#000000" fill-opacity="0.200000" stroke="#000000" stroke-width="2" stroke-opacity="0.200000" points="154.9,-69.1 160.9,-67 154.9,-64.9 154.9,-69.1"/>
</g>
<!-- src/pages/home/ -->
<g id="node7" class="node">
<title>src/pages/home/</title>
<g id="a_node7"><a xlink:href="src/pages/home/" xlink:title="home">
<polygon fill="#ffffcc" stroke="black" points="218,-191.88 165.97,-191.88 164,-189.9 164,-174.12 216.03,-174.12 218,-176.1 218,-191.88"/>
<polyline fill="none" stroke="black" points="216.03,-189.9 164,-189.9"/>
<polyline fill="none" stroke="black" points="216.03,-189.9 216.03,-174.12"/>
<polyline fill="none" stroke="black" points="216.03,-189.9 218,-191.88"/>
<text text-anchor="start" x="179.38" y="-179.32" font-family="Helvetica,sans-Serif" font-size="9.00">home</text>
</a>
</g>
</g>
<!-- src/app/providers/router/&#45;&gt;src/pages/home/ -->
<g id="edge6" class="edge">
<title>src/app/providers/router/&#45;&gt;src/pages/home/</title>
<path fill="none" stroke="#000000" stroke-width="2" stroke-opacity="0.200000" d="M122.67,-76.33C124.54,-95.78 131.42,-141.08 156,-168 156.27,-168.3 156.55,-168.59 156.84,-168.88"/>
<polygon fill="#000000" fill-opacity="0.200000" stroke="#000000" stroke-width="2" stroke-opacity="0.200000" points="155.19,-170.26 161.22,-172.27 157.76,-166.93 155.19,-170.26"/>
</g>
<!-- src/pages/profile/ -->
<g id="node8" class="node">
<title>src/pages/profile/</title>
<g id="a_node8"><a xlink:href="src/pages/profile/" xlink:title="profile">
<polygon fill="#ffffcc" stroke="black" points="218,-161.88 165.97,-161.88 164,-159.9 164,-144.12 216.03,-144.12 218,-146.1 218,-161.88"/>
<polyline fill="none" stroke="black" points="216.03,-159.9 164,-159.9"/>
<polyline fill="none" stroke="black" points="216.03,-159.9 216.03,-144.12"/>
<polyline fill="none" stroke="black" points="216.03,-159.9 218,-161.88"/>
<text text-anchor="start" x="178.25" y="-149.32" font-family="Helvetica,sans-Serif" font-size="9.00">profile</text>
</a>
</g>
</g>
<!-- src/app/providers/router/&#45;&gt;src/pages/profile/ -->
<g id="edge7" class="edge">
<title>src/app/providers/router/&#45;&gt;src/pages/profile/</title>
<path fill="none" stroke="#000000" stroke-width="2" stroke-opacity="0.200000" d="M129.28,-76.2C140.73,-90.69 163.11,-118.99 177.27,-136.9"/>
<polygon fill="#000000" fill-opacity="0.200000" stroke="#000000" stroke-width="2" stroke-opacity="0.200000" points="175.53,-138.08 180.9,-141.49 178.82,-135.48 175.53,-138.08"/>
</g>
<!-- src/entities/session/ -->
<g id="node5" class="node">
<title>src/entities/session/</title>
<g id="a_node5"><a xlink:href="src/entities/session/" xlink:title="session">
<polygon fill="#ffffcc" stroke="black" points="380.38,-117.88 328.35,-117.88 326.38,-115.9 326.38,-100.12 378.4,-100.12 380.38,-102.1 380.38,-117.88"/>
<polyline fill="none" stroke="black" points="378.4,-115.9 326.38,-115.9"/>
<polyline fill="none" stroke="black" points="378.4,-115.9 378.4,-100.12"/>
<polyline fill="none" stroke="black" points="378.4,-115.9 380.38,-117.88"/>
<text text-anchor="start" x="337.62" y="-105.33" font-family="Helvetica,sans-Serif" font-size="9.00">session</text>
</a>
</g>
</g>
<!-- src/app/providers/layout/&#45;&gt;src/entities/session/ -->
<g id="edge3" class="edge">
<title>src/app/providers/layout/&#45;&gt;src/entities/session/</title>
<path fill="none" stroke="#000000" stroke-width="2" stroke-opacity="0.200000" d="M218.46,-68.14C241.59,-69.75 275.83,-73.63 304.25,-83 305.63,-83.46 316.74,-89.45 327.94,-95.56"/>
<polygon fill="#000000" fill-opacity="0.200000" stroke="#000000" stroke-width="2" stroke-opacity="0.200000" points="326.66,-97.26 332.93,-98.3 328.68,-93.57 326.66,-97.26"/>
</g>
<!-- src/widgets/LoginDialog/ -->
<g id="node6" class="node">
<title>src/widgets/LoginDialog/</title>
<g id="a_node6"><a xlink:href="src/widgets/LoginDialog/" xlink:title="LoginDialog">
<polygon fill="#ffffcc" stroke="black" points="386.5,-57.88 322.22,-57.88 320.25,-55.9 320.25,-40.12 384.53,-40.12 386.5,-42.1 386.5,-57.88"/>
<polyline fill="none" stroke="black" points="384.53,-55.9 320.25,-55.9"/>
<polyline fill="none" stroke="black" points="384.53,-55.9 384.53,-40.12"/>
<polyline fill="none" stroke="black" points="384.53,-55.9 386.5,-57.88"/>
<text text-anchor="start" x="328.25" y="-45.33" font-family="Helvetica,sans-Serif" font-size="9.00">LoginDialog</text>
</a>
</g>
</g>
<!-- src/app/providers/layout/&#45;&gt;src/widgets/LoginDialog/ -->
<g id="edge4" class="edge">
<title>src/app/providers/layout/&#45;&gt;src/widgets/LoginDialog/</title>
<path fill="none" stroke="#000000" stroke-width="2" stroke-opacity="0.200000" d="M218.48,-64.03C243.64,-61.2 281.84,-56.92 311.01,-53.64"/>
<polygon fill="#000000" fill-opacity="0.200000" stroke="#000000" stroke-width="2" stroke-opacity="0.200000" points="311.02,-55.76 316.74,-53 310.55,-51.58 311.02,-55.76"/>
</g>
<!-- src/shared/api/base/ -->
<g id="node11" class="node">
<title>src/shared/api/base/</title>
<g id="a_node11"><a xlink:href="src/shared/api/base/" xlink:title="base">
<polygon fill="#ffffcc" stroke="black" points="472.62,-109.88 420.6,-109.88 418.62,-107.9 418.62,-92.12 470.65,-92.12 472.62,-94.1 472.62,-109.88"/>
<polyline fill="none" stroke="black" points="470.65,-107.9 418.62,-107.9"/>
<polyline fill="none" stroke="black" points="470.65,-107.9 470.65,-92.12"/>
<polyline fill="none" stroke="black" points="470.65,-107.9 472.62,-109.88"/>
<text text-anchor="start" x="435.5" y="-97.33" font-family="Helvetica,sans-Serif" font-size="9.00">base</text>
</a>
</g>
</g>
<!-- src/entities/session/&#45;&gt;src/shared/api/base/ -->
<g id="edge9" class="edge">
<title>src/entities/session/&#45;&gt;src/shared/api/base/</title>
<path fill="none" stroke="#000000" stroke-width="2" stroke-opacity="0.200000" d="M380.48,-106.69C389.47,-105.89 399.7,-104.98 409.31,-104.13"/>
<polygon fill="#000000" fill-opacity="0.200000" stroke="#000000" stroke-width="2" stroke-opacity="0.200000" points="409.46,-106.23 415.25,-103.6 409.09,-102.04 409.46,-106.23"/>
</g>
<!-- src/widgets/LoginDialog/&#45;&gt;src/shared/api/base/ -->
<g id="edge17" class="edge">
<title>src/widgets/LoginDialog/&#45;&gt;src/shared/api/base/</title>
<path fill="none" stroke="#000000" stroke-width="2" stroke-opacity="0.200000" d="M370.51,-58.3C384.63,-66.43 405.31,-78.35 421.24,-87.53"/>
<polygon fill="#000000" fill-opacity="0.200000" stroke="#000000" stroke-width="2" stroke-opacity="0.200000" points="419.76,-89.1 426.01,-90.27 421.86,-85.46 419.76,-89.1"/>
</g>
<!-- src/entities/pokemon/ -->
<g id="node9" class="node">
<title>src/entities/pokemon/</title>
<g id="a_node9"><a xlink:href="src/entities/pokemon/" xlink:title="pokemon">
<polygon fill="#ffffcc" stroke="black" points="304.25,-147.88 251.97,-147.88 250,-145.9 250,-130.12 302.28,-130.12 304.25,-132.1 304.25,-147.88"/>
<polyline fill="none" stroke="black" points="302.28,-145.9 250,-145.9"/>
<polyline fill="none" stroke="black" points="302.28,-145.9 302.28,-130.12"/>
<polyline fill="none" stroke="black" points="302.28,-145.9 304.25,-147.88"/>
<text text-anchor="start" x="258" y="-135.32" font-family="Helvetica,sans-Serif" font-size="9.00">pokemon</text>
</a>
</g>
</g>
<!-- src/pages/home/&#45;&gt;src/entities/pokemon/ -->
<g id="edge12" class="edge">
<title>src/pages/home/&#45;&gt;src/entities/pokemon/</title>
<path fill="none" stroke="#000000" stroke-width="2" stroke-opacity="0.200000" d="M218.21,-174.83C223.54,-172.84 229.04,-170.54 234,-168 242.01,-163.9 250.28,-158.5 257.35,-153.48"/>
<polygon fill="#000000" fill-opacity="0.200000" stroke="#000000" stroke-width="2" stroke-opacity="0.200000" points="258.44,-155.28 262.04,-150.04 255.96,-151.89 258.44,-155.28"/>
</g>
<!-- src/shared/ui/ -->
<g id="node13" class="node">
<title>src/shared/ui/</title>
<g id="a_node13"><a xlink:href="src/shared/ui/" xlink:title="ui">
<polygon fill="#ffffcc" stroke="black" points="472.62,-191.88 420.6,-191.88 418.62,-189.9 418.62,-174.12 470.65,-174.12 472.62,-176.1 472.62,-191.88"/>
<polyline fill="none" stroke="black" points="470.65,-189.9 418.62,-189.9"/>
<polyline fill="none" stroke="black" points="470.65,-189.9 470.65,-174.12"/>
<polyline fill="none" stroke="black" points="470.65,-189.9 472.62,-191.88"/>
<text text-anchor="start" x="441.88" y="-179.32" font-family="Helvetica,sans-Serif" font-size="9.00">ui</text>
</a>
</g>
</g>
<!-- src/pages/home/&#45;&gt;src/shared/ui/ -->
<g id="edge13" class="edge">
<title>src/pages/home/&#45;&gt;src/shared/ui/</title>
<path fill="none" stroke="#000000" stroke-width="2" stroke-opacity="0.200000" d="M218.08,-183C263.75,-183 358.2,-183 409.54,-183"/>
<polygon fill="#000000" fill-opacity="0.200000" stroke="#000000" stroke-width="2" stroke-opacity="0.200000" points="409.28,-185.1 415.28,-183 409.28,-180.9 409.28,-185.1"/>
</g>
<!-- src/pages/profile/&#45;&gt;src/entities/session/ -->
<g id="edge14" class="edge">
<title>src/pages/profile/&#45;&gt;src/entities/session/</title>
<path fill="none" stroke="#000000" stroke-width="2" stroke-opacity="0.200000" d="M200.63,-143.65C209.3,-134.13 222.95,-118.84 234,-105 237.77,-100.28 236.61,-96.74 242,-94 267.67,-80.93 300.84,-88.15 324.09,-96.47"/>
<polygon fill="#000000" fill-opacity="0.200000" stroke="#000000" stroke-width="2" stroke-opacity="0.200000" points="323.3,-98.42 329.65,-98.59 324.79,-94.49 323.3,-98.42"/>
</g>
<!-- src/entities/user/ -->
<g id="node12" class="node">
<title>src/entities/user/</title>
<g id="a_node12"><a xlink:href="src/entities/user/" xlink:title="user">
<polygon fill="#ffffcc" stroke="black" points="304.12,-117.88 252.1,-117.88 250.12,-115.9 250.12,-100.12 302.15,-100.12 304.12,-102.1 304.12,-117.88"/>
<polyline fill="none" stroke="black" points="302.15,-115.9 250.12,-115.9"/>
<polyline fill="none" stroke="black" points="302.15,-115.9 302.15,-100.12"/>
<polyline fill="none" stroke="black" points="302.15,-115.9 304.12,-117.88"/>
<text text-anchor="start" x="268.12" y="-105.33" font-family="Helvetica,sans-Serif" font-size="9.00">user</text>
</a>
</g>
</g>
<!-- src/pages/profile/&#45;&gt;src/entities/user/ -->
<g id="edge15" class="edge">
<title>src/pages/profile/&#45;&gt;src/entities/user/</title>
<path fill="none" stroke="#000000" stroke-width="2" stroke-opacity="0.200000" d="M207.07,-143.67C216.87,-137.75 230.01,-130.09 242,-124 243.31,-123.34 244.65,-122.67 246.02,-122.01"/>
<polygon fill="#000000" fill-opacity="0.200000" stroke="#000000" stroke-width="2" stroke-opacity="0.200000" points="246.63,-124.04 251.18,-119.61 244.86,-120.23 246.63,-124.04"/>
</g>
<!-- src/shared/api/pokemon/ -->
<g id="node10" class="node">
<title>src/shared/api/pokemon/</title>
<g id="a_node10"><a xlink:href="src/shared/api/pokemon/" xlink:title="pokemon">
<polygon fill="#ffffcc" stroke="black" points="472.75,-139.88 420.47,-139.88 418.5,-137.9 418.5,-122.12 470.78,-122.12 472.75,-124.1 472.75,-139.88"/>
<polyline fill="none" stroke="black" points="470.78,-137.9 418.5,-137.9"/>
<polyline fill="none" stroke="black" points="470.78,-137.9 470.78,-122.12"/>
<polyline fill="none" stroke="black" points="470.78,-137.9 472.75,-139.88"/>
<text text-anchor="start" x="426.5" y="-127.33" font-family="Helvetica,sans-Serif" font-size="9.00">pokemon</text>
</a>
</g>
</g>
<!-- src/entities/pokemon/&#45;&gt;src/shared/api/pokemon/ -->
<g id="edge8" class="edge">
<title>src/entities/pokemon/&#45;&gt;src/shared/api/pokemon/</title>
<path fill="none" stroke="#000000" stroke-width="2" stroke-opacity="0.200000" d="M304.49,-138.43C328.08,-137.85 363.62,-136.76 394.5,-135 399.29,-134.73 404.34,-134.39 409.31,-134.02"/>
<polygon fill="#000000" fill-opacity="0.200000" stroke="#000000" stroke-width="2" stroke-opacity="0.200000" points="409.27,-136.13 415.09,-133.57 408.94,-131.94 409.27,-136.13"/>
</g>
<!-- src/shared/lib/ -->
<g id="node14" class="node">
<title>src/shared/lib/</title>
<g id="a_node14"><a xlink:href="src/shared/lib/" xlink:title="lib">
<polygon fill="#ccffcc" stroke="black" points="542.75,-109.88 490.72,-109.88 488.75,-107.9 488.75,-92.12 540.78,-92.12 542.75,-94.1 542.75,-109.88"/>
<polyline fill="none" stroke="black" points="540.78,-107.9 488.75,-107.9"/>
<polyline fill="none" stroke="black" points="540.78,-107.9 540.78,-92.12"/>
<polyline fill="none" stroke="black" points="540.78,-107.9 542.75,-109.88"/>
<text text-anchor="start" x="510.88" y="-97.33" font-family="Helvetica,sans-Serif" font-size="9.00">lib</text>
</a>
</g>
</g>
<!-- src/shared/api/base/&#45;&gt;src/shared/lib/ -->
<g id="edge16" class="edge">
<title>src/shared/api/base/&#45;&gt;src/shared/lib/</title>
<path fill="none" stroke="#000000" stroke-width="2" stroke-opacity="0.200000" d="M472.77,-101C475,-101 477.28,-101 479.57,-101"/>
<polygon fill="#000000" fill-opacity="0.200000" stroke="#000000" stroke-width="2" stroke-opacity="0.200000" points="479.31,-103.1 485.31,-101 479.31,-98.9 479.31,-103.1"/>
</g>
<!-- src/entities/user/&#45;&gt;src/entities/session/ -->
<g id="edge10" class="edge">
<title>src/entities/user/&#45;&gt;src/entities/session/</title>
<path fill="none" stroke="#000000" stroke-width="2" stroke-opacity="0.200000" d="M304.51,-109C308.67,-109 313.02,-109 317.34,-109"/>
<polygon fill="#000000" fill-opacity="0.200000" stroke="#000000" stroke-width="2" stroke-opacity="0.200000" points="317.05,-111.1 323.05,-109 317.05,-106.9 317.05,-111.1"/>
</g>
<!-- src/entities/user/&#45;&gt;src/shared/api/base/ -->
<g id="edge11" class="edge">
<title>src/entities/user/&#45;&gt;src/shared/api/base/</title>
<path fill="none" stroke="#000000" stroke-width="2" stroke-opacity="0.200000" d="M295.37,-118.23C300.64,-120.59 306.55,-122.8 312.25,-124 348.02,-131.52 360.73,-137.99 394.5,-124 399.15,-122.08 398.25,-118.69 402.5,-116 404.93,-114.47 407.53,-113.06 410.22,-111.78"/>
<polygon fill="#000000" fill-opacity="0.200000" stroke="#000000" stroke-width="2" stroke-opacity="0.200000" points="410.9,-113.77 415.6,-109.49 409.26,-109.91 410.9,-113.77"/>
</g>
</g>
</svg>
