<?xml version="1.0" encoding="UTF-8" standalone="no"?>
<!DOCTYPE svg PUBLIC "-//W3C//DTD SVG 1.1//EN"
 "http://www.w3.org/Graphics/SVG/1.1/DTD/svg11.dtd">
<!-- Generated by graphviz version 12.0.0 (20240704.0754)
 -->
<!-- Title: dependency&#45;cruiser output Pages: 1 -->
<svg width="1555pt" height="754pt"
 viewBox="0.00 0.00 1554.75 754.00" xmlns="http://www.w3.org/2000/svg" xmlns:xlink="http://www.w3.org/1999/xlink">
<g id="graph0" class="graph" transform="scale(1 1) rotate(0) translate(4 750)">
<title>dependency&#45;cruiser output</title>
<polygon fill="white" stroke="none" points="-4,4 -4,-750 1550.75,-750 1550.75,4 -4,4"/>
<g id="clust1" class="cluster">
<title>cluster_src</title>
<path fill="#ffffff" stroke="black" stroke-width="2" d="M20,-8C20,-8 1526.75,-8 1526.75,-8 1532.75,-8 1538.75,-14 1538.75,-20 1538.75,-20 1538.75,-726 1538.75,-726 1538.75,-732 1532.75,-738 1526.75,-738 1526.75,-738 20,-738 20,-738 14,-738 8,-732 8,-726 8,-726 8,-20 8,-20 8,-14 14,-8 20,-8"/>
<text text-anchor="middle" x="773.38" y="-725.45" font-family="Helvetica,sans-Serif" font-weight="bold" font-size="9.00">src</text>
</g>
<g id="clust2" class="cluster">
<title>cluster_src/app</title>
<path fill="#ffffff" stroke="black" stroke-width="2" d="M28,-52C28,-52 342.5,-52 342.5,-52 348.5,-52 354.5,-58 354.5,-64 354.5,-64 354.5,-186 354.5,-186 354.5,-192 348.5,-198 342.5,-198 342.5,-198 28,-198 28,-198 22,-198 16,-192 16,-186 16,-186 16,-64 16,-64 16,-58 22,-52 28,-52"/>
<text text-anchor="middle" x="185.25" y="-185.45" font-family="Helvetica,sans-Serif" font-weight="bold" font-size="9.00">app</text>
</g>
<g id="clust3" class="cluster">
<title>cluster_src/app/providers</title>
<path fill="#ffffff" stroke="black" stroke-width="2" d="M98,-86C98,-86 334.5,-86 334.5,-86 340.5,-86 346.5,-92 346.5,-98 346.5,-98 346.5,-160 346.5,-160 346.5,-166 340.5,-172 334.5,-172 334.5,-172 98,-172 98,-172 92,-172 86,-166 86,-160 86,-160 86,-98 86,-98 86,-92 92,-86 98,-86"/>
<text text-anchor="middle" x="216.25" y="-159.45" font-family="Helvetica,sans-Serif" font-weight="bold" font-size="9.00">providers</text>
</g>
<g id="clust4" class="cluster">
<title>cluster_src/app/providers/layout</title>
<path fill="#ffffff" stroke="black" stroke-width="2" d="M221.75,-94C221.75,-94 326.5,-94 326.5,-94 332.5,-94 338.5,-100 338.5,-106 338.5,-106 338.5,-134 338.5,-134 338.5,-140 332.5,-146 326.5,-146 326.5,-146 221.75,-146 221.75,-146 215.75,-146 209.75,-140 209.75,-134 209.75,-134 209.75,-106 209.75,-106 209.75,-100 215.75,-94 221.75,-94"/>
<text text-anchor="middle" x="274.12" y="-133.45" font-family="Helvetica,sans-Serif" font-weight="bold" font-size="9.00">layout</text>
</g>
<g id="clust5" class="cluster">
<title>cluster_src/app/providers/router</title>
<path fill="#ffffff" stroke="black" stroke-width="2" d="M106,-94C106,-94 189.75,-94 189.75,-94 195.75,-94 201.75,-100 201.75,-106 201.75,-106 201.75,-134 201.75,-134 201.75,-140 195.75,-146 189.75,-146 189.75,-146 106,-146 106,-146 100,-146 94,-140 94,-134 94,-134 94,-106 94,-106 94,-100 100,-94 106,-94"/>
<text text-anchor="middle" x="147.88" y="-133.45" font-family="Helvetica,sans-Serif" font-weight="bold" font-size="9.00">router</text>
</g>
<g id="clust6" class="cluster">
<title>cluster_src/entities</title>
<path fill="#ffffff" stroke="black" stroke-width="2" d="M554.5,-168C554.5,-168 1130.75,-168 1130.75,-168 1136.75,-168 1142.75,-174 1142.75,-180 1142.75,-180 1142.75,-674 1142.75,-674 1142.75,-680 1136.75,-686 1130.75,-686 1130.75,-686 554.5,-686 554.5,-686 548.5,-686 542.5,-680 542.5,-674 542.5,-674 542.5,-180 542.5,-180 542.5,-174 548.5,-168 554.5,-168"/>
<text text-anchor="middle" x="842.62" y="-673.45" font-family="Helvetica,sans-Serif" font-weight="bold" font-size="9.00">entities</text>
</g>
<g id="clust7" class="cluster">
<title>cluster_src/entities/pokemon</title>
<path fill="#ffffff" stroke="black" stroke-width="2" d="M562.5,-454C562.5,-454 928.25,-454 928.25,-454 934.25,-454 940.25,-460 940.25,-466 940.25,-466 940.25,-648 940.25,-648 940.25,-654 934.25,-660 928.25,-660 928.25,-660 562.5,-660 562.5,-660 556.5,-660 550.5,-654 550.5,-648 550.5,-648 550.5,-466 550.5,-466 550.5,-460 556.5,-454 562.5,-454"/>
<text text-anchor="middle" x="745.38" y="-647.45" font-family="Helvetica,sans-Serif" font-weight="bold" font-size="9.00">pokemon</text>
</g>
<g id="clust8" class="cluster">
<title>cluster_src/entities/pokemon/api</title>
<path fill="#ffffff" stroke="black" stroke-width="2" d="M570.5,-582C570.5,-582 667.75,-582 667.75,-582 673.75,-582 679.75,-588 679.75,-594 679.75,-594 679.75,-622 679.75,-622 679.75,-628 673.75,-634 667.75,-634 667.75,-634 570.5,-634 570.5,-634 564.5,-634 558.5,-628 558.5,-622 558.5,-622 558.5,-594 558.5,-594 558.5,-588 564.5,-582 570.5,-582"/>
<text text-anchor="middle" x="619.12" y="-621.45" font-family="Helvetica,sans-Serif" font-weight="bold" font-size="9.00">api</text>
</g>
<g id="clust9" class="cluster">
<title>cluster_src/entities/pokemon/lib</title>
<path fill="#ffffff" stroke="black" stroke-width="2" d="M699.75,-582C699.75,-582 788,-582 788,-582 794,-582 800,-588 800,-594 800,-594 800,-622 800,-622 800,-628 794,-634 788,-634 788,-634 699.75,-634 699.75,-634 693.75,-634 687.75,-628 687.75,-622 687.75,-622 687.75,-594 687.75,-594 687.75,-588 693.75,-582 699.75,-582"/>
<text text-anchor="middle" x="743.88" y="-621.45" font-family="Helvetica,sans-Serif" font-weight="bold" font-size="9.00">lib</text>
</g>
<g id="clust10" class="cluster">
<title>cluster_src/entities/pokemon/model</title>
<path fill="#ffffff" stroke="black" stroke-width="2" d="M847.5,-522C847.5,-522 893.5,-522 893.5,-522 899.5,-522 905.5,-528 905.5,-534 905.5,-534 905.5,-622 905.5,-622 905.5,-628 899.5,-634 893.5,-634 893.5,-634 847.5,-634 847.5,-634 841.5,-634 835.5,-628 835.5,-622 835.5,-622 835.5,-534 835.5,-534 835.5,-528 841.5,-522 847.5,-522"/>
<text text-anchor="middle" x="870.5" y="-621.45" font-family="Helvetica,sans-Serif" font-weight="bold" font-size="9.00">model</text>
</g>
<g id="clust11" class="cluster">
<title>cluster_src/entities/pokemon/ui</title>
<path fill="#ffffff" stroke="black" stroke-width="2" d="M703.5,-462C703.5,-462 920.25,-462 920.25,-462 926.25,-462 932.25,-468 932.25,-474 932.25,-474 932.25,-502 932.25,-502 932.25,-508 926.25,-514 920.25,-514 920.25,-514 703.5,-514 703.5,-514 697.5,-514 691.5,-508 691.5,-502 691.5,-502 691.5,-474 691.5,-474 691.5,-468 697.5,-462 703.5,-462"/>
<text text-anchor="middle" x="811.88" y="-501.45" font-family="Helvetica,sans-Serif" font-weight="bold" font-size="9.00">ui</text>
</g>
<g id="clust12" class="cluster">
<title>cluster_src/entities/session</title>
<path fill="#ffffff" stroke="black" stroke-width="2" d="M847.5,-176C847.5,-176 1122.75,-176 1122.75,-176 1128.75,-176 1134.75,-182 1134.75,-188 1134.75,-188 1134.75,-280 1134.75,-280 1134.75,-286 1128.75,-292 1122.75,-292 1122.75,-292 847.5,-292 847.5,-292 841.5,-292 835.5,-286 835.5,-280 835.5,-280 835.5,-188 835.5,-188 835.5,-182 841.5,-176 847.5,-176"/>
<text text-anchor="middle" x="985.12" y="-279.45" font-family="Helvetica,sans-Serif" font-weight="bold" font-size="9.00">session</text>
</g>
<g id="clust13" class="cluster">
<title>cluster_src/entities/session/model</title>
<path fill="#ffffff" stroke="black" stroke-width="2" d="M1068.5,-184C1068.5,-184 1114.75,-184 1114.75,-184 1120.75,-184 1126.75,-190 1126.75,-196 1126.75,-196 1126.75,-254 1126.75,-254 1126.75,-260 1120.75,-266 1114.75,-266 1114.75,-266 1068.5,-266 1068.5,-266 1062.5,-266 1056.5,-260 1056.5,-254 1056.5,-254 1056.5,-196 1056.5,-196 1056.5,-190 1062.5,-184 1068.5,-184"/>
<text text-anchor="middle" x="1091.62" y="-253.45" font-family="Helvetica,sans-Serif" font-weight="bold" font-size="9.00">model</text>
</g>
<g id="clust14" class="cluster">
<title>cluster_src/entities/session/ui</title>
<path fill="#ffffff" stroke="black" stroke-width="2" d="M960.25,-214C960.25,-214 1036.5,-214 1036.5,-214 1042.5,-214 1048.5,-220 1048.5,-226 1048.5,-226 1048.5,-254 1048.5,-254 1048.5,-260 1042.5,-266 1036.5,-266 1036.5,-266 960.25,-266 960.25,-266 954.25,-266 948.25,-260 948.25,-254 948.25,-254 948.25,-226 948.25,-226 948.25,-220 954.25,-214 960.25,-214"/>
<text text-anchor="middle" x="998.38" y="-253.45" font-family="Helvetica,sans-Serif" font-weight="bold" font-size="9.00">ui</text>
</g>
<g id="clust15" class="cluster">
<title>cluster_src/entities/user</title>
<path fill="#ffffff" stroke="black" stroke-width="2" d="M596.12,-300C596.12,-300 901.5,-300 901.5,-300 907.5,-300 913.5,-306 913.5,-312 913.5,-312 913.5,-434 913.5,-434 913.5,-440 907.5,-446 901.5,-446 901.5,-446 596.12,-446 596.12,-446 590.12,-446 584.12,-440 584.12,-434 584.12,-434 584.12,-312 584.12,-312 584.12,-306 590.12,-300 596.12,-300"/>
<text text-anchor="middle" x="748.81" y="-433.45" font-family="Helvetica,sans-Serif" font-weight="bold" font-size="9.00">user</text>
</g>
<g id="clust16" class="cluster">
<title>cluster_src/entities/user/lib</title>
<path fill="#ffffff" stroke="black" stroke-width="2" d="M709.5,-368C709.5,-368 778.25,-368 778.25,-368 784.25,-368 790.25,-374 790.25,-380 790.25,-380 790.25,-408 790.25,-408 790.25,-414 784.25,-420 778.25,-420 778.25,-420 709.5,-420 709.5,-420 703.5,-420 697.5,-414 697.5,-408 697.5,-408 697.5,-380 697.5,-380 697.5,-374 703.5,-368 709.5,-368"/>
<text text-anchor="middle" x="743.88" y="-407.45" font-family="Helvetica,sans-Serif" font-weight="bold" font-size="9.00">lib</text>
</g>
<g id="clust17" class="cluster">
<title>cluster_src/entities/user/model</title>
<path fill="#ffffff" stroke="black" stroke-width="2" d="M720.88,-308C720.88,-308 893.5,-308 893.5,-308 899.5,-308 905.5,-314 905.5,-320 905.5,-320 905.5,-348 905.5,-348 905.5,-354 899.5,-360 893.5,-360 893.5,-360 720.88,-360 720.88,-360 714.88,-360 708.88,-354 708.88,-348 708.88,-348 708.88,-320 708.88,-320 708.88,-314 714.88,-308 720.88,-308"/>
<text text-anchor="middle" x="807.19" y="-347.45" font-family="Helvetica,sans-Serif" font-weight="bold" font-size="9.00">model</text>
</g>
<g id="clust18" class="cluster">
<title>cluster_src/pages</title>
<path fill="#ffffff" stroke="black" stroke-width="2" d="M243.12,-206C243.12,-206 522.5,-206 522.5,-206 528.5,-206 534.5,-212 534.5,-218 534.5,-218 534.5,-408 534.5,-408 534.5,-414 528.5,-420 522.5,-420 522.5,-420 243.12,-420 243.12,-420 237.12,-420 231.12,-414 231.12,-408 231.12,-408 231.12,-218 231.12,-218 231.12,-212 237.12,-206 243.12,-206"/>
<text text-anchor="middle" x="382.81" y="-407.45" font-family="Helvetica,sans-Serif" font-weight="bold" font-size="9.00">pages</text>
</g>
<g id="clust19" class="cluster">
<title>cluster_src/pages/home</title>
<path fill="#ffffff" stroke="black" stroke-width="2" d="M251.12,-214C251.12,-214 514.5,-214 514.5,-214 520.5,-214 526.5,-220 526.5,-226 526.5,-226 526.5,-288 526.5,-288 526.5,-294 520.5,-300 514.5,-300 514.5,-300 251.12,-300 251.12,-300 245.12,-300 239.12,-294 239.12,-288 239.12,-288 239.12,-226 239.12,-226 239.12,-220 245.12,-214 251.12,-214"/>
<text text-anchor="middle" x="382.81" y="-287.45" font-family="Helvetica,sans-Serif" font-weight="bold" font-size="9.00">home</text>
</g>
<g id="clust20" class="cluster">
<title>cluster_src/pages/home/model</title>
<path fill="#ffffff" stroke="black" stroke-width="2" d="M460.5,-222C460.5,-222 506.5,-222 506.5,-222 512.5,-222 518.5,-228 518.5,-234 518.5,-234 518.5,-262 518.5,-262 518.5,-268 512.5,-274 506.5,-274 506.5,-274 460.5,-274 460.5,-274 454.5,-274 448.5,-268 448.5,-262 448.5,-262 448.5,-234 448.5,-234 448.5,-228 454.5,-222 460.5,-222"/>
<text text-anchor="middle" x="483.5" y="-261.45" font-family="Helvetica,sans-Serif" font-weight="bold" font-size="9.00">model</text>
</g>
<g id="clust21" class="cluster">
<title>cluster_src/pages/home/ui</title>
<path fill="#ffffff" stroke="black" stroke-width="2" d="M374.5,-222C374.5,-222 420.5,-222 420.5,-222 426.5,-222 432.5,-228 432.5,-234 432.5,-234 432.5,-262 432.5,-262 432.5,-268 426.5,-274 420.5,-274 420.5,-274 374.5,-274 374.5,-274 368.5,-274 362.5,-268 362.5,-262 362.5,-262 362.5,-234 362.5,-234 362.5,-228 368.5,-222 374.5,-222"/>
<text text-anchor="middle" x="397.5" y="-261.45" font-family="Helvetica,sans-Serif" font-weight="bold" font-size="9.00">ui</text>
</g>
<g id="clust22" class="cluster">
<title>cluster_src/pages/profile</title>
<path fill="#ffffff" stroke="black" stroke-width="2" d="M251.12,-308C251.12,-308 428.5,-308 428.5,-308 434.5,-308 440.5,-314 440.5,-320 440.5,-320 440.5,-382 440.5,-382 440.5,-388 434.5,-394 428.5,-394 428.5,-394 251.12,-394 251.12,-394 245.12,-394 239.12,-388 239.12,-382 239.12,-382 239.12,-320 239.12,-320 239.12,-314 245.12,-308 251.12,-308"/>
<text text-anchor="middle" x="339.81" y="-381.45" font-family="Helvetica,sans-Serif" font-weight="bold" font-size="9.00">profile</text>
</g>
<g id="clust23" class="cluster">
<title>cluster_src/pages/profile/ui</title>
<path fill="#ffffff" stroke="black" stroke-width="2" d="M374.5,-316C374.5,-316 420.5,-316 420.5,-316 426.5,-316 432.5,-322 432.5,-328 432.5,-328 432.5,-356 432.5,-356 432.5,-362 426.5,-368 420.5,-368 420.5,-368 374.5,-368 374.5,-368 368.5,-368 362.5,-362 362.5,-356 362.5,-356 362.5,-328 362.5,-328 362.5,-322 368.5,-316 374.5,-316"/>
<text text-anchor="middle" x="397.5" y="-355.45" font-family="Helvetica,sans-Serif" font-weight="bold" font-size="9.00">ui</text>
</g>
<g id="clust24" class="cluster">
<title>cluster_src/shared</title>
<path fill="#ffffff" stroke="black" stroke-width="2" d="M1162.75,-134C1162.75,-134 1518.75,-134 1518.75,-134 1524.75,-134 1530.75,-140 1530.75,-146 1530.75,-146 1530.75,-532 1530.75,-532 1530.75,-538 1524.75,-544 1518.75,-544 1518.75,-544 1162.75,-544 1162.75,-544 1156.75,-544 1150.75,-538 1150.75,-532 1150.75,-532 1150.75,-146 1150.75,-146 1150.75,-140 1156.75,-134 1162.75,-134"/>
<text text-anchor="middle" x="1340.75" y="-531.45" font-family="Helvetica,sans-Serif" font-weight="bold" font-size="9.00">shared</text>
</g>
<g id="clust25" class="cluster">
<title>cluster_src/shared/api</title>
<path fill="#ffffff" stroke="black" stroke-width="2" d="M1170.75,-202C1170.75,-202 1510.75,-202 1510.75,-202 1516.75,-202 1522.75,-208 1522.75,-214 1522.75,-214 1522.75,-416 1522.75,-416 1522.75,-422 1516.75,-428 1510.75,-428 1510.75,-428 1170.75,-428 1170.75,-428 1164.75,-428 1158.75,-422 1158.75,-416 1158.75,-416 1158.75,-214 1158.75,-214 1158.75,-208 1164.75,-202 1170.75,-202"/>
<text text-anchor="middle" x="1340.75" y="-415.45" font-family="Helvetica,sans-Serif" font-weight="bold" font-size="9.00">api</text>
</g>
<g id="clust26" class="cluster">
<title>cluster_src/shared/api/base</title>
<path fill="#ffffff" stroke="black" stroke-width="2" d="M1264.5,-230C1264.5,-230 1502.75,-230 1502.75,-230 1508.75,-230 1514.75,-236 1514.75,-242 1514.75,-242 1514.75,-300 1514.75,-300 1514.75,-306 1508.75,-312 1502.75,-312 1502.75,-312 1264.5,-312 1264.5,-312 1258.5,-312 1252.5,-306 1252.5,-300 1252.5,-300 1252.5,-242 1252.5,-242 1252.5,-236 1258.5,-230 1264.5,-230"/>
<text text-anchor="middle" x="1383.62" y="-299.45" font-family="Helvetica,sans-Serif" font-weight="bold" font-size="9.00">base</text>
</g>
<g id="clust27" class="cluster">
<title>cluster_src/shared/api/pokemon</title>
<path fill="#ffffff" stroke="black" stroke-width="2" d="M1248.75,-320C1248.75,-320 1337.75,-320 1337.75,-320 1343.75,-320 1349.75,-326 1349.75,-332 1349.75,-332 1349.75,-390 1349.75,-390 1349.75,-396 1343.75,-402 1337.75,-402 1337.75,-402 1248.75,-402 1248.75,-402 1242.75,-402 1236.75,-396 1236.75,-390 1236.75,-390 1236.75,-332 1236.75,-332 1236.75,-326 1242.75,-320 1248.75,-320"/>
<text text-anchor="middle" x="1293.25" y="-389.45" font-family="Helvetica,sans-Serif" font-weight="bold" font-size="9.00">pokemon</text>
</g>
<g id="clust28" class="cluster">
<title>cluster_src/shared/lib</title>
<path fill="#ffffff" stroke="black" stroke-width="2" d="M1456.75,-436C1456.75,-436 1502.75,-436 1502.75,-436 1508.75,-436 1514.75,-442 1514.75,-448 1514.75,-448 1514.75,-506 1514.75,-506 1514.75,-512 1508.75,-518 1502.75,-518 1502.75,-518 1456.75,-518 1456.75,-518 1450.75,-518 1444.75,-512 1444.75,-506 1444.75,-506 1444.75,-448 1444.75,-448 1444.75,-442 1450.75,-436 1456.75,-436"/>
<text text-anchor="middle" x="1479.75" y="-505.45" font-family="Helvetica,sans-Serif" font-weight="bold" font-size="9.00">lib</text>
</g>
<g id="clust29" class="cluster">
<title>cluster_src/shared/ui</title>
<path fill="#ffffff" stroke="black" stroke-width="2" d="M1170.75,-142C1170.75,-142 1216.75,-142 1216.75,-142 1222.75,-142 1228.75,-148 1228.75,-154 1228.75,-154 1228.75,-182 1228.75,-182 1228.75,-188 1222.75,-194 1216.75,-194 1216.75,-194 1170.75,-194 1170.75,-194 1164.75,-194 1158.75,-188 1158.75,-182 1158.75,-182 1158.75,-154 1158.75,-154 1158.75,-148 1164.75,-142 1170.75,-142"/>
<text text-anchor="middle" x="1193.75" y="-181.45" font-family="Helvetica,sans-Serif" font-weight="bold" font-size="9.00">ui</text>
</g>
<g id="clust30" class="cluster">
<title>cluster_src/widgets</title>
<path fill="#ffffff" stroke="black" stroke-width="2" d="M712.88,-16C712.88,-16 1130.62,-16 1130.62,-16 1136.62,-16 1142.62,-22 1142.62,-28 1142.62,-28 1142.62,-124 1142.62,-124 1142.62,-130 1136.62,-136 1130.62,-136 1130.62,-136 712.88,-136 712.88,-136 706.88,-136 700.88,-130 700.88,-124 700.88,-124 700.88,-28 700.88,-28 700.88,-22 706.88,-16 712.88,-16"/>
<text text-anchor="middle" x="921.75" y="-123.45" font-family="Helvetica,sans-Serif" font-weight="bold" font-size="9.00">widgets</text>
</g>
<g id="clust31" class="cluster">
<title>cluster_src/widgets/LoginDialog</title>
<path fill="#ffffff" stroke="black" stroke-width="2" d="M720.88,-24C720.88,-24 1122.62,-24 1122.62,-24 1128.62,-24 1134.62,-30 1134.62,-36 1134.62,-36 1134.62,-98 1134.62,-98 1134.62,-104 1128.62,-110 1122.62,-110 1122.62,-110 720.88,-110 720.88,-110 714.88,-110 708.88,-104 708.88,-98 708.88,-98 708.88,-36 708.88,-36 708.88,-30 714.88,-24 720.88,-24"/>
<text text-anchor="middle" x="921.75" y="-97.45" font-family="Helvetica,sans-Serif" font-weight="bold" font-size="9.00">LoginDialog</text>
</g>
<g id="clust32" class="cluster">
<title>cluster_src/widgets/LoginDialog/model</title>
<path fill="#ffffff" stroke="black" stroke-width="2" d="M1068.62,-32C1068.62,-32 1114.62,-32 1114.62,-32 1120.62,-32 1126.62,-38 1126.62,-44 1126.62,-44 1126.62,-72 1126.62,-72 1126.62,-78 1120.62,-84 1114.62,-84 1114.62,-84 1068.62,-84 1068.62,-84 1062.62,-84 1056.62,-78 1056.62,-72 1056.62,-72 1056.62,-44 1056.62,-44 1056.62,-38 1062.62,-32 1068.62,-32"/>
<text text-anchor="middle" x="1091.62" y="-71.45" font-family="Helvetica,sans-Serif" font-weight="bold" font-size="9.00">model</text>
</g>
<g id="clust33" class="cluster">
<title>cluster_src/widgets/LoginDialog/ui</title>
<path fill="#ffffff" stroke="black" stroke-width="2" d="M820,-32C820,-32 1034.25,-32 1034.25,-32 1040.25,-32 1046.25,-38 1046.25,-44 1046.25,-44 1046.25,-72 1046.25,-72 1046.25,-78 1040.25,-84 1034.25,-84 1034.25,-84 820,-84 820,-84 814,-84 808,-78 808,-72 808,-72 808,-44 808,-44 808,-38 814,-32 820,-32"/>
<text text-anchor="middle" x="927.12" y="-71.45" font-family="Helvetica,sans-Serif" font-weight="bold" font-size="9.00">ui</text>
</g>
<!-- src/app/entry.css -->
<g id="node1" class="node">
<title>src/app/entry.css</title>
<g id="a_node1"><a xlink:href="src/app/entry.css" xlink:title="entry.css">
<path fill="#ffffcc" stroke="black" d="M168.96,-77.88C168.96,-77.88 126.79,-77.88 126.79,-77.88 123.83,-77.88 120.88,-74.92 120.88,-71.96 120.88,-71.96 120.88,-66.04 120.88,-66.04 120.88,-63.08 123.83,-60.12 126.79,-60.12 126.79,-60.12 168.96,-60.12 168.96,-60.12 171.92,-60.12 174.88,-63.08 174.88,-66.04 174.88,-66.04 174.88,-71.96 174.88,-71.96 174.88,-74.92 171.92,-77.88 168.96,-77.88"/>
<text text-anchor="start" x="129.88" y="-65.33" font-family="Helvetica,sans-Serif" font-size="9.00">entry.css</text>
</a>
</g>
</g>
<!-- src/app/entry.tsx -->
<g id="node2" class="node">
<title>src/app/entry.tsx</title>
<g id="a_node2"><a xlink:href="src/app/entry.tsx" xlink:title="entry.tsx">
<path fill="#bbfeff" stroke="black" d="M72.08,-98.88C72.08,-98.88 29.92,-98.88 29.92,-98.88 26.96,-98.88 24,-95.92 24,-92.96 24,-92.96 24,-87.04 24,-87.04 24,-84.08 26.96,-81.12 29.92,-81.12 29.92,-81.12 72.08,-81.12 72.08,-81.12 75.04,-81.12 78,-84.08 78,-87.04 78,-87.04 78,-92.96 78,-92.96 78,-95.92 75.04,-98.88 72.08,-98.88"/>
<text text-anchor="start" x="34.12" y="-86.33" font-family="Helvetica,sans-Serif" font-size="9.00">entry.tsx</text>
</a>
</g>
</g>
<!-- src/app/entry.tsx&#45;&gt;src/app/entry.css -->
<g id="edge1" class="edge">
<title>src/app/entry.tsx&#45;&gt;src/app/entry.css</title>
<path fill="none" stroke="#000000" stroke-width="2" stroke-opacity="0.200000" d="M78.43,-84.15C88.81,-81.85 100.88,-79.18 111.96,-76.73"/>
<polygon fill="#000000" fill-opacity="0.200000" stroke="#000000" stroke-width="2" stroke-opacity="0.200000" points="112.23,-78.82 117.63,-75.47 111.32,-74.72 112.23,-78.82"/>
</g>
<!-- src/app/providers/router/RouterProvider.tsx -->
<g id="node3" class="node">
<title>src/app/providers/router/RouterProvider.tsx</title>
<g id="a_node3"><a xlink:href="src/app/providers/router/RouterProvider.tsx" xlink:title="RouterProvider.tsx">
<path fill="#bbfeff" stroke="black" d="M187.83,-119.88C187.83,-119.88 107.92,-119.88 107.92,-119.88 104.96,-119.88 102,-116.92 102,-113.96 102,-113.96 102,-108.04 102,-108.04 102,-105.08 104.96,-102.12 107.92,-102.12 107.92,-102.12 187.83,-102.12 187.83,-102.12 190.79,-102.12 193.75,-105.08 193.75,-108.04 193.75,-108.04 193.75,-113.96 193.75,-113.96 193.75,-116.92 190.79,-119.88 187.83,-119.88"/>
<text text-anchor="start" x="110" y="-107.33" font-family="Helvetica,sans-Serif" font-size="9.00">RouterProvider.tsx</text>
</a>
</g>
</g>
<!-- src/app/entry.tsx&#45;&gt;src/app/providers/router/RouterProvider.tsx -->
<g id="edge2" class="edge">
<title>src/app/entry.tsx&#45;&gt;src/app/providers/router/RouterProvider.tsx</title>
<path fill="none" stroke="#000000" stroke-width="2" stroke-opacity="0.200000" d="M78.35,-96.26C80.93,-96.85 83.51,-97.44 86,-98 88.6,-98.58 91.27,-99.18 93.97,-99.77"/>
<polygon fill="#000000" fill-opacity="0.200000" stroke="#000000" stroke-width="2" stroke-opacity="0.200000" points="93.36,-101.79 99.67,-101.02 94.26,-97.68 93.36,-101.79"/>
</g>
<!-- src/app/providers/layout/BaseLayoutProvider.tsx -->
<g id="node4" class="node">
<title>src/app/providers/layout/BaseLayoutProvider.tsx</title>
<g id="a_node4"><a xlink:href="src/app/providers/layout/BaseLayoutProvider.tsx" xlink:title="BaseLayoutProvider.tsx">
<path fill="#bbfeff" stroke="black" d="M324.58,-119.88C324.58,-119.88 223.67,-119.88 223.67,-119.88 220.71,-119.88 217.75,-116.92 217.75,-113.96 217.75,-113.96 217.75,-108.04 217.75,-108.04 217.75,-105.08 220.71,-102.12 223.67,-102.12 223.67,-102.12 324.58,-102.12 324.58,-102.12 327.54,-102.12 330.5,-105.08 330.5,-108.04 330.5,-108.04 330.5,-113.96 330.5,-113.96 330.5,-116.92 327.54,-119.88 324.58,-119.88"/>
<text text-anchor="start" x="225.75" y="-107.33" font-family="Helvetica,sans-Serif" font-size="9.00">BaseLayoutProvider.tsx</text>
</a>
</g>
</g>
<!-- src/app/providers/router/RouterProvider.tsx&#45;&gt;src/app/providers/layout/BaseLayoutProvider.tsx -->
<g id="edge5" class="edge">
<title>src/app/providers/router/RouterProvider.tsx&#45;&gt;src/app/providers/layout/BaseLayoutProvider.tsx</title>
<path fill="none" stroke="#000000" stroke-width="2" stroke-opacity="0.200000" d="M194.08,-111C198.85,-111 203.77,-111 208.7,-111"/>
<polygon fill="#000000" fill-opacity="0.200000" stroke="#000000" stroke-width="2" stroke-opacity="0.200000" points="208.55,-113.1 214.55,-111 208.55,-108.9 208.55,-113.1"/>
</g>
<!-- src/pages/home/index.ts -->
<g id="node7" class="node">
<title>src/pages/home/index.ts</title>
<g id="a_node7"><a xlink:href="src/pages/home/index.ts" xlink:title="index.ts">
<path fill="#ddfeff" stroke="black" d="M295.21,-243.88C295.21,-243.88 253.04,-243.88 253.04,-243.88 250.08,-243.88 247.12,-240.92 247.12,-237.96 247.12,-237.96 247.12,-232.04 247.12,-232.04 247.12,-229.08 250.08,-226.12 253.04,-226.12 253.04,-226.12 295.21,-226.12 295.21,-226.12 298.17,-226.12 301.12,-229.08 301.12,-232.04 301.12,-232.04 301.12,-237.96 301.12,-237.96 301.12,-240.92 298.17,-243.88 295.21,-243.88"/>
<text text-anchor="start" x="258.38" y="-231.32" font-family="Helvetica,sans-Serif" font-size="9.00">index.ts</text>
</a>
</g>
</g>
<!-- src/app/providers/router/RouterProvider.tsx&#45;&gt;src/pages/home/index.ts -->
<g id="edge6" class="edge">
<title>src/app/providers/router/RouterProvider.tsx&#45;&gt;src/pages/home/index.ts</title>
<path fill="none" stroke="#000000" stroke-width="2" stroke-opacity="0.200000" d="M158.21,-120.32C179.45,-141.52 231.56,-193.52 257.68,-219.58"/>
<polygon fill="#000000" fill-opacity="0.200000" stroke="#000000" stroke-width="2" stroke-opacity="0.200000" points="256.14,-221.02 261.87,-223.77 259.11,-218.05 256.14,-221.02"/>
</g>
<!-- src/pages/profile/index.ts -->
<g id="node8" class="node">
<title>src/pages/profile/index.ts</title>
<g id="a_node8"><a xlink:href="src/pages/profile/index.ts" xlink:title="index.ts">
<path fill="#ddfeff" stroke="black" d="M295.21,-337.88C295.21,-337.88 253.04,-337.88 253.04,-337.88 250.08,-337.88 247.12,-334.92 247.12,-331.96 247.12,-331.96 247.12,-326.04 247.12,-326.04 247.12,-323.08 250.08,-320.12 253.04,-320.12 253.04,-320.12 295.21,-320.12 295.21,-320.12 298.17,-320.12 301.12,-323.08 301.12,-326.04 301.12,-326.04 301.12,-331.96 301.12,-331.96 301.12,-334.92 298.17,-337.88 295.21,-337.88"/>
<text text-anchor="start" x="258.38" y="-325.32" font-family="Helvetica,sans-Serif" font-size="9.00">index.ts</text>
</a>
</g>
</g>
<!-- src/app/providers/router/RouterProvider.tsx&#45;&gt;src/pages/profile/index.ts -->
<g id="edge7" class="edge">
<title>src/app/providers/router/RouterProvider.tsx&#45;&gt;src/pages/profile/index.ts</title>
<path fill="none" stroke="#000000" stroke-width="2" stroke-opacity="0.200000" d="M149.16,-120.36C150.58,-150.77 159.06,-247.95 209.75,-303 217.3,-311.2 227.82,-316.88 238.12,-320.79"/>
<polygon fill="#000000" fill-opacity="0.200000" stroke="#000000" stroke-width="2" stroke-opacity="0.200000" points="237.43,-322.77 243.79,-322.7 238.78,-318.79 237.43,-322.77"/>
</g>
<!-- src/entities/session/index.ts -->
<g id="node5" class="node">
<title>src/entities/session/index.ts</title>
<g id="a_node5"><a xlink:href="src/entities/session/index.ts" xlink:title="index.ts">
<path fill="#ddfeff" stroke="black" d="M891.58,-213.88C891.58,-213.88 849.42,-213.88 849.42,-213.88 846.46,-213.88 843.5,-210.92 843.5,-207.96 843.5,-207.96 843.5,-202.04 843.5,-202.04 843.5,-199.08 846.46,-196.12 849.42,-196.12 849.42,-196.12 891.58,-196.12 891.58,-196.12 894.54,-196.12 897.5,-199.08 897.5,-202.04 897.5,-202.04 897.5,-207.96 897.5,-207.96 897.5,-210.92 894.54,-213.88 891.58,-213.88"/>
<text text-anchor="start" x="854.75" y="-201.32" font-family="Helvetica,sans-Serif" font-size="9.00">index.ts</text>
</a>
</g>
</g>
<!-- src/app/providers/layout/BaseLayoutProvider.tsx&#45;&gt;src/entities/session/index.ts -->
<g id="edge3" class="edge">
<title>src/app/providers/layout/BaseLayoutProvider.tsx&#45;&gt;src/entities/session/index.ts</title>
<path fill="none" stroke="#000000" stroke-width="2" stroke-opacity="0.200000" d="M310.06,-120.29C351.05,-130.36 421.21,-145 482.5,-145 482.5,-145 482.5,-145 620.12,-145 700.61,-145 791.76,-174.91 838.39,-192.5"/>
<polygon fill="#000000" fill-opacity="0.200000" stroke="#000000" stroke-width="2" stroke-opacity="0.200000" points="837.38,-194.36 843.74,-194.54 838.89,-190.44 837.38,-194.36"/>
</g>
<!-- src/widgets/LoginDialog/index.ts -->
<g id="node6" class="node">
<title>src/widgets/LoginDialog/index.ts</title>
<g id="a_node6"><a xlink:href="src/widgets/LoginDialog/index.ts" xlink:title="index.ts">
<path fill="#ddfeff" stroke="black" d="M764.96,-70.88C764.96,-70.88 722.79,-70.88 722.79,-70.88 719.83,-70.88 716.88,-67.92 716.88,-64.96 716.88,-64.96 716.88,-59.04 716.88,-59.04 716.88,-56.08 719.83,-53.12 722.79,-53.12 722.79,-53.12 764.96,-53.12 764.96,-53.12 767.92,-53.12 770.88,-56.08 770.88,-59.04 770.88,-59.04 770.88,-64.96 770.88,-64.96 770.88,-67.92 767.92,-70.88 764.96,-70.88"/>
<text text-anchor="start" x="728.12" y="-58.33" font-family="Helvetica,sans-Serif" font-size="9.00">index.ts</text>
</a>
</g>
</g>
<!-- src/app/providers/layout/BaseLayoutProvider.tsx&#45;&gt;src/widgets/LoginDialog/index.ts -->
<g id="edge4" class="edge">
<title>src/app/providers/layout/BaseLayoutProvider.tsx&#45;&gt;src/widgets/LoginDialog/index.ts</title>
<path fill="none" stroke="#000000" stroke-width="2" stroke-opacity="0.200000" d="M330.62,-105.19C428.02,-94.98 627.05,-74.13 707.73,-65.68"/>
<polygon fill="#000000" fill-opacity="0.200000" stroke="#000000" stroke-width="2" stroke-opacity="0.200000" points="707.76,-67.79 713.51,-65.08 707.32,-63.61 707.76,-67.79"/>
</g>
<!-- src/entities/session/model/actions.ts -->
<g id="node18" class="node">
<title>src/entities/session/model/actions.ts</title>
<g id="a_node18"><a xlink:href="src/entities/session/model/actions.ts" xlink:title="actions.ts">
<path fill="#ddfeff" stroke="black" d="M1112.83,-239.88C1112.83,-239.88 1070.42,-239.88 1070.42,-239.88 1067.46,-239.88 1064.5,-236.92 1064.5,-233.96 1064.5,-233.96 1064.5,-228.04 1064.5,-228.04 1064.5,-225.08 1067.46,-222.12 1070.42,-222.12 1070.42,-222.12 1112.83,-222.12 1112.83,-222.12 1115.79,-222.12 1118.75,-225.08 1118.75,-228.04 1118.75,-228.04 1118.75,-233.96 1118.75,-233.96 1118.75,-236.92 1115.79,-239.88 1112.83,-239.88"/>
<text text-anchor="start" x="1072.5" y="-227.32" font-family="Helvetica,sans-Serif" font-size="9.00">actions.ts</text>
</a>
</g>
</g>
<!-- src/entities/session/index.ts&#45;&gt;src/entities/session/model/actions.ts -->
<g id="edge18" class="edge">
<title>src/entities/session/index.ts&#45;&gt;src/entities/session/model/actions.ts</title>
<path fill="none" stroke="#000000" stroke-width="2" stroke-opacity="0.200000" d="M897.83,-204.23C940.11,-203.27 1021.15,-202.65 1048.5,-211 1052.51,-212.22 1052.79,-214.04 1056.5,-216 1058.27,-216.94 1060.11,-217.86 1061.98,-218.77"/>
<polygon fill="#000000" fill-opacity="0.200000" stroke="#000000" stroke-width="2" stroke-opacity="0.200000" points="1066.58,-223.25 1062.04,-218.8 1068.36,-219.45 1066.58,-223.25"/>
</g>
<!-- src/entities/session/model/store.ts -->
<g id="node19" class="node">
<title>src/entities/session/model/store.ts</title>
<g id="a_node19"><a xlink:href="src/entities/session/model/store.ts" xlink:title="store.ts">
<path fill="#ddfeff" stroke="black" d="M1112.71,-209.88C1112.71,-209.88 1070.54,-209.88 1070.54,-209.88 1067.58,-209.88 1064.62,-206.92 1064.62,-203.96 1064.62,-203.96 1064.62,-198.04 1064.62,-198.04 1064.62,-195.08 1067.58,-192.12 1070.54,-192.12 1070.54,-192.12 1112.71,-192.12 1112.71,-192.12 1115.67,-192.12 1118.62,-195.08 1118.62,-198.04 1118.62,-198.04 1118.62,-203.96 1118.62,-203.96 1118.62,-206.92 1115.67,-209.88 1112.71,-209.88"/>
<text text-anchor="start" x="1077" y="-197.32" font-family="Helvetica,sans-Serif" font-size="9.00">store.ts</text>
</a>
</g>
</g>
<!-- src/entities/session/index.ts&#45;&gt;src/entities/session/model/store.ts -->
<g id="edge19" class="edge">
<title>src/entities/session/index.ts&#45;&gt;src/entities/session/model/store.ts</title>
<path fill="none" stroke="#000000" stroke-width="2" stroke-opacity="0.200000" d="M897.77,-203.29C912.59,-202.41 931.44,-201.44 948.25,-201 985.61,-200.03 1028.5,-200.2 1057.36,-200.51"/>
<polygon fill="#000000" fill-opacity="0.200000" stroke="#000000" stroke-width="2" stroke-opacity="0.200000" points="1063.35,-202.68 1057.38,-200.51 1063.4,-198.48 1063.35,-202.68"/>
</g>
<!-- src/entities/session/ui/LogoutButton.tsx -->
<g id="node20" class="node">
<title>src/entities/session/ui/LogoutButton.tsx</title>
<g id="a_node20"><a xlink:href="src/entities/session/ui/LogoutButton.tsx" xlink:title="LogoutButton.tsx">
<path fill="#bbfeff" stroke="black" d="M1034.58,-239.88C1034.58,-239.88 962.17,-239.88 962.17,-239.88 959.21,-239.88 956.25,-236.92 956.25,-233.96 956.25,-233.96 956.25,-228.04 956.25,-228.04 956.25,-225.08 959.21,-222.12 962.17,-222.12 962.17,-222.12 1034.58,-222.12 1034.58,-222.12 1037.54,-222.12 1040.5,-225.08 1040.5,-228.04 1040.5,-228.04 1040.5,-233.96 1040.5,-233.96 1040.5,-236.92 1037.54,-239.88 1034.58,-239.88"/>
<text text-anchor="start" x="964.25" y="-227.32" font-family="Helvetica,sans-Serif" font-size="9.00">LogoutButton.tsx</text>
</a>
</g>
</g>
<!-- src/entities/session/index.ts&#45;&gt;src/entities/session/ui/LogoutButton.tsx -->
<g id="edge20" class="edge">
<title>src/entities/session/index.ts&#45;&gt;src/entities/session/ui/LogoutButton.tsx</title>
<path fill="none" stroke="#000000" stroke-width="2" stroke-opacity="0.200000" d="M897.89,-210.45C912.78,-213.53 931.85,-217.47 949.3,-221.07"/>
<polygon fill="#000000" fill-opacity="0.200000" stroke="#000000" stroke-width="2" stroke-opacity="0.200000" points="954.75,-224.34 949.3,-221.07 955.6,-220.23 954.75,-224.34"/>
</g>
<!-- src/widgets/LoginDialog/ui/LoginDialogTrigger.tsx -->
<g id="node38" class="node">
<title>src/widgets/LoginDialog/ui/LoginDialogTrigger.tsx</title>
<g id="a_node38"><a xlink:href="src/widgets/LoginDialog/ui/LoginDialogTrigger.tsx" xlink:title="LoginDialogTrigger.tsx">
<path fill="#bbfeff" stroke="black" d="M919.08,-57.88C919.08,-57.88 821.92,-57.88 821.92,-57.88 818.96,-57.88 816,-54.92 816,-51.96 816,-51.96 816,-46.04 816,-46.04 816,-43.08 818.96,-40.12 821.92,-40.12 821.92,-40.12 919.08,-40.12 919.08,-40.12 922.04,-40.12 925,-43.08 925,-46.04 925,-46.04 925,-51.96 925,-51.96 925,-54.92 922.04,-57.88 919.08,-57.88"/>
<text text-anchor="start" x="824" y="-45.33" font-family="Helvetica,sans-Serif" font-size="9.00">LoginDialogTrigger.tsx</text>
</a>
</g>
</g>
<!-- src/widgets/LoginDialog/index.ts&#45;&gt;src/widgets/LoginDialog/ui/LoginDialogTrigger.tsx -->
<g id="edge51" class="edge">
<title>src/widgets/LoginDialog/index.ts&#45;&gt;src/widgets/LoginDialog/ui/LoginDialogTrigger.tsx</title>
<path fill="none" stroke="#000000" stroke-width="2" stroke-opacity="0.200000" d="M771.3,-59.24C782.32,-58.09 795.6,-56.71 808.78,-55.33"/>
<polygon fill="#000000" fill-opacity="0.200000" stroke="#000000" stroke-width="2" stroke-opacity="0.200000" points="814.88,-56.81 808.7,-55.34 814.45,-52.63 814.88,-56.81"/>
</g>
<!-- src/pages/home/ui/Page.tsx -->
<g id="node25" class="node">
<title>src/pages/home/ui/Page.tsx</title>
<g id="a_node25"><a xlink:href="src/pages/home/ui/Page.tsx" xlink:title="Page.tsx">
<path fill="#bbfeff" stroke="black" d="M418.58,-247.88C418.58,-247.88 376.42,-247.88 376.42,-247.88 373.46,-247.88 370.5,-244.92 370.5,-241.96 370.5,-241.96 370.5,-236.04 370.5,-236.04 370.5,-233.08 373.46,-230.12 376.42,-230.12 376.42,-230.12 418.58,-230.12 418.58,-230.12 421.54,-230.12 424.5,-233.08 424.5,-236.04 424.5,-236.04 424.5,-241.96 424.5,-241.96 424.5,-244.92 421.54,-247.88 418.58,-247.88"/>
<text text-anchor="start" x="379.88" y="-235.32" font-family="Helvetica,sans-Serif" font-size="9.00">Page.tsx</text>
</a>
</g>
</g>
<!-- src/pages/home/index.ts&#45;&gt;src/pages/home/ui/Page.tsx -->
<g id="edge31" class="edge">
<title>src/pages/home/index.ts&#45;&gt;src/pages/home/ui/Page.tsx</title>
<path fill="none" stroke="#000000" stroke-width="2" stroke-opacity="0.200000" d="M301.46,-235.87C319.59,-236.47 343.83,-237.26 363.28,-237.91"/>
<polygon fill="#000000" fill-opacity="0.200000" stroke="#000000" stroke-width="2" stroke-opacity="0.200000" points="369.15,-240.2 363.22,-237.9 369.28,-236 369.15,-240.2"/>
</g>
<!-- src/pages/profile/ui/Page.tsx -->
<g id="node28" class="node">
<title>src/pages/profile/ui/Page.tsx</title>
<g id="a_node28"><a xlink:href="src/pages/profile/ui/Page.tsx" xlink:title="Page.tsx">
<path fill="#bbfeff" stroke="black" d="M418.58,-341.88C418.58,-341.88 376.42,-341.88 376.42,-341.88 373.46,-341.88 370.5,-338.92 370.5,-335.96 370.5,-335.96 370.5,-330.04 370.5,-330.04 370.5,-327.08 373.46,-324.12 376.42,-324.12 376.42,-324.12 418.58,-324.12 418.58,-324.12 421.54,-324.12 424.5,-327.08 424.5,-330.04 424.5,-330.04 424.5,-335.96 424.5,-335.96 424.5,-338.92 421.54,-341.88 418.58,-341.88"/>
<text text-anchor="start" x="379.88" y="-329.32" font-family="Helvetica,sans-Serif" font-size="9.00">Page.tsx</text>
</a>
</g>
</g>
<!-- src/pages/profile/index.ts&#45;&gt;src/pages/profile/ui/Page.tsx -->
<g id="edge36" class="edge">
<title>src/pages/profile/index.ts&#45;&gt;src/pages/profile/ui/Page.tsx</title>
<path fill="none" stroke="#000000" stroke-width="2" stroke-opacity="0.200000" d="M301.46,-329.87C319.59,-330.47 343.83,-331.26 363.28,-331.91"/>
<polygon fill="#000000" fill-opacity="0.200000" stroke="#000000" stroke-width="2" stroke-opacity="0.200000" points="369.15,-334.2 363.22,-331.9 369.28,-330 369.15,-334.2"/>
</g>
<!-- src/entities/pokemon/api/queryPokemonById.ts -->
<g id="node9" class="node">
<title>src/entities/pokemon/api/queryPokemonById.ts</title>
<g id="a_node9"><a xlink:href="src/entities/pokemon/api/queryPokemonById.ts" xlink:title="queryPokemonById.ts">
<path fill="#ddfeff" stroke="black" d="M665.83,-607.88C665.83,-607.88 572.42,-607.88 572.42,-607.88 569.46,-607.88 566.5,-604.92 566.5,-601.96 566.5,-601.96 566.5,-596.04 566.5,-596.04 566.5,-593.08 569.46,-590.12 572.42,-590.12 572.42,-590.12 665.83,-590.12 665.83,-590.12 668.79,-590.12 671.75,-593.08 671.75,-596.04 671.75,-596.04 671.75,-601.96 671.75,-601.96 671.75,-604.92 668.79,-607.88 665.83,-607.88"/>
<text text-anchor="start" x="574.5" y="-595.33" font-family="Helvetica,sans-Serif" font-size="9.00">queryPokemonById.ts</text>
</a>
</g>
</g>
<!-- src/entities/pokemon/lib/mapPokemonDto.ts -->
<g id="node10" class="node">
<title>src/entities/pokemon/lib/mapPokemonDto.ts</title>
<g id="a_node10"><a xlink:href="src/entities/pokemon/lib/mapPokemonDto.ts" xlink:title="mapPokemonDto.ts">
<path fill="#ddfeff" stroke="black" d="M786.08,-607.88C786.08,-607.88 701.67,-607.88 701.67,-607.88 698.71,-607.88 695.75,-604.92 695.75,-601.96 695.75,-601.96 695.75,-596.04 695.75,-596.04 695.75,-593.08 698.71,-590.12 701.67,-590.12 701.67,-590.12 786.08,-590.12 786.08,-590.12 789.04,-590.12 792,-593.08 792,-596.04 792,-596.04 792,-601.96 792,-601.96 792,-604.92 789.04,-607.88 786.08,-607.88"/>
<text text-anchor="start" x="703.75" y="-595.33" font-family="Helvetica,sans-Serif" font-size="9.00">mapPokemonDto.ts</text>
</a>
</g>
</g>
<!-- src/entities/pokemon/api/queryPokemonById.ts&#45;&gt;src/entities/pokemon/lib/mapPokemonDto.ts -->
<g id="edge8" class="edge">
<title>src/entities/pokemon/api/queryPokemonById.ts&#45;&gt;src/entities/pokemon/lib/mapPokemonDto.ts</title>
<path fill="none" stroke="#000000" stroke-width="2" stroke-opacity="0.200000" d="M672.18,-599C676.88,-599 681.65,-599 686.39,-599"/>
<polygon fill="#000000" fill-opacity="0.200000" stroke="#000000" stroke-width="2" stroke-opacity="0.200000" points="686.39,-601.1 692.39,-599 686.39,-596.9 686.39,-601.1"/>
</g>
<!-- src/shared/api/index.ts -->
<g id="node11" class="node">
<title>src/shared/api/index.ts</title>
<g id="a_node11"><a xlink:href="src/shared/api/index.ts" xlink:title="index.ts">
<path fill="#ddfeff" stroke="black" d="M1214.83,-277.88C1214.83,-277.88 1172.67,-277.88 1172.67,-277.88 1169.71,-277.88 1166.75,-274.92 1166.75,-271.96 1166.75,-271.96 1166.75,-266.04 1166.75,-266.04 1166.75,-263.08 1169.71,-260.12 1172.67,-260.12 1172.67,-260.12 1214.83,-260.12 1214.83,-260.12 1217.79,-260.12 1220.75,-263.08 1220.75,-266.04 1220.75,-266.04 1220.75,-271.96 1220.75,-271.96 1220.75,-274.92 1217.79,-277.88 1214.83,-277.88"/>
<text text-anchor="start" x="1178" y="-265.32" font-family="Helvetica,sans-Serif" font-size="9.00">index.ts</text>
</a>
</g>
</g>
<!-- src/entities/pokemon/api/queryPokemonById.ts&#45;&gt;src/shared/api/index.ts -->
<g id="edge9" class="edge">
<title>src/entities/pokemon/api/queryPokemonById.ts&#45;&gt;src/shared/api/index.ts</title>
<path fill="none" stroke="#000000" stroke-width="2" stroke-opacity="0.200000" d="M631.25,-608.17C664.88,-634.91 769.36,-711 869.5,-711 869.5,-711 869.5,-711 999.38,-711 1187.71,-711 1194.39,-369.99 1193.22,-287.03"/>
<polygon fill="#000000" fill-opacity="0.200000" stroke="#000000" stroke-width="2" stroke-opacity="0.200000" points="1195.33,-287.22 1193.11,-281.26 1191.13,-287.3 1195.33,-287.22"/>
</g>
<!-- src/entities/pokemon/lib/mapPokemonDto.ts&#45;&gt;src/shared/api/index.ts -->
<g id="edge14" class="edge">
<title>src/entities/pokemon/lib/mapPokemonDto.ts&#45;&gt;src/shared/api/index.ts</title>
<path fill="none" stroke="#000000" stroke-opacity="0.200000" d="M749.99,-608.28C759.21,-623.9 780.24,-654.89 808,-667 907.01,-710.18 956.32,-688.31 1048.5,-632 1098.99,-601.16 1115.16,-590.33 1142.75,-538 1188.53,-451.18 1192.98,-329.25 1193,-285.46"/>
<polygon fill="none" stroke="#000000" stroke-opacity="0.200000" points="1195.1,-285.72 1192.96,-279.73 1190.9,-285.75 1195.1,-285.72"/>
</g>
<!-- src/entities/pokemon/model/types.ts -->
<g id="node16" class="node">
<title>src/entities/pokemon/model/types.ts</title>
<g id="a_node16"><a xlink:href="src/entities/pokemon/model/types.ts" xlink:title="types.ts">
<path fill="#ddfeff" stroke="black" d="M891.58,-607.88C891.58,-607.88 849.42,-607.88 849.42,-607.88 846.46,-607.88 843.5,-604.92 843.5,-601.96 843.5,-601.96 843.5,-596.04 843.5,-596.04 843.5,-593.08 846.46,-590.12 849.42,-590.12 849.42,-590.12 891.58,-590.12 891.58,-590.12 894.54,-590.12 897.5,-593.08 897.5,-596.04 897.5,-596.04 897.5,-601.96 897.5,-601.96 897.5,-604.92 894.54,-607.88 891.58,-607.88"/>
<text text-anchor="start" x="855.12" y="-595.33" font-family="Helvetica,sans-Serif" font-size="9.00">types.ts</text>
</a>
</g>
</g>
<!-- src/entities/pokemon/lib/mapPokemonDto.ts&#45;&gt;src/entities/pokemon/model/types.ts -->
<g id="edge13" class="edge">
<title>src/entities/pokemon/lib/mapPokemonDto.ts&#45;&gt;src/entities/pokemon/model/types.ts</title>
<path fill="none" stroke="#000000" stroke-opacity="0.200000" d="M792.35,-599C806.86,-599 822.51,-599 835.89,-599"/>
<polygon fill="none" stroke="#000000" stroke-opacity="0.200000" points="835.56,-601.1 841.56,-599 835.56,-596.9 835.56,-601.1"/>
</g>
<!-- src/shared/api/base/endpoints.ts -->
<g id="node29" class="node">
<title>src/shared/api/base/endpoints.ts</title>
<g id="a_node29"><a xlink:href="src/shared/api/base/endpoints.ts" xlink:title="endpoints.ts">
<path fill="#ddfeff" stroke="black" d="M1320.08,-255.88C1320.08,-255.88 1266.42,-255.88 1266.42,-255.88 1263.46,-255.88 1260.5,-252.92 1260.5,-249.96 1260.5,-249.96 1260.5,-244.04 1260.5,-244.04 1260.5,-241.08 1263.46,-238.12 1266.42,-238.12 1266.42,-238.12 1320.08,-238.12 1320.08,-238.12 1323.04,-238.12 1326,-241.08 1326,-244.04 1326,-244.04 1326,-249.96 1326,-249.96 1326,-252.92 1323.04,-255.88 1320.08,-255.88"/>
<text text-anchor="start" x="1268.5" y="-243.32" font-family="Helvetica,sans-Serif" font-size="9.00">endpoints.ts</text>
</a>
</g>
</g>
<!-- src/shared/api/index.ts&#45;&gt;src/shared/api/base/endpoints.ts -->
<g id="edge44" class="edge">
<title>src/shared/api/index.ts&#45;&gt;src/shared/api/base/endpoints.ts</title>
<path fill="none" stroke="#000000" stroke-width="2" stroke-opacity="0.200000" d="M1221.13,-263.05C1231.04,-260.81 1242.51,-258.22 1253.31,-255.79"/>
<polygon fill="#000000" fill-opacity="0.200000" stroke="#000000" stroke-width="2" stroke-opacity="0.200000" points="1259.77,-256.48 1253.46,-255.75 1258.85,-252.38 1259.77,-256.48"/>
</g>
<!-- src/shared/api/base/fetchBaseApi.ts -->
<g id="node30" class="node">
<title>src/shared/api/base/fetchBaseApi.ts</title>
<g id="a_node30"><a xlink:href="src/shared/api/base/fetchBaseApi.ts" xlink:title="fetchBaseApi.ts">
<path fill="#ddfeff" stroke="black" d="M1430.83,-255.88C1430.83,-255.88 1363.67,-255.88 1363.67,-255.88 1360.71,-255.88 1357.75,-252.92 1357.75,-249.96 1357.75,-249.96 1357.75,-244.04 1357.75,-244.04 1357.75,-241.08 1360.71,-238.12 1363.67,-238.12 1363.67,-238.12 1430.83,-238.12 1430.83,-238.12 1433.79,-238.12 1436.75,-241.08 1436.75,-244.04 1436.75,-244.04 1436.75,-249.96 1436.75,-249.96 1436.75,-252.92 1433.79,-255.88 1430.83,-255.88"/>
<text text-anchor="start" x="1365.75" y="-243.32" font-family="Helvetica,sans-Serif" font-size="9.00">fetchBaseApi.ts</text>
</a>
</g>
</g>
<!-- src/shared/api/index.ts&#45;&gt;src/shared/api/base/fetchBaseApi.ts -->
<g id="edge46" class="edge">
<title>src/shared/api/index.ts&#45;&gt;src/shared/api/base/fetchBaseApi.ts</title>
<path fill="none" stroke="#000000" stroke-width="2" stroke-opacity="0.200000" d="M1221.04,-269.93C1252.06,-270.54 1305.08,-270.06 1349.75,-262 1354.69,-261.11 1359.82,-259.83 1364.8,-258.39"/>
<polygon fill="#000000" fill-opacity="0.200000" stroke="#000000" stroke-width="2" stroke-opacity="0.200000" points="1371.12,-258.65 1364.77,-258.4 1369.89,-254.63 1371.12,-258.65"/>
</g>
<!-- src/shared/api/base/types.ts -->
<g id="node31" class="node">
<title>src/shared/api/base/types.ts</title>
<g id="a_node31"><a xlink:href="src/shared/api/base/types.ts" xlink:title="types.ts">
<path fill="#ddfeff" stroke="black" d="M1418.33,-285.88C1418.33,-285.88 1376.17,-285.88 1376.17,-285.88 1373.21,-285.88 1370.25,-282.92 1370.25,-279.96 1370.25,-279.96 1370.25,-274.04 1370.25,-274.04 1370.25,-271.08 1373.21,-268.12 1376.17,-268.12 1376.17,-268.12 1418.33,-268.12 1418.33,-268.12 1421.29,-268.12 1424.25,-271.08 1424.25,-274.04 1424.25,-274.04 1424.25,-279.96 1424.25,-279.96 1424.25,-282.92 1421.29,-285.88 1418.33,-285.88"/>
<text text-anchor="start" x="1381.88" y="-273.32" font-family="Helvetica,sans-Serif" font-size="9.00">types.ts</text>
</a>
</g>
</g>
<!-- src/shared/api/index.ts&#45;&gt;src/shared/api/base/types.ts -->
<g id="edge48" class="edge">
<title>src/shared/api/index.ts&#45;&gt;src/shared/api/base/types.ts</title>
<path fill="none" stroke="#000000" stroke-opacity="0.200000" d="M1220.94,-271.78C1226.17,-272.25 1231.63,-272.69 1236.75,-273 1280.14,-275.61 1330.26,-276.52 1362.57,-276.84"/>
<polygon fill="none" stroke="#000000" stroke-opacity="0.200000" points="1362.45,-278.94 1368.46,-276.89 1362.48,-274.74 1362.45,-278.94"/>
</g>
<!-- src/shared/api/base/errors.ts -->
<g id="node32" class="node">
<title>src/shared/api/base/errors.ts</title>
<g id="a_node32"><a xlink:href="src/shared/api/base/errors.ts" xlink:title="errors.ts">
<path fill="#ddfeff" stroke="black" d="M1500.83,-255.88C1500.83,-255.88 1458.67,-255.88 1458.67,-255.88 1455.71,-255.88 1452.75,-252.92 1452.75,-249.96 1452.75,-249.96 1452.75,-244.04 1452.75,-244.04 1452.75,-241.08 1455.71,-238.12 1458.67,-238.12 1458.67,-238.12 1500.83,-238.12 1500.83,-238.12 1503.79,-238.12 1506.75,-241.08 1506.75,-244.04 1506.75,-244.04 1506.75,-249.96 1506.75,-249.96 1506.75,-252.92 1503.79,-255.88 1500.83,-255.88"/>
<text text-anchor="start" x="1463.25" y="-243.32" font-family="Helvetica,sans-Serif" font-size="9.00">errors.ts</text>
</a>
</g>
</g>
<!-- src/shared/api/index.ts&#45;&gt;src/shared/api/base/errors.ts -->
<g id="edge45" class="edge">
<title>src/shared/api/index.ts&#45;&gt;src/shared/api/base/errors.ts</title>
<path fill="none" stroke="#000000" stroke-width="2" stroke-opacity="0.200000" d="M1198.83,-259.77C1204.98,-247.17 1217.94,-225.1 1236.75,-216 1316.78,-177.31 1352.32,-188.21 1436.75,-216 1447.04,-219.39 1456.88,-226.37 1464.44,-232.85"/>
<polygon fill="#000000" fill-opacity="0.200000" stroke="#000000" stroke-width="2" stroke-opacity="0.200000" points="1467.6,-238.53 1464.56,-232.95 1470.42,-235.41 1467.6,-238.53"/>
</g>
<!-- src/shared/api/base/store.ts -->
<g id="node33" class="node">
<title>src/shared/api/base/store.ts</title>
<g id="a_node33"><a xlink:href="src/shared/api/base/store.ts" xlink:title="store.ts">
<path fill="#ddfeff" stroke="black" d="M1500.83,-285.88C1500.83,-285.88 1458.67,-285.88 1458.67,-285.88 1455.71,-285.88 1452.75,-282.92 1452.75,-279.96 1452.75,-279.96 1452.75,-274.04 1452.75,-274.04 1452.75,-271.08 1455.71,-268.12 1458.67,-268.12 1458.67,-268.12 1500.83,-268.12 1500.83,-268.12 1503.79,-268.12 1506.75,-271.08 1506.75,-274.04 1506.75,-274.04 1506.75,-279.96 1506.75,-279.96 1506.75,-282.92 1503.79,-285.88 1500.83,-285.88"/>
<text text-anchor="start" x="1465.12" y="-273.32" font-family="Helvetica,sans-Serif" font-size="9.00">store.ts</text>
</a>
</g>
</g>
<!-- src/shared/api/index.ts&#45;&gt;src/shared/api/base/store.ts -->
<g id="edge47" class="edge">
<title>src/shared/api/index.ts&#45;&gt;src/shared/api/base/store.ts</title>
<path fill="none" stroke="#000000" stroke-width="2" stroke-opacity="0.200000" d="M1201.62,-259.95C1209.12,-250.9 1222.02,-237.56 1236.75,-232 1278.33,-216.3 1401.51,-204.92 1436.75,-232 1447.69,-240.41 1435.78,-251.52 1444.75,-262 1445.43,-262.8 1446.16,-263.55 1446.94,-264.27"/>
<polygon fill="#000000" fill-opacity="0.200000" stroke="#000000" stroke-width="2" stroke-opacity="0.200000" points="1450.49,-269.54 1446.94,-264.27 1453,-266.18 1450.49,-269.54"/>
</g>
<!-- src/shared/api/pokemon/fecthPokemonApi.ts -->
<g id="node35" class="node">
<title>src/shared/api/pokemon/fecthPokemonApi.ts</title>
<g id="a_node35"><a xlink:href="src/shared/api/pokemon/fecthPokemonApi.ts" xlink:title="fecthPokemonApi.ts">
<path fill="#ddfeff" stroke="black" d="M1335.83,-345.88C1335.83,-345.88 1250.67,-345.88 1250.67,-345.88 1247.71,-345.88 1244.75,-342.92 1244.75,-339.96 1244.75,-339.96 1244.75,-334.04 1244.75,-334.04 1244.75,-331.08 1247.71,-328.12 1250.67,-328.12 1250.67,-328.12 1335.83,-328.12 1335.83,-328.12 1338.79,-328.12 1341.75,-331.08 1341.75,-334.04 1341.75,-334.04 1341.75,-339.96 1341.75,-339.96 1341.75,-342.92 1338.79,-345.88 1335.83,-345.88"/>
<text text-anchor="start" x="1252.75" y="-333.32" font-family="Helvetica,sans-Serif" font-size="9.00">fecthPokemonApi.ts</text>
</a>
</g>
</g>
<!-- src/shared/api/index.ts&#45;&gt;src/shared/api/pokemon/fecthPokemonApi.ts -->
<g id="edge49" class="edge">
<title>src/shared/api/index.ts&#45;&gt;src/shared/api/pokemon/fecthPokemonApi.ts</title>
<path fill="none" stroke="#000000" stroke-width="2" stroke-opacity="0.200000" d="M1199.07,-277.97C1205.5,-290.33 1218.8,-312.38 1236.75,-324 1237.2,-324.29 1237.66,-324.58 1238.12,-324.86"/>
<polygon fill="#000000" fill-opacity="0.200000" stroke="#000000" stroke-width="2" stroke-opacity="0.200000" points="1242.55,-329.54 1238.2,-324.9 1244.49,-325.82 1242.55,-329.54"/>
</g>
<!-- src/shared/api/pokemon/types.ts -->
<g id="node36" class="node">
<title>src/shared/api/pokemon/types.ts</title>
<g id="a_node36"><a xlink:href="src/shared/api/pokemon/types.ts" xlink:title="types.ts">
<path fill="#ddfeff" stroke="black" d="M1314.33,-375.88C1314.33,-375.88 1272.17,-375.88 1272.17,-375.88 1269.21,-375.88 1266.25,-372.92 1266.25,-369.96 1266.25,-369.96 1266.25,-364.04 1266.25,-364.04 1266.25,-361.08 1269.21,-358.12 1272.17,-358.12 1272.17,-358.12 1314.33,-358.12 1314.33,-358.12 1317.29,-358.12 1320.25,-361.08 1320.25,-364.04 1320.25,-364.04 1320.25,-369.96 1320.25,-369.96 1320.25,-372.92 1317.29,-375.88 1314.33,-375.88"/>
<text text-anchor="start" x="1277.88" y="-363.32" font-family="Helvetica,sans-Serif" font-size="9.00">types.ts</text>
</a>
</g>
</g>
<!-- src/shared/api/index.ts&#45;&gt;src/shared/api/pokemon/types.ts -->
<g id="edge50" class="edge">
<title>src/shared/api/index.ts&#45;&gt;src/shared/api/pokemon/types.ts</title>
<path fill="none" stroke="#000000" stroke-opacity="0.200000" d="M1196.8,-278.3C1201.1,-295.53 1212.7,-332.43 1236.75,-352 1243.03,-357.11 1250.91,-360.49 1258.74,-362.72"/>
<polygon fill="none" stroke="#000000" stroke-opacity="0.200000" points="1258.07,-364.72 1264.4,-364.1 1259.07,-360.64 1258.07,-364.72"/>
</g>
<!-- src/entities/pokemon/index.ts -->
<g id="node12" class="node">
<title>src/entities/pokemon/index.ts</title>
<g id="a_node12"><a xlink:href="src/entities/pokemon/index.ts" xlink:title="index.ts">
<path fill="#ddfeff" stroke="black" d="M640.21,-487.88C640.21,-487.88 598.04,-487.88 598.04,-487.88 595.08,-487.88 592.12,-484.92 592.12,-481.96 592.12,-481.96 592.12,-476.04 592.12,-476.04 592.12,-473.08 595.08,-470.12 598.04,-470.12 598.04,-470.12 640.21,-470.12 640.21,-470.12 643.17,-470.12 646.12,-473.08 646.12,-476.04 646.12,-476.04 646.12,-481.96 646.12,-481.96 646.12,-484.92 643.17,-487.88 640.21,-487.88"/>
<text text-anchor="start" x="603.38" y="-475.32" font-family="Helvetica,sans-Serif" font-size="9.00">index.ts</text>
</a>
</g>
</g>
<!-- src/entities/pokemon/model/consts.ts -->
<g id="node13" class="node">
<title>src/entities/pokemon/model/consts.ts</title>
<g id="a_node13"><a xlink:href="src/entities/pokemon/model/consts.ts" xlink:title="consts.ts">
<path fill="#ddfeff" stroke="black" d="M891.58,-547.88C891.58,-547.88 849.42,-547.88 849.42,-547.88 846.46,-547.88 843.5,-544.92 843.5,-541.96 843.5,-541.96 843.5,-536.04 843.5,-536.04 843.5,-533.08 846.46,-530.12 849.42,-530.12 849.42,-530.12 891.58,-530.12 891.58,-530.12 894.54,-530.12 897.5,-533.08 897.5,-536.04 897.5,-536.04 897.5,-541.96 897.5,-541.96 897.5,-544.92 894.54,-547.88 891.58,-547.88"/>
<text text-anchor="start" x="852.88" y="-535.33" font-family="Helvetica,sans-Serif" font-size="9.00">consts.ts</text>
</a>
</g>
</g>
<!-- src/entities/pokemon/index.ts&#45;&gt;src/entities/pokemon/model/consts.ts -->
<g id="edge10" class="edge">
<title>src/entities/pokemon/index.ts&#45;&gt;src/entities/pokemon/model/consts.ts</title>
<path fill="none" stroke="#000000" stroke-width="2" stroke-opacity="0.200000" d="M633.13,-488.36C646.24,-497.3 667.4,-510.34 687.75,-517 737.74,-533.35 799.04,-537.76 836.14,-538.83"/>
<polygon fill="#000000" fill-opacity="0.200000" stroke="#000000" stroke-width="2" stroke-opacity="0.200000" points="842.18,-541.07 836.23,-538.83 842.28,-536.88 842.18,-541.07"/>
</g>
<!-- src/entities/pokemon/model/store.ts -->
<g id="node14" class="node">
<title>src/entities/pokemon/model/store.ts</title>
<g id="a_node14"><a xlink:href="src/entities/pokemon/model/store.ts" xlink:title="store.ts">
<path fill="#ddfeff" stroke="black" d="M891.58,-577.88C891.58,-577.88 849.42,-577.88 849.42,-577.88 846.46,-577.88 843.5,-574.92 843.5,-571.96 843.5,-571.96 843.5,-566.04 843.5,-566.04 843.5,-563.08 846.46,-560.12 849.42,-560.12 849.42,-560.12 891.58,-560.12 891.58,-560.12 894.54,-560.12 897.5,-563.08 897.5,-566.04 897.5,-566.04 897.5,-571.96 897.5,-571.96 897.5,-574.92 894.54,-577.88 891.58,-577.88"/>
<text text-anchor="start" x="855.88" y="-565.33" font-family="Helvetica,sans-Serif" font-size="9.00">store.ts</text>
</a>
</g>
</g>
<!-- src/entities/pokemon/index.ts&#45;&gt;src/entities/pokemon/model/store.ts -->
<g id="edge11" class="edge">
<title>src/entities/pokemon/index.ts&#45;&gt;src/entities/pokemon/model/store.ts</title>
<path fill="none" stroke="#000000" stroke-width="2" stroke-opacity="0.200000" d="M629.33,-488.07C641.6,-499.62 664.48,-519.36 687.75,-530 736.66,-552.36 798.9,-562.13 836.4,-566.23"/>
<polygon fill="#000000" fill-opacity="0.200000" stroke="#000000" stroke-width="2" stroke-opacity="0.200000" points="841.89,-568.92 836.14,-566.21 842.32,-564.74 841.89,-568.92"/>
</g>
<!-- src/entities/pokemon/ui/PokemonCard.tsx -->
<g id="node15" class="node">
<title>src/entities/pokemon/ui/PokemonCard.tsx</title>
<g id="a_node15"><a xlink:href="src/entities/pokemon/ui/PokemonCard.tsx" xlink:title="PokemonCard.tsx">
<path fill="#bbfeff" stroke="black" d="M782.33,-487.88C782.33,-487.88 705.42,-487.88 705.42,-487.88 702.46,-487.88 699.5,-484.92 699.5,-481.96 699.5,-481.96 699.5,-476.04 699.5,-476.04 699.5,-473.08 702.46,-470.12 705.42,-470.12 705.42,-470.12 782.33,-470.12 782.33,-470.12 785.29,-470.12 788.25,-473.08 788.25,-476.04 788.25,-476.04 788.25,-481.96 788.25,-481.96 788.25,-484.92 785.29,-487.88 782.33,-487.88"/>
<text text-anchor="start" x="707.5" y="-475.32" font-family="Helvetica,sans-Serif" font-size="9.00">PokemonCard.tsx</text>
</a>
</g>
</g>
<!-- src/entities/pokemon/index.ts&#45;&gt;src/entities/pokemon/ui/PokemonCard.tsx -->
<g id="edge12" class="edge">
<title>src/entities/pokemon/index.ts&#45;&gt;src/entities/pokemon/ui/PokemonCard.tsx</title>
<path fill="none" stroke="#000000" stroke-width="2" stroke-opacity="0.200000" d="M646.46,-479C659.78,-479 676.4,-479 692.08,-479"/>
<polygon fill="#000000" fill-opacity="0.200000" stroke="#000000" stroke-width="2" stroke-opacity="0.200000" points="698.2,-481.1 692.2,-479 698.2,-476.9 698.2,-481.1"/>
</g>
<!-- src/entities/pokemon/model/store.ts&#45;&gt;src/entities/pokemon/api/queryPokemonById.ts -->
<g id="edge15" class="edge">
<title>src/entities/pokemon/model/store.ts&#45;&gt;src/entities/pokemon/api/queryPokemonById.ts</title>
<path fill="none" stroke="#000000" stroke-width="2" stroke-opacity="0.200000" d="M843.32,-568.36C799.93,-567.65 715.19,-567.82 687.75,-579 683.37,-580.78 683.97,-583.87 679.75,-586 679.58,-586.09 679.41,-586.17 679.23,-586.26"/>
<polygon fill="#000000" fill-opacity="0.200000" stroke="#000000" stroke-width="2" stroke-opacity="0.200000" points="678.62,-584.23 673.94,-588.53 680.28,-588.09 678.62,-584.23"/>
</g>
<!-- src/entities/pokemon/ui/PokemonCard.tsx&#45;&gt;src/entities/pokemon/model/store.ts -->
<g id="edge16" class="edge">
<title>src/entities/pokemon/ui/PokemonCard.tsx&#45;&gt;src/entities/pokemon/model/store.ts</title>
<path fill="none" stroke="#000000" stroke-width="2" stroke-opacity="0.200000" d="M788.65,-483.86C792.93,-485.85 796.84,-488.49 800,-492 818.61,-512.63 789.47,-533.3 808,-554 814.68,-561.46 824.39,-565.51 834.13,-567.63"/>
<polygon fill="#000000" fill-opacity="0.200000" stroke="#000000" stroke-width="2" stroke-opacity="0.200000" points="833.76,-569.7 840.02,-568.6 834.43,-565.56 833.76,-569.7"/>
</g>
<!-- src/entities/pokemon/ui/PokemonCardStub.tsx -->
<g id="node17" class="node">
<title>src/entities/pokemon/ui/PokemonCardStub.tsx</title>
<g id="a_node17"><a xlink:href="src/entities/pokemon/ui/PokemonCardStub.tsx" xlink:title="PokemonCardStub.tsx">
<path fill="#bbfeff" stroke="black" d="M918.33,-487.88C918.33,-487.88 822.67,-487.88 822.67,-487.88 819.71,-487.88 816.75,-484.92 816.75,-481.96 816.75,-481.96 816.75,-476.04 816.75,-476.04 816.75,-473.08 819.71,-470.12 822.67,-470.12 822.67,-470.12 918.33,-470.12 918.33,-470.12 921.29,-470.12 924.25,-473.08 924.25,-476.04 924.25,-476.04 924.25,-481.96 924.25,-481.96 924.25,-484.92 921.29,-487.88 918.33,-487.88"/>
<text text-anchor="start" x="824.75" y="-475.32" font-family="Helvetica,sans-Serif" font-size="9.00">PokemonCardStub.tsx</text>
</a>
</g>
</g>
<!-- src/entities/pokemon/ui/PokemonCard.tsx&#45;&gt;src/entities/pokemon/ui/PokemonCardStub.tsx -->
<g id="edge17" class="edge">
<title>src/entities/pokemon/ui/PokemonCard.tsx&#45;&gt;src/entities/pokemon/ui/PokemonCardStub.tsx</title>
<path fill="none" stroke="#000000" stroke-width="2" stroke-opacity="0.200000" d="M788.46,-479C794.64,-479 801.09,-479 807.53,-479"/>
<polygon fill="#000000" fill-opacity="0.200000" stroke="#000000" stroke-width="2" stroke-opacity="0.200000" points="807.26,-481.1 813.26,-479 807.26,-476.9 807.26,-481.1"/>
</g>
<!-- src/entities/session/model/actions.ts&#45;&gt;src/shared/api/index.ts -->
<g id="edge21" class="edge">
<title>src/entities/session/model/actions.ts&#45;&gt;src/shared/api/index.ts</title>
<path fill="none" stroke="#000000" stroke-width="2" stroke-opacity="0.200000" d="M1117.12,-240.3C1129.97,-245.17 1145.89,-251.21 1159.8,-256.5"/>
<polygon fill="#000000" fill-opacity="0.200000" stroke="#000000" stroke-width="2" stroke-opacity="0.200000" points="1158.98,-258.43 1165.33,-258.59 1160.47,-254.5 1158.98,-258.43"/>
</g>
<!-- src/entities/session/model/store.ts&#45;&gt;src/shared/api/index.ts -->
<g id="edge22" class="edge">
<title>src/entities/session/model/store.ts&#45;&gt;src/shared/api/index.ts</title>
<path fill="none" stroke="#000000" stroke-width="2" stroke-opacity="0.200000" d="M1118.97,-206.11C1126.98,-208.37 1135.56,-211.57 1142.75,-216 1158.12,-225.48 1171.89,-240.86 1181.07,-252.62"/>
<polygon fill="#000000" fill-opacity="0.200000" stroke="#000000" stroke-width="2" stroke-opacity="0.200000" points="1179.31,-253.77 1184.59,-257.31 1182.67,-251.25 1179.31,-253.77"/>
</g>
<!-- src/entities/session/ui/LogoutButton.tsx&#45;&gt;src/entities/session/model/actions.ts -->
<g id="edge23" class="edge">
<title>src/entities/session/ui/LogoutButton.tsx&#45;&gt;src/entities/session/model/actions.ts</title>
<path fill="none" stroke="#000000" stroke-width="2" stroke-opacity="0.200000" d="M1040.99,-231C1045.81,-231 1050.68,-231 1055.39,-231"/>
<polygon fill="#000000" fill-opacity="0.200000" stroke="#000000" stroke-width="2" stroke-opacity="0.200000" points="1055.19,-233.1 1061.19,-231 1055.19,-228.9 1055.19,-233.1"/>
</g>
<!-- src/entities/user/index.ts -->
<g id="node21" class="node">
<title>src/entities/user/index.ts</title>
<g id="a_node21"><a xlink:href="src/entities/user/index.ts" xlink:title="index.ts">
<path fill="#ddfeff" stroke="black" d="M640.21,-337.88C640.21,-337.88 598.04,-337.88 598.04,-337.88 595.08,-337.88 592.12,-334.92 592.12,-331.96 592.12,-331.96 592.12,-326.04 592.12,-326.04 592.12,-323.08 595.08,-320.12 598.04,-320.12 598.04,-320.12 640.21,-320.12 640.21,-320.12 643.17,-320.12 646.12,-323.08 646.12,-326.04 646.12,-326.04 646.12,-331.96 646.12,-331.96 646.12,-334.92 643.17,-337.88 640.21,-337.88"/>
<text text-anchor="start" x="603.38" y="-325.32" font-family="Helvetica,sans-Serif" font-size="9.00">index.ts</text>
</a>
</g>
</g>
<!-- src/entities/user/model/store.ts -->
<g id="node22" class="node">
<title>src/entities/user/model/store.ts</title>
<g id="a_node22"><a xlink:href="src/entities/user/model/store.ts" xlink:title="store.ts">
<path fill="#ddfeff" stroke="black" d="M764.96,-333.88C764.96,-333.88 722.79,-333.88 722.79,-333.88 719.83,-333.88 716.88,-330.92 716.88,-327.96 716.88,-327.96 716.88,-322.04 716.88,-322.04 716.88,-319.08 719.83,-316.12 722.79,-316.12 722.79,-316.12 764.96,-316.12 764.96,-316.12 767.92,-316.12 770.88,-319.08 770.88,-322.04 770.88,-322.04 770.88,-327.96 770.88,-327.96 770.88,-330.92 767.92,-333.88 764.96,-333.88"/>
<text text-anchor="start" x="729.25" y="-321.32" font-family="Helvetica,sans-Serif" font-size="9.00">store.ts</text>
</a>
</g>
</g>
<!-- src/entities/user/index.ts&#45;&gt;src/entities/user/model/store.ts -->
<g id="edge24" class="edge">
<title>src/entities/user/index.ts&#45;&gt;src/entities/user/model/store.ts</title>
<path fill="none" stroke="#000000" stroke-width="2" stroke-opacity="0.200000" d="M646.46,-328.14C664.9,-327.54 689.7,-326.73 709.53,-326.09"/>
<polygon fill="#000000" fill-opacity="0.200000" stroke="#000000" stroke-width="2" stroke-opacity="0.200000" points="715.65,-327.99 709.59,-326.08 715.52,-323.79 715.65,-327.99"/>
</g>
<!-- src/entities/user/model/store.ts&#45;&gt;src/entities/session/index.ts -->
<g id="edge29" class="edge">
<title>src/entities/user/model/store.ts&#45;&gt;src/entities/session/index.ts</title>
<path fill="none" stroke="#000000" stroke-width="2" stroke-opacity="0.200000" d="M754.24,-315.98C775.44,-295.57 827.3,-245.63 853.62,-220.29"/>
<polygon fill="#000000" fill-opacity="0.200000" stroke="#000000" stroke-width="2" stroke-opacity="0.200000" points="854.98,-221.9 857.84,-216.22 852.06,-218.87 854.98,-221.9"/>
</g>
<!-- src/entities/user/model/store.ts&#45;&gt;src/shared/api/index.ts -->
<g id="edge30" class="edge">
<title>src/entities/user/model/store.ts&#45;&gt;src/shared/api/index.ts</title>
<path fill="none" stroke="#000000" stroke-width="2" stroke-opacity="0.200000" d="M766.01,-334.35C778.28,-341 792.71,-351.2 800,-365 807.06,-378.37 797.15,-626.47 808,-637 850.17,-677.95 888.24,-664.39 940.25,-637 1088.93,-558.7 1166.91,-348.97 1187.28,-286.68"/>
<polygon fill="#000000" fill-opacity="0.200000" stroke="#000000" stroke-width="2" stroke-opacity="0.200000" points="1189.21,-287.53 1189.04,-281.17 1185.21,-286.25 1189.21,-287.53"/>
</g>
<!-- src/entities/user/lib/mapUserDto.ts -->
<g id="node23" class="node">
<title>src/entities/user/lib/mapUserDto.ts</title>
<g id="a_node23"><a xlink:href="src/entities/user/lib/mapUserDto.ts" xlink:title="mapUserDto.ts">
<path fill="#ddfeff" stroke="black" d="M776.33,-393.88C776.33,-393.88 711.42,-393.88 711.42,-393.88 708.46,-393.88 705.5,-390.92 705.5,-387.96 705.5,-387.96 705.5,-382.04 705.5,-382.04 705.5,-379.08 708.46,-376.12 711.42,-376.12 711.42,-376.12 776.33,-376.12 776.33,-376.12 779.29,-376.12 782.25,-379.08 782.25,-382.04 782.25,-382.04 782.25,-387.96 782.25,-387.96 782.25,-390.92 779.29,-393.88 776.33,-393.88"/>
<text text-anchor="start" x="713.5" y="-381.32" font-family="Helvetica,sans-Serif" font-size="9.00">mapUserDto.ts</text>
</a>
</g>
</g>
<!-- src/entities/user/model/store.ts&#45;&gt;src/entities/user/lib/mapUserDto.ts -->
<g id="edge27" class="edge">
<title>src/entities/user/model/store.ts&#45;&gt;src/entities/user/lib/mapUserDto.ts</title>
<path fill="none" stroke="#000000" stroke-width="2" stroke-opacity="0.200000" d="M743.88,-334.38C743.88,-345.3 743.88,-356.22 743.88,-367.14"/>
<polygon fill="#000000" fill-opacity="0.200000" stroke="#000000" stroke-width="2" stroke-opacity="0.200000" points="741.78,-366.88 743.88,-372.88 745.98,-366.88 741.78,-366.88"/>
</g>
<!-- src/entities/user/model/types.ts -->
<g id="node24" class="node">
<title>src/entities/user/model/types.ts</title>
<g id="a_node24"><a xlink:href="src/entities/user/model/types.ts" xlink:title="types.ts">
<path fill="#ddfeff" stroke="black" d="M891.58,-333.88C891.58,-333.88 849.42,-333.88 849.42,-333.88 846.46,-333.88 843.5,-330.92 843.5,-327.96 843.5,-327.96 843.5,-322.04 843.5,-322.04 843.5,-319.08 846.46,-316.12 849.42,-316.12 849.42,-316.12 891.58,-316.12 891.58,-316.12 894.54,-316.12 897.5,-319.08 897.5,-322.04 897.5,-322.04 897.5,-327.96 897.5,-327.96 897.5,-330.92 894.54,-333.88 891.58,-333.88"/>
<text text-anchor="start" x="855.12" y="-321.32" font-family="Helvetica,sans-Serif" font-size="9.00">types.ts</text>
</a>
</g>
</g>
<!-- src/entities/user/model/store.ts&#45;&gt;src/entities/user/model/types.ts -->
<g id="edge28" class="edge">
<title>src/entities/user/model/store.ts&#45;&gt;src/entities/user/model/types.ts</title>
<path fill="none" stroke="#000000" stroke-opacity="0.200000" d="M771.3,-325C790.06,-325 815.39,-325 835.63,-325"/>
<polygon fill="none" stroke="#000000" stroke-opacity="0.200000" points="835.59,-327.1 841.59,-325 835.59,-322.9 835.59,-327.1"/>
</g>
<!-- src/entities/user/lib/mapUserDto.ts&#45;&gt;src/shared/api/index.ts -->
<g id="edge26" class="edge">
<title>src/entities/user/lib/mapUserDto.ts&#45;&gt;src/shared/api/index.ts</title>
<path fill="none" stroke="#000000" stroke-opacity="0.200000" d="M754.46,-393.94C767.54,-406.85 790.47,-432.12 800,-459 807.21,-479.33 792.43,-638.06 808,-653 850.41,-693.7 883.34,-667.72 940.25,-653 1057.4,-622.7 1090.09,-579.95 1142.75,-471 1173.88,-406.59 1186.77,-320.96 1191.01,-285.48"/>
<polygon fill="none" stroke="#000000" stroke-opacity="0.200000" points="1193.06,-286.02 1191.65,-279.82 1188.89,-285.55 1193.06,-286.02"/>
</g>
<!-- src/entities/user/lib/mapUserDto.ts&#45;&gt;src/entities/user/model/types.ts -->
<g id="edge25" class="edge">
<title>src/entities/user/lib/mapUserDto.ts&#45;&gt;src/entities/user/model/types.ts</title>
<path fill="none" stroke="#000000" stroke-opacity="0.200000" d="M770.12,-375.66C779.6,-371.97 790.4,-367.52 800,-363 816.25,-355.35 834.01,-345.61 847.51,-337.91"/>
<polygon fill="none" stroke="#000000" stroke-opacity="0.200000" points="848.31,-339.88 852.46,-335.06 846.21,-336.24 848.31,-339.88"/>
</g>
<!-- src/pages/home/ui/Page.tsx&#45;&gt;src/entities/pokemon/index.ts -->
<g id="edge34" class="edge">
<title>src/pages/home/ui/Page.tsx&#45;&gt;src/entities/pokemon/index.ts</title>
<path fill="none" stroke="#000000" stroke-width="2" stroke-opacity="0.200000" d="M403.7,-247.99C424.74,-284.16 504.32,-418.53 542.5,-449 554.38,-458.49 569.65,-465.3 583.35,-470.01"/>
<polygon fill="#000000" fill-opacity="0.200000" stroke="#000000" stroke-width="2" stroke-opacity="0.200000" points="582.39,-471.91 588.75,-471.75 583.68,-467.91 582.39,-471.91"/>
</g>
<!-- src/pages/home/model/store.ts -->
<g id="node26" class="node">
<title>src/pages/home/model/store.ts</title>
<g id="a_node26"><a xlink:href="src/pages/home/model/store.ts" xlink:title="store.ts">
<path fill="#ddfeff" stroke="black" d="M504.58,-247.88C504.58,-247.88 462.42,-247.88 462.42,-247.88 459.46,-247.88 456.5,-244.92 456.5,-241.96 456.5,-241.96 456.5,-236.04 456.5,-236.04 456.5,-233.08 459.46,-230.12 462.42,-230.12 462.42,-230.12 504.58,-230.12 504.58,-230.12 507.54,-230.12 510.5,-233.08 510.5,-236.04 510.5,-236.04 510.5,-241.96 510.5,-241.96 510.5,-244.92 507.54,-247.88 504.58,-247.88"/>
<text text-anchor="start" x="468.88" y="-235.32" font-family="Helvetica,sans-Serif" font-size="9.00">store.ts</text>
</a>
</g>
</g>
<!-- src/pages/home/ui/Page.tsx&#45;&gt;src/pages/home/model/store.ts -->
<g id="edge33" class="edge">
<title>src/pages/home/ui/Page.tsx&#45;&gt;src/pages/home/model/store.ts</title>
<path fill="none" stroke="#000000" stroke-width="2" stroke-opacity="0.200000" d="M424.62,-239C431.82,-239 439.75,-239 447.37,-239"/>
<polygon fill="#000000" fill-opacity="0.200000" stroke="#000000" stroke-width="2" stroke-opacity="0.200000" points="447.08,-241.1 453.08,-239 447.08,-236.9 447.08,-241.1"/>
</g>
<!-- src/shared/ui/Input.tsx -->
<g id="node27" class="node">
<title>src/shared/ui/Input.tsx</title>
<g id="a_node27"><a xlink:href="src/shared/ui/Input.tsx" xlink:title="Input.tsx">
<path fill="#bbfeff" stroke="black" d="M1214.83,-167.88C1214.83,-167.88 1172.67,-167.88 1172.67,-167.88 1169.71,-167.88 1166.75,-164.92 1166.75,-161.96 1166.75,-161.96 1166.75,-156.04 1166.75,-156.04 1166.75,-153.08 1169.71,-150.12 1172.67,-150.12 1172.67,-150.12 1214.83,-150.12 1214.83,-150.12 1217.79,-150.12 1220.75,-153.08 1220.75,-156.04 1220.75,-156.04 1220.75,-161.96 1220.75,-161.96 1220.75,-164.92 1217.79,-167.88 1214.83,-167.88"/>
<text text-anchor="start" x="1176.88" y="-155.32" font-family="Helvetica,sans-Serif" font-size="9.00">Input.tsx</text>
</a>
</g>
</g>
<!-- src/pages/home/ui/Page.tsx&#45;&gt;src/shared/ui/Input.tsx -->
<g id="edge35" class="edge">
<title>src/pages/home/ui/Page.tsx&#45;&gt;src/shared/ui/Input.tsx</title>
<path fill="none" stroke="#000000" stroke-width="2" stroke-opacity="0.200000" d="M404.72,-229.73C413.16,-217.97 429.39,-198.01 448.5,-188 516.26,-152.53 541.64,-159 618.12,-159 618.12,-159 618.12,-159 999.38,-159 1054.7,-159 1118.92,-159 1157.67,-159"/>
<polygon fill="#000000" fill-opacity="0.200000" stroke="#000000" stroke-width="2" stroke-opacity="0.200000" points="1157.45,-161.1 1163.45,-159 1157.45,-156.9 1157.45,-161.1"/>
</g>
<!-- src/pages/home/model/store.ts&#45;&gt;src/entities/pokemon/index.ts -->
<g id="edge32" class="edge">
<title>src/pages/home/model/store.ts&#45;&gt;src/entities/pokemon/index.ts</title>
<path fill="none" stroke="#000000" stroke-width="2" stroke-opacity="0.200000" d="M496.97,-248.14C509.01,-257.78 526.56,-274.16 534.5,-293 541.24,-308.99 532.38,-434.9 542.5,-449 552,-462.24 568.29,-469.64 583.33,-473.77"/>
<polygon fill="#000000" fill-opacity="0.200000" stroke="#000000" stroke-width="2" stroke-opacity="0.200000" points="582.71,-475.78 589.03,-475.14 583.69,-471.7 582.71,-475.78"/>
</g>
<!-- src/pages/profile/ui/Page.tsx&#45;&gt;src/entities/session/index.ts -->
<g id="edge37" class="edge">
<title>src/pages/profile/ui/Page.tsx&#45;&gt;src/entities/session/index.ts</title>
<path fill="none" stroke="#000000" stroke-width="2" stroke-opacity="0.200000" d="M407.94,-323.64C417.81,-313.23 432.92,-295.43 440.5,-277 445.45,-264.97 438.83,-227.71 448.5,-219 504.5,-168.53 743.36,-190.27 834.22,-200.65"/>
<polygon fill="#000000" fill-opacity="0.200000" stroke="#000000" stroke-width="2" stroke-opacity="0.200000" points="833.84,-202.72 840.04,-201.32 834.32,-198.55 833.84,-202.72"/>
</g>
<!-- src/pages/profile/ui/Page.tsx&#45;&gt;src/entities/user/index.ts -->
<g id="edge38" class="edge">
<title>src/pages/profile/ui/Page.tsx&#45;&gt;src/entities/user/index.ts</title>
<path fill="none" stroke="#000000" stroke-width="2" stroke-opacity="0.200000" d="M424.99,-332.52C464.51,-331.8 538.95,-330.44 582.97,-329.64"/>
<polygon fill="#000000" fill-opacity="0.200000" stroke="#000000" stroke-width="2" stroke-opacity="0.200000" points="582.89,-331.74 588.85,-329.53 582.82,-327.54 582.89,-331.74"/>
</g>
<!-- src/shared/api/base/endpoints.ts&#45;&gt;src/shared/api/base/fetchBaseApi.ts -->
<g id="edge39" class="edge">
<title>src/shared/api/base/endpoints.ts&#45;&gt;src/shared/api/base/fetchBaseApi.ts</title>
<path fill="none" stroke="#000000" stroke-width="2" stroke-opacity="0.200000" d="M1326.24,-247C1333.38,-247 1341.1,-247 1348.72,-247"/>
<polygon fill="#000000" fill-opacity="0.200000" stroke="#000000" stroke-width="2" stroke-opacity="0.200000" points="1348.54,-249.1 1354.54,-247 1348.54,-244.9 1348.54,-249.1"/>
</g>
<!-- src/shared/api/base/endpoints.ts&#45;&gt;src/shared/api/base/types.ts -->
<g id="edge40" class="edge">
<title>src/shared/api/base/endpoints.ts&#45;&gt;src/shared/api/base/types.ts</title>
<path fill="none" stroke="#000000" stroke-opacity="0.200000" d="M1326.41,-253.84C1334.11,-255.67 1342.26,-257.76 1349.75,-260 1354.96,-261.56 1360.43,-263.38 1365.72,-265.25"/>
<polygon fill="none" stroke="#000000" stroke-opacity="0.200000" points="1365,-267.22 1371.36,-267.28 1366.43,-263.27 1365,-267.22"/>
</g>
<!-- src/shared/api/base/fetchBaseApi.ts&#45;&gt;src/shared/api/base/errors.ts -->
<g id="edge41" class="edge">
<title>src/shared/api/base/fetchBaseApi.ts&#45;&gt;src/shared/api/base/errors.ts</title>
<path fill="none" stroke="#000000" stroke-width="2" stroke-opacity="0.200000" d="M1437.09,-247C1439.18,-247 1441.27,-247 1443.35,-247"/>
<polygon fill="#000000" fill-opacity="0.200000" stroke="#000000" stroke-width="2" stroke-opacity="0.200000" points="1443.25,-249.1 1449.25,-247 1443.25,-244.9 1443.25,-249.1"/>
</g>
<!-- src/shared/api/base/fetchBaseApi.ts&#45;&gt;src/shared/api/base/store.ts -->
<g id="edge42" class="edge">
<title>src/shared/api/base/fetchBaseApi.ts&#45;&gt;src/shared/api/base/store.ts</title>
<path fill="none" stroke="#000000" stroke-width="2" stroke-opacity="0.200000" d="M1423.28,-256.33C1430.25,-258.92 1437.93,-261.79 1445.29,-264.53"/>
<polygon fill="#000000" fill-opacity="0.200000" stroke="#000000" stroke-width="2" stroke-opacity="0.200000" points="1444.54,-266.49 1450.9,-266.62 1446.01,-262.56 1444.54,-266.49"/>
</g>
<!-- src/shared/lib/wait.ts -->
<g id="node34" class="node">
<title>src/shared/lib/wait.ts</title>
<g id="a_node34"><a xlink:href="src/shared/lib/wait.ts" xlink:title="wait.ts">
<path fill="#ddfeff" stroke="black" d="M1500.83,-461.88C1500.83,-461.88 1458.67,-461.88 1458.67,-461.88 1455.71,-461.88 1452.75,-458.92 1452.75,-455.96 1452.75,-455.96 1452.75,-450.04 1452.75,-450.04 1452.75,-447.08 1455.71,-444.12 1458.67,-444.12 1458.67,-444.12 1500.83,-444.12 1500.83,-444.12 1503.79,-444.12 1506.75,-447.08 1506.75,-450.04 1506.75,-450.04 1506.75,-455.96 1506.75,-455.96 1506.75,-458.92 1503.79,-461.88 1500.83,-461.88"/>
<text text-anchor="start" x="1467" y="-449.32" font-family="Helvetica,sans-Serif" font-size="9.00">wait.ts</text>
</a>
</g>
</g>
<!-- src/shared/api/base/fetchBaseApi.ts&#45;&gt;src/shared/lib/wait.ts -->
<g id="edge43" class="edge">
<title>src/shared/api/base/fetchBaseApi.ts&#45;&gt;src/shared/lib/wait.ts</title>
<path fill="none" stroke="#000000" stroke-width="2" stroke-opacity="0.200000" d="M1430.4,-256.23C1432.79,-257.85 1434.96,-259.76 1436.75,-262 1451.63,-280.61 1440.12,-291.63 1444.75,-315 1453.38,-358.54 1466.67,-409.04 1473.81,-435.21"/>
<polygon fill="#000000" fill-opacity="0.200000" stroke="#000000" stroke-width="2" stroke-opacity="0.200000" points="1471.73,-435.55 1475.34,-440.78 1475.78,-434.44 1471.73,-435.55"/>
</g>
<!-- src/shared/lib/app.d.ts -->
<g id="node37" class="node">
<title>src/shared/lib/app.d.ts</title>
<g id="a_node37"><a xlink:href="src/shared/lib/app.d.ts" xlink:title="app.d.ts">
<path fill="#ccffcc" stroke="black" d="M1500.83,-491.88C1500.83,-491.88 1458.67,-491.88 1458.67,-491.88 1455.71,-491.88 1452.75,-488.92 1452.75,-485.96 1452.75,-485.96 1452.75,-480.04 1452.75,-480.04 1452.75,-477.08 1455.71,-474.12 1458.67,-474.12 1458.67,-474.12 1500.83,-474.12 1500.83,-474.12 1503.79,-474.12 1506.75,-477.08 1506.75,-480.04 1506.75,-480.04 1506.75,-485.96 1506.75,-485.96 1506.75,-488.92 1503.79,-491.88 1500.83,-491.88"/>
<text text-anchor="start" x="1463.62" y="-479.32" font-family="Helvetica,sans-Serif" font-size="9.00">app.d.ts</text>
</a>
</g>
</g>
<!-- src/widgets/LoginDialog/ui/LoginDialog.tsx -->
<g id="node40" class="node">
<title>src/widgets/LoginDialog/ui/LoginDialog.tsx</title>
<g id="a_node40"><a xlink:href="src/widgets/LoginDialog/ui/LoginDialog.tsx" xlink:title="LoginDialog.tsx">
<path fill="#bbfeff" stroke="black" d="M1032.33,-57.88C1032.33,-57.88 964.42,-57.88 964.42,-57.88 961.46,-57.88 958.5,-54.92 958.5,-51.96 958.5,-51.96 958.5,-46.04 958.5,-46.04 958.5,-43.08 961.46,-40.12 964.42,-40.12 964.42,-40.12 1032.33,-40.12 1032.33,-40.12 1035.29,-40.12 1038.25,-43.08 1038.25,-46.04 1038.25,-46.04 1038.25,-51.96 1038.25,-51.96 1038.25,-54.92 1035.29,-57.88 1032.33,-57.88"/>
<text text-anchor="start" x="966.5" y="-45.33" font-family="Helvetica,sans-Serif" font-size="9.00">LoginDialog.tsx</text>
</a>
</g>
</g>
<!-- src/widgets/LoginDialog/ui/LoginDialogTrigger.tsx&#45;&gt;src/widgets/LoginDialog/ui/LoginDialog.tsx -->
<g id="edge55" class="edge">
<title>src/widgets/LoginDialog/ui/LoginDialogTrigger.tsx&#45;&gt;src/widgets/LoginDialog/ui/LoginDialog.tsx</title>
<path fill="none" stroke="#000000" stroke-width="2" stroke-opacity="0.200000" d="M925.25,-49C933.31,-49 941.57,-49 949.5,-49"/>
<polygon fill="#000000" fill-opacity="0.200000" stroke="#000000" stroke-width="2" stroke-opacity="0.200000" points="949.25,-51.1 955.25,-49 949.25,-46.9 949.25,-51.1"/>
</g>
<!-- src/widgets/LoginDialog/model/store.ts -->
<g id="node39" class="node">
<title>src/widgets/LoginDialog/model/store.ts</title>
<g id="a_node39"><a xlink:href="src/widgets/LoginDialog/model/store.ts" xlink:title="store.ts">
<path fill="#ddfeff" stroke="black" d="M1112.71,-57.88C1112.71,-57.88 1070.54,-57.88 1070.54,-57.88 1067.58,-57.88 1064.62,-54.92 1064.62,-51.96 1064.62,-51.96 1064.62,-46.04 1064.62,-46.04 1064.62,-43.08 1067.58,-40.12 1070.54,-40.12 1070.54,-40.12 1112.71,-40.12 1112.71,-40.12 1115.67,-40.12 1118.62,-43.08 1118.62,-46.04 1118.62,-46.04 1118.62,-51.96 1118.62,-51.96 1118.62,-54.92 1115.67,-57.88 1112.71,-57.88"/>
<text text-anchor="start" x="1077" y="-45.33" font-family="Helvetica,sans-Serif" font-size="9.00">store.ts</text>
</a>
</g>
</g>
<!-- src/widgets/LoginDialog/model/store.ts&#45;&gt;src/shared/api/index.ts -->
<g id="edge52" class="edge">
<title>src/widgets/LoginDialog/model/store.ts&#45;&gt;src/shared/api/index.ts</title>
<path fill="none" stroke="#000000" stroke-width="2" stroke-opacity="0.200000" d="M1102.36,-58.21C1114.2,-70.08 1133.72,-91.96 1142.75,-115 1156.11,-149.09 1139.49,-162.16 1150.75,-197 1157.44,-217.68 1170.73,-238.88 1180.58,-252.87"/>
<polygon fill="#000000" fill-opacity="0.200000" stroke="#000000" stroke-width="2" stroke-opacity="0.200000" points="1178.64,-253.77 1183.86,-257.39 1182.04,-251.3 1178.64,-253.77"/>
</g>
<!-- src/widgets/LoginDialog/ui/LoginDialog.tsx&#45;&gt;src/shared/api/index.ts -->
<g id="edge54" class="edge">
<title>src/widgets/LoginDialog/ui/LoginDialog.tsx&#45;&gt;src/shared/api/index.ts</title>
<path fill="none" stroke="#000000" stroke-width="2" stroke-opacity="0.200000" d="M1012.32,-58.32C1039.37,-78.28 1102.67,-127.74 1142.75,-181 1147.53,-187.35 1146.97,-190.01 1150.75,-197 1161.11,-216.15 1173.8,-237.66 1182.5,-252.15"/>
<polygon fill="#000000" fill-opacity="0.200000" stroke="#000000" stroke-width="2" stroke-opacity="0.200000" points="1180.66,-253.15 1185.55,-257.2 1184.25,-250.98 1180.66,-253.15"/>
</g>
<!-- src/widgets/LoginDialog/ui/LoginDialog.tsx&#45;&gt;src/widgets/LoginDialog/model/store.ts -->
<g id="edge53" class="edge">
<title>src/widgets/LoginDialog/ui/LoginDialog.tsx&#45;&gt;src/widgets/LoginDialog/model/store.ts</title>
<path fill="none" stroke="#000000" stroke-width="2" stroke-opacity="0.200000" d="M1038.6,-49C1044.17,-49 1049.87,-49 1055.36,-49"/>
<polygon fill="#000000" fill-opacity="0.200000" stroke="#000000" stroke-width="2" stroke-opacity="0.200000" points="1055.31,-51.1 1061.31,-49 1055.31,-46.9 1055.31,-51.1"/>
</g>
</g>
</svg>
