<?xml version="1.0" encoding="UTF-8" standalone="no"?>
<!DOCTYPE svg PUBLIC "-//W3C//DTD SVG 1.1//EN"
 "http://www.w3.org/Graphics/SVG/1.1/DTD/svg11.dtd">
<!-- Generated by graphviz version 12.0.0 (20240704.0754)
 -->
<!-- Title: dependency&#45;cruiser output Pages: 1 -->
<svg width="564pt" height="260pt"
 viewBox="0.00 0.00 563.50 260.00" xmlns="http://www.w3.org/2000/svg" xmlns:xlink="http://www.w3.org/1999/xlink">
<g id="graph0" class="graph" transform="scale(1 1) rotate(0) translate(4 256)">
<title>dependency&#45;cruiser output</title>
<polygon fill="white" stroke="none" points="-4,4 -4,-256 559.5,-256 559.5,4 -4,4"/>
<g id="clust1" class="cluster">
<title>cluster_src</title>
<path fill="#ffffff" stroke="black" stroke-width="2" d="M20,-8C20,-8 535.5,-8 535.5,-8 541.5,-8 547.5,-14 547.5,-20 547.5,-20 547.5,-232 547.5,-232 547.5,-238 541.5,-244 535.5,-244 535.5,-244 20,-244 20,-244 14,-244 8,-238 8,-232 8,-232 8,-20 8,-20 8,-14 14,-8 20,-8"/>
<text text-anchor="middle" x="277.75" y="-231.45" font-family="Helvetica,sans-Serif" font-weight="bold" font-size="9.00">src</text>
</g>
<g id="clust2" class="cluster">
<title>cluster_src/app</title>
<path fill="#ffffff" stroke="black" stroke-width="2" d="M28,-16C28,-16 222,-16 222,-16 228,-16 234,-22 234,-28 234,-28 234,-116 234,-116 234,-122 228,-128 222,-128 222,-128 28,-128 28,-128 22,-128 16,-122 16,-116 16,-116 16,-28 16,-28 16,-22 22,-16 28,-16"/>
<text text-anchor="middle" x="125" y="-115.45" font-family="Helvetica,sans-Serif" font-weight="bold" font-size="9.00">app</text>
</g>
<g id="clust3" class="cluster">
<title>cluster_src/app/providers</title>
<path fill="#ffffff" stroke="black" stroke-width="2" d="M98,-50C98,-50 214,-50 214,-50 220,-50 226,-56 226,-62 226,-62 226,-90 226,-90 226,-96 220,-102 214,-102 214,-102 98,-102 98,-102 92,-102 86,-96 86,-90 86,-90 86,-62 86,-62 86,-56 92,-50 98,-50"/>
<text text-anchor="middle" x="156" y="-89.45" font-family="Helvetica,sans-Serif" font-weight="bold" font-size="9.00">providers</text>
</g>
<g id="clust4" class="cluster">
<title>cluster_src/entities</title>
<path fill="#ffffff" stroke="black" stroke-width="2" d="M254,-113C254,-113 376.38,-113 376.38,-113 382.38,-113 388.38,-119 388.38,-125 388.38,-125 388.38,-183 388.38,-183 388.38,-189 382.38,-195 376.38,-195 376.38,-195 254,-195 254,-195 248,-195 242,-189 242,-183 242,-183 242,-125 242,-125 242,-119 248,-113 254,-113"/>
<text text-anchor="middle" x="315.19" y="-182.45" font-family="Helvetica,sans-Serif" font-weight="bold" font-size="9.00">entities</text>
</g>
<g id="clust5" class="cluster">
<title>cluster_src/pages</title>
<path fill="#ffffff" stroke="black" stroke-width="2" d="M168,-136C168,-136 214,-136 214,-136 220,-136 226,-142 226,-148 226,-148 226,-206 226,-206 226,-212 220,-218 214,-218 214,-218 168,-218 168,-218 162,-218 156,-212 156,-206 156,-206 156,-148 156,-148 156,-142 162,-136 168,-136"/>
<text text-anchor="middle" x="191" y="-205.45" font-family="Helvetica,sans-Serif" font-weight="bold" font-size="9.00">pages</text>
</g>
<g id="clust6" class="cluster">
<title>cluster_src/shared</title>
<path fill="#ffffff" stroke="black" stroke-width="2" d="M414.5,-135C414.5,-135 527.5,-135 527.5,-135 533.5,-135 539.5,-141 539.5,-147 539.5,-147 539.5,-205 539.5,-205 539.5,-211 533.5,-217 527.5,-217 527.5,-217 414.5,-217 414.5,-217 408.5,-217 402.5,-211 402.5,-205 402.5,-205 402.5,-147 402.5,-147 402.5,-141 408.5,-135 414.5,-135"/>
<text text-anchor="middle" x="471" y="-204.45" font-family="Helvetica,sans-Serif" font-weight="bold" font-size="9.00">shared</text>
</g>
<g id="clust7" class="cluster">
<title>cluster_src/widgets</title>
<path fill="#ffffff" stroke="black" stroke-width="2" d="M324.25,-52C324.25,-52 382.5,-52 382.5,-52 388.5,-52 394.5,-58 394.5,-64 394.5,-64 394.5,-92 394.5,-92 394.5,-98 388.5,-104 382.5,-104 382.5,-104 324.25,-104 324.25,-104 318.25,-104 312.25,-98 312.25,-92 312.25,-92 312.25,-64 312.25,-64 312.25,-58 318.25,-52 324.25,-52"/>
<text text-anchor="middle" x="353.38" y="-91.45" font-family="Helvetica,sans-Serif" font-weight="bold" font-size="9.00">widgets</text>
</g>
<!-- src/app/entry.css -->
<g id="node1" class="node">
<title>src/app/entry.css</title>
<g id="a_node1"><a xlink:href="src/app/entry.css" xlink:title="entry.css">
<path fill="#ffffcc" stroke="black" d="M142.08,-41.88C142.08,-41.88 99.92,-41.88 99.92,-41.88 96.96,-41.88 94,-38.92 94,-35.96 94,-35.96 94,-30.04 94,-30.04 94,-27.08 96.96,-24.12 99.92,-24.12 99.92,-24.12 142.08,-24.12 142.08,-24.12 145.04,-24.12 148,-27.08 148,-30.04 148,-30.04 148,-35.96 148,-35.96 148,-38.92 145.04,-41.88 142.08,-41.88"/>
<text text-anchor="start" x="103" y="-29.32" font-family="Helvetica,sans-Serif" font-size="9.00">entry.css</text>
</a>
</g>
</g>
<!-- src/app/entry.tsx -->
<g id="node2" class="node">
<title>src/app/entry.tsx</title>
<g id="a_node2"><a xlink:href="src/app/entry.tsx" xlink:title="entry.tsx">
<path fill="#bbfeff" stroke="black" d="M72.08,-58.88C72.08,-58.88 29.92,-58.88 29.92,-58.88 26.96,-58.88 24,-55.92 24,-52.96 24,-52.96 24,-47.04 24,-47.04 24,-44.08 26.96,-41.12 29.92,-41.12 29.92,-41.12 72.08,-41.12 72.08,-41.12 75.04,-41.12 78,-44.08 78,-47.04 78,-47.04 78,-52.96 78,-52.96 78,-55.92 75.04,-58.88 72.08,-58.88"/>
<text text-anchor="start" x="34.12" y="-46.33" font-family="Helvetica,sans-Serif" font-size="9.00">entry.tsx</text>
</a>
</g>
</g>
<!-- src/app/entry.tsx&#45;&gt;src/app/entry.css -->
<g id="edge1" class="edge">
<title>src/app/entry.tsx&#45;&gt;src/app/entry.css</title>
<path fill="none" stroke="#000000" stroke-width="2" stroke-opacity="0.200000" d="M78.49,-43.38C80.7,-42.82 82.97,-42.26 85.24,-41.69"/>
<polygon fill="#000000" fill-opacity="0.200000" stroke="#000000" stroke-width="2" stroke-opacity="0.200000" points="85.67,-43.75 90.99,-40.25 84.66,-39.67 85.67,-43.75"/>
</g>
<!-- src/app/providers/router/ -->
<g id="node3" class="node">
<title>src/app/providers/router/</title>
<g id="a_node3"><a xlink:href="src/app/providers/router/" xlink:title="router">
<polygon fill="#ffffcc" stroke="black" points="148,-75.88 95.97,-75.88 94,-73.9 94,-58.12 146.03,-58.12 148,-60.1 148,-75.88"/>
<polyline fill="none" stroke="black" points="146.03,-73.9 94,-73.9"/>
<polyline fill="none" stroke="black" points="146.03,-73.9 146.03,-58.12"/>
<polyline fill="none" stroke="black" points="146.03,-73.9 148,-75.88"/>
<text text-anchor="start" x="109" y="-63.33" font-family="Helvetica,sans-Serif" font-size="9.00">router</text>
</a>
</g>
</g>
<!-- src/app/entry.tsx&#45;&gt;src/app/providers/router/ -->
<g id="edge2" class="edge">
<title>src/app/entry.tsx&#45;&gt;src/app/providers/router/</title>
<path fill="none" stroke="#000000" stroke-width="2" stroke-opacity="0.200000" d="M78.49,-56.62C80.7,-57.18 82.97,-57.74 85.24,-58.31"/>
<polygon fill="#000000" fill-opacity="0.200000" stroke="#000000" stroke-width="2" stroke-opacity="0.200000" points="84.66,-60.33 90.99,-59.75 85.67,-56.25 84.66,-60.33"/>
</g>
<!-- src/app/providers/layout/ -->
<g id="node4" class="node">
<title>src/app/providers/layout/</title>
<g id="a_node4"><a xlink:href="src/app/providers/layout/" xlink:title="layout">
<polygon fill="#ffffcc" stroke="black" points="218,-75.88 165.97,-75.88 164,-73.9 164,-58.12 216.03,-58.12 218,-60.1 218,-75.88"/>
<polyline fill="none" stroke="black" points="216.03,-73.9 164,-73.9"/>
<polyline fill="none" stroke="black" points="216.03,-73.9 216.03,-58.12"/>
<polyline fill="none" stroke="black" points="216.03,-73.9 218,-75.88"/>
<text text-anchor="start" x="178.62" y="-63.33" font-family="Helvetica,sans-Serif" font-size="9.00">layout</text>
</a>
</g>
</g>
<!-- src/app/providers/router/&#45;&gt;src/app/providers/layout/ -->
<g id="edge5" class="edge">
<title>src/app/providers/router/&#45;&gt;src/app/providers/layout/</title>
<path fill="none" stroke="#000000" stroke-width="2" stroke-opacity="0.200000" d="M148.49,-67C150.7,-67 152.97,-67 155.24,-67"/>
<polygon fill="#000000" fill-opacity="0.200000" stroke="#000000" stroke-width="2" stroke-opacity="0.200000" points="154.9,-69.1 160.9,-67 154.9,-64.9 154.9,-69.1"/>
</g>
<!-- src/pages/home/ -->
<g id="node7" class="node">
<title>src/pages/home/</title>
<g id="a_node7"><a xlink:href="src/pages/home/" xlink:title="home">
<polygon fill="#ffffcc" stroke="black" points="218,-191.88 165.97,-191.88 164,-189.9 164,-174.12 216.03,-174.12 218,-176.1 218,-191.88"/>
<polyline fill="none" stroke="black" points="216.03,-189.9 164,-189.9"/>
<polyline fill="none" stroke="black" points="216.03,-189.9 216.03,-174.12"/>
<polyline fill="none" stroke="black" points="216.03,-189.9 218,-191.88"/>
<text text-anchor="start" x="179.38" y="-179.32" font-family="Helvetica,sans-Serif" font-size="9.00">home</text>
</a>
</g>
</g>
<!-- src/app/providers/router/&#45;&gt;src/pages/home/ -->
<g id="edge6" class="edge">
<title>src/app/providers/router/&#45;&gt;src/pages/home/</title>
<path fill="none" stroke="#000000" stroke-width="2" stroke-opacity="0.200000" d="M122.67,-76.33C124.54,-95.78 131.42,-141.08 156,-168 156.27,-168.3 156.55,-168.59 156.84,-168.88"/>
<polygon fill="#000000" fill-opacity="0.200000" stroke="#000000" stroke-width="2" stroke-opacity="0.200000" points="155.19,-170.26 161.22,-172.27 157.76,-166.93 155.19,-170.26"/>
</g>
<!-- src/pages/profile/ -->
<g id="node8" class="node">
<title>src/pages/profile/</title>
<g id="a_node8"><a xlink:href="src/pages/profile/" xlink:title="profile">
<polygon fill="#ffffcc" stroke="black" points="218,-161.88 165.97,-161.88 164,-159.9 164,-144.12 216.03,-144.12 218,-146.1 218,-161.88"/>
<polyline fill="none" stroke="black" points="216.03,-159.9 164,-159.9"/>
<polyline fill="none" stroke="black" points="216.03,-159.9 216.03,-144.12"/>
<polyline fill="none" stroke="black" points="216.03,-159.9 218,-161.88"/>
<text text-anchor="start" x="178.25" y="-149.32" font-family="Helvetica,sans-Serif" font-size="9.00">profile</text>
</a>
</g>
</g>
<!-- src/app/providers/router/&#45;&gt;src/pages/profile/ -->
<g id="edge7" class="edge">
<title>src/app/providers/router/&#45;&gt;src/pages/profile/</title>
<path fill="none" stroke="#000000" stroke-width="2" stroke-opacity="0.200000" d="M129.28,-76.2C140.73,-90.69 163.11,-118.99 177.27,-136.9"/>
<polygon fill="#000000" fill-opacity="0.200000" stroke="#000000" stroke-width="2" stroke-opacity="0.200000" points="175.53,-138.08 180.9,-141.49 178.82,-135.48 175.53,-138.08"/>
</g>
<!-- src/entities/session/ -->
<g id="node5" class="node">
<title>src/entities/session/</title>
<g id="a_node5"><a xlink:href="src/entities/session/" xlink:title="session">
<polygon fill="#ffffcc" stroke="black" points="380.38,-138.88 328.35,-138.88 326.38,-136.9 326.38,-121.12 378.4,-121.12 380.38,-123.1 380.38,-138.88"/>
<polyline fill="none" stroke="black" points="378.4,-136.9 326.38,-136.9"/>
<polyline fill="none" stroke="black" points="378.4,-136.9 378.4,-121.12"/>
<polyline fill="none" stroke="black" points="378.4,-136.9 380.38,-138.88"/>
<text text-anchor="start" x="337.62" y="-126.33" font-family="Helvetica,sans-Serif" font-size="9.00">session</text>
</a>
</g>
</g>
<!-- src/app/providers/layout/&#45;&gt;src/entities/session/ -->
<g id="edge3" class="edge">
<title>src/app/providers/layout/&#45;&gt;src/entities/session/</title>
<path fill="none" stroke="#000000" stroke-width="2" stroke-opacity="0.200000" d="M218.15,-75.46C241.09,-83.09 275.21,-94.93 304.25,-107 311.5,-110.02 319.23,-113.56 326.32,-116.95"/>
<polygon fill="#000000" fill-opacity="0.200000" stroke="#000000" stroke-width="2" stroke-opacity="0.200000" points="325.26,-118.76 331.57,-119.49 327.09,-114.98 325.26,-118.76"/>
</g>
<!-- src/widgets/LoginDialog/ -->
<g id="node6" class="node">
<title>src/widgets/LoginDialog/</title>
<g id="a_node6"><a xlink:href="src/widgets/LoginDialog/" xlink:title="LoginDialog">
<polygon fill="#ffffcc" stroke="black" points="386.5,-77.88 322.22,-77.88 320.25,-75.9 320.25,-60.12 384.53,-60.12 386.5,-62.1 386.5,-77.88"/>
<polyline fill="none" stroke="black" points="384.53,-75.9 320.25,-75.9"/>
<polyline fill="none" stroke="black" points="384.53,-75.9 384.53,-60.12"/>
<polyline fill="none" stroke="black" points="384.53,-75.9 386.5,-77.88"/>
<text text-anchor="start" x="328.25" y="-65.33" font-family="Helvetica,sans-Serif" font-size="9.00">LoginDialog</text>
</a>
</g>
</g>
<!-- src/app/providers/layout/&#45;&gt;src/widgets/LoginDialog/ -->
<g id="edge4" class="edge">
<title>src/app/providers/layout/&#45;&gt;src/widgets/LoginDialog/</title>
<path fill="none" stroke="#000000" stroke-width="2" stroke-opacity="0.200000" d="M218.48,-67.33C243.64,-67.64 281.84,-68.12 311.01,-68.48"/>
<polygon fill="#000000" fill-opacity="0.200000" stroke="#000000" stroke-width="2" stroke-opacity="0.200000" points="310.7,-70.58 316.72,-68.56 310.75,-66.38 310.7,-70.58"/>
</g>
<!-- src/shared/api/ -->
<g id="node10" class="node">
<title>src/shared/api/</title>
<g id="a_node10"><a xlink:href="src/shared/api/" xlink:title="api">
<polygon fill="#ffffcc" stroke="black" points="464.5,-160.88 412.47,-160.88 410.5,-158.9 410.5,-143.12 462.53,-143.12 464.5,-145.1 464.5,-160.88"/>
<polyline fill="none" stroke="black" points="462.53,-158.9 410.5,-158.9"/>
<polyline fill="none" stroke="black" points="462.53,-158.9 462.53,-143.12"/>
<polyline fill="none" stroke="black" points="462.53,-158.9 464.5,-160.88"/>
<text text-anchor="start" x="431.12" y="-148.32" font-family="Helvetica,sans-Serif" font-size="9.00">api</text>
</a>
</g>
</g>
<!-- src/entities/session/&#45;&gt;src/shared/api/ -->
<g id="edge9" class="edge">
<title>src/entities/session/&#45;&gt;src/shared/api/</title>
<path fill="none" stroke="#000000" stroke-width="2" stroke-opacity="0.200000" d="M380.81,-137.08C387.41,-138.85 394.58,-140.77 401.51,-142.63"/>
<polygon fill="#000000" fill-opacity="0.200000" stroke="#000000" stroke-width="2" stroke-opacity="0.200000" points="400.85,-144.62 407.19,-144.15 401.94,-140.57 400.85,-144.62"/>
</g>
<!-- src/widgets/LoginDialog/&#45;&gt;src/shared/api/ -->
<g id="edge17" class="edge">
<title>src/widgets/LoginDialog/&#45;&gt;src/shared/api/</title>
<path fill="none" stroke="#000000" stroke-width="2" stroke-opacity="0.200000" d="M363.48,-78.2C377.41,-92.28 404.2,-119.36 421.17,-136.51"/>
<polygon fill="#000000" fill-opacity="0.200000" stroke="#000000" stroke-width="2" stroke-opacity="0.200000" points="419.51,-137.82 425.23,-140.61 422.5,-134.87 419.51,-137.82"/>
</g>
<!-- src/entities/pokemon/ -->
<g id="node9" class="node">
<title>src/entities/pokemon/</title>
<g id="a_node9"><a xlink:href="src/entities/pokemon/" xlink:title="pokemon">
<polygon fill="#ffffcc" stroke="black" points="304.25,-168.88 251.97,-168.88 250,-166.9 250,-151.12 302.28,-151.12 304.25,-153.1 304.25,-168.88"/>
<polyline fill="none" stroke="black" points="302.28,-166.9 250,-166.9"/>
<polyline fill="none" stroke="black" points="302.28,-166.9 302.28,-151.12"/>
<polyline fill="none" stroke="black" points="302.28,-166.9 304.25,-168.88"/>
<text text-anchor="start" x="258" y="-156.32" font-family="Helvetica,sans-Serif" font-size="9.00">pokemon</text>
</a>
</g>
</g>
<!-- src/pages/home/&#45;&gt;src/entities/pokemon/ -->
<g id="edge12" class="edge">
<title>src/pages/home/&#45;&gt;src/entities/pokemon/</title>
<path fill="none" stroke="#000000" stroke-width="2" stroke-opacity="0.200000" d="M218.16,-175.85C225.52,-173.83 233.66,-171.61 241.44,-169.48"/>
<polygon fill="#000000" fill-opacity="0.200000" stroke="#000000" stroke-width="2" stroke-opacity="0.200000" points="241.54,-171.63 246.77,-168.02 240.43,-167.58 241.54,-171.63"/>
</g>
<!-- src/shared/ui/ -->
<g id="node12" class="node">
<title>src/shared/ui/</title>
<g id="a_node12"><a xlink:href="src/shared/ui/" xlink:title="ui">
<polygon fill="#ffffcc" stroke="black" points="464.5,-190.88 412.47,-190.88 410.5,-188.9 410.5,-173.12 462.53,-173.12 464.5,-175.1 464.5,-190.88"/>
<polyline fill="none" stroke="black" points="462.53,-188.9 410.5,-188.9"/>
<polyline fill="none" stroke="black" points="462.53,-188.9 462.53,-173.12"/>
<polyline fill="none" stroke="black" points="462.53,-188.9 464.5,-190.88"/>
<text text-anchor="start" x="433.75" y="-178.32" font-family="Helvetica,sans-Serif" font-size="9.00">ui</text>
</a>
</g>
</g>
<!-- src/pages/home/&#45;&gt;src/shared/ui/ -->
<g id="edge13" class="edge">
<title>src/pages/home/&#45;&gt;src/shared/ui/</title>
<path fill="none" stroke="#000000" stroke-width="2" stroke-opacity="0.200000" d="M217.88,-192.33C225.54,-194.66 234.02,-196.83 242,-198 309.06,-207.84 327.84,-210.27 394.5,-198 398.99,-197.17 403.62,-195.89 408.09,-194.4"/>
<polygon fill="#000000" fill-opacity="0.200000" stroke="#000000" stroke-width="2" stroke-opacity="0.200000" points="408.67,-196.43 413.58,-192.39 407.22,-192.48 408.67,-196.43"/>
</g>
<!-- src/pages/profile/&#45;&gt;src/entities/session/ -->
<g id="edge14" class="edge">
<title>src/pages/profile/&#45;&gt;src/entities/session/</title>
<path fill="none" stroke="#000000" stroke-width="2" stroke-opacity="0.200000" d="M200.5,-143.67C209.69,-134.36 225.26,-120.64 242,-115 267.4,-106.44 297.65,-111.55 320.05,-118.03"/>
<polygon fill="#000000" fill-opacity="0.200000" stroke="#000000" stroke-width="2" stroke-opacity="0.200000" points="319.29,-119.99 325.64,-119.76 320.53,-115.98 319.29,-119.99"/>
</g>
<!-- src/entities/user/ -->
<g id="node11" class="node">
<title>src/entities/user/</title>
<g id="a_node11"><a xlink:href="src/entities/user/" xlink:title="user">
<polygon fill="#ffffcc" stroke="black" points="304.12,-138.88 252.1,-138.88 250.12,-136.9 250.12,-121.12 302.15,-121.12 304.12,-123.1 304.12,-138.88"/>
<polyline fill="none" stroke="black" points="302.15,-136.9 250.12,-136.9"/>
<polyline fill="none" stroke="black" points="302.15,-136.9 302.15,-121.12"/>
<polyline fill="none" stroke="black" points="302.15,-136.9 304.12,-138.88"/>
<text text-anchor="start" x="268.12" y="-126.33" font-family="Helvetica,sans-Serif" font-size="9.00">user</text>
</a>
</g>
</g>
<!-- src/pages/profile/&#45;&gt;src/entities/user/ -->
<g id="edge15" class="edge">
<title>src/pages/profile/&#45;&gt;src/entities/user/</title>
<path fill="none" stroke="#000000" stroke-width="2" stroke-opacity="0.200000" d="M218.16,-145.85C225.52,-143.83 233.66,-141.61 241.44,-139.48"/>
<polygon fill="#000000" fill-opacity="0.200000" stroke="#000000" stroke-width="2" stroke-opacity="0.200000" points="241.54,-141.63 246.77,-138.02 240.43,-137.58 241.54,-141.63"/>
</g>
<!-- src/entities/pokemon/&#45;&gt;src/shared/api/ -->
<g id="edge8" class="edge">
<title>src/entities/pokemon/&#45;&gt;src/shared/api/</title>
<path fill="none" stroke="#000000" stroke-width="2" stroke-opacity="0.200000" d="M304.49,-159.55C328.09,-159.04 363.63,-158 394.5,-156 396.74,-155.86 399.04,-155.69 401.36,-155.5"/>
<polygon fill="#000000" fill-opacity="0.200000" stroke="#000000" stroke-width="2" stroke-opacity="0.200000" points="401.49,-157.6 407.29,-155 401.13,-153.42 401.49,-157.6"/>
</g>
<!-- src/shared/lib/ -->
<g id="node13" class="node">
<title>src/shared/lib/</title>
<g id="a_node13"><a xlink:href="src/shared/lib/" xlink:title="lib">
<polygon fill="#ccffcc" stroke="black" points="531.5,-160.88 479.47,-160.88 477.5,-158.9 477.5,-143.12 529.53,-143.12 531.5,-145.1 531.5,-160.88"/>
<polyline fill="none" stroke="black" points="529.53,-158.9 477.5,-158.9"/>
<polyline fill="none" stroke="black" points="529.53,-158.9 529.53,-143.12"/>
<polyline fill="none" stroke="black" points="529.53,-158.9 531.5,-160.88"/>
<text text-anchor="start" x="499.62" y="-148.32" font-family="Helvetica,sans-Serif" font-size="9.00">lib</text>
</a>
</g>
</g>
<!-- src/shared/api/&#45;&gt;src/shared/lib/ -->
<g id="edge16" class="edge">
<title>src/shared/api/&#45;&gt;src/shared/lib/</title>
<path fill="none" stroke="#000000" stroke-width="2" stroke-opacity="0.200000" d="M464.94,-152C466.08,-152 467.24,-152 468.4,-152"/>
<polygon fill="#000000" fill-opacity="0.200000" stroke="#000000" stroke-width="2" stroke-opacity="0.200000" points="468.27,-154.1 474.27,-152 468.27,-149.9 468.27,-154.1"/>
</g>
<!-- src/entities/user/&#45;&gt;src/entities/session/ -->
<g id="edge10" class="edge">
<title>src/entities/user/&#45;&gt;src/entities/session/</title>
<path fill="none" stroke="#000000" stroke-width="2" stroke-opacity="0.200000" d="M304.51,-130C308.67,-130 313.02,-130 317.34,-130"/>
<polygon fill="#000000" fill-opacity="0.200000" stroke="#000000" stroke-width="2" stroke-opacity="0.200000" points="317.05,-132.1 323.05,-130 317.05,-127.9 317.05,-132.1"/>
</g>
<!-- src/entities/user/&#45;&gt;src/shared/api/ -->
<g id="edge11" class="edge">
<title>src/entities/user/&#45;&gt;src/shared/api/</title>
<path fill="none" stroke="#000000" stroke-width="2" stroke-opacity="0.200000" d="M296.12,-139.34C301.21,-141.58 306.84,-143.7 312.25,-145 341.82,-152.09 376.42,-153.5 401.59,-153.33"/>
<polygon fill="#000000" fill-opacity="0.200000" stroke="#000000" stroke-width="2" stroke-opacity="0.200000" points="401.41,-155.43 407.38,-153.25 401.35,-151.23 401.41,-155.43"/>
</g>
</g>
</svg>
