<?xml version="1.0" encoding="UTF-8" standalone="no"?>
<!DOCTYPE svg PUBLIC "-//W3C//DTD SVG 1.1//EN"
 "http://www.w3.org/Graphics/SVG/1.1/DTD/svg11.dtd">
<!-- Generated by graphviz version 12.0.0 (20240704.0754)
 -->
<!-- Title: dependency&#45;cruiser output Pages: 1 -->
<svg width="1560pt" height="754pt"
 viewBox="0.00 0.00 1560.12 754.00" xmlns="http://www.w3.org/2000/svg" xmlns:xlink="http://www.w3.org/1999/xlink">
<g id="graph0" class="graph" transform="scale(1 1) rotate(0) translate(4 750)">
<title>dependency&#45;cruiser output</title>
<polygon fill="white" stroke="none" points="-4,4 -4,-750 1556.12,-750 1556.12,4 -4,4"/>
<g id="clust1" class="cluster">
<title>cluster_src</title>
<path fill="#ffffff" stroke="black" stroke-width="2" d="M20,-8C20,-8 1532.12,-8 1532.12,-8 1538.12,-8 1544.12,-14 1544.12,-20 1544.12,-20 1544.12,-726 1544.12,-726 1544.12,-732 1538.12,-738 1532.12,-738 1532.12,-738 20,-738 20,-738 14,-738 8,-732 8,-726 8,-726 8,-20 8,-20 8,-14 14,-8 20,-8"/>
<text text-anchor="middle" x="776.06" y="-725.45" font-family="Helvetica,sans-Serif" font-weight="bold" font-size="9.00">src</text>
</g>
<g id="clust2" class="cluster">
<title>cluster_src/app</title>
<path fill="#ffffff" stroke="black" stroke-width="2" d="M28,-52C28,-52 347.88,-52 347.88,-52 353.88,-52 359.88,-58 359.88,-64 359.88,-64 359.88,-186 359.88,-186 359.88,-192 353.88,-198 347.88,-198 347.88,-198 28,-198 28,-198 22,-198 16,-192 16,-186 16,-186 16,-64 16,-64 16,-58 22,-52 28,-52"/>
<text text-anchor="middle" x="187.94" y="-185.45" font-family="Helvetica,sans-Serif" font-weight="bold" font-size="9.00">app</text>
</g>
<g id="clust3" class="cluster">
<title>cluster_src/app/providers</title>
<path fill="#ffffff" stroke="black" stroke-width="2" d="M103.38,-86C103.38,-86 339.88,-86 339.88,-86 345.88,-86 351.88,-92 351.88,-98 351.88,-98 351.88,-160 351.88,-160 351.88,-166 345.88,-172 339.88,-172 339.88,-172 103.37,-172 103.37,-172 97.38,-172 91.38,-166 91.38,-160 91.38,-160 91.38,-98 91.38,-98 91.38,-92 97.38,-86 103.38,-86"/>
<text text-anchor="middle" x="221.62" y="-159.45" font-family="Helvetica,sans-Serif" font-weight="bold" font-size="9.00">providers</text>
</g>
<g id="clust4" class="cluster">
<title>cluster_src/app/providers/layout</title>
<path fill="#ffffff" stroke="black" stroke-width="2" d="M227.12,-94C227.12,-94 331.88,-94 331.88,-94 337.88,-94 343.88,-100 343.88,-106 343.88,-106 343.88,-134 343.88,-134 343.88,-140 337.88,-146 331.88,-146 331.88,-146 227.12,-146 227.12,-146 221.12,-146 215.12,-140 215.12,-134 215.12,-134 215.12,-106 215.12,-106 215.12,-100 221.12,-94 227.12,-94"/>
<text text-anchor="middle" x="279.5" y="-133.45" font-family="Helvetica,sans-Serif" font-weight="bold" font-size="9.00">layout</text>
</g>
<g id="clust5" class="cluster">
<title>cluster_src/app/providers/router</title>
<path fill="#ffffff" stroke="black" stroke-width="2" d="M111.38,-94C111.38,-94 195.12,-94 195.12,-94 201.12,-94 207.12,-100 207.12,-106 207.12,-106 207.12,-134 207.12,-134 207.12,-140 201.12,-146 195.12,-146 195.12,-146 111.38,-146 111.38,-146 105.38,-146 99.38,-140 99.38,-134 99.38,-134 99.38,-106 99.38,-106 99.38,-100 105.38,-94 111.38,-94"/>
<text text-anchor="middle" x="153.25" y="-133.45" font-family="Helvetica,sans-Serif" font-weight="bold" font-size="9.00">router</text>
</g>
<g id="clust6" class="cluster">
<title>cluster_src/entities</title>
<path fill="#ffffff" stroke="black" stroke-width="2" d="M559.88,-168C559.88,-168 1136.12,-168 1136.12,-168 1142.12,-168 1148.12,-174 1148.12,-180 1148.12,-180 1148.12,-674 1148.12,-674 1148.12,-680 1142.12,-686 1136.12,-686 1136.12,-686 559.88,-686 559.88,-686 553.88,-686 547.88,-680 547.88,-674 547.88,-674 547.88,-180 547.88,-180 547.88,-174 553.88,-168 559.88,-168"/>
<text text-anchor="middle" x="848" y="-673.45" font-family="Helvetica,sans-Serif" font-weight="bold" font-size="9.00">entities</text>
</g>
<g id="clust7" class="cluster">
<title>cluster_src/entities/pokemon</title>
<path fill="#ffffff" stroke="black" stroke-width="2" d="M567.88,-454C567.88,-454 933.62,-454 933.62,-454 939.62,-454 945.62,-460 945.62,-466 945.62,-466 945.62,-648 945.62,-648 945.62,-654 939.62,-660 933.62,-660 933.62,-660 567.88,-660 567.88,-660 561.88,-660 555.88,-654 555.88,-648 555.88,-648 555.88,-466 555.88,-466 555.88,-460 561.88,-454 567.88,-454"/>
<text text-anchor="middle" x="750.75" y="-647.45" font-family="Helvetica,sans-Serif" font-weight="bold" font-size="9.00">pokemon</text>
</g>
<g id="clust8" class="cluster">
<title>cluster_src/entities/pokemon/api</title>
<path fill="#ffffff" stroke="black" stroke-width="2" d="M575.88,-582C575.88,-582 673.12,-582 673.12,-582 679.12,-582 685.12,-588 685.12,-594 685.12,-594 685.12,-622 685.12,-622 685.12,-628 679.12,-634 673.12,-634 673.12,-634 575.88,-634 575.88,-634 569.88,-634 563.88,-628 563.88,-622 563.88,-622 563.88,-594 563.88,-594 563.88,-588 569.88,-582 575.88,-582"/>
<text text-anchor="middle" x="624.5" y="-621.45" font-family="Helvetica,sans-Serif" font-weight="bold" font-size="9.00">api</text>
</g>
<g id="clust9" class="cluster">
<title>cluster_src/entities/pokemon/lib</title>
<path fill="#ffffff" stroke="black" stroke-width="2" d="M705.12,-582C705.12,-582 793.38,-582 793.38,-582 799.38,-582 805.38,-588 805.38,-594 805.38,-594 805.38,-622 805.38,-622 805.38,-628 799.38,-634 793.38,-634 793.38,-634 705.12,-634 705.12,-634 699.12,-634 693.12,-628 693.12,-622 693.12,-622 693.12,-594 693.12,-594 693.12,-588 699.12,-582 705.12,-582"/>
<text text-anchor="middle" x="749.25" y="-621.45" font-family="Helvetica,sans-Serif" font-weight="bold" font-size="9.00">lib</text>
</g>
<g id="clust10" class="cluster">
<title>cluster_src/entities/pokemon/model</title>
<path fill="#ffffff" stroke="black" stroke-width="2" d="M852.88,-522C852.88,-522 898.88,-522 898.88,-522 904.88,-522 910.88,-528 910.88,-534 910.88,-534 910.88,-622 910.88,-622 910.88,-628 904.88,-634 898.88,-634 898.88,-634 852.88,-634 852.88,-634 846.88,-634 840.88,-628 840.88,-622 840.88,-622 840.88,-534 840.88,-534 840.88,-528 846.88,-522 852.88,-522"/>
<text text-anchor="middle" x="875.88" y="-621.45" font-family="Helvetica,sans-Serif" font-weight="bold" font-size="9.00">model</text>
</g>
<g id="clust11" class="cluster">
<title>cluster_src/entities/pokemon/ui</title>
<path fill="#ffffff" stroke="black" stroke-width="2" d="M708.88,-462C708.88,-462 925.62,-462 925.62,-462 931.62,-462 937.62,-468 937.62,-474 937.62,-474 937.62,-502 937.62,-502 937.62,-508 931.62,-514 925.62,-514 925.62,-514 708.88,-514 708.88,-514 702.88,-514 696.88,-508 696.88,-502 696.88,-502 696.88,-474 696.88,-474 696.88,-468 702.88,-462 708.88,-462"/>
<text text-anchor="middle" x="817.25" y="-501.45" font-family="Helvetica,sans-Serif" font-weight="bold" font-size="9.00">ui</text>
</g>
<g id="clust12" class="cluster">
<title>cluster_src/entities/session</title>
<path fill="#ffffff" stroke="black" stroke-width="2" d="M852.88,-176C852.88,-176 1128.12,-176 1128.12,-176 1134.12,-176 1140.12,-182 1140.12,-188 1140.12,-188 1140.12,-280 1140.12,-280 1140.12,-286 1134.12,-292 1128.12,-292 1128.12,-292 852.88,-292 852.88,-292 846.88,-292 840.88,-286 840.88,-280 840.88,-280 840.88,-188 840.88,-188 840.88,-182 846.88,-176 852.88,-176"/>
<text text-anchor="middle" x="990.5" y="-279.45" font-family="Helvetica,sans-Serif" font-weight="bold" font-size="9.00">session</text>
</g>
<g id="clust13" class="cluster">
<title>cluster_src/entities/session/model</title>
<path fill="#ffffff" stroke="black" stroke-width="2" d="M1073.88,-184C1073.88,-184 1120.12,-184 1120.12,-184 1126.12,-184 1132.12,-190 1132.12,-196 1132.12,-196 1132.12,-254 1132.12,-254 1132.12,-260 1126.12,-266 1120.12,-266 1120.12,-266 1073.88,-266 1073.88,-266 1067.88,-266 1061.88,-260 1061.88,-254 1061.88,-254 1061.88,-196 1061.88,-196 1061.88,-190 1067.88,-184 1073.88,-184"/>
<text text-anchor="middle" x="1097" y="-253.45" font-family="Helvetica,sans-Serif" font-weight="bold" font-size="9.00">model</text>
</g>
<g id="clust14" class="cluster">
<title>cluster_src/entities/session/ui</title>
<path fill="#ffffff" stroke="black" stroke-width="2" d="M965.62,-214C965.62,-214 1041.88,-214 1041.88,-214 1047.88,-214 1053.88,-220 1053.88,-226 1053.88,-226 1053.88,-254 1053.88,-254 1053.88,-260 1047.88,-266 1041.88,-266 1041.88,-266 965.62,-266 965.62,-266 959.62,-266 953.62,-260 953.62,-254 953.62,-254 953.62,-226 953.62,-226 953.62,-220 959.62,-214 965.62,-214"/>
<text text-anchor="middle" x="1003.75" y="-253.45" font-family="Helvetica,sans-Serif" font-weight="bold" font-size="9.00">ui</text>
</g>
<g id="clust15" class="cluster">
<title>cluster_src/entities/user</title>
<path fill="#ffffff" stroke="black" stroke-width="2" d="M601.5,-300C601.5,-300 906.88,-300 906.88,-300 912.88,-300 918.88,-306 918.88,-312 918.88,-312 918.88,-434 918.88,-434 918.88,-440 912.88,-446 906.88,-446 906.88,-446 601.5,-446 601.5,-446 595.5,-446 589.5,-440 589.5,-434 589.5,-434 589.5,-312 589.5,-312 589.5,-306 595.5,-300 601.5,-300"/>
<text text-anchor="middle" x="754.19" y="-433.45" font-family="Helvetica,sans-Serif" font-weight="bold" font-size="9.00">user</text>
</g>
<g id="clust16" class="cluster">
<title>cluster_src/entities/user/lib</title>
<path fill="#ffffff" stroke="black" stroke-width="2" d="M714.88,-368C714.88,-368 783.62,-368 783.62,-368 789.62,-368 795.62,-374 795.62,-380 795.62,-380 795.62,-408 795.62,-408 795.62,-414 789.62,-420 783.62,-420 783.62,-420 714.88,-420 714.88,-420 708.88,-420 702.88,-414 702.88,-408 702.88,-408 702.88,-380 702.88,-380 702.88,-374 708.88,-368 714.88,-368"/>
<text text-anchor="middle" x="749.25" y="-407.45" font-family="Helvetica,sans-Serif" font-weight="bold" font-size="9.00">lib</text>
</g>
<g id="clust17" class="cluster">
<title>cluster_src/entities/user/model</title>
<path fill="#ffffff" stroke="black" stroke-width="2" d="M726.25,-308C726.25,-308 898.88,-308 898.88,-308 904.88,-308 910.88,-314 910.88,-320 910.88,-320 910.88,-348 910.88,-348 910.88,-354 904.88,-360 898.88,-360 898.88,-360 726.25,-360 726.25,-360 720.25,-360 714.25,-354 714.25,-348 714.25,-348 714.25,-320 714.25,-320 714.25,-314 720.25,-308 726.25,-308"/>
<text text-anchor="middle" x="812.56" y="-347.45" font-family="Helvetica,sans-Serif" font-weight="bold" font-size="9.00">model</text>
</g>
<g id="clust18" class="cluster">
<title>cluster_src/pages</title>
<path fill="#ffffff" stroke="black" stroke-width="2" d="M248.5,-206C248.5,-206 527.88,-206 527.88,-206 533.88,-206 539.88,-212 539.88,-218 539.88,-218 539.88,-408 539.88,-408 539.88,-414 533.88,-420 527.88,-420 527.88,-420 248.5,-420 248.5,-420 242.5,-420 236.5,-414 236.5,-408 236.5,-408 236.5,-218 236.5,-218 236.5,-212 242.5,-206 248.5,-206"/>
<text text-anchor="middle" x="388.19" y="-407.45" font-family="Helvetica,sans-Serif" font-weight="bold" font-size="9.00">pages</text>
</g>
<g id="clust19" class="cluster">
<title>cluster_src/pages/home</title>
<path fill="#ffffff" stroke="black" stroke-width="2" d="M256.5,-214C256.5,-214 519.88,-214 519.88,-214 525.88,-214 531.88,-220 531.88,-226 531.88,-226 531.88,-288 531.88,-288 531.88,-294 525.88,-300 519.88,-300 519.88,-300 256.5,-300 256.5,-300 250.5,-300 244.5,-294 244.5,-288 244.5,-288 244.5,-226 244.5,-226 244.5,-220 250.5,-214 256.5,-214"/>
<text text-anchor="middle" x="388.19" y="-287.45" font-family="Helvetica,sans-Serif" font-weight="bold" font-size="9.00">home</text>
</g>
<g id="clust20" class="cluster">
<title>cluster_src/pages/home/model</title>
<path fill="#ffffff" stroke="black" stroke-width="2" d="M465.88,-222C465.88,-222 511.88,-222 511.88,-222 517.88,-222 523.88,-228 523.88,-234 523.88,-234 523.88,-262 523.88,-262 523.88,-268 517.88,-274 511.88,-274 511.88,-274 465.88,-274 465.88,-274 459.88,-274 453.88,-268 453.88,-262 453.88,-262 453.88,-234 453.88,-234 453.88,-228 459.88,-222 465.88,-222"/>
<text text-anchor="middle" x="488.88" y="-261.45" font-family="Helvetica,sans-Serif" font-weight="bold" font-size="9.00">model</text>
</g>
<g id="clust21" class="cluster">
<title>cluster_src/pages/home/ui</title>
<path fill="#ffffff" stroke="black" stroke-width="2" d="M379.88,-222C379.88,-222 425.88,-222 425.88,-222 431.88,-222 437.88,-228 437.88,-234 437.88,-234 437.88,-262 437.88,-262 437.88,-268 431.88,-274 425.88,-274 425.88,-274 379.88,-274 379.88,-274 373.88,-274 367.88,-268 367.88,-262 367.88,-262 367.88,-234 367.88,-234 367.88,-228 373.88,-222 379.88,-222"/>
<text text-anchor="middle" x="402.88" y="-261.45" font-family="Helvetica,sans-Serif" font-weight="bold" font-size="9.00">ui</text>
</g>
<g id="clust22" class="cluster">
<title>cluster_src/pages/profile</title>
<path fill="#ffffff" stroke="black" stroke-width="2" d="M256.5,-308C256.5,-308 433.88,-308 433.88,-308 439.88,-308 445.88,-314 445.88,-320 445.88,-320 445.88,-382 445.88,-382 445.88,-388 439.88,-394 433.88,-394 433.88,-394 256.5,-394 256.5,-394 250.5,-394 244.5,-388 244.5,-382 244.5,-382 244.5,-320 244.5,-320 244.5,-314 250.5,-308 256.5,-308"/>
<text text-anchor="middle" x="345.19" y="-381.45" font-family="Helvetica,sans-Serif" font-weight="bold" font-size="9.00">profile</text>
</g>
<g id="clust23" class="cluster">
<title>cluster_src/pages/profile/ui</title>
<path fill="#ffffff" stroke="black" stroke-width="2" d="M379.88,-316C379.88,-316 425.88,-316 425.88,-316 431.88,-316 437.88,-322 437.88,-328 437.88,-328 437.88,-356 437.88,-356 437.88,-362 431.88,-368 425.88,-368 425.88,-368 379.88,-368 379.88,-368 373.88,-368 367.88,-362 367.88,-356 367.88,-356 367.88,-328 367.88,-328 367.88,-322 373.88,-316 379.88,-316"/>
<text text-anchor="middle" x="402.88" y="-355.45" font-family="Helvetica,sans-Serif" font-weight="bold" font-size="9.00">ui</text>
</g>
<g id="clust24" class="cluster">
<title>cluster_src/shared</title>
<path fill="#ffffff" stroke="black" stroke-width="2" d="M1168.12,-134C1168.12,-134 1524.12,-134 1524.12,-134 1530.12,-134 1536.12,-140 1536.12,-146 1536.12,-146 1536.12,-532 1536.12,-532 1536.12,-538 1530.12,-544 1524.12,-544 1524.12,-544 1168.12,-544 1168.12,-544 1162.12,-544 1156.12,-538 1156.12,-532 1156.12,-532 1156.12,-146 1156.12,-146 1156.12,-140 1162.12,-134 1168.12,-134"/>
<text text-anchor="middle" x="1346.12" y="-531.45" font-family="Helvetica,sans-Serif" font-weight="bold" font-size="9.00">shared</text>
</g>
<g id="clust25" class="cluster">
<title>cluster_src/shared/api</title>
<path fill="#ffffff" stroke="black" stroke-width="2" d="M1176.12,-202C1176.12,-202 1516.12,-202 1516.12,-202 1522.12,-202 1528.12,-208 1528.12,-214 1528.12,-214 1528.12,-416 1528.12,-416 1528.12,-422 1522.12,-428 1516.12,-428 1516.12,-428 1176.12,-428 1176.12,-428 1170.12,-428 1164.12,-422 1164.12,-416 1164.12,-416 1164.12,-214 1164.12,-214 1164.12,-208 1170.12,-202 1176.12,-202"/>
<text text-anchor="middle" x="1346.12" y="-415.45" font-family="Helvetica,sans-Serif" font-weight="bold" font-size="9.00">api</text>
</g>
<g id="clust26" class="cluster">
<title>cluster_src/shared/api/base</title>
<path fill="#ffffff" stroke="black" stroke-width="2" d="M1269.88,-230C1269.88,-230 1508.12,-230 1508.12,-230 1514.12,-230 1520.12,-236 1520.12,-242 1520.12,-242 1520.12,-300 1520.12,-300 1520.12,-306 1514.12,-312 1508.12,-312 1508.12,-312 1269.88,-312 1269.88,-312 1263.88,-312 1257.88,-306 1257.88,-300 1257.88,-300 1257.88,-242 1257.88,-242 1257.88,-236 1263.88,-230 1269.88,-230"/>
<text text-anchor="middle" x="1389" y="-299.45" font-family="Helvetica,sans-Serif" font-weight="bold" font-size="9.00">base</text>
</g>
<g id="clust27" class="cluster">
<title>cluster_src/shared/api/pokemon</title>
<path fill="#ffffff" stroke="black" stroke-width="2" d="M1254.12,-320C1254.12,-320 1343.12,-320 1343.12,-320 1349.12,-320 1355.12,-326 1355.12,-332 1355.12,-332 1355.12,-390 1355.12,-390 1355.12,-396 1349.12,-402 1343.12,-402 1343.12,-402 1254.12,-402 1254.12,-402 1248.12,-402 1242.12,-396 1242.12,-390 1242.12,-390 1242.12,-332 1242.12,-332 1242.12,-326 1248.12,-320 1254.12,-320"/>
<text text-anchor="middle" x="1298.62" y="-389.45" font-family="Helvetica,sans-Serif" font-weight="bold" font-size="9.00">pokemon</text>
</g>
<g id="clust28" class="cluster">
<title>cluster_src/shared/lib</title>
<path fill="#ffffff" stroke="black" stroke-width="2" d="M1462.12,-436C1462.12,-436 1508.12,-436 1508.12,-436 1514.12,-436 1520.12,-442 1520.12,-448 1520.12,-448 1520.12,-506 1520.12,-506 1520.12,-512 1514.12,-518 1508.12,-518 1508.12,-518 1462.12,-518 1462.12,-518 1456.12,-518 1450.12,-512 1450.12,-506 1450.12,-506 1450.12,-448 1450.12,-448 1450.12,-442 1456.12,-436 1462.12,-436"/>
<text text-anchor="middle" x="1485.12" y="-505.45" font-family="Helvetica,sans-Serif" font-weight="bold" font-size="9.00">lib</text>
</g>
<g id="clust29" class="cluster">
<title>cluster_src/shared/ui</title>
<path fill="#ffffff" stroke="black" stroke-width="2" d="M1176.12,-142C1176.12,-142 1222.12,-142 1222.12,-142 1228.12,-142 1234.12,-148 1234.12,-154 1234.12,-154 1234.12,-182 1234.12,-182 1234.12,-188 1228.12,-194 1222.12,-194 1222.12,-194 1176.12,-194 1176.12,-194 1170.12,-194 1164.12,-188 1164.12,-182 1164.12,-182 1164.12,-154 1164.12,-154 1164.12,-148 1170.12,-142 1176.12,-142"/>
<text text-anchor="middle" x="1199.12" y="-181.45" font-family="Helvetica,sans-Serif" font-weight="bold" font-size="9.00">ui</text>
</g>
<g id="clust30" class="cluster">
<title>cluster_src/widgets</title>
<path fill="#ffffff" stroke="black" stroke-width="2" d="M718.25,-16C718.25,-16 1136,-16 1136,-16 1142,-16 1148,-22 1148,-28 1148,-28 1148,-124 1148,-124 1148,-130 1142,-136 1136,-136 1136,-136 718.25,-136 718.25,-136 712.25,-136 706.25,-130 706.25,-124 706.25,-124 706.25,-28 706.25,-28 706.25,-22 712.25,-16 718.25,-16"/>
<text text-anchor="middle" x="927.12" y="-123.45" font-family="Helvetica,sans-Serif" font-weight="bold" font-size="9.00">widgets</text>
</g>
<g id="clust31" class="cluster">
<title>cluster_src/widgets/LoginDialog</title>
<path fill="#ffffff" stroke="black" stroke-width="2" d="M726.25,-24C726.25,-24 1128,-24 1128,-24 1134,-24 1140,-30 1140,-36 1140,-36 1140,-98 1140,-98 1140,-104 1134,-110 1128,-110 1128,-110 726.25,-110 726.25,-110 720.25,-110 714.25,-104 714.25,-98 714.25,-98 714.25,-36 714.25,-36 714.25,-30 720.25,-24 726.25,-24"/>
<text text-anchor="middle" x="927.12" y="-97.45" font-family="Helvetica,sans-Serif" font-weight="bold" font-size="9.00">LoginDialog</text>
</g>
<g id="clust32" class="cluster">
<title>cluster_src/widgets/LoginDialog/model</title>
<path fill="#ffffff" stroke="black" stroke-width="2" d="M1074,-32C1074,-32 1120,-32 1120,-32 1126,-32 1132,-38 1132,-44 1132,-44 1132,-72 1132,-72 1132,-78 1126,-84 1120,-84 1120,-84 1074,-84 1074,-84 1068,-84 1062,-78 1062,-72 1062,-72 1062,-44 1062,-44 1062,-38 1068,-32 1074,-32"/>
<text text-anchor="middle" x="1097" y="-71.45" font-family="Helvetica,sans-Serif" font-weight="bold" font-size="9.00">model</text>
</g>
<g id="clust33" class="cluster">
<title>cluster_src/widgets/LoginDialog/ui</title>
<path fill="#ffffff" stroke="black" stroke-width="2" d="M825.38,-32C825.38,-32 1039.62,-32 1039.62,-32 1045.62,-32 1051.62,-38 1051.62,-44 1051.62,-44 1051.62,-72 1051.62,-72 1051.62,-78 1045.62,-84 1039.62,-84 1039.62,-84 825.38,-84 825.38,-84 819.38,-84 813.38,-78 813.38,-72 813.38,-72 813.38,-44 813.38,-44 813.38,-38 819.38,-32 825.38,-32"/>
<text text-anchor="middle" x="932.5" y="-71.45" font-family="Helvetica,sans-Serif" font-weight="bold" font-size="9.00">ui</text>
</g>
<!-- src/app/entry.css -->
<g id="node1" class="node">
<title>src/app/entry.css</title>
<g id="a_node1"><a xlink:href="src/app/entry.css" xlink:title="entry.css">
<path fill="#ffffcc" stroke="black" d="M174.33,-77.88C174.33,-77.88 132.17,-77.88 132.17,-77.88 129.21,-77.88 126.25,-74.92 126.25,-71.96 126.25,-71.96 126.25,-66.04 126.25,-66.04 126.25,-63.08 129.21,-60.12 132.17,-60.12 132.17,-60.12 174.33,-60.12 174.33,-60.12 177.29,-60.12 180.25,-63.08 180.25,-66.04 180.25,-66.04 180.25,-71.96 180.25,-71.96 180.25,-74.92 177.29,-77.88 174.33,-77.88"/>
<text text-anchor="start" x="135.25" y="-65.33" font-family="Helvetica,sans-Serif" font-size="9.00">entry.css</text>
</a>
</g>
</g>
<!-- src/app/entry.tsx -->
<g id="node2" class="node">
<title>src/app/entry.tsx</title>
<g id="a_node2"><a xlink:href="src/app/entry.tsx" xlink:title="entry.tsx">
<path fill="#bbfeff" stroke="black" d="M72.08,-98.88C72.08,-98.88 29.92,-98.88 29.92,-98.88 26.96,-98.88 24,-95.92 24,-92.96 24,-92.96 24,-87.04 24,-87.04 24,-84.08 26.96,-81.12 29.92,-81.12 29.92,-81.12 72.08,-81.12 72.08,-81.12 75.04,-81.12 78,-84.08 78,-87.04 78,-87.04 78,-92.96 78,-92.96 78,-95.92 75.04,-98.88 72.08,-98.88"/>
<text text-anchor="start" x="34.12" y="-86.33" font-family="Helvetica,sans-Serif" font-size="9.00">entry.tsx</text>
</a>
</g>
</g>
<!-- src/app/entry.tsx&#45;&gt;src/app/entry.css -->
<g id="edge1" class="edge">
<title>src/app/entry.tsx&#45;&gt;src/app/entry.css</title>
<path fill="none" stroke="#000000" stroke-width="2" stroke-opacity="0.200000" d="M78.34,-84.48C90.31,-81.97 104.64,-78.97 117.48,-76.28"/>
<polygon fill="#000000" fill-opacity="0.200000" stroke="#000000" stroke-width="2" stroke-opacity="0.200000" points="117.68,-78.39 123.12,-75.1 116.82,-74.28 117.68,-78.39"/>
</g>
<!-- src/app/providers/router/RouterProvider.tsx -->
<g id="node3" class="node">
<title>src/app/providers/router/RouterProvider.tsx</title>
<g id="a_node3"><a xlink:href="src/app/providers/router/RouterProvider.tsx" xlink:title="RouterProvider.tsx">
<path fill="#bbfeff" stroke="black" d="M193.21,-119.88C193.21,-119.88 113.29,-119.88 113.29,-119.88 110.33,-119.88 107.38,-116.92 107.38,-113.96 107.38,-113.96 107.38,-108.04 107.38,-108.04 107.38,-105.08 110.33,-102.12 113.29,-102.12 113.29,-102.12 193.21,-102.12 193.21,-102.12 196.17,-102.12 199.12,-105.08 199.12,-108.04 199.12,-108.04 199.12,-113.96 199.12,-113.96 199.12,-116.92 196.17,-119.88 193.21,-119.88"/>
<text text-anchor="start" x="115.38" y="-107.33" font-family="Helvetica,sans-Serif" font-size="9.00">RouterProvider.tsx</text>
</a>
</g>
</g>
<!-- src/app/entry.tsx&#45;&gt;src/app/providers/router/RouterProvider.tsx -->
<g id="edge2" class="edge">
<title>src/app/entry.tsx&#45;&gt;src/app/providers/router/RouterProvider.tsx</title>
<path fill="none" stroke="#000000" stroke-width="2" stroke-opacity="0.200000" d="M78.34,-95.52C84.84,-96.88 92.04,-98.39 99.32,-99.91"/>
<polygon fill="#000000" fill-opacity="0.200000" stroke="#000000" stroke-width="2" stroke-opacity="0.200000" points="98.6,-101.91 104.91,-101.08 99.46,-97.8 98.6,-101.91"/>
</g>
<!-- src/app/providers/layout/BaseLayoutProvider.tsx -->
<g id="node4" class="node">
<title>src/app/providers/layout/BaseLayoutProvider.tsx</title>
<g id="a_node4"><a xlink:href="src/app/providers/layout/BaseLayoutProvider.tsx" xlink:title="BaseLayoutProvider.tsx">
<path fill="#bbfeff" stroke="black" d="M329.96,-119.88C329.96,-119.88 229.04,-119.88 229.04,-119.88 226.08,-119.88 223.12,-116.92 223.12,-113.96 223.12,-113.96 223.12,-108.04 223.12,-108.04 223.12,-105.08 226.08,-102.12 229.04,-102.12 229.04,-102.12 329.96,-102.12 329.96,-102.12 332.92,-102.12 335.88,-105.08 335.88,-108.04 335.88,-108.04 335.88,-113.96 335.88,-113.96 335.88,-116.92 332.92,-119.88 329.96,-119.88"/>
<text text-anchor="start" x="231.12" y="-107.33" font-family="Helvetica,sans-Serif" font-size="9.00">BaseLayoutProvider.tsx</text>
</a>
</g>
</g>
<!-- src/app/providers/router/RouterProvider.tsx&#45;&gt;src/app/providers/layout/BaseLayoutProvider.tsx -->
<g id="edge5" class="edge">
<title>src/app/providers/router/RouterProvider.tsx&#45;&gt;src/app/providers/layout/BaseLayoutProvider.tsx</title>
<path fill="none" stroke="#000000" stroke-width="2" stroke-opacity="0.200000" d="M199.46,-111C204.23,-111 209.14,-111 214.08,-111"/>
<polygon fill="#000000" fill-opacity="0.200000" stroke="#000000" stroke-width="2" stroke-opacity="0.200000" points="213.92,-113.1 219.92,-111 213.92,-108.9 213.92,-113.1"/>
</g>
<!-- src/pages/home/index.ts -->
<g id="node7" class="node">
<title>src/pages/home/index.ts</title>
<g id="a_node7"><a xlink:href="src/pages/home/index.ts" xlink:title="index.ts">
<path fill="#ddfeff" stroke="black" d="M300.58,-243.88C300.58,-243.88 258.42,-243.88 258.42,-243.88 255.46,-243.88 252.5,-240.92 252.5,-237.96 252.5,-237.96 252.5,-232.04 252.5,-232.04 252.5,-229.08 255.46,-226.12 258.42,-226.12 258.42,-226.12 300.58,-226.12 300.58,-226.12 303.54,-226.12 306.5,-229.08 306.5,-232.04 306.5,-232.04 306.5,-237.96 306.5,-237.96 306.5,-240.92 303.54,-243.88 300.58,-243.88"/>
<text text-anchor="start" x="263.75" y="-231.32" font-family="Helvetica,sans-Serif" font-size="9.00">index.ts</text>
</a>
</g>
</g>
<!-- src/app/providers/router/RouterProvider.tsx&#45;&gt;src/pages/home/index.ts -->
<g id="edge6" class="edge">
<title>src/app/providers/router/RouterProvider.tsx&#45;&gt;src/pages/home/index.ts</title>
<path fill="none" stroke="#000000" stroke-width="2" stroke-opacity="0.200000" d="M163.59,-120.32C184.83,-141.52 236.94,-193.52 263.05,-219.58"/>
<polygon fill="#000000" fill-opacity="0.200000" stroke="#000000" stroke-width="2" stroke-opacity="0.200000" points="261.52,-221.02 267.25,-223.77 264.48,-218.05 261.52,-221.02"/>
</g>
<!-- src/pages/profile/index.ts -->
<g id="node8" class="node">
<title>src/pages/profile/index.ts</title>
<g id="a_node8"><a xlink:href="src/pages/profile/index.ts" xlink:title="index.ts">
<path fill="#ddfeff" stroke="black" d="M300.58,-337.88C300.58,-337.88 258.42,-337.88 258.42,-337.88 255.46,-337.88 252.5,-334.92 252.5,-331.96 252.5,-331.96 252.5,-326.04 252.5,-326.04 252.5,-323.08 255.46,-320.12 258.42,-320.12 258.42,-320.12 300.58,-320.12 300.58,-320.12 303.54,-320.12 306.5,-323.08 306.5,-326.04 306.5,-326.04 306.5,-331.96 306.5,-331.96 306.5,-334.92 303.54,-337.88 300.58,-337.88"/>
<text text-anchor="start" x="263.75" y="-325.32" font-family="Helvetica,sans-Serif" font-size="9.00">index.ts</text>
</a>
</g>
</g>
<!-- src/app/providers/router/RouterProvider.tsx&#45;&gt;src/pages/profile/index.ts -->
<g id="edge7" class="edge">
<title>src/app/providers/router/RouterProvider.tsx&#45;&gt;src/pages/profile/index.ts</title>
<path fill="none" stroke="#000000" stroke-width="2" stroke-opacity="0.200000" d="M154.53,-120.36C155.95,-150.77 164.43,-247.95 215.12,-303 222.68,-311.2 233.2,-316.88 243.5,-320.79"/>
<polygon fill="#000000" fill-opacity="0.200000" stroke="#000000" stroke-width="2" stroke-opacity="0.200000" points="242.81,-322.77 249.16,-322.7 244.15,-318.79 242.81,-322.77"/>
</g>
<!-- src/entities/session/index.ts -->
<g id="node5" class="node">
<title>src/entities/session/index.ts</title>
<g id="a_node5"><a xlink:href="src/entities/session/index.ts" xlink:title="index.ts">
<path fill="#ddfeff" stroke="black" d="M896.96,-213.88C896.96,-213.88 854.79,-213.88 854.79,-213.88 851.83,-213.88 848.88,-210.92 848.88,-207.96 848.88,-207.96 848.88,-202.04 848.88,-202.04 848.88,-199.08 851.83,-196.12 854.79,-196.12 854.79,-196.12 896.96,-196.12 896.96,-196.12 899.92,-196.12 902.88,-199.08 902.88,-202.04 902.88,-202.04 902.88,-207.96 902.88,-207.96 902.88,-210.92 899.92,-213.88 896.96,-213.88"/>
<text text-anchor="start" x="860.12" y="-201.32" font-family="Helvetica,sans-Serif" font-size="9.00">index.ts</text>
</a>
</g>
</g>
<!-- src/app/providers/layout/BaseLayoutProvider.tsx&#45;&gt;src/entities/session/index.ts -->
<g id="edge3" class="edge">
<title>src/app/providers/layout/BaseLayoutProvider.tsx&#45;&gt;src/entities/session/index.ts</title>
<path fill="none" stroke="#000000" stroke-width="2" stroke-opacity="0.200000" d="M315.44,-120.29C356.43,-130.36 426.58,-145 487.88,-145 487.88,-145 487.88,-145 625.5,-145 705.99,-145 797.13,-174.91 843.76,-192.5"/>
<polygon fill="#000000" fill-opacity="0.200000" stroke="#000000" stroke-width="2" stroke-opacity="0.200000" points="842.76,-194.36 849.11,-194.54 844.26,-190.44 842.76,-194.36"/>
</g>
<!-- src/widgets/LoginDialog/index.ts -->
<g id="node6" class="node">
<title>src/widgets/LoginDialog/index.ts</title>
<g id="a_node6"><a xlink:href="src/widgets/LoginDialog/index.ts" xlink:title="index.ts">
<path fill="#ddfeff" stroke="black" d="M770.33,-70.88C770.33,-70.88 728.17,-70.88 728.17,-70.88 725.21,-70.88 722.25,-67.92 722.25,-64.96 722.25,-64.96 722.25,-59.04 722.25,-59.04 722.25,-56.08 725.21,-53.12 728.17,-53.12 728.17,-53.12 770.33,-53.12 770.33,-53.12 773.29,-53.12 776.25,-56.08 776.25,-59.04 776.25,-59.04 776.25,-64.96 776.25,-64.96 776.25,-67.92 773.29,-70.88 770.33,-70.88"/>
<text text-anchor="start" x="733.5" y="-58.33" font-family="Helvetica,sans-Serif" font-size="9.00">index.ts</text>
</a>
</g>
</g>
<!-- src/app/providers/layout/BaseLayoutProvider.tsx&#45;&gt;src/widgets/LoginDialog/index.ts -->
<g id="edge4" class="edge">
<title>src/app/providers/layout/BaseLayoutProvider.tsx&#45;&gt;src/widgets/LoginDialog/index.ts</title>
<path fill="none" stroke="#000000" stroke-width="2" stroke-opacity="0.200000" d="M335.99,-105.19C433.39,-94.98 632.42,-74.13 713.11,-65.68"/>
<polygon fill="#000000" fill-opacity="0.200000" stroke="#000000" stroke-width="2" stroke-opacity="0.200000" points="713.13,-67.79 718.88,-65.08 712.7,-63.61 713.13,-67.79"/>
</g>
<!-- src/entities/session/model/actions.ts -->
<g id="node18" class="node">
<title>src/entities/session/model/actions.ts</title>
<g id="a_node18"><a xlink:href="src/entities/session/model/actions.ts" xlink:title="actions.ts">
<path fill="#ddfeff" stroke="black" d="M1118.21,-239.88C1118.21,-239.88 1075.79,-239.88 1075.79,-239.88 1072.83,-239.88 1069.88,-236.92 1069.88,-233.96 1069.88,-233.96 1069.88,-228.04 1069.88,-228.04 1069.88,-225.08 1072.83,-222.12 1075.79,-222.12 1075.79,-222.12 1118.21,-222.12 1118.21,-222.12 1121.17,-222.12 1124.12,-225.08 1124.12,-228.04 1124.12,-228.04 1124.12,-233.96 1124.12,-233.96 1124.12,-236.92 1121.17,-239.88 1118.21,-239.88"/>
<text text-anchor="start" x="1077.88" y="-227.32" font-family="Helvetica,sans-Serif" font-size="9.00">actions.ts</text>
</a>
</g>
</g>
<!-- src/entities/session/index.ts&#45;&gt;src/entities/session/model/actions.ts -->
<g id="edge18" class="edge">
<title>src/entities/session/index.ts&#45;&gt;src/entities/session/model/actions.ts</title>
<path fill="none" stroke="#000000" stroke-width="2" stroke-opacity="0.200000" d="M903.21,-204.23C945.48,-203.27 1026.53,-202.65 1053.88,-211 1057.89,-212.22 1058.17,-214.04 1061.88,-216 1063.64,-216.94 1065.49,-217.86 1067.35,-218.77"/>
<polygon fill="#000000" fill-opacity="0.200000" stroke="#000000" stroke-width="2" stroke-opacity="0.200000" points="1071.95,-223.25 1067.41,-218.8 1073.74,-219.45 1071.95,-223.25"/>
</g>
<!-- src/entities/session/model/store.ts -->
<g id="node19" class="node">
<title>src/entities/session/model/store.ts</title>
<g id="a_node19"><a xlink:href="src/entities/session/model/store.ts" xlink:title="store.ts">
<path fill="#ddfeff" stroke="black" d="M1118.08,-209.88C1118.08,-209.88 1075.92,-209.88 1075.92,-209.88 1072.96,-209.88 1070,-206.92 1070,-203.96 1070,-203.96 1070,-198.04 1070,-198.04 1070,-195.08 1072.96,-192.12 1075.92,-192.12 1075.92,-192.12 1118.08,-192.12 1118.08,-192.12 1121.04,-192.12 1124,-195.08 1124,-198.04 1124,-198.04 1124,-203.96 1124,-203.96 1124,-206.92 1121.04,-209.88 1118.08,-209.88"/>
<text text-anchor="start" x="1082.38" y="-197.32" font-family="Helvetica,sans-Serif" font-size="9.00">store.ts</text>
</a>
</g>
</g>
<!-- src/entities/session/index.ts&#45;&gt;src/entities/session/model/store.ts -->
<g id="edge19" class="edge">
<title>src/entities/session/index.ts&#45;&gt;src/entities/session/model/store.ts</title>
<path fill="none" stroke="#000000" stroke-width="2" stroke-opacity="0.200000" d="M903.15,-203.29C917.96,-202.41 936.82,-201.44 953.62,-201 990.98,-200.03 1033.87,-200.2 1062.73,-200.51"/>
<polygon fill="#000000" fill-opacity="0.200000" stroke="#000000" stroke-width="2" stroke-opacity="0.200000" points="1068.73,-202.68 1062.75,-200.51 1068.78,-198.48 1068.73,-202.68"/>
</g>
<!-- src/entities/session/ui/LogoutButton.tsx -->
<g id="node20" class="node">
<title>src/entities/session/ui/LogoutButton.tsx</title>
<g id="a_node20"><a xlink:href="src/entities/session/ui/LogoutButton.tsx" xlink:title="LogoutButton.tsx">
<path fill="#bbfeff" stroke="black" d="M1039.96,-239.88C1039.96,-239.88 967.54,-239.88 967.54,-239.88 964.58,-239.88 961.62,-236.92 961.62,-233.96 961.62,-233.96 961.62,-228.04 961.62,-228.04 961.62,-225.08 964.58,-222.12 967.54,-222.12 967.54,-222.12 1039.96,-222.12 1039.96,-222.12 1042.92,-222.12 1045.88,-225.08 1045.88,-228.04 1045.88,-228.04 1045.88,-233.96 1045.88,-233.96 1045.88,-236.92 1042.92,-239.88 1039.96,-239.88"/>
<text text-anchor="start" x="969.62" y="-227.32" font-family="Helvetica,sans-Serif" font-size="9.00">LogoutButton.tsx</text>
</a>
</g>
</g>
<!-- src/entities/session/index.ts&#45;&gt;src/entities/session/ui/LogoutButton.tsx -->
<g id="edge20" class="edge">
<title>src/entities/session/index.ts&#45;&gt;src/entities/session/ui/LogoutButton.tsx</title>
<path fill="none" stroke="#000000" stroke-width="2" stroke-opacity="0.200000" d="M903.26,-210.45C918.15,-213.53 937.23,-217.47 954.68,-221.07"/>
<polygon fill="#000000" fill-opacity="0.200000" stroke="#000000" stroke-width="2" stroke-opacity="0.200000" points="960.13,-224.34 954.67,-221.07 960.98,-220.23 960.13,-224.34"/>
</g>
<!-- src/widgets/LoginDialog/ui/LoginDialogTrigger.tsx -->
<g id="node39" class="node">
<title>src/widgets/LoginDialog/ui/LoginDialogTrigger.tsx</title>
<g id="a_node39"><a xlink:href="src/widgets/LoginDialog/ui/LoginDialogTrigger.tsx" xlink:title="LoginDialogTrigger.tsx">
<path fill="#bbfeff" stroke="black" d="M924.46,-57.88C924.46,-57.88 827.29,-57.88 827.29,-57.88 824.33,-57.88 821.38,-54.92 821.38,-51.96 821.38,-51.96 821.38,-46.04 821.38,-46.04 821.38,-43.08 824.33,-40.12 827.29,-40.12 827.29,-40.12 924.46,-40.12 924.46,-40.12 927.42,-40.12 930.38,-43.08 930.38,-46.04 930.38,-46.04 930.38,-51.96 930.38,-51.96 930.38,-54.92 927.42,-57.88 924.46,-57.88"/>
<text text-anchor="start" x="829.38" y="-45.33" font-family="Helvetica,sans-Serif" font-size="9.00">LoginDialogTrigger.tsx</text>
</a>
</g>
</g>
<!-- src/widgets/LoginDialog/index.ts&#45;&gt;src/widgets/LoginDialog/ui/LoginDialogTrigger.tsx -->
<g id="edge51" class="edge">
<title>src/widgets/LoginDialog/index.ts&#45;&gt;src/widgets/LoginDialog/ui/LoginDialogTrigger.tsx</title>
<path fill="none" stroke="#000000" stroke-width="2" stroke-opacity="0.200000" d="M776.68,-59.24C787.69,-58.09 800.97,-56.71 814.16,-55.33"/>
<polygon fill="#000000" fill-opacity="0.200000" stroke="#000000" stroke-width="2" stroke-opacity="0.200000" points="820.26,-56.81 814.07,-55.34 819.82,-52.63 820.26,-56.81"/>
</g>
<!-- src/pages/home/ui/Page.tsx -->
<g id="node25" class="node">
<title>src/pages/home/ui/Page.tsx</title>
<g id="a_node25"><a xlink:href="src/pages/home/ui/Page.tsx" xlink:title="Page.tsx">
<path fill="#bbfeff" stroke="black" d="M423.96,-247.88C423.96,-247.88 381.79,-247.88 381.79,-247.88 378.83,-247.88 375.88,-244.92 375.88,-241.96 375.88,-241.96 375.88,-236.04 375.88,-236.04 375.88,-233.08 378.83,-230.12 381.79,-230.12 381.79,-230.12 423.96,-230.12 423.96,-230.12 426.92,-230.12 429.88,-233.08 429.88,-236.04 429.88,-236.04 429.88,-241.96 429.88,-241.96 429.88,-244.92 426.92,-247.88 423.96,-247.88"/>
<text text-anchor="start" x="385.25" y="-235.32" font-family="Helvetica,sans-Serif" font-size="9.00">Page.tsx</text>
</a>
</g>
</g>
<!-- src/pages/home/index.ts&#45;&gt;src/pages/home/ui/Page.tsx -->
<g id="edge31" class="edge">
<title>src/pages/home/index.ts&#45;&gt;src/pages/home/ui/Page.tsx</title>
<path fill="none" stroke="#000000" stroke-width="2" stroke-opacity="0.200000" d="M306.84,-235.87C324.97,-236.47 349.2,-237.26 368.66,-237.91"/>
<polygon fill="#000000" fill-opacity="0.200000" stroke="#000000" stroke-width="2" stroke-opacity="0.200000" points="374.52,-240.2 368.59,-237.9 374.66,-236 374.52,-240.2"/>
</g>
<!-- src/pages/profile/ui/Page.tsx -->
<g id="node28" class="node">
<title>src/pages/profile/ui/Page.tsx</title>
<g id="a_node28"><a xlink:href="src/pages/profile/ui/Page.tsx" xlink:title="Page.tsx">
<path fill="#bbfeff" stroke="black" d="M423.96,-341.88C423.96,-341.88 381.79,-341.88 381.79,-341.88 378.83,-341.88 375.88,-338.92 375.88,-335.96 375.88,-335.96 375.88,-330.04 375.88,-330.04 375.88,-327.08 378.83,-324.12 381.79,-324.12 381.79,-324.12 423.96,-324.12 423.96,-324.12 426.92,-324.12 429.88,-327.08 429.88,-330.04 429.88,-330.04 429.88,-335.96 429.88,-335.96 429.88,-338.92 426.92,-341.88 423.96,-341.88"/>
<text text-anchor="start" x="385.25" y="-329.32" font-family="Helvetica,sans-Serif" font-size="9.00">Page.tsx</text>
</a>
</g>
</g>
<!-- src/pages/profile/index.ts&#45;&gt;src/pages/profile/ui/Page.tsx -->
<g id="edge36" class="edge">
<title>src/pages/profile/index.ts&#45;&gt;src/pages/profile/ui/Page.tsx</title>
<path fill="none" stroke="#000000" stroke-width="2" stroke-opacity="0.200000" d="M306.84,-329.87C324.97,-330.47 349.2,-331.26 368.66,-331.91"/>
<polygon fill="#000000" fill-opacity="0.200000" stroke="#000000" stroke-width="2" stroke-opacity="0.200000" points="374.52,-334.2 368.59,-331.9 374.66,-330 374.52,-334.2"/>
</g>
<!-- src/entities/pokemon/api/queryPokemonById.ts -->
<g id="node9" class="node">
<title>src/entities/pokemon/api/queryPokemonById.ts</title>
<g id="a_node9"><a xlink:href="src/entities/pokemon/api/queryPokemonById.ts" xlink:title="queryPokemonById.ts">
<path fill="#ddfeff" stroke="black" d="M671.21,-607.88C671.21,-607.88 577.79,-607.88 577.79,-607.88 574.83,-607.88 571.88,-604.92 571.88,-601.96 571.88,-601.96 571.88,-596.04 571.88,-596.04 571.88,-593.08 574.83,-590.12 577.79,-590.12 577.79,-590.12 671.21,-590.12 671.21,-590.12 674.17,-590.12 677.12,-593.08 677.12,-596.04 677.12,-596.04 677.12,-601.96 677.12,-601.96 677.12,-604.92 674.17,-607.88 671.21,-607.88"/>
<text text-anchor="start" x="579.88" y="-595.33" font-family="Helvetica,sans-Serif" font-size="9.00">queryPokemonById.ts</text>
</a>
</g>
</g>
<!-- src/entities/pokemon/lib/mapPokemonDto.ts -->
<g id="node10" class="node">
<title>src/entities/pokemon/lib/mapPokemonDto.ts</title>
<g id="a_node10"><a xlink:href="src/entities/pokemon/lib/mapPokemonDto.ts" xlink:title="mapPokemonDto.ts">
<path fill="#ddfeff" stroke="black" d="M791.46,-607.88C791.46,-607.88 707.04,-607.88 707.04,-607.88 704.08,-607.88 701.12,-604.92 701.12,-601.96 701.12,-601.96 701.12,-596.04 701.12,-596.04 701.12,-593.08 704.08,-590.12 707.04,-590.12 707.04,-590.12 791.46,-590.12 791.46,-590.12 794.42,-590.12 797.38,-593.08 797.38,-596.04 797.38,-596.04 797.38,-601.96 797.38,-601.96 797.38,-604.92 794.42,-607.88 791.46,-607.88"/>
<text text-anchor="start" x="709.12" y="-595.33" font-family="Helvetica,sans-Serif" font-size="9.00">mapPokemonDto.ts</text>
</a>
</g>
</g>
<!-- src/entities/pokemon/api/queryPokemonById.ts&#45;&gt;src/entities/pokemon/lib/mapPokemonDto.ts -->
<g id="edge8" class="edge">
<title>src/entities/pokemon/api/queryPokemonById.ts&#45;&gt;src/entities/pokemon/lib/mapPokemonDto.ts</title>
<path fill="none" stroke="#000000" stroke-width="2" stroke-opacity="0.200000" d="M677.56,-599C682.26,-599 687.03,-599 691.76,-599"/>
<polygon fill="#000000" fill-opacity="0.200000" stroke="#000000" stroke-width="2" stroke-opacity="0.200000" points="691.76,-601.1 697.76,-599 691.76,-596.9 691.76,-601.1"/>
</g>
<!-- src/shared/api/index.ts -->
<g id="node11" class="node">
<title>src/shared/api/index.ts</title>
<g id="a_node11"><a xlink:href="src/shared/api/index.ts" xlink:title="index.ts">
<path fill="#ddfeff" stroke="black" d="M1220.21,-277.88C1220.21,-277.88 1178.04,-277.88 1178.04,-277.88 1175.08,-277.88 1172.12,-274.92 1172.12,-271.96 1172.12,-271.96 1172.12,-266.04 1172.12,-266.04 1172.12,-263.08 1175.08,-260.12 1178.04,-260.12 1178.04,-260.12 1220.21,-260.12 1220.21,-260.12 1223.17,-260.12 1226.12,-263.08 1226.12,-266.04 1226.12,-266.04 1226.12,-271.96 1226.12,-271.96 1226.12,-274.92 1223.17,-277.88 1220.21,-277.88"/>
<text text-anchor="start" x="1183.38" y="-265.32" font-family="Helvetica,sans-Serif" font-size="9.00">index.ts</text>
</a>
</g>
</g>
<!-- src/entities/pokemon/api/queryPokemonById.ts&#45;&gt;src/shared/api/index.ts -->
<g id="edge9" class="edge">
<title>src/entities/pokemon/api/queryPokemonById.ts&#45;&gt;src/shared/api/index.ts</title>
<path fill="none" stroke="#000000" stroke-width="2" stroke-opacity="0.200000" d="M636.62,-608.17C670.26,-634.91 774.73,-711 874.88,-711 874.88,-711 874.88,-711 1004.75,-711 1193.09,-711 1199.76,-369.99 1198.6,-287.03"/>
<polygon fill="#000000" fill-opacity="0.200000" stroke="#000000" stroke-width="2" stroke-opacity="0.200000" points="1200.7,-287.22 1198.49,-281.26 1196.5,-287.3 1200.7,-287.22"/>
</g>
<!-- src/entities/pokemon/lib/mapPokemonDto.ts&#45;&gt;src/shared/api/index.ts -->
<g id="edge14" class="edge">
<title>src/entities/pokemon/lib/mapPokemonDto.ts&#45;&gt;src/shared/api/index.ts</title>
<path fill="none" stroke="#000000" stroke-opacity="0.200000" d="M755.37,-608.28C764.58,-623.9 785.62,-654.89 813.38,-667 912.38,-710.18 961.7,-688.31 1053.88,-632 1104.36,-601.16 1120.53,-590.33 1148.12,-538 1193.91,-451.18 1198.36,-329.25 1198.37,-285.46"/>
<polygon fill="none" stroke="#000000" stroke-opacity="0.200000" points="1200.47,-285.72 1198.34,-279.73 1196.27,-285.75 1200.47,-285.72"/>
</g>
<!-- src/entities/pokemon/model/types.ts -->
<g id="node16" class="node">
<title>src/entities/pokemon/model/types.ts</title>
<g id="a_node16"><a xlink:href="src/entities/pokemon/model/types.ts" xlink:title="types.ts">
<path fill="#ddfeff" stroke="black" d="M896.96,-607.88C896.96,-607.88 854.79,-607.88 854.79,-607.88 851.83,-607.88 848.88,-604.92 848.88,-601.96 848.88,-601.96 848.88,-596.04 848.88,-596.04 848.88,-593.08 851.83,-590.12 854.79,-590.12 854.79,-590.12 896.96,-590.12 896.96,-590.12 899.92,-590.12 902.88,-593.08 902.88,-596.04 902.88,-596.04 902.88,-601.96 902.88,-601.96 902.88,-604.92 899.92,-607.88 896.96,-607.88"/>
<text text-anchor="start" x="860.5" y="-595.33" font-family="Helvetica,sans-Serif" font-size="9.00">types.ts</text>
</a>
</g>
</g>
<!-- src/entities/pokemon/lib/mapPokemonDto.ts&#45;&gt;src/entities/pokemon/model/types.ts -->
<g id="edge13" class="edge">
<title>src/entities/pokemon/lib/mapPokemonDto.ts&#45;&gt;src/entities/pokemon/model/types.ts</title>
<path fill="none" stroke="#000000" stroke-opacity="0.200000" d="M797.72,-599C812.23,-599 827.88,-599 841.27,-599"/>
<polygon fill="none" stroke="#000000" stroke-opacity="0.200000" points="840.94,-601.1 846.94,-599 840.94,-596.9 840.94,-601.1"/>
</g>
<!-- src/shared/api/base/endpoints.ts -->
<g id="node29" class="node">
<title>src/shared/api/base/endpoints.ts</title>
<g id="a_node29"><a xlink:href="src/shared/api/base/endpoints.ts" xlink:title="endpoints.ts">
<path fill="#ddfeff" stroke="black" d="M1325.46,-255.88C1325.46,-255.88 1271.79,-255.88 1271.79,-255.88 1268.83,-255.88 1265.88,-252.92 1265.88,-249.96 1265.88,-249.96 1265.88,-244.04 1265.88,-244.04 1265.88,-241.08 1268.83,-238.12 1271.79,-238.12 1271.79,-238.12 1325.46,-238.12 1325.46,-238.12 1328.42,-238.12 1331.38,-241.08 1331.38,-244.04 1331.38,-244.04 1331.38,-249.96 1331.38,-249.96 1331.38,-252.92 1328.42,-255.88 1325.46,-255.88"/>
<text text-anchor="start" x="1273.88" y="-243.32" font-family="Helvetica,sans-Serif" font-size="9.00">endpoints.ts</text>
</a>
</g>
</g>
<!-- src/shared/api/index.ts&#45;&gt;src/shared/api/base/endpoints.ts -->
<g id="edge44" class="edge">
<title>src/shared/api/index.ts&#45;&gt;src/shared/api/base/endpoints.ts</title>
<path fill="none" stroke="#000000" stroke-width="2" stroke-opacity="0.200000" d="M1226.51,-263.05C1236.41,-260.81 1247.88,-258.22 1258.68,-255.79"/>
<polygon fill="#000000" fill-opacity="0.200000" stroke="#000000" stroke-width="2" stroke-opacity="0.200000" points="1265.15,-256.48 1258.83,-255.75 1264.22,-252.38 1265.15,-256.48"/>
</g>
<!-- src/shared/api/base/fetchBaseApi.ts -->
<g id="node30" class="node">
<title>src/shared/api/base/fetchBaseApi.ts</title>
<g id="a_node30"><a xlink:href="src/shared/api/base/fetchBaseApi.ts" xlink:title="fetchBaseApi.ts">
<path fill="#ddfeff" stroke="black" d="M1436.21,-255.88C1436.21,-255.88 1369.04,-255.88 1369.04,-255.88 1366.08,-255.88 1363.12,-252.92 1363.12,-249.96 1363.12,-249.96 1363.12,-244.04 1363.12,-244.04 1363.12,-241.08 1366.08,-238.12 1369.04,-238.12 1369.04,-238.12 1436.21,-238.12 1436.21,-238.12 1439.17,-238.12 1442.12,-241.08 1442.12,-244.04 1442.12,-244.04 1442.12,-249.96 1442.12,-249.96 1442.12,-252.92 1439.17,-255.88 1436.21,-255.88"/>
<text text-anchor="start" x="1371.12" y="-243.32" font-family="Helvetica,sans-Serif" font-size="9.00">fetchBaseApi.ts</text>
</a>
</g>
</g>
<!-- src/shared/api/index.ts&#45;&gt;src/shared/api/base/fetchBaseApi.ts -->
<g id="edge46" class="edge">
<title>src/shared/api/index.ts&#45;&gt;src/shared/api/base/fetchBaseApi.ts</title>
<path fill="none" stroke="#000000" stroke-width="2" stroke-opacity="0.200000" d="M1226.42,-269.93C1257.44,-270.54 1310.46,-270.06 1355.12,-262 1360.06,-261.11 1365.2,-259.83 1370.18,-258.39"/>
<polygon fill="#000000" fill-opacity="0.200000" stroke="#000000" stroke-width="2" stroke-opacity="0.200000" points="1376.5,-258.65 1370.15,-258.4 1375.27,-254.63 1376.5,-258.65"/>
</g>
<!-- src/shared/api/base/types.ts -->
<g id="node31" class="node">
<title>src/shared/api/base/types.ts</title>
<g id="a_node31"><a xlink:href="src/shared/api/base/types.ts" xlink:title="types.ts">
<path fill="#ddfeff" stroke="black" d="M1423.71,-285.88C1423.71,-285.88 1381.54,-285.88 1381.54,-285.88 1378.58,-285.88 1375.62,-282.92 1375.62,-279.96 1375.62,-279.96 1375.62,-274.04 1375.62,-274.04 1375.62,-271.08 1378.58,-268.12 1381.54,-268.12 1381.54,-268.12 1423.71,-268.12 1423.71,-268.12 1426.67,-268.12 1429.62,-271.08 1429.62,-274.04 1429.62,-274.04 1429.62,-279.96 1429.62,-279.96 1429.62,-282.92 1426.67,-285.88 1423.71,-285.88"/>
<text text-anchor="start" x="1387.25" y="-273.32" font-family="Helvetica,sans-Serif" font-size="9.00">types.ts</text>
</a>
</g>
</g>
<!-- src/shared/api/index.ts&#45;&gt;src/shared/api/base/types.ts -->
<g id="edge48" class="edge">
<title>src/shared/api/index.ts&#45;&gt;src/shared/api/base/types.ts</title>
<path fill="none" stroke="#000000" stroke-opacity="0.200000" d="M1226.32,-271.78C1231.55,-272.25 1237.01,-272.69 1242.12,-273 1285.51,-275.61 1335.64,-276.52 1367.94,-276.84"/>
<polygon fill="none" stroke="#000000" stroke-opacity="0.200000" points="1367.82,-278.94 1373.84,-276.89 1367.86,-274.74 1367.82,-278.94"/>
</g>
<!-- src/shared/api/base/errors.ts -->
<g id="node32" class="node">
<title>src/shared/api/base/errors.ts</title>
<g id="a_node32"><a xlink:href="src/shared/api/base/errors.ts" xlink:title="errors.ts">
<path fill="#ddfeff" stroke="black" d="M1506.21,-255.88C1506.21,-255.88 1464.04,-255.88 1464.04,-255.88 1461.08,-255.88 1458.12,-252.92 1458.12,-249.96 1458.12,-249.96 1458.12,-244.04 1458.12,-244.04 1458.12,-241.08 1461.08,-238.12 1464.04,-238.12 1464.04,-238.12 1506.21,-238.12 1506.21,-238.12 1509.17,-238.12 1512.12,-241.08 1512.12,-244.04 1512.12,-244.04 1512.12,-249.96 1512.12,-249.96 1512.12,-252.92 1509.17,-255.88 1506.21,-255.88"/>
<text text-anchor="start" x="1468.62" y="-243.32" font-family="Helvetica,sans-Serif" font-size="9.00">errors.ts</text>
</a>
</g>
</g>
<!-- src/shared/api/index.ts&#45;&gt;src/shared/api/base/errors.ts -->
<g id="edge45" class="edge">
<title>src/shared/api/index.ts&#45;&gt;src/shared/api/base/errors.ts</title>
<path fill="none" stroke="#000000" stroke-width="2" stroke-opacity="0.200000" d="M1204.21,-259.77C1210.35,-247.17 1223.31,-225.1 1242.12,-216 1322.15,-177.31 1357.69,-188.21 1442.12,-216 1452.41,-219.39 1462.25,-226.37 1469.82,-232.85"/>
<polygon fill="#000000" fill-opacity="0.200000" stroke="#000000" stroke-width="2" stroke-opacity="0.200000" points="1472.98,-238.53 1469.93,-232.95 1475.79,-235.41 1472.98,-238.53"/>
</g>
<!-- src/shared/api/base/store.ts -->
<g id="node33" class="node">
<title>src/shared/api/base/store.ts</title>
<g id="a_node33"><a xlink:href="src/shared/api/base/store.ts" xlink:title="store.ts">
<path fill="#ddfeff" stroke="black" d="M1506.21,-285.88C1506.21,-285.88 1464.04,-285.88 1464.04,-285.88 1461.08,-285.88 1458.12,-282.92 1458.12,-279.96 1458.12,-279.96 1458.12,-274.04 1458.12,-274.04 1458.12,-271.08 1461.08,-268.12 1464.04,-268.12 1464.04,-268.12 1506.21,-268.12 1506.21,-268.12 1509.17,-268.12 1512.12,-271.08 1512.12,-274.04 1512.12,-274.04 1512.12,-279.96 1512.12,-279.96 1512.12,-282.92 1509.17,-285.88 1506.21,-285.88"/>
<text text-anchor="start" x="1470.5" y="-273.32" font-family="Helvetica,sans-Serif" font-size="9.00">store.ts</text>
</a>
</g>
</g>
<!-- src/shared/api/index.ts&#45;&gt;src/shared/api/base/store.ts -->
<g id="edge47" class="edge">
<title>src/shared/api/index.ts&#45;&gt;src/shared/api/base/store.ts</title>
<path fill="none" stroke="#000000" stroke-width="2" stroke-opacity="0.200000" d="M1207,-259.95C1214.49,-250.9 1227.4,-237.56 1242.12,-232 1283.7,-216.3 1406.88,-204.92 1442.12,-232 1453.07,-240.41 1441.15,-251.52 1450.12,-262 1450.81,-262.8 1451.54,-263.55 1452.31,-264.27"/>
<polygon fill="#000000" fill-opacity="0.200000" stroke="#000000" stroke-width="2" stroke-opacity="0.200000" points="1455.86,-269.54 1452.31,-264.27 1458.38,-266.18 1455.86,-269.54"/>
</g>
<!-- src/shared/api/pokemon/fecthPokemonApi.ts -->
<g id="node35" class="node">
<title>src/shared/api/pokemon/fecthPokemonApi.ts</title>
<g id="a_node35"><a xlink:href="src/shared/api/pokemon/fecthPokemonApi.ts" xlink:title="fecthPokemonApi.ts">
<path fill="#ddfeff" stroke="black" d="M1341.21,-345.88C1341.21,-345.88 1256.04,-345.88 1256.04,-345.88 1253.08,-345.88 1250.12,-342.92 1250.12,-339.96 1250.12,-339.96 1250.12,-334.04 1250.12,-334.04 1250.12,-331.08 1253.08,-328.12 1256.04,-328.12 1256.04,-328.12 1341.21,-328.12 1341.21,-328.12 1344.17,-328.12 1347.12,-331.08 1347.12,-334.04 1347.12,-334.04 1347.12,-339.96 1347.12,-339.96 1347.12,-342.92 1344.17,-345.88 1341.21,-345.88"/>
<text text-anchor="start" x="1258.12" y="-333.32" font-family="Helvetica,sans-Serif" font-size="9.00">fecthPokemonApi.ts</text>
</a>
</g>
</g>
<!-- src/shared/api/index.ts&#45;&gt;src/shared/api/pokemon/fecthPokemonApi.ts -->
<g id="edge49" class="edge">
<title>src/shared/api/index.ts&#45;&gt;src/shared/api/pokemon/fecthPokemonApi.ts</title>
<path fill="none" stroke="#000000" stroke-width="2" stroke-opacity="0.200000" d="M1204.45,-277.97C1210.88,-290.33 1224.17,-312.38 1242.12,-324 1242.58,-324.29 1243.03,-324.58 1243.5,-324.86"/>
<polygon fill="#000000" fill-opacity="0.200000" stroke="#000000" stroke-width="2" stroke-opacity="0.200000" points="1247.93,-329.54 1243.58,-324.9 1249.87,-325.82 1247.93,-329.54"/>
</g>
<!-- src/shared/api/pokemon/types.ts -->
<g id="node36" class="node">
<title>src/shared/api/pokemon/types.ts</title>
<g id="a_node36"><a xlink:href="src/shared/api/pokemon/types.ts" xlink:title="types.ts">
<path fill="#ddfeff" stroke="black" d="M1319.71,-375.88C1319.71,-375.88 1277.54,-375.88 1277.54,-375.88 1274.58,-375.88 1271.62,-372.92 1271.62,-369.96 1271.62,-369.96 1271.62,-364.04 1271.62,-364.04 1271.62,-361.08 1274.58,-358.12 1277.54,-358.12 1277.54,-358.12 1319.71,-358.12 1319.71,-358.12 1322.67,-358.12 1325.62,-361.08 1325.62,-364.04 1325.62,-364.04 1325.62,-369.96 1325.62,-369.96 1325.62,-372.92 1322.67,-375.88 1319.71,-375.88"/>
<text text-anchor="start" x="1283.25" y="-363.32" font-family="Helvetica,sans-Serif" font-size="9.00">types.ts</text>
</a>
</g>
</g>
<!-- src/shared/api/index.ts&#45;&gt;src/shared/api/pokemon/types.ts -->
<g id="edge50" class="edge">
<title>src/shared/api/index.ts&#45;&gt;src/shared/api/pokemon/types.ts</title>
<path fill="none" stroke="#000000" stroke-opacity="0.200000" d="M1202.18,-278.3C1206.48,-295.53 1218.08,-332.43 1242.12,-352 1248.41,-357.11 1256.28,-360.49 1264.11,-362.72"/>
<polygon fill="none" stroke="#000000" stroke-opacity="0.200000" points="1263.45,-364.72 1269.77,-364.1 1264.44,-360.64 1263.45,-364.72"/>
</g>
<!-- src/entities/pokemon/index.ts -->
<g id="node12" class="node">
<title>src/entities/pokemon/index.ts</title>
<g id="a_node12"><a xlink:href="src/entities/pokemon/index.ts" xlink:title="index.ts">
<path fill="#ddfeff" stroke="black" d="M645.58,-487.88C645.58,-487.88 603.42,-487.88 603.42,-487.88 600.46,-487.88 597.5,-484.92 597.5,-481.96 597.5,-481.96 597.5,-476.04 597.5,-476.04 597.5,-473.08 600.46,-470.12 603.42,-470.12 603.42,-470.12 645.58,-470.12 645.58,-470.12 648.54,-470.12 651.5,-473.08 651.5,-476.04 651.5,-476.04 651.5,-481.96 651.5,-481.96 651.5,-484.92 648.54,-487.88 645.58,-487.88"/>
<text text-anchor="start" x="608.75" y="-475.32" font-family="Helvetica,sans-Serif" font-size="9.00">index.ts</text>
</a>
</g>
</g>
<!-- src/entities/pokemon/model/consts.ts -->
<g id="node13" class="node">
<title>src/entities/pokemon/model/consts.ts</title>
<g id="a_node13"><a xlink:href="src/entities/pokemon/model/consts.ts" xlink:title="consts.ts">
<path fill="#ddfeff" stroke="black" d="M896.96,-547.88C896.96,-547.88 854.79,-547.88 854.79,-547.88 851.83,-547.88 848.88,-544.92 848.88,-541.96 848.88,-541.96 848.88,-536.04 848.88,-536.04 848.88,-533.08 851.83,-530.12 854.79,-530.12 854.79,-530.12 896.96,-530.12 896.96,-530.12 899.92,-530.12 902.88,-533.08 902.88,-536.04 902.88,-536.04 902.88,-541.96 902.88,-541.96 902.88,-544.92 899.92,-547.88 896.96,-547.88"/>
<text text-anchor="start" x="858.25" y="-535.33" font-family="Helvetica,sans-Serif" font-size="9.00">consts.ts</text>
</a>
</g>
</g>
<!-- src/entities/pokemon/index.ts&#45;&gt;src/entities/pokemon/model/consts.ts -->
<g id="edge10" class="edge">
<title>src/entities/pokemon/index.ts&#45;&gt;src/entities/pokemon/model/consts.ts</title>
<path fill="none" stroke="#000000" stroke-width="2" stroke-opacity="0.200000" d="M638.5,-488.36C651.62,-497.3 672.77,-510.34 693.12,-517 743.11,-533.35 804.41,-537.76 841.52,-538.83"/>
<polygon fill="#000000" fill-opacity="0.200000" stroke="#000000" stroke-width="2" stroke-opacity="0.200000" points="847.55,-541.07 841.61,-538.83 847.65,-536.88 847.55,-541.07"/>
</g>
<!-- src/entities/pokemon/model/store.ts -->
<g id="node14" class="node">
<title>src/entities/pokemon/model/store.ts</title>
<g id="a_node14"><a xlink:href="src/entities/pokemon/model/store.ts" xlink:title="store.ts">
<path fill="#ddfeff" stroke="black" d="M896.96,-577.88C896.96,-577.88 854.79,-577.88 854.79,-577.88 851.83,-577.88 848.88,-574.92 848.88,-571.96 848.88,-571.96 848.88,-566.04 848.88,-566.04 848.88,-563.08 851.83,-560.12 854.79,-560.12 854.79,-560.12 896.96,-560.12 896.96,-560.12 899.92,-560.12 902.88,-563.08 902.88,-566.04 902.88,-566.04 902.88,-571.96 902.88,-571.96 902.88,-574.92 899.92,-577.88 896.96,-577.88"/>
<text text-anchor="start" x="861.25" y="-565.33" font-family="Helvetica,sans-Serif" font-size="9.00">store.ts</text>
</a>
</g>
</g>
<!-- src/entities/pokemon/index.ts&#45;&gt;src/entities/pokemon/model/store.ts -->
<g id="edge11" class="edge">
<title>src/entities/pokemon/index.ts&#45;&gt;src/entities/pokemon/model/store.ts</title>
<path fill="none" stroke="#000000" stroke-width="2" stroke-opacity="0.200000" d="M634.71,-488.07C646.98,-499.62 669.85,-519.36 693.12,-530 742.03,-552.36 804.27,-562.13 841.77,-566.23"/>
<polygon fill="#000000" fill-opacity="0.200000" stroke="#000000" stroke-width="2" stroke-opacity="0.200000" points="847.26,-568.92 841.51,-566.21 847.7,-564.74 847.26,-568.92"/>
</g>
<!-- src/entities/pokemon/ui/PokemonCard.tsx -->
<g id="node15" class="node">
<title>src/entities/pokemon/ui/PokemonCard.tsx</title>
<g id="a_node15"><a xlink:href="src/entities/pokemon/ui/PokemonCard.tsx" xlink:title="PokemonCard.tsx">
<path fill="#bbfeff" stroke="black" d="M787.71,-487.88C787.71,-487.88 710.79,-487.88 710.79,-487.88 707.83,-487.88 704.88,-484.92 704.88,-481.96 704.88,-481.96 704.88,-476.04 704.88,-476.04 704.88,-473.08 707.83,-470.12 710.79,-470.12 710.79,-470.12 787.71,-470.12 787.71,-470.12 790.67,-470.12 793.62,-473.08 793.62,-476.04 793.62,-476.04 793.62,-481.96 793.62,-481.96 793.62,-484.92 790.67,-487.88 787.71,-487.88"/>
<text text-anchor="start" x="712.88" y="-475.32" font-family="Helvetica,sans-Serif" font-size="9.00">PokemonCard.tsx</text>
</a>
</g>
</g>
<!-- src/entities/pokemon/index.ts&#45;&gt;src/entities/pokemon/ui/PokemonCard.tsx -->
<g id="edge12" class="edge">
<title>src/entities/pokemon/index.ts&#45;&gt;src/entities/pokemon/ui/PokemonCard.tsx</title>
<path fill="none" stroke="#000000" stroke-width="2" stroke-opacity="0.200000" d="M651.83,-479C665.15,-479 681.78,-479 697.46,-479"/>
<polygon fill="#000000" fill-opacity="0.200000" stroke="#000000" stroke-width="2" stroke-opacity="0.200000" points="703.58,-481.1 697.58,-479 703.58,-476.9 703.58,-481.1"/>
</g>
<!-- src/entities/pokemon/model/store.ts&#45;&gt;src/entities/pokemon/api/queryPokemonById.ts -->
<g id="edge15" class="edge">
<title>src/entities/pokemon/model/store.ts&#45;&gt;src/entities/pokemon/api/queryPokemonById.ts</title>
<path fill="none" stroke="#000000" stroke-width="2" stroke-opacity="0.200000" d="M848.69,-568.36C805.31,-567.65 720.56,-567.82 693.12,-579 688.75,-580.78 689.34,-583.87 685.12,-586 684.95,-586.09 684.78,-586.17 684.61,-586.26"/>
<polygon fill="#000000" fill-opacity="0.200000" stroke="#000000" stroke-width="2" stroke-opacity="0.200000" points="684,-584.23 679.31,-588.53 685.65,-588.09 684,-584.23"/>
</g>
<!-- src/entities/pokemon/ui/PokemonCard.tsx&#45;&gt;src/entities/pokemon/model/store.ts -->
<g id="edge16" class="edge">
<title>src/entities/pokemon/ui/PokemonCard.tsx&#45;&gt;src/entities/pokemon/model/store.ts</title>
<path fill="none" stroke="#000000" stroke-width="2" stroke-opacity="0.200000" d="M794.03,-483.86C798.3,-485.85 802.21,-488.49 805.38,-492 823.98,-512.63 794.85,-533.3 813.38,-554 820.05,-561.46 829.77,-565.51 839.51,-567.63"/>
<polygon fill="#000000" fill-opacity="0.200000" stroke="#000000" stroke-width="2" stroke-opacity="0.200000" points="839.13,-569.7 845.39,-568.6 839.81,-565.56 839.13,-569.7"/>
</g>
<!-- src/entities/pokemon/ui/PokemonCardStub.tsx -->
<g id="node17" class="node">
<title>src/entities/pokemon/ui/PokemonCardStub.tsx</title>
<g id="a_node17"><a xlink:href="src/entities/pokemon/ui/PokemonCardStub.tsx" xlink:title="PokemonCardStub.tsx">
<path fill="#bbfeff" stroke="black" d="M923.71,-487.88C923.71,-487.88 828.04,-487.88 828.04,-487.88 825.08,-487.88 822.12,-484.92 822.12,-481.96 822.12,-481.96 822.12,-476.04 822.12,-476.04 822.12,-473.08 825.08,-470.12 828.04,-470.12 828.04,-470.12 923.71,-470.12 923.71,-470.12 926.67,-470.12 929.62,-473.08 929.62,-476.04 929.62,-476.04 929.62,-481.96 929.62,-481.96 929.62,-484.92 926.67,-487.88 923.71,-487.88"/>
<text text-anchor="start" x="830.12" y="-475.32" font-family="Helvetica,sans-Serif" font-size="9.00">PokemonCardStub.tsx</text>
</a>
</g>
</g>
<!-- src/entities/pokemon/ui/PokemonCard.tsx&#45;&gt;src/entities/pokemon/ui/PokemonCardStub.tsx -->
<g id="edge17" class="edge">
<title>src/entities/pokemon/ui/PokemonCard.tsx&#45;&gt;src/entities/pokemon/ui/PokemonCardStub.tsx</title>
<path fill="none" stroke="#000000" stroke-width="2" stroke-opacity="0.200000" d="M793.84,-479C800.01,-479 806.46,-479 812.9,-479"/>
<polygon fill="#000000" fill-opacity="0.200000" stroke="#000000" stroke-width="2" stroke-opacity="0.200000" points="812.63,-481.1 818.63,-479 812.63,-476.9 812.63,-481.1"/>
</g>
<!-- src/entities/session/model/actions.ts&#45;&gt;src/shared/api/index.ts -->
<g id="edge21" class="edge">
<title>src/entities/session/model/actions.ts&#45;&gt;src/shared/api/index.ts</title>
<path fill="none" stroke="#000000" stroke-width="2" stroke-opacity="0.200000" d="M1122.49,-240.3C1135.34,-245.17 1151.26,-251.21 1165.18,-256.5"/>
<polygon fill="#000000" fill-opacity="0.200000" stroke="#000000" stroke-width="2" stroke-opacity="0.200000" points="1164.35,-258.43 1170.71,-258.59 1165.84,-254.5 1164.35,-258.43"/>
</g>
<!-- src/entities/session/model/store.ts&#45;&gt;src/shared/api/index.ts -->
<g id="edge22" class="edge">
<title>src/entities/session/model/store.ts&#45;&gt;src/shared/api/index.ts</title>
<path fill="none" stroke="#000000" stroke-width="2" stroke-opacity="0.200000" d="M1124.34,-206.11C1132.35,-208.37 1140.93,-211.57 1148.12,-216 1163.49,-225.48 1177.27,-240.86 1186.45,-252.62"/>
<polygon fill="#000000" fill-opacity="0.200000" stroke="#000000" stroke-width="2" stroke-opacity="0.200000" points="1184.69,-253.77 1189.97,-257.31 1188.04,-251.25 1184.69,-253.77"/>
</g>
<!-- src/entities/session/ui/LogoutButton.tsx&#45;&gt;src/entities/session/model/actions.ts -->
<g id="edge23" class="edge">
<title>src/entities/session/ui/LogoutButton.tsx&#45;&gt;src/entities/session/model/actions.ts</title>
<path fill="none" stroke="#000000" stroke-width="2" stroke-opacity="0.200000" d="M1046.37,-231C1051.18,-231 1056.05,-231 1060.77,-231"/>
<polygon fill="#000000" fill-opacity="0.200000" stroke="#000000" stroke-width="2" stroke-opacity="0.200000" points="1060.56,-233.1 1066.56,-231 1060.56,-228.9 1060.56,-233.1"/>
</g>
<!-- src/entities/user/index.ts -->
<g id="node21" class="node">
<title>src/entities/user/index.ts</title>
<g id="a_node21"><a xlink:href="src/entities/user/index.ts" xlink:title="index.ts">
<path fill="#ddfeff" stroke="black" d="M645.58,-337.88C645.58,-337.88 603.42,-337.88 603.42,-337.88 600.46,-337.88 597.5,-334.92 597.5,-331.96 597.5,-331.96 597.5,-326.04 597.5,-326.04 597.5,-323.08 600.46,-320.12 603.42,-320.12 603.42,-320.12 645.58,-320.12 645.58,-320.12 648.54,-320.12 651.5,-323.08 651.5,-326.04 651.5,-326.04 651.5,-331.96 651.5,-331.96 651.5,-334.92 648.54,-337.88 645.58,-337.88"/>
<text text-anchor="start" x="608.75" y="-325.32" font-family="Helvetica,sans-Serif" font-size="9.00">index.ts</text>
</a>
</g>
</g>
<!-- src/entities/user/model/store.ts -->
<g id="node22" class="node">
<title>src/entities/user/model/store.ts</title>
<g id="a_node22"><a xlink:href="src/entities/user/model/store.ts" xlink:title="store.ts">
<path fill="#ddfeff" stroke="black" d="M770.33,-333.88C770.33,-333.88 728.17,-333.88 728.17,-333.88 725.21,-333.88 722.25,-330.92 722.25,-327.96 722.25,-327.96 722.25,-322.04 722.25,-322.04 722.25,-319.08 725.21,-316.12 728.17,-316.12 728.17,-316.12 770.33,-316.12 770.33,-316.12 773.29,-316.12 776.25,-319.08 776.25,-322.04 776.25,-322.04 776.25,-327.96 776.25,-327.96 776.25,-330.92 773.29,-333.88 770.33,-333.88"/>
<text text-anchor="start" x="734.62" y="-321.32" font-family="Helvetica,sans-Serif" font-size="9.00">store.ts</text>
</a>
</g>
</g>
<!-- src/entities/user/index.ts&#45;&gt;src/entities/user/model/store.ts -->
<g id="edge24" class="edge">
<title>src/entities/user/index.ts&#45;&gt;src/entities/user/model/store.ts</title>
<path fill="none" stroke="#000000" stroke-width="2" stroke-opacity="0.200000" d="M651.83,-328.14C670.28,-327.54 695.07,-326.73 714.9,-326.09"/>
<polygon fill="#000000" fill-opacity="0.200000" stroke="#000000" stroke-width="2" stroke-opacity="0.200000" points="721.03,-327.99 714.96,-326.08 720.89,-323.79 721.03,-327.99"/>
</g>
<!-- src/entities/user/model/store.ts&#45;&gt;src/entities/session/index.ts -->
<g id="edge29" class="edge">
<title>src/entities/user/model/store.ts&#45;&gt;src/entities/session/index.ts</title>
<path fill="none" stroke="#000000" stroke-width="2" stroke-opacity="0.200000" d="M759.62,-315.98C780.82,-295.57 832.68,-245.63 859,-220.29"/>
<polygon fill="#000000" fill-opacity="0.200000" stroke="#000000" stroke-width="2" stroke-opacity="0.200000" points="860.35,-221.9 863.22,-216.22 857.44,-218.87 860.35,-221.9"/>
</g>
<!-- src/entities/user/model/store.ts&#45;&gt;src/shared/api/index.ts -->
<g id="edge30" class="edge">
<title>src/entities/user/model/store.ts&#45;&gt;src/shared/api/index.ts</title>
<path fill="none" stroke="#000000" stroke-width="2" stroke-opacity="0.200000" d="M771.39,-334.35C783.65,-341 798.08,-351.2 805.38,-365 812.44,-378.37 802.53,-626.47 813.38,-637 855.54,-677.95 893.62,-664.39 945.62,-637 1094.3,-558.7 1172.28,-348.97 1192.65,-286.68"/>
<polygon fill="#000000" fill-opacity="0.200000" stroke="#000000" stroke-width="2" stroke-opacity="0.200000" points="1194.58,-287.53 1194.41,-281.17 1190.58,-286.25 1194.58,-287.53"/>
</g>
<!-- src/entities/user/lib/mapUserDto.ts -->
<g id="node23" class="node">
<title>src/entities/user/lib/mapUserDto.ts</title>
<g id="a_node23"><a xlink:href="src/entities/user/lib/mapUserDto.ts" xlink:title="mapUserDto.ts">
<path fill="#ddfeff" stroke="black" d="M781.71,-393.88C781.71,-393.88 716.79,-393.88 716.79,-393.88 713.83,-393.88 710.88,-390.92 710.88,-387.96 710.88,-387.96 710.88,-382.04 710.88,-382.04 710.88,-379.08 713.83,-376.12 716.79,-376.12 716.79,-376.12 781.71,-376.12 781.71,-376.12 784.67,-376.12 787.62,-379.08 787.62,-382.04 787.62,-382.04 787.62,-387.96 787.62,-387.96 787.62,-390.92 784.67,-393.88 781.71,-393.88"/>
<text text-anchor="start" x="718.88" y="-381.32" font-family="Helvetica,sans-Serif" font-size="9.00">mapUserDto.ts</text>
</a>
</g>
</g>
<!-- src/entities/user/model/store.ts&#45;&gt;src/entities/user/lib/mapUserDto.ts -->
<g id="edge27" class="edge">
<title>src/entities/user/model/store.ts&#45;&gt;src/entities/user/lib/mapUserDto.ts</title>
<path fill="none" stroke="#000000" stroke-width="2" stroke-opacity="0.200000" d="M749.25,-334.38C749.25,-345.3 749.25,-356.22 749.25,-367.14"/>
<polygon fill="#000000" fill-opacity="0.200000" stroke="#000000" stroke-width="2" stroke-opacity="0.200000" points="747.15,-366.88 749.25,-372.88 751.35,-366.88 747.15,-366.88"/>
</g>
<!-- src/entities/user/model/types.ts -->
<g id="node24" class="node">
<title>src/entities/user/model/types.ts</title>
<g id="a_node24"><a xlink:href="src/entities/user/model/types.ts" xlink:title="types.ts">
<path fill="#ddfeff" stroke="black" d="M896.96,-333.88C896.96,-333.88 854.79,-333.88 854.79,-333.88 851.83,-333.88 848.88,-330.92 848.88,-327.96 848.88,-327.96 848.88,-322.04 848.88,-322.04 848.88,-319.08 851.83,-316.12 854.79,-316.12 854.79,-316.12 896.96,-316.12 896.96,-316.12 899.92,-316.12 902.88,-319.08 902.88,-322.04 902.88,-322.04 902.88,-327.96 902.88,-327.96 902.88,-330.92 899.92,-333.88 896.96,-333.88"/>
<text text-anchor="start" x="860.5" y="-321.32" font-family="Helvetica,sans-Serif" font-size="9.00">types.ts</text>
</a>
</g>
</g>
<!-- src/entities/user/model/store.ts&#45;&gt;src/entities/user/model/types.ts -->
<g id="edge28" class="edge">
<title>src/entities/user/model/store.ts&#45;&gt;src/entities/user/model/types.ts</title>
<path fill="none" stroke="#000000" stroke-opacity="0.200000" d="M776.68,-325C795.43,-325 820.76,-325 841,-325"/>
<polygon fill="none" stroke="#000000" stroke-opacity="0.200000" points="840.97,-327.1 846.97,-325 840.97,-322.9 840.97,-327.1"/>
</g>
<!-- src/entities/user/lib/mapUserDto.ts&#45;&gt;src/shared/api/index.ts -->
<g id="edge26" class="edge">
<title>src/entities/user/lib/mapUserDto.ts&#45;&gt;src/shared/api/index.ts</title>
<path fill="none" stroke="#000000" stroke-opacity="0.200000" d="M759.83,-393.94C772.92,-406.85 795.85,-432.12 805.38,-459 812.58,-479.33 797.81,-638.06 813.38,-653 855.78,-693.7 888.72,-667.72 945.62,-653 1062.78,-622.7 1095.47,-579.95 1148.12,-471 1179.26,-406.59 1192.14,-320.96 1196.38,-285.48"/>
<polygon fill="none" stroke="#000000" stroke-opacity="0.200000" points="1198.43,-286.02 1197.03,-279.82 1194.26,-285.55 1198.43,-286.02"/>
</g>
<!-- src/entities/user/lib/mapUserDto.ts&#45;&gt;src/entities/user/model/types.ts -->
<g id="edge25" class="edge">
<title>src/entities/user/lib/mapUserDto.ts&#45;&gt;src/entities/user/model/types.ts</title>
<path fill="none" stroke="#000000" stroke-opacity="0.200000" d="M775.5,-375.66C784.97,-371.97 795.77,-367.52 805.38,-363 821.63,-355.35 839.39,-345.61 852.89,-337.91"/>
<polygon fill="none" stroke="#000000" stroke-opacity="0.200000" points="853.68,-339.88 857.84,-335.06 851.59,-336.24 853.68,-339.88"/>
</g>
<!-- src/pages/home/ui/Page.tsx&#45;&gt;src/entities/pokemon/index.ts -->
<g id="edge34" class="edge">
<title>src/pages/home/ui/Page.tsx&#45;&gt;src/entities/pokemon/index.ts</title>
<path fill="none" stroke="#000000" stroke-width="2" stroke-opacity="0.200000" d="M409.07,-247.99C430.12,-284.16 509.7,-418.53 547.88,-449 559.76,-458.49 575.02,-465.3 588.72,-470.01"/>
<polygon fill="#000000" fill-opacity="0.200000" stroke="#000000" stroke-width="2" stroke-opacity="0.200000" points="587.77,-471.91 594.12,-471.75 589.05,-467.91 587.77,-471.91"/>
</g>
<!-- src/pages/home/model/store.ts -->
<g id="node26" class="node">
<title>src/pages/home/model/store.ts</title>
<g id="a_node26"><a xlink:href="src/pages/home/model/store.ts" xlink:title="store.ts">
<path fill="#ddfeff" stroke="black" d="M509.96,-247.88C509.96,-247.88 467.79,-247.88 467.79,-247.88 464.83,-247.88 461.88,-244.92 461.88,-241.96 461.88,-241.96 461.88,-236.04 461.88,-236.04 461.88,-233.08 464.83,-230.12 467.79,-230.12 467.79,-230.12 509.96,-230.12 509.96,-230.12 512.92,-230.12 515.88,-233.08 515.88,-236.04 515.88,-236.04 515.88,-241.96 515.88,-241.96 515.88,-244.92 512.92,-247.88 509.96,-247.88"/>
<text text-anchor="start" x="474.25" y="-235.32" font-family="Helvetica,sans-Serif" font-size="9.00">store.ts</text>
</a>
</g>
</g>
<!-- src/pages/home/ui/Page.tsx&#45;&gt;src/pages/home/model/store.ts -->
<g id="edge33" class="edge">
<title>src/pages/home/ui/Page.tsx&#45;&gt;src/pages/home/model/store.ts</title>
<path fill="none" stroke="#000000" stroke-width="2" stroke-opacity="0.200000" d="M429.99,-239C437.19,-239 445.12,-239 452.74,-239"/>
<polygon fill="#000000" fill-opacity="0.200000" stroke="#000000" stroke-width="2" stroke-opacity="0.200000" points="452.46,-241.1 458.46,-239 452.46,-236.9 452.46,-241.1"/>
</g>
<!-- src/shared/ui/Input.tsx -->
<g id="node27" class="node">
<title>src/shared/ui/Input.tsx</title>
<g id="a_node27"><a xlink:href="src/shared/ui/Input.tsx" xlink:title="Input.tsx">
<path fill="#bbfeff" stroke="black" d="M1220.21,-167.88C1220.21,-167.88 1178.04,-167.88 1178.04,-167.88 1175.08,-167.88 1172.12,-164.92 1172.12,-161.96 1172.12,-161.96 1172.12,-156.04 1172.12,-156.04 1172.12,-153.08 1175.08,-150.12 1178.04,-150.12 1178.04,-150.12 1220.21,-150.12 1220.21,-150.12 1223.17,-150.12 1226.12,-153.08 1226.12,-156.04 1226.12,-156.04 1226.12,-161.96 1226.12,-161.96 1226.12,-164.92 1223.17,-167.88 1220.21,-167.88"/>
<text text-anchor="start" x="1182.25" y="-155.32" font-family="Helvetica,sans-Serif" font-size="9.00">Input.tsx</text>
</a>
</g>
</g>
<!-- src/pages/home/ui/Page.tsx&#45;&gt;src/shared/ui/Input.tsx -->
<g id="edge35" class="edge">
<title>src/pages/home/ui/Page.tsx&#45;&gt;src/shared/ui/Input.tsx</title>
<path fill="none" stroke="#000000" stroke-width="2" stroke-opacity="0.200000" d="M410.1,-229.73C418.53,-217.97 434.76,-198.01 453.88,-188 521.63,-152.53 547.02,-159 623.5,-159 623.5,-159 623.5,-159 1004.75,-159 1060.07,-159 1124.3,-159 1163.04,-159"/>
<polygon fill="#000000" fill-opacity="0.200000" stroke="#000000" stroke-width="2" stroke-opacity="0.200000" points="1162.82,-161.1 1168.82,-159 1162.82,-156.9 1162.82,-161.1"/>
</g>
<!-- src/pages/home/model/store.ts&#45;&gt;src/entities/pokemon/index.ts -->
<g id="edge32" class="edge">
<title>src/pages/home/model/store.ts&#45;&gt;src/entities/pokemon/index.ts</title>
<path fill="none" stroke="#000000" stroke-width="2" stroke-opacity="0.200000" d="M502.34,-248.14C514.39,-257.78 531.93,-274.16 539.88,-293 546.62,-308.99 537.76,-434.9 547.88,-449 557.37,-462.24 573.67,-469.64 588.7,-473.77"/>
<polygon fill="#000000" fill-opacity="0.200000" stroke="#000000" stroke-width="2" stroke-opacity="0.200000" points="588.08,-475.78 594.41,-475.14 589.06,-471.7 588.08,-475.78"/>
</g>
<!-- src/pages/profile/ui/Page.tsx&#45;&gt;src/entities/session/index.ts -->
<g id="edge37" class="edge">
<title>src/pages/profile/ui/Page.tsx&#45;&gt;src/entities/session/index.ts</title>
<path fill="none" stroke="#000000" stroke-width="2" stroke-opacity="0.200000" d="M413.31,-323.64C423.19,-313.23 438.29,-295.43 445.88,-277 450.83,-264.97 444.21,-227.71 453.88,-219 509.88,-168.53 748.73,-190.27 839.6,-200.65"/>
<polygon fill="#000000" fill-opacity="0.200000" stroke="#000000" stroke-width="2" stroke-opacity="0.200000" points="839.21,-202.72 845.41,-201.32 839.7,-198.55 839.21,-202.72"/>
</g>
<!-- src/pages/profile/ui/Page.tsx&#45;&gt;src/entities/user/index.ts -->
<g id="edge38" class="edge">
<title>src/pages/profile/ui/Page.tsx&#45;&gt;src/entities/user/index.ts</title>
<path fill="none" stroke="#000000" stroke-width="2" stroke-opacity="0.200000" d="M430.37,-332.52C469.88,-331.8 544.32,-330.44 588.35,-329.64"/>
<polygon fill="#000000" fill-opacity="0.200000" stroke="#000000" stroke-width="2" stroke-opacity="0.200000" points="588.27,-331.74 594.23,-329.53 588.19,-327.54 588.27,-331.74"/>
</g>
<!-- src/shared/api/base/endpoints.ts&#45;&gt;src/shared/api/base/fetchBaseApi.ts -->
<g id="edge39" class="edge">
<title>src/shared/api/base/endpoints.ts&#45;&gt;src/shared/api/base/fetchBaseApi.ts</title>
<path fill="none" stroke="#000000" stroke-width="2" stroke-opacity="0.200000" d="M1331.62,-247C1338.76,-247 1346.48,-247 1354.09,-247"/>
<polygon fill="#000000" fill-opacity="0.200000" stroke="#000000" stroke-width="2" stroke-opacity="0.200000" points="1353.91,-249.1 1359.91,-247 1353.91,-244.9 1353.91,-249.1"/>
</g>
<!-- src/shared/api/base/endpoints.ts&#45;&gt;src/shared/api/base/types.ts -->
<g id="edge40" class="edge">
<title>src/shared/api/base/endpoints.ts&#45;&gt;src/shared/api/base/types.ts</title>
<path fill="none" stroke="#000000" stroke-opacity="0.200000" d="M1331.79,-253.84C1339.48,-255.67 1347.63,-257.76 1355.12,-260 1360.33,-261.56 1365.81,-263.38 1371.1,-265.25"/>
<polygon fill="none" stroke="#000000" stroke-opacity="0.200000" points="1370.37,-267.22 1376.73,-267.28 1371.8,-263.27 1370.37,-267.22"/>
</g>
<!-- src/shared/api/base/fetchBaseApi.ts&#45;&gt;src/shared/api/base/errors.ts -->
<g id="edge41" class="edge">
<title>src/shared/api/base/fetchBaseApi.ts&#45;&gt;src/shared/api/base/errors.ts</title>
<path fill="none" stroke="#000000" stroke-width="2" stroke-opacity="0.200000" d="M1442.46,-247C1444.55,-247 1446.65,-247 1448.73,-247"/>
<polygon fill="#000000" fill-opacity="0.200000" stroke="#000000" stroke-width="2" stroke-opacity="0.200000" points="1448.63,-249.1 1454.63,-247 1448.63,-244.9 1448.63,-249.1"/>
</g>
<!-- src/shared/api/base/fetchBaseApi.ts&#45;&gt;src/shared/api/base/store.ts -->
<g id="edge42" class="edge">
<title>src/shared/api/base/fetchBaseApi.ts&#45;&gt;src/shared/api/base/store.ts</title>
<path fill="none" stroke="#000000" stroke-width="2" stroke-opacity="0.200000" d="M1428.65,-256.33C1435.62,-258.92 1443.3,-261.79 1450.67,-264.53"/>
<polygon fill="#000000" fill-opacity="0.200000" stroke="#000000" stroke-width="2" stroke-opacity="0.200000" points="1449.92,-266.49 1456.27,-266.62 1451.39,-262.56 1449.92,-266.49"/>
</g>
<!-- src/shared/lib/wait.ts -->
<g id="node34" class="node">
<title>src/shared/lib/wait.ts</title>
<g id="a_node34"><a xlink:href="src/shared/lib/wait.ts" xlink:title="wait.ts">
<path fill="#ddfeff" stroke="black" d="M1506.21,-461.88C1506.21,-461.88 1464.04,-461.88 1464.04,-461.88 1461.08,-461.88 1458.12,-458.92 1458.12,-455.96 1458.12,-455.96 1458.12,-450.04 1458.12,-450.04 1458.12,-447.08 1461.08,-444.12 1464.04,-444.12 1464.04,-444.12 1506.21,-444.12 1506.21,-444.12 1509.17,-444.12 1512.12,-447.08 1512.12,-450.04 1512.12,-450.04 1512.12,-455.96 1512.12,-455.96 1512.12,-458.92 1509.17,-461.88 1506.21,-461.88"/>
<text text-anchor="start" x="1472.38" y="-449.32" font-family="Helvetica,sans-Serif" font-size="9.00">wait.ts</text>
</a>
</g>
</g>
<!-- src/shared/api/base/fetchBaseApi.ts&#45;&gt;src/shared/lib/wait.ts -->
<g id="edge43" class="edge">
<title>src/shared/api/base/fetchBaseApi.ts&#45;&gt;src/shared/lib/wait.ts</title>
<path fill="none" stroke="#000000" stroke-width="2" stroke-opacity="0.200000" d="M1435.77,-256.23C1438.16,-257.85 1440.33,-259.76 1442.12,-262 1457,-280.61 1445.49,-291.63 1450.12,-315 1458.76,-358.54 1472.05,-409.04 1479.19,-435.21"/>
<polygon fill="#000000" fill-opacity="0.200000" stroke="#000000" stroke-width="2" stroke-opacity="0.200000" points="1477.1,-435.55 1480.72,-440.78 1481.15,-434.44 1477.1,-435.55"/>
</g>
<!-- src/shared/lib/app.d.ts -->
<g id="node37" class="node">
<title>src/shared/lib/app.d.ts</title>
<g id="a_node37"><a xlink:href="src/shared/lib/app.d.ts" xlink:title="app.d.ts">
<path fill="#ccffcc" stroke="black" d="M1506.21,-491.88C1506.21,-491.88 1464.04,-491.88 1464.04,-491.88 1461.08,-491.88 1458.12,-488.92 1458.12,-485.96 1458.12,-485.96 1458.12,-480.04 1458.12,-480.04 1458.12,-477.08 1461.08,-474.12 1464.04,-474.12 1464.04,-474.12 1506.21,-474.12 1506.21,-474.12 1509.17,-474.12 1512.12,-477.08 1512.12,-480.04 1512.12,-480.04 1512.12,-485.96 1512.12,-485.96 1512.12,-488.92 1509.17,-491.88 1506.21,-491.88"/>
<text text-anchor="start" x="1469" y="-479.32" font-family="Helvetica,sans-Serif" font-size="9.00">app.d.ts</text>
</a>
</g>
</g>
<!-- src/vite&#45;env.d.ts -->
<g id="node38" class="node">
<title>src/vite&#45;env.d.ts</title>
<g id="a_node38"><a xlink:href="src/vite-env.d.ts" xlink:title="vite&#45;env.d.ts">
<path fill="#ccffcc" stroke="black" d="M77.46,-467.88C77.46,-467.88 24.54,-467.88 24.54,-467.88 21.58,-467.88 18.62,-464.92 18.62,-461.96 18.62,-461.96 18.62,-456.04 18.62,-456.04 18.62,-453.08 21.58,-450.12 24.54,-450.12 24.54,-450.12 77.46,-450.12 77.46,-450.12 80.42,-450.12 83.38,-453.08 83.38,-456.04 83.38,-456.04 83.38,-461.96 83.38,-461.96 83.38,-464.92 80.42,-467.88 77.46,-467.88"/>
<text text-anchor="start" x="26.62" y="-455.32" font-family="Helvetica,sans-Serif" font-size="9.00">vite&#45;env.d.ts</text>
</a>
</g>
</g>
<!-- src/widgets/LoginDialog/ui/LoginDialog.tsx -->
<g id="node41" class="node">
<title>src/widgets/LoginDialog/ui/LoginDialog.tsx</title>
<g id="a_node41"><a xlink:href="src/widgets/LoginDialog/ui/LoginDialog.tsx" xlink:title="LoginDialog.tsx">
<path fill="#bbfeff" stroke="black" d="M1037.71,-57.88C1037.71,-57.88 969.79,-57.88 969.79,-57.88 966.83,-57.88 963.88,-54.92 963.88,-51.96 963.88,-51.96 963.88,-46.04 963.88,-46.04 963.88,-43.08 966.83,-40.12 969.79,-40.12 969.79,-40.12 1037.71,-40.12 1037.71,-40.12 1040.67,-40.12 1043.62,-43.08 1043.62,-46.04 1043.62,-46.04 1043.62,-51.96 1043.62,-51.96 1043.62,-54.92 1040.67,-57.88 1037.71,-57.88"/>
<text text-anchor="start" x="971.88" y="-45.33" font-family="Helvetica,sans-Serif" font-size="9.00">LoginDialog.tsx</text>
</a>
</g>
</g>
<!-- src/widgets/LoginDialog/ui/LoginDialogTrigger.tsx&#45;&gt;src/widgets/LoginDialog/ui/LoginDialog.tsx -->
<g id="edge55" class="edge">
<title>src/widgets/LoginDialog/ui/LoginDialogTrigger.tsx&#45;&gt;src/widgets/LoginDialog/ui/LoginDialog.tsx</title>
<path fill="none" stroke="#000000" stroke-width="2" stroke-opacity="0.200000" d="M930.62,-49C938.68,-49 946.95,-49 954.87,-49"/>
<polygon fill="#000000" fill-opacity="0.200000" stroke="#000000" stroke-width="2" stroke-opacity="0.200000" points="954.62,-51.1 960.62,-49 954.62,-46.9 954.62,-51.1"/>
</g>
<!-- src/widgets/LoginDialog/model/store.ts -->
<g id="node40" class="node">
<title>src/widgets/LoginDialog/model/store.ts</title>
<g id="a_node40"><a xlink:href="src/widgets/LoginDialog/model/store.ts" xlink:title="store.ts">
<path fill="#ddfeff" stroke="black" d="M1118.08,-57.88C1118.08,-57.88 1075.92,-57.88 1075.92,-57.88 1072.96,-57.88 1070,-54.92 1070,-51.96 1070,-51.96 1070,-46.04 1070,-46.04 1070,-43.08 1072.96,-40.12 1075.92,-40.12 1075.92,-40.12 1118.08,-40.12 1118.08,-40.12 1121.04,-40.12 1124,-43.08 1124,-46.04 1124,-46.04 1124,-51.96 1124,-51.96 1124,-54.92 1121.04,-57.88 1118.08,-57.88"/>
<text text-anchor="start" x="1082.38" y="-45.33" font-family="Helvetica,sans-Serif" font-size="9.00">store.ts</text>
</a>
</g>
</g>
<!-- src/widgets/LoginDialog/model/store.ts&#45;&gt;src/shared/api/index.ts -->
<g id="edge52" class="edge">
<title>src/widgets/LoginDialog/model/store.ts&#45;&gt;src/shared/api/index.ts</title>
<path fill="none" stroke="#000000" stroke-width="2" stroke-opacity="0.200000" d="M1107.73,-58.21C1119.57,-70.08 1139.1,-91.96 1148.12,-115 1161.48,-149.09 1144.86,-162.16 1156.12,-197 1162.81,-217.68 1176.11,-238.88 1185.96,-252.87"/>
<polygon fill="#000000" fill-opacity="0.200000" stroke="#000000" stroke-width="2" stroke-opacity="0.200000" points="1184.02,-253.77 1189.24,-257.39 1187.42,-251.3 1184.02,-253.77"/>
</g>
<!-- src/widgets/LoginDialog/ui/LoginDialog.tsx&#45;&gt;src/shared/api/index.ts -->
<g id="edge54" class="edge">
<title>src/widgets/LoginDialog/ui/LoginDialog.tsx&#45;&gt;src/shared/api/index.ts</title>
<path fill="none" stroke="#000000" stroke-width="2" stroke-opacity="0.200000" d="M1017.7,-58.32C1044.75,-78.28 1108.04,-127.74 1148.12,-181 1152.91,-187.35 1152.34,-190.01 1156.12,-197 1166.49,-216.15 1179.18,-237.66 1187.88,-252.15"/>
<polygon fill="#000000" fill-opacity="0.200000" stroke="#000000" stroke-width="2" stroke-opacity="0.200000" points="1186.03,-253.15 1190.93,-257.2 1189.63,-250.98 1186.03,-253.15"/>
</g>
<!-- src/widgets/LoginDialog/ui/LoginDialog.tsx&#45;&gt;src/widgets/LoginDialog/model/store.ts -->
<g id="edge53" class="edge">
<title>src/widgets/LoginDialog/ui/LoginDialog.tsx&#45;&gt;src/widgets/LoginDialog/model/store.ts</title>
<path fill="none" stroke="#000000" stroke-width="2" stroke-opacity="0.200000" d="M1043.98,-49C1049.55,-49 1055.25,-49 1060.74,-49"/>
<polygon fill="#000000" fill-opacity="0.200000" stroke="#000000" stroke-width="2" stroke-opacity="0.200000" points="1060.69,-51.1 1066.69,-49 1060.69,-46.9 1060.69,-51.1"/>
</g>
</g>
</svg>
