<?xml version="1.0" encoding="UTF-8" standalone="no"?>
<!DOCTYPE svg PUBLIC "-//W3C//DTD SVG 1.1//EN"
 "http://www.w3.org/Graphics/SVG/1.1/DTD/svg11.dtd">
<!-- Generated by graphviz version 12.0.0 (20240704.0754)
 -->
<!-- Title: dependency&#45;cruiser output Pages: 1 -->
<svg width="594pt" height="280pt"
 viewBox="0.00 0.00 593.50 280.00" xmlns="http://www.w3.org/2000/svg" xmlns:xlink="http://www.w3.org/1999/xlink">
<g id="graph0" class="graph" transform="scale(1 1) rotate(0) translate(4 276)">
<title>dependency&#45;cruiser output</title>
<polygon fill="white" stroke="none" points="-4,4 -4,-276 589.5,-276 589.5,4 -4,4"/>
<g id="clust1" class="cluster">
<title>cluster_src</title>
<path fill="#ffffff" stroke="black" stroke-width="2" d="M20,-8C20,-8 565.5,-8 565.5,-8 571.5,-8 577.5,-14 577.5,-20 577.5,-20 577.5,-252 577.5,-252 577.5,-258 571.5,-264 565.5,-264 565.5,-264 20,-264 20,-264 14,-264 8,-258 8,-252 8,-252 8,-20 8,-20 8,-14 14,-8 20,-8"/>
<text text-anchor="middle" x="292.75" y="-251.45" font-family="Helvetica,sans-Serif" font-weight="bold" font-size="9.00">src</text>
</g>
<g id="clust2" class="cluster">
<title>cluster_src/app</title>
<path fill="#ffffff" stroke="black" stroke-width="2" d="M28,-36C28,-36 222,-36 222,-36 228,-36 234,-42 234,-48 234,-48 234,-136 234,-136 234,-142 228,-148 222,-148 222,-148 28,-148 28,-148 22,-148 16,-142 16,-136 16,-136 16,-48 16,-48 16,-42 22,-36 28,-36"/>
<text text-anchor="middle" x="125" y="-135.45" font-family="Helvetica,sans-Serif" font-weight="bold" font-size="9.00">app</text>
</g>
<g id="clust3" class="cluster">
<title>cluster_src/app/providers</title>
<path fill="#ffffff" stroke="black" stroke-width="2" d="M98,-70C98,-70 214,-70 214,-70 220,-70 226,-76 226,-82 226,-82 226,-110 226,-110 226,-116 220,-122 214,-122 214,-122 98,-122 98,-122 92,-122 86,-116 86,-110 86,-110 86,-82 86,-82 86,-76 92,-70 98,-70"/>
<text text-anchor="middle" x="156" y="-109.45" font-family="Helvetica,sans-Serif" font-weight="bold" font-size="9.00">providers</text>
</g>
<g id="clust4" class="cluster">
<title>cluster_src/pages</title>
<path fill="#ffffff" stroke="black" stroke-width="2" d="M168,-156C168,-156 214,-156 214,-156 220,-156 226,-162 226,-168 226,-168 226,-226 226,-226 226,-232 220,-238 214,-238 214,-238 168,-238 168,-238 162,-238 156,-232 156,-226 156,-226 156,-168 156,-168 156,-162 162,-156 168,-156"/>
<text text-anchor="middle" x="191" y="-225.45" font-family="Helvetica,sans-Serif" font-weight="bold" font-size="9.00">pages</text>
</g>
<g id="clust5" class="cluster">
<title>cluster_src/shared</title>
<path fill="#ffffff" stroke="black" stroke-width="2" d="M254,-42C254,-42 557.5,-42 557.5,-42 563.5,-42 569.5,-48 569.5,-54 569.5,-54 569.5,-116 569.5,-116 569.5,-122 563.5,-128 557.5,-128 557.5,-128 254,-128 254,-128 248,-128 242,-122 242,-116 242,-116 242,-54 242,-54 242,-48 248,-42 254,-42"/>
<text text-anchor="middle" x="405.75" y="-115.45" font-family="Helvetica,sans-Serif" font-weight="bold" font-size="9.00">shared</text>
</g>
<g id="clust6" class="cluster">
<title>cluster_src/shared/services</title>
<path fill="#ffffff" stroke="black" stroke-width="2" d="M262,-50C262,-50 487.5,-50 487.5,-50 493.5,-50 499.5,-56 499.5,-62 499.5,-62 499.5,-90 499.5,-90 499.5,-96 493.5,-102 487.5,-102 487.5,-102 262,-102 262,-102 256,-102 250,-96 250,-90 250,-90 250,-62 250,-62 250,-56 256,-50 262,-50"/>
<text text-anchor="middle" x="374.75" y="-89.45" font-family="Helvetica,sans-Serif" font-weight="bold" font-size="9.00">services</text>
</g>
<g id="clust7" class="cluster">
<title>cluster_src/widgets</title>
<path fill="#ffffff" stroke="black" stroke-width="2" d="M332,-136C332,-136 390.25,-136 390.25,-136 396.25,-136 402.25,-142 402.25,-148 402.25,-148 402.25,-176 402.25,-176 402.25,-182 396.25,-188 390.25,-188 390.25,-188 332,-188 332,-188 326,-188 320,-182 320,-176 320,-176 320,-148 320,-148 320,-142 326,-136 332,-136"/>
<text text-anchor="middle" x="361.12" y="-175.45" font-family="Helvetica,sans-Serif" font-weight="bold" font-size="9.00">widgets</text>
</g>
<!-- src/app/entry.css -->
<g id="node1" class="node">
<title>src/app/entry.css</title>
<g id="a_node1"><a xlink:href="src/app/entry.css" xlink:title="entry.css">
<path fill="#ffffcc" stroke="black" d="M142.08,-61.88C142.08,-61.88 99.92,-61.88 99.92,-61.88 96.96,-61.88 94,-58.92 94,-55.96 94,-55.96 94,-50.04 94,-50.04 94,-47.08 96.96,-44.12 99.92,-44.12 99.92,-44.12 142.08,-44.12 142.08,-44.12 145.04,-44.12 148,-47.08 148,-50.04 148,-50.04 148,-55.96 148,-55.96 148,-58.92 145.04,-61.88 142.08,-61.88"/>
<text text-anchor="start" x="103" y="-49.33" font-family="Helvetica,sans-Serif" font-size="9.00">entry.css</text>
</a>
</g>
</g>
<!-- src/app/entry.tsx -->
<g id="node2" class="node">
<title>src/app/entry.tsx</title>
<g id="a_node2"><a xlink:href="src/app/entry.tsx" xlink:title="entry.tsx">
<path fill="#bbfeff" stroke="black" d="M72.08,-61.88C72.08,-61.88 29.92,-61.88 29.92,-61.88 26.96,-61.88 24,-58.92 24,-55.96 24,-55.96 24,-50.04 24,-50.04 24,-47.08 26.96,-44.12 29.92,-44.12 29.92,-44.12 72.08,-44.12 72.08,-44.12 75.04,-44.12 78,-47.08 78,-50.04 78,-50.04 78,-55.96 78,-55.96 78,-58.92 75.04,-61.88 72.08,-61.88"/>
<text text-anchor="start" x="34.12" y="-49.33" font-family="Helvetica,sans-Serif" font-size="9.00">entry.tsx</text>
</a>
</g>
</g>
<!-- src/app/entry.tsx&#45;&gt;src/app/entry.css -->
<g id="edge1" class="edge">
<title>src/app/entry.tsx&#45;&gt;src/app/entry.css</title>
<path fill="none" stroke="#000000" stroke-width="2" stroke-opacity="0.200000" d="M78.49,-53C80.7,-53 82.97,-53 85.24,-53"/>
<polygon fill="#000000" fill-opacity="0.200000" stroke="#000000" stroke-width="2" stroke-opacity="0.200000" points="84.9,-55.1 90.9,-53 84.9,-50.9 84.9,-55.1"/>
</g>
<!-- src/app/providers/router/ -->
<g id="node3" class="node">
<title>src/app/providers/router/</title>
<g id="a_node3"><a xlink:href="src/app/providers/router/" xlink:title="router">
<polygon fill="#ffffcc" stroke="black" points="148,-95.88 95.97,-95.88 94,-93.9 94,-78.12 146.03,-78.12 148,-80.1 148,-95.88"/>
<polyline fill="none" stroke="black" points="146.03,-93.9 94,-93.9"/>
<polyline fill="none" stroke="black" points="146.03,-93.9 146.03,-78.12"/>
<polyline fill="none" stroke="black" points="146.03,-93.9 148,-95.88"/>
<text text-anchor="start" x="109" y="-83.33" font-family="Helvetica,sans-Serif" font-size="9.00">router</text>
</a>
</g>
</g>
<!-- src/app/entry.tsx&#45;&gt;src/app/providers/router/ -->
<g id="edge2" class="edge">
<title>src/app/entry.tsx&#45;&gt;src/app/providers/router/</title>
<path fill="none" stroke="#000000" stroke-width="2" stroke-opacity="0.200000" d="M65.56,-62.19C70.47,-65.34 76.2,-68.84 86.14,-73.81"/>
<polygon fill="#000000" fill-opacity="0.200000" stroke="#000000" stroke-width="2" stroke-opacity="0.200000" points="85.12,-75.65 91.44,-76.39 86.96,-71.88 85.12,-75.65"/>
</g>
<!-- src/shared/services/dialog&#45;manager/ -->
<g id="node4" class="node">
<title>src/shared/services/dialog&#45;manager/</title>
<g id="a_node4"><a xlink:href="src/shared/services/dialog-manager/" xlink:title="dialog&#45;manager">
<polygon fill="#ffffcc" stroke="black" points="491.5,-75.88 412.22,-75.88 410.25,-73.9 410.25,-58.12 489.53,-58.12 491.5,-60.1 491.5,-75.88"/>
<polyline fill="none" stroke="black" points="489.53,-73.9 410.25,-73.9"/>
<polyline fill="none" stroke="black" points="489.53,-73.9 489.53,-58.12"/>
<polyline fill="none" stroke="black" points="489.53,-73.9 491.5,-75.88"/>
<text text-anchor="start" x="418.25" y="-63.33" font-family="Helvetica,sans-Serif" font-size="9.00">dialog&#45;manager</text>
</a>
</g>
</g>
<!-- src/app/entry.tsx&#45;&gt;src/shared/services/dialog&#45;manager/ -->
<g id="edge3" class="edge">
<title>src/app/entry.tsx&#45;&gt;src/shared/services/dialog&#45;manager/</title>
<path fill="none" stroke="#000000" stroke-width="2" stroke-opacity="0.200000" d="M62.9,-43.67C69.23,-38.78 77.59,-33.16 86,-30 129.6,-13.61 143.42,-17 190,-17 190,-17 190,-17 286,-17 336.79,-17 392.73,-39.24 424.35,-54.06"/>
<polygon fill="#000000" fill-opacity="0.200000" stroke="#000000" stroke-width="2" stroke-opacity="0.200000" points="423.18,-55.82 429.5,-56.52 424.99,-52.04 423.18,-55.82"/>
</g>
<!-- src/shared/services/theme/ -->
<g id="node5" class="node">
<title>src/shared/services/theme/</title>
<g id="a_node5"><a xlink:href="src/shared/services/theme/" xlink:title="theme">
<polygon fill="#ffffcc" stroke="black" points="312,-75.88 259.97,-75.88 258,-73.9 258,-58.12 310.03,-58.12 312,-60.1 312,-75.88"/>
<polyline fill="none" stroke="black" points="310.03,-73.9 258,-73.9"/>
<polyline fill="none" stroke="black" points="310.03,-73.9 310.03,-58.12"/>
<polyline fill="none" stroke="black" points="310.03,-73.9 312,-75.88"/>
<text text-anchor="start" x="272.25" y="-63.33" font-family="Helvetica,sans-Serif" font-size="9.00">theme</text>
</a>
</g>
</g>
<!-- src/app/entry.tsx&#45;&gt;src/shared/services/theme/ -->
<g id="edge4" class="edge">
<title>src/app/entry.tsx&#45;&gt;src/shared/services/theme/</title>
<path fill="none" stroke="#000000" stroke-width="2" stroke-opacity="0.200000" d="M69.18,-43.77C74.43,-41.41 80.32,-39.2 86,-38 143.2,-25.94 210.75,-42.27 250.33,-54.87"/>
<polygon fill="#000000" fill-opacity="0.200000" stroke="#000000" stroke-width="2" stroke-opacity="0.200000" points="249.59,-56.83 255.94,-56.71 250.89,-52.84 249.59,-56.83"/>
</g>
<!-- src/app/providers/layout/ -->
<g id="node6" class="node">
<title>src/app/providers/layout/</title>
<g id="a_node6"><a xlink:href="src/app/providers/layout/" xlink:title="layout">
<polygon fill="#ffffcc" stroke="black" points="218,-95.88 165.97,-95.88 164,-93.9 164,-78.12 216.03,-78.12 218,-80.1 218,-95.88"/>
<polyline fill="none" stroke="black" points="216.03,-93.9 164,-93.9"/>
<polyline fill="none" stroke="black" points="216.03,-93.9 216.03,-78.12"/>
<polyline fill="none" stroke="black" points="216.03,-93.9 218,-95.88"/>
<text text-anchor="start" x="178.62" y="-83.33" font-family="Helvetica,sans-Serif" font-size="9.00">layout</text>
</a>
</g>
</g>
<!-- src/app/providers/router/&#45;&gt;src/app/providers/layout/ -->
<g id="edge8" class="edge">
<title>src/app/providers/router/&#45;&gt;src/app/providers/layout/</title>
<path fill="none" stroke="#000000" stroke-width="2" stroke-opacity="0.200000" d="M148.49,-87C150.7,-87 152.97,-87 155.24,-87"/>
<polygon fill="#000000" fill-opacity="0.200000" stroke="#000000" stroke-width="2" stroke-opacity="0.200000" points="154.9,-89.1 160.9,-87 154.9,-84.9 154.9,-89.1"/>
</g>
<!-- src/shared/services/feature&#45;flags/ -->
<g id="node7" class="node">
<title>src/shared/services/feature&#45;flags/</title>
<g id="a_node7"><a xlink:href="src/shared/services/feature-flags/" xlink:title="feature&#45;flags">
<polygon fill="#ffffcc" stroke="black" points="394.62,-75.88 329.6,-75.88 327.62,-73.9 327.62,-58.12 392.65,-58.12 394.62,-60.1 394.62,-75.88"/>
<polyline fill="none" stroke="black" points="392.65,-73.9 327.62,-73.9"/>
<polyline fill="none" stroke="black" points="392.65,-73.9 392.65,-58.12"/>
<polyline fill="none" stroke="black" points="392.65,-73.9 394.62,-75.88"/>
<text text-anchor="start" x="335.62" y="-63.33" font-family="Helvetica,sans-Serif" font-size="9.00">feature&#45;flags</text>
</a>
</g>
</g>
<!-- src/app/providers/router/&#45;&gt;src/shared/services/feature&#45;flags/ -->
<g id="edge11" class="edge">
<title>src/app/providers/router/&#45;&gt;src/shared/services/feature&#45;flags/</title>
<path fill="none" stroke="#000000" stroke-width="2" stroke-opacity="0.200000" d="M141.53,-77.64C146.21,-75.61 151.23,-73.59 156,-72 222.31,-49.88 242.9,-41.48 312,-52 316.87,-52.74 321.92,-53.88 326.84,-55.21"/>
<polygon fill="#000000" fill-opacity="0.200000" stroke="#000000" stroke-width="2" stroke-opacity="0.200000" points="326.23,-57.22 332.58,-56.9 327.42,-53.19 326.23,-57.22"/>
</g>
<!-- src/pages/home/ -->
<g id="node9" class="node">
<title>src/pages/home/</title>
<g id="a_node9"><a xlink:href="src/pages/home/" xlink:title="home">
<polygon fill="#ffffcc" stroke="black" points="218,-181.88 165.97,-181.88 164,-179.9 164,-164.12 216.03,-164.12 218,-166.1 218,-181.88"/>
<polyline fill="none" stroke="black" points="216.03,-179.9 164,-179.9"/>
<polyline fill="none" stroke="black" points="216.03,-179.9 216.03,-164.12"/>
<polyline fill="none" stroke="black" points="216.03,-179.9 218,-181.88"/>
<text text-anchor="start" x="179.38" y="-169.32" font-family="Helvetica,sans-Serif" font-size="9.00">home</text>
</a>
</g>
</g>
<!-- src/app/providers/router/&#45;&gt;src/pages/home/ -->
<g id="edge9" class="edge">
<title>src/app/providers/router/&#45;&gt;src/pages/home/</title>
<path fill="none" stroke="#000000" stroke-width="2" stroke-opacity="0.200000" d="M129.28,-96.2C140.73,-110.69 163.11,-138.99 177.27,-156.9"/>
<polygon fill="#000000" fill-opacity="0.200000" stroke="#000000" stroke-width="2" stroke-opacity="0.200000" points="175.53,-158.08 180.9,-161.49 178.82,-155.48 175.53,-158.08"/>
</g>
<!-- src/pages/profile/ -->
<g id="node10" class="node">
<title>src/pages/profile/</title>
<g id="a_node10"><a xlink:href="src/pages/profile/" xlink:title="profile">
<polygon fill="#ffffcc" stroke="black" points="218,-211.88 165.97,-211.88 164,-209.9 164,-194.12 216.03,-194.12 218,-196.1 218,-211.88"/>
<polyline fill="none" stroke="black" points="216.03,-209.9 164,-209.9"/>
<polyline fill="none" stroke="black" points="216.03,-209.9 216.03,-194.12"/>
<polyline fill="none" stroke="black" points="216.03,-209.9 218,-211.88"/>
<text text-anchor="start" x="178.25" y="-199.32" font-family="Helvetica,sans-Serif" font-size="9.00">profile</text>
</a>
</g>
</g>
<!-- src/app/providers/router/&#45;&gt;src/pages/profile/ -->
<g id="edge10" class="edge">
<title>src/app/providers/router/&#45;&gt;src/pages/profile/</title>
<path fill="none" stroke="#000000" stroke-width="2" stroke-opacity="0.200000" d="M122.67,-96.33C124.54,-115.78 131.42,-161.08 156,-188 156.27,-188.3 156.55,-188.59 156.84,-188.88"/>
<polygon fill="#000000" fill-opacity="0.200000" stroke="#000000" stroke-width="2" stroke-opacity="0.200000" points="155.19,-190.26 161.22,-192.27 157.76,-186.93 155.19,-190.26"/>
</g>
<!-- src/shared/ui/ -->
<g id="node11" class="node">
<title>src/shared/ui/</title>
<g id="a_node11"><a xlink:href="src/shared/ui/" xlink:title="ui">
<polygon fill="#ffffcc" stroke="black" points="561.5,-101.88 509.47,-101.88 507.5,-99.9 507.5,-84.12 559.53,-84.12 561.5,-86.1 561.5,-101.88"/>
<polyline fill="none" stroke="black" points="559.53,-99.9 507.5,-99.9"/>
<polyline fill="none" stroke="black" points="559.53,-99.9 559.53,-84.12"/>
<polyline fill="none" stroke="black" points="559.53,-99.9 561.5,-101.88"/>
<text text-anchor="start" x="530.75" y="-89.33" font-family="Helvetica,sans-Serif" font-size="9.00">ui</text>
</a>
</g>
</g>
<!-- src/shared/services/dialog&#45;manager/&#45;&gt;src/shared/ui/ -->
<g id="edge14" class="edge">
<title>src/shared/services/dialog&#45;manager/&#45;&gt;src/shared/ui/</title>
<path fill="none" stroke="#000000" stroke-width="2" stroke-opacity="0.200000" d="M480.88,-76.24C486.61,-78.06 492.67,-80 498.57,-81.87"/>
<polygon fill="#000000" fill-opacity="0.200000" stroke="#000000" stroke-width="2" stroke-opacity="0.200000" points="497.8,-83.83 504.15,-83.65 499.07,-79.83 497.8,-83.83"/>
</g>
<!-- src/shared/services/theme/&#45;&gt;src/shared/services/feature&#45;flags/ -->
<g id="edge16" class="edge">
<title>src/shared/services/theme/&#45;&gt;src/shared/services/feature&#45;flags/</title>
<path fill="none" stroke="#000000" stroke-width="2" stroke-opacity="0.200000" d="M312.34,-67C314.3,-67 316.31,-67 318.33,-67"/>
<polygon fill="#000000" fill-opacity="0.200000" stroke="#000000" stroke-width="2" stroke-opacity="0.200000" points="318.22,-69.1 324.22,-67 318.22,-64.9 318.22,-69.1"/>
</g>
<!-- src/app/providers/layout/&#45;&gt;src/shared/services/theme/ -->
<g id="edge6" class="edge">
<title>src/app/providers/layout/&#45;&gt;src/shared/services/theme/</title>
<path fill="none" stroke="#000000" stroke-width="2" stroke-opacity="0.200000" d="M218.12,-81.32C227.73,-79.23 238.78,-76.83 249.05,-74.6"/>
<polygon fill="#000000" fill-opacity="0.200000" stroke="#000000" stroke-width="2" stroke-opacity="0.200000" points="249.44,-76.66 254.86,-73.33 248.55,-72.56 249.44,-76.66"/>
</g>
<!-- src/app/providers/layout/&#45;&gt;src/shared/services/feature&#45;flags/ -->
<g id="edge5" class="edge">
<title>src/app/providers/layout/&#45;&gt;src/shared/services/feature&#45;flags/</title>
<path fill="none" stroke="#000000" stroke-width="2" stroke-opacity="0.200000" d="M218.43,-87.86C242.88,-88.2 280.16,-87.53 312,-82 316.52,-81.22 321.2,-80.12 325.8,-78.88"/>
<polygon fill="#000000" fill-opacity="0.200000" stroke="#000000" stroke-width="2" stroke-opacity="0.200000" points="326.38,-80.9 331.55,-77.2 325.2,-76.87 326.38,-80.9"/>
</g>
<!-- src/widgets/LoginDialog/ -->
<g id="node8" class="node">
<title>src/widgets/LoginDialog/</title>
<g id="a_node8"><a xlink:href="src/widgets/LoginDialog/" xlink:title="LoginDialog">
<polygon fill="#ffffcc" stroke="black" points="394.25,-161.88 329.97,-161.88 328,-159.9 328,-144.12 392.28,-144.12 394.25,-146.1 394.25,-161.88"/>
<polyline fill="none" stroke="black" points="392.28,-159.9 328,-159.9"/>
<polyline fill="none" stroke="black" points="392.28,-159.9 392.28,-144.12"/>
<polyline fill="none" stroke="black" points="392.28,-159.9 394.25,-161.88"/>
<text text-anchor="start" x="336" y="-149.32" font-family="Helvetica,sans-Serif" font-size="9.00">LoginDialog</text>
</a>
</g>
</g>
<!-- src/app/providers/layout/&#45;&gt;src/widgets/LoginDialog/ -->
<g id="edge7" class="edge">
<title>src/app/providers/layout/&#45;&gt;src/widgets/LoginDialog/</title>
<path fill="none" stroke="#000000" stroke-width="2" stroke-opacity="0.200000" d="M215.73,-96.32C245.15,-107.86 295.39,-127.59 328.17,-140.46"/>
<polygon fill="#000000" fill-opacity="0.200000" stroke="#000000" stroke-width="2" stroke-opacity="0.200000" points="327.34,-142.39 333.7,-142.63 328.88,-138.48 327.34,-142.39"/>
</g>
<!-- src/shared/services/feature&#45;flags/&#45;&gt;src/shared/services/dialog&#45;manager/ -->
<g id="edge15" class="edge">
<title>src/shared/services/feature&#45;flags/&#45;&gt;src/shared/services/dialog&#45;manager/</title>
<path fill="none" stroke="#000000" stroke-width="2" stroke-opacity="0.200000" d="M394.8,-67C396.97,-67 399.19,-67 401.42,-67"/>
<polygon fill="#000000" fill-opacity="0.200000" stroke="#000000" stroke-width="2" stroke-opacity="0.200000" points="401.02,-69.1 407.02,-67 401.02,-64.9 401.02,-69.1"/>
</g>
<!-- src/widgets/LoginDialog/&#45;&gt;src/shared/services/dialog&#45;manager/ -->
<g id="edge17" class="edge">
<title>src/widgets/LoginDialog/&#45;&gt;src/shared/services/dialog&#45;manager/</title>
<path fill="none" stroke="#000000" stroke-width="2" stroke-opacity="0.200000" d="M371.52,-143.8C386.56,-129.05 416.21,-99.99 434.41,-82.16"/>
<polygon fill="#000000" fill-opacity="0.200000" stroke="#000000" stroke-width="2" stroke-opacity="0.200000" points="435.57,-83.96 438.39,-78.26 432.63,-80.96 435.57,-83.96"/>
</g>
<!-- src/widgets/LoginDialog/&#45;&gt;src/shared/ui/ -->
<g id="edge18" class="edge">
<title>src/widgets/LoginDialog/&#45;&gt;src/shared/ui/</title>
<path fill="none" stroke="#000000" stroke-width="2" stroke-opacity="0.200000" d="M388.98,-143.64C415,-134.57 455.8,-120.33 498.81,-105.24"/>
<polygon fill="#000000" fill-opacity="0.200000" stroke="#000000" stroke-width="2" stroke-opacity="0.200000" points="499.32,-107.28 504.29,-103.31 497.93,-103.32 499.32,-107.28"/>
</g>
<!-- src/pages/profile/&#45;&gt;src/shared/services/dialog&#45;manager/ -->
<g id="edge12" class="edge">
<title>src/pages/profile/&#45;&gt;src/shared/services/dialog&#45;manager/</title>
<path fill="none" stroke="#000000" stroke-width="2" stroke-opacity="0.200000" d="M218.44,-203.07C271.63,-202.99 387.74,-201.59 402.25,-191 436.57,-165.95 446.16,-112.71 448.84,-84.85"/>
<polygon fill="#000000" fill-opacity="0.200000" stroke="#000000" stroke-width="2" stroke-opacity="0.200000" points="450.91,-85.3 449.29,-79.16 446.72,-84.97 450.91,-85.3"/>
</g>
<!-- src/pages/profile/&#45;&gt;src/shared/ui/ -->
<g id="edge13" class="edge">
<title>src/pages/profile/&#45;&gt;src/shared/ui/</title>
<path fill="none" stroke="#000000" stroke-width="2" stroke-opacity="0.200000" d="M218.31,-208.22C259.22,-215.13 339.84,-223.84 402.25,-200 452.99,-180.62 498.86,-133.48 520.45,-108.74"/>
<polygon fill="#000000" fill-opacity="0.200000" stroke="#000000" stroke-width="2" stroke-opacity="0.200000" points="521.85,-110.35 524.15,-104.42 518.66,-107.61 521.85,-110.35"/>
</g>
</g>
</svg>
