<?xml version="1.0" encoding="UTF-8" standalone="no"?>
<!DOCTYPE svg PUBLIC "-//W3C//DTD SVG 1.1//EN"
 "http://www.w3.org/Graphics/SVG/1.1/DTD/svg11.dtd">
<!-- Generated by graphviz version 12.0.0 (20240704.0754)
 -->
<!-- Title: dependency&#45;cruiser output Pages: 1 -->
<svg width="610pt" height="618pt"
 viewBox="0.00 0.00 609.75 618.00" xmlns="http://www.w3.org/2000/svg" xmlns:xlink="http://www.w3.org/1999/xlink">
<g id="graph0" class="graph" transform="scale(1 1) rotate(0) translate(4 614)">
<title>dependency&#45;cruiser output</title>
<polygon fill="white" stroke="none" points="-4,4 -4,-614 605.75,-614 605.75,4 -4,4"/>
<g id="clust1" class="cluster">
<title>cluster_src</title>
<path fill="#ffffff" stroke="black" stroke-width="2" d="M20,-8C20,-8 581.75,-8 581.75,-8 587.75,-8 593.75,-14 593.75,-20 593.75,-20 593.75,-590 593.75,-590 593.75,-596 587.75,-602 581.75,-602 581.75,-602 20,-602 20,-602 14,-602 8,-596 8,-590 8,-590 8,-20 8,-20 8,-14 14,-8 20,-8"/>
<text text-anchor="middle" x="300.88" y="-589.45" font-family="Helvetica,sans-Serif" font-weight="bold" font-size="9.00">src</text>
</g>
<g id="clust2" class="cluster">
<title>cluster_src/app</title>
<path fill="#ffffff" stroke="black" stroke-width="2" d="M28,-112C28,-112 342.5,-112 342.5,-112 348.5,-112 354.5,-118 354.5,-124 354.5,-124 354.5,-246 354.5,-246 354.5,-252 348.5,-258 342.5,-258 342.5,-258 28,-258 28,-258 22,-258 16,-252 16,-246 16,-246 16,-124 16,-124 16,-118 22,-112 28,-112"/>
<text text-anchor="middle" x="185.25" y="-245.45" font-family="Helvetica,sans-Serif" font-weight="bold" font-size="9.00">app</text>
</g>
<g id="clust3" class="cluster">
<title>cluster_src/app/providers</title>
<path fill="#ffffff" stroke="black" stroke-width="2" d="M98,-146C98,-146 334.5,-146 334.5,-146 340.5,-146 346.5,-152 346.5,-158 346.5,-158 346.5,-220 346.5,-220 346.5,-226 340.5,-232 334.5,-232 334.5,-232 98,-232 98,-232 92,-232 86,-226 86,-220 86,-220 86,-158 86,-158 86,-152 92,-146 98,-146"/>
<text text-anchor="middle" x="216.25" y="-219.45" font-family="Helvetica,sans-Serif" font-weight="bold" font-size="9.00">providers</text>
</g>
<g id="clust4" class="cluster">
<title>cluster_src/app/providers/layout</title>
<path fill="#ffffff" stroke="black" stroke-width="2" d="M221.75,-154C221.75,-154 326.5,-154 326.5,-154 332.5,-154 338.5,-160 338.5,-166 338.5,-166 338.5,-194 338.5,-194 338.5,-200 332.5,-206 326.5,-206 326.5,-206 221.75,-206 221.75,-206 215.75,-206 209.75,-200 209.75,-194 209.75,-194 209.75,-166 209.75,-166 209.75,-160 215.75,-154 221.75,-154"/>
<text text-anchor="middle" x="274.12" y="-193.45" font-family="Helvetica,sans-Serif" font-weight="bold" font-size="9.00">layout</text>
</g>
<g id="clust5" class="cluster">
<title>cluster_src/app/providers/router</title>
<path fill="#ffffff" stroke="black" stroke-width="2" d="M106,-154C106,-154 189.75,-154 189.75,-154 195.75,-154 201.75,-160 201.75,-166 201.75,-166 201.75,-194 201.75,-194 201.75,-200 195.75,-206 189.75,-206 189.75,-206 106,-206 106,-206 100,-206 94,-200 94,-194 94,-194 94,-166 94,-166 94,-160 100,-154 106,-154"/>
<text text-anchor="middle" x="147.88" y="-193.45" font-family="Helvetica,sans-Serif" font-weight="bold" font-size="9.00">router</text>
</g>
<g id="clust6" class="cluster">
<title>cluster_src/pages</title>
<path fill="#ffffff" stroke="black" stroke-width="2" d="M243.12,-268C243.12,-268 573.75,-268 573.75,-268 579.75,-268 585.75,-274 585.75,-280 585.75,-280 585.75,-564 585.75,-564 585.75,-570 579.75,-576 573.75,-576 573.75,-576 243.12,-576 243.12,-576 237.13,-576 231.12,-570 231.12,-564 231.12,-564 231.12,-280 231.12,-280 231.12,-274 237.12,-268 243.12,-268"/>
<text text-anchor="middle" x="408.44" y="-563.45" font-family="Helvetica,sans-Serif" font-weight="bold" font-size="9.00">pages</text>
</g>
<g id="clust7" class="cluster">
<title>cluster_src/pages/home</title>
<path fill="#ffffff" stroke="black" stroke-width="2" d="M251.12,-276C251.12,-276 450.88,-276 450.88,-276 456.88,-276 462.88,-282 462.88,-288 462.88,-288 462.88,-350 462.88,-350 462.88,-356 456.88,-362 450.88,-362 450.88,-362 251.12,-362 251.12,-362 245.12,-362 239.12,-356 239.12,-350 239.12,-350 239.12,-288 239.12,-288 239.12,-282 245.12,-276 251.12,-276"/>
<text text-anchor="middle" x="351" y="-349.45" font-family="Helvetica,sans-Serif" font-weight="bold" font-size="9.00">home</text>
</g>
<g id="clust8" class="cluster">
<title>cluster_src/pages/home/ui</title>
<path fill="#ffffff" stroke="black" stroke-width="2" d="M396.88,-284C396.88,-284 442.88,-284 442.88,-284 448.88,-284 454.88,-290 454.88,-296 454.88,-296 454.88,-324 454.88,-324 454.88,-330 448.88,-336 442.88,-336 442.88,-336 396.88,-336 396.88,-336 390.88,-336 384.88,-330 384.88,-324 384.88,-324 384.88,-296 384.88,-296 384.88,-290 390.88,-284 396.88,-284"/>
<text text-anchor="middle" x="419.88" y="-323.45" font-family="Helvetica,sans-Serif" font-weight="bold" font-size="9.00">ui</text>
</g>
<g id="clust9" class="cluster">
<title>cluster_src/pages/login</title>
<path fill="#ffffff" stroke="black" stroke-width="2" d="M251.12,-370C251.12,-370 565.75,-370 565.75,-370 571.75,-370 577.75,-376 577.75,-382 577.75,-382 577.75,-444 577.75,-444 577.75,-450 571.75,-456 565.75,-456 565.75,-456 251.13,-456 251.13,-456 245.12,-456 239.12,-450 239.12,-444 239.12,-444 239.12,-382 239.12,-382 239.12,-376 245.12,-370 251.12,-370"/>
<text text-anchor="middle" x="408.44" y="-443.45" font-family="Helvetica,sans-Serif" font-weight="bold" font-size="9.00">login</text>
</g>
<g id="clust10" class="cluster">
<title>cluster_src/pages/login/ui</title>
<path fill="#ffffff" stroke="black" stroke-width="2" d="M396.88,-378C396.88,-378 557.75,-378 557.75,-378 563.75,-378 569.75,-384 569.75,-390 569.75,-390 569.75,-418 569.75,-418 569.75,-424 563.75,-430 557.75,-430 557.75,-430 396.88,-430 396.88,-430 390.88,-430 384.88,-424 384.88,-418 384.88,-418 384.88,-390 384.88,-390 384.88,-384 390.88,-378 396.88,-378"/>
<text text-anchor="middle" x="477.31" y="-417.45" font-family="Helvetica,sans-Serif" font-weight="bold" font-size="9.00">ui</text>
</g>
<g id="clust11" class="cluster">
<title>cluster_src/pages/profile</title>
<path fill="#ffffff" stroke="black" stroke-width="2" d="M251.12,-464C251.12,-464 450.88,-464 450.88,-464 456.88,-464 462.88,-470 462.88,-476 462.88,-476 462.88,-538 462.88,-538 462.88,-544 456.88,-550 450.88,-550 450.88,-550 251.12,-550 251.12,-550 245.12,-550 239.12,-544 239.12,-538 239.12,-538 239.12,-476 239.12,-476 239.12,-470 245.12,-464 251.12,-464"/>
<text text-anchor="middle" x="351" y="-537.45" font-family="Helvetica,sans-Serif" font-weight="bold" font-size="9.00">profile</text>
</g>
<g id="clust12" class="cluster">
<title>cluster_src/pages/profile/ui</title>
<path fill="#ffffff" stroke="black" stroke-width="2" d="M396.88,-472C396.88,-472 442.88,-472 442.88,-472 448.88,-472 454.88,-478 454.88,-484 454.88,-484 454.88,-512 454.88,-512 454.88,-518 448.88,-524 442.88,-524 442.88,-524 396.88,-524 396.88,-524 390.88,-524 384.88,-518 384.88,-512 384.88,-512 384.88,-484 384.88,-484 384.88,-478 390.88,-472 396.88,-472"/>
<text text-anchor="middle" x="419.88" y="-511.45" font-family="Helvetica,sans-Serif" font-weight="bold" font-size="9.00">ui</text>
</g>
<g id="clust13" class="cluster">
<title>cluster_src/shared</title>
<path fill="#ffffff" stroke="black" stroke-width="2" d="M374.5,-144C374.5,-144 465.25,-144 465.25,-144 471.25,-144 477.25,-150 477.25,-156 477.25,-156 477.25,-248 477.25,-248 477.25,-254 471.25,-260 465.25,-260 465.25,-260 374.5,-260 374.5,-260 368.5,-260 362.5,-254 362.5,-248 362.5,-248 362.5,-156 362.5,-156 362.5,-150 368.5,-144 374.5,-144"/>
<text text-anchor="middle" x="419.88" y="-247.45" font-family="Helvetica,sans-Serif" font-weight="bold" font-size="9.00">shared</text>
</g>
<g id="clust14" class="cluster">
<title>cluster_src/shared/ui</title>
<path fill="#ffffff" stroke="black" stroke-width="2" d="M382.5,-152C382.5,-152 457.25,-152 457.25,-152 463.25,-152 469.25,-158 469.25,-164 469.25,-164 469.25,-222 469.25,-222 469.25,-228 463.25,-234 457.25,-234 457.25,-234 382.5,-234 382.5,-234 376.5,-234 370.5,-228 370.5,-222 370.5,-222 370.5,-164 370.5,-164 370.5,-158 376.5,-152 382.5,-152"/>
<text text-anchor="middle" x="419.88" y="-221.45" font-family="Helvetica,sans-Serif" font-weight="bold" font-size="9.00">ui</text>
</g>
<g id="clust15" class="cluster">
<title>cluster_src/widgets</title>
<path fill="#ffffff" stroke="black" stroke-width="2" d="M388.88,-16C388.88,-16 568.5,-16 568.5,-16 574.5,-16 580.5,-22 580.5,-28 580.5,-28 580.5,-124 580.5,-124 580.5,-130 574.5,-136 568.5,-136 568.5,-136 388.88,-136 388.88,-136 382.88,-136 376.88,-130 376.88,-124 376.88,-124 376.88,-28 376.88,-28 376.88,-22 382.88,-16 388.88,-16"/>
<text text-anchor="middle" x="478.69" y="-123.45" font-family="Helvetica,sans-Serif" font-weight="bold" font-size="9.00">widgets</text>
</g>
<g id="clust16" class="cluster">
<title>cluster_src/widgets/UserBar</title>
<path fill="#ffffff" stroke="black" stroke-width="2" d="M396.88,-24C396.88,-24 560.5,-24 560.5,-24 566.5,-24 572.5,-30 572.5,-36 572.5,-36 572.5,-98 572.5,-98 572.5,-104 566.5,-110 560.5,-110 560.5,-110 396.88,-110 396.88,-110 390.88,-110 384.88,-104 384.88,-98 384.88,-98 384.88,-36 384.88,-36 384.88,-30 390.88,-24 396.88,-24"/>
<text text-anchor="middle" x="478.69" y="-97.45" font-family="Helvetica,sans-Serif" font-weight="bold" font-size="9.00">UserBar</text>
</g>
<g id="clust17" class="cluster">
<title>cluster_src/widgets/UserBar/ui</title>
<path fill="#ffffff" stroke="black" stroke-width="2" d="M497.25,-32C497.25,-32 552.5,-32 552.5,-32 558.5,-32 564.5,-38 564.5,-44 564.5,-44 564.5,-72 564.5,-72 564.5,-78 558.5,-84 552.5,-84 552.5,-84 497.25,-84 497.25,-84 491.25,-84 485.25,-78 485.25,-72 485.25,-72 485.25,-44 485.25,-44 485.25,-38 491.25,-32 497.25,-32"/>
<text text-anchor="middle" x="524.88" y="-71.45" font-family="Helvetica,sans-Serif" font-weight="bold" font-size="9.00">ui</text>
</g>
<!-- src/app/entry.css -->
<g id="node1" class="node">
<title>src/app/entry.css</title>
<g id="a_node1"><a xlink:href="src/app/entry.css" xlink:title="entry.css">
<path fill="#ffffcc" stroke="black" d="M168.96,-137.88C168.96,-137.88 126.79,-137.88 126.79,-137.88 123.83,-137.88 120.88,-134.92 120.88,-131.96 120.88,-131.96 120.88,-126.04 120.88,-126.04 120.88,-123.08 123.83,-120.12 126.79,-120.12 126.79,-120.12 168.96,-120.12 168.96,-120.12 171.92,-120.12 174.88,-123.08 174.88,-126.04 174.88,-126.04 174.88,-131.96 174.88,-131.96 174.88,-134.92 171.92,-137.88 168.96,-137.88"/>
<text text-anchor="start" x="129.88" y="-125.33" font-family="Helvetica,sans-Serif" font-size="9.00">entry.css</text>
</a>
</g>
</g>
<!-- src/app/entry.tsx -->
<g id="node2" class="node">
<title>src/app/entry.tsx</title>
<g id="a_node2"><a xlink:href="src/app/entry.tsx" xlink:title="entry.tsx">
<path fill="#bbfeff" stroke="black" d="M72.08,-158.88C72.08,-158.88 29.92,-158.88 29.92,-158.88 26.96,-158.88 24,-155.92 24,-152.96 24,-152.96 24,-147.04 24,-147.04 24,-144.08 26.96,-141.12 29.92,-141.12 29.92,-141.12 72.08,-141.12 72.08,-141.12 75.04,-141.12 78,-144.08 78,-147.04 78,-147.04 78,-152.96 78,-152.96 78,-155.92 75.04,-158.88 72.08,-158.88"/>
<text text-anchor="start" x="34.12" y="-146.32" font-family="Helvetica,sans-Serif" font-size="9.00">entry.tsx</text>
</a>
</g>
</g>
<!-- src/app/entry.tsx&#45;&gt;src/app/entry.css -->
<g id="edge1" class="edge">
<title>src/app/entry.tsx&#45;&gt;src/app/entry.css</title>
<path fill="none" stroke="#000000" stroke-width="2" stroke-opacity="0.200000" d="M78.43,-144.15C88.81,-141.85 100.88,-139.18 111.96,-136.73"/>
<polygon fill="#000000" fill-opacity="0.200000" stroke="#000000" stroke-width="2" stroke-opacity="0.200000" points="112.23,-138.82 117.63,-135.47 111.32,-134.72 112.23,-138.82"/>
</g>
<!-- src/app/providers/router/RouterProvider.tsx -->
<g id="node3" class="node">
<title>src/app/providers/router/RouterProvider.tsx</title>
<g id="a_node3"><a xlink:href="src/app/providers/router/RouterProvider.tsx" xlink:title="RouterProvider.tsx">
<path fill="#bbfeff" stroke="black" d="M187.83,-179.88C187.83,-179.88 107.92,-179.88 107.92,-179.88 104.96,-179.88 102,-176.92 102,-173.96 102,-173.96 102,-168.04 102,-168.04 102,-165.08 104.96,-162.12 107.92,-162.12 107.92,-162.12 187.83,-162.12 187.83,-162.12 190.79,-162.12 193.75,-165.08 193.75,-168.04 193.75,-168.04 193.75,-173.96 193.75,-173.96 193.75,-176.92 190.79,-179.88 187.83,-179.88"/>
<text text-anchor="start" x="110" y="-167.32" font-family="Helvetica,sans-Serif" font-size="9.00">RouterProvider.tsx</text>
</a>
</g>
</g>
<!-- src/app/entry.tsx&#45;&gt;src/app/providers/router/RouterProvider.tsx -->
<g id="edge2" class="edge">
<title>src/app/entry.tsx&#45;&gt;src/app/providers/router/RouterProvider.tsx</title>
<path fill="none" stroke="#000000" stroke-width="2" stroke-opacity="0.200000" d="M78.35,-156.26C80.93,-156.85 83.51,-157.44 86,-158 88.6,-158.58 91.27,-159.18 93.97,-159.77"/>
<polygon fill="#000000" fill-opacity="0.200000" stroke="#000000" stroke-width="2" stroke-opacity="0.200000" points="93.36,-161.79 99.67,-161.02 94.26,-157.68 93.36,-161.79"/>
</g>
<!-- src/app/providers/layout/BaseLayoutProvider.tsx -->
<g id="node4" class="node">
<title>src/app/providers/layout/BaseLayoutProvider.tsx</title>
<g id="a_node4"><a xlink:href="src/app/providers/layout/BaseLayoutProvider.tsx" xlink:title="BaseLayoutProvider.tsx">
<path fill="#bbfeff" stroke="black" d="M324.58,-179.88C324.58,-179.88 223.67,-179.88 223.67,-179.88 220.71,-179.88 217.75,-176.92 217.75,-173.96 217.75,-173.96 217.75,-168.04 217.75,-168.04 217.75,-165.08 220.71,-162.12 223.67,-162.12 223.67,-162.12 324.58,-162.12 324.58,-162.12 327.54,-162.12 330.5,-165.08 330.5,-168.04 330.5,-168.04 330.5,-173.96 330.5,-173.96 330.5,-176.92 327.54,-179.88 324.58,-179.88"/>
<text text-anchor="start" x="225.75" y="-167.32" font-family="Helvetica,sans-Serif" font-size="9.00">BaseLayoutProvider.tsx</text>
</a>
</g>
</g>
<!-- src/app/providers/router/RouterProvider.tsx&#45;&gt;src/app/providers/layout/BaseLayoutProvider.tsx -->
<g id="edge5" class="edge">
<title>src/app/providers/router/RouterProvider.tsx&#45;&gt;src/app/providers/layout/BaseLayoutProvider.tsx</title>
<path fill="none" stroke="#000000" stroke-width="2" stroke-opacity="0.200000" d="M194.08,-171C198.85,-171 203.77,-171 208.7,-171"/>
<polygon fill="#000000" fill-opacity="0.200000" stroke="#000000" stroke-width="2" stroke-opacity="0.200000" points="208.55,-173.1 214.55,-171 208.55,-168.9 208.55,-173.1"/>
</g>
<!-- src/pages/home/index.ts -->
<g id="node7" class="node">
<title>src/pages/home/index.ts</title>
<g id="a_node7"><a xlink:href="src/pages/home/index.ts" xlink:title="index.ts">
<path fill="#ddfeff" stroke="black" d="M295.21,-305.88C295.21,-305.88 253.04,-305.88 253.04,-305.88 250.08,-305.88 247.12,-302.92 247.12,-299.96 247.12,-299.96 247.12,-294.04 247.12,-294.04 247.12,-291.08 250.08,-288.12 253.04,-288.12 253.04,-288.12 295.21,-288.12 295.21,-288.12 298.17,-288.12 301.12,-291.08 301.12,-294.04 301.12,-294.04 301.12,-299.96 301.12,-299.96 301.12,-302.92 298.17,-305.88 295.21,-305.88"/>
<text text-anchor="start" x="258.38" y="-293.32" font-family="Helvetica,sans-Serif" font-size="9.00">index.ts</text>
</a>
</g>
</g>
<!-- src/app/providers/router/RouterProvider.tsx&#45;&gt;src/pages/home/index.ts -->
<g id="edge6" class="edge">
<title>src/app/providers/router/RouterProvider.tsx&#45;&gt;src/pages/home/index.ts</title>
<path fill="none" stroke="#000000" stroke-width="2" stroke-opacity="0.200000" d="M157.81,-180.06C178.84,-201.39 231.66,-254.96 257.88,-281.54"/>
<polygon fill="#000000" fill-opacity="0.200000" stroke="#000000" stroke-width="2" stroke-opacity="0.200000" points="256.1,-282.73 261.81,-285.53 259.09,-279.78 256.1,-282.73"/>
</g>
<!-- src/pages/login/index.ts -->
<g id="node8" class="node">
<title>src/pages/login/index.ts</title>
<g id="a_node8"><a xlink:href="src/pages/login/index.ts" xlink:title="index.ts">
<path fill="#ddfeff" stroke="black" d="M295.21,-399.88C295.21,-399.88 253.04,-399.88 253.04,-399.88 250.08,-399.88 247.12,-396.92 247.12,-393.96 247.12,-393.96 247.12,-388.04 247.12,-388.04 247.12,-385.08 250.08,-382.12 253.04,-382.12 253.04,-382.12 295.21,-382.12 295.21,-382.12 298.17,-382.12 301.12,-385.08 301.12,-388.04 301.12,-388.04 301.12,-393.96 301.12,-393.96 301.12,-396.92 298.17,-399.88 295.21,-399.88"/>
<text text-anchor="start" x="258.38" y="-387.32" font-family="Helvetica,sans-Serif" font-size="9.00">index.ts</text>
</a>
</g>
</g>
<!-- src/app/providers/router/RouterProvider.tsx&#45;&gt;src/pages/login/index.ts -->
<g id="edge7" class="edge">
<title>src/app/providers/router/RouterProvider.tsx&#45;&gt;src/pages/login/index.ts</title>
<path fill="none" stroke="#000000" stroke-width="2" stroke-opacity="0.200000" d="M149.11,-180.03C150.37,-210.26 158.42,-309.1 209.75,-365 217.29,-373.21 227.81,-378.9 238.11,-382.8"/>
<polygon fill="#000000" fill-opacity="0.200000" stroke="#000000" stroke-width="2" stroke-opacity="0.200000" points="237.42,-384.79 243.77,-384.72 238.76,-380.81 237.42,-384.79"/>
</g>
<!-- src/pages/profile/index.ts -->
<g id="node9" class="node">
<title>src/pages/profile/index.ts</title>
<g id="a_node9"><a xlink:href="src/pages/profile/index.ts" xlink:title="index.ts">
<path fill="#ddfeff" stroke="black" d="M295.21,-493.88C295.21,-493.88 253.04,-493.88 253.04,-493.88 250.08,-493.88 247.12,-490.92 247.12,-487.96 247.12,-487.96 247.12,-482.04 247.12,-482.04 247.12,-479.08 250.08,-476.12 253.04,-476.12 253.04,-476.12 295.21,-476.12 295.21,-476.12 298.17,-476.12 301.12,-479.08 301.12,-482.04 301.12,-482.04 301.12,-487.96 301.12,-487.96 301.12,-490.92 298.17,-493.88 295.21,-493.88"/>
<text text-anchor="start" x="258.38" y="-481.32" font-family="Helvetica,sans-Serif" font-size="9.00">index.ts</text>
</a>
</g>
</g>
<!-- src/app/providers/router/RouterProvider.tsx&#45;&gt;src/pages/profile/index.ts -->
<g id="edge8" class="edge">
<title>src/app/providers/router/RouterProvider.tsx&#45;&gt;src/pages/profile/index.ts</title>
<path fill="none" stroke="#000000" stroke-width="2" stroke-opacity="0.200000" d="M149.66,-180.11C153.64,-224.15 172.77,-414.64 209.75,-459 217.08,-467.79 227.86,-473.65 238.46,-477.54"/>
<polygon fill="#000000" fill-opacity="0.200000" stroke="#000000" stroke-width="2" stroke-opacity="0.200000" points="237.61,-479.47 243.97,-479.32 238.9,-475.47 237.61,-479.47"/>
</g>
<!-- src/shared/ui/EmptyLayout.tsx -->
<g id="node10" class="node">
<title>src/shared/ui/EmptyLayout.tsx</title>
<g id="a_node10"><a xlink:href="src/shared/ui/EmptyLayout.tsx" xlink:title="EmptyLayout.tsx">
<path fill="#bbfeff" stroke="black" d="M455.33,-207.88C455.33,-207.88 384.42,-207.88 384.42,-207.88 381.46,-207.88 378.5,-204.92 378.5,-201.96 378.5,-201.96 378.5,-196.04 378.5,-196.04 378.5,-193.08 381.46,-190.12 384.42,-190.12 384.42,-190.12 455.33,-190.12 455.33,-190.12 458.29,-190.12 461.25,-193.08 461.25,-196.04 461.25,-196.04 461.25,-201.96 461.25,-201.96 461.25,-204.92 458.29,-207.88 455.33,-207.88"/>
<text text-anchor="start" x="386.5" y="-195.32" font-family="Helvetica,sans-Serif" font-size="9.00">EmptyLayout.tsx</text>
</a>
</g>
</g>
<!-- src/app/providers/router/RouterProvider.tsx&#45;&gt;src/shared/ui/EmptyLayout.tsx -->
<g id="edge9" class="edge">
<title>src/app/providers/router/RouterProvider.tsx&#45;&gt;src/shared/ui/EmptyLayout.tsx</title>
<path fill="none" stroke="#000000" stroke-width="2" stroke-opacity="0.200000" d="M159.62,-180.36C171.12,-189.7 190.35,-203.44 209.75,-209 263.25,-224.33 327.56,-217.74 370.61,-209.98"/>
<polygon fill="#000000" fill-opacity="0.200000" stroke="#000000" stroke-width="2" stroke-opacity="0.200000" points="370.98,-212.04 376.49,-208.87 370.2,-207.92 370.98,-212.04"/>
</g>
<!-- src/shared/ui/Layout.tsx -->
<g id="node5" class="node">
<title>src/shared/ui/Layout.tsx</title>
<g id="a_node5"><a xlink:href="src/shared/ui/Layout.tsx" xlink:title="Layout.tsx">
<path fill="#bbfeff" stroke="black" d="M442.58,-177.88C442.58,-177.88 397.17,-177.88 397.17,-177.88 394.21,-177.88 391.25,-174.92 391.25,-171.96 391.25,-171.96 391.25,-166.04 391.25,-166.04 391.25,-163.08 394.21,-160.12 397.17,-160.12 397.17,-160.12 442.58,-160.12 442.58,-160.12 445.54,-160.12 448.5,-163.08 448.5,-166.04 448.5,-166.04 448.5,-171.96 448.5,-171.96 448.5,-174.92 445.54,-177.88 442.58,-177.88"/>
<text text-anchor="start" x="399.25" y="-165.32" font-family="Helvetica,sans-Serif" font-size="9.00">Layout.tsx</text>
</a>
</g>
</g>
<!-- src/app/providers/layout/BaseLayoutProvider.tsx&#45;&gt;src/shared/ui/Layout.tsx -->
<g id="edge3" class="edge">
<title>src/app/providers/layout/BaseLayoutProvider.tsx&#45;&gt;src/shared/ui/Layout.tsx</title>
<path fill="none" stroke="#000000" stroke-width="2" stroke-opacity="0.200000" d="M330.7,-170.23C347.87,-169.99 366.36,-169.73 381.94,-169.51"/>
<polygon fill="#000000" fill-opacity="0.200000" stroke="#000000" stroke-width="2" stroke-opacity="0.200000" points="381.75,-171.62 387.72,-169.43 381.7,-167.42 381.75,-171.62"/>
</g>
<!-- src/widgets/UserBar/index.ts -->
<g id="node6" class="node">
<title>src/widgets/UserBar/index.ts</title>
<g id="a_node6"><a xlink:href="src/widgets/UserBar/index.ts" xlink:title="index.ts">
<path fill="#ddfeff" stroke="black" d="M440.96,-70.88C440.96,-70.88 398.79,-70.88 398.79,-70.88 395.83,-70.88 392.88,-67.92 392.88,-64.96 392.88,-64.96 392.88,-59.04 392.88,-59.04 392.88,-56.08 395.83,-53.12 398.79,-53.12 398.79,-53.12 440.96,-53.12 440.96,-53.12 443.92,-53.12 446.88,-56.08 446.88,-59.04 446.88,-59.04 446.88,-64.96 446.88,-64.96 446.88,-67.92 443.92,-70.88 440.96,-70.88"/>
<text text-anchor="start" x="404.12" y="-58.33" font-family="Helvetica,sans-Serif" font-size="9.00">index.ts</text>
</a>
</g>
</g>
<!-- src/app/providers/layout/BaseLayoutProvider.tsx&#45;&gt;src/widgets/UserBar/index.ts -->
<g id="edge4" class="edge">
<title>src/app/providers/layout/BaseLayoutProvider.tsx&#45;&gt;src/widgets/UserBar/index.ts</title>
<path fill="none" stroke="#000000" stroke-width="2" stroke-opacity="0.200000" d="M287.38,-161.71C312.42,-142.72 369.6,-99.36 399.63,-76.59"/>
<polygon fill="#000000" fill-opacity="0.200000" stroke="#000000" stroke-width="2" stroke-opacity="0.200000" points="400.73,-78.4 404.24,-73.1 398.19,-75.05 400.73,-78.4"/>
</g>
<!-- src/widgets/UserBar/ui/UserBar.tsx -->
<g id="node15" class="node">
<title>src/widgets/UserBar/ui/UserBar.tsx</title>
<g id="a_node15"><a xlink:href="src/widgets/UserBar/ui/UserBar.tsx" xlink:title="UserBar.tsx">
<path fill="#bbfeff" stroke="black" d="M550.58,-57.88C550.58,-57.88 499.17,-57.88 499.17,-57.88 496.21,-57.88 493.25,-54.92 493.25,-51.96 493.25,-51.96 493.25,-46.04 493.25,-46.04 493.25,-43.08 496.21,-40.12 499.17,-40.12 499.17,-40.12 550.58,-40.12 550.58,-40.12 553.54,-40.12 556.5,-43.08 556.5,-46.04 556.5,-46.04 556.5,-51.96 556.5,-51.96 556.5,-54.92 553.54,-57.88 550.58,-57.88"/>
<text text-anchor="start" x="501.25" y="-45.33" font-family="Helvetica,sans-Serif" font-size="9.00">UserBar.tsx</text>
</a>
</g>
</g>
<!-- src/widgets/UserBar/index.ts&#45;&gt;src/widgets/UserBar/ui/UserBar.tsx -->
<g id="edge14" class="edge">
<title>src/widgets/UserBar/index.ts&#45;&gt;src/widgets/UserBar/ui/UserBar.tsx</title>
<path fill="none" stroke="#000000" stroke-width="2" stroke-opacity="0.200000" d="M447.13,-58.69C458.9,-57.2 473,-55.42 485.89,-53.79"/>
<polygon fill="#000000" fill-opacity="0.200000" stroke="#000000" stroke-width="2" stroke-opacity="0.200000" points="492.18,-55.12 485.96,-53.79 491.65,-50.95 492.18,-55.12"/>
</g>
<!-- src/pages/home/ui/Page.tsx -->
<g id="node11" class="node">
<title>src/pages/home/ui/Page.tsx</title>
<g id="a_node11"><a xlink:href="src/pages/home/ui/Page.tsx" xlink:title="Page.tsx">
<path fill="#bbfeff" stroke="black" d="M440.96,-309.88C440.96,-309.88 398.79,-309.88 398.79,-309.88 395.83,-309.88 392.88,-306.92 392.88,-303.96 392.88,-303.96 392.88,-298.04 392.88,-298.04 392.88,-295.08 395.83,-292.12 398.79,-292.12 398.79,-292.12 440.96,-292.12 440.96,-292.12 443.92,-292.12 446.88,-295.08 446.88,-298.04 446.88,-298.04 446.88,-303.96 446.88,-303.96 446.88,-306.92 443.92,-309.88 440.96,-309.88"/>
<text text-anchor="start" x="402.25" y="-297.32" font-family="Helvetica,sans-Serif" font-size="9.00">Page.tsx</text>
</a>
</g>
</g>
<!-- src/pages/home/index.ts&#45;&gt;src/pages/home/ui/Page.tsx -->
<g id="edge10" class="edge">
<title>src/pages/home/index.ts&#45;&gt;src/pages/home/ui/Page.tsx</title>
<path fill="none" stroke="#000000" stroke-width="2" stroke-opacity="0.200000" d="M301.49,-297.73C325.2,-298.39 360.13,-299.37 385.72,-300.08"/>
<polygon fill="#000000" fill-opacity="0.200000" stroke="#000000" stroke-width="2" stroke-opacity="0.200000" points="391.62,-302.34 385.68,-300.08 391.74,-298.14 391.62,-302.34"/>
</g>
<!-- src/pages/login/ui/Page.tsx -->
<g id="node12" class="node">
<title>src/pages/login/ui/Page.tsx</title>
<g id="a_node12"><a xlink:href="src/pages/login/ui/Page.tsx" xlink:title="Page.tsx">
<path fill="#bbfeff" stroke="black" d="M440.96,-403.88C440.96,-403.88 398.79,-403.88 398.79,-403.88 395.83,-403.88 392.88,-400.92 392.88,-397.96 392.88,-397.96 392.88,-392.04 392.88,-392.04 392.88,-389.08 395.83,-386.12 398.79,-386.12 398.79,-386.12 440.96,-386.12 440.96,-386.12 443.92,-386.12 446.88,-389.08 446.88,-392.04 446.88,-392.04 446.88,-397.96 446.88,-397.96 446.88,-400.92 443.92,-403.88 440.96,-403.88"/>
<text text-anchor="start" x="402.25" y="-391.32" font-family="Helvetica,sans-Serif" font-size="9.00">Page.tsx</text>
</a>
</g>
</g>
<!-- src/pages/login/index.ts&#45;&gt;src/pages/login/ui/Page.tsx -->
<g id="edge11" class="edge">
<title>src/pages/login/index.ts&#45;&gt;src/pages/login/ui/Page.tsx</title>
<path fill="none" stroke="#000000" stroke-width="2" stroke-opacity="0.200000" d="M301.49,-391.73C325.2,-392.39 360.13,-393.37 385.72,-394.08"/>
<polygon fill="#000000" fill-opacity="0.200000" stroke="#000000" stroke-width="2" stroke-opacity="0.200000" points="391.62,-396.34 385.68,-394.08 391.74,-392.14 391.62,-396.34"/>
</g>
<!-- src/pages/profile/ui/Page.tsx -->
<g id="node14" class="node">
<title>src/pages/profile/ui/Page.tsx</title>
<g id="a_node14"><a xlink:href="src/pages/profile/ui/Page.tsx" xlink:title="Page.tsx">
<path fill="#bbfeff" stroke="black" d="M440.96,-497.88C440.96,-497.88 398.79,-497.88 398.79,-497.88 395.83,-497.88 392.88,-494.92 392.88,-491.96 392.88,-491.96 392.88,-486.04 392.88,-486.04 392.88,-483.08 395.83,-480.12 398.79,-480.12 398.79,-480.12 440.96,-480.12 440.96,-480.12 443.92,-480.12 446.88,-483.08 446.88,-486.04 446.88,-486.04 446.88,-491.96 446.88,-491.96 446.88,-494.92 443.92,-497.88 440.96,-497.88"/>
<text text-anchor="start" x="402.25" y="-485.32" font-family="Helvetica,sans-Serif" font-size="9.00">Page.tsx</text>
</a>
</g>
</g>
<!-- src/pages/profile/index.ts&#45;&gt;src/pages/profile/ui/Page.tsx -->
<g id="edge13" class="edge">
<title>src/pages/profile/index.ts&#45;&gt;src/pages/profile/ui/Page.tsx</title>
<path fill="none" stroke="#000000" stroke-width="2" stroke-opacity="0.200000" d="M301.49,-485.73C325.2,-486.39 360.13,-487.37 385.72,-488.08"/>
<polygon fill="#000000" fill-opacity="0.200000" stroke="#000000" stroke-width="2" stroke-opacity="0.200000" points="391.62,-490.34 385.68,-488.08 391.74,-486.14 391.62,-490.34"/>
</g>
<!-- src/pages/login/ui/LoginForm.tsx -->
<g id="node13" class="node">
<title>src/pages/login/ui/LoginForm.tsx</title>
<g id="a_node13"><a xlink:href="src/pages/login/ui/LoginForm.tsx" xlink:title="LoginForm.tsx">
<path fill="#bbfeff" stroke="black" d="M555.83,-403.88C555.83,-403.88 493.92,-403.88 493.92,-403.88 490.96,-403.88 488,-400.92 488,-397.96 488,-397.96 488,-392.04 488,-392.04 488,-389.08 490.96,-386.12 493.92,-386.12 493.92,-386.12 555.83,-386.12 555.83,-386.12 558.79,-386.12 561.75,-389.08 561.75,-392.04 561.75,-392.04 561.75,-397.96 561.75,-397.96 561.75,-400.92 558.79,-403.88 555.83,-403.88"/>
<text text-anchor="start" x="496" y="-391.32" font-family="Helvetica,sans-Serif" font-size="9.00">LoginForm.tsx</text>
</a>
</g>
</g>
<!-- src/pages/login/ui/Page.tsx&#45;&gt;src/pages/login/ui/LoginForm.tsx -->
<g id="edge12" class="edge">
<title>src/pages/login/ui/Page.tsx&#45;&gt;src/pages/login/ui/LoginForm.tsx</title>
<path fill="none" stroke="#000000" stroke-width="2" stroke-opacity="0.200000" d="M447.13,-395C456.72,-395 467.87,-395 478.64,-395"/>
<polygon fill="#000000" fill-opacity="0.200000" stroke="#000000" stroke-width="2" stroke-opacity="0.200000" points="478.54,-397.1 484.54,-395 478.54,-392.9 478.54,-397.1"/>
</g>
</g>
</svg>
