<?xml version="1.0" encoding="UTF-8" standalone="no"?>
<!DOCTYPE svg PUBLIC "-//W3C//DTD SVG 1.1//EN"
 "http://www.w3.org/Graphics/SVG/1.1/DTD/svg11.dtd">
<!-- Generated by graphviz version 12.0.0 (20240704.0754)
 -->
<!-- Title: dependency&#45;cruiser output Pages: 1 -->
<svg width="615pt" height="618pt"
 viewBox="0.00 0.00 615.12 618.00" xmlns="http://www.w3.org/2000/svg" xmlns:xlink="http://www.w3.org/1999/xlink">
<g id="graph0" class="graph" transform="scale(1 1) rotate(0) translate(4 614)">
<title>dependency&#45;cruiser output</title>
<polygon fill="white" stroke="none" points="-4,4 -4,-614 611.12,-614 611.12,4 -4,4"/>
<g id="clust1" class="cluster">
<title>cluster_src</title>
<path fill="#ffffff" stroke="black" stroke-width="2" d="M20,-8C20,-8 587.12,-8 587.12,-8 593.12,-8 599.12,-14 599.12,-20 599.12,-20 599.12,-590 599.12,-590 599.12,-596 593.12,-602 587.12,-602 587.12,-602 20,-602 20,-602 14,-602 8,-596 8,-590 8,-590 8,-20 8,-20 8,-14 14,-8 20,-8"/>
<text text-anchor="middle" x="303.56" y="-589.45" font-family="Helvetica,sans-Serif" font-weight="bold" font-size="9.00">src</text>
</g>
<g id="clust2" class="cluster">
<title>cluster_src/app</title>
<path fill="#ffffff" stroke="black" stroke-width="2" d="M28,-112C28,-112 347.88,-112 347.88,-112 353.88,-112 359.88,-118 359.88,-124 359.88,-124 359.88,-246 359.88,-246 359.88,-252 353.88,-258 347.88,-258 347.88,-258 28,-258 28,-258 22,-258 16,-252 16,-246 16,-246 16,-124 16,-124 16,-118 22,-112 28,-112"/>
<text text-anchor="middle" x="187.94" y="-245.45" font-family="Helvetica,sans-Serif" font-weight="bold" font-size="9.00">app</text>
</g>
<g id="clust3" class="cluster">
<title>cluster_src/app/providers</title>
<path fill="#ffffff" stroke="black" stroke-width="2" d="M103.38,-146C103.38,-146 339.88,-146 339.88,-146 345.88,-146 351.88,-152 351.88,-158 351.88,-158 351.88,-220 351.88,-220 351.88,-226 345.88,-232 339.88,-232 339.88,-232 103.37,-232 103.37,-232 97.38,-232 91.38,-226 91.38,-220 91.38,-220 91.38,-158 91.38,-158 91.38,-152 97.38,-146 103.38,-146"/>
<text text-anchor="middle" x="221.62" y="-219.45" font-family="Helvetica,sans-Serif" font-weight="bold" font-size="9.00">providers</text>
</g>
<g id="clust4" class="cluster">
<title>cluster_src/app/providers/layout</title>
<path fill="#ffffff" stroke="black" stroke-width="2" d="M227.12,-154C227.12,-154 331.88,-154 331.88,-154 337.88,-154 343.88,-160 343.88,-166 343.88,-166 343.88,-194 343.88,-194 343.88,-200 337.88,-206 331.88,-206 331.88,-206 227.12,-206 227.12,-206 221.12,-206 215.12,-200 215.12,-194 215.12,-194 215.12,-166 215.12,-166 215.12,-160 221.12,-154 227.12,-154"/>
<text text-anchor="middle" x="279.5" y="-193.45" font-family="Helvetica,sans-Serif" font-weight="bold" font-size="9.00">layout</text>
</g>
<g id="clust5" class="cluster">
<title>cluster_src/app/providers/router</title>
<path fill="#ffffff" stroke="black" stroke-width="2" d="M111.38,-154C111.38,-154 195.12,-154 195.12,-154 201.12,-154 207.12,-160 207.12,-166 207.12,-166 207.12,-194 207.12,-194 207.12,-200 201.12,-206 195.12,-206 195.12,-206 111.38,-206 111.38,-206 105.38,-206 99.38,-200 99.38,-194 99.38,-194 99.38,-166 99.38,-166 99.38,-160 105.38,-154 111.38,-154"/>
<text text-anchor="middle" x="153.25" y="-193.45" font-family="Helvetica,sans-Serif" font-weight="bold" font-size="9.00">router</text>
</g>
<g id="clust6" class="cluster">
<title>cluster_src/pages</title>
<path fill="#ffffff" stroke="black" stroke-width="2" d="M248.5,-268C248.5,-268 579.12,-268 579.12,-268 585.12,-268 591.12,-274 591.12,-280 591.12,-280 591.12,-564 591.12,-564 591.12,-570 585.12,-576 579.12,-576 579.12,-576 248.5,-576 248.5,-576 242.5,-576 236.5,-570 236.5,-564 236.5,-564 236.5,-280 236.5,-280 236.5,-274 242.5,-268 248.5,-268"/>
<text text-anchor="middle" x="413.81" y="-563.45" font-family="Helvetica,sans-Serif" font-weight="bold" font-size="9.00">pages</text>
</g>
<g id="clust7" class="cluster">
<title>cluster_src/pages/home</title>
<path fill="#ffffff" stroke="black" stroke-width="2" d="M256.5,-276C256.5,-276 456.25,-276 456.25,-276 462.25,-276 468.25,-282 468.25,-288 468.25,-288 468.25,-350 468.25,-350 468.25,-356 462.25,-362 456.25,-362 456.25,-362 256.5,-362 256.5,-362 250.5,-362 244.5,-356 244.5,-350 244.5,-350 244.5,-288 244.5,-288 244.5,-282 250.5,-276 256.5,-276"/>
<text text-anchor="middle" x="356.38" y="-349.45" font-family="Helvetica,sans-Serif" font-weight="bold" font-size="9.00">home</text>
</g>
<g id="clust8" class="cluster">
<title>cluster_src/pages/home/ui</title>
<path fill="#ffffff" stroke="black" stroke-width="2" d="M402.25,-284C402.25,-284 448.25,-284 448.25,-284 454.25,-284 460.25,-290 460.25,-296 460.25,-296 460.25,-324 460.25,-324 460.25,-330 454.25,-336 448.25,-336 448.25,-336 402.25,-336 402.25,-336 396.25,-336 390.25,-330 390.25,-324 390.25,-324 390.25,-296 390.25,-296 390.25,-290 396.25,-284 402.25,-284"/>
<text text-anchor="middle" x="425.25" y="-323.45" font-family="Helvetica,sans-Serif" font-weight="bold" font-size="9.00">ui</text>
</g>
<g id="clust9" class="cluster">
<title>cluster_src/pages/login</title>
<path fill="#ffffff" stroke="black" stroke-width="2" d="M256.5,-370C256.5,-370 571.12,-370 571.12,-370 577.12,-370 583.12,-376 583.12,-382 583.12,-382 583.12,-444 583.12,-444 583.12,-450 577.12,-456 571.12,-456 571.12,-456 256.5,-456 256.5,-456 250.5,-456 244.5,-450 244.5,-444 244.5,-444 244.5,-382 244.5,-382 244.5,-376 250.5,-370 256.5,-370"/>
<text text-anchor="middle" x="413.81" y="-443.45" font-family="Helvetica,sans-Serif" font-weight="bold" font-size="9.00">login</text>
</g>
<g id="clust10" class="cluster">
<title>cluster_src/pages/login/ui</title>
<path fill="#ffffff" stroke="black" stroke-width="2" d="M402.25,-378C402.25,-378 563.12,-378 563.12,-378 569.12,-378 575.12,-384 575.12,-390 575.12,-390 575.12,-418 575.12,-418 575.12,-424 569.12,-430 563.12,-430 563.12,-430 402.25,-430 402.25,-430 396.25,-430 390.25,-424 390.25,-418 390.25,-418 390.25,-390 390.25,-390 390.25,-384 396.25,-378 402.25,-378"/>
<text text-anchor="middle" x="482.69" y="-417.45" font-family="Helvetica,sans-Serif" font-weight="bold" font-size="9.00">ui</text>
</g>
<g id="clust11" class="cluster">
<title>cluster_src/pages/profile</title>
<path fill="#ffffff" stroke="black" stroke-width="2" d="M256.5,-464C256.5,-464 456.25,-464 456.25,-464 462.25,-464 468.25,-470 468.25,-476 468.25,-476 468.25,-538 468.25,-538 468.25,-544 462.25,-550 456.25,-550 456.25,-550 256.5,-550 256.5,-550 250.5,-550 244.5,-544 244.5,-538 244.5,-538 244.5,-476 244.5,-476 244.5,-470 250.5,-464 256.5,-464"/>
<text text-anchor="middle" x="356.38" y="-537.45" font-family="Helvetica,sans-Serif" font-weight="bold" font-size="9.00">profile</text>
</g>
<g id="clust12" class="cluster">
<title>cluster_src/pages/profile/ui</title>
<path fill="#ffffff" stroke="black" stroke-width="2" d="M402.25,-472C402.25,-472 448.25,-472 448.25,-472 454.25,-472 460.25,-478 460.25,-484 460.25,-484 460.25,-512 460.25,-512 460.25,-518 454.25,-524 448.25,-524 448.25,-524 402.25,-524 402.25,-524 396.25,-524 390.25,-518 390.25,-512 390.25,-512 390.25,-484 390.25,-484 390.25,-478 396.25,-472 402.25,-472"/>
<text text-anchor="middle" x="425.25" y="-511.45" font-family="Helvetica,sans-Serif" font-weight="bold" font-size="9.00">ui</text>
</g>
<g id="clust13" class="cluster">
<title>cluster_src/shared</title>
<path fill="#ffffff" stroke="black" stroke-width="2" d="M379.88,-144C379.88,-144 470.62,-144 470.62,-144 476.62,-144 482.62,-150 482.62,-156 482.62,-156 482.62,-248 482.62,-248 482.62,-254 476.62,-260 470.62,-260 470.62,-260 379.88,-260 379.88,-260 373.88,-260 367.88,-254 367.88,-248 367.88,-248 367.88,-156 367.88,-156 367.88,-150 373.88,-144 379.88,-144"/>
<text text-anchor="middle" x="425.25" y="-247.45" font-family="Helvetica,sans-Serif" font-weight="bold" font-size="9.00">shared</text>
</g>
<g id="clust14" class="cluster">
<title>cluster_src/shared/ui</title>
<path fill="#ffffff" stroke="black" stroke-width="2" d="M387.88,-152C387.88,-152 462.62,-152 462.62,-152 468.62,-152 474.62,-158 474.62,-164 474.62,-164 474.62,-222 474.62,-222 474.62,-228 468.62,-234 462.62,-234 462.62,-234 387.88,-234 387.88,-234 381.88,-234 375.88,-228 375.88,-222 375.88,-222 375.88,-164 375.88,-164 375.88,-158 381.88,-152 387.88,-152"/>
<text text-anchor="middle" x="425.25" y="-221.45" font-family="Helvetica,sans-Serif" font-weight="bold" font-size="9.00">ui</text>
</g>
<g id="clust15" class="cluster">
<title>cluster_src/widgets</title>
<path fill="#ffffff" stroke="black" stroke-width="2" d="M394.25,-16C394.25,-16 573.88,-16 573.88,-16 579.88,-16 585.88,-22 585.88,-28 585.88,-28 585.88,-124 585.88,-124 585.88,-130 579.88,-136 573.88,-136 573.88,-136 394.25,-136 394.25,-136 388.25,-136 382.25,-130 382.25,-124 382.25,-124 382.25,-28 382.25,-28 382.25,-22 388.25,-16 394.25,-16"/>
<text text-anchor="middle" x="484.06" y="-123.45" font-family="Helvetica,sans-Serif" font-weight="bold" font-size="9.00">widgets</text>
</g>
<g id="clust16" class="cluster">
<title>cluster_src/widgets/UserBar</title>
<path fill="#ffffff" stroke="black" stroke-width="2" d="M402.25,-24C402.25,-24 565.88,-24 565.88,-24 571.88,-24 577.88,-30 577.88,-36 577.88,-36 577.88,-98 577.88,-98 577.88,-104 571.88,-110 565.88,-110 565.88,-110 402.25,-110 402.25,-110 396.25,-110 390.25,-104 390.25,-98 390.25,-98 390.25,-36 390.25,-36 390.25,-30 396.25,-24 402.25,-24"/>
<text text-anchor="middle" x="484.06" y="-97.45" font-family="Helvetica,sans-Serif" font-weight="bold" font-size="9.00">UserBar</text>
</g>
<g id="clust17" class="cluster">
<title>cluster_src/widgets/UserBar/ui</title>
<path fill="#ffffff" stroke="black" stroke-width="2" d="M502.62,-32C502.62,-32 557.88,-32 557.88,-32 563.88,-32 569.88,-38 569.88,-44 569.88,-44 569.88,-72 569.88,-72 569.88,-78 563.88,-84 557.88,-84 557.88,-84 502.62,-84 502.62,-84 496.62,-84 490.62,-78 490.62,-72 490.62,-72 490.62,-44 490.62,-44 490.62,-38 496.62,-32 502.62,-32"/>
<text text-anchor="middle" x="530.25" y="-71.45" font-family="Helvetica,sans-Serif" font-weight="bold" font-size="9.00">ui</text>
</g>
<!-- src/app/entry.css -->
<g id="node1" class="node">
<title>src/app/entry.css</title>
<g id="a_node1"><a xlink:href="src/app/entry.css" xlink:title="entry.css">
<path fill="#ffffcc" stroke="black" d="M174.33,-137.88C174.33,-137.88 132.17,-137.88 132.17,-137.88 129.21,-137.88 126.25,-134.92 126.25,-131.96 126.25,-131.96 126.25,-126.04 126.25,-126.04 126.25,-123.08 129.21,-120.12 132.17,-120.12 132.17,-120.12 174.33,-120.12 174.33,-120.12 177.29,-120.12 180.25,-123.08 180.25,-126.04 180.25,-126.04 180.25,-131.96 180.25,-131.96 180.25,-134.92 177.29,-137.88 174.33,-137.88"/>
<text text-anchor="start" x="135.25" y="-125.33" font-family="Helvetica,sans-Serif" font-size="9.00">entry.css</text>
</a>
</g>
</g>
<!-- src/app/entry.tsx -->
<g id="node2" class="node">
<title>src/app/entry.tsx</title>
<g id="a_node2"><a xlink:href="src/app/entry.tsx" xlink:title="entry.tsx">
<path fill="#bbfeff" stroke="black" d="M72.08,-158.88C72.08,-158.88 29.92,-158.88 29.92,-158.88 26.96,-158.88 24,-155.92 24,-152.96 24,-152.96 24,-147.04 24,-147.04 24,-144.08 26.96,-141.12 29.92,-141.12 29.92,-141.12 72.08,-141.12 72.08,-141.12 75.04,-141.12 78,-144.08 78,-147.04 78,-147.04 78,-152.96 78,-152.96 78,-155.92 75.04,-158.88 72.08,-158.88"/>
<text text-anchor="start" x="34.12" y="-146.32" font-family="Helvetica,sans-Serif" font-size="9.00">entry.tsx</text>
</a>
</g>
</g>
<!-- src/app/entry.tsx&#45;&gt;src/app/entry.css -->
<g id="edge1" class="edge">
<title>src/app/entry.tsx&#45;&gt;src/app/entry.css</title>
<path fill="none" stroke="#000000" stroke-width="2" stroke-opacity="0.200000" d="M78.34,-144.48C90.31,-141.97 104.64,-138.97 117.48,-136.28"/>
<polygon fill="#000000" fill-opacity="0.200000" stroke="#000000" stroke-width="2" stroke-opacity="0.200000" points="117.68,-138.39 123.12,-135.1 116.82,-134.28 117.68,-138.39"/>
</g>
<!-- src/app/providers/router/RouterProvider.tsx -->
<g id="node3" class="node">
<title>src/app/providers/router/RouterProvider.tsx</title>
<g id="a_node3"><a xlink:href="src/app/providers/router/RouterProvider.tsx" xlink:title="RouterProvider.tsx">
<path fill="#bbfeff" stroke="black" d="M193.21,-179.88C193.21,-179.88 113.29,-179.88 113.29,-179.88 110.33,-179.88 107.38,-176.92 107.38,-173.96 107.38,-173.96 107.38,-168.04 107.38,-168.04 107.38,-165.08 110.33,-162.12 113.29,-162.12 113.29,-162.12 193.21,-162.12 193.21,-162.12 196.17,-162.12 199.12,-165.08 199.12,-168.04 199.12,-168.04 199.12,-173.96 199.12,-173.96 199.12,-176.92 196.17,-179.88 193.21,-179.88"/>
<text text-anchor="start" x="115.38" y="-167.32" font-family="Helvetica,sans-Serif" font-size="9.00">RouterProvider.tsx</text>
</a>
</g>
</g>
<!-- src/app/entry.tsx&#45;&gt;src/app/providers/router/RouterProvider.tsx -->
<g id="edge2" class="edge">
<title>src/app/entry.tsx&#45;&gt;src/app/providers/router/RouterProvider.tsx</title>
<path fill="none" stroke="#000000" stroke-width="2" stroke-opacity="0.200000" d="M78.34,-155.52C84.84,-156.88 92.04,-158.39 99.32,-159.91"/>
<polygon fill="#000000" fill-opacity="0.200000" stroke="#000000" stroke-width="2" stroke-opacity="0.200000" points="98.6,-161.91 104.91,-161.08 99.46,-157.8 98.6,-161.91"/>
</g>
<!-- src/app/providers/layout/BaseLayoutProvider.tsx -->
<g id="node4" class="node">
<title>src/app/providers/layout/BaseLayoutProvider.tsx</title>
<g id="a_node4"><a xlink:href="src/app/providers/layout/BaseLayoutProvider.tsx" xlink:title="BaseLayoutProvider.tsx">
<path fill="#bbfeff" stroke="black" d="M329.96,-179.88C329.96,-179.88 229.04,-179.88 229.04,-179.88 226.08,-179.88 223.12,-176.92 223.12,-173.96 223.12,-173.96 223.12,-168.04 223.12,-168.04 223.12,-165.08 226.08,-162.12 229.04,-162.12 229.04,-162.12 329.96,-162.12 329.96,-162.12 332.92,-162.12 335.88,-165.08 335.88,-168.04 335.88,-168.04 335.88,-173.96 335.88,-173.96 335.88,-176.92 332.92,-179.88 329.96,-179.88"/>
<text text-anchor="start" x="231.12" y="-167.32" font-family="Helvetica,sans-Serif" font-size="9.00">BaseLayoutProvider.tsx</text>
</a>
</g>
</g>
<!-- src/app/providers/router/RouterProvider.tsx&#45;&gt;src/app/providers/layout/BaseLayoutProvider.tsx -->
<g id="edge5" class="edge">
<title>src/app/providers/router/RouterProvider.tsx&#45;&gt;src/app/providers/layout/BaseLayoutProvider.tsx</title>
<path fill="none" stroke="#000000" stroke-width="2" stroke-opacity="0.200000" d="M199.46,-171C204.23,-171 209.14,-171 214.08,-171"/>
<polygon fill="#000000" fill-opacity="0.200000" stroke="#000000" stroke-width="2" stroke-opacity="0.200000" points="213.92,-173.1 219.92,-171 213.92,-168.9 213.92,-173.1"/>
</g>
<!-- src/pages/home/index.ts -->
<g id="node7" class="node">
<title>src/pages/home/index.ts</title>
<g id="a_node7"><a xlink:href="src/pages/home/index.ts" xlink:title="index.ts">
<path fill="#ddfeff" stroke="black" d="M300.58,-305.88C300.58,-305.88 258.42,-305.88 258.42,-305.88 255.46,-305.88 252.5,-302.92 252.5,-299.96 252.5,-299.96 252.5,-294.04 252.5,-294.04 252.5,-291.08 255.46,-288.12 258.42,-288.12 258.42,-288.12 300.58,-288.12 300.58,-288.12 303.54,-288.12 306.5,-291.08 306.5,-294.04 306.5,-294.04 306.5,-299.96 306.5,-299.96 306.5,-302.92 303.54,-305.88 300.58,-305.88"/>
<text text-anchor="start" x="263.75" y="-293.32" font-family="Helvetica,sans-Serif" font-size="9.00">index.ts</text>
</a>
</g>
</g>
<!-- src/app/providers/router/RouterProvider.tsx&#45;&gt;src/pages/home/index.ts -->
<g id="edge6" class="edge">
<title>src/app/providers/router/RouterProvider.tsx&#45;&gt;src/pages/home/index.ts</title>
<path fill="none" stroke="#000000" stroke-width="2" stroke-opacity="0.200000" d="M163.19,-180.06C184.22,-201.39 237.04,-254.96 263.25,-281.54"/>
<polygon fill="#000000" fill-opacity="0.200000" stroke="#000000" stroke-width="2" stroke-opacity="0.200000" points="261.48,-282.73 267.18,-285.53 264.47,-279.78 261.48,-282.73"/>
</g>
<!-- src/pages/login/index.ts -->
<g id="node8" class="node">
<title>src/pages/login/index.ts</title>
<g id="a_node8"><a xlink:href="src/pages/login/index.ts" xlink:title="index.ts">
<path fill="#ddfeff" stroke="black" d="M300.58,-399.88C300.58,-399.88 258.42,-399.88 258.42,-399.88 255.46,-399.88 252.5,-396.92 252.5,-393.96 252.5,-393.96 252.5,-388.04 252.5,-388.04 252.5,-385.08 255.46,-382.12 258.42,-382.12 258.42,-382.12 300.58,-382.12 300.58,-382.12 303.54,-382.12 306.5,-385.08 306.5,-388.04 306.5,-388.04 306.5,-393.96 306.5,-393.96 306.5,-396.92 303.54,-399.88 300.58,-399.88"/>
<text text-anchor="start" x="263.75" y="-387.32" font-family="Helvetica,sans-Serif" font-size="9.00">index.ts</text>
</a>
</g>
</g>
<!-- src/app/providers/router/RouterProvider.tsx&#45;&gt;src/pages/login/index.ts -->
<g id="edge7" class="edge">
<title>src/app/providers/router/RouterProvider.tsx&#45;&gt;src/pages/login/index.ts</title>
<path fill="none" stroke="#000000" stroke-width="2" stroke-opacity="0.200000" d="M154.48,-180.03C155.75,-210.26 163.8,-309.1 215.12,-365 222.67,-373.21 233.18,-378.9 243.48,-382.8"/>
<polygon fill="#000000" fill-opacity="0.200000" stroke="#000000" stroke-width="2" stroke-opacity="0.200000" points="242.79,-384.79 249.15,-384.72 244.14,-380.81 242.79,-384.79"/>
</g>
<!-- src/pages/profile/index.ts -->
<g id="node9" class="node">
<title>src/pages/profile/index.ts</title>
<g id="a_node9"><a xlink:href="src/pages/profile/index.ts" xlink:title="index.ts">
<path fill="#ddfeff" stroke="black" d="M300.58,-493.88C300.58,-493.88 258.42,-493.88 258.42,-493.88 255.46,-493.88 252.5,-490.92 252.5,-487.96 252.5,-487.96 252.5,-482.04 252.5,-482.04 252.5,-479.08 255.46,-476.12 258.42,-476.12 258.42,-476.12 300.58,-476.12 300.58,-476.12 303.54,-476.12 306.5,-479.08 306.5,-482.04 306.5,-482.04 306.5,-487.96 306.5,-487.96 306.5,-490.92 303.54,-493.88 300.58,-493.88"/>
<text text-anchor="start" x="263.75" y="-481.32" font-family="Helvetica,sans-Serif" font-size="9.00">index.ts</text>
</a>
</g>
</g>
<!-- src/app/providers/router/RouterProvider.tsx&#45;&gt;src/pages/profile/index.ts -->
<g id="edge8" class="edge">
<title>src/app/providers/router/RouterProvider.tsx&#45;&gt;src/pages/profile/index.ts</title>
<path fill="none" stroke="#000000" stroke-width="2" stroke-opacity="0.200000" d="M155.04,-180.11C159.02,-224.15 178.15,-414.64 215.12,-459 222.46,-467.79 233.23,-473.65 243.83,-477.54"/>
<polygon fill="#000000" fill-opacity="0.200000" stroke="#000000" stroke-width="2" stroke-opacity="0.200000" points="242.99,-479.47 249.34,-479.32 244.28,-475.47 242.99,-479.47"/>
</g>
<!-- src/shared/ui/EmptyLayout.tsx -->
<g id="node10" class="node">
<title>src/shared/ui/EmptyLayout.tsx</title>
<g id="a_node10"><a xlink:href="src/shared/ui/EmptyLayout.tsx" xlink:title="EmptyLayout.tsx">
<path fill="#bbfeff" stroke="black" d="M460.71,-207.88C460.71,-207.88 389.79,-207.88 389.79,-207.88 386.83,-207.88 383.88,-204.92 383.88,-201.96 383.88,-201.96 383.88,-196.04 383.88,-196.04 383.88,-193.08 386.83,-190.12 389.79,-190.12 389.79,-190.12 460.71,-190.12 460.71,-190.12 463.67,-190.12 466.62,-193.08 466.62,-196.04 466.62,-196.04 466.62,-201.96 466.62,-201.96 466.62,-204.92 463.67,-207.88 460.71,-207.88"/>
<text text-anchor="start" x="391.88" y="-195.32" font-family="Helvetica,sans-Serif" font-size="9.00">EmptyLayout.tsx</text>
</a>
</g>
</g>
<!-- src/app/providers/router/RouterProvider.tsx&#45;&gt;src/shared/ui/EmptyLayout.tsx -->
<g id="edge9" class="edge">
<title>src/app/providers/router/RouterProvider.tsx&#45;&gt;src/shared/ui/EmptyLayout.tsx</title>
<path fill="none" stroke="#000000" stroke-width="2" stroke-opacity="0.200000" d="M165,-180.36C176.5,-189.7 195.72,-203.44 215.12,-209 268.62,-224.33 332.93,-217.74 375.99,-209.98"/>
<polygon fill="#000000" fill-opacity="0.200000" stroke="#000000" stroke-width="2" stroke-opacity="0.200000" points="376.36,-212.04 381.86,-208.87 375.58,-207.92 376.36,-212.04"/>
</g>
<!-- src/shared/ui/Layout.tsx -->
<g id="node5" class="node">
<title>src/shared/ui/Layout.tsx</title>
<g id="a_node5"><a xlink:href="src/shared/ui/Layout.tsx" xlink:title="Layout.tsx">
<path fill="#bbfeff" stroke="black" d="M447.96,-177.88C447.96,-177.88 402.54,-177.88 402.54,-177.88 399.58,-177.88 396.62,-174.92 396.62,-171.96 396.62,-171.96 396.62,-166.04 396.62,-166.04 396.62,-163.08 399.58,-160.12 402.54,-160.12 402.54,-160.12 447.96,-160.12 447.96,-160.12 450.92,-160.12 453.88,-163.08 453.88,-166.04 453.88,-166.04 453.88,-171.96 453.88,-171.96 453.88,-174.92 450.92,-177.88 447.96,-177.88"/>
<text text-anchor="start" x="404.62" y="-165.32" font-family="Helvetica,sans-Serif" font-size="9.00">Layout.tsx</text>
</a>
</g>
</g>
<!-- src/app/providers/layout/BaseLayoutProvider.tsx&#45;&gt;src/shared/ui/Layout.tsx -->
<g id="edge3" class="edge">
<title>src/app/providers/layout/BaseLayoutProvider.tsx&#45;&gt;src/shared/ui/Layout.tsx</title>
<path fill="none" stroke="#000000" stroke-width="2" stroke-opacity="0.200000" d="M336.08,-170.23C353.25,-169.99 371.73,-169.73 387.32,-169.51"/>
<polygon fill="#000000" fill-opacity="0.200000" stroke="#000000" stroke-width="2" stroke-opacity="0.200000" points="387.13,-171.62 393.1,-169.43 387.07,-167.42 387.13,-171.62"/>
</g>
<!-- src/widgets/UserBar/index.ts -->
<g id="node6" class="node">
<title>src/widgets/UserBar/index.ts</title>
<g id="a_node6"><a xlink:href="src/widgets/UserBar/index.ts" xlink:title="index.ts">
<path fill="#ddfeff" stroke="black" d="M446.33,-70.88C446.33,-70.88 404.17,-70.88 404.17,-70.88 401.21,-70.88 398.25,-67.92 398.25,-64.96 398.25,-64.96 398.25,-59.04 398.25,-59.04 398.25,-56.08 401.21,-53.12 404.17,-53.12 404.17,-53.12 446.33,-53.12 446.33,-53.12 449.29,-53.12 452.25,-56.08 452.25,-59.04 452.25,-59.04 452.25,-64.96 452.25,-64.96 452.25,-67.92 449.29,-70.88 446.33,-70.88"/>
<text text-anchor="start" x="409.5" y="-58.33" font-family="Helvetica,sans-Serif" font-size="9.00">index.ts</text>
</a>
</g>
</g>
<!-- src/app/providers/layout/BaseLayoutProvider.tsx&#45;&gt;src/widgets/UserBar/index.ts -->
<g id="edge4" class="edge">
<title>src/app/providers/layout/BaseLayoutProvider.tsx&#45;&gt;src/widgets/UserBar/index.ts</title>
<path fill="none" stroke="#000000" stroke-width="2" stroke-opacity="0.200000" d="M292.76,-161.71C317.79,-142.72 374.97,-99.36 405.01,-76.59"/>
<polygon fill="#000000" fill-opacity="0.200000" stroke="#000000" stroke-width="2" stroke-opacity="0.200000" points="406.1,-78.4 409.61,-73.1 403.56,-75.05 406.1,-78.4"/>
</g>
<!-- src/widgets/UserBar/ui/UserBar.tsx -->
<g id="node16" class="node">
<title>src/widgets/UserBar/ui/UserBar.tsx</title>
<g id="a_node16"><a xlink:href="src/widgets/UserBar/ui/UserBar.tsx" xlink:title="UserBar.tsx">
<path fill="#bbfeff" stroke="black" d="M555.96,-57.88C555.96,-57.88 504.54,-57.88 504.54,-57.88 501.58,-57.88 498.62,-54.92 498.62,-51.96 498.62,-51.96 498.62,-46.04 498.62,-46.04 498.62,-43.08 501.58,-40.12 504.54,-40.12 504.54,-40.12 555.96,-40.12 555.96,-40.12 558.92,-40.12 561.88,-43.08 561.88,-46.04 561.88,-46.04 561.88,-51.96 561.88,-51.96 561.88,-54.92 558.92,-57.88 555.96,-57.88"/>
<text text-anchor="start" x="506.62" y="-45.33" font-family="Helvetica,sans-Serif" font-size="9.00">UserBar.tsx</text>
</a>
</g>
</g>
<!-- src/widgets/UserBar/index.ts&#45;&gt;src/widgets/UserBar/ui/UserBar.tsx -->
<g id="edge14" class="edge">
<title>src/widgets/UserBar/index.ts&#45;&gt;src/widgets/UserBar/ui/UserBar.tsx</title>
<path fill="none" stroke="#000000" stroke-width="2" stroke-opacity="0.200000" d="M452.51,-58.69C464.28,-57.2 478.38,-55.42 491.27,-53.79"/>
<polygon fill="#000000" fill-opacity="0.200000" stroke="#000000" stroke-width="2" stroke-opacity="0.200000" points="497.55,-55.12 491.34,-53.79 497.02,-50.95 497.55,-55.12"/>
</g>
<!-- src/pages/home/ui/Page.tsx -->
<g id="node11" class="node">
<title>src/pages/home/ui/Page.tsx</title>
<g id="a_node11"><a xlink:href="src/pages/home/ui/Page.tsx" xlink:title="Page.tsx">
<path fill="#bbfeff" stroke="black" d="M446.33,-309.88C446.33,-309.88 404.17,-309.88 404.17,-309.88 401.21,-309.88 398.25,-306.92 398.25,-303.96 398.25,-303.96 398.25,-298.04 398.25,-298.04 398.25,-295.08 401.21,-292.12 404.17,-292.12 404.17,-292.12 446.33,-292.12 446.33,-292.12 449.29,-292.12 452.25,-295.08 452.25,-298.04 452.25,-298.04 452.25,-303.96 452.25,-303.96 452.25,-306.92 449.29,-309.88 446.33,-309.88"/>
<text text-anchor="start" x="407.62" y="-297.32" font-family="Helvetica,sans-Serif" font-size="9.00">Page.tsx</text>
</a>
</g>
</g>
<!-- src/pages/home/index.ts&#45;&gt;src/pages/home/ui/Page.tsx -->
<g id="edge10" class="edge">
<title>src/pages/home/index.ts&#45;&gt;src/pages/home/ui/Page.tsx</title>
<path fill="none" stroke="#000000" stroke-width="2" stroke-opacity="0.200000" d="M306.87,-297.73C330.57,-298.39 365.5,-299.37 391.1,-300.08"/>
<polygon fill="#000000" fill-opacity="0.200000" stroke="#000000" stroke-width="2" stroke-opacity="0.200000" points="396.99,-302.34 391.05,-300.08 397.11,-298.14 396.99,-302.34"/>
</g>
<!-- src/pages/login/ui/Page.tsx -->
<g id="node12" class="node">
<title>src/pages/login/ui/Page.tsx</title>
<g id="a_node12"><a xlink:href="src/pages/login/ui/Page.tsx" xlink:title="Page.tsx">
<path fill="#bbfeff" stroke="black" d="M446.33,-403.88C446.33,-403.88 404.17,-403.88 404.17,-403.88 401.21,-403.88 398.25,-400.92 398.25,-397.96 398.25,-397.96 398.25,-392.04 398.25,-392.04 398.25,-389.08 401.21,-386.12 404.17,-386.12 404.17,-386.12 446.33,-386.12 446.33,-386.12 449.29,-386.12 452.25,-389.08 452.25,-392.04 452.25,-392.04 452.25,-397.96 452.25,-397.96 452.25,-400.92 449.29,-403.88 446.33,-403.88"/>
<text text-anchor="start" x="407.62" y="-391.32" font-family="Helvetica,sans-Serif" font-size="9.00">Page.tsx</text>
</a>
</g>
</g>
<!-- src/pages/login/index.ts&#45;&gt;src/pages/login/ui/Page.tsx -->
<g id="edge11" class="edge">
<title>src/pages/login/index.ts&#45;&gt;src/pages/login/ui/Page.tsx</title>
<path fill="none" stroke="#000000" stroke-width="2" stroke-opacity="0.200000" d="M306.87,-391.73C330.57,-392.39 365.5,-393.37 391.1,-394.08"/>
<polygon fill="#000000" fill-opacity="0.200000" stroke="#000000" stroke-width="2" stroke-opacity="0.200000" points="396.99,-396.34 391.05,-394.08 397.11,-392.14 396.99,-396.34"/>
</g>
<!-- src/pages/profile/ui/Page.tsx -->
<g id="node14" class="node">
<title>src/pages/profile/ui/Page.tsx</title>
<g id="a_node14"><a xlink:href="src/pages/profile/ui/Page.tsx" xlink:title="Page.tsx">
<path fill="#bbfeff" stroke="black" d="M446.33,-497.88C446.33,-497.88 404.17,-497.88 404.17,-497.88 401.21,-497.88 398.25,-494.92 398.25,-491.96 398.25,-491.96 398.25,-486.04 398.25,-486.04 398.25,-483.08 401.21,-480.12 404.17,-480.12 404.17,-480.12 446.33,-480.12 446.33,-480.12 449.29,-480.12 452.25,-483.08 452.25,-486.04 452.25,-486.04 452.25,-491.96 452.25,-491.96 452.25,-494.92 449.29,-497.88 446.33,-497.88"/>
<text text-anchor="start" x="407.62" y="-485.32" font-family="Helvetica,sans-Serif" font-size="9.00">Page.tsx</text>
</a>
</g>
</g>
<!-- src/pages/profile/index.ts&#45;&gt;src/pages/profile/ui/Page.tsx -->
<g id="edge13" class="edge">
<title>src/pages/profile/index.ts&#45;&gt;src/pages/profile/ui/Page.tsx</title>
<path fill="none" stroke="#000000" stroke-width="2" stroke-opacity="0.200000" d="M306.87,-485.73C330.57,-486.39 365.5,-487.37 391.1,-488.08"/>
<polygon fill="#000000" fill-opacity="0.200000" stroke="#000000" stroke-width="2" stroke-opacity="0.200000" points="396.99,-490.34 391.05,-488.08 397.11,-486.14 396.99,-490.34"/>
</g>
<!-- src/pages/login/ui/LoginForm.tsx -->
<g id="node13" class="node">
<title>src/pages/login/ui/LoginForm.tsx</title>
<g id="a_node13"><a xlink:href="src/pages/login/ui/LoginForm.tsx" xlink:title="LoginForm.tsx">
<path fill="#bbfeff" stroke="black" d="M561.21,-403.88C561.21,-403.88 499.29,-403.88 499.29,-403.88 496.33,-403.88 493.38,-400.92 493.38,-397.96 493.38,-397.96 493.38,-392.04 493.38,-392.04 493.38,-389.08 496.33,-386.12 499.29,-386.12 499.29,-386.12 561.21,-386.12 561.21,-386.12 564.17,-386.12 567.12,-389.08 567.12,-392.04 567.12,-392.04 567.12,-397.96 567.12,-397.96 567.12,-400.92 564.17,-403.88 561.21,-403.88"/>
<text text-anchor="start" x="501.38" y="-391.32" font-family="Helvetica,sans-Serif" font-size="9.00">LoginForm.tsx</text>
</a>
</g>
</g>
<!-- src/pages/login/ui/Page.tsx&#45;&gt;src/pages/login/ui/LoginForm.tsx -->
<g id="edge12" class="edge">
<title>src/pages/login/ui/Page.tsx&#45;&gt;src/pages/login/ui/LoginForm.tsx</title>
<path fill="none" stroke="#000000" stroke-width="2" stroke-opacity="0.200000" d="M452.51,-395C462.1,-395 473.24,-395 484.02,-395"/>
<polygon fill="#000000" fill-opacity="0.200000" stroke="#000000" stroke-width="2" stroke-opacity="0.200000" points="483.91,-397.1 489.91,-395 483.91,-392.9 483.91,-397.1"/>
</g>
<!-- src/vite&#45;env.d.ts -->
<g id="node15" class="node">
<title>src/vite&#45;env.d.ts</title>
<g id="a_node15"><a xlink:href="src/vite-env.d.ts" xlink:title="vite&#45;env.d.ts">
<path fill="#ccffcc" stroke="black" d="M77.46,-430.88C77.46,-430.88 24.54,-430.88 24.54,-430.88 21.58,-430.88 18.62,-427.92 18.62,-424.96 18.62,-424.96 18.62,-419.04 18.62,-419.04 18.62,-416.08 21.58,-413.12 24.54,-413.12 24.54,-413.12 77.46,-413.12 77.46,-413.12 80.42,-413.12 83.38,-416.08 83.38,-419.04 83.38,-419.04 83.38,-424.96 83.38,-424.96 83.38,-427.92 80.42,-430.88 77.46,-430.88"/>
<text text-anchor="start" x="26.62" y="-418.32" font-family="Helvetica,sans-Serif" font-size="9.00">vite&#45;env.d.ts</text>
</a>
</g>
</g>
</g>
</svg>
