<?xml version="1.0" encoding="UTF-8" standalone="no"?>
<!DOCTYPE svg PUBLIC "-//W3C//DTD SVG 1.1//EN"
 "http://www.w3.org/Graphics/SVG/1.1/DTD/svg11.dtd">
<!-- Generated by graphviz version 12.0.0 (20240704.0754)
 -->
<!-- Title: dependency&#45;cruiser output Pages: 1 -->
<svg width="336pt" height="290pt"
 viewBox="0.00 0.00 336.00 290.00" xmlns="http://www.w3.org/2000/svg" xmlns:xlink="http://www.w3.org/1999/xlink">
<g id="graph0" class="graph" transform="scale(1 1) rotate(0) translate(4 286)">
<title>dependency&#45;cruiser output</title>
<polygon fill="white" stroke="none" points="-4,4 -4,-286 332,-286 332,4 -4,4"/>
<g id="clust1" class="cluster">
<title>cluster_src</title>
<path fill="#ffffff" stroke="black" stroke-width="2" d="M20,-8C20,-8 308,-8 308,-8 314,-8 320,-14 320,-20 320,-20 320,-262 320,-262 320,-268 314,-274 308,-274 308,-274 20,-274 20,-274 14,-274 8,-268 8,-262 8,-262 8,-20 8,-20 8,-14 14,-8 20,-8"/>
<text text-anchor="middle" x="164" y="-261.45" font-family="Helvetica,sans-Serif" font-weight="bold" font-size="9.00">src</text>
</g>
<g id="clust2" class="cluster">
<title>cluster_src/app</title>
<path fill="#ffffff" stroke="black" stroke-width="2" d="M28,-16C28,-16 222,-16 222,-16 228,-16 234,-22 234,-28 234,-28 234,-116 234,-116 234,-122 228,-128 222,-128 222,-128 28,-128 28,-128 22,-128 16,-122 16,-116 16,-116 16,-28 16,-28 16,-22 22,-16 28,-16"/>
<text text-anchor="middle" x="125" y="-115.45" font-family="Helvetica,sans-Serif" font-weight="bold" font-size="9.00">app</text>
</g>
<g id="clust3" class="cluster">
<title>cluster_src/app/providers</title>
<path fill="#ffffff" stroke="black" stroke-width="2" d="M98,-50C98,-50 214,-50 214,-50 220,-50 226,-56 226,-62 226,-62 226,-90 226,-90 226,-96 220,-102 214,-102 214,-102 98,-102 98,-102 92,-102 86,-96 86,-90 86,-90 86,-62 86,-62 86,-56 92,-50 98,-50"/>
<text text-anchor="middle" x="156" y="-89.45" font-family="Helvetica,sans-Serif" font-weight="bold" font-size="9.00">providers</text>
</g>
<g id="clust4" class="cluster">
<title>cluster_src/pages</title>
<path fill="#ffffff" stroke="black" stroke-width="2" d="M168,-136C168,-136 214,-136 214,-136 220,-136 226,-142 226,-148 226,-148 226,-236 226,-236 226,-242 220,-248 214,-248 214,-248 168,-248 168,-248 162,-248 156,-242 156,-236 156,-236 156,-148 156,-148 156,-142 162,-136 168,-136"/>
<text text-anchor="middle" x="191" y="-235.45" font-family="Helvetica,sans-Serif" font-weight="bold" font-size="9.00">pages</text>
</g>
<g id="clust5" class="cluster">
<title>cluster_src/shared</title>
<path fill="#ffffff" stroke="black" stroke-width="2" d="M254,-76C254,-76 300,-76 300,-76 306,-76 312,-82 312,-88 312,-88 312,-116 312,-116 312,-122 306,-128 300,-128 300,-128 254,-128 254,-128 248,-128 242,-122 242,-116 242,-116 242,-88 242,-88 242,-82 248,-76 254,-76"/>
<text text-anchor="middle" x="277" y="-115.45" font-family="Helvetica,sans-Serif" font-weight="bold" font-size="9.00">shared</text>
</g>
<g id="clust6" class="cluster">
<title>cluster_src/widgets</title>
<path fill="#ffffff" stroke="black" stroke-width="2" d="M254,-16C254,-16 300,-16 300,-16 306,-16 312,-22 312,-28 312,-28 312,-56 312,-56 312,-62 306,-68 300,-68 300,-68 254,-68 254,-68 248,-68 242,-62 242,-56 242,-56 242,-28 242,-28 242,-22 248,-16 254,-16"/>
<text text-anchor="middle" x="277" y="-55.45" font-family="Helvetica,sans-Serif" font-weight="bold" font-size="9.00">widgets</text>
</g>
<!-- src/app/entry.css -->
<g id="node1" class="node">
<title>src/app/entry.css</title>
<g id="a_node1"><a xlink:href="src/app/entry.css" xlink:title="entry.css">
<path fill="#ffffcc" stroke="black" d="M142.08,-41.88C142.08,-41.88 99.92,-41.88 99.92,-41.88 96.96,-41.88 94,-38.92 94,-35.96 94,-35.96 94,-30.04 94,-30.04 94,-27.08 96.96,-24.12 99.92,-24.12 99.92,-24.12 142.08,-24.12 142.08,-24.12 145.04,-24.12 148,-27.08 148,-30.04 148,-30.04 148,-35.96 148,-35.96 148,-38.92 145.04,-41.88 142.08,-41.88"/>
<text text-anchor="start" x="103" y="-29.32" font-family="Helvetica,sans-Serif" font-size="9.00">entry.css</text>
</a>
</g>
</g>
<!-- src/app/entry.tsx -->
<g id="node2" class="node">
<title>src/app/entry.tsx</title>
<g id="a_node2"><a xlink:href="src/app/entry.tsx" xlink:title="entry.tsx">
<path fill="#bbfeff" stroke="black" d="M72.08,-58.88C72.08,-58.88 29.92,-58.88 29.92,-58.88 26.96,-58.88 24,-55.92 24,-52.96 24,-52.96 24,-47.04 24,-47.04 24,-44.08 26.96,-41.12 29.92,-41.12 29.92,-41.12 72.08,-41.12 72.08,-41.12 75.04,-41.12 78,-44.08 78,-47.04 78,-47.04 78,-52.96 78,-52.96 78,-55.92 75.04,-58.88 72.08,-58.88"/>
<text text-anchor="start" x="34.12" y="-46.33" font-family="Helvetica,sans-Serif" font-size="9.00">entry.tsx</text>
</a>
</g>
</g>
<!-- src/app/entry.tsx&#45;&gt;src/app/entry.css -->
<g id="edge1" class="edge">
<title>src/app/entry.tsx&#45;&gt;src/app/entry.css</title>
<path fill="none" stroke="#000000" stroke-width="2" stroke-opacity="0.200000" d="M78.49,-43.38C80.7,-42.82 82.97,-42.26 85.24,-41.69"/>
<polygon fill="#000000" fill-opacity="0.200000" stroke="#000000" stroke-width="2" stroke-opacity="0.200000" points="85.67,-43.75 90.99,-40.25 84.66,-39.67 85.67,-43.75"/>
</g>
<!-- src/app/providers/router/ -->
<g id="node3" class="node">
<title>src/app/providers/router/</title>
<g id="a_node3"><a xlink:href="src/app/providers/router/" xlink:title="router">
<polygon fill="#ffffcc" stroke="black" points="148,-75.88 95.97,-75.88 94,-73.9 94,-58.12 146.03,-58.12 148,-60.1 148,-75.88"/>
<polyline fill="none" stroke="black" points="146.03,-73.9 94,-73.9"/>
<polyline fill="none" stroke="black" points="146.03,-73.9 146.03,-58.12"/>
<polyline fill="none" stroke="black" points="146.03,-73.9 148,-75.88"/>
<text text-anchor="start" x="109" y="-63.33" font-family="Helvetica,sans-Serif" font-size="9.00">router</text>
</a>
</g>
</g>
<!-- src/app/entry.tsx&#45;&gt;src/app/providers/router/ -->
<g id="edge2" class="edge">
<title>src/app/entry.tsx&#45;&gt;src/app/providers/router/</title>
<path fill="none" stroke="#000000" stroke-width="2" stroke-opacity="0.200000" d="M78.49,-56.62C80.7,-57.18 82.97,-57.74 85.24,-58.31"/>
<polygon fill="#000000" fill-opacity="0.200000" stroke="#000000" stroke-width="2" stroke-opacity="0.200000" points="84.66,-60.33 90.99,-59.75 85.67,-56.25 84.66,-60.33"/>
</g>
<!-- src/app/providers/layout/ -->
<g id="node4" class="node">
<title>src/app/providers/layout/</title>
<g id="a_node4"><a xlink:href="src/app/providers/layout/" xlink:title="layout">
<polygon fill="#ffffcc" stroke="black" points="218,-75.88 165.97,-75.88 164,-73.9 164,-58.12 216.03,-58.12 218,-60.1 218,-75.88"/>
<polyline fill="none" stroke="black" points="216.03,-73.9 164,-73.9"/>
<polyline fill="none" stroke="black" points="216.03,-73.9 216.03,-58.12"/>
<polyline fill="none" stroke="black" points="216.03,-73.9 218,-75.88"/>
<text text-anchor="start" x="178.62" y="-63.33" font-family="Helvetica,sans-Serif" font-size="9.00">layout</text>
</a>
</g>
</g>
<!-- src/app/providers/router/&#45;&gt;src/app/providers/layout/ -->
<g id="edge5" class="edge">
<title>src/app/providers/router/&#45;&gt;src/app/providers/layout/</title>
<path fill="none" stroke="#000000" stroke-width="2" stroke-opacity="0.200000" d="M148.49,-67C150.7,-67 152.97,-67 155.24,-67"/>
<polygon fill="#000000" fill-opacity="0.200000" stroke="#000000" stroke-width="2" stroke-opacity="0.200000" points="154.9,-69.1 160.9,-67 154.9,-64.9 154.9,-69.1"/>
</g>
<!-- src/shared/ui/ -->
<g id="node5" class="node">
<title>src/shared/ui/</title>
<g id="a_node5"><a xlink:href="src/shared/ui/" xlink:title="ui">
<polygon fill="#ffffcc" stroke="black" points="304,-101.88 251.97,-101.88 250,-99.9 250,-84.12 302.03,-84.12 304,-86.1 304,-101.88"/>
<polyline fill="none" stroke="black" points="302.03,-99.9 250,-99.9"/>
<polyline fill="none" stroke="black" points="302.03,-99.9 302.03,-84.12"/>
<polyline fill="none" stroke="black" points="302.03,-99.9 304,-101.88"/>
<text text-anchor="start" x="273.25" y="-89.33" font-family="Helvetica,sans-Serif" font-size="9.00">ui</text>
</a>
</g>
</g>
<!-- src/app/providers/router/&#45;&gt;src/shared/ui/ -->
<g id="edge9" class="edge">
<title>src/app/providers/router/&#45;&gt;src/shared/ui/</title>
<path fill="none" stroke="#000000" stroke-width="2" stroke-opacity="0.200000" d="M140.32,-76.37C145.29,-78.56 150.75,-80.64 156,-82 184.01,-89.26 216.79,-91.88 241,-92.76"/>
<polygon fill="#000000" fill-opacity="0.200000" stroke="#000000" stroke-width="2" stroke-opacity="0.200000" points="240.75,-94.86 246.81,-92.93 240.87,-90.66 240.75,-94.86"/>
</g>
<!-- src/pages/home/ -->
<g id="node7" class="node">
<title>src/pages/home/</title>
<g id="a_node7"><a xlink:href="src/pages/home/" xlink:title="home">
<polygon fill="#ffffcc" stroke="black" points="218,-161.88 165.97,-161.88 164,-159.9 164,-144.12 216.03,-144.12 218,-146.1 218,-161.88"/>
<polyline fill="none" stroke="black" points="216.03,-159.9 164,-159.9"/>
<polyline fill="none" stroke="black" points="216.03,-159.9 216.03,-144.12"/>
<polyline fill="none" stroke="black" points="216.03,-159.9 218,-161.88"/>
<text text-anchor="start" x="179.38" y="-149.32" font-family="Helvetica,sans-Serif" font-size="9.00">home</text>
</a>
</g>
</g>
<!-- src/app/providers/router/&#45;&gt;src/pages/home/ -->
<g id="edge6" class="edge">
<title>src/app/providers/router/&#45;&gt;src/pages/home/</title>
<path fill="none" stroke="#000000" stroke-width="2" stroke-opacity="0.200000" d="M129.28,-76.2C140.73,-90.69 163.11,-118.99 177.27,-136.9"/>
<polygon fill="#000000" fill-opacity="0.200000" stroke="#000000" stroke-width="2" stroke-opacity="0.200000" points="175.53,-138.08 180.9,-141.49 178.82,-135.48 175.53,-138.08"/>
</g>
<!-- src/pages/login/ -->
<g id="node8" class="node">
<title>src/pages/login/</title>
<g id="a_node8"><a xlink:href="src/pages/login/" xlink:title="login">
<polygon fill="#ffffcc" stroke="black" points="218,-191.88 165.97,-191.88 164,-189.9 164,-174.12 216.03,-174.12 218,-176.1 218,-191.88"/>
<polyline fill="none" stroke="black" points="216.03,-189.9 164,-189.9"/>
<polyline fill="none" stroke="black" points="216.03,-189.9 216.03,-174.12"/>
<polyline fill="none" stroke="black" points="216.03,-189.9 218,-191.88"/>
<text text-anchor="start" x="180.88" y="-179.32" font-family="Helvetica,sans-Serif" font-size="9.00">login</text>
</a>
</g>
</g>
<!-- src/app/providers/router/&#45;&gt;src/pages/login/ -->
<g id="edge7" class="edge">
<title>src/app/providers/router/&#45;&gt;src/pages/login/</title>
<path fill="none" stroke="#000000" stroke-width="2" stroke-opacity="0.200000" d="M122.67,-76.33C124.54,-95.78 131.42,-141.08 156,-168 156.27,-168.3 156.55,-168.59 156.84,-168.88"/>
<polygon fill="#000000" fill-opacity="0.200000" stroke="#000000" stroke-width="2" stroke-opacity="0.200000" points="155.19,-170.26 161.22,-172.27 157.76,-166.93 155.19,-170.26"/>
</g>
<!-- src/pages/profile/ -->
<g id="node9" class="node">
<title>src/pages/profile/</title>
<g id="a_node9"><a xlink:href="src/pages/profile/" xlink:title="profile">
<polygon fill="#ffffcc" stroke="black" points="218,-221.88 165.97,-221.88 164,-219.9 164,-204.12 216.03,-204.12 218,-206.1 218,-221.88"/>
<polyline fill="none" stroke="black" points="216.03,-219.9 164,-219.9"/>
<polyline fill="none" stroke="black" points="216.03,-219.9 216.03,-204.12"/>
<polyline fill="none" stroke="black" points="216.03,-219.9 218,-221.88"/>
<text text-anchor="start" x="178.25" y="-209.32" font-family="Helvetica,sans-Serif" font-size="9.00">profile</text>
</a>
</g>
</g>
<!-- src/app/providers/router/&#45;&gt;src/pages/profile/ -->
<g id="edge8" class="edge">
<title>src/app/providers/router/&#45;&gt;src/pages/profile/</title>
<path fill="none" stroke="#000000" stroke-width="2" stroke-opacity="0.200000" d="M121.8,-76.16C121.77,-99.37 124.8,-161.3 156,-198 156.27,-198.32 156.55,-198.63 156.84,-198.94"/>
<polygon fill="#000000" fill-opacity="0.200000" stroke="#000000" stroke-width="2" stroke-opacity="0.200000" points="155.41,-200.49 161.41,-202.59 158.03,-197.2 155.41,-200.49"/>
</g>
<!-- src/app/providers/layout/&#45;&gt;src/shared/ui/ -->
<g id="edge3" class="edge">
<title>src/app/providers/layout/&#45;&gt;src/shared/ui/</title>
<path fill="none" stroke="#000000" stroke-width="2" stroke-opacity="0.200000" d="M218.12,-75.08C225.47,-77.36 233.59,-79.87 241.36,-82.28"/>
<polygon fill="#000000" fill-opacity="0.200000" stroke="#000000" stroke-width="2" stroke-opacity="0.200000" points="240.36,-84.17 246.72,-83.94 241.61,-80.16 240.36,-84.17"/>
</g>
<!-- src/widgets/UserBar/ -->
<g id="node6" class="node">
<title>src/widgets/UserBar/</title>
<g id="a_node6"><a xlink:href="src/widgets/UserBar/" xlink:title="UserBar">
<polygon fill="#ffffcc" stroke="black" points="304,-41.88 251.97,-41.88 250,-39.9 250,-24.12 302.03,-24.12 304,-26.1 304,-41.88"/>
<polyline fill="none" stroke="black" points="302.03,-39.9 250,-39.9"/>
<polyline fill="none" stroke="black" points="302.03,-39.9 302.03,-24.12"/>
<polyline fill="none" stroke="black" points="302.03,-39.9 304,-41.88"/>
<text text-anchor="start" x="260.12" y="-29.32" font-family="Helvetica,sans-Serif" font-size="9.00">UserBar</text>
</a>
</g>
</g>
<!-- src/app/providers/layout/&#45;&gt;src/widgets/UserBar/ -->
<g id="edge4" class="edge">
<title>src/app/providers/layout/&#45;&gt;src/widgets/UserBar/</title>
<path fill="none" stroke="#000000" stroke-width="2" stroke-opacity="0.200000" d="M214.95,-57.71C224.21,-53.96 235.04,-49.58 244.98,-45.55"/>
<polygon fill="#000000" fill-opacity="0.200000" stroke="#000000" stroke-width="2" stroke-opacity="0.200000" points="245.49,-47.61 250.27,-43.42 243.92,-43.72 245.49,-47.61"/>
</g>
</g>
</svg>
