<?xml version="1.0" encoding="UTF-8" standalone="no"?>
<!DOCTYPE svg PUBLIC "-//W3C//DTD SVG 1.1//EN"
 "http://www.w3.org/Graphics/SVG/1.1/DTD/svg11.dtd">
<!-- Generated by graphviz version 12.0.0 (20240704.0754)
 -->
<!-- Title: dependency&#45;cruiser output Pages: 1 -->
<svg width="754pt" height="554pt"
 viewBox="0.00 0.00 754.00 554.00" xmlns="http://www.w3.org/2000/svg" xmlns:xlink="http://www.w3.org/1999/xlink">
<g id="graph0" class="graph" transform="scale(1 1) rotate(0) translate(4 550)">
<title>dependency&#45;cruiser output</title>
<polygon fill="white" stroke="none" points="-4,4 -4,-550 750,-550 750,4 -4,4"/>
<g id="clust1" class="cluster">
<title>cluster_src</title>
<path fill="#ffffff" stroke="black" stroke-width="2" d="M20,-8C20,-8 726,-8 726,-8 732,-8 738,-14 738,-20 738,-20 738,-526 738,-526 738,-532 732,-538 726,-538 726,-538 20,-538 20,-538 14,-538 8,-532 8,-526 8,-526 8,-20 8,-20 8,-14 14,-8 20,-8"/>
<text text-anchor="middle" x="373" y="-525.45" font-family="Helvetica,sans-Serif" font-weight="bold" font-size="9.00">src</text>
</g>
<g id="clust2" class="cluster">
<title>cluster_src/app</title>
<path fill="#ffffff" stroke="black" stroke-width="2" d="M28,-332C28,-332 347.88,-332 347.88,-332 353.88,-332 359.88,-338 359.88,-344 359.88,-344 359.88,-466 359.88,-466 359.88,-472 353.88,-478 347.88,-478 347.88,-478 28,-478 28,-478 22,-478 16,-472 16,-466 16,-466 16,-344 16,-344 16,-338 22,-332 28,-332"/>
<text text-anchor="middle" x="187.94" y="-465.45" font-family="Helvetica,sans-Serif" font-weight="bold" font-size="9.00">app</text>
</g>
<g id="clust3" class="cluster">
<title>cluster_src/app/providers</title>
<path fill="#ffffff" stroke="black" stroke-width="2" d="M103.38,-366C103.38,-366 339.88,-366 339.88,-366 345.88,-366 351.88,-372 351.88,-378 351.88,-378 351.88,-440 351.88,-440 351.88,-446 345.88,-452 339.88,-452 339.88,-452 103.37,-452 103.37,-452 97.38,-452 91.38,-446 91.38,-440 91.38,-440 91.38,-378 91.38,-378 91.38,-372 97.38,-366 103.38,-366"/>
<text text-anchor="middle" x="221.62" y="-439.45" font-family="Helvetica,sans-Serif" font-weight="bold" font-size="9.00">providers</text>
</g>
<g id="clust4" class="cluster">
<title>cluster_src/app/providers/layout</title>
<path fill="#ffffff" stroke="black" stroke-width="2" d="M227.12,-374C227.12,-374 331.88,-374 331.88,-374 337.88,-374 343.88,-380 343.88,-386 343.88,-386 343.88,-414 343.88,-414 343.88,-420 337.88,-426 331.88,-426 331.88,-426 227.12,-426 227.12,-426 221.12,-426 215.12,-420 215.12,-414 215.12,-414 215.12,-386 215.12,-386 215.12,-380 221.12,-374 227.12,-374"/>
<text text-anchor="middle" x="279.5" y="-413.45" font-family="Helvetica,sans-Serif" font-weight="bold" font-size="9.00">layout</text>
</g>
<g id="clust5" class="cluster">
<title>cluster_src/app/providers/router</title>
<path fill="#ffffff" stroke="black" stroke-width="2" d="M111.38,-374C111.38,-374 195.12,-374 195.12,-374 201.12,-374 207.12,-380 207.12,-386 207.12,-386 207.12,-414 207.12,-414 207.12,-420 201.12,-426 195.12,-426 195.12,-426 111.38,-426 111.38,-426 105.38,-426 99.38,-420 99.38,-414 99.38,-414 99.38,-386 99.38,-386 99.38,-380 105.38,-374 111.38,-374"/>
<text text-anchor="middle" x="153.25" y="-413.45" font-family="Helvetica,sans-Serif" font-weight="bold" font-size="9.00">router</text>
</g>
<g id="clust6" class="cluster">
<title>cluster_src/entities</title>
<path fill="#ffffff" stroke="black" stroke-width="2" d="M379.88,-332C379.88,-332 718,-332 718,-332 724,-332 730,-338 730,-344 730,-344 730,-500 730,-500 730,-506 724,-512 718,-512 718,-512 379.88,-512 379.88,-512 373.88,-512 367.88,-506 367.88,-500 367.88,-500 367.88,-344 367.88,-344 367.88,-338 373.88,-332 379.88,-332"/>
<text text-anchor="middle" x="548.94" y="-499.45" font-family="Helvetica,sans-Serif" font-weight="bold" font-size="9.00">entities</text>
</g>
<g id="clust7" class="cluster">
<title>cluster_src/entities/theme</title>
<path fill="#ffffff" stroke="black" stroke-width="2" d="M387.88,-340C387.88,-340 710,-340 710,-340 716,-340 722,-346 722,-352 722,-352 722,-474 722,-474 722,-480 716,-486 710,-486 710,-486 387.88,-486 387.88,-486 381.88,-486 375.88,-480 375.88,-474 375.88,-474 375.88,-352 375.88,-352 375.88,-346 381.88,-340 387.88,-340"/>
<text text-anchor="middle" x="548.94" y="-473.45" font-family="Helvetica,sans-Serif" font-weight="bold" font-size="9.00">theme</text>
</g>
<g id="clust8" class="cluster">
<title>cluster_src/entities/theme/model</title>
<path fill="#ffffff" stroke="black" stroke-width="2" d="M473.88,-408C473.88,-408 702,-408 702,-408 708,-408 714,-414 714,-420 714,-420 714,-448 714,-448 714,-454 708,-460 702,-460 702,-460 473.88,-460 473.88,-460 467.88,-460 461.88,-454 461.88,-448 461.88,-448 461.88,-420 461.88,-420 461.88,-414 467.88,-408 473.88,-408"/>
<text text-anchor="middle" x="587.94" y="-447.45" font-family="Helvetica,sans-Serif" font-weight="bold" font-size="9.00">model</text>
</g>
<g id="clust9" class="cluster">
<title>cluster_src/entities/theme/ui</title>
<path fill="#ffffff" stroke="black" stroke-width="2" d="M475.75,-348C475.75,-348 556.5,-348 556.5,-348 562.5,-348 568.5,-354 568.5,-360 568.5,-360 568.5,-388 568.5,-388 568.5,-394 562.5,-400 556.5,-400 556.5,-400 475.75,-400 475.75,-400 469.75,-400 463.75,-394 463.75,-388 463.75,-388 463.75,-360 463.75,-360 463.75,-354 469.75,-348 475.75,-348"/>
<text text-anchor="middle" x="516.12" y="-387.45" font-family="Helvetica,sans-Serif" font-weight="bold" font-size="9.00">ui</text>
</g>
<g id="clust10" class="cluster">
<title>cluster_src/pages</title>
<path fill="#ffffff" stroke="black" stroke-width="2" d="M248.5,-16C248.5,-16 565,-16 565,-16 571,-16 577,-22 577,-28 577,-28 577,-312 577,-312 577,-318 571,-324 565,-324 565,-324 248.5,-324 248.5,-324 242.5,-324 236.5,-318 236.5,-312 236.5,-312 236.5,-28 236.5,-28 236.5,-22 242.5,-16 248.5,-16"/>
<text text-anchor="middle" x="406.75" y="-311.45" font-family="Helvetica,sans-Serif" font-weight="bold" font-size="9.00">pages</text>
</g>
<g id="clust11" class="cluster">
<title>cluster_src/pages/home</title>
<path fill="#ffffff" stroke="black" stroke-width="2" d="M256.5,-118C256.5,-118 441.88,-118 441.88,-118 447.88,-118 453.88,-124 453.88,-130 453.88,-130 453.88,-192 453.88,-192 453.88,-198 447.88,-204 441.88,-204 441.88,-204 256.5,-204 256.5,-204 250.5,-204 244.5,-198 244.5,-192 244.5,-192 244.5,-130 244.5,-130 244.5,-124 250.5,-118 256.5,-118"/>
<text text-anchor="middle" x="349.19" y="-191.45" font-family="Helvetica,sans-Serif" font-weight="bold" font-size="9.00">home</text>
</g>
<g id="clust12" class="cluster">
<title>cluster_src/pages/home/ui</title>
<path fill="#ffffff" stroke="black" stroke-width="2" d="M387.88,-126C387.88,-126 433.88,-126 433.88,-126 439.88,-126 445.88,-132 445.88,-138 445.88,-138 445.88,-166 445.88,-166 445.88,-172 439.88,-178 433.88,-178 433.88,-178 387.88,-178 387.88,-178 381.88,-178 375.88,-172 375.88,-166 375.88,-166 375.88,-138 375.88,-138 375.88,-132 381.88,-126 387.88,-126"/>
<text text-anchor="middle" x="410.88" y="-165.45" font-family="Helvetica,sans-Serif" font-weight="bold" font-size="9.00">ui</text>
</g>
<g id="clust13" class="cluster">
<title>cluster_src/pages/login</title>
<path fill="#ffffff" stroke="black" stroke-width="2" d="M256.5,-24C256.5,-24 557,-24 557,-24 563,-24 569,-30 569,-36 569,-36 569,-98 569,-98 569,-104 563,-110 557,-110 557,-110 256.5,-110 256.5,-110 250.5,-110 244.5,-104 244.5,-98 244.5,-98 244.5,-36 244.5,-36 244.5,-30 250.5,-24 256.5,-24"/>
<text text-anchor="middle" x="406.75" y="-97.45" font-family="Helvetica,sans-Serif" font-weight="bold" font-size="9.00">login</text>
</g>
<g id="clust14" class="cluster">
<title>cluster_src/pages/login/ui</title>
<path fill="#ffffff" stroke="black" stroke-width="2" d="M387.88,-32C387.88,-32 549,-32 549,-32 555,-32 561,-38 561,-44 561,-44 561,-72 561,-72 561,-78 555,-84 549,-84 549,-84 387.88,-84 387.88,-84 381.88,-84 375.88,-78 375.88,-72 375.88,-72 375.88,-44 375.88,-44 375.88,-38 381.88,-32 387.88,-32"/>
<text text-anchor="middle" x="468.44" y="-71.45" font-family="Helvetica,sans-Serif" font-weight="bold" font-size="9.00">ui</text>
</g>
<g id="clust15" class="cluster">
<title>cluster_src/pages/profile</title>
<path fill="#ffffff" stroke="black" stroke-width="2" d="M256.5,-212C256.5,-212 441.88,-212 441.88,-212 447.88,-212 453.88,-218 453.88,-224 453.88,-224 453.88,-286 453.88,-286 453.88,-292 447.88,-298 441.88,-298 441.88,-298 256.5,-298 256.5,-298 250.5,-298 244.5,-292 244.5,-286 244.5,-286 244.5,-224 244.5,-224 244.5,-218 250.5,-212 256.5,-212"/>
<text text-anchor="middle" x="349.19" y="-285.45" font-family="Helvetica,sans-Serif" font-weight="bold" font-size="9.00">profile</text>
</g>
<g id="clust16" class="cluster">
<title>cluster_src/pages/profile/ui</title>
<path fill="#ffffff" stroke="black" stroke-width="2" d="M387.88,-220C387.88,-220 433.88,-220 433.88,-220 439.88,-220 445.88,-226 445.88,-232 445.88,-232 445.88,-260 445.88,-260 445.88,-266 439.88,-272 433.88,-272 433.88,-272 387.88,-272 387.88,-272 381.88,-272 375.88,-266 375.88,-260 375.88,-260 375.88,-232 375.88,-232 375.88,-226 381.88,-220 387.88,-220"/>
<text text-anchor="middle" x="410.88" y="-259.45" font-family="Helvetica,sans-Serif" font-weight="bold" font-size="9.00">ui</text>
</g>
<!-- src/app/entry.css -->
<g id="node1" class="node">
<title>src/app/entry.css</title>
<g id="a_node1"><a xlink:href="src/app/entry.css" xlink:title="entry.css">
<path fill="#ffffcc" stroke="black" d="M174.33,-357.88C174.33,-357.88 132.17,-357.88 132.17,-357.88 129.21,-357.88 126.25,-354.92 126.25,-351.96 126.25,-351.96 126.25,-346.04 126.25,-346.04 126.25,-343.08 129.21,-340.12 132.17,-340.12 132.17,-340.12 174.33,-340.12 174.33,-340.12 177.29,-340.12 180.25,-343.08 180.25,-346.04 180.25,-346.04 180.25,-351.96 180.25,-351.96 180.25,-354.92 177.29,-357.88 174.33,-357.88"/>
<text text-anchor="start" x="135.25" y="-345.32" font-family="Helvetica,sans-Serif" font-size="9.00">entry.css</text>
</a>
</g>
</g>
<!-- src/app/entry.tsx -->
<g id="node2" class="node">
<title>src/app/entry.tsx</title>
<g id="a_node2"><a xlink:href="src/app/entry.tsx" xlink:title="entry.tsx">
<path fill="#bbfeff" stroke="black" d="M72.08,-399.88C72.08,-399.88 29.92,-399.88 29.92,-399.88 26.96,-399.88 24,-396.92 24,-393.96 24,-393.96 24,-388.04 24,-388.04 24,-385.08 26.96,-382.12 29.92,-382.12 29.92,-382.12 72.08,-382.12 72.08,-382.12 75.04,-382.12 78,-385.08 78,-388.04 78,-388.04 78,-393.96 78,-393.96 78,-396.92 75.04,-399.88 72.08,-399.88"/>
<text text-anchor="start" x="34.12" y="-387.32" font-family="Helvetica,sans-Serif" font-size="9.00">entry.tsx</text>
</a>
</g>
</g>
<!-- src/app/entry.tsx&#45;&gt;src/app/entry.css -->
<g id="edge1" class="edge">
<title>src/app/entry.tsx&#45;&gt;src/app/entry.css</title>
<path fill="none" stroke="#000000" stroke-width="2" stroke-opacity="0.200000" d="M69.03,-381.77C75.88,-378.21 83.92,-374.23 91.38,-371 99.73,-367.39 108.89,-363.86 117.51,-360.72"/>
<polygon fill="#000000" fill-opacity="0.200000" stroke="#000000" stroke-width="2" stroke-opacity="0.200000" points="118.11,-362.74 123.05,-358.74 116.7,-358.78 118.11,-362.74"/>
</g>
<!-- src/app/providers/router/RouterProvider.tsx -->
<g id="node3" class="node">
<title>src/app/providers/router/RouterProvider.tsx</title>
<g id="a_node3"><a xlink:href="src/app/providers/router/RouterProvider.tsx" xlink:title="RouterProvider.tsx">
<path fill="#bbfeff" stroke="black" d="M193.21,-399.88C193.21,-399.88 113.29,-399.88 113.29,-399.88 110.33,-399.88 107.38,-396.92 107.38,-393.96 107.38,-393.96 107.38,-388.04 107.38,-388.04 107.38,-385.08 110.33,-382.12 113.29,-382.12 113.29,-382.12 193.21,-382.12 193.21,-382.12 196.17,-382.12 199.12,-385.08 199.12,-388.04 199.12,-388.04 199.12,-393.96 199.12,-393.96 199.12,-396.92 196.17,-399.88 193.21,-399.88"/>
<text text-anchor="start" x="115.38" y="-387.32" font-family="Helvetica,sans-Serif" font-size="9.00">RouterProvider.tsx</text>
</a>
</g>
</g>
<!-- src/app/entry.tsx&#45;&gt;src/app/providers/router/RouterProvider.tsx -->
<g id="edge2" class="edge">
<title>src/app/entry.tsx&#45;&gt;src/app/providers/router/RouterProvider.tsx</title>
<path fill="none" stroke="#000000" stroke-width="2" stroke-opacity="0.200000" d="M78.34,-391C84.54,-391 91.37,-391 98.3,-391"/>
<polygon fill="#000000" fill-opacity="0.200000" stroke="#000000" stroke-width="2" stroke-opacity="0.200000" points="98.07,-393.1 104.07,-391 98.07,-388.9 98.07,-393.1"/>
</g>
<!-- src/entities/theme/index.ts -->
<g id="node4" class="node">
<title>src/entities/theme/index.ts</title>
<g id="a_node4"><a xlink:href="src/entities/theme/index.ts" xlink:title="index.ts">
<path fill="#ddfeff" stroke="black" d="M431.96,-433.88C431.96,-433.88 389.79,-433.88 389.79,-433.88 386.83,-433.88 383.88,-430.92 383.88,-427.96 383.88,-427.96 383.88,-422.04 383.88,-422.04 383.88,-419.08 386.83,-416.12 389.79,-416.12 389.79,-416.12 431.96,-416.12 431.96,-416.12 434.92,-416.12 437.88,-419.08 437.88,-422.04 437.88,-422.04 437.88,-427.96 437.88,-427.96 437.88,-430.92 434.92,-433.88 431.96,-433.88"/>
<text text-anchor="start" x="395.12" y="-421.32" font-family="Helvetica,sans-Serif" font-size="9.00">index.ts</text>
</a>
</g>
</g>
<!-- src/app/entry.tsx&#45;&gt;src/entities/theme/index.ts -->
<g id="edge3" class="edge">
<title>src/app/entry.tsx&#45;&gt;src/entities/theme/index.ts</title>
<path fill="none" stroke="#000000" stroke-width="2" stroke-opacity="0.200000" d="M78.21,-399.64C80.1,-400.91 81.86,-402.35 83.38,-404 91.27,-412.58 81.95,-422.12 91.38,-429 177.55,-491.9 314.73,-457.72 377.09,-437.06"/>
<polygon fill="#000000" fill-opacity="0.200000" stroke="#000000" stroke-width="2" stroke-opacity="0.200000" points="377.51,-439.14 382.52,-435.22 376.16,-435.16 377.51,-439.14"/>
</g>
<!-- src/app/providers/layout/BaseLayoutProvider.tsx -->
<g id="node5" class="node">
<title>src/app/providers/layout/BaseLayoutProvider.tsx</title>
<g id="a_node5"><a xlink:href="src/app/providers/layout/BaseLayoutProvider.tsx" xlink:title="BaseLayoutProvider.tsx">
<path fill="#bbfeff" stroke="black" d="M329.96,-399.88C329.96,-399.88 229.04,-399.88 229.04,-399.88 226.08,-399.88 223.12,-396.92 223.12,-393.96 223.12,-393.96 223.12,-388.04 223.12,-388.04 223.12,-385.08 226.08,-382.12 229.04,-382.12 229.04,-382.12 329.96,-382.12 329.96,-382.12 332.92,-382.12 335.88,-385.08 335.88,-388.04 335.88,-388.04 335.88,-393.96 335.88,-393.96 335.88,-396.92 332.92,-399.88 329.96,-399.88"/>
<text text-anchor="start" x="231.12" y="-387.32" font-family="Helvetica,sans-Serif" font-size="9.00">BaseLayoutProvider.tsx</text>
</a>
</g>
</g>
<!-- src/app/providers/router/RouterProvider.tsx&#45;&gt;src/app/providers/layout/BaseLayoutProvider.tsx -->
<g id="edge5" class="edge">
<title>src/app/providers/router/RouterProvider.tsx&#45;&gt;src/app/providers/layout/BaseLayoutProvider.tsx</title>
<path fill="none" stroke="#000000" stroke-width="2" stroke-opacity="0.200000" d="M199.46,-391C204.23,-391 209.14,-391 214.08,-391"/>
<polygon fill="#000000" fill-opacity="0.200000" stroke="#000000" stroke-width="2" stroke-opacity="0.200000" points="213.92,-393.1 219.92,-391 213.92,-388.9 213.92,-393.1"/>
</g>
<!-- src/pages/home/index.ts -->
<g id="node6" class="node">
<title>src/pages/home/index.ts</title>
<g id="a_node6"><a xlink:href="src/pages/home/index.ts" xlink:title="index.ts">
<path fill="#ddfeff" stroke="black" d="M300.58,-164.88C300.58,-164.88 258.42,-164.88 258.42,-164.88 255.46,-164.88 252.5,-161.92 252.5,-158.96 252.5,-158.96 252.5,-153.04 252.5,-153.04 252.5,-150.08 255.46,-147.12 258.42,-147.12 258.42,-147.12 300.58,-147.12 300.58,-147.12 303.54,-147.12 306.5,-150.08 306.5,-153.04 306.5,-153.04 306.5,-158.96 306.5,-158.96 306.5,-161.92 303.54,-164.88 300.58,-164.88"/>
<text text-anchor="start" x="263.75" y="-152.32" font-family="Helvetica,sans-Serif" font-size="9.00">index.ts</text>
</a>
</g>
</g>
<!-- src/app/providers/router/RouterProvider.tsx&#45;&gt;src/pages/home/index.ts -->
<g id="edge6" class="edge">
<title>src/app/providers/router/RouterProvider.tsx&#45;&gt;src/pages/home/index.ts</title>
<path fill="none" stroke="#000000" stroke-width="2" stroke-opacity="0.200000" d="M199.49,-384.52C202.36,-382.77 204.96,-380.63 207.12,-378 219.07,-363.48 206.77,-225.84 215.12,-209 223.36,-192.42 239.4,-179.08 253.29,-169.93"/>
<polygon fill="#000000" fill-opacity="0.200000" stroke="#000000" stroke-width="2" stroke-opacity="0.200000" points="254.18,-171.86 258.15,-166.89 251.95,-168.29 254.18,-171.86"/>
</g>
<!-- src/pages/login/index.ts -->
<g id="node7" class="node">
<title>src/pages/login/index.ts</title>
<g id="a_node7"><a xlink:href="src/pages/login/index.ts" xlink:title="index.ts">
<path fill="#ddfeff" stroke="black" d="M300.58,-70.88C300.58,-70.88 258.42,-70.88 258.42,-70.88 255.46,-70.88 252.5,-67.92 252.5,-64.96 252.5,-64.96 252.5,-59.04 252.5,-59.04 252.5,-56.08 255.46,-53.12 258.42,-53.12 258.42,-53.12 300.58,-53.12 300.58,-53.12 303.54,-53.12 306.5,-56.08 306.5,-59.04 306.5,-59.04 306.5,-64.96 306.5,-64.96 306.5,-67.92 303.54,-70.88 300.58,-70.88"/>
<text text-anchor="start" x="263.75" y="-58.33" font-family="Helvetica,sans-Serif" font-size="9.00">index.ts</text>
</a>
</g>
</g>
<!-- src/app/providers/router/RouterProvider.tsx&#45;&gt;src/pages/login/index.ts -->
<g id="edge7" class="edge">
<title>src/app/providers/router/RouterProvider.tsx&#45;&gt;src/pages/login/index.ts</title>
<path fill="none" stroke="#000000" stroke-width="2" stroke-opacity="0.200000" d="M199.54,-384.56C202.4,-382.8 204.98,-380.65 207.12,-378 225.51,-355.27 202.35,-141.3 215.12,-115 223.22,-98.35 239.26,-85.01 253.19,-75.88"/>
<polygon fill="#000000" fill-opacity="0.200000" stroke="#000000" stroke-width="2" stroke-opacity="0.200000" points="254.08,-77.8 258.07,-72.85 251.86,-74.23 254.08,-77.8"/>
</g>
<!-- src/pages/profile/index.ts -->
<g id="node8" class="node">
<title>src/pages/profile/index.ts</title>
<g id="a_node8"><a xlink:href="src/pages/profile/index.ts" xlink:title="index.ts">
<path fill="#ddfeff" stroke="black" d="M300.58,-258.88C300.58,-258.88 258.42,-258.88 258.42,-258.88 255.46,-258.88 252.5,-255.92 252.5,-252.96 252.5,-252.96 252.5,-247.04 252.5,-247.04 252.5,-244.08 255.46,-241.12 258.42,-241.12 258.42,-241.12 300.58,-241.12 300.58,-241.12 303.54,-241.12 306.5,-244.08 306.5,-247.04 306.5,-247.04 306.5,-252.96 306.5,-252.96 306.5,-255.92 303.54,-258.88 300.58,-258.88"/>
<text text-anchor="start" x="263.75" y="-246.32" font-family="Helvetica,sans-Serif" font-size="9.00">index.ts</text>
</a>
</g>
</g>
<!-- src/app/providers/router/RouterProvider.tsx&#45;&gt;src/pages/profile/index.ts -->
<g id="edge8" class="edge">
<title>src/app/providers/router/RouterProvider.tsx&#45;&gt;src/pages/profile/index.ts</title>
<path fill="none" stroke="#000000" stroke-width="2" stroke-opacity="0.200000" d="M199.59,-382.64C202.25,-381.31 204.79,-379.78 207.12,-378 226.54,-363.19 256.97,-298.62 270.98,-267.25"/>
<polygon fill="#000000" fill-opacity="0.200000" stroke="#000000" stroke-width="2" stroke-opacity="0.200000" points="272.74,-268.45 273.25,-262.11 268.9,-266.75 272.74,-268.45"/>
</g>
<!-- src/entities/theme/model/store.ts -->
<g id="node9" class="node">
<title>src/entities/theme/model/store.ts</title>
<g id="a_node9"><a xlink:href="src/entities/theme/model/store.ts" xlink:title="store.ts">
<path fill="#ddfeff" stroke="black" d="M633.08,-433.88C633.08,-433.88 590.92,-433.88 590.92,-433.88 587.96,-433.88 585,-430.92 585,-427.96 585,-427.96 585,-422.04 585,-422.04 585,-419.08 587.96,-416.12 590.92,-416.12 590.92,-416.12 633.08,-416.12 633.08,-416.12 636.04,-416.12 639,-419.08 639,-422.04 639,-422.04 639,-427.96 639,-427.96 639,-430.92 636.04,-433.88 633.08,-433.88"/>
<text text-anchor="start" x="597.38" y="-421.32" font-family="Helvetica,sans-Serif" font-size="9.00">store.ts</text>
</a>
</g>
</g>
<!-- src/entities/theme/index.ts&#45;&gt;src/entities/theme/model/store.ts -->
<g id="edge9" class="edge">
<title>src/entities/theme/index.ts&#45;&gt;src/entities/theme/model/store.ts</title>
<path fill="none" stroke="#000000" stroke-width="2" stroke-opacity="0.200000" d="M437.76,-434.33C445.42,-436.66 453.89,-438.83 461.88,-440 512.5,-447.43 526.93,-450.55 577,-440 580.46,-439.27 584,-438.16 587.43,-436.88"/>
<polygon fill="#000000" fill-opacity="0.200000" stroke="#000000" stroke-width="2" stroke-opacity="0.200000" points="593.7,-436.55 587.35,-436.91 592.09,-432.67 593.7,-436.55"/>
</g>
<!-- src/entities/theme/model/ThemeProvider.tsx -->
<g id="node10" class="node">
<title>src/entities/theme/model/ThemeProvider.tsx</title>
<g id="a_node10"><a xlink:href="src/entities/theme/model/ThemeProvider.tsx" xlink:title="ThemeProvider.tsx">
<path fill="#bbfeff" stroke="black" d="M556.46,-433.88C556.46,-433.88 475.79,-433.88 475.79,-433.88 472.83,-433.88 469.88,-430.92 469.88,-427.96 469.88,-427.96 469.88,-422.04 469.88,-422.04 469.88,-419.08 472.83,-416.12 475.79,-416.12 475.79,-416.12 556.46,-416.12 556.46,-416.12 559.42,-416.12 562.38,-419.08 562.38,-422.04 562.38,-422.04 562.38,-427.96 562.38,-427.96 562.38,-430.92 559.42,-433.88 556.46,-433.88"/>
<text text-anchor="start" x="477.88" y="-421.32" font-family="Helvetica,sans-Serif" font-size="9.00">ThemeProvider.tsx</text>
</a>
</g>
</g>
<!-- src/entities/theme/index.ts&#45;&gt;src/entities/theme/model/ThemeProvider.tsx -->
<g id="edge10" class="edge">
<title>src/entities/theme/index.ts&#45;&gt;src/entities/theme/model/ThemeProvider.tsx</title>
<path fill="none" stroke="#000000" stroke-width="2" stroke-opacity="0.200000" d="M438.2,-425C445.66,-425 454.07,-425 462.51,-425"/>
<polygon fill="#000000" fill-opacity="0.200000" stroke="#000000" stroke-width="2" stroke-opacity="0.200000" points="468.59,-427.1 462.59,-425 468.59,-422.9 468.59,-427.1"/>
</g>
<!-- src/entities/theme/ui/ThemeToggler.tsx -->
<g id="node11" class="node">
<title>src/entities/theme/ui/ThemeToggler.tsx</title>
<g id="a_node11"><a xlink:href="src/entities/theme/ui/ThemeToggler.tsx" xlink:title="ThemeToggler.tsx">
<path fill="#bbfeff" stroke="black" d="M554.58,-373.88C554.58,-373.88 477.67,-373.88 477.67,-373.88 474.71,-373.88 471.75,-370.92 471.75,-367.96 471.75,-367.96 471.75,-362.04 471.75,-362.04 471.75,-359.08 474.71,-356.12 477.67,-356.12 477.67,-356.12 554.58,-356.12 554.58,-356.12 557.54,-356.12 560.5,-359.08 560.5,-362.04 560.5,-362.04 560.5,-367.96 560.5,-367.96 560.5,-370.92 557.54,-373.88 554.58,-373.88"/>
<text text-anchor="start" x="479.75" y="-361.32" font-family="Helvetica,sans-Serif" font-size="9.00">ThemeToggler.tsx</text>
</a>
</g>
</g>
<!-- src/entities/theme/index.ts&#45;&gt;src/entities/theme/ui/ThemeToggler.tsx -->
<g id="edge11" class="edge">
<title>src/entities/theme/index.ts&#45;&gt;src/entities/theme/ui/ThemeToggler.tsx</title>
<path fill="none" stroke="#000000" stroke-width="2" stroke-opacity="0.200000" d="M428.01,-415.62C445.51,-405.45 473.56,-389.15 493.09,-377.81"/>
<polygon fill="#000000" fill-opacity="0.200000" stroke="#000000" stroke-width="2" stroke-opacity="0.200000" points="499.3,-376.63 493.05,-377.83 497.19,-373 499.3,-376.63"/>
</g>
<!-- src/app/providers/layout/BaseLayoutProvider.tsx&#45;&gt;src/entities/theme/index.ts -->
<g id="edge4" class="edge">
<title>src/app/providers/layout/BaseLayoutProvider.tsx&#45;&gt;src/entities/theme/index.ts</title>
<path fill="none" stroke="#000000" stroke-width="2" stroke-opacity="0.200000" d="M335.96,-398.37C344.05,-399.94 352.23,-401.8 359.88,-404 367.42,-406.17 375.35,-409.15 382.62,-412.19"/>
<polygon fill="#000000" fill-opacity="0.200000" stroke="#000000" stroke-width="2" stroke-opacity="0.200000" points="381.67,-414.07 388.01,-414.53 383.34,-410.21 381.67,-414.07"/>
</g>
<!-- src/pages/home/ui/Page.tsx -->
<g id="node13" class="node">
<title>src/pages/home/ui/Page.tsx</title>
<g id="a_node13"><a xlink:href="src/pages/home/ui/Page.tsx" xlink:title="Page.tsx">
<path fill="#bbfeff" stroke="black" d="M431.96,-151.88C431.96,-151.88 389.79,-151.88 389.79,-151.88 386.83,-151.88 383.88,-148.92 383.88,-145.96 383.88,-145.96 383.88,-140.04 383.88,-140.04 383.88,-137.08 386.83,-134.12 389.79,-134.12 389.79,-134.12 431.96,-134.12 431.96,-134.12 434.92,-134.12 437.88,-137.08 437.88,-140.04 437.88,-140.04 437.88,-145.96 437.88,-145.96 437.88,-148.92 434.92,-151.88 431.96,-151.88"/>
<text text-anchor="start" x="393.25" y="-139.32" font-family="Helvetica,sans-Serif" font-size="9.00">Page.tsx</text>
</a>
</g>
</g>
<!-- src/pages/home/index.ts&#45;&gt;src/pages/home/ui/Page.tsx -->
<g id="edge15" class="edge">
<title>src/pages/home/index.ts&#45;&gt;src/pages/home/ui/Page.tsx</title>
<path fill="none" stroke="#000000" stroke-width="2" stroke-opacity="0.200000" d="M306.99,-153.34C327.05,-151.32 354.74,-148.54 376.34,-146.37"/>
<polygon fill="#000000" fill-opacity="0.200000" stroke="#000000" stroke-width="2" stroke-opacity="0.200000" points="382.63,-147.85 376.45,-146.36 382.21,-143.67 382.63,-147.85"/>
</g>
<!-- src/pages/login/ui/Page.tsx -->
<g id="node14" class="node">
<title>src/pages/login/ui/Page.tsx</title>
<g id="a_node14"><a xlink:href="src/pages/login/ui/Page.tsx" xlink:title="Page.tsx">
<path fill="#bbfeff" stroke="black" d="M431.96,-57.88C431.96,-57.88 389.79,-57.88 389.79,-57.88 386.83,-57.88 383.88,-54.92 383.88,-51.96 383.88,-51.96 383.88,-46.04 383.88,-46.04 383.88,-43.08 386.83,-40.12 389.79,-40.12 389.79,-40.12 431.96,-40.12 431.96,-40.12 434.92,-40.12 437.88,-43.08 437.88,-46.04 437.88,-46.04 437.88,-51.96 437.88,-51.96 437.88,-54.92 434.92,-57.88 431.96,-57.88"/>
<text text-anchor="start" x="393.25" y="-45.33" font-family="Helvetica,sans-Serif" font-size="9.00">Page.tsx</text>
</a>
</g>
</g>
<!-- src/pages/login/index.ts&#45;&gt;src/pages/login/ui/Page.tsx -->
<g id="edge17" class="edge">
<title>src/pages/login/index.ts&#45;&gt;src/pages/login/ui/Page.tsx</title>
<path fill="none" stroke="#000000" stroke-width="2" stroke-opacity="0.200000" d="M306.99,-59.34C327.05,-57.32 354.74,-54.54 376.34,-52.37"/>
<polygon fill="#000000" fill-opacity="0.200000" stroke="#000000" stroke-width="2" stroke-opacity="0.200000" points="382.63,-53.85 376.45,-52.36 382.21,-49.67 382.63,-53.85"/>
</g>
<!-- src/pages/profile/ui/Page.tsx -->
<g id="node16" class="node">
<title>src/pages/profile/ui/Page.tsx</title>
<g id="a_node16"><a xlink:href="src/pages/profile/ui/Page.tsx" xlink:title="Page.tsx">
<path fill="#bbfeff" stroke="black" d="M431.96,-245.88C431.96,-245.88 389.79,-245.88 389.79,-245.88 386.83,-245.88 383.88,-242.92 383.88,-239.96 383.88,-239.96 383.88,-234.04 383.88,-234.04 383.88,-231.08 386.83,-228.12 389.79,-228.12 389.79,-228.12 431.96,-228.12 431.96,-228.12 434.92,-228.12 437.88,-231.08 437.88,-234.04 437.88,-234.04 437.88,-239.96 437.88,-239.96 437.88,-242.92 434.92,-245.88 431.96,-245.88"/>
<text text-anchor="start" x="393.25" y="-233.32" font-family="Helvetica,sans-Serif" font-size="9.00">Page.tsx</text>
</a>
</g>
</g>
<!-- src/pages/profile/index.ts&#45;&gt;src/pages/profile/ui/Page.tsx -->
<g id="edge19" class="edge">
<title>src/pages/profile/index.ts&#45;&gt;src/pages/profile/ui/Page.tsx</title>
<path fill="none" stroke="#000000" stroke-width="2" stroke-opacity="0.200000" d="M306.99,-247.34C327.05,-245.32 354.74,-242.54 376.34,-240.37"/>
<polygon fill="#000000" fill-opacity="0.200000" stroke="#000000" stroke-width="2" stroke-opacity="0.200000" points="382.63,-241.85 376.45,-240.36 382.21,-237.67 382.63,-241.85"/>
</g>
<!-- src/entities/theme/model/types.ts -->
<g id="node12" class="node">
<title>src/entities/theme/model/types.ts</title>
<g id="a_node12"><a xlink:href="src/entities/theme/model/types.ts" xlink:title="types.ts">
<path fill="#ddfeff" stroke="black" d="M700.08,-433.88C700.08,-433.88 657.92,-433.88 657.92,-433.88 654.96,-433.88 652,-430.92 652,-427.96 652,-427.96 652,-422.04 652,-422.04 652,-419.08 654.96,-416.12 657.92,-416.12 657.92,-416.12 700.08,-416.12 700.08,-416.12 703.04,-416.12 706,-419.08 706,-422.04 706,-422.04 706,-427.96 706,-427.96 706,-430.92 703.04,-433.88 700.08,-433.88"/>
<text text-anchor="start" x="663.62" y="-421.32" font-family="Helvetica,sans-Serif" font-size="9.00">types.ts</text>
</a>
</g>
</g>
<!-- src/entities/theme/model/store.ts&#45;&gt;src/entities/theme/model/types.ts -->
<g id="edge13" class="edge">
<title>src/entities/theme/model/store.ts&#45;&gt;src/entities/theme/model/types.ts</title>
<path fill="none" stroke="#000000" stroke-opacity="0.200000" d="M639.44,-425C641.09,-425 642.77,-425 644.45,-425"/>
<polygon fill="none" stroke="#000000" stroke-opacity="0.200000" points="644.28,-427.1 650.28,-425 644.28,-422.9 644.28,-427.1"/>
</g>
<!-- src/entities/theme/model/ThemeProvider.tsx&#45;&gt;src/entities/theme/model/store.ts -->
<g id="edge12" class="edge">
<title>src/entities/theme/model/ThemeProvider.tsx&#45;&gt;src/entities/theme/model/store.ts</title>
<path fill="none" stroke="#000000" stroke-width="2" stroke-opacity="0.200000" d="M562.69,-425C567.18,-425 571.69,-425 576.05,-425"/>
<polygon fill="#000000" fill-opacity="0.200000" stroke="#000000" stroke-width="2" stroke-opacity="0.200000" points="575.72,-427.1 581.72,-425 575.72,-422.9 575.72,-427.1"/>
</g>
<!-- src/entities/theme/ui/ThemeToggler.tsx&#45;&gt;src/entities/theme/model/store.ts -->
<g id="edge14" class="edge">
<title>src/entities/theme/ui/ThemeToggler.tsx&#45;&gt;src/entities/theme/model/store.ts</title>
<path fill="none" stroke="#000000" stroke-width="2" stroke-opacity="0.200000" d="M531.79,-374.38C547.09,-384.15 571.24,-399.59 588.86,-410.85"/>
<polygon fill="#000000" fill-opacity="0.200000" stroke="#000000" stroke-width="2" stroke-opacity="0.200000" points="587.7,-412.6 593.88,-414.06 589.96,-409.06 587.7,-412.6"/>
</g>
<!-- src/pages/home/ui/Page.tsx&#45;&gt;src/entities/theme/ui/ThemeToggler.tsx -->
<g id="edge16" class="edge">
<title>src/pages/home/ui/Page.tsx&#45;&gt;src/entities/theme/ui/ThemeToggler.tsx</title>
<path fill="none" stroke="#000000" stroke-width="2" stroke-opacity="0.200000" d="M417.42,-151.92C425.83,-165.63 442.08,-192.84 453.88,-217 476.35,-263.02 498.19,-319.43 508.67,-347.46"/>
<polygon fill="#000000" fill-opacity="0.200000" stroke="#000000" stroke-width="2" stroke-opacity="0.200000" points="506.67,-348.09 510.73,-352.98 510.61,-346.62 506.67,-348.09"/>
</g>
<!-- src/pages/login/ui/LoginForm.tsx -->
<g id="node15" class="node">
<title>src/pages/login/ui/LoginForm.tsx</title>
<g id="a_node15"><a xlink:href="src/pages/login/ui/LoginForm.tsx" xlink:title="LoginForm.tsx">
<path fill="#bbfeff" stroke="black" d="M547.08,-57.88C547.08,-57.88 485.17,-57.88 485.17,-57.88 482.21,-57.88 479.25,-54.92 479.25,-51.96 479.25,-51.96 479.25,-46.04 479.25,-46.04 479.25,-43.08 482.21,-40.12 485.17,-40.12 485.17,-40.12 547.08,-40.12 547.08,-40.12 550.04,-40.12 553,-43.08 553,-46.04 553,-46.04 553,-51.96 553,-51.96 553,-54.92 550.04,-57.88 547.08,-57.88"/>
<text text-anchor="start" x="487.25" y="-45.33" font-family="Helvetica,sans-Serif" font-size="9.00">LoginForm.tsx</text>
</a>
</g>
</g>
<!-- src/pages/login/ui/Page.tsx&#45;&gt;src/pages/login/ui/LoginForm.tsx -->
<g id="edge18" class="edge">
<title>src/pages/login/ui/Page.tsx&#45;&gt;src/pages/login/ui/LoginForm.tsx</title>
<path fill="none" stroke="#000000" stroke-width="2" stroke-opacity="0.200000" d="M438.2,-49C447.91,-49 459.2,-49 470.1,-49"/>
<polygon fill="#000000" fill-opacity="0.200000" stroke="#000000" stroke-width="2" stroke-opacity="0.200000" points="470.09,-51.1 476.09,-49 470.09,-46.9 470.09,-51.1"/>
</g>
<!-- src/vite&#45;env.d.ts -->
<g id="node17" class="node">
<title>src/vite&#45;env.d.ts</title>
<g id="a_node17"><a xlink:href="src/vite-env.d.ts" xlink:title="vite&#45;env.d.ts">
<path fill="#ccffcc" stroke="black" d="M77.46,-507.88C77.46,-507.88 24.54,-507.88 24.54,-507.88 21.58,-507.88 18.62,-504.92 18.62,-501.96 18.62,-501.96 18.62,-496.04 18.62,-496.04 18.62,-493.08 21.58,-490.12 24.54,-490.12 24.54,-490.12 77.46,-490.12 77.46,-490.12 80.42,-490.12 83.38,-493.08 83.38,-496.04 83.38,-496.04 83.38,-501.96 83.38,-501.96 83.38,-504.92 80.42,-507.88 77.46,-507.88"/>
<text text-anchor="start" x="26.62" y="-495.32" font-family="Helvetica,sans-Serif" font-size="9.00">vite&#45;env.d.ts</text>
</a>
</g>
</g>
</g>
</svg>
