<?xml version="1.0" encoding="UTF-8" standalone="no"?>
<!DOCTYPE svg PUBLIC "-//W3C//DTD SVG 1.1//EN"
 "http://www.w3.org/Graphics/SVG/1.1/DTD/svg11.dtd">
<!-- Generated by graphviz version 12.0.0 (20240704.0754)
 -->
<!-- Title: dependency&#45;cruiser output Pages: 1 -->
<svg width="336pt" height="300pt"
 viewBox="0.00 0.00 336.00 300.00" xmlns="http://www.w3.org/2000/svg" xmlns:xlink="http://www.w3.org/1999/xlink">
<g id="graph0" class="graph" transform="scale(1 1) rotate(0) translate(4 296)">
<title>dependency&#45;cruiser output</title>
<polygon fill="white" stroke="none" points="-4,4 -4,-296 332,-296 332,4 -4,4"/>
<g id="clust1" class="cluster">
<title>cluster_src</title>
<path fill="#ffffff" stroke="black" stroke-width="2" d="M20,-8C20,-8 308,-8 308,-8 314,-8 320,-14 320,-20 320,-20 320,-272 320,-272 320,-278 314,-284 308,-284 308,-284 20,-284 20,-284 14,-284 8,-278 8,-272 8,-272 8,-20 8,-20 8,-14 14,-8 20,-8"/>
<text text-anchor="middle" x="164" y="-271.45" font-family="Helvetica,sans-Serif" font-weight="bold" font-size="9.00">src</text>
</g>
<g id="clust2" class="cluster">
<title>cluster_src/app</title>
<path fill="#ffffff" stroke="black" stroke-width="2" d="M28,-16C28,-16 222,-16 222,-16 228,-16 234,-22 234,-28 234,-28 234,-116 234,-116 234,-122 228,-128 222,-128 222,-128 28,-128 28,-128 22,-128 16,-122 16,-116 16,-116 16,-28 16,-28 16,-22 22,-16 28,-16"/>
<text text-anchor="middle" x="125" y="-115.45" font-family="Helvetica,sans-Serif" font-weight="bold" font-size="9.00">app</text>
</g>
<g id="clust3" class="cluster">
<title>cluster_src/app/providers</title>
<path fill="#ffffff" stroke="black" stroke-width="2" d="M98,-50C98,-50 214,-50 214,-50 220,-50 226,-56 226,-62 226,-62 226,-90 226,-90 226,-96 220,-102 214,-102 214,-102 98,-102 98,-102 92,-102 86,-96 86,-90 86,-90 86,-62 86,-62 86,-56 92,-50 98,-50"/>
<text text-anchor="middle" x="156" y="-89.45" font-family="Helvetica,sans-Serif" font-weight="bold" font-size="9.00">providers</text>
</g>
<g id="clust4" class="cluster">
<title>cluster_src/entities</title>
<path fill="#ffffff" stroke="black" stroke-width="2" d="M254,-136C254,-136 300,-136 300,-136 306,-136 312,-142 312,-148 312,-148 312,-176 312,-176 312,-182 306,-188 300,-188 300,-188 254,-188 254,-188 248,-188 242,-182 242,-176 242,-176 242,-148 242,-148 242,-142 248,-136 254,-136"/>
<text text-anchor="middle" x="277" y="-175.45" font-family="Helvetica,sans-Serif" font-weight="bold" font-size="9.00">entities</text>
</g>
<g id="clust5" class="cluster">
<title>cluster_src/pages</title>
<path fill="#ffffff" stroke="black" stroke-width="2" d="M168,-136C168,-136 214,-136 214,-136 220,-136 226,-142 226,-148 226,-148 226,-236 226,-236 226,-242 220,-248 214,-248 214,-248 168,-248 168,-248 162,-248 156,-242 156,-236 156,-236 156,-148 156,-148 156,-142 162,-136 168,-136"/>
<text text-anchor="middle" x="191" y="-235.45" font-family="Helvetica,sans-Serif" font-weight="bold" font-size="9.00">pages</text>
</g>
<!-- src/app/entry.css -->
<g id="node1" class="node">
<title>src/app/entry.css</title>
<g id="a_node1"><a xlink:href="src/app/entry.css" xlink:title="entry.css">
<path fill="#ffffcc" stroke="black" d="M142.08,-41.88C142.08,-41.88 99.92,-41.88 99.92,-41.88 96.96,-41.88 94,-38.92 94,-35.96 94,-35.96 94,-30.04 94,-30.04 94,-27.08 96.96,-24.12 99.92,-24.12 99.92,-24.12 142.08,-24.12 142.08,-24.12 145.04,-24.12 148,-27.08 148,-30.04 148,-30.04 148,-35.96 148,-35.96 148,-38.92 145.04,-41.88 142.08,-41.88"/>
<text text-anchor="start" x="103" y="-29.32" font-family="Helvetica,sans-Serif" font-size="9.00">entry.css</text>
</a>
</g>
</g>
<!-- src/app/entry.tsx -->
<g id="node2" class="node">
<title>src/app/entry.tsx</title>
<g id="a_node2"><a xlink:href="src/app/entry.tsx" xlink:title="entry.tsx">
<path fill="#bbfeff" stroke="black" d="M72.08,-75.88C72.08,-75.88 29.92,-75.88 29.92,-75.88 26.96,-75.88 24,-72.92 24,-69.96 24,-69.96 24,-64.04 24,-64.04 24,-61.08 26.96,-58.12 29.92,-58.12 29.92,-58.12 72.08,-58.12 72.08,-58.12 75.04,-58.12 78,-61.08 78,-64.04 78,-64.04 78,-69.96 78,-69.96 78,-72.92 75.04,-75.88 72.08,-75.88"/>
<text text-anchor="start" x="34.12" y="-63.33" font-family="Helvetica,sans-Serif" font-size="9.00">entry.tsx</text>
</a>
</g>
</g>
<!-- src/app/entry.tsx&#45;&gt;src/app/entry.css -->
<g id="edge1" class="edge">
<title>src/app/entry.tsx&#45;&gt;src/app/entry.css</title>
<path fill="none" stroke="#000000" stroke-width="2" stroke-opacity="0.200000" d="M66.64,-57.77C72.55,-54.21 79.5,-50.23 86,-47 86.6,-46.7 87.21,-46.4 87.82,-46.11"/>
<polygon fill="#000000" fill-opacity="0.200000" stroke="#000000" stroke-width="2" stroke-opacity="0.200000" points="88.69,-48.02 93.28,-43.63 86.95,-44.2 88.69,-48.02"/>
</g>
<!-- src/app/providers/router/ -->
<g id="node3" class="node">
<title>src/app/providers/router/</title>
<g id="a_node3"><a xlink:href="src/app/providers/router/" xlink:title="router">
<polygon fill="#ffffcc" stroke="black" points="148,-75.88 95.97,-75.88 94,-73.9 94,-58.12 146.03,-58.12 148,-60.1 148,-75.88"/>
<polyline fill="none" stroke="black" points="146.03,-73.9 94,-73.9"/>
<polyline fill="none" stroke="black" points="146.03,-73.9 146.03,-58.12"/>
<polyline fill="none" stroke="black" points="146.03,-73.9 148,-75.88"/>
<text text-anchor="start" x="109" y="-63.33" font-family="Helvetica,sans-Serif" font-size="9.00">router</text>
</a>
</g>
</g>
<!-- src/app/entry.tsx&#45;&gt;src/app/providers/router/ -->
<g id="edge2" class="edge">
<title>src/app/entry.tsx&#45;&gt;src/app/providers/router/</title>
<path fill="none" stroke="#000000" stroke-width="2" stroke-opacity="0.200000" d="M78.49,-67C80.7,-67 82.97,-67 85.24,-67"/>
<polygon fill="#000000" fill-opacity="0.200000" stroke="#000000" stroke-width="2" stroke-opacity="0.200000" points="84.9,-69.1 90.9,-67 84.9,-64.9 84.9,-69.1"/>
</g>
<!-- src/entities/theme/ -->
<g id="node4" class="node">
<title>src/entities/theme/</title>
<g id="a_node4"><a xlink:href="src/entities/theme/" xlink:title="theme">
<polygon fill="#ffffcc" stroke="black" points="304,-161.88 251.97,-161.88 250,-159.9 250,-144.12 302.03,-144.12 304,-146.1 304,-161.88"/>
<polyline fill="none" stroke="black" points="302.03,-159.9 250,-159.9"/>
<polyline fill="none" stroke="black" points="302.03,-159.9 302.03,-144.12"/>
<polyline fill="none" stroke="black" points="302.03,-159.9 304,-161.88"/>
<text text-anchor="start" x="264.25" y="-149.32" font-family="Helvetica,sans-Serif" font-size="9.00">theme</text>
</a>
</g>
</g>
<!-- src/app/entry.tsx&#45;&gt;src/entities/theme/ -->
<g id="edge3" class="edge">
<title>src/app/entry.tsx&#45;&gt;src/entities/theme/</title>
<path fill="none" stroke="#000000" stroke-width="2" stroke-opacity="0.200000" d="M53.81,-76.15C60.57,-107.53 87.54,-211.06 156,-251 185.94,-268.47 205.06,-270.08 234,-251 261.04,-233.17 270.74,-193.92 274.17,-170.87"/>
<polygon fill="#000000" fill-opacity="0.200000" stroke="#000000" stroke-width="2" stroke-opacity="0.200000" points="276.23,-171.31 274.9,-165.09 272.06,-170.78 276.23,-171.31"/>
</g>
<!-- src/app/providers/layout/ -->
<g id="node5" class="node">
<title>src/app/providers/layout/</title>
<g id="a_node5"><a xlink:href="src/app/providers/layout/" xlink:title="layout">
<polygon fill="#ffffcc" stroke="black" points="218,-75.88 165.97,-75.88 164,-73.9 164,-58.12 216.03,-58.12 218,-60.1 218,-75.88"/>
<polyline fill="none" stroke="black" points="216.03,-73.9 164,-73.9"/>
<polyline fill="none" stroke="black" points="216.03,-73.9 216.03,-58.12"/>
<polyline fill="none" stroke="black" points="216.03,-73.9 218,-75.88"/>
<text text-anchor="start" x="178.62" y="-63.33" font-family="Helvetica,sans-Serif" font-size="9.00">layout</text>
</a>
</g>
</g>
<!-- src/app/providers/router/&#45;&gt;src/app/providers/layout/ -->
<g id="edge5" class="edge">
<title>src/app/providers/router/&#45;&gt;src/app/providers/layout/</title>
<path fill="none" stroke="#000000" stroke-width="2" stroke-opacity="0.200000" d="M148.49,-67C150.7,-67 152.97,-67 155.24,-67"/>
<polygon fill="#000000" fill-opacity="0.200000" stroke="#000000" stroke-width="2" stroke-opacity="0.200000" points="154.9,-69.1 160.9,-67 154.9,-64.9 154.9,-69.1"/>
</g>
<!-- src/pages/home/ -->
<g id="node6" class="node">
<title>src/pages/home/</title>
<g id="a_node6"><a xlink:href="src/pages/home/" xlink:title="home">
<polygon fill="#ffffcc" stroke="black" points="218,-161.88 165.97,-161.88 164,-159.9 164,-144.12 216.03,-144.12 218,-146.1 218,-161.88"/>
<polyline fill="none" stroke="black" points="216.03,-159.9 164,-159.9"/>
<polyline fill="none" stroke="black" points="216.03,-159.9 216.03,-144.12"/>
<polyline fill="none" stroke="black" points="216.03,-159.9 218,-161.88"/>
<text text-anchor="start" x="179.38" y="-149.32" font-family="Helvetica,sans-Serif" font-size="9.00">home</text>
</a>
</g>
</g>
<!-- src/app/providers/router/&#45;&gt;src/pages/home/ -->
<g id="edge6" class="edge">
<title>src/app/providers/router/&#45;&gt;src/pages/home/</title>
<path fill="none" stroke="#000000" stroke-width="2" stroke-opacity="0.200000" d="M129.28,-76.2C140.73,-90.69 163.11,-118.99 177.27,-136.9"/>
<polygon fill="#000000" fill-opacity="0.200000" stroke="#000000" stroke-width="2" stroke-opacity="0.200000" points="175.53,-138.08 180.9,-141.49 178.82,-135.48 175.53,-138.08"/>
</g>
<!-- src/pages/login/ -->
<g id="node7" class="node">
<title>src/pages/login/</title>
<g id="a_node7"><a xlink:href="src/pages/login/" xlink:title="login">
<polygon fill="#ffffcc" stroke="black" points="218,-191.88 165.97,-191.88 164,-189.9 164,-174.12 216.03,-174.12 218,-176.1 218,-191.88"/>
<polyline fill="none" stroke="black" points="216.03,-189.9 164,-189.9"/>
<polyline fill="none" stroke="black" points="216.03,-189.9 216.03,-174.12"/>
<polyline fill="none" stroke="black" points="216.03,-189.9 218,-191.88"/>
<text text-anchor="start" x="180.88" y="-179.32" font-family="Helvetica,sans-Serif" font-size="9.00">login</text>
</a>
</g>
</g>
<!-- src/app/providers/router/&#45;&gt;src/pages/login/ -->
<g id="edge7" class="edge">
<title>src/app/providers/router/&#45;&gt;src/pages/login/</title>
<path fill="none" stroke="#000000" stroke-width="2" stroke-opacity="0.200000" d="M122.67,-76.33C124.54,-95.78 131.42,-141.08 156,-168 156.27,-168.3 156.55,-168.59 156.84,-168.88"/>
<polygon fill="#000000" fill-opacity="0.200000" stroke="#000000" stroke-width="2" stroke-opacity="0.200000" points="155.19,-170.26 161.22,-172.27 157.76,-166.93 155.19,-170.26"/>
</g>
<!-- src/pages/profile/ -->
<g id="node8" class="node">
<title>src/pages/profile/</title>
<g id="a_node8"><a xlink:href="src/pages/profile/" xlink:title="profile">
<polygon fill="#ffffcc" stroke="black" points="218,-221.88 165.97,-221.88 164,-219.9 164,-204.12 216.03,-204.12 218,-206.1 218,-221.88"/>
<polyline fill="none" stroke="black" points="216.03,-219.9 164,-219.9"/>
<polyline fill="none" stroke="black" points="216.03,-219.9 216.03,-204.12"/>
<polyline fill="none" stroke="black" points="216.03,-219.9 218,-221.88"/>
<text text-anchor="start" x="178.25" y="-209.32" font-family="Helvetica,sans-Serif" font-size="9.00">profile</text>
</a>
</g>
</g>
<!-- src/app/providers/router/&#45;&gt;src/pages/profile/ -->
<g id="edge8" class="edge">
<title>src/app/providers/router/&#45;&gt;src/pages/profile/</title>
<path fill="none" stroke="#000000" stroke-width="2" stroke-opacity="0.200000" d="M121.8,-76.16C121.77,-99.37 124.8,-161.3 156,-198 156.27,-198.32 156.55,-198.63 156.84,-198.94"/>
<polygon fill="#000000" fill-opacity="0.200000" stroke="#000000" stroke-width="2" stroke-opacity="0.200000" points="155.41,-200.49 161.41,-202.59 158.03,-197.2 155.41,-200.49"/>
</g>
<!-- src/app/providers/layout/&#45;&gt;src/entities/theme/ -->
<g id="edge4" class="edge">
<title>src/app/providers/layout/&#45;&gt;src/entities/theme/</title>
<path fill="none" stroke="#000000" stroke-width="2" stroke-opacity="0.200000" d="M200.99,-76.2C215.39,-90.95 243.77,-120.01 261.2,-137.84"/>
<polygon fill="#000000" fill-opacity="0.200000" stroke="#000000" stroke-width="2" stroke-opacity="0.200000" points="259.27,-138.87 264.96,-141.7 262.27,-135.94 259.27,-138.87"/>
</g>
<!-- src/pages/home/&#45;&gt;src/entities/theme/ -->
<g id="edge9" class="edge">
<title>src/pages/home/&#45;&gt;src/entities/theme/</title>
<path fill="none" stroke="#000000" stroke-width="2" stroke-opacity="0.200000" d="M218.12,-153C225.32,-153 233.25,-153 240.87,-153"/>
<polygon fill="#000000" fill-opacity="0.200000" stroke="#000000" stroke-width="2" stroke-opacity="0.200000" points="240.58,-155.1 246.58,-153 240.58,-150.9 240.58,-155.1"/>
</g>
</g>
</svg>
