<?xml version="1.0" encoding="UTF-8" standalone="no"?>
<!DOCTYPE svg PUBLIC "-//W3C//DTD SVG 1.1//EN"
 "http://www.w3.org/Graphics/SVG/1.1/DTD/svg11.dtd">
<!-- Generated by graphviz version 14.1.2 (20260124.0452)
 -->
<!-- Title: dependency&#45;cruiser output Pages: 1 -->
<svg width="850pt" height="520pt"
 viewBox="0.00 0.00 850.00 520.00" xmlns="http://www.w3.org/2000/svg" xmlns:xlink="http://www.w3.org/1999/xlink">
<g id="graph0" class="graph" transform="scale(1 1) rotate(0) translate(4 516)">
<title>dependency&#45;cruiser output</title>
<polygon fill="white" stroke="none" points="-4,4 -4,-516 846.12,-516 846.12,4 -4,4"/>
<g id="clust1" class="cluster">
<title>cluster_src</title>
<path fill="#ffffff" stroke="black" stroke-width="2" d="M20,-8C20,-8 822.12,-8 822.12,-8 828.12,-8 834.12,-14 834.12,-20 834.12,-20 834.12,-492 834.12,-492 834.12,-498 828.12,-504 822.12,-504 822.12,-504 20,-504 20,-504 14,-504 8,-498 8,-492 8,-492 8,-20 8,-20 8,-14 14,-8 20,-8"/>
<text xml:space="preserve" text-anchor="middle" x="421.06" y="-491.45" font-family="Helvetica,sans-Serif" font-weight="bold" font-size="9.00">src</text>
</g>
<g id="clust2" class="cluster">
<title>cluster_src/app</title>
<path fill="#ffffff" stroke="black" stroke-width="2" d="M28,-16C28,-16 342.5,-16 342.5,-16 348.5,-16 354.5,-22 354.5,-28 354.5,-28 354.5,-150 354.5,-150 354.5,-156 348.5,-162 342.5,-162 342.5,-162 28,-162 28,-162 22,-162 16,-156 16,-150 16,-150 16,-28 16,-28 16,-22 22,-16 28,-16"/>
<text xml:space="preserve" text-anchor="middle" x="185.25" y="-149.45" font-family="Helvetica,sans-Serif" font-weight="bold" font-size="9.00">app</text>
</g>
<g id="clust3" class="cluster">
<title>cluster_src/app/providers</title>
<path fill="#ffffff" stroke="black" stroke-width="2" d="M98,-50C98,-50 334.5,-50 334.5,-50 340.5,-50 346.5,-56 346.5,-62 346.5,-62 346.5,-124 346.5,-124 346.5,-130 340.5,-136 334.5,-136 334.5,-136 98,-136 98,-136 92,-136 86,-130 86,-124 86,-124 86,-62 86,-62 86,-56 92,-50 98,-50"/>
<text xml:space="preserve" text-anchor="middle" x="216.25" y="-123.45" font-family="Helvetica,sans-Serif" font-weight="bold" font-size="9.00">providers</text>
</g>
<g id="clust4" class="cluster">
<title>cluster_src/app/providers/layout</title>
<path fill="#ffffff" stroke="black" stroke-width="2" d="M221.75,-58C221.75,-58 326.5,-58 326.5,-58 332.5,-58 338.5,-64 338.5,-70 338.5,-70 338.5,-98 338.5,-98 338.5,-104 332.5,-110 326.5,-110 326.5,-110 221.75,-110 221.75,-110 215.75,-110 209.75,-104 209.75,-98 209.75,-98 209.75,-70 209.75,-70 209.75,-64 215.75,-58 221.75,-58"/>
<text xml:space="preserve" text-anchor="middle" x="274.12" y="-97.45" font-family="Helvetica,sans-Serif" font-weight="bold" font-size="9.00">layout</text>
</g>
<g id="clust5" class="cluster">
<title>cluster_src/app/providers/router</title>
<path fill="#ffffff" stroke="black" stroke-width="2" d="M106,-58C106,-58 189.75,-58 189.75,-58 195.75,-58 201.75,-64 201.75,-70 201.75,-70 201.75,-98 201.75,-98 201.75,-104 195.75,-110 189.75,-110 189.75,-110 106,-110 106,-110 100,-110 94,-104 94,-98 94,-98 94,-70 94,-70 94,-64 100,-58 106,-58"/>
<text xml:space="preserve" text-anchor="middle" x="147.88" y="-97.45" font-family="Helvetica,sans-Serif" font-weight="bold" font-size="9.00">router</text>
</g>
<g id="clust6" class="cluster">
<title>cluster_src/entities</title>
<path fill="#ffffff" stroke="black" stroke-width="2" d="M460.5,-32C460.5,-32 814.12,-32 814.12,-32 820.12,-32 826.12,-38 826.12,-44 826.12,-44 826.12,-150 826.12,-150 826.12,-156 820.12,-162 814.12,-162 814.12,-162 460.5,-162 460.5,-162 454.5,-162 448.5,-156 448.5,-150 448.5,-150 448.5,-44 448.5,-44 448.5,-38 454.5,-32 460.5,-32"/>
<text xml:space="preserve" text-anchor="middle" x="637.31" y="-149.45" font-family="Helvetica,sans-Serif" font-weight="bold" font-size="9.00">entities</text>
</g>
<g id="clust7" class="cluster">
<title>cluster_src/entities/theme</title>
<path fill="#ffffff" stroke="black" stroke-width="2" d="M468.5,-40C468.5,-40 806.12,-40 806.12,-40 812.12,-40 818.12,-46 818.12,-52 818.12,-52 818.12,-124 818.12,-124 818.12,-130 812.12,-136 806.12,-136 806.12,-136 468.5,-136 468.5,-136 462.5,-136 456.5,-130 456.5,-124 456.5,-124 456.5,-52 456.5,-52 456.5,-46 462.5,-40 468.5,-40"/>
<text xml:space="preserve" text-anchor="middle" x="637.31" y="-123.45" font-family="Helvetica,sans-Serif" font-weight="bold" font-size="9.00">theme</text>
</g>
<g id="clust8" class="cluster">
<title>cluster_src/entities/theme/model</title>
<path fill="#ffffff" stroke="black" stroke-width="2" d="M685.12,-53C685.12,-53 798.12,-53 798.12,-53 804.12,-53 810.12,-59 810.12,-65 810.12,-65 810.12,-93 810.12,-93 810.12,-99 804.12,-105 798.12,-105 798.12,-105 685.12,-105 685.12,-105 679.12,-105 673.12,-99 673.12,-93 673.12,-93 673.12,-65 673.12,-65 673.12,-59 679.12,-53 685.12,-53"/>
<text xml:space="preserve" text-anchor="middle" x="741.62" y="-92.45" font-family="Helvetica,sans-Serif" font-weight="bold" font-size="9.00">model</text>
</g>
<g id="clust9" class="cluster">
<title>cluster_src/entities/theme/ui</title>
<path fill="#ffffff" stroke="black" stroke-width="2" d="M572.38,-58C572.38,-58 653.12,-58 653.12,-58 659.12,-58 665.12,-64 665.12,-70 665.12,-70 665.12,-98 665.12,-98 665.12,-104 659.12,-110 653.12,-110 653.12,-110 572.38,-110 572.38,-110 566.38,-110 560.38,-104 560.38,-98 560.38,-98 560.38,-70 560.38,-70 560.38,-64 566.38,-58 572.38,-58"/>
<text xml:space="preserve" text-anchor="middle" x="612.75" y="-97.45" font-family="Helvetica,sans-Serif" font-weight="bold" font-size="9.00">ui</text>
</g>
<g id="clust10" class="cluster">
<title>cluster_src/pages</title>
<path fill="#ffffff" stroke="black" stroke-width="2" d="M243.12,-170C243.12,-170 540.38,-170 540.38,-170 546.38,-170 552.38,-176 552.38,-182 552.38,-182 552.38,-466 552.38,-466 552.38,-472 546.38,-478 540.38,-478 540.38,-478 243.12,-478 243.12,-478 237.13,-478 231.12,-472 231.12,-466 231.12,-466 231.12,-182 231.12,-182 231.12,-176 237.12,-170 243.12,-170"/>
<text xml:space="preserve" text-anchor="middle" x="391.75" y="-465.45" font-family="Helvetica,sans-Serif" font-weight="bold" font-size="9.00">pages</text>
</g>
<g id="clust11" class="cluster">
<title>cluster_src/pages/home</title>
<path fill="#ffffff" stroke="black" stroke-width="2" d="M251.12,-178C251.12,-178 428.5,-178 428.5,-178 434.5,-178 440.5,-184 440.5,-190 440.5,-190 440.5,-252 440.5,-252 440.5,-258 434.5,-264 428.5,-264 428.5,-264 251.12,-264 251.12,-264 245.12,-264 239.12,-258 239.12,-252 239.12,-252 239.12,-190 239.12,-190 239.12,-184 245.12,-178 251.12,-178"/>
<text xml:space="preserve" text-anchor="middle" x="339.81" y="-251.45" font-family="Helvetica,sans-Serif" font-weight="bold" font-size="9.00">home</text>
</g>
<g id="clust12" class="cluster">
<title>cluster_src/pages/home/ui</title>
<path fill="#ffffff" stroke="black" stroke-width="2" d="M374.5,-186C374.5,-186 420.5,-186 420.5,-186 426.5,-186 432.5,-192 432.5,-198 432.5,-198 432.5,-226 432.5,-226 432.5,-232 426.5,-238 420.5,-238 420.5,-238 374.5,-238 374.5,-238 368.5,-238 362.5,-232 362.5,-226 362.5,-226 362.5,-198 362.5,-198 362.5,-192 368.5,-186 374.5,-186"/>
<text xml:space="preserve" text-anchor="middle" x="397.5" y="-225.45" font-family="Helvetica,sans-Serif" font-weight="bold" font-size="9.00">ui</text>
</g>
<g id="clust13" class="cluster">
<title>cluster_src/pages/login</title>
<path fill="#ffffff" stroke="black" stroke-width="2" d="M251.12,-272C251.12,-272 532.38,-272 532.38,-272 538.38,-272 544.38,-278 544.38,-284 544.38,-284 544.38,-346 544.38,-346 544.38,-352 538.38,-358 532.38,-358 532.38,-358 251.12,-358 251.12,-358 245.13,-358 239.12,-352 239.12,-346 239.12,-346 239.12,-284 239.12,-284 239.12,-278 245.12,-272 251.12,-272"/>
<text xml:space="preserve" text-anchor="middle" x="391.75" y="-345.45" font-family="Helvetica,sans-Serif" font-weight="bold" font-size="9.00">login</text>
</g>
<g id="clust14" class="cluster">
<title>cluster_src/pages/login/ui</title>
<path fill="#ffffff" stroke="black" stroke-width="2" d="M374.5,-280C374.5,-280 524.38,-280 524.38,-280 530.38,-280 536.38,-286 536.38,-292 536.38,-292 536.38,-320 536.38,-320 536.38,-326 530.38,-332 524.38,-332 524.38,-332 374.5,-332 374.5,-332 368.5,-332 362.5,-326 362.5,-320 362.5,-320 362.5,-292 362.5,-292 362.5,-286 368.5,-280 374.5,-280"/>
<text xml:space="preserve" text-anchor="middle" x="449.44" y="-319.45" font-family="Helvetica,sans-Serif" font-weight="bold" font-size="9.00">ui</text>
</g>
<g id="clust15" class="cluster">
<title>cluster_src/pages/profile</title>
<path fill="#ffffff" stroke="black" stroke-width="2" d="M251.12,-366C251.12,-366 428.5,-366 428.5,-366 434.5,-366 440.5,-372 440.5,-378 440.5,-378 440.5,-440 440.5,-440 440.5,-446 434.5,-452 428.5,-452 428.5,-452 251.12,-452 251.12,-452 245.12,-452 239.12,-446 239.12,-440 239.12,-440 239.12,-378 239.12,-378 239.12,-372 245.12,-366 251.12,-366"/>
<text xml:space="preserve" text-anchor="middle" x="339.81" y="-439.45" font-family="Helvetica,sans-Serif" font-weight="bold" font-size="9.00">profile</text>
</g>
<g id="clust16" class="cluster">
<title>cluster_src/pages/profile/ui</title>
<path fill="#ffffff" stroke="black" stroke-width="2" d="M374.5,-374C374.5,-374 420.5,-374 420.5,-374 426.5,-374 432.5,-380 432.5,-386 432.5,-386 432.5,-414 432.5,-414 432.5,-420 426.5,-426 420.5,-426 420.5,-426 374.5,-426 374.5,-426 368.5,-426 362.5,-420 362.5,-414 362.5,-414 362.5,-386 362.5,-386 362.5,-380 368.5,-374 374.5,-374"/>
<text xml:space="preserve" text-anchor="middle" x="397.5" y="-413.45" font-family="Helvetica,sans-Serif" font-weight="bold" font-size="9.00">ui</text>
</g>
<!-- src/app/entry.css -->
<g id="node1" class="node">
<title>src/app/entry.css</title>
<g id="a_node1"><a xlink:href="src/app/entry.css" xlink:title="entry.css">
<path fill="#ffffcc" stroke="black" d="M168.96,-41.88C168.96,-41.88 126.79,-41.88 126.79,-41.88 123.83,-41.88 120.88,-38.92 120.88,-35.96 120.88,-35.96 120.88,-30.04 120.88,-30.04 120.88,-27.08 123.83,-24.12 126.79,-24.12 126.79,-24.12 168.96,-24.12 168.96,-24.12 171.92,-24.12 174.88,-27.08 174.88,-30.04 174.88,-30.04 174.88,-35.96 174.88,-35.96 174.88,-38.92 171.92,-41.88 168.96,-41.88"/>
<text xml:space="preserve" text-anchor="start" x="129.88" y="-29.32" font-family="Helvetica,sans-Serif" font-size="9.00">entry.css</text>
</a>
</g>
</g>
<!-- src/app/entry.tsx -->
<g id="node2" class="node">
<title>src/app/entry.tsx</title>
<g id="a_node2"><a xlink:href="src/app/entry.tsx" xlink:title="entry.tsx">
<path fill="#bbfeff" stroke="black" d="M72.08,-62.88C72.08,-62.88 29.92,-62.88 29.92,-62.88 26.96,-62.88 24,-59.92 24,-56.96 24,-56.96 24,-51.04 24,-51.04 24,-48.08 26.96,-45.12 29.92,-45.12 29.92,-45.12 72.08,-45.12 72.08,-45.12 75.04,-45.12 78,-48.08 78,-51.04 78,-51.04 78,-56.96 78,-56.96 78,-59.92 75.04,-62.88 72.08,-62.88"/>
<text xml:space="preserve" text-anchor="start" x="34.12" y="-50.33" font-family="Helvetica,sans-Serif" font-size="9.00">entry.tsx</text>
</a>
</g>
</g>
<!-- src/app/entry.tsx&#45;&gt;src/app/entry.css -->
<g id="edge1" class="edge">
<title>src/app/entry.tsx&#45;&gt;src/app/entry.css</title>
<path fill="none" stroke="#000000" stroke-width="2" stroke-opacity="0.200000" d="M78.43,-48.15C88.81,-45.85 100.88,-43.18 111.96,-40.73"/>
<polygon fill="#000000" fill-opacity="0.200000" stroke="#000000" stroke-width="2" stroke-opacity="0.200000" points="112.23,-42.82 117.63,-39.47 111.32,-38.72 112.23,-42.82"/>
</g>
<!-- src/app/providers/router/RouterProvider.tsx -->
<g id="node3" class="node">
<title>src/app/providers/router/RouterProvider.tsx</title>
<g id="a_node3"><a xlink:href="src/app/providers/router/RouterProvider.tsx" xlink:title="RouterProvider.tsx">
<path fill="#bbfeff" stroke="black" d="M187.83,-83.88C187.83,-83.88 107.92,-83.88 107.92,-83.88 104.96,-83.88 102,-80.92 102,-77.96 102,-77.96 102,-72.04 102,-72.04 102,-69.08 104.96,-66.12 107.92,-66.12 107.92,-66.12 187.83,-66.12 187.83,-66.12 190.79,-66.12 193.75,-69.08 193.75,-72.04 193.75,-72.04 193.75,-77.96 193.75,-77.96 193.75,-80.92 190.79,-83.88 187.83,-83.88"/>
<text xml:space="preserve" text-anchor="start" x="110" y="-71.33" font-family="Helvetica,sans-Serif" font-size="9.00">RouterProvider.tsx</text>
</a>
</g>
</g>
<!-- src/app/entry.tsx&#45;&gt;src/app/providers/router/RouterProvider.tsx -->
<g id="edge2" class="edge">
<title>src/app/entry.tsx&#45;&gt;src/app/providers/router/RouterProvider.tsx</title>
<path fill="none" stroke="#000000" stroke-width="2" stroke-opacity="0.200000" d="M78.35,-60.26C80.93,-60.85 83.51,-61.44 86,-62 88.6,-62.58 91.27,-63.18 93.97,-63.77"/>
<polygon fill="#000000" fill-opacity="0.200000" stroke="#000000" stroke-width="2" stroke-opacity="0.200000" points="93.36,-65.79 99.67,-65.02 94.26,-61.68 93.36,-65.79"/>
</g>
<!-- src/app/providers/layout/BaseLayoutProvider.tsx -->
<g id="node4" class="node">
<title>src/app/providers/layout/BaseLayoutProvider.tsx</title>
<g id="a_node4"><a xlink:href="src/app/providers/layout/BaseLayoutProvider.tsx" xlink:title="BaseLayoutProvider.tsx">
<path fill="#bbfeff" stroke="black" d="M324.58,-83.88C324.58,-83.88 223.67,-83.88 223.67,-83.88 220.71,-83.88 217.75,-80.92 217.75,-77.96 217.75,-77.96 217.75,-72.04 217.75,-72.04 217.75,-69.08 220.71,-66.12 223.67,-66.12 223.67,-66.12 324.58,-66.12 324.58,-66.12 327.54,-66.12 330.5,-69.08 330.5,-72.04 330.5,-72.04 330.5,-77.96 330.5,-77.96 330.5,-80.92 327.54,-83.88 324.58,-83.88"/>
<text xml:space="preserve" text-anchor="start" x="225.75" y="-71.33" font-family="Helvetica,sans-Serif" font-size="9.00">BaseLayoutProvider.tsx</text>
</a>
</g>
</g>
<!-- src/app/providers/router/RouterProvider.tsx&#45;&gt;src/app/providers/layout/BaseLayoutProvider.tsx -->
<g id="edge4" class="edge">
<title>src/app/providers/router/RouterProvider.tsx&#45;&gt;src/app/providers/layout/BaseLayoutProvider.tsx</title>
<path fill="none" stroke="#000000" stroke-width="2" stroke-opacity="0.200000" d="M194.08,-75C198.85,-75 203.77,-75 208.7,-75"/>
<polygon fill="#000000" fill-opacity="0.200000" stroke="#000000" stroke-width="2" stroke-opacity="0.200000" points="208.55,-77.1 214.55,-75 208.55,-72.9 208.55,-77.1"/>
</g>
<!-- src/pages/home/index.ts -->
<g id="node6" class="node">
<title>src/pages/home/index.ts</title>
<g id="a_node6"><a xlink:href="src/pages/home/index.ts" xlink:title="index.ts">
<path fill="#ddfeff" stroke="black" d="M295.21,-207.88C295.21,-207.88 253.04,-207.88 253.04,-207.88 250.08,-207.88 247.12,-204.92 247.12,-201.96 247.12,-201.96 247.12,-196.04 247.12,-196.04 247.12,-193.08 250.08,-190.12 253.04,-190.12 253.04,-190.12 295.21,-190.12 295.21,-190.12 298.17,-190.12 301.12,-193.08 301.12,-196.04 301.12,-196.04 301.12,-201.96 301.12,-201.96 301.12,-204.92 298.17,-207.88 295.21,-207.88"/>
<text xml:space="preserve" text-anchor="start" x="258.38" y="-195.32" font-family="Helvetica,sans-Serif" font-size="9.00">index.ts</text>
</a>
</g>
</g>
<!-- src/app/providers/router/RouterProvider.tsx&#45;&gt;src/pages/home/index.ts -->
<g id="edge5" class="edge">
<title>src/app/providers/router/RouterProvider.tsx&#45;&gt;src/pages/home/index.ts</title>
<path fill="none" stroke="#000000" stroke-width="2" stroke-opacity="0.200000" d="M158.21,-84.32C179.45,-105.52 231.56,-157.52 257.68,-183.58"/>
<polygon fill="#000000" fill-opacity="0.200000" stroke="#000000" stroke-width="2" stroke-opacity="0.200000" points="256.14,-185.02 261.87,-187.77 259.11,-182.05 256.14,-185.02"/>
</g>
<!-- src/pages/login/index.ts -->
<g id="node7" class="node">
<title>src/pages/login/index.ts</title>
<g id="a_node7"><a xlink:href="src/pages/login/index.ts" xlink:title="index.ts">
<path fill="#ddfeff" stroke="black" d="M295.21,-301.88C295.21,-301.88 253.04,-301.88 253.04,-301.88 250.08,-301.88 247.12,-298.92 247.12,-295.96 247.12,-295.96 247.12,-290.04 247.12,-290.04 247.12,-287.08 250.08,-284.12 253.04,-284.12 253.04,-284.12 295.21,-284.12 295.21,-284.12 298.17,-284.12 301.12,-287.08 301.12,-290.04 301.12,-290.04 301.12,-295.96 301.12,-295.96 301.12,-298.92 298.17,-301.88 295.21,-301.88"/>
<text xml:space="preserve" text-anchor="start" x="258.38" y="-289.32" font-family="Helvetica,sans-Serif" font-size="9.00">index.ts</text>
</a>
</g>
</g>
<!-- src/app/providers/router/RouterProvider.tsx&#45;&gt;src/pages/login/index.ts -->
<g id="edge6" class="edge">
<title>src/app/providers/router/RouterProvider.tsx&#45;&gt;src/pages/login/index.ts</title>
<path fill="none" stroke="#000000" stroke-width="2" stroke-opacity="0.200000" d="M149.16,-84.36C150.58,-114.77 159.06,-211.95 209.75,-267 217.3,-275.2 227.82,-280.88 238.12,-284.79"/>
<polygon fill="#000000" fill-opacity="0.200000" stroke="#000000" stroke-width="2" stroke-opacity="0.200000" points="237.43,-286.77 243.79,-286.7 238.78,-282.79 237.43,-286.77"/>
</g>
<!-- src/pages/profile/index.ts -->
<g id="node8" class="node">
<title>src/pages/profile/index.ts</title>
<g id="a_node8"><a xlink:href="src/pages/profile/index.ts" xlink:title="index.ts">
<path fill="#ddfeff" stroke="black" d="M295.21,-395.88C295.21,-395.88 253.04,-395.88 253.04,-395.88 250.08,-395.88 247.12,-392.92 247.12,-389.96 247.12,-389.96 247.12,-384.04 247.12,-384.04 247.12,-381.08 250.08,-378.12 253.04,-378.12 253.04,-378.12 295.21,-378.12 295.21,-378.12 298.17,-378.12 301.12,-381.08 301.12,-384.04 301.12,-384.04 301.12,-389.96 301.12,-389.96 301.12,-392.92 298.17,-395.88 295.21,-395.88"/>
<text xml:space="preserve" text-anchor="start" x="258.38" y="-383.32" font-family="Helvetica,sans-Serif" font-size="9.00">index.ts</text>
</a>
</g>
</g>
<!-- src/app/providers/router/RouterProvider.tsx&#45;&gt;src/pages/profile/index.ts -->
<g id="edge7" class="edge">
<title>src/app/providers/router/RouterProvider.tsx&#45;&gt;src/pages/profile/index.ts</title>
<path fill="none" stroke="#000000" stroke-width="2" stroke-opacity="0.200000" d="M149.7,-84.34C153.78,-128.62 173.07,-317.06 209.75,-361 217.09,-369.79 227.87,-375.64 238.46,-379.53"/>
<polygon fill="#000000" fill-opacity="0.200000" stroke="#000000" stroke-width="2" stroke-opacity="0.200000" points="237.62,-381.46 243.97,-381.31 238.91,-377.47 237.62,-381.46"/>
</g>
<!-- src/entities/theme/index.ts -->
<g id="node5" class="node">
<title>src/entities/theme/index.ts</title>
<g id="a_node5"><a xlink:href="src/entities/theme/index.ts" xlink:title="index.ts">
<path fill="#ddfeff" stroke="black" d="M512.58,-83.88C512.58,-83.88 470.42,-83.88 470.42,-83.88 467.46,-83.88 464.5,-80.92 464.5,-77.96 464.5,-77.96 464.5,-72.04 464.5,-72.04 464.5,-69.08 467.46,-66.12 470.42,-66.12 470.42,-66.12 512.58,-66.12 512.58,-66.12 515.54,-66.12 518.5,-69.08 518.5,-72.04 518.5,-72.04 518.5,-77.96 518.5,-77.96 518.5,-80.92 515.54,-83.88 512.58,-83.88"/>
<text xml:space="preserve" text-anchor="start" x="475.75" y="-71.33" font-family="Helvetica,sans-Serif" font-size="9.00">index.ts</text>
</a>
</g>
</g>
<!-- src/app/providers/layout/BaseLayoutProvider.tsx&#45;&gt;src/entities/theme/index.ts -->
<g id="edge3" class="edge">
<title>src/app/providers/layout/BaseLayoutProvider.tsx&#45;&gt;src/entities/theme/index.ts</title>
<path fill="none" stroke="#000000" stroke-width="2" stroke-opacity="0.200000" d="M330.87,-75C370.06,-75 421.32,-75 455.04,-75"/>
<polygon fill="#000000" fill-opacity="0.200000" stroke="#000000" stroke-width="2" stroke-opacity="0.200000" points="455.04,-77.1 461.04,-75 455.04,-72.9 455.04,-77.1"/>
</g>
<!-- src/entities/theme/model/store.ts -->
<g id="node9" class="node">
<title>src/entities/theme/model/store.ts</title>
<g id="a_node9"><a xlink:href="src/entities/theme/model/store.ts" xlink:title="store.ts">
<path fill="#ddfeff" stroke="black" d="M729.21,-78.88C729.21,-78.88 687.04,-78.88 687.04,-78.88 684.08,-78.88 681.12,-75.92 681.12,-72.96 681.12,-72.96 681.12,-67.04 681.12,-67.04 681.12,-64.08 684.08,-61.12 687.04,-61.12 687.04,-61.12 729.21,-61.12 729.21,-61.12 732.17,-61.12 735.12,-64.08 735.12,-67.04 735.12,-67.04 735.12,-72.96 735.12,-72.96 735.12,-75.92 732.17,-78.88 729.21,-78.88"/>
<text xml:space="preserve" text-anchor="start" x="693.5" y="-66.33" font-family="Helvetica,sans-Serif" font-size="9.00">store.ts</text>
</a>
</g>
</g>
<!-- src/entities/theme/index.ts&#45;&gt;src/entities/theme/model/store.ts -->
<g id="edge8" class="edge">
<title>src/entities/theme/index.ts&#45;&gt;src/entities/theme/model/store.ts</title>
<path fill="none" stroke="#000000" stroke-width="2" stroke-opacity="0.200000" d="M517.9,-65.63C530.49,-61.48 546.03,-57.07 560.38,-55 606.45,-48.35 619.25,-47.05 665.12,-55 669.74,-55.8 674.52,-57.06 679.12,-58.51"/>
<polygon fill="#000000" fill-opacity="0.200000" stroke="#000000" stroke-width="2" stroke-opacity="0.200000" points="684.09,-62.42 679.08,-58.5 685.44,-58.45 684.09,-62.42"/>
</g>
<!-- src/entities/theme/ui/ThemeToggler.tsx -->
<g id="node10" class="node">
<title>src/entities/theme/ui/ThemeToggler.tsx</title>
<g id="a_node10"><a xlink:href="src/entities/theme/ui/ThemeToggler.tsx" xlink:title="ThemeToggler.tsx">
<path fill="#bbfeff" stroke="black" d="M651.21,-83.88C651.21,-83.88 574.29,-83.88 574.29,-83.88 571.33,-83.88 568.38,-80.92 568.38,-77.96 568.38,-77.96 568.38,-72.04 568.38,-72.04 568.38,-69.08 571.33,-66.12 574.29,-66.12 574.29,-66.12 651.21,-66.12 651.21,-66.12 654.17,-66.12 657.12,-69.08 657.12,-72.04 657.12,-72.04 657.12,-77.96 657.12,-77.96 657.12,-80.92 654.17,-83.88 651.21,-83.88"/>
<text xml:space="preserve" text-anchor="start" x="576.38" y="-71.33" font-family="Helvetica,sans-Serif" font-size="9.00">ThemeToggler.tsx</text>
</a>
</g>
</g>
<!-- src/entities/theme/index.ts&#45;&gt;src/entities/theme/ui/ThemeToggler.tsx -->
<g id="edge9" class="edge">
<title>src/entities/theme/index.ts&#45;&gt;src/entities/theme/ui/ThemeToggler.tsx</title>
<path fill="none" stroke="#000000" stroke-width="2" stroke-opacity="0.200000" d="M518.97,-75C531.35,-75 546.53,-75 561,-75"/>
<polygon fill="#000000" fill-opacity="0.200000" stroke="#000000" stroke-width="2" stroke-opacity="0.200000" points="567.03,-77.1 561.03,-75 567.03,-72.9 567.03,-77.1"/>
</g>
<!-- src/pages/home/ui/Page.tsx -->
<g id="node12" class="node">
<title>src/pages/home/ui/Page.tsx</title>
<g id="a_node12"><a xlink:href="src/pages/home/ui/Page.tsx" xlink:title="Page.tsx">
<path fill="#bbfeff" stroke="black" d="M418.58,-211.88C418.58,-211.88 376.42,-211.88 376.42,-211.88 373.46,-211.88 370.5,-208.92 370.5,-205.96 370.5,-205.96 370.5,-200.04 370.5,-200.04 370.5,-197.08 373.46,-194.12 376.42,-194.12 376.42,-194.12 418.58,-194.12 418.58,-194.12 421.54,-194.12 424.5,-197.08 424.5,-200.04 424.5,-200.04 424.5,-205.96 424.5,-205.96 424.5,-208.92 421.54,-211.88 418.58,-211.88"/>
<text xml:space="preserve" text-anchor="start" x="379.88" y="-199.32" font-family="Helvetica,sans-Serif" font-size="9.00">Page.tsx</text>
</a>
</g>
</g>
<!-- src/pages/home/index.ts&#45;&gt;src/pages/home/ui/Page.tsx -->
<g id="edge12" class="edge">
<title>src/pages/home/index.ts&#45;&gt;src/pages/home/ui/Page.tsx</title>
<path fill="none" stroke="#000000" stroke-width="2" stroke-opacity="0.200000" d="M301.46,-199.87C319.59,-200.47 343.83,-201.26 363.28,-201.91"/>
<polygon fill="#000000" fill-opacity="0.200000" stroke="#000000" stroke-width="2" stroke-opacity="0.200000" points="369.15,-204.2 363.22,-201.9 369.28,-200 369.15,-204.2"/>
</g>
<!-- src/pages/login/ui/Page.tsx -->
<g id="node13" class="node">
<title>src/pages/login/ui/Page.tsx</title>
<g id="a_node13"><a xlink:href="src/pages/login/ui/Page.tsx" xlink:title="Page.tsx">
<path fill="#bbfeff" stroke="black" d="M418.58,-305.88C418.58,-305.88 376.42,-305.88 376.42,-305.88 373.46,-305.88 370.5,-302.92 370.5,-299.96 370.5,-299.96 370.5,-294.04 370.5,-294.04 370.5,-291.08 373.46,-288.12 376.42,-288.12 376.42,-288.12 418.58,-288.12 418.58,-288.12 421.54,-288.12 424.5,-291.08 424.5,-294.04 424.5,-294.04 424.5,-299.96 424.5,-299.96 424.5,-302.92 421.54,-305.88 418.58,-305.88"/>
<text xml:space="preserve" text-anchor="start" x="379.88" y="-293.32" font-family="Helvetica,sans-Serif" font-size="9.00">Page.tsx</text>
</a>
</g>
</g>
<!-- src/pages/login/index.ts&#45;&gt;src/pages/login/ui/Page.tsx -->
<g id="edge14" class="edge">
<title>src/pages/login/index.ts&#45;&gt;src/pages/login/ui/Page.tsx</title>
<path fill="none" stroke="#000000" stroke-width="2" stroke-opacity="0.200000" d="M301.46,-293.87C319.59,-294.47 343.83,-295.26 363.28,-295.91"/>
<polygon fill="#000000" fill-opacity="0.200000" stroke="#000000" stroke-width="2" stroke-opacity="0.200000" points="369.15,-298.2 363.22,-295.9 369.28,-294 369.15,-298.2"/>
</g>
<!-- src/pages/profile/ui/Page.tsx -->
<g id="node15" class="node">
<title>src/pages/profile/ui/Page.tsx</title>
<g id="a_node15"><a xlink:href="src/pages/profile/ui/Page.tsx" xlink:title="Page.tsx">
<path fill="#bbfeff" stroke="black" d="M418.58,-399.88C418.58,-399.88 376.42,-399.88 376.42,-399.88 373.46,-399.88 370.5,-396.92 370.5,-393.96 370.5,-393.96 370.5,-388.04 370.5,-388.04 370.5,-385.08 373.46,-382.12 376.42,-382.12 376.42,-382.12 418.58,-382.12 418.58,-382.12 421.54,-382.12 424.5,-385.08 424.5,-388.04 424.5,-388.04 424.5,-393.96 424.5,-393.96 424.5,-396.92 421.54,-399.88 418.58,-399.88"/>
<text xml:space="preserve" text-anchor="start" x="379.88" y="-387.32" font-family="Helvetica,sans-Serif" font-size="9.00">Page.tsx</text>
</a>
</g>
</g>
<!-- src/pages/profile/index.ts&#45;&gt;src/pages/profile/ui/Page.tsx -->
<g id="edge16" class="edge">
<title>src/pages/profile/index.ts&#45;&gt;src/pages/profile/ui/Page.tsx</title>
<path fill="none" stroke="#000000" stroke-width="2" stroke-opacity="0.200000" d="M301.46,-387.87C319.59,-388.47 343.83,-389.26 363.28,-389.91"/>
<polygon fill="#000000" fill-opacity="0.200000" stroke="#000000" stroke-width="2" stroke-opacity="0.200000" points="369.15,-392.2 363.22,-389.9 369.28,-388 369.15,-392.2"/>
</g>
<!-- src/entities/theme/model/types.ts -->
<g id="node11" class="node">
<title>src/entities/theme/model/types.ts</title>
<g id="a_node11"><a xlink:href="src/entities/theme/model/types.ts" xlink:title="types.ts">
<path fill="#ddfeff" stroke="black" d="M796.21,-78.88C796.21,-78.88 754.04,-78.88 754.04,-78.88 751.08,-78.88 748.12,-75.92 748.12,-72.96 748.12,-72.96 748.12,-67.04 748.12,-67.04 748.12,-64.08 751.08,-61.12 754.04,-61.12 754.04,-61.12 796.21,-61.12 796.21,-61.12 799.17,-61.12 802.12,-64.08 802.12,-67.04 802.12,-67.04 802.12,-72.96 802.12,-72.96 802.12,-75.92 799.17,-78.88 796.21,-78.88"/>
<text xml:space="preserve" text-anchor="start" x="759.75" y="-66.33" font-family="Helvetica,sans-Serif" font-size="9.00">types.ts</text>
</a>
</g>
</g>
<!-- src/entities/theme/model/store.ts&#45;&gt;src/entities/theme/model/types.ts -->
<g id="edge10" class="edge">
<title>src/entities/theme/model/store.ts&#45;&gt;src/entities/theme/model/types.ts</title>
<path fill="none" stroke="#000000" stroke-opacity="0.200000" d="M735.56,-70C737.22,-70 738.9,-70 740.58,-70"/>
<polygon fill="none" stroke="#000000" stroke-opacity="0.200000" points="740.41,-72.1 746.41,-70 740.41,-67.9 740.41,-72.1"/>
</g>
<!-- src/entities/theme/ui/ThemeToggler.tsx&#45;&gt;src/entities/theme/model/store.ts -->
<g id="edge11" class="edge">
<title>src/entities/theme/ui/ThemeToggler.tsx&#45;&gt;src/entities/theme/model/store.ts</title>
<path fill="none" stroke="#000000" stroke-width="2" stroke-opacity="0.200000" d="M657.43,-72.66C662.29,-72.4 667.19,-72.14 671.93,-71.88"/>
<polygon fill="#000000" fill-opacity="0.200000" stroke="#000000" stroke-width="2" stroke-opacity="0.200000" points="671.87,-73.99 677.75,-71.57 671.64,-69.8 671.87,-73.99"/>
</g>
<!-- src/pages/home/ui/Page.tsx&#45;&gt;src/entities/theme/index.ts -->
<g id="edge13" class="edge">
<title>src/pages/home/ui/Page.tsx&#45;&gt;src/entities/theme/index.ts</title>
<path fill="none" stroke="#000000" stroke-width="2" stroke-opacity="0.200000" d="M405.12,-193.79C420.57,-172.3 459.18,-118.57 478.75,-91.35"/>
<polygon fill="#000000" fill-opacity="0.200000" stroke="#000000" stroke-width="2" stroke-opacity="0.200000" points="480.38,-92.68 482.18,-86.58 476.97,-90.23 480.38,-92.68"/>
</g>
<!-- src/pages/login/ui/LoginForm.tsx -->
<g id="node14" class="node">
<title>src/pages/login/ui/LoginForm.tsx</title>
<g id="a_node14"><a xlink:href="src/pages/login/ui/LoginForm.tsx" xlink:title="LoginForm.tsx">
<path fill="#bbfeff" stroke="black" d="M522.46,-305.88C522.46,-305.88 460.54,-305.88 460.54,-305.88 457.58,-305.88 454.62,-302.92 454.62,-299.96 454.62,-299.96 454.62,-294.04 454.62,-294.04 454.62,-291.08 457.58,-288.12 460.54,-288.12 460.54,-288.12 522.46,-288.12 522.46,-288.12 525.42,-288.12 528.38,-291.08 528.38,-294.04 528.38,-294.04 528.38,-299.96 528.38,-299.96 528.38,-302.92 525.42,-305.88 522.46,-305.88"/>
<text xml:space="preserve" text-anchor="start" x="462.62" y="-293.32" font-family="Helvetica,sans-Serif" font-size="9.00">LoginForm.tsx</text>
</a>
</g>
</g>
<!-- src/pages/login/ui/Page.tsx&#45;&gt;src/pages/login/ui/LoginForm.tsx -->
<g id="edge15" class="edge">
<title>src/pages/login/ui/Page.tsx&#45;&gt;src/pages/login/ui/LoginForm.tsx</title>
<path fill="none" stroke="#000000" stroke-width="2" stroke-opacity="0.200000" d="M424.62,-297C431.12,-297 438.27,-297 445.4,-297"/>
<polygon fill="#000000" fill-opacity="0.200000" stroke="#000000" stroke-width="2" stroke-opacity="0.200000" points="445.33,-299.1 451.33,-297 445.33,-294.9 445.33,-299.1"/>
</g>
</g>
</svg>
