<?xml version="1.0" encoding="UTF-8" standalone="no"?>
<!DOCTYPE svg PUBLIC "-//W3C//DTD SVG 1.1//EN"
 "http://www.w3.org/Graphics/SVG/1.1/DTD/svg11.dtd">
<!-- Generated by graphviz version 12.0.0 (20240704.0754)
 -->
<!-- Title: dependency&#45;cruiser output Pages: 1 -->
<svg width="749pt" height="554pt"
 viewBox="0.00 0.00 748.62 554.00" xmlns="http://www.w3.org/2000/svg" xmlns:xlink="http://www.w3.org/1999/xlink">
<g id="graph0" class="graph" transform="scale(1 1) rotate(0) translate(4 550)">
<title>dependency&#45;cruiser output</title>
<polygon fill="white" stroke="none" points="-4,4 -4,-550 744.62,-550 744.62,4 -4,4"/>
<g id="clust1" class="cluster">
<title>cluster_src</title>
<path fill="#ffffff" stroke="black" stroke-width="2" d="M20,-8C20,-8 720.62,-8 720.62,-8 726.62,-8 732.62,-14 732.62,-20 732.62,-20 732.62,-526 732.62,-526 732.62,-532 726.62,-538 720.62,-538 720.62,-538 20,-538 20,-538 14,-538 8,-532 8,-526 8,-526 8,-20 8,-20 8,-14 14,-8 20,-8"/>
<text text-anchor="middle" x="370.31" y="-525.45" font-family="Helvetica,sans-Serif" font-weight="bold" font-size="9.00">src</text>
</g>
<g id="clust2" class="cluster">
<title>cluster_src/app</title>
<path fill="#ffffff" stroke="black" stroke-width="2" d="M28,-332C28,-332 342.5,-332 342.5,-332 348.5,-332 354.5,-338 354.5,-344 354.5,-344 354.5,-466 354.5,-466 354.5,-472 348.5,-478 342.5,-478 342.5,-478 28,-478 28,-478 22,-478 16,-472 16,-466 16,-466 16,-344 16,-344 16,-338 22,-332 28,-332"/>
<text text-anchor="middle" x="185.25" y="-465.45" font-family="Helvetica,sans-Serif" font-weight="bold" font-size="9.00">app</text>
</g>
<g id="clust3" class="cluster">
<title>cluster_src/app/providers</title>
<path fill="#ffffff" stroke="black" stroke-width="2" d="M98,-366C98,-366 334.5,-366 334.5,-366 340.5,-366 346.5,-372 346.5,-378 346.5,-378 346.5,-440 346.5,-440 346.5,-446 340.5,-452 334.5,-452 334.5,-452 98,-452 98,-452 92,-452 86,-446 86,-440 86,-440 86,-378 86,-378 86,-372 92,-366 98,-366"/>
<text text-anchor="middle" x="216.25" y="-439.45" font-family="Helvetica,sans-Serif" font-weight="bold" font-size="9.00">providers</text>
</g>
<g id="clust4" class="cluster">
<title>cluster_src/app/providers/layout</title>
<path fill="#ffffff" stroke="black" stroke-width="2" d="M221.75,-374C221.75,-374 326.5,-374 326.5,-374 332.5,-374 338.5,-380 338.5,-386 338.5,-386 338.5,-414 338.5,-414 338.5,-420 332.5,-426 326.5,-426 326.5,-426 221.75,-426 221.75,-426 215.75,-426 209.75,-420 209.75,-414 209.75,-414 209.75,-386 209.75,-386 209.75,-380 215.75,-374 221.75,-374"/>
<text text-anchor="middle" x="274.12" y="-413.45" font-family="Helvetica,sans-Serif" font-weight="bold" font-size="9.00">layout</text>
</g>
<g id="clust5" class="cluster">
<title>cluster_src/app/providers/router</title>
<path fill="#ffffff" stroke="black" stroke-width="2" d="M106,-374C106,-374 189.75,-374 189.75,-374 195.75,-374 201.75,-380 201.75,-386 201.75,-386 201.75,-414 201.75,-414 201.75,-420 195.75,-426 189.75,-426 189.75,-426 106,-426 106,-426 100,-426 94,-420 94,-414 94,-414 94,-386 94,-386 94,-380 100,-374 106,-374"/>
<text text-anchor="middle" x="147.88" y="-413.45" font-family="Helvetica,sans-Serif" font-weight="bold" font-size="9.00">router</text>
</g>
<g id="clust6" class="cluster">
<title>cluster_src/entities</title>
<path fill="#ffffff" stroke="black" stroke-width="2" d="M374.5,-332C374.5,-332 712.62,-332 712.62,-332 718.62,-332 724.62,-338 724.62,-344 724.62,-344 724.62,-500 724.62,-500 724.62,-506 718.62,-512 712.62,-512 712.62,-512 374.5,-512 374.5,-512 368.5,-512 362.5,-506 362.5,-500 362.5,-500 362.5,-344 362.5,-344 362.5,-338 368.5,-332 374.5,-332"/>
<text text-anchor="middle" x="543.56" y="-499.45" font-family="Helvetica,sans-Serif" font-weight="bold" font-size="9.00">entities</text>
</g>
<g id="clust7" class="cluster">
<title>cluster_src/entities/theme</title>
<path fill="#ffffff" stroke="black" stroke-width="2" d="M382.5,-340C382.5,-340 704.62,-340 704.62,-340 710.62,-340 716.62,-346 716.62,-352 716.62,-352 716.62,-474 716.62,-474 716.62,-480 710.62,-486 704.62,-486 704.62,-486 382.5,-486 382.5,-486 376.5,-486 370.5,-480 370.5,-474 370.5,-474 370.5,-352 370.5,-352 370.5,-346 376.5,-340 382.5,-340"/>
<text text-anchor="middle" x="543.56" y="-473.45" font-family="Helvetica,sans-Serif" font-weight="bold" font-size="9.00">theme</text>
</g>
<g id="clust8" class="cluster">
<title>cluster_src/entities/theme/model</title>
<path fill="#ffffff" stroke="black" stroke-width="2" d="M468.5,-408C468.5,-408 696.62,-408 696.62,-408 702.62,-408 708.62,-414 708.62,-420 708.62,-420 708.62,-448 708.62,-448 708.62,-454 702.62,-460 696.62,-460 696.62,-460 468.5,-460 468.5,-460 462.5,-460 456.5,-454 456.5,-448 456.5,-448 456.5,-420 456.5,-420 456.5,-414 462.5,-408 468.5,-408"/>
<text text-anchor="middle" x="582.56" y="-447.45" font-family="Helvetica,sans-Serif" font-weight="bold" font-size="9.00">model</text>
</g>
<g id="clust9" class="cluster">
<title>cluster_src/entities/theme/ui</title>
<path fill="#ffffff" stroke="black" stroke-width="2" d="M470.38,-348C470.38,-348 551.12,-348 551.12,-348 557.12,-348 563.12,-354 563.12,-360 563.12,-360 563.12,-388 563.12,-388 563.12,-394 557.12,-400 551.12,-400 551.12,-400 470.38,-400 470.38,-400 464.38,-400 458.38,-394 458.38,-388 458.38,-388 458.38,-360 458.38,-360 458.38,-354 464.38,-348 470.38,-348"/>
<text text-anchor="middle" x="510.75" y="-387.45" font-family="Helvetica,sans-Serif" font-weight="bold" font-size="9.00">ui</text>
</g>
<g id="clust10" class="cluster">
<title>cluster_src/pages</title>
<path fill="#ffffff" stroke="black" stroke-width="2" d="M243.12,-16C243.12,-16 559.62,-16 559.62,-16 565.62,-16 571.62,-22 571.62,-28 571.62,-28 571.62,-312 571.62,-312 571.62,-318 565.62,-324 559.62,-324 559.62,-324 243.13,-324 243.13,-324 237.12,-324 231.12,-318 231.12,-312 231.12,-312 231.12,-28 231.12,-28 231.12,-22 237.12,-16 243.12,-16"/>
<text text-anchor="middle" x="401.38" y="-311.45" font-family="Helvetica,sans-Serif" font-weight="bold" font-size="9.00">pages</text>
</g>
<g id="clust11" class="cluster">
<title>cluster_src/pages/home</title>
<path fill="#ffffff" stroke="black" stroke-width="2" d="M251.12,-118C251.12,-118 436.5,-118 436.5,-118 442.5,-118 448.5,-124 448.5,-130 448.5,-130 448.5,-192 448.5,-192 448.5,-198 442.5,-204 436.5,-204 436.5,-204 251.12,-204 251.12,-204 245.12,-204 239.12,-198 239.12,-192 239.12,-192 239.12,-130 239.12,-130 239.12,-124 245.12,-118 251.12,-118"/>
<text text-anchor="middle" x="343.81" y="-191.45" font-family="Helvetica,sans-Serif" font-weight="bold" font-size="9.00">home</text>
</g>
<g id="clust12" class="cluster">
<title>cluster_src/pages/home/ui</title>
<path fill="#ffffff" stroke="black" stroke-width="2" d="M382.5,-126C382.5,-126 428.5,-126 428.5,-126 434.5,-126 440.5,-132 440.5,-138 440.5,-138 440.5,-166 440.5,-166 440.5,-172 434.5,-178 428.5,-178 428.5,-178 382.5,-178 382.5,-178 376.5,-178 370.5,-172 370.5,-166 370.5,-166 370.5,-138 370.5,-138 370.5,-132 376.5,-126 382.5,-126"/>
<text text-anchor="middle" x="405.5" y="-165.45" font-family="Helvetica,sans-Serif" font-weight="bold" font-size="9.00">ui</text>
</g>
<g id="clust13" class="cluster">
<title>cluster_src/pages/login</title>
<path fill="#ffffff" stroke="black" stroke-width="2" d="M251.12,-24C251.12,-24 551.62,-24 551.62,-24 557.62,-24 563.62,-30 563.62,-36 563.62,-36 563.62,-98 563.62,-98 563.62,-104 557.62,-110 551.62,-110 551.62,-110 251.12,-110 251.12,-110 245.12,-110 239.12,-104 239.12,-98 239.12,-98 239.12,-36 239.12,-36 239.12,-30 245.12,-24 251.12,-24"/>
<text text-anchor="middle" x="401.38" y="-97.45" font-family="Helvetica,sans-Serif" font-weight="bold" font-size="9.00">login</text>
</g>
<g id="clust14" class="cluster">
<title>cluster_src/pages/login/ui</title>
<path fill="#ffffff" stroke="black" stroke-width="2" d="M382.5,-32C382.5,-32 543.62,-32 543.62,-32 549.62,-32 555.62,-38 555.62,-44 555.62,-44 555.62,-72 555.62,-72 555.62,-78 549.62,-84 543.62,-84 543.62,-84 382.5,-84 382.5,-84 376.5,-84 370.5,-78 370.5,-72 370.5,-72 370.5,-44 370.5,-44 370.5,-38 376.5,-32 382.5,-32"/>
<text text-anchor="middle" x="463.06" y="-71.45" font-family="Helvetica,sans-Serif" font-weight="bold" font-size="9.00">ui</text>
</g>
<g id="clust15" class="cluster">
<title>cluster_src/pages/profile</title>
<path fill="#ffffff" stroke="black" stroke-width="2" d="M251.12,-212C251.12,-212 436.5,-212 436.5,-212 442.5,-212 448.5,-218 448.5,-224 448.5,-224 448.5,-286 448.5,-286 448.5,-292 442.5,-298 436.5,-298 436.5,-298 251.12,-298 251.12,-298 245.12,-298 239.12,-292 239.12,-286 239.12,-286 239.12,-224 239.12,-224 239.12,-218 245.12,-212 251.12,-212"/>
<text text-anchor="middle" x="343.81" y="-285.45" font-family="Helvetica,sans-Serif" font-weight="bold" font-size="9.00">profile</text>
</g>
<g id="clust16" class="cluster">
<title>cluster_src/pages/profile/ui</title>
<path fill="#ffffff" stroke="black" stroke-width="2" d="M382.5,-220C382.5,-220 428.5,-220 428.5,-220 434.5,-220 440.5,-226 440.5,-232 440.5,-232 440.5,-260 440.5,-260 440.5,-266 434.5,-272 428.5,-272 428.5,-272 382.5,-272 382.5,-272 376.5,-272 370.5,-266 370.5,-260 370.5,-260 370.5,-232 370.5,-232 370.5,-226 376.5,-220 382.5,-220"/>
<text text-anchor="middle" x="405.5" y="-259.45" font-family="Helvetica,sans-Serif" font-weight="bold" font-size="9.00">ui</text>
</g>
<!-- src/app/entry.css -->
<g id="node1" class="node">
<title>src/app/entry.css</title>
<g id="a_node1"><a xlink:href="src/app/entry.css" xlink:title="entry.css">
<path fill="#ffffcc" stroke="black" d="M168.96,-357.88C168.96,-357.88 126.79,-357.88 126.79,-357.88 123.83,-357.88 120.88,-354.92 120.88,-351.96 120.88,-351.96 120.88,-346.04 120.88,-346.04 120.88,-343.08 123.83,-340.12 126.79,-340.12 126.79,-340.12 168.96,-340.12 168.96,-340.12 171.92,-340.12 174.88,-343.08 174.88,-346.04 174.88,-346.04 174.88,-351.96 174.88,-351.96 174.88,-354.92 171.92,-357.88 168.96,-357.88"/>
<text text-anchor="start" x="129.88" y="-345.32" font-family="Helvetica,sans-Serif" font-size="9.00">entry.css</text>
</a>
</g>
</g>
<!-- src/app/entry.tsx -->
<g id="node2" class="node">
<title>src/app/entry.tsx</title>
<g id="a_node2"><a xlink:href="src/app/entry.tsx" xlink:title="entry.tsx">
<path fill="#bbfeff" stroke="black" d="M72.08,-399.88C72.08,-399.88 29.92,-399.88 29.92,-399.88 26.96,-399.88 24,-396.92 24,-393.96 24,-393.96 24,-388.04 24,-388.04 24,-385.08 26.96,-382.12 29.92,-382.12 29.92,-382.12 72.08,-382.12 72.08,-382.12 75.04,-382.12 78,-385.08 78,-388.04 78,-388.04 78,-393.96 78,-393.96 78,-396.92 75.04,-399.88 72.08,-399.88"/>
<text text-anchor="start" x="34.12" y="-387.32" font-family="Helvetica,sans-Serif" font-size="9.00">entry.tsx</text>
</a>
</g>
</g>
<!-- src/app/entry.tsx&#45;&gt;src/app/entry.css -->
<g id="edge1" class="edge">
<title>src/app/entry.tsx&#45;&gt;src/app/entry.css</title>
<path fill="none" stroke="#000000" stroke-width="2" stroke-opacity="0.200000" d="M66.57,-381.63C72.47,-378.05 79.43,-374.09 86,-371 94.24,-367.13 103.36,-363.51 111.98,-360.36"/>
<polygon fill="#000000" fill-opacity="0.200000" stroke="#000000" stroke-width="2" stroke-opacity="0.200000" points="112.57,-362.38 117.52,-358.39 111.17,-358.42 112.57,-362.38"/>
</g>
<!-- src/app/providers/router/RouterProvider.tsx -->
<g id="node3" class="node">
<title>src/app/providers/router/RouterProvider.tsx</title>
<g id="a_node3"><a xlink:href="src/app/providers/router/RouterProvider.tsx" xlink:title="RouterProvider.tsx">
<path fill="#bbfeff" stroke="black" d="M187.83,-399.88C187.83,-399.88 107.92,-399.88 107.92,-399.88 104.96,-399.88 102,-396.92 102,-393.96 102,-393.96 102,-388.04 102,-388.04 102,-385.08 104.96,-382.12 107.92,-382.12 107.92,-382.12 187.83,-382.12 187.83,-382.12 190.79,-382.12 193.75,-385.08 193.75,-388.04 193.75,-388.04 193.75,-393.96 193.75,-393.96 193.75,-396.92 190.79,-399.88 187.83,-399.88"/>
<text text-anchor="start" x="110" y="-387.32" font-family="Helvetica,sans-Serif" font-size="9.00">RouterProvider.tsx</text>
</a>
</g>
</g>
<!-- src/app/entry.tsx&#45;&gt;src/app/providers/router/RouterProvider.tsx -->
<g id="edge2" class="edge">
<title>src/app/entry.tsx&#45;&gt;src/app/providers/router/RouterProvider.tsx</title>
<path fill="none" stroke="#000000" stroke-width="2" stroke-opacity="0.200000" d="M78.43,-391C82.95,-391 87.79,-391 92.74,-391"/>
<polygon fill="#000000" fill-opacity="0.200000" stroke="#000000" stroke-width="2" stroke-opacity="0.200000" points="92.66,-393.1 98.66,-391 92.66,-388.9 92.66,-393.1"/>
</g>
<!-- src/entities/theme/index.ts -->
<g id="node4" class="node">
<title>src/entities/theme/index.ts</title>
<g id="a_node4"><a xlink:href="src/entities/theme/index.ts" xlink:title="index.ts">
<path fill="#ddfeff" stroke="black" d="M426.58,-433.88C426.58,-433.88 384.42,-433.88 384.42,-433.88 381.46,-433.88 378.5,-430.92 378.5,-427.96 378.5,-427.96 378.5,-422.04 378.5,-422.04 378.5,-419.08 381.46,-416.12 384.42,-416.12 384.42,-416.12 426.58,-416.12 426.58,-416.12 429.54,-416.12 432.5,-419.08 432.5,-422.04 432.5,-422.04 432.5,-427.96 432.5,-427.96 432.5,-430.92 429.54,-433.88 426.58,-433.88"/>
<text text-anchor="start" x="389.75" y="-421.32" font-family="Helvetica,sans-Serif" font-size="9.00">index.ts</text>
</a>
</g>
</g>
<!-- src/app/entry.tsx&#45;&gt;src/entities/theme/index.ts -->
<g id="edge3" class="edge">
<title>src/app/entry.tsx&#45;&gt;src/entities/theme/index.ts</title>
<path fill="none" stroke="#000000" stroke-width="2" stroke-opacity="0.200000" d="M57.09,-400.24C62.77,-409.48 72.91,-423.15 86,-429 181.27,-471.6 309.16,-449.22 369.81,-434.51"/>
<polygon fill="#000000" fill-opacity="0.200000" stroke="#000000" stroke-width="2" stroke-opacity="0.200000" points="370,-436.63 375.32,-433.14 368.99,-432.55 370,-436.63"/>
</g>
<!-- src/app/providers/layout/BaseLayoutProvider.tsx -->
<g id="node5" class="node">
<title>src/app/providers/layout/BaseLayoutProvider.tsx</title>
<g id="a_node5"><a xlink:href="src/app/providers/layout/BaseLayoutProvider.tsx" xlink:title="BaseLayoutProvider.tsx">
<path fill="#bbfeff" stroke="black" d="M324.58,-399.88C324.58,-399.88 223.67,-399.88 223.67,-399.88 220.71,-399.88 217.75,-396.92 217.75,-393.96 217.75,-393.96 217.75,-388.04 217.75,-388.04 217.75,-385.08 220.71,-382.12 223.67,-382.12 223.67,-382.12 324.58,-382.12 324.58,-382.12 327.54,-382.12 330.5,-385.08 330.5,-388.04 330.5,-388.04 330.5,-393.96 330.5,-393.96 330.5,-396.92 327.54,-399.88 324.58,-399.88"/>
<text text-anchor="start" x="225.75" y="-387.32" font-family="Helvetica,sans-Serif" font-size="9.00">BaseLayoutProvider.tsx</text>
</a>
</g>
</g>
<!-- src/app/providers/router/RouterProvider.tsx&#45;&gt;src/app/providers/layout/BaseLayoutProvider.tsx -->
<g id="edge5" class="edge">
<title>src/app/providers/router/RouterProvider.tsx&#45;&gt;src/app/providers/layout/BaseLayoutProvider.tsx</title>
<path fill="none" stroke="#000000" stroke-width="2" stroke-opacity="0.200000" d="M194.08,-391C198.85,-391 203.77,-391 208.7,-391"/>
<polygon fill="#000000" fill-opacity="0.200000" stroke="#000000" stroke-width="2" stroke-opacity="0.200000" points="208.55,-393.1 214.55,-391 208.55,-388.9 208.55,-393.1"/>
</g>
<!-- src/pages/home/index.ts -->
<g id="node6" class="node">
<title>src/pages/home/index.ts</title>
<g id="a_node6"><a xlink:href="src/pages/home/index.ts" xlink:title="index.ts">
<path fill="#ddfeff" stroke="black" d="M295.21,-164.88C295.21,-164.88 253.04,-164.88 253.04,-164.88 250.08,-164.88 247.12,-161.92 247.12,-158.96 247.12,-158.96 247.12,-153.04 247.12,-153.04 247.12,-150.08 250.08,-147.12 253.04,-147.12 253.04,-147.12 295.21,-147.12 295.21,-147.12 298.17,-147.12 301.12,-150.08 301.12,-153.04 301.12,-153.04 301.12,-158.96 301.12,-158.96 301.12,-161.92 298.17,-164.88 295.21,-164.88"/>
<text text-anchor="start" x="258.38" y="-152.32" font-family="Helvetica,sans-Serif" font-size="9.00">index.ts</text>
</a>
</g>
</g>
<!-- src/app/providers/router/RouterProvider.tsx&#45;&gt;src/pages/home/index.ts -->
<g id="edge6" class="edge">
<title>src/app/providers/router/RouterProvider.tsx&#45;&gt;src/pages/home/index.ts</title>
<path fill="none" stroke="#000000" stroke-width="2" stroke-opacity="0.200000" d="M194.12,-384.52C196.99,-382.77 199.59,-380.63 201.75,-378 213.69,-363.48 201.39,-225.84 209.75,-209 217.98,-192.42 234.03,-179.08 247.91,-169.93"/>
<polygon fill="#000000" fill-opacity="0.200000" stroke="#000000" stroke-width="2" stroke-opacity="0.200000" points="248.8,-171.86 252.78,-166.89 246.57,-168.29 248.8,-171.86"/>
</g>
<!-- src/pages/login/index.ts -->
<g id="node7" class="node">
<title>src/pages/login/index.ts</title>
<g id="a_node7"><a xlink:href="src/pages/login/index.ts" xlink:title="index.ts">
<path fill="#ddfeff" stroke="black" d="M295.21,-70.88C295.21,-70.88 253.04,-70.88 253.04,-70.88 250.08,-70.88 247.12,-67.92 247.12,-64.96 247.12,-64.96 247.12,-59.04 247.12,-59.04 247.12,-56.08 250.08,-53.12 253.04,-53.12 253.04,-53.12 295.21,-53.12 295.21,-53.12 298.17,-53.12 301.12,-56.08 301.12,-59.04 301.12,-59.04 301.12,-64.96 301.12,-64.96 301.12,-67.92 298.17,-70.88 295.21,-70.88"/>
<text text-anchor="start" x="258.38" y="-58.33" font-family="Helvetica,sans-Serif" font-size="9.00">index.ts</text>
</a>
</g>
</g>
<!-- src/app/providers/router/RouterProvider.tsx&#45;&gt;src/pages/login/index.ts -->
<g id="edge7" class="edge">
<title>src/app/providers/router/RouterProvider.tsx&#45;&gt;src/pages/login/index.ts</title>
<path fill="none" stroke="#000000" stroke-width="2" stroke-opacity="0.200000" d="M194.17,-384.56C197.03,-382.8 199.61,-380.65 201.75,-378 220.13,-355.27 196.97,-141.3 209.75,-115 217.84,-98.35 233.89,-85.01 247.81,-75.88"/>
<polygon fill="#000000" fill-opacity="0.200000" stroke="#000000" stroke-width="2" stroke-opacity="0.200000" points="248.7,-77.8 252.69,-72.85 246.49,-74.23 248.7,-77.8"/>
</g>
<!-- src/pages/profile/index.ts -->
<g id="node8" class="node">
<title>src/pages/profile/index.ts</title>
<g id="a_node8"><a xlink:href="src/pages/profile/index.ts" xlink:title="index.ts">
<path fill="#ddfeff" stroke="black" d="M295.21,-258.88C295.21,-258.88 253.04,-258.88 253.04,-258.88 250.08,-258.88 247.12,-255.92 247.12,-252.96 247.12,-252.96 247.12,-247.04 247.12,-247.04 247.12,-244.08 250.08,-241.12 253.04,-241.12 253.04,-241.12 295.21,-241.12 295.21,-241.12 298.17,-241.12 301.12,-244.08 301.12,-247.04 301.12,-247.04 301.12,-252.96 301.12,-252.96 301.12,-255.92 298.17,-258.88 295.21,-258.88"/>
<text text-anchor="start" x="258.38" y="-246.32" font-family="Helvetica,sans-Serif" font-size="9.00">index.ts</text>
</a>
</g>
</g>
<!-- src/app/providers/router/RouterProvider.tsx&#45;&gt;src/pages/profile/index.ts -->
<g id="edge8" class="edge">
<title>src/app/providers/router/RouterProvider.tsx&#45;&gt;src/pages/profile/index.ts</title>
<path fill="none" stroke="#000000" stroke-width="2" stroke-opacity="0.200000" d="M194.21,-382.64C196.88,-381.31 199.42,-379.78 201.75,-378 221.17,-363.19 251.59,-298.62 265.6,-267.25"/>
<polygon fill="#000000" fill-opacity="0.200000" stroke="#000000" stroke-width="2" stroke-opacity="0.200000" points="267.37,-268.45 267.87,-262.11 263.53,-266.75 267.37,-268.45"/>
</g>
<!-- src/entities/theme/model/store.ts -->
<g id="node9" class="node">
<title>src/entities/theme/model/store.ts</title>
<g id="a_node9"><a xlink:href="src/entities/theme/model/store.ts" xlink:title="store.ts">
<path fill="#ddfeff" stroke="black" d="M627.71,-433.88C627.71,-433.88 585.54,-433.88 585.54,-433.88 582.58,-433.88 579.62,-430.92 579.62,-427.96 579.62,-427.96 579.62,-422.04 579.62,-422.04 579.62,-419.08 582.58,-416.12 585.54,-416.12 585.54,-416.12 627.71,-416.12 627.71,-416.12 630.67,-416.12 633.62,-419.08 633.62,-422.04 633.62,-422.04 633.62,-427.96 633.62,-427.96 633.62,-430.92 630.67,-433.88 627.71,-433.88"/>
<text text-anchor="start" x="592" y="-421.32" font-family="Helvetica,sans-Serif" font-size="9.00">store.ts</text>
</a>
</g>
</g>
<!-- src/entities/theme/index.ts&#45;&gt;src/entities/theme/model/store.ts -->
<g id="edge9" class="edge">
<title>src/entities/theme/index.ts&#45;&gt;src/entities/theme/model/store.ts</title>
<path fill="none" stroke="#000000" stroke-width="2" stroke-opacity="0.200000" d="M432.38,-434.33C440.04,-436.66 448.52,-438.83 456.5,-440 507.12,-447.43 521.56,-450.55 571.62,-440 575.09,-439.27 578.63,-438.16 582.05,-436.88"/>
<polygon fill="#000000" fill-opacity="0.200000" stroke="#000000" stroke-width="2" stroke-opacity="0.200000" points="588.32,-436.55 581.98,-436.91 586.72,-432.67 588.32,-436.55"/>
</g>
<!-- src/entities/theme/model/ThemeProvider.tsx -->
<g id="node10" class="node">
<title>src/entities/theme/model/ThemeProvider.tsx</title>
<g id="a_node10"><a xlink:href="src/entities/theme/model/ThemeProvider.tsx" xlink:title="ThemeProvider.tsx">
<path fill="#bbfeff" stroke="black" d="M551.08,-433.88C551.08,-433.88 470.42,-433.88 470.42,-433.88 467.46,-433.88 464.5,-430.92 464.5,-427.96 464.5,-427.96 464.5,-422.04 464.5,-422.04 464.5,-419.08 467.46,-416.12 470.42,-416.12 470.42,-416.12 551.08,-416.12 551.08,-416.12 554.04,-416.12 557,-419.08 557,-422.04 557,-422.04 557,-427.96 557,-427.96 557,-430.92 554.04,-433.88 551.08,-433.88"/>
<text text-anchor="start" x="472.5" y="-421.32" font-family="Helvetica,sans-Serif" font-size="9.00">ThemeProvider.tsx</text>
</a>
</g>
</g>
<!-- src/entities/theme/index.ts&#45;&gt;src/entities/theme/model/ThemeProvider.tsx -->
<g id="edge10" class="edge">
<title>src/entities/theme/index.ts&#45;&gt;src/entities/theme/model/ThemeProvider.tsx</title>
<path fill="none" stroke="#000000" stroke-width="2" stroke-opacity="0.200000" d="M432.82,-425C440.29,-425 448.7,-425 457.14,-425"/>
<polygon fill="#000000" fill-opacity="0.200000" stroke="#000000" stroke-width="2" stroke-opacity="0.200000" points="463.22,-427.1 457.22,-425 463.22,-422.9 463.22,-427.1"/>
</g>
<!-- src/entities/theme/ui/ThemeToggler.tsx -->
<g id="node11" class="node">
<title>src/entities/theme/ui/ThemeToggler.tsx</title>
<g id="a_node11"><a xlink:href="src/entities/theme/ui/ThemeToggler.tsx" xlink:title="ThemeToggler.tsx">
<path fill="#bbfeff" stroke="black" d="M549.21,-373.88C549.21,-373.88 472.29,-373.88 472.29,-373.88 469.33,-373.88 466.38,-370.92 466.38,-367.96 466.38,-367.96 466.38,-362.04 466.38,-362.04 466.38,-359.08 469.33,-356.12 472.29,-356.12 472.29,-356.12 549.21,-356.12 549.21,-356.12 552.17,-356.12 555.12,-359.08 555.12,-362.04 555.12,-362.04 555.12,-367.96 555.12,-367.96 555.12,-370.92 552.17,-373.88 549.21,-373.88"/>
<text text-anchor="start" x="474.38" y="-361.32" font-family="Helvetica,sans-Serif" font-size="9.00">ThemeToggler.tsx</text>
</a>
</g>
</g>
<!-- src/entities/theme/index.ts&#45;&gt;src/entities/theme/ui/ThemeToggler.tsx -->
<g id="edge11" class="edge">
<title>src/entities/theme/index.ts&#45;&gt;src/entities/theme/ui/ThemeToggler.tsx</title>
<path fill="none" stroke="#000000" stroke-width="2" stroke-opacity="0.200000" d="M422.63,-415.62C440.14,-405.45 468.19,-389.15 487.71,-377.81"/>
<polygon fill="#000000" fill-opacity="0.200000" stroke="#000000" stroke-width="2" stroke-opacity="0.200000" points="493.92,-376.63 487.68,-377.83 491.81,-373 493.92,-376.63"/>
</g>
<!-- src/app/providers/layout/BaseLayoutProvider.tsx&#45;&gt;src/entities/theme/index.ts -->
<g id="edge4" class="edge">
<title>src/app/providers/layout/BaseLayoutProvider.tsx&#45;&gt;src/entities/theme/index.ts</title>
<path fill="none" stroke="#000000" stroke-width="2" stroke-opacity="0.200000" d="M330.58,-398.37C338.67,-399.94 346.85,-401.8 354.5,-404 362.04,-406.17 369.98,-409.15 377.25,-412.19"/>
<polygon fill="#000000" fill-opacity="0.200000" stroke="#000000" stroke-width="2" stroke-opacity="0.200000" points="376.3,-414.07 382.64,-414.53 377.97,-410.21 376.3,-414.07"/>
</g>
<!-- src/pages/home/ui/Page.tsx -->
<g id="node13" class="node">
<title>src/pages/home/ui/Page.tsx</title>
<g id="a_node13"><a xlink:href="src/pages/home/ui/Page.tsx" xlink:title="Page.tsx">
<path fill="#bbfeff" stroke="black" d="M426.58,-151.88C426.58,-151.88 384.42,-151.88 384.42,-151.88 381.46,-151.88 378.5,-148.92 378.5,-145.96 378.5,-145.96 378.5,-140.04 378.5,-140.04 378.5,-137.08 381.46,-134.12 384.42,-134.12 384.42,-134.12 426.58,-134.12 426.58,-134.12 429.54,-134.12 432.5,-137.08 432.5,-140.04 432.5,-140.04 432.5,-145.96 432.5,-145.96 432.5,-148.92 429.54,-151.88 426.58,-151.88"/>
<text text-anchor="start" x="387.88" y="-139.32" font-family="Helvetica,sans-Serif" font-size="9.00">Page.tsx</text>
</a>
</g>
</g>
<!-- src/pages/home/index.ts&#45;&gt;src/pages/home/ui/Page.tsx -->
<g id="edge15" class="edge">
<title>src/pages/home/index.ts&#45;&gt;src/pages/home/ui/Page.tsx</title>
<path fill="none" stroke="#000000" stroke-width="2" stroke-opacity="0.200000" d="M301.62,-153.34C321.68,-151.32 349.37,-148.54 370.97,-146.37"/>
<polygon fill="#000000" fill-opacity="0.200000" stroke="#000000" stroke-width="2" stroke-opacity="0.200000" points="377.26,-147.85 371.08,-146.36 376.84,-143.67 377.26,-147.85"/>
</g>
<!-- src/pages/login/ui/Page.tsx -->
<g id="node14" class="node">
<title>src/pages/login/ui/Page.tsx</title>
<g id="a_node14"><a xlink:href="src/pages/login/ui/Page.tsx" xlink:title="Page.tsx">
<path fill="#bbfeff" stroke="black" d="M426.58,-57.88C426.58,-57.88 384.42,-57.88 384.42,-57.88 381.46,-57.88 378.5,-54.92 378.5,-51.96 378.5,-51.96 378.5,-46.04 378.5,-46.04 378.5,-43.08 381.46,-40.12 384.42,-40.12 384.42,-40.12 426.58,-40.12 426.58,-40.12 429.54,-40.12 432.5,-43.08 432.5,-46.04 432.5,-46.04 432.5,-51.96 432.5,-51.96 432.5,-54.92 429.54,-57.88 426.58,-57.88"/>
<text text-anchor="start" x="387.88" y="-45.33" font-family="Helvetica,sans-Serif" font-size="9.00">Page.tsx</text>
</a>
</g>
</g>
<!-- src/pages/login/index.ts&#45;&gt;src/pages/login/ui/Page.tsx -->
<g id="edge17" class="edge">
<title>src/pages/login/index.ts&#45;&gt;src/pages/login/ui/Page.tsx</title>
<path fill="none" stroke="#000000" stroke-width="2" stroke-opacity="0.200000" d="M301.62,-59.34C321.68,-57.32 349.37,-54.54 370.97,-52.37"/>
<polygon fill="#000000" fill-opacity="0.200000" stroke="#000000" stroke-width="2" stroke-opacity="0.200000" points="377.26,-53.85 371.08,-52.36 376.84,-49.67 377.26,-53.85"/>
</g>
<!-- src/pages/profile/ui/Page.tsx -->
<g id="node16" class="node">
<title>src/pages/profile/ui/Page.tsx</title>
<g id="a_node16"><a xlink:href="src/pages/profile/ui/Page.tsx" xlink:title="Page.tsx">
<path fill="#bbfeff" stroke="black" d="M426.58,-245.88C426.58,-245.88 384.42,-245.88 384.42,-245.88 381.46,-245.88 378.5,-242.92 378.5,-239.96 378.5,-239.96 378.5,-234.04 378.5,-234.04 378.5,-231.08 381.46,-228.12 384.42,-228.12 384.42,-228.12 426.58,-228.12 426.58,-228.12 429.54,-228.12 432.5,-231.08 432.5,-234.04 432.5,-234.04 432.5,-239.96 432.5,-239.96 432.5,-242.92 429.54,-245.88 426.58,-245.88"/>
<text text-anchor="start" x="387.88" y="-233.32" font-family="Helvetica,sans-Serif" font-size="9.00">Page.tsx</text>
</a>
</g>
</g>
<!-- src/pages/profile/index.ts&#45;&gt;src/pages/profile/ui/Page.tsx -->
<g id="edge19" class="edge">
<title>src/pages/profile/index.ts&#45;&gt;src/pages/profile/ui/Page.tsx</title>
<path fill="none" stroke="#000000" stroke-width="2" stroke-opacity="0.200000" d="M301.62,-247.34C321.68,-245.32 349.37,-242.54 370.97,-240.37"/>
<polygon fill="#000000" fill-opacity="0.200000" stroke="#000000" stroke-width="2" stroke-opacity="0.200000" points="377.26,-241.85 371.08,-240.36 376.84,-237.67 377.26,-241.85"/>
</g>
<!-- src/entities/theme/model/types.ts -->
<g id="node12" class="node">
<title>src/entities/theme/model/types.ts</title>
<g id="a_node12"><a xlink:href="src/entities/theme/model/types.ts" xlink:title="types.ts">
<path fill="#ddfeff" stroke="black" d="M694.71,-433.88C694.71,-433.88 652.54,-433.88 652.54,-433.88 649.58,-433.88 646.62,-430.92 646.62,-427.96 646.62,-427.96 646.62,-422.04 646.62,-422.04 646.62,-419.08 649.58,-416.12 652.54,-416.12 652.54,-416.12 694.71,-416.12 694.71,-416.12 697.67,-416.12 700.62,-419.08 700.62,-422.04 700.62,-422.04 700.62,-427.96 700.62,-427.96 700.62,-430.92 697.67,-433.88 694.71,-433.88"/>
<text text-anchor="start" x="658.25" y="-421.32" font-family="Helvetica,sans-Serif" font-size="9.00">types.ts</text>
</a>
</g>
</g>
<!-- src/entities/theme/model/store.ts&#45;&gt;src/entities/theme/model/types.ts -->
<g id="edge13" class="edge">
<title>src/entities/theme/model/store.ts&#45;&gt;src/entities/theme/model/types.ts</title>
<path fill="none" stroke="#000000" stroke-opacity="0.200000" d="M634.06,-425C635.72,-425 637.4,-425 639.08,-425"/>
<polygon fill="none" stroke="#000000" stroke-opacity="0.200000" points="638.91,-427.1 644.91,-425 638.91,-422.9 638.91,-427.1"/>
</g>
<!-- src/entities/theme/model/ThemeProvider.tsx&#45;&gt;src/entities/theme/model/store.ts -->
<g id="edge12" class="edge">
<title>src/entities/theme/model/ThemeProvider.tsx&#45;&gt;src/entities/theme/model/store.ts</title>
<path fill="none" stroke="#000000" stroke-width="2" stroke-opacity="0.200000" d="M557.31,-425C561.81,-425 566.32,-425 570.68,-425"/>
<polygon fill="#000000" fill-opacity="0.200000" stroke="#000000" stroke-width="2" stroke-opacity="0.200000" points="570.34,-427.1 576.34,-425 570.34,-422.9 570.34,-427.1"/>
</g>
<!-- src/entities/theme/ui/ThemeToggler.tsx&#45;&gt;src/entities/theme/model/store.ts -->
<g id="edge14" class="edge">
<title>src/entities/theme/ui/ThemeToggler.tsx&#45;&gt;src/entities/theme/model/store.ts</title>
<path fill="none" stroke="#000000" stroke-width="2" stroke-opacity="0.200000" d="M526.42,-374.38C541.71,-384.15 565.86,-399.59 583.48,-410.85"/>
<polygon fill="#000000" fill-opacity="0.200000" stroke="#000000" stroke-width="2" stroke-opacity="0.200000" points="582.32,-412.6 588.51,-414.06 584.58,-409.06 582.32,-412.6"/>
</g>
<!-- src/pages/home/ui/Page.tsx&#45;&gt;src/entities/theme/ui/ThemeToggler.tsx -->
<g id="edge16" class="edge">
<title>src/pages/home/ui/Page.tsx&#45;&gt;src/entities/theme/ui/ThemeToggler.tsx</title>
<path fill="none" stroke="#000000" stroke-width="2" stroke-opacity="0.200000" d="M412.04,-151.92C420.45,-165.63 436.7,-192.84 448.5,-217 470.98,-263.02 492.81,-319.43 503.3,-347.46"/>
<polygon fill="#000000" fill-opacity="0.200000" stroke="#000000" stroke-width="2" stroke-opacity="0.200000" points="501.29,-348.09 505.35,-352.98 505.23,-346.62 501.29,-348.09"/>
</g>
<!-- src/pages/login/ui/LoginForm.tsx -->
<g id="node15" class="node">
<title>src/pages/login/ui/LoginForm.tsx</title>
<g id="a_node15"><a xlink:href="src/pages/login/ui/LoginForm.tsx" xlink:title="LoginForm.tsx">
<path fill="#bbfeff" stroke="black" d="M541.71,-57.88C541.71,-57.88 479.79,-57.88 479.79,-57.88 476.83,-57.88 473.88,-54.92 473.88,-51.96 473.88,-51.96 473.88,-46.04 473.88,-46.04 473.88,-43.08 476.83,-40.12 479.79,-40.12 479.79,-40.12 541.71,-40.12 541.71,-40.12 544.67,-40.12 547.62,-43.08 547.62,-46.04 547.62,-46.04 547.62,-51.96 547.62,-51.96 547.62,-54.92 544.67,-57.88 541.71,-57.88"/>
<text text-anchor="start" x="481.88" y="-45.33" font-family="Helvetica,sans-Serif" font-size="9.00">LoginForm.tsx</text>
</a>
</g>
</g>
<!-- src/pages/login/ui/Page.tsx&#45;&gt;src/pages/login/ui/LoginForm.tsx -->
<g id="edge18" class="edge">
<title>src/pages/login/ui/Page.tsx&#45;&gt;src/pages/login/ui/LoginForm.tsx</title>
<path fill="none" stroke="#000000" stroke-width="2" stroke-opacity="0.200000" d="M432.82,-49C442.53,-49 453.83,-49 464.72,-49"/>
<polygon fill="#000000" fill-opacity="0.200000" stroke="#000000" stroke-width="2" stroke-opacity="0.200000" points="464.71,-51.1 470.71,-49 464.71,-46.9 464.71,-51.1"/>
</g>
</g>
</svg>
