<?xml version="1.0" encoding="UTF-8" standalone="no"?>
<!DOCTYPE svg PUBLIC "-//W3C//DTD SVG 1.1//EN"
 "http://www.w3.org/Graphics/SVG/1.1/DTD/svg11.dtd">
<!-- Generated by graphviz version 12.0.0 (20240704.0754)
 -->
<!-- Title: dependency&#45;cruiser output Pages: 1 -->
<svg width="680pt" height="584pt"
 viewBox="0.00 0.00 679.75 584.00" xmlns="http://www.w3.org/2000/svg" xmlns:xlink="http://www.w3.org/1999/xlink">
<g id="graph0" class="graph" transform="scale(1 1) rotate(0) translate(4 580)">
<title>dependency&#45;cruiser output</title>
<polygon fill="white" stroke="none" points="-4,4 -4,-580 675.75,-580 675.75,4 -4,4"/>
<g id="clust1" class="cluster">
<title>cluster_src</title>
<path fill="#ffffff" stroke="black" stroke-width="2" d="M20,-8C20,-8 651.75,-8 651.75,-8 657.75,-8 663.75,-14 663.75,-20 663.75,-20 663.75,-556 663.75,-556 663.75,-562 657.75,-568 651.75,-568 651.75,-568 20,-568 20,-568 14,-568 8,-562 8,-556 8,-556 8,-20 8,-20 8,-14 14,-8 20,-8"/>
<text text-anchor="middle" x="335.88" y="-555.45" font-family="Helvetica,sans-Serif" font-weight="bold" font-size="9.00">src</text>
</g>
<g id="clust2" class="cluster">
<title>cluster_src/app</title>
<path fill="#ffffff" stroke="black" stroke-width="2" d="M28,-20C28,-20 339.88,-20 339.88,-20 345.88,-20 351.88,-26 351.88,-32 351.88,-32 351.88,-214 351.88,-214 351.88,-220 345.88,-226 339.88,-226 339.88,-226 28,-226 28,-226 22,-226 16,-220 16,-214 16,-214 16,-32 16,-32 16,-26 22,-20 28,-20"/>
<text text-anchor="middle" x="183.94" y="-213.45" font-family="Helvetica,sans-Serif" font-weight="bold" font-size="9.00">app</text>
</g>
<g id="clust3" class="cluster">
<title>cluster_src/app/providers</title>
<path fill="#ffffff" stroke="black" stroke-width="2" d="M103.38,-54C103.38,-54 331.88,-54 331.88,-54 337.88,-54 343.88,-60 343.88,-66 343.88,-66 343.88,-188 343.88,-188 343.88,-194 337.88,-200 331.88,-200 331.88,-200 103.38,-200 103.38,-200 97.38,-200 91.38,-194 91.38,-188 91.38,-188 91.38,-66 91.38,-66 91.38,-60 97.38,-54 103.38,-54"/>
<text text-anchor="middle" x="217.62" y="-187.45" font-family="Helvetica,sans-Serif" font-weight="bold" font-size="9.00">providers</text>
</g>
<g id="clust4" class="cluster">
<title>cluster_src/app/providers/layout</title>
<path fill="#ffffff" stroke="black" stroke-width="2" d="M219.12,-122C219.12,-122 323.88,-122 323.88,-122 329.88,-122 335.88,-128 335.88,-134 335.88,-134 335.88,-162 335.88,-162 335.88,-168 329.88,-174 323.88,-174 323.88,-174 219.12,-174 219.12,-174 213.12,-174 207.12,-168 207.12,-162 207.12,-162 207.12,-134 207.12,-134 207.12,-128 213.12,-122 219.12,-122"/>
<text text-anchor="middle" x="271.5" y="-161.45" font-family="Helvetica,sans-Serif" font-weight="bold" font-size="9.00">layout</text>
</g>
<g id="clust5" class="cluster">
<title>cluster_src/app/providers/router</title>
<path fill="#ffffff" stroke="black" stroke-width="2" d="M111.38,-62C111.38,-62 305.88,-62 305.88,-62 311.88,-62 317.88,-68 317.88,-74 317.88,-74 317.88,-102 317.88,-102 317.88,-108 311.88,-114 305.88,-114 305.88,-114 111.38,-114 111.38,-114 105.38,-114 99.38,-108 99.38,-102 99.38,-102 99.38,-74 99.38,-74 99.38,-68 105.38,-62 111.38,-62"/>
<text text-anchor="middle" x="208.62" y="-101.45" font-family="Helvetica,sans-Serif" font-weight="bold" font-size="9.00">router</text>
</g>
<g id="clust6" class="cluster">
<title>cluster_src/entities</title>
<path fill="#ffffff" stroke="black" stroke-width="2" d="M371.88,-16C371.88,-16 643.75,-16 643.75,-16 649.75,-16 655.75,-22 655.75,-28 655.75,-28 655.75,-214 655.75,-214 655.75,-220 649.75,-226 643.75,-226 643.75,-226 371.88,-226 371.88,-226 365.88,-226 359.88,-220 359.88,-214 359.88,-214 359.88,-28 359.88,-28 359.88,-22 365.88,-16 371.88,-16"/>
<text text-anchor="middle" x="507.81" y="-213.45" font-family="Helvetica,sans-Serif" font-weight="bold" font-size="9.00">entities</text>
</g>
<g id="clust7" class="cluster">
<title>cluster_src/entities/feature&#45;flags</title>
<path fill="#ffffff" stroke="black" stroke-width="2" d="M379.88,-24C379.88,-24 635.75,-24 635.75,-24 641.75,-24 647.75,-30 647.75,-36 647.75,-36 647.75,-188 647.75,-188 647.75,-194 641.75,-200 635.75,-200 635.75,-200 379.88,-200 379.88,-200 373.88,-200 367.88,-194 367.88,-188 367.88,-188 367.88,-36 367.88,-36 367.88,-30 373.88,-24 379.88,-24"/>
<text text-anchor="middle" x="507.81" y="-187.45" font-family="Helvetica,sans-Serif" font-weight="bold" font-size="9.00">feature&#45;flags</text>
</g>
<g id="clust8" class="cluster">
<title>cluster_src/entities/feature&#45;flags/model</title>
<path fill="#ffffff" stroke="black" stroke-width="2" d="M465.88,-32C465.88,-32 627.75,-32 627.75,-32 633.75,-32 639.75,-38 639.75,-44 639.75,-44 639.75,-102 639.75,-102 639.75,-108 633.75,-114 627.75,-114 627.75,-114 465.88,-114 465.88,-114 459.88,-114 453.88,-108 453.88,-102 453.88,-102 453.88,-44 453.88,-44 453.88,-38 459.88,-32 465.88,-32"/>
<text text-anchor="middle" x="546.81" y="-101.45" font-family="Helvetica,sans-Serif" font-weight="bold" font-size="9.00">model</text>
</g>
<g id="clust9" class="cluster">
<title>cluster_src/entities/feature&#45;flags/ui</title>
<path fill="#ffffff" stroke="black" stroke-width="2" d="M467,-122C467,-122 550.75,-122 550.75,-122 556.75,-122 562.75,-128 562.75,-134 562.75,-134 562.75,-162 562.75,-162 562.75,-168 556.75,-174 550.75,-174 550.75,-174 467,-174 467,-174 461,-174 455,-168 455,-162 455,-162 455,-134 455,-134 455,-128 461,-122 467,-122"/>
<text text-anchor="middle" x="508.88" y="-161.45" font-family="Helvetica,sans-Serif" font-weight="bold" font-size="9.00">ui</text>
</g>
<g id="clust10" class="cluster">
<title>cluster_src/pages</title>
<path fill="#ffffff" stroke="black" stroke-width="2" d="M240.5,-234C240.5,-234 557.75,-234 557.75,-234 563.75,-234 569.75,-240 569.75,-246 569.75,-246 569.75,-530 569.75,-530 569.75,-536 563.75,-542 557.75,-542 557.75,-542 240.5,-542 240.5,-542 234.5,-542 228.5,-536 228.5,-530 228.5,-530 228.5,-246 228.5,-246 228.5,-240 234.5,-234 240.5,-234"/>
<text text-anchor="middle" x="399.12" y="-529.45" font-family="Helvetica,sans-Serif" font-weight="bold" font-size="9.00">pages</text>
</g>
<g id="clust11" class="cluster">
<title>cluster_src/pages/home</title>
<path fill="#ffffff" stroke="black" stroke-width="2" d="M248.5,-242C248.5,-242 433.88,-242 433.88,-242 439.88,-242 445.88,-248 445.88,-254 445.88,-254 445.88,-316 445.88,-316 445.88,-322 439.88,-328 433.88,-328 433.88,-328 248.5,-328 248.5,-328 242.5,-328 236.5,-322 236.5,-316 236.5,-316 236.5,-254 236.5,-254 236.5,-248 242.5,-242 248.5,-242"/>
<text text-anchor="middle" x="341.19" y="-315.45" font-family="Helvetica,sans-Serif" font-weight="bold" font-size="9.00">home</text>
</g>
<g id="clust12" class="cluster">
<title>cluster_src/pages/home/ui</title>
<path fill="#ffffff" stroke="black" stroke-width="2" d="M379.88,-250C379.88,-250 425.88,-250 425.88,-250 431.88,-250 437.88,-256 437.88,-262 437.88,-262 437.88,-290 437.88,-290 437.88,-296 431.88,-302 425.88,-302 425.88,-302 379.88,-302 379.88,-302 373.88,-302 367.88,-296 367.88,-290 367.88,-290 367.88,-262 367.88,-262 367.88,-256 373.88,-250 379.88,-250"/>
<text text-anchor="middle" x="402.88" y="-289.45" font-family="Helvetica,sans-Serif" font-weight="bold" font-size="9.00">ui</text>
</g>
<g id="clust13" class="cluster">
<title>cluster_src/pages/login</title>
<path fill="#ffffff" stroke="black" stroke-width="2" d="M248.5,-336C248.5,-336 549.75,-336 549.75,-336 555.75,-336 561.75,-342 561.75,-348 561.75,-348 561.75,-410 561.75,-410 561.75,-416 555.75,-422 549.75,-422 549.75,-422 248.5,-422 248.5,-422 242.5,-422 236.5,-416 236.5,-410 236.5,-410 236.5,-348 236.5,-348 236.5,-342 242.5,-336 248.5,-336"/>
<text text-anchor="middle" x="399.12" y="-409.45" font-family="Helvetica,sans-Serif" font-weight="bold" font-size="9.00">login</text>
</g>
<g id="clust14" class="cluster">
<title>cluster_src/pages/login/ui</title>
<path fill="#ffffff" stroke="black" stroke-width="2" d="M379.88,-344C379.88,-344 541.75,-344 541.75,-344 547.75,-344 553.75,-350 553.75,-356 553.75,-356 553.75,-384 553.75,-384 553.75,-390 547.75,-396 541.75,-396 541.75,-396 379.88,-396 379.88,-396 373.88,-396 367.88,-390 367.88,-384 367.88,-384 367.88,-356 367.88,-356 367.88,-350 373.88,-344 379.88,-344"/>
<text text-anchor="middle" x="460.81" y="-383.45" font-family="Helvetica,sans-Serif" font-weight="bold" font-size="9.00">ui</text>
</g>
<g id="clust15" class="cluster">
<title>cluster_src/pages/profile</title>
<path fill="#ffffff" stroke="black" stroke-width="2" d="M248.5,-430C248.5,-430 433.88,-430 433.88,-430 439.88,-430 445.88,-436 445.88,-442 445.88,-442 445.88,-504 445.88,-504 445.88,-510 439.88,-516 433.88,-516 433.88,-516 248.5,-516 248.5,-516 242.5,-516 236.5,-510 236.5,-504 236.5,-504 236.5,-442 236.5,-442 236.5,-436 242.5,-430 248.5,-430"/>
<text text-anchor="middle" x="341.19" y="-503.45" font-family="Helvetica,sans-Serif" font-weight="bold" font-size="9.00">profile</text>
</g>
<g id="clust16" class="cluster">
<title>cluster_src/pages/profile/ui</title>
<path fill="#ffffff" stroke="black" stroke-width="2" d="M379.88,-438C379.88,-438 425.88,-438 425.88,-438 431.88,-438 437.88,-444 437.88,-450 437.88,-450 437.88,-478 437.88,-478 437.88,-484 431.88,-490 425.88,-490 425.88,-490 379.88,-490 379.88,-490 373.88,-490 367.88,-484 367.88,-478 367.88,-478 367.88,-450 367.88,-450 367.88,-444 373.88,-438 379.88,-438"/>
<text text-anchor="middle" x="402.88" y="-477.45" font-family="Helvetica,sans-Serif" font-weight="bold" font-size="9.00">ui</text>
</g>
<!-- src/app/entry.css -->
<g id="node1" class="node">
<title>src/app/entry.css</title>
<g id="a_node1"><a xlink:href="src/app/entry.css" xlink:title="entry.css">
<path fill="#ffffcc" stroke="black" d="M174.33,-45.88C174.33,-45.88 132.17,-45.88 132.17,-45.88 129.21,-45.88 126.25,-42.92 126.25,-39.96 126.25,-39.96 126.25,-34.04 126.25,-34.04 126.25,-31.08 129.21,-28.12 132.17,-28.12 132.17,-28.12 174.33,-28.12 174.33,-28.12 177.29,-28.12 180.25,-31.08 180.25,-34.04 180.25,-34.04 180.25,-39.96 180.25,-39.96 180.25,-42.92 177.29,-45.88 174.33,-45.88"/>
<text text-anchor="start" x="135.25" y="-33.33" font-family="Helvetica,sans-Serif" font-size="9.00">entry.css</text>
</a>
</g>
</g>
<!-- src/app/entry.tsx -->
<g id="node2" class="node">
<title>src/app/entry.tsx</title>
<g id="a_node2"><a xlink:href="src/app/entry.tsx" xlink:title="entry.tsx">
<path fill="#bbfeff" stroke="black" d="M72.08,-66.88C72.08,-66.88 29.92,-66.88 29.92,-66.88 26.96,-66.88 24,-63.92 24,-60.96 24,-60.96 24,-55.04 24,-55.04 24,-52.08 26.96,-49.12 29.92,-49.12 29.92,-49.12 72.08,-49.12 72.08,-49.12 75.04,-49.12 78,-52.08 78,-55.04 78,-55.04 78,-60.96 78,-60.96 78,-63.92 75.04,-66.88 72.08,-66.88"/>
<text text-anchor="start" x="34.12" y="-54.33" font-family="Helvetica,sans-Serif" font-size="9.00">entry.tsx</text>
</a>
</g>
</g>
<!-- src/app/entry.tsx&#45;&gt;src/app/entry.css -->
<g id="edge1" class="edge">
<title>src/app/entry.tsx&#45;&gt;src/app/entry.css</title>
<path fill="none" stroke="#000000" stroke-width="2" stroke-opacity="0.200000" d="M78.34,-52.48C90.31,-49.97 104.64,-46.97 117.48,-44.28"/>
<polygon fill="#000000" fill-opacity="0.200000" stroke="#000000" stroke-width="2" stroke-opacity="0.200000" points="117.68,-46.39 123.12,-43.1 116.82,-42.28 117.68,-46.39"/>
</g>
<!-- src/app/providers/router/RouterProvider.tsx -->
<g id="node3" class="node">
<title>src/app/providers/router/RouterProvider.tsx</title>
<g id="a_node3"><a xlink:href="src/app/providers/router/RouterProvider.tsx" xlink:title="RouterProvider.tsx">
<path fill="#bbfeff" stroke="black" d="M193.21,-87.88C193.21,-87.88 113.29,-87.88 113.29,-87.88 110.33,-87.88 107.38,-84.92 107.38,-81.96 107.38,-81.96 107.38,-76.04 107.38,-76.04 107.38,-73.08 110.33,-70.12 113.29,-70.12 113.29,-70.12 193.21,-70.12 193.21,-70.12 196.17,-70.12 199.12,-73.08 199.12,-76.04 199.12,-76.04 199.12,-81.96 199.12,-81.96 199.12,-84.92 196.17,-87.88 193.21,-87.88"/>
<text text-anchor="start" x="115.38" y="-75.33" font-family="Helvetica,sans-Serif" font-size="9.00">RouterProvider.tsx</text>
</a>
</g>
</g>
<!-- src/app/entry.tsx&#45;&gt;src/app/providers/router/RouterProvider.tsx -->
<g id="edge2" class="edge">
<title>src/app/entry.tsx&#45;&gt;src/app/providers/router/RouterProvider.tsx</title>
<path fill="none" stroke="#000000" stroke-width="2" stroke-opacity="0.200000" d="M78.34,-63.52C84.84,-64.88 92.04,-66.39 99.32,-67.91"/>
<polygon fill="#000000" fill-opacity="0.200000" stroke="#000000" stroke-width="2" stroke-opacity="0.200000" points="98.6,-69.91 104.91,-69.08 99.46,-65.8 98.6,-69.91"/>
</g>
<!-- src/app/providers/layout/BaseLayoutProvider.tsx -->
<g id="node4" class="node">
<title>src/app/providers/layout/BaseLayoutProvider.tsx</title>
<g id="a_node4"><a xlink:href="src/app/providers/layout/BaseLayoutProvider.tsx" xlink:title="BaseLayoutProvider.tsx">
<path fill="#bbfeff" stroke="black" d="M321.96,-147.88C321.96,-147.88 221.04,-147.88 221.04,-147.88 218.08,-147.88 215.12,-144.92 215.12,-141.96 215.12,-141.96 215.12,-136.04 215.12,-136.04 215.12,-133.08 218.08,-130.12 221.04,-130.12 221.04,-130.12 321.96,-130.12 321.96,-130.12 324.92,-130.12 327.88,-133.08 327.88,-136.04 327.88,-136.04 327.88,-141.96 327.88,-141.96 327.88,-144.92 324.92,-147.88 321.96,-147.88"/>
<text text-anchor="start" x="223.12" y="-135.32" font-family="Helvetica,sans-Serif" font-size="9.00">BaseLayoutProvider.tsx</text>
</a>
</g>
</g>
<!-- src/app/providers/router/RouterProvider.tsx&#45;&gt;src/app/providers/layout/BaseLayoutProvider.tsx -->
<g id="edge4" class="edge">
<title>src/app/providers/router/RouterProvider.tsx&#45;&gt;src/app/providers/layout/BaseLayoutProvider.tsx</title>
<path fill="none" stroke="#000000" stroke-width="2" stroke-opacity="0.200000" d="M164.99,-88.15C175.26,-96.54 191.47,-108.88 207.12,-117 214.19,-120.66 221.99,-123.94 229.64,-126.77"/>
<polygon fill="#000000" fill-opacity="0.200000" stroke="#000000" stroke-width="2" stroke-opacity="0.200000" points="228.62,-128.64 234.98,-128.66 230.02,-124.68 228.62,-128.64"/>
</g>
<!-- src/app/providers/router/dataLoader.tsx -->
<g id="node6" class="node">
<title>src/app/providers/router/dataLoader.tsx</title>
<g id="a_node6"><a xlink:href="src/app/providers/router/dataLoader.tsx" xlink:title="dataLoader.tsx">
<path fill="#bbfeff" stroke="black" d="M303.96,-87.88C303.96,-87.88 239.04,-87.88 239.04,-87.88 236.08,-87.88 233.12,-84.92 233.12,-81.96 233.12,-81.96 233.12,-76.04 233.12,-76.04 233.12,-73.08 236.08,-70.12 239.04,-70.12 239.04,-70.12 303.96,-70.12 303.96,-70.12 306.92,-70.12 309.88,-73.08 309.88,-76.04 309.88,-76.04 309.88,-81.96 309.88,-81.96 309.88,-84.92 306.92,-87.88 303.96,-87.88"/>
<text text-anchor="start" x="241.12" y="-75.33" font-family="Helvetica,sans-Serif" font-size="9.00">dataLoader.tsx</text>
</a>
</g>
</g>
<!-- src/app/providers/router/RouterProvider.tsx&#45;&gt;src/app/providers/router/dataLoader.tsx -->
<g id="edge5" class="edge">
<title>src/app/providers/router/RouterProvider.tsx&#45;&gt;src/app/providers/router/dataLoader.tsx</title>
<path fill="none" stroke="#000000" stroke-width="2" stroke-opacity="0.200000" d="M199.53,-79C207.5,-79 215.8,-79 223.81,-79"/>
<polygon fill="#000000" fill-opacity="0.200000" stroke="#000000" stroke-width="2" stroke-opacity="0.200000" points="223.65,-81.1 229.65,-79 223.65,-76.9 223.65,-81.1"/>
</g>
<!-- src/pages/home/index.ts -->
<g id="node7" class="node">
<title>src/pages/home/index.ts</title>
<g id="a_node7"><a xlink:href="src/pages/home/index.ts" xlink:title="index.ts">
<path fill="#ddfeff" stroke="black" d="M292.58,-271.88C292.58,-271.88 250.42,-271.88 250.42,-271.88 247.46,-271.88 244.5,-268.92 244.5,-265.96 244.5,-265.96 244.5,-260.04 244.5,-260.04 244.5,-257.08 247.46,-254.12 250.42,-254.12 250.42,-254.12 292.58,-254.12 292.58,-254.12 295.54,-254.12 298.5,-257.08 298.5,-260.04 298.5,-260.04 298.5,-265.96 298.5,-265.96 298.5,-268.92 295.54,-271.88 292.58,-271.88"/>
<text text-anchor="start" x="255.75" y="-259.32" font-family="Helvetica,sans-Serif" font-size="9.00">index.ts</text>
</a>
</g>
</g>
<!-- src/app/providers/router/RouterProvider.tsx&#45;&gt;src/pages/home/index.ts -->
<g id="edge6" class="edge">
<title>src/app/providers/router/RouterProvider.tsx&#45;&gt;src/pages/home/index.ts</title>
<path fill="none" stroke="#000000" stroke-width="2" stroke-opacity="0.200000" d="M158.65,-88.16C167.24,-105.79 187.15,-145.49 207.12,-177 223.14,-202.27 244.13,-229.83 257.47,-246.77"/>
<polygon fill="#000000" fill-opacity="0.200000" stroke="#000000" stroke-width="2" stroke-opacity="0.200000" points="255.76,-248 261.14,-251.39 259.05,-245.39 255.76,-248"/>
</g>
<!-- src/pages/login/index.ts -->
<g id="node8" class="node">
<title>src/pages/login/index.ts</title>
<g id="a_node8"><a xlink:href="src/pages/login/index.ts" xlink:title="index.ts">
<path fill="#ddfeff" stroke="black" d="M292.58,-365.88C292.58,-365.88 250.42,-365.88 250.42,-365.88 247.46,-365.88 244.5,-362.92 244.5,-359.96 244.5,-359.96 244.5,-354.04 244.5,-354.04 244.5,-351.08 247.46,-348.12 250.42,-348.12 250.42,-348.12 292.58,-348.12 292.58,-348.12 295.54,-348.12 298.5,-351.08 298.5,-354.04 298.5,-354.04 298.5,-359.96 298.5,-359.96 298.5,-362.92 295.54,-365.88 292.58,-365.88"/>
<text text-anchor="start" x="255.75" y="-353.32" font-family="Helvetica,sans-Serif" font-size="9.00">index.ts</text>
</a>
</g>
</g>
<!-- src/app/providers/router/RouterProvider.tsx&#45;&gt;src/pages/login/index.ts -->
<g id="edge7" class="edge">
<title>src/app/providers/router/RouterProvider.tsx&#45;&gt;src/pages/login/index.ts</title>
<path fill="none" stroke="#000000" stroke-width="2" stroke-opacity="0.200000" d="M155.04,-88.3C158.71,-129.17 175.17,-292.6 207.12,-331 214.45,-339.8 225.23,-345.66 235.82,-349.54"/>
<polygon fill="#000000" fill-opacity="0.200000" stroke="#000000" stroke-width="2" stroke-opacity="0.200000" points="234.98,-351.48 241.33,-351.32 236.27,-347.48 234.98,-351.48"/>
</g>
<!-- src/pages/profile/index.ts -->
<g id="node9" class="node">
<title>src/pages/profile/index.ts</title>
<g id="a_node9"><a xlink:href="src/pages/profile/index.ts" xlink:title="index.ts">
<path fill="#ddfeff" stroke="black" d="M292.58,-459.88C292.58,-459.88 250.42,-459.88 250.42,-459.88 247.46,-459.88 244.5,-456.92 244.5,-453.96 244.5,-453.96 244.5,-448.04 244.5,-448.04 244.5,-445.08 247.46,-442.12 250.42,-442.12 250.42,-442.12 292.58,-442.12 292.58,-442.12 295.54,-442.12 298.5,-445.08 298.5,-448.04 298.5,-448.04 298.5,-453.96 298.5,-453.96 298.5,-456.92 295.54,-459.88 292.58,-459.88"/>
<text text-anchor="start" x="255.75" y="-447.32" font-family="Helvetica,sans-Serif" font-size="9.00">index.ts</text>
</a>
</g>
</g>
<!-- src/app/providers/router/RouterProvider.tsx&#45;&gt;src/pages/profile/index.ts -->
<g id="edge8" class="edge">
<title>src/app/providers/router/RouterProvider.tsx&#45;&gt;src/pages/profile/index.ts</title>
<path fill="none" stroke="#000000" stroke-width="2" stroke-opacity="0.200000" d="M154.46,-88.23C155.78,-137.62 164.2,-370.43 207.12,-425 214.26,-434.07 225.1,-440 235.8,-443.87"/>
<polygon fill="#000000" fill-opacity="0.200000" stroke="#000000" stroke-width="2" stroke-opacity="0.200000" points="235.04,-445.83 241.39,-445.64 236.3,-441.83 235.04,-445.83"/>
</g>
<!-- src/entities/feature&#45;flags/index.ts -->
<g id="node5" class="node">
<title>src/entities/feature&#45;flags/index.ts</title>
<g id="a_node5"><a xlink:href="src/entities/feature-flags/index.ts" xlink:title="index.ts">
<path fill="#ddfeff" stroke="black" d="M423.96,-87.88C423.96,-87.88 381.79,-87.88 381.79,-87.88 378.83,-87.88 375.88,-84.92 375.88,-81.96 375.88,-81.96 375.88,-76.04 375.88,-76.04 375.88,-73.08 378.83,-70.12 381.79,-70.12 381.79,-70.12 423.96,-70.12 423.96,-70.12 426.92,-70.12 429.88,-73.08 429.88,-76.04 429.88,-76.04 429.88,-81.96 429.88,-81.96 429.88,-84.92 426.92,-87.88 423.96,-87.88"/>
<text text-anchor="start" x="387.12" y="-75.33" font-family="Helvetica,sans-Serif" font-size="9.00">index.ts</text>
</a>
</g>
</g>
<!-- src/app/providers/layout/BaseLayoutProvider.tsx&#45;&gt;src/entities/feature&#45;flags/index.ts -->
<g id="edge3" class="edge">
<title>src/app/providers/layout/BaseLayoutProvider.tsx&#45;&gt;src/entities/feature&#45;flags/index.ts</title>
<path fill="none" stroke="#000000" stroke-width="2" stroke-opacity="0.200000" d="M317.68,-129.66C329.16,-126.44 341.24,-122.27 351.88,-117 364.05,-110.96 376.23,-101.79 385.52,-93.98"/>
<polygon fill="#000000" fill-opacity="0.200000" stroke="#000000" stroke-width="2" stroke-opacity="0.200000" points="386.86,-95.59 390.01,-90.07 384.1,-92.42 386.86,-95.59"/>
</g>
<!-- src/entities/feature&#45;flags/model/actions.ts -->
<g id="node10" class="node">
<title>src/entities/feature&#45;flags/model/actions.ts</title>
<g id="a_node10"><a xlink:href="src/entities/feature-flags/model/actions.ts" xlink:title="actions.ts">
<path fill="#ddfeff" stroke="black" d="M530.08,-57.88C530.08,-57.88 487.67,-57.88 487.67,-57.88 484.71,-57.88 481.75,-54.92 481.75,-51.96 481.75,-51.96 481.75,-46.04 481.75,-46.04 481.75,-43.08 484.71,-40.12 487.67,-40.12 487.67,-40.12 530.08,-40.12 530.08,-40.12 533.04,-40.12 536,-43.08 536,-46.04 536,-46.04 536,-51.96 536,-51.96 536,-54.92 533.04,-57.88 530.08,-57.88"/>
<text text-anchor="start" x="489.75" y="-45.33" font-family="Helvetica,sans-Serif" font-size="9.00">actions.ts</text>
</a>
</g>
</g>
<!-- src/entities/feature&#45;flags/index.ts&#45;&gt;src/entities/feature&#45;flags/model/actions.ts -->
<g id="edge10" class="edge">
<title>src/entities/feature&#45;flags/index.ts&#45;&gt;src/entities/feature&#45;flags/model/actions.ts</title>
<g id="a_edge10"><a xlink:title="no&#45;circular">
<path fill="none" stroke="orange" stroke-width="2" d="M430.31,-76.71C437.91,-74.68 446.21,-72.21 453.88,-70 460.53,-68.08 467.65,-66.07 474.48,-64.03"/>
<polygon fill="orange" stroke="orange" stroke-width="2" points="484.31,-63.07 489.37,-59.24 483.02,-59.08 484.31,-63.07"/>
<polyline fill="none" stroke="orange" stroke-width="2" points="482.71,-61.38 479.85,-62.3"/>
<ellipse fill="none" stroke="orange" stroke-width="2" cx="476.62" cy="-63.34" rx="2.4" ry="2.4"/>
</a>
</g>
<text text-anchor="middle" x="482.94" y="-59.35" font-family="Helvetica,sans-Serif" font-size="9.00" fill="orange">no&#45;circular</text>
</g>
<!-- src/entities/feature&#45;flags/model/store.ts -->
<g id="node11" class="node">
<title>src/entities/feature&#45;flags/model/store.ts</title>
<g id="a_node11"><a xlink:href="src/entities/feature-flags/model/store.ts" xlink:title="store.ts">
<path fill="#ddfeff" stroke="black" d="M625.83,-87.88C625.83,-87.88 583.67,-87.88 583.67,-87.88 580.71,-87.88 577.75,-84.92 577.75,-81.96 577.75,-81.96 577.75,-76.04 577.75,-76.04 577.75,-73.08 580.71,-70.12 583.67,-70.12 583.67,-70.12 625.83,-70.12 625.83,-70.12 628.79,-70.12 631.75,-73.08 631.75,-76.04 631.75,-76.04 631.75,-81.96 631.75,-81.96 631.75,-84.92 628.79,-87.88 625.83,-87.88"/>
<text text-anchor="start" x="590.12" y="-75.33" font-family="Helvetica,sans-Serif" font-size="9.00">store.ts</text>
</a>
</g>
</g>
<!-- src/entities/feature&#45;flags/index.ts&#45;&gt;src/entities/feature&#45;flags/model/store.ts -->
<g id="edge11" class="edge">
<title>src/entities/feature&#45;flags/index.ts&#45;&gt;src/entities/feature&#45;flags/model/store.ts</title>
<path fill="none" stroke="#000000" stroke-width="2" stroke-opacity="0.200000" d="M429.76,-88.33C437.42,-90.66 445.89,-92.83 453.88,-94 504.83,-101.48 519.36,-104.62 569.75,-94 573.21,-93.27 576.75,-92.16 580.18,-90.88"/>
<polygon fill="#000000" fill-opacity="0.200000" stroke="#000000" stroke-width="2" stroke-opacity="0.200000" points="586.45,-90.55 580.1,-90.91 584.84,-86.67 586.45,-90.55"/>
</g>
<!-- src/entities/feature&#45;flags/model/useFeatureFlag.tsx -->
<g id="node12" class="node">
<title>src/entities/feature&#45;flags/model/useFeatureFlag.tsx</title>
<g id="a_node12"><a xlink:href="src/entities/feature-flags/model/useFeatureFlag.tsx" xlink:title="useFeatureFlag.tsx">
<path fill="#bbfeff" stroke="black" d="M549.96,-87.88C549.96,-87.88 467.79,-87.88 467.79,-87.88 464.83,-87.88 461.88,-84.92 461.88,-81.96 461.88,-81.96 461.88,-76.04 461.88,-76.04 461.88,-73.08 464.83,-70.12 467.79,-70.12 467.79,-70.12 549.96,-70.12 549.96,-70.12 552.92,-70.12 555.88,-73.08 555.88,-76.04 555.88,-76.04 555.88,-81.96 555.88,-81.96 555.88,-84.92 552.92,-87.88 549.96,-87.88"/>
<text text-anchor="start" x="469.88" y="-75.33" font-family="Helvetica,sans-Serif" font-size="9.00">useFeatureFlag.tsx</text>
</a>
</g>
</g>
<!-- src/entities/feature&#45;flags/index.ts&#45;&gt;src/entities/feature&#45;flags/model/useFeatureFlag.tsx -->
<g id="edge12" class="edge">
<title>src/entities/feature&#45;flags/index.ts&#45;&gt;src/entities/feature&#45;flags/model/useFeatureFlag.tsx</title>
<path fill="none" stroke="#000000" stroke-width="2" stroke-opacity="0.200000" d="M430.12,-79C437.55,-79 445.91,-79 454.33,-79"/>
<polygon fill="#000000" fill-opacity="0.200000" stroke="#000000" stroke-width="2" stroke-opacity="0.200000" points="460.4,-81.1 454.4,-79 460.4,-76.9 460.4,-81.1"/>
</g>
<!-- src/entities/feature&#45;flags/ui/FeatureToggler.tsx -->
<g id="node13" class="node">
<title>src/entities/feature&#45;flags/ui/FeatureToggler.tsx</title>
<g id="a_node13"><a xlink:href="src/entities/feature-flags/ui/FeatureToggler.tsx" xlink:title="FeatureToggler.tsx">
<path fill="#bbfeff" stroke="black" d="M548.83,-147.88C548.83,-147.88 468.92,-147.88 468.92,-147.88 465.96,-147.88 463,-144.92 463,-141.96 463,-141.96 463,-136.04 463,-136.04 463,-133.08 465.96,-130.12 468.92,-130.12 468.92,-130.12 548.83,-130.12 548.83,-130.12 551.79,-130.12 554.75,-133.08 554.75,-136.04 554.75,-136.04 554.75,-141.96 554.75,-141.96 554.75,-144.92 551.79,-147.88 548.83,-147.88"/>
<text text-anchor="start" x="471" y="-135.32" font-family="Helvetica,sans-Serif" font-size="9.00">FeatureToggler.tsx</text>
</a>
</g>
</g>
<!-- src/entities/feature&#45;flags/index.ts&#45;&gt;src/entities/feature&#45;flags/ui/FeatureToggler.tsx -->
<g id="edge13" class="edge">
<title>src/entities/feature&#45;flags/index.ts&#45;&gt;src/entities/feature&#45;flags/ui/FeatureToggler.tsx</title>
<path fill="none" stroke="#000000" stroke-width="2" stroke-opacity="0.200000" d="M410.98,-88.09C419.85,-98.81 436.06,-116.37 453.88,-126 454.66,-126.43 455.46,-126.84 456.28,-127.24"/>
<polygon fill="#000000" fill-opacity="0.200000" stroke="#000000" stroke-width="2" stroke-opacity="0.200000" points="460.95,-131.56 456.29,-127.24 462.63,-127.71 460.95,-131.56"/>
</g>
<!-- src/app/providers/router/dataLoader.tsx&#45;&gt;src/entities/feature&#45;flags/index.ts -->
<g id="edge9" class="edge">
<title>src/app/providers/router/dataLoader.tsx&#45;&gt;src/entities/feature&#45;flags/index.ts</title>
<path fill="none" stroke="#000000" stroke-width="2" stroke-opacity="0.200000" d="M310.27,-79C328.18,-79 349.44,-79 366.97,-79"/>
<polygon fill="#000000" fill-opacity="0.200000" stroke="#000000" stroke-width="2" stroke-opacity="0.200000" points="366.73,-81.1 372.73,-79 366.73,-76.9 366.73,-81.1"/>
</g>
<!-- src/pages/home/ui/Page.tsx -->
<g id="node14" class="node">
<title>src/pages/home/ui/Page.tsx</title>
<g id="a_node14"><a xlink:href="src/pages/home/ui/Page.tsx" xlink:title="Page.tsx">
<path fill="#bbfeff" stroke="black" d="M423.96,-275.88C423.96,-275.88 381.79,-275.88 381.79,-275.88 378.83,-275.88 375.88,-272.92 375.88,-269.96 375.88,-269.96 375.88,-264.04 375.88,-264.04 375.88,-261.08 378.83,-258.12 381.79,-258.12 381.79,-258.12 423.96,-258.12 423.96,-258.12 426.92,-258.12 429.88,-261.08 429.88,-264.04 429.88,-264.04 429.88,-269.96 429.88,-269.96 429.88,-272.92 426.92,-275.88 423.96,-275.88"/>
<text text-anchor="start" x="385.25" y="-263.32" font-family="Helvetica,sans-Serif" font-size="9.00">Page.tsx</text>
</a>
</g>
</g>
<!-- src/pages/home/index.ts&#45;&gt;src/pages/home/ui/Page.tsx -->
<g id="edge18" class="edge">
<title>src/pages/home/index.ts&#45;&gt;src/pages/home/ui/Page.tsx</title>
<path fill="none" stroke="#000000" stroke-width="2" stroke-opacity="0.200000" d="M298.99,-263.82C319.05,-264.44 346.74,-265.3 368.34,-265.96"/>
<polygon fill="#000000" fill-opacity="0.200000" stroke="#000000" stroke-width="2" stroke-opacity="0.200000" points="374.35,-268.25 368.42,-265.97 374.48,-264.05 374.35,-268.25"/>
</g>
<!-- src/pages/login/ui/Page.tsx -->
<g id="node15" class="node">
<title>src/pages/login/ui/Page.tsx</title>
<g id="a_node15"><a xlink:href="src/pages/login/ui/Page.tsx" xlink:title="Page.tsx">
<path fill="#bbfeff" stroke="black" d="M423.96,-369.88C423.96,-369.88 381.79,-369.88 381.79,-369.88 378.83,-369.88 375.88,-366.92 375.88,-363.96 375.88,-363.96 375.88,-358.04 375.88,-358.04 375.88,-355.08 378.83,-352.12 381.79,-352.12 381.79,-352.12 423.96,-352.12 423.96,-352.12 426.92,-352.12 429.88,-355.08 429.88,-358.04 429.88,-358.04 429.88,-363.96 429.88,-363.96 429.88,-366.92 426.92,-369.88 423.96,-369.88"/>
<text text-anchor="start" x="385.25" y="-357.32" font-family="Helvetica,sans-Serif" font-size="9.00">Page.tsx</text>
</a>
</g>
</g>
<!-- src/pages/login/index.ts&#45;&gt;src/pages/login/ui/Page.tsx -->
<g id="edge20" class="edge">
<title>src/pages/login/index.ts&#45;&gt;src/pages/login/ui/Page.tsx</title>
<path fill="none" stroke="#000000" stroke-width="2" stroke-opacity="0.200000" d="M298.99,-357.82C319.05,-358.44 346.74,-359.3 368.34,-359.96"/>
<polygon fill="#000000" fill-opacity="0.200000" stroke="#000000" stroke-width="2" stroke-opacity="0.200000" points="374.35,-362.25 368.42,-359.97 374.48,-358.05 374.35,-362.25"/>
</g>
<!-- src/pages/profile/ui/Page.tsx -->
<g id="node17" class="node">
<title>src/pages/profile/ui/Page.tsx</title>
<g id="a_node17"><a xlink:href="src/pages/profile/ui/Page.tsx" xlink:title="Page.tsx">
<path fill="#bbfeff" stroke="black" d="M423.96,-463.88C423.96,-463.88 381.79,-463.88 381.79,-463.88 378.83,-463.88 375.88,-460.92 375.88,-457.96 375.88,-457.96 375.88,-452.04 375.88,-452.04 375.88,-449.08 378.83,-446.12 381.79,-446.12 381.79,-446.12 423.96,-446.12 423.96,-446.12 426.92,-446.12 429.88,-449.08 429.88,-452.04 429.88,-452.04 429.88,-457.96 429.88,-457.96 429.88,-460.92 426.92,-463.88 423.96,-463.88"/>
<text text-anchor="start" x="385.25" y="-451.32" font-family="Helvetica,sans-Serif" font-size="9.00">Page.tsx</text>
</a>
</g>
</g>
<!-- src/pages/profile/index.ts&#45;&gt;src/pages/profile/ui/Page.tsx -->
<g id="edge22" class="edge">
<title>src/pages/profile/index.ts&#45;&gt;src/pages/profile/ui/Page.tsx</title>
<path fill="none" stroke="#000000" stroke-width="2" stroke-opacity="0.200000" d="M298.99,-451.82C319.05,-452.44 346.74,-453.3 368.34,-453.96"/>
<polygon fill="#000000" fill-opacity="0.200000" stroke="#000000" stroke-width="2" stroke-opacity="0.200000" points="374.35,-456.25 368.42,-453.97 374.48,-452.05 374.35,-456.25"/>
</g>
<!-- src/entities/feature&#45;flags/model/actions.ts&#45;&gt;src/entities/feature&#45;flags/index.ts -->
<g id="edge15" class="edge">
<title>src/entities/feature&#45;flags/model/actions.ts&#45;&gt;src/entities/feature&#45;flags/index.ts</title>
<g id="a_edge15"><a xlink:title="no&#45;circular">
<path fill="none" stroke="orange" stroke-width="2" d="M481.48,-50.53C472.69,-52.65 462.85,-55.41 453.88,-58 447.88,-59.73 441.48,-61.62 435.34,-63.57"/>
<polygon fill="orange" stroke="orange" stroke-width="2" points="425.68,-64.73 420.72,-68.7 427.07,-68.7 425.68,-64.73"/>
<polyline fill="none" stroke="orange" stroke-width="2" points="427.32,-66.38 430.15,-65.39"/>
<ellipse fill="none" stroke="orange" stroke-width="2" cx="433.36" cy="-64.26" rx="2.4" ry="2.4"/>
</a>
</g>
<text text-anchor="middle" x="427.85" y="-50.69" font-family="Helvetica,sans-Serif" font-size="9.00" fill="orange">no&#45;circular</text>
</g>
<!-- src/entities/feature&#45;flags/model/actions.ts&#45;&gt;src/entities/feature&#45;flags/model/store.ts -->
<g id="edge14" class="edge">
<title>src/entities/feature&#45;flags/model/actions.ts&#45;&gt;src/entities/feature&#45;flags/model/store.ts</title>
<path fill="none" stroke="#000000" stroke-width="2" stroke-opacity="0.200000" d="M536.39,-54.62C546.89,-57.11 559.01,-60.31 569.75,-64 571.83,-64.71 573.96,-65.5 576.09,-66.34"/>
<polygon fill="#000000" fill-opacity="0.200000" stroke="#000000" stroke-width="2" stroke-opacity="0.200000" points="575.06,-68.18 581.4,-68.54 576.66,-64.3 575.06,-68.18"/>
</g>
<!-- src/entities/feature&#45;flags/model/useFeatureFlag.tsx&#45;&gt;src/entities/feature&#45;flags/model/store.ts -->
<g id="edge16" class="edge">
<title>src/entities/feature&#45;flags/model/useFeatureFlag.tsx&#45;&gt;src/entities/feature&#45;flags/model/store.ts</title>
<path fill="none" stroke="#000000" stroke-width="2" stroke-opacity="0.200000" d="M556.26,-79C560.32,-79 564.37,-79 568.32,-79"/>
<polygon fill="#000000" fill-opacity="0.200000" stroke="#000000" stroke-width="2" stroke-opacity="0.200000" points="568.23,-81.1 574.23,-79 568.23,-76.9 568.23,-81.1"/>
</g>
<!-- src/entities/feature&#45;flags/ui/FeatureToggler.tsx&#45;&gt;src/entities/feature&#45;flags/model/store.ts -->
<g id="edge17" class="edge">
<title>src/entities/feature&#45;flags/ui/FeatureToggler.tsx&#45;&gt;src/entities/feature&#45;flags/model/store.ts</title>
<path fill="none" stroke="#000000" stroke-width="2" stroke-opacity="0.200000" d="M555.14,-132.95C560.3,-131.18 565.3,-128.91 569.75,-126 580.94,-118.68 589.67,-106.3 595.48,-96.09"/>
<polygon fill="#000000" fill-opacity="0.200000" stroke="#000000" stroke-width="2" stroke-opacity="0.200000" points="597.31,-97.14 598.25,-90.85 593.59,-95.18 597.31,-97.14"/>
</g>
<!-- src/pages/home/ui/Page.tsx&#45;&gt;src/entities/feature&#45;flags/ui/FeatureToggler.tsx -->
<g id="edge19" class="edge">
<title>src/pages/home/ui/Page.tsx&#45;&gt;src/entities/feature&#45;flags/ui/FeatureToggler.tsx</title>
<path fill="none" stroke="#000000" stroke-width="2" stroke-opacity="0.200000" d="M411.35,-257.79C428.89,-236.21 472.85,-182.11 494.87,-155"/>
<polygon fill="#000000" fill-opacity="0.200000" stroke="#000000" stroke-width="2" stroke-opacity="0.200000" points="496.4,-156.45 498.55,-150.47 493.14,-153.8 496.4,-156.45"/>
</g>
<!-- src/pages/login/ui/LoginForm.tsx -->
<g id="node16" class="node">
<title>src/pages/login/ui/LoginForm.tsx</title>
<g id="a_node16"><a xlink:href="src/pages/login/ui/LoginForm.tsx" xlink:title="LoginForm.tsx">
<path fill="#bbfeff" stroke="black" d="M539.83,-369.88C539.83,-369.88 477.92,-369.88 477.92,-369.88 474.96,-369.88 472,-366.92 472,-363.96 472,-363.96 472,-358.04 472,-358.04 472,-355.08 474.96,-352.12 477.92,-352.12 477.92,-352.12 539.83,-352.12 539.83,-352.12 542.79,-352.12 545.75,-355.08 545.75,-358.04 545.75,-358.04 545.75,-363.96 545.75,-363.96 545.75,-366.92 542.79,-369.88 539.83,-369.88"/>
<text text-anchor="start" x="480" y="-357.32" font-family="Helvetica,sans-Serif" font-size="9.00">LoginForm.tsx</text>
</a>
</g>
</g>
<!-- src/pages/login/ui/Page.tsx&#45;&gt;src/pages/login/ui/LoginForm.tsx -->
<g id="edge21" class="edge">
<title>src/pages/login/ui/Page.tsx&#45;&gt;src/pages/login/ui/LoginForm.tsx</title>
<path fill="none" stroke="#000000" stroke-width="2" stroke-opacity="0.200000" d="M430.12,-361C440.09,-361 451.75,-361 462.96,-361"/>
<polygon fill="#000000" fill-opacity="0.200000" stroke="#000000" stroke-width="2" stroke-opacity="0.200000" points="462.79,-363.1 468.79,-361 462.79,-358.9 462.79,-363.1"/>
</g>
<!-- src/vite&#45;env.d.ts -->
<g id="node18" class="node">
<title>src/vite&#45;env.d.ts</title>
<g id="a_node18"><a xlink:href="src/vite-env.d.ts" xlink:title="vite&#45;env.d.ts">
<path fill="#ccffcc" stroke="black" d="M77.46,-396.88C77.46,-396.88 24.54,-396.88 24.54,-396.88 21.58,-396.88 18.62,-393.92 18.62,-390.96 18.62,-390.96 18.62,-385.04 18.62,-385.04 18.62,-382.08 21.58,-379.12 24.54,-379.12 24.54,-379.12 77.46,-379.12 77.46,-379.12 80.42,-379.12 83.38,-382.08 83.38,-385.04 83.38,-385.04 83.38,-390.96 83.38,-390.96 83.38,-393.92 80.42,-396.88 77.46,-396.88"/>
<text text-anchor="start" x="26.62" y="-384.32" font-family="Helvetica,sans-Serif" font-size="9.00">vite&#45;env.d.ts</text>
</a>
</g>
</g>
</g>
</svg>
