<?xml version="1.0" encoding="UTF-8" standalone="no"?>
<!DOCTYPE svg PUBLIC "-//W3C//DTD SVG 1.1//EN"
 "http://www.w3.org/Graphics/SVG/1.1/DTD/svg11.dtd">
<!-- Generated by graphviz version 12.0.0 (20240704.0754)
 -->
<!-- Title: dependency&#45;cruiser output Pages: 1 -->
<svg width="674pt" height="584pt"
 viewBox="0.00 0.00 674.38 584.00" xmlns="http://www.w3.org/2000/svg" xmlns:xlink="http://www.w3.org/1999/xlink">
<g id="graph0" class="graph" transform="scale(1 1) rotate(0) translate(4 580)">
<title>dependency&#45;cruiser output</title>
<polygon fill="white" stroke="none" points="-4,4 -4,-580 670.38,-580 670.38,4 -4,4"/>
<g id="clust1" class="cluster">
<title>cluster_src</title>
<path fill="#ffffff" stroke="black" stroke-width="2" d="M20,-8C20,-8 646.38,-8 646.38,-8 652.38,-8 658.38,-14 658.38,-20 658.38,-20 658.38,-556 658.38,-556 658.38,-562 652.38,-568 646.38,-568 646.38,-568 20,-568 20,-568 14,-568 8,-562 8,-556 8,-556 8,-20 8,-20 8,-14 14,-8 20,-8"/>
<text text-anchor="middle" x="333.19" y="-555.45" font-family="Helvetica,sans-Serif" font-weight="bold" font-size="9.00">src</text>
</g>
<g id="clust2" class="cluster">
<title>cluster_src/app</title>
<path fill="#ffffff" stroke="black" stroke-width="2" d="M28,-20C28,-20 334.5,-20 334.5,-20 340.5,-20 346.5,-26 346.5,-32 346.5,-32 346.5,-214 346.5,-214 346.5,-220 340.5,-226 334.5,-226 334.5,-226 28,-226 28,-226 22,-226 16,-220 16,-214 16,-214 16,-32 16,-32 16,-26 22,-20 28,-20"/>
<text text-anchor="middle" x="181.25" y="-213.45" font-family="Helvetica,sans-Serif" font-weight="bold" font-size="9.00">app</text>
</g>
<g id="clust3" class="cluster">
<title>cluster_src/app/providers</title>
<path fill="#ffffff" stroke="black" stroke-width="2" d="M98,-54C98,-54 326.5,-54 326.5,-54 332.5,-54 338.5,-60 338.5,-66 338.5,-66 338.5,-188 338.5,-188 338.5,-194 332.5,-200 326.5,-200 326.5,-200 98,-200 98,-200 92,-200 86,-194 86,-188 86,-188 86,-66 86,-66 86,-60 92,-54 98,-54"/>
<text text-anchor="middle" x="212.25" y="-187.45" font-family="Helvetica,sans-Serif" font-weight="bold" font-size="9.00">providers</text>
</g>
<g id="clust4" class="cluster">
<title>cluster_src/app/providers/layout</title>
<path fill="#ffffff" stroke="black" stroke-width="2" d="M213.75,-122C213.75,-122 318.5,-122 318.5,-122 324.5,-122 330.5,-128 330.5,-134 330.5,-134 330.5,-162 330.5,-162 330.5,-168 324.5,-174 318.5,-174 318.5,-174 213.75,-174 213.75,-174 207.75,-174 201.75,-168 201.75,-162 201.75,-162 201.75,-134 201.75,-134 201.75,-128 207.75,-122 213.75,-122"/>
<text text-anchor="middle" x="266.12" y="-161.45" font-family="Helvetica,sans-Serif" font-weight="bold" font-size="9.00">layout</text>
</g>
<g id="clust5" class="cluster">
<title>cluster_src/app/providers/router</title>
<path fill="#ffffff" stroke="black" stroke-width="2" d="M106,-62C106,-62 300.5,-62 300.5,-62 306.5,-62 312.5,-68 312.5,-74 312.5,-74 312.5,-102 312.5,-102 312.5,-108 306.5,-114 300.5,-114 300.5,-114 106,-114 106,-114 100,-114 94,-108 94,-102 94,-102 94,-74 94,-74 94,-68 100,-62 106,-62"/>
<text text-anchor="middle" x="203.25" y="-101.45" font-family="Helvetica,sans-Serif" font-weight="bold" font-size="9.00">router</text>
</g>
<g id="clust6" class="cluster">
<title>cluster_src/entities</title>
<path fill="#ffffff" stroke="black" stroke-width="2" d="M366.5,-16C366.5,-16 638.38,-16 638.38,-16 644.38,-16 650.38,-22 650.38,-28 650.38,-28 650.38,-214 650.38,-214 650.38,-220 644.38,-226 638.38,-226 638.38,-226 366.5,-226 366.5,-226 360.5,-226 354.5,-220 354.5,-214 354.5,-214 354.5,-28 354.5,-28 354.5,-22 360.5,-16 366.5,-16"/>
<text text-anchor="middle" x="502.44" y="-213.45" font-family="Helvetica,sans-Serif" font-weight="bold" font-size="9.00">entities</text>
</g>
<g id="clust7" class="cluster">
<title>cluster_src/entities/feature&#45;flags</title>
<path fill="#ffffff" stroke="black" stroke-width="2" d="M374.5,-24C374.5,-24 630.38,-24 630.38,-24 636.38,-24 642.38,-30 642.38,-36 642.38,-36 642.38,-188 642.38,-188 642.38,-194 636.38,-200 630.38,-200 630.38,-200 374.5,-200 374.5,-200 368.5,-200 362.5,-194 362.5,-188 362.5,-188 362.5,-36 362.5,-36 362.5,-30 368.5,-24 374.5,-24"/>
<text text-anchor="middle" x="502.44" y="-187.45" font-family="Helvetica,sans-Serif" font-weight="bold" font-size="9.00">feature&#45;flags</text>
</g>
<g id="clust8" class="cluster">
<title>cluster_src/entities/feature&#45;flags/model</title>
<path fill="#ffffff" stroke="black" stroke-width="2" d="M460.5,-32C460.5,-32 622.38,-32 622.38,-32 628.38,-32 634.38,-38 634.38,-44 634.38,-44 634.38,-102 634.38,-102 634.38,-108 628.38,-114 622.38,-114 622.38,-114 460.5,-114 460.5,-114 454.5,-114 448.5,-108 448.5,-102 448.5,-102 448.5,-44 448.5,-44 448.5,-38 454.5,-32 460.5,-32"/>
<text text-anchor="middle" x="541.44" y="-101.45" font-family="Helvetica,sans-Serif" font-weight="bold" font-size="9.00">model</text>
</g>
<g id="clust9" class="cluster">
<title>cluster_src/entities/feature&#45;flags/ui</title>
<path fill="#ffffff" stroke="black" stroke-width="2" d="M461.62,-122C461.62,-122 545.38,-122 545.38,-122 551.38,-122 557.38,-128 557.38,-134 557.38,-134 557.38,-162 557.38,-162 557.38,-168 551.38,-174 545.38,-174 545.38,-174 461.62,-174 461.62,-174 455.62,-174 449.62,-168 449.62,-162 449.62,-162 449.62,-134 449.62,-134 449.62,-128 455.62,-122 461.62,-122"/>
<text text-anchor="middle" x="503.5" y="-161.45" font-family="Helvetica,sans-Serif" font-weight="bold" font-size="9.00">ui</text>
</g>
<g id="clust10" class="cluster">
<title>cluster_src/pages</title>
<path fill="#ffffff" stroke="black" stroke-width="2" d="M235.12,-234C235.12,-234 552.38,-234 552.38,-234 558.38,-234 564.38,-240 564.38,-246 564.38,-246 564.38,-530 564.38,-530 564.38,-536 558.38,-542 552.38,-542 552.38,-542 235.12,-542 235.12,-542 229.13,-542 223.12,-536 223.12,-530 223.12,-530 223.12,-246 223.12,-246 223.12,-240 229.12,-234 235.12,-234"/>
<text text-anchor="middle" x="393.75" y="-529.45" font-family="Helvetica,sans-Serif" font-weight="bold" font-size="9.00">pages</text>
</g>
<g id="clust11" class="cluster">
<title>cluster_src/pages/home</title>
<path fill="#ffffff" stroke="black" stroke-width="2" d="M243.12,-242C243.12,-242 428.5,-242 428.5,-242 434.5,-242 440.5,-248 440.5,-254 440.5,-254 440.5,-316 440.5,-316 440.5,-322 434.5,-328 428.5,-328 428.5,-328 243.12,-328 243.12,-328 237.12,-328 231.12,-322 231.12,-316 231.12,-316 231.12,-254 231.12,-254 231.12,-248 237.12,-242 243.12,-242"/>
<text text-anchor="middle" x="335.81" y="-315.45" font-family="Helvetica,sans-Serif" font-weight="bold" font-size="9.00">home</text>
</g>
<g id="clust12" class="cluster">
<title>cluster_src/pages/home/ui</title>
<path fill="#ffffff" stroke="black" stroke-width="2" d="M374.5,-250C374.5,-250 420.5,-250 420.5,-250 426.5,-250 432.5,-256 432.5,-262 432.5,-262 432.5,-290 432.5,-290 432.5,-296 426.5,-302 420.5,-302 420.5,-302 374.5,-302 374.5,-302 368.5,-302 362.5,-296 362.5,-290 362.5,-290 362.5,-262 362.5,-262 362.5,-256 368.5,-250 374.5,-250"/>
<text text-anchor="middle" x="397.5" y="-289.45" font-family="Helvetica,sans-Serif" font-weight="bold" font-size="9.00">ui</text>
</g>
<g id="clust13" class="cluster">
<title>cluster_src/pages/login</title>
<path fill="#ffffff" stroke="black" stroke-width="2" d="M243.12,-336C243.12,-336 544.38,-336 544.38,-336 550.38,-336 556.38,-342 556.38,-348 556.38,-348 556.38,-410 556.38,-410 556.38,-416 550.38,-422 544.38,-422 544.38,-422 243.12,-422 243.12,-422 237.12,-422 231.12,-416 231.12,-410 231.12,-410 231.12,-348 231.12,-348 231.12,-342 237.12,-336 243.12,-336"/>
<text text-anchor="middle" x="393.75" y="-409.45" font-family="Helvetica,sans-Serif" font-weight="bold" font-size="9.00">login</text>
</g>
<g id="clust14" class="cluster">
<title>cluster_src/pages/login/ui</title>
<path fill="#ffffff" stroke="black" stroke-width="2" d="M374.5,-344C374.5,-344 536.38,-344 536.38,-344 542.38,-344 548.38,-350 548.38,-356 548.38,-356 548.38,-384 548.38,-384 548.38,-390 542.38,-396 536.38,-396 536.38,-396 374.5,-396 374.5,-396 368.5,-396 362.5,-390 362.5,-384 362.5,-384 362.5,-356 362.5,-356 362.5,-350 368.5,-344 374.5,-344"/>
<text text-anchor="middle" x="455.44" y="-383.45" font-family="Helvetica,sans-Serif" font-weight="bold" font-size="9.00">ui</text>
</g>
<g id="clust15" class="cluster">
<title>cluster_src/pages/profile</title>
<path fill="#ffffff" stroke="black" stroke-width="2" d="M243.12,-430C243.12,-430 428.5,-430 428.5,-430 434.5,-430 440.5,-436 440.5,-442 440.5,-442 440.5,-504 440.5,-504 440.5,-510 434.5,-516 428.5,-516 428.5,-516 243.12,-516 243.12,-516 237.12,-516 231.12,-510 231.12,-504 231.12,-504 231.12,-442 231.12,-442 231.12,-436 237.12,-430 243.12,-430"/>
<text text-anchor="middle" x="335.81" y="-503.45" font-family="Helvetica,sans-Serif" font-weight="bold" font-size="9.00">profile</text>
</g>
<g id="clust16" class="cluster">
<title>cluster_src/pages/profile/ui</title>
<path fill="#ffffff" stroke="black" stroke-width="2" d="M374.5,-438C374.5,-438 420.5,-438 420.5,-438 426.5,-438 432.5,-444 432.5,-450 432.5,-450 432.5,-478 432.5,-478 432.5,-484 426.5,-490 420.5,-490 420.5,-490 374.5,-490 374.5,-490 368.5,-490 362.5,-484 362.5,-478 362.5,-478 362.5,-450 362.5,-450 362.5,-444 368.5,-438 374.5,-438"/>
<text text-anchor="middle" x="397.5" y="-477.45" font-family="Helvetica,sans-Serif" font-weight="bold" font-size="9.00">ui</text>
</g>
<!-- src/app/entry.css -->
<g id="node1" class="node">
<title>src/app/entry.css</title>
<g id="a_node1"><a xlink:href="src/app/entry.css" xlink:title="entry.css">
<path fill="#ffffcc" stroke="black" d="M168.96,-45.88C168.96,-45.88 126.79,-45.88 126.79,-45.88 123.83,-45.88 120.88,-42.92 120.88,-39.96 120.88,-39.96 120.88,-34.04 120.88,-34.04 120.88,-31.08 123.83,-28.12 126.79,-28.12 126.79,-28.12 168.96,-28.12 168.96,-28.12 171.92,-28.12 174.88,-31.08 174.88,-34.04 174.88,-34.04 174.88,-39.96 174.88,-39.96 174.88,-42.92 171.92,-45.88 168.96,-45.88"/>
<text text-anchor="start" x="129.88" y="-33.33" font-family="Helvetica,sans-Serif" font-size="9.00">entry.css</text>
</a>
</g>
</g>
<!-- src/app/entry.tsx -->
<g id="node2" class="node">
<title>src/app/entry.tsx</title>
<g id="a_node2"><a xlink:href="src/app/entry.tsx" xlink:title="entry.tsx">
<path fill="#bbfeff" stroke="black" d="M72.08,-66.88C72.08,-66.88 29.92,-66.88 29.92,-66.88 26.96,-66.88 24,-63.92 24,-60.96 24,-60.96 24,-55.04 24,-55.04 24,-52.08 26.96,-49.12 29.92,-49.12 29.92,-49.12 72.08,-49.12 72.08,-49.12 75.04,-49.12 78,-52.08 78,-55.04 78,-55.04 78,-60.96 78,-60.96 78,-63.92 75.04,-66.88 72.08,-66.88"/>
<text text-anchor="start" x="34.12" y="-54.33" font-family="Helvetica,sans-Serif" font-size="9.00">entry.tsx</text>
</a>
</g>
</g>
<!-- src/app/entry.tsx&#45;&gt;src/app/entry.css -->
<g id="edge1" class="edge">
<title>src/app/entry.tsx&#45;&gt;src/app/entry.css</title>
<path fill="none" stroke="#000000" stroke-width="2" stroke-opacity="0.200000" d="M78.43,-52.15C88.81,-49.85 100.88,-47.18 111.96,-44.73"/>
<polygon fill="#000000" fill-opacity="0.200000" stroke="#000000" stroke-width="2" stroke-opacity="0.200000" points="112.23,-46.82 117.63,-43.47 111.32,-42.72 112.23,-46.82"/>
</g>
<!-- src/app/providers/router/RouterProvider.tsx -->
<g id="node3" class="node">
<title>src/app/providers/router/RouterProvider.tsx</title>
<g id="a_node3"><a xlink:href="src/app/providers/router/RouterProvider.tsx" xlink:title="RouterProvider.tsx">
<path fill="#bbfeff" stroke="black" d="M187.83,-87.88C187.83,-87.88 107.92,-87.88 107.92,-87.88 104.96,-87.88 102,-84.92 102,-81.96 102,-81.96 102,-76.04 102,-76.04 102,-73.08 104.96,-70.12 107.92,-70.12 107.92,-70.12 187.83,-70.12 187.83,-70.12 190.79,-70.12 193.75,-73.08 193.75,-76.04 193.75,-76.04 193.75,-81.96 193.75,-81.96 193.75,-84.92 190.79,-87.88 187.83,-87.88"/>
<text text-anchor="start" x="110" y="-75.33" font-family="Helvetica,sans-Serif" font-size="9.00">RouterProvider.tsx</text>
</a>
</g>
</g>
<!-- src/app/entry.tsx&#45;&gt;src/app/providers/router/RouterProvider.tsx -->
<g id="edge2" class="edge">
<title>src/app/entry.tsx&#45;&gt;src/app/providers/router/RouterProvider.tsx</title>
<path fill="none" stroke="#000000" stroke-width="2" stroke-opacity="0.200000" d="M78.35,-64.26C80.93,-64.85 83.51,-65.44 86,-66 88.6,-66.58 91.27,-67.18 93.97,-67.77"/>
<polygon fill="#000000" fill-opacity="0.200000" stroke="#000000" stroke-width="2" stroke-opacity="0.200000" points="93.36,-69.79 99.67,-69.02 94.26,-65.68 93.36,-69.79"/>
</g>
<!-- src/app/providers/layout/BaseLayoutProvider.tsx -->
<g id="node4" class="node">
<title>src/app/providers/layout/BaseLayoutProvider.tsx</title>
<g id="a_node4"><a xlink:href="src/app/providers/layout/BaseLayoutProvider.tsx" xlink:title="BaseLayoutProvider.tsx">
<path fill="#bbfeff" stroke="black" d="M316.58,-147.88C316.58,-147.88 215.67,-147.88 215.67,-147.88 212.71,-147.88 209.75,-144.92 209.75,-141.96 209.75,-141.96 209.75,-136.04 209.75,-136.04 209.75,-133.08 212.71,-130.12 215.67,-130.12 215.67,-130.12 316.58,-130.12 316.58,-130.12 319.54,-130.12 322.5,-133.08 322.5,-136.04 322.5,-136.04 322.5,-141.96 322.5,-141.96 322.5,-144.92 319.54,-147.88 316.58,-147.88"/>
<text text-anchor="start" x="217.75" y="-135.32" font-family="Helvetica,sans-Serif" font-size="9.00">BaseLayoutProvider.tsx</text>
</a>
</g>
</g>
<!-- src/app/providers/router/RouterProvider.tsx&#45;&gt;src/app/providers/layout/BaseLayoutProvider.tsx -->
<g id="edge4" class="edge">
<title>src/app/providers/router/RouterProvider.tsx&#45;&gt;src/app/providers/layout/BaseLayoutProvider.tsx</title>
<path fill="none" stroke="#000000" stroke-width="2" stroke-opacity="0.200000" d="M159.61,-88.15C169.89,-96.54 186.1,-108.88 201.75,-117 208.81,-120.66 216.61,-123.94 224.26,-126.77"/>
<polygon fill="#000000" fill-opacity="0.200000" stroke="#000000" stroke-width="2" stroke-opacity="0.200000" points="223.25,-128.64 229.6,-128.66 224.65,-124.68 223.25,-128.64"/>
</g>
<!-- src/app/providers/router/dataLoader.tsx -->
<g id="node6" class="node">
<title>src/app/providers/router/dataLoader.tsx</title>
<g id="a_node6"><a xlink:href="src/app/providers/router/dataLoader.tsx" xlink:title="dataLoader.tsx">
<path fill="#bbfeff" stroke="black" d="M298.58,-87.88C298.58,-87.88 233.67,-87.88 233.67,-87.88 230.71,-87.88 227.75,-84.92 227.75,-81.96 227.75,-81.96 227.75,-76.04 227.75,-76.04 227.75,-73.08 230.71,-70.12 233.67,-70.12 233.67,-70.12 298.58,-70.12 298.58,-70.12 301.54,-70.12 304.5,-73.08 304.5,-76.04 304.5,-76.04 304.5,-81.96 304.5,-81.96 304.5,-84.92 301.54,-87.88 298.58,-87.88"/>
<text text-anchor="start" x="235.75" y="-75.33" font-family="Helvetica,sans-Serif" font-size="9.00">dataLoader.tsx</text>
</a>
</g>
</g>
<!-- src/app/providers/router/RouterProvider.tsx&#45;&gt;src/app/providers/router/dataLoader.tsx -->
<g id="edge5" class="edge">
<title>src/app/providers/router/RouterProvider.tsx&#45;&gt;src/app/providers/router/dataLoader.tsx</title>
<path fill="none" stroke="#000000" stroke-width="2" stroke-opacity="0.200000" d="M194.15,-79C202.12,-79 210.43,-79 218.43,-79"/>
<polygon fill="#000000" fill-opacity="0.200000" stroke="#000000" stroke-width="2" stroke-opacity="0.200000" points="218.28,-81.1 224.28,-79 218.28,-76.9 218.28,-81.1"/>
</g>
<!-- src/pages/home/index.ts -->
<g id="node7" class="node">
<title>src/pages/home/index.ts</title>
<g id="a_node7"><a xlink:href="src/pages/home/index.ts" xlink:title="index.ts">
<path fill="#ddfeff" stroke="black" d="M287.21,-271.88C287.21,-271.88 245.04,-271.88 245.04,-271.88 242.08,-271.88 239.12,-268.92 239.12,-265.96 239.12,-265.96 239.12,-260.04 239.12,-260.04 239.12,-257.08 242.08,-254.12 245.04,-254.12 245.04,-254.12 287.21,-254.12 287.21,-254.12 290.17,-254.12 293.12,-257.08 293.12,-260.04 293.12,-260.04 293.12,-265.96 293.12,-265.96 293.12,-268.92 290.17,-271.88 287.21,-271.88"/>
<text text-anchor="start" x="250.38" y="-259.32" font-family="Helvetica,sans-Serif" font-size="9.00">index.ts</text>
</a>
</g>
</g>
<!-- src/app/providers/router/RouterProvider.tsx&#45;&gt;src/pages/home/index.ts -->
<g id="edge6" class="edge">
<title>src/app/providers/router/RouterProvider.tsx&#45;&gt;src/pages/home/index.ts</title>
<path fill="none" stroke="#000000" stroke-width="2" stroke-opacity="0.200000" d="M153.28,-88.16C161.87,-105.79 181.78,-145.49 201.75,-177 217.77,-202.27 238.76,-229.83 252.1,-246.77"/>
<polygon fill="#000000" fill-opacity="0.200000" stroke="#000000" stroke-width="2" stroke-opacity="0.200000" points="250.39,-248 255.76,-251.39 253.68,-245.39 250.39,-248"/>
</g>
<!-- src/pages/login/index.ts -->
<g id="node8" class="node">
<title>src/pages/login/index.ts</title>
<g id="a_node8"><a xlink:href="src/pages/login/index.ts" xlink:title="index.ts">
<path fill="#ddfeff" stroke="black" d="M287.21,-365.88C287.21,-365.88 245.04,-365.88 245.04,-365.88 242.08,-365.88 239.12,-362.92 239.12,-359.96 239.12,-359.96 239.12,-354.04 239.12,-354.04 239.12,-351.08 242.08,-348.12 245.04,-348.12 245.04,-348.12 287.21,-348.12 287.21,-348.12 290.17,-348.12 293.12,-351.08 293.12,-354.04 293.12,-354.04 293.12,-359.96 293.12,-359.96 293.12,-362.92 290.17,-365.88 287.21,-365.88"/>
<text text-anchor="start" x="250.38" y="-353.32" font-family="Helvetica,sans-Serif" font-size="9.00">index.ts</text>
</a>
</g>
</g>
<!-- src/app/providers/router/RouterProvider.tsx&#45;&gt;src/pages/login/index.ts -->
<g id="edge7" class="edge">
<title>src/app/providers/router/RouterProvider.tsx&#45;&gt;src/pages/login/index.ts</title>
<path fill="none" stroke="#000000" stroke-width="2" stroke-opacity="0.200000" d="M149.67,-88.3C153.33,-129.17 169.79,-292.6 201.75,-331 209.07,-339.8 219.85,-345.66 230.45,-349.54"/>
<polygon fill="#000000" fill-opacity="0.200000" stroke="#000000" stroke-width="2" stroke-opacity="0.200000" points="229.6,-351.48 235.96,-351.32 230.9,-347.48 229.6,-351.48"/>
</g>
<!-- src/pages/profile/index.ts -->
<g id="node9" class="node">
<title>src/pages/profile/index.ts</title>
<g id="a_node9"><a xlink:href="src/pages/profile/index.ts" xlink:title="index.ts">
<path fill="#ddfeff" stroke="black" d="M287.21,-459.88C287.21,-459.88 245.04,-459.88 245.04,-459.88 242.08,-459.88 239.12,-456.92 239.12,-453.96 239.12,-453.96 239.12,-448.04 239.12,-448.04 239.12,-445.08 242.08,-442.12 245.04,-442.12 245.04,-442.12 287.21,-442.12 287.21,-442.12 290.17,-442.12 293.12,-445.08 293.12,-448.04 293.12,-448.04 293.12,-453.96 293.12,-453.96 293.12,-456.92 290.17,-459.88 287.21,-459.88"/>
<text text-anchor="start" x="250.38" y="-447.32" font-family="Helvetica,sans-Serif" font-size="9.00">index.ts</text>
</a>
</g>
</g>
<!-- src/app/providers/router/RouterProvider.tsx&#45;&gt;src/pages/profile/index.ts -->
<g id="edge8" class="edge">
<title>src/app/providers/router/RouterProvider.tsx&#45;&gt;src/pages/profile/index.ts</title>
<path fill="none" stroke="#000000" stroke-width="2" stroke-opacity="0.200000" d="M149.09,-88.23C150.4,-137.62 158.82,-370.43 201.75,-425 208.89,-434.07 219.72,-440 230.42,-443.87"/>
<polygon fill="#000000" fill-opacity="0.200000" stroke="#000000" stroke-width="2" stroke-opacity="0.200000" points="229.66,-445.83 236.02,-445.64 230.93,-441.83 229.66,-445.83"/>
</g>
<!-- src/entities/feature&#45;flags/index.ts -->
<g id="node5" class="node">
<title>src/entities/feature&#45;flags/index.ts</title>
<g id="a_node5"><a xlink:href="src/entities/feature-flags/index.ts" xlink:title="index.ts">
<path fill="#ddfeff" stroke="black" d="M418.58,-87.88C418.58,-87.88 376.42,-87.88 376.42,-87.88 373.46,-87.88 370.5,-84.92 370.5,-81.96 370.5,-81.96 370.5,-76.04 370.5,-76.04 370.5,-73.08 373.46,-70.12 376.42,-70.12 376.42,-70.12 418.58,-70.12 418.58,-70.12 421.54,-70.12 424.5,-73.08 424.5,-76.04 424.5,-76.04 424.5,-81.96 424.5,-81.96 424.5,-84.92 421.54,-87.88 418.58,-87.88"/>
<text text-anchor="start" x="381.75" y="-75.33" font-family="Helvetica,sans-Serif" font-size="9.00">index.ts</text>
</a>
</g>
</g>
<!-- src/app/providers/layout/BaseLayoutProvider.tsx&#45;&gt;src/entities/feature&#45;flags/index.ts -->
<g id="edge3" class="edge">
<title>src/app/providers/layout/BaseLayoutProvider.tsx&#45;&gt;src/entities/feature&#45;flags/index.ts</title>
<path fill="none" stroke="#000000" stroke-width="2" stroke-opacity="0.200000" d="M312.31,-129.66C323.78,-126.44 335.87,-122.27 346.5,-117 358.68,-110.96 370.85,-101.79 380.14,-93.98"/>
<polygon fill="#000000" fill-opacity="0.200000" stroke="#000000" stroke-width="2" stroke-opacity="0.200000" points="381.48,-95.59 384.63,-90.07 378.73,-92.42 381.48,-95.59"/>
</g>
<!-- src/entities/feature&#45;flags/model/actions.ts -->
<g id="node10" class="node">
<title>src/entities/feature&#45;flags/model/actions.ts</title>
<g id="a_node10"><a xlink:href="src/entities/feature-flags/model/actions.ts" xlink:title="actions.ts">
<path fill="#ddfeff" stroke="black" d="M524.71,-57.88C524.71,-57.88 482.29,-57.88 482.29,-57.88 479.33,-57.88 476.38,-54.92 476.38,-51.96 476.38,-51.96 476.38,-46.04 476.38,-46.04 476.38,-43.08 479.33,-40.12 482.29,-40.12 482.29,-40.12 524.71,-40.12 524.71,-40.12 527.67,-40.12 530.62,-43.08 530.62,-46.04 530.62,-46.04 530.62,-51.96 530.62,-51.96 530.62,-54.92 527.67,-57.88 524.71,-57.88"/>
<text text-anchor="start" x="484.38" y="-45.33" font-family="Helvetica,sans-Serif" font-size="9.00">actions.ts</text>
</a>
</g>
</g>
<!-- src/entities/feature&#45;flags/index.ts&#45;&gt;src/entities/feature&#45;flags/model/actions.ts -->
<g id="edge10" class="edge">
<title>src/entities/feature&#45;flags/index.ts&#45;&gt;src/entities/feature&#45;flags/model/actions.ts</title>
<g id="a_edge10"><a xlink:title="no&#45;circular">
<path fill="none" stroke="orange" stroke-width="2" d="M424.94,-76.71C432.54,-74.68 440.84,-72.21 448.5,-70 455.15,-68.08 462.28,-66.07 469.1,-64.03"/>
<polygon fill="orange" stroke="orange" stroke-width="2" points="478.93,-63.07 484,-59.24 477.64,-59.08 478.93,-63.07"/>
<polyline fill="none" stroke="orange" stroke-width="2" points="477.34,-61.38 474.48,-62.3"/>
<ellipse fill="none" stroke="orange" stroke-width="2" cx="471.24" cy="-63.34" rx="2.4" ry="2.4"/>
</a>
</g>
<text text-anchor="middle" x="477.57" y="-59.35" font-family="Helvetica,sans-Serif" font-size="9.00" fill="orange">no&#45;circular</text>
</g>
<!-- src/entities/feature&#45;flags/model/store.ts -->
<g id="node11" class="node">
<title>src/entities/feature&#45;flags/model/store.ts</title>
<g id="a_node11"><a xlink:href="src/entities/feature-flags/model/store.ts" xlink:title="store.ts">
<path fill="#ddfeff" stroke="black" d="M620.46,-87.88C620.46,-87.88 578.29,-87.88 578.29,-87.88 575.33,-87.88 572.38,-84.92 572.38,-81.96 572.38,-81.96 572.38,-76.04 572.38,-76.04 572.38,-73.08 575.33,-70.12 578.29,-70.12 578.29,-70.12 620.46,-70.12 620.46,-70.12 623.42,-70.12 626.38,-73.08 626.38,-76.04 626.38,-76.04 626.38,-81.96 626.38,-81.96 626.38,-84.92 623.42,-87.88 620.46,-87.88"/>
<text text-anchor="start" x="584.75" y="-75.33" font-family="Helvetica,sans-Serif" font-size="9.00">store.ts</text>
</a>
</g>
</g>
<!-- src/entities/feature&#45;flags/index.ts&#45;&gt;src/entities/feature&#45;flags/model/store.ts -->
<g id="edge11" class="edge">
<title>src/entities/feature&#45;flags/index.ts&#45;&gt;src/entities/feature&#45;flags/model/store.ts</title>
<path fill="none" stroke="#000000" stroke-width="2" stroke-opacity="0.200000" d="M424.38,-88.33C432.04,-90.66 440.52,-92.83 448.5,-94 499.45,-101.48 513.98,-104.62 564.38,-94 567.84,-93.27 571.38,-92.16 574.8,-90.88"/>
<polygon fill="#000000" fill-opacity="0.200000" stroke="#000000" stroke-width="2" stroke-opacity="0.200000" points="581.07,-90.55 574.73,-90.91 579.47,-86.67 581.07,-90.55"/>
</g>
<!-- src/entities/feature&#45;flags/model/useFeatureFlag.tsx -->
<g id="node12" class="node">
<title>src/entities/feature&#45;flags/model/useFeatureFlag.tsx</title>
<g id="a_node12"><a xlink:href="src/entities/feature-flags/model/useFeatureFlag.tsx" xlink:title="useFeatureFlag.tsx">
<path fill="#bbfeff" stroke="black" d="M544.58,-87.88C544.58,-87.88 462.42,-87.88 462.42,-87.88 459.46,-87.88 456.5,-84.92 456.5,-81.96 456.5,-81.96 456.5,-76.04 456.5,-76.04 456.5,-73.08 459.46,-70.12 462.42,-70.12 462.42,-70.12 544.58,-70.12 544.58,-70.12 547.54,-70.12 550.5,-73.08 550.5,-76.04 550.5,-76.04 550.5,-81.96 550.5,-81.96 550.5,-84.92 547.54,-87.88 544.58,-87.88"/>
<text text-anchor="start" x="464.5" y="-75.33" font-family="Helvetica,sans-Serif" font-size="9.00">useFeatureFlag.tsx</text>
</a>
</g>
</g>
<!-- src/entities/feature&#45;flags/index.ts&#45;&gt;src/entities/feature&#45;flags/model/useFeatureFlag.tsx -->
<g id="edge12" class="edge">
<title>src/entities/feature&#45;flags/index.ts&#45;&gt;src/entities/feature&#45;flags/model/useFeatureFlag.tsx</title>
<path fill="none" stroke="#000000" stroke-width="2" stroke-opacity="0.200000" d="M424.74,-79C432.17,-79 440.54,-79 448.96,-79"/>
<polygon fill="#000000" fill-opacity="0.200000" stroke="#000000" stroke-width="2" stroke-opacity="0.200000" points="455.02,-81.1 449.02,-79 455.02,-76.9 455.02,-81.1"/>
</g>
<!-- src/entities/feature&#45;flags/ui/FeatureToggler.tsx -->
<g id="node13" class="node">
<title>src/entities/feature&#45;flags/ui/FeatureToggler.tsx</title>
<g id="a_node13"><a xlink:href="src/entities/feature-flags/ui/FeatureToggler.tsx" xlink:title="FeatureToggler.tsx">
<path fill="#bbfeff" stroke="black" d="M543.46,-147.88C543.46,-147.88 463.54,-147.88 463.54,-147.88 460.58,-147.88 457.62,-144.92 457.62,-141.96 457.62,-141.96 457.62,-136.04 457.62,-136.04 457.62,-133.08 460.58,-130.12 463.54,-130.12 463.54,-130.12 543.46,-130.12 543.46,-130.12 546.42,-130.12 549.38,-133.08 549.38,-136.04 549.38,-136.04 549.38,-141.96 549.38,-141.96 549.38,-144.92 546.42,-147.88 543.46,-147.88"/>
<text text-anchor="start" x="465.62" y="-135.32" font-family="Helvetica,sans-Serif" font-size="9.00">FeatureToggler.tsx</text>
</a>
</g>
</g>
<!-- src/entities/feature&#45;flags/index.ts&#45;&gt;src/entities/feature&#45;flags/ui/FeatureToggler.tsx -->
<g id="edge13" class="edge">
<title>src/entities/feature&#45;flags/index.ts&#45;&gt;src/entities/feature&#45;flags/ui/FeatureToggler.tsx</title>
<path fill="none" stroke="#000000" stroke-width="2" stroke-opacity="0.200000" d="M405.6,-88.09C414.48,-98.81 430.68,-116.37 448.5,-126 449.29,-126.43 450.09,-126.84 450.9,-127.24"/>
<polygon fill="#000000" fill-opacity="0.200000" stroke="#000000" stroke-width="2" stroke-opacity="0.200000" points="455.58,-131.56 450.92,-127.24 457.26,-127.71 455.58,-131.56"/>
</g>
<!-- src/app/providers/router/dataLoader.tsx&#45;&gt;src/entities/feature&#45;flags/index.ts -->
<g id="edge9" class="edge">
<title>src/app/providers/router/dataLoader.tsx&#45;&gt;src/entities/feature&#45;flags/index.ts</title>
<path fill="none" stroke="#000000" stroke-width="2" stroke-opacity="0.200000" d="M304.89,-79C322.8,-79 344.07,-79 361.59,-79"/>
<polygon fill="#000000" fill-opacity="0.200000" stroke="#000000" stroke-width="2" stroke-opacity="0.200000" points="361.36,-81.1 367.36,-79 361.36,-76.9 361.36,-81.1"/>
</g>
<!-- src/pages/home/ui/Page.tsx -->
<g id="node14" class="node">
<title>src/pages/home/ui/Page.tsx</title>
<g id="a_node14"><a xlink:href="src/pages/home/ui/Page.tsx" xlink:title="Page.tsx">
<path fill="#bbfeff" stroke="black" d="M418.58,-275.88C418.58,-275.88 376.42,-275.88 376.42,-275.88 373.46,-275.88 370.5,-272.92 370.5,-269.96 370.5,-269.96 370.5,-264.04 370.5,-264.04 370.5,-261.08 373.46,-258.12 376.42,-258.12 376.42,-258.12 418.58,-258.12 418.58,-258.12 421.54,-258.12 424.5,-261.08 424.5,-264.04 424.5,-264.04 424.5,-269.96 424.5,-269.96 424.5,-272.92 421.54,-275.88 418.58,-275.88"/>
<text text-anchor="start" x="379.88" y="-263.32" font-family="Helvetica,sans-Serif" font-size="9.00">Page.tsx</text>
</a>
</g>
</g>
<!-- src/pages/home/index.ts&#45;&gt;src/pages/home/ui/Page.tsx -->
<g id="edge18" class="edge">
<title>src/pages/home/index.ts&#45;&gt;src/pages/home/ui/Page.tsx</title>
<path fill="none" stroke="#000000" stroke-width="2" stroke-opacity="0.200000" d="M293.62,-263.82C313.68,-264.44 341.37,-265.3 362.97,-265.96"/>
<polygon fill="#000000" fill-opacity="0.200000" stroke="#000000" stroke-width="2" stroke-opacity="0.200000" points="368.98,-268.25 363.05,-265.97 369.11,-264.05 368.98,-268.25"/>
</g>
<!-- src/pages/login/ui/Page.tsx -->
<g id="node15" class="node">
<title>src/pages/login/ui/Page.tsx</title>
<g id="a_node15"><a xlink:href="src/pages/login/ui/Page.tsx" xlink:title="Page.tsx">
<path fill="#bbfeff" stroke="black" d="M418.58,-369.88C418.58,-369.88 376.42,-369.88 376.42,-369.88 373.46,-369.88 370.5,-366.92 370.5,-363.96 370.5,-363.96 370.5,-358.04 370.5,-358.04 370.5,-355.08 373.46,-352.12 376.42,-352.12 376.42,-352.12 418.58,-352.12 418.58,-352.12 421.54,-352.12 424.5,-355.08 424.5,-358.04 424.5,-358.04 424.5,-363.96 424.5,-363.96 424.5,-366.92 421.54,-369.88 418.58,-369.88"/>
<text text-anchor="start" x="379.88" y="-357.32" font-family="Helvetica,sans-Serif" font-size="9.00">Page.tsx</text>
</a>
</g>
</g>
<!-- src/pages/login/index.ts&#45;&gt;src/pages/login/ui/Page.tsx -->
<g id="edge20" class="edge">
<title>src/pages/login/index.ts&#45;&gt;src/pages/login/ui/Page.tsx</title>
<path fill="none" stroke="#000000" stroke-width="2" stroke-opacity="0.200000" d="M293.62,-357.82C313.68,-358.44 341.37,-359.3 362.97,-359.96"/>
<polygon fill="#000000" fill-opacity="0.200000" stroke="#000000" stroke-width="2" stroke-opacity="0.200000" points="368.98,-362.25 363.05,-359.97 369.11,-358.05 368.98,-362.25"/>
</g>
<!-- src/pages/profile/ui/Page.tsx -->
<g id="node17" class="node">
<title>src/pages/profile/ui/Page.tsx</title>
<g id="a_node17"><a xlink:href="src/pages/profile/ui/Page.tsx" xlink:title="Page.tsx">
<path fill="#bbfeff" stroke="black" d="M418.58,-463.88C418.58,-463.88 376.42,-463.88 376.42,-463.88 373.46,-463.88 370.5,-460.92 370.5,-457.96 370.5,-457.96 370.5,-452.04 370.5,-452.04 370.5,-449.08 373.46,-446.12 376.42,-446.12 376.42,-446.12 418.58,-446.12 418.58,-446.12 421.54,-446.12 424.5,-449.08 424.5,-452.04 424.5,-452.04 424.5,-457.96 424.5,-457.96 424.5,-460.92 421.54,-463.88 418.58,-463.88"/>
<text text-anchor="start" x="379.88" y="-451.32" font-family="Helvetica,sans-Serif" font-size="9.00">Page.tsx</text>
</a>
</g>
</g>
<!-- src/pages/profile/index.ts&#45;&gt;src/pages/profile/ui/Page.tsx -->
<g id="edge22" class="edge">
<title>src/pages/profile/index.ts&#45;&gt;src/pages/profile/ui/Page.tsx</title>
<path fill="none" stroke="#000000" stroke-width="2" stroke-opacity="0.200000" d="M293.62,-451.82C313.68,-452.44 341.37,-453.3 362.97,-453.96"/>
<polygon fill="#000000" fill-opacity="0.200000" stroke="#000000" stroke-width="2" stroke-opacity="0.200000" points="368.98,-456.25 363.05,-453.97 369.11,-452.05 368.98,-456.25"/>
</g>
<!-- src/entities/feature&#45;flags/model/actions.ts&#45;&gt;src/entities/feature&#45;flags/index.ts -->
<g id="edge15" class="edge">
<title>src/entities/feature&#45;flags/model/actions.ts&#45;&gt;src/entities/feature&#45;flags/index.ts</title>
<g id="a_edge15"><a xlink:title="no&#45;circular">
<path fill="none" stroke="orange" stroke-width="2" d="M476.1,-50.53C467.31,-52.65 457.47,-55.41 448.5,-58 442.5,-59.73 436.11,-61.62 429.97,-63.57"/>
<polygon fill="orange" stroke="orange" stroke-width="2" points="420.31,-64.73 415.34,-68.7 421.7,-68.7 420.31,-64.73"/>
<polyline fill="none" stroke="orange" stroke-width="2" points="421.95,-66.38 424.78,-65.39"/>
<ellipse fill="none" stroke="orange" stroke-width="2" cx="427.99" cy="-64.26" rx="2.4" ry="2.4"/>
</a>
</g>
<text text-anchor="middle" x="422.48" y="-50.69" font-family="Helvetica,sans-Serif" font-size="9.00" fill="orange">no&#45;circular</text>
</g>
<!-- src/entities/feature&#45;flags/model/actions.ts&#45;&gt;src/entities/feature&#45;flags/model/store.ts -->
<g id="edge14" class="edge">
<title>src/entities/feature&#45;flags/model/actions.ts&#45;&gt;src/entities/feature&#45;flags/model/store.ts</title>
<path fill="none" stroke="#000000" stroke-width="2" stroke-opacity="0.200000" d="M531.01,-54.62C541.52,-57.11 553.63,-60.31 564.38,-64 566.46,-64.71 568.59,-65.5 570.72,-66.34"/>
<polygon fill="#000000" fill-opacity="0.200000" stroke="#000000" stroke-width="2" stroke-opacity="0.200000" points="569.68,-68.18 576.03,-68.54 571.29,-64.3 569.68,-68.18"/>
</g>
<!-- src/entities/feature&#45;flags/model/useFeatureFlag.tsx&#45;&gt;src/entities/feature&#45;flags/model/store.ts -->
<g id="edge16" class="edge">
<title>src/entities/feature&#45;flags/model/useFeatureFlag.tsx&#45;&gt;src/entities/feature&#45;flags/model/store.ts</title>
<path fill="none" stroke="#000000" stroke-width="2" stroke-opacity="0.200000" d="M550.89,-79C554.94,-79 559,-79 562.94,-79"/>
<polygon fill="#000000" fill-opacity="0.200000" stroke="#000000" stroke-width="2" stroke-opacity="0.200000" points="562.85,-81.1 568.85,-79 562.85,-76.9 562.85,-81.1"/>
</g>
<!-- src/entities/feature&#45;flags/ui/FeatureToggler.tsx&#45;&gt;src/entities/feature&#45;flags/model/store.ts -->
<g id="edge17" class="edge">
<title>src/entities/feature&#45;flags/ui/FeatureToggler.tsx&#45;&gt;src/entities/feature&#45;flags/model/store.ts</title>
<path fill="none" stroke="#000000" stroke-width="2" stroke-opacity="0.200000" d="M549.77,-132.95C554.93,-131.18 559.92,-128.91 564.38,-126 575.57,-118.68 584.3,-106.3 590.11,-96.09"/>
<polygon fill="#000000" fill-opacity="0.200000" stroke="#000000" stroke-width="2" stroke-opacity="0.200000" points="591.93,-97.14 592.88,-90.85 588.22,-95.18 591.93,-97.14"/>
</g>
<!-- src/pages/home/ui/Page.tsx&#45;&gt;src/entities/feature&#45;flags/ui/FeatureToggler.tsx -->
<g id="edge19" class="edge">
<title>src/pages/home/ui/Page.tsx&#45;&gt;src/entities/feature&#45;flags/ui/FeatureToggler.tsx</title>
<path fill="none" stroke="#000000" stroke-width="2" stroke-opacity="0.200000" d="M405.98,-257.79C423.52,-236.21 467.48,-182.11 489.5,-155"/>
<polygon fill="#000000" fill-opacity="0.200000" stroke="#000000" stroke-width="2" stroke-opacity="0.200000" points="491.03,-156.45 493.18,-150.47 487.77,-153.8 491.03,-156.45"/>
</g>
<!-- src/pages/login/ui/LoginForm.tsx -->
<g id="node16" class="node">
<title>src/pages/login/ui/LoginForm.tsx</title>
<g id="a_node16"><a xlink:href="src/pages/login/ui/LoginForm.tsx" xlink:title="LoginForm.tsx">
<path fill="#bbfeff" stroke="black" d="M534.46,-369.88C534.46,-369.88 472.54,-369.88 472.54,-369.88 469.58,-369.88 466.62,-366.92 466.62,-363.96 466.62,-363.96 466.62,-358.04 466.62,-358.04 466.62,-355.08 469.58,-352.12 472.54,-352.12 472.54,-352.12 534.46,-352.12 534.46,-352.12 537.42,-352.12 540.38,-355.08 540.38,-358.04 540.38,-358.04 540.38,-363.96 540.38,-363.96 540.38,-366.92 537.42,-369.88 534.46,-369.88"/>
<text text-anchor="start" x="474.62" y="-357.32" font-family="Helvetica,sans-Serif" font-size="9.00">LoginForm.tsx</text>
</a>
</g>
</g>
<!-- src/pages/login/ui/Page.tsx&#45;&gt;src/pages/login/ui/LoginForm.tsx -->
<g id="edge21" class="edge">
<title>src/pages/login/ui/Page.tsx&#45;&gt;src/pages/login/ui/LoginForm.tsx</title>
<path fill="none" stroke="#000000" stroke-width="2" stroke-opacity="0.200000" d="M424.74,-361C434.71,-361 446.38,-361 457.59,-361"/>
<polygon fill="#000000" fill-opacity="0.200000" stroke="#000000" stroke-width="2" stroke-opacity="0.200000" points="457.42,-363.1 463.42,-361 457.42,-358.9 457.42,-363.1"/>
</g>
</g>
</svg>
