<?xml version="1.0" encoding="UTF-8" standalone="no"?>
<!DOCTYPE svg PUBLIC "-//W3C//DTD SVG 1.1//EN"
 "http://www.w3.org/Graphics/SVG/1.1/DTD/svg11.dtd">
<!-- Generated by graphviz version 14.1.2 (20260124.0452)
 -->
<!-- Title: dependency&#45;cruiser output Pages: 1 -->
<svg width="771pt" height="584pt"
 viewBox="0.00 0.00 771.00 584.00" xmlns="http://www.w3.org/2000/svg" xmlns:xlink="http://www.w3.org/1999/xlink">
<g id="graph0" class="graph" transform="scale(1 1) rotate(0) translate(4 580)">
<title>dependency&#45;cruiser output</title>
<polygon fill="white" stroke="none" points="-4,4 -4,-580 767.25,-580 767.25,4 -4,4"/>
<g id="clust1" class="cluster">
<title>cluster_src</title>
<path fill="#ffffff" stroke="black" stroke-width="2" d="M20,-8C20,-8 743.25,-8 743.25,-8 749.25,-8 755.25,-14 755.25,-20 755.25,-20 755.25,-556 755.25,-556 755.25,-562 749.25,-568 743.25,-568 743.25,-568 20,-568 20,-568 14,-568 8,-562 8,-556 8,-556 8,-20 8,-20 8,-14 14,-8 20,-8"/>
<text xml:space="preserve" text-anchor="middle" x="381.62" y="-555.45" font-family="Helvetica,sans-Serif" font-weight="bold" font-size="9.00">src</text>
</g>
<g id="clust2" class="cluster">
<title>cluster_src/app</title>
<path fill="#ffffff" stroke="black" stroke-width="2" d="M28,-20C28,-20 334.5,-20 334.5,-20 340.5,-20 346.5,-26 346.5,-32 346.5,-32 346.5,-214 346.5,-214 346.5,-220 340.5,-226 334.5,-226 334.5,-226 28,-226 28,-226 22,-226 16,-220 16,-214 16,-214 16,-32 16,-32 16,-26 22,-20 28,-20"/>
<text xml:space="preserve" text-anchor="middle" x="181.25" y="-213.45" font-family="Helvetica,sans-Serif" font-weight="bold" font-size="9.00">app</text>
</g>
<g id="clust3" class="cluster">
<title>cluster_src/app/providers</title>
<path fill="#ffffff" stroke="black" stroke-width="2" d="M98,-54C98,-54 326.5,-54 326.5,-54 332.5,-54 338.5,-60 338.5,-66 338.5,-66 338.5,-188 338.5,-188 338.5,-194 332.5,-200 326.5,-200 326.5,-200 98,-200 98,-200 92,-200 86,-194 86,-188 86,-188 86,-66 86,-66 86,-60 92,-54 98,-54"/>
<text xml:space="preserve" text-anchor="middle" x="212.25" y="-187.45" font-family="Helvetica,sans-Serif" font-weight="bold" font-size="9.00">providers</text>
</g>
<g id="clust4" class="cluster">
<title>cluster_src/app/providers/layout</title>
<path fill="#ffffff" stroke="black" stroke-width="2" d="M213.75,-62C213.75,-62 318.5,-62 318.5,-62 324.5,-62 330.5,-68 330.5,-74 330.5,-74 330.5,-102 330.5,-102 330.5,-108 324.5,-114 318.5,-114 318.5,-114 213.75,-114 213.75,-114 207.75,-114 201.75,-108 201.75,-102 201.75,-102 201.75,-74 201.75,-74 201.75,-68 207.75,-62 213.75,-62"/>
<text xml:space="preserve" text-anchor="middle" x="266.12" y="-101.45" font-family="Helvetica,sans-Serif" font-weight="bold" font-size="9.00">layout</text>
</g>
<g id="clust5" class="cluster">
<title>cluster_src/app/providers/router</title>
<path fill="#ffffff" stroke="black" stroke-width="2" d="M106,-122C106,-122 300.5,-122 300.5,-122 306.5,-122 312.5,-128 312.5,-134 312.5,-134 312.5,-162 312.5,-162 312.5,-168 306.5,-174 300.5,-174 300.5,-174 106,-174 106,-174 100,-174 94,-168 94,-162 94,-162 94,-134 94,-134 94,-128 100,-122 106,-122"/>
<text xml:space="preserve" text-anchor="middle" x="203.25" y="-161.45" font-family="Helvetica,sans-Serif" font-weight="bold" font-size="9.00">router</text>
</g>
<g id="clust6" class="cluster">
<title>cluster_src/entities</title>
<path fill="#ffffff" stroke="black" stroke-width="2" d="M452.5,-16C452.5,-16 735.25,-16 735.25,-16 741.25,-16 747.25,-22 747.25,-28 747.25,-28 747.25,-214 747.25,-214 747.25,-220 741.25,-226 735.25,-226 735.25,-226 452.5,-226 452.5,-226 446.5,-226 440.5,-220 440.5,-214 440.5,-214 440.5,-28 440.5,-28 440.5,-22 446.5,-16 452.5,-16"/>
<text xml:space="preserve" text-anchor="middle" x="593.88" y="-213.45" font-family="Helvetica,sans-Serif" font-weight="bold" font-size="9.00">entities</text>
</g>
<g id="clust7" class="cluster">
<title>cluster_src/entities/feature&#45;flags</title>
<path fill="#ffffff" stroke="black" stroke-width="2" d="M460.5,-24C460.5,-24 727.25,-24 727.25,-24 733.25,-24 739.25,-30 739.25,-36 739.25,-36 739.25,-188 739.25,-188 739.25,-194 733.25,-200 727.25,-200 727.25,-200 460.5,-200 460.5,-200 454.5,-200 448.5,-194 448.5,-188 448.5,-188 448.5,-36 448.5,-36 448.5,-30 454.5,-24 460.5,-24"/>
<text xml:space="preserve" text-anchor="middle" x="593.88" y="-187.45" font-family="Helvetica,sans-Serif" font-weight="bold" font-size="9.00">feature&#45;flags</text>
</g>
<g id="clust8" class="cluster">
<title>cluster_src/entities/feature&#45;flags/model</title>
<path fill="#ffffff" stroke="black" stroke-width="2" d="M564.38,-32C564.38,-32 719.25,-32 719.25,-32 725.25,-32 731.25,-38 731.25,-44 731.25,-44 731.25,-102 731.25,-102 731.25,-108 725.25,-114 719.25,-114 719.25,-114 564.38,-114 564.38,-114 558.38,-114 552.38,-108 552.38,-102 552.38,-102 552.38,-44 552.38,-44 552.38,-38 558.38,-32 564.38,-32"/>
<text xml:space="preserve" text-anchor="middle" x="641.81" y="-101.45" font-family="Helvetica,sans-Serif" font-weight="bold" font-size="9.00">model</text>
</g>
<g id="clust9" class="cluster">
<title>cluster_src/entities/feature&#45;flags/ui</title>
<path fill="#ffffff" stroke="black" stroke-width="2" d="M565.5,-122C565.5,-122 649.25,-122 649.25,-122 655.25,-122 661.25,-128 661.25,-134 661.25,-134 661.25,-162 661.25,-162 661.25,-168 655.25,-174 649.25,-174 649.25,-174 565.5,-174 565.5,-174 559.5,-174 553.5,-168 553.5,-162 553.5,-162 553.5,-134 553.5,-134 553.5,-128 559.5,-122 565.5,-122"/>
<text xml:space="preserve" text-anchor="middle" x="607.38" y="-161.45" font-family="Helvetica,sans-Serif" font-weight="bold" font-size="9.00">ui</text>
</g>
<g id="clust10" class="cluster">
<title>cluster_src/pages</title>
<path fill="#ffffff" stroke="black" stroke-width="2" d="M235.12,-234C235.12,-234 532.38,-234 532.38,-234 538.38,-234 544.38,-240 544.38,-246 544.38,-246 544.38,-530 544.38,-530 544.38,-536 538.38,-542 532.38,-542 532.38,-542 235.12,-542 235.12,-542 229.13,-542 223.12,-536 223.12,-530 223.12,-530 223.12,-246 223.12,-246 223.12,-240 229.12,-234 235.12,-234"/>
<text xml:space="preserve" text-anchor="middle" x="383.75" y="-529.45" font-family="Helvetica,sans-Serif" font-weight="bold" font-size="9.00">pages</text>
</g>
<g id="clust11" class="cluster">
<title>cluster_src/pages/home</title>
<path fill="#ffffff" stroke="black" stroke-width="2" d="M243.12,-242C243.12,-242 420.5,-242 420.5,-242 426.5,-242 432.5,-248 432.5,-254 432.5,-254 432.5,-316 432.5,-316 432.5,-322 426.5,-328 420.5,-328 420.5,-328 243.12,-328 243.12,-328 237.12,-328 231.12,-322 231.12,-316 231.12,-316 231.12,-254 231.12,-254 231.12,-248 237.12,-242 243.12,-242"/>
<text xml:space="preserve" text-anchor="middle" x="331.81" y="-315.45" font-family="Helvetica,sans-Serif" font-weight="bold" font-size="9.00">home</text>
</g>
<g id="clust12" class="cluster">
<title>cluster_src/pages/home/ui</title>
<path fill="#ffffff" stroke="black" stroke-width="2" d="M366.5,-250C366.5,-250 412.5,-250 412.5,-250 418.5,-250 424.5,-256 424.5,-262 424.5,-262 424.5,-290 424.5,-290 424.5,-296 418.5,-302 412.5,-302 412.5,-302 366.5,-302 366.5,-302 360.5,-302 354.5,-296 354.5,-290 354.5,-290 354.5,-262 354.5,-262 354.5,-256 360.5,-250 366.5,-250"/>
<text xml:space="preserve" text-anchor="middle" x="389.5" y="-289.45" font-family="Helvetica,sans-Serif" font-weight="bold" font-size="9.00">ui</text>
</g>
<g id="clust13" class="cluster">
<title>cluster_src/pages/login</title>
<path fill="#ffffff" stroke="black" stroke-width="2" d="M243.12,-336C243.12,-336 524.38,-336 524.38,-336 530.38,-336 536.38,-342 536.38,-348 536.38,-348 536.38,-410 536.38,-410 536.38,-416 530.38,-422 524.38,-422 524.38,-422 243.12,-422 243.12,-422 237.13,-422 231.12,-416 231.12,-410 231.12,-410 231.12,-348 231.12,-348 231.12,-342 237.12,-336 243.12,-336"/>
<text xml:space="preserve" text-anchor="middle" x="383.75" y="-409.45" font-family="Helvetica,sans-Serif" font-weight="bold" font-size="9.00">login</text>
</g>
<g id="clust14" class="cluster">
<title>cluster_src/pages/login/ui</title>
<path fill="#ffffff" stroke="black" stroke-width="2" d="M366.5,-344C366.5,-344 516.38,-344 516.38,-344 522.38,-344 528.38,-350 528.38,-356 528.38,-356 528.38,-384 528.38,-384 528.38,-390 522.38,-396 516.38,-396 516.38,-396 366.5,-396 366.5,-396 360.5,-396 354.5,-390 354.5,-384 354.5,-384 354.5,-356 354.5,-356 354.5,-350 360.5,-344 366.5,-344"/>
<text xml:space="preserve" text-anchor="middle" x="441.44" y="-383.45" font-family="Helvetica,sans-Serif" font-weight="bold" font-size="9.00">ui</text>
</g>
<g id="clust15" class="cluster">
<title>cluster_src/pages/profile</title>
<path fill="#ffffff" stroke="black" stroke-width="2" d="M243.12,-430C243.12,-430 420.5,-430 420.5,-430 426.5,-430 432.5,-436 432.5,-442 432.5,-442 432.5,-504 432.5,-504 432.5,-510 426.5,-516 420.5,-516 420.5,-516 243.12,-516 243.12,-516 237.12,-516 231.12,-510 231.12,-504 231.12,-504 231.12,-442 231.12,-442 231.12,-436 237.12,-430 243.12,-430"/>
<text xml:space="preserve" text-anchor="middle" x="331.81" y="-503.45" font-family="Helvetica,sans-Serif" font-weight="bold" font-size="9.00">profile</text>
</g>
<g id="clust16" class="cluster">
<title>cluster_src/pages/profile/ui</title>
<path fill="#ffffff" stroke="black" stroke-width="2" d="M366.5,-438C366.5,-438 412.5,-438 412.5,-438 418.5,-438 424.5,-444 424.5,-450 424.5,-450 424.5,-478 424.5,-478 424.5,-484 418.5,-490 412.5,-490 412.5,-490 366.5,-490 366.5,-490 360.5,-490 354.5,-484 354.5,-478 354.5,-478 354.5,-450 354.5,-450 354.5,-444 360.5,-438 366.5,-438"/>
<text xml:space="preserve" text-anchor="middle" x="389.5" y="-477.45" font-family="Helvetica,sans-Serif" font-weight="bold" font-size="9.00">ui</text>
</g>
<!-- src/app/entry.css -->
<g id="node1" class="node">
<title>src/app/entry.css</title>
<g id="a_node1"><a xlink:href="src/app/entry.css" xlink:title="entry.css">
<path fill="#ffffcc" stroke="black" d="M168.96,-45.88C168.96,-45.88 126.79,-45.88 126.79,-45.88 123.83,-45.88 120.88,-42.92 120.88,-39.96 120.88,-39.96 120.88,-34.04 120.88,-34.04 120.88,-31.08 123.83,-28.12 126.79,-28.12 126.79,-28.12 168.96,-28.12 168.96,-28.12 171.92,-28.12 174.88,-31.08 174.88,-34.04 174.88,-34.04 174.88,-39.96 174.88,-39.96 174.88,-42.92 171.92,-45.88 168.96,-45.88"/>
<text xml:space="preserve" text-anchor="start" x="129.88" y="-33.33" font-family="Helvetica,sans-Serif" font-size="9.00">entry.css</text>
</a>
</g>
</g>
<!-- src/app/entry.tsx -->
<g id="node2" class="node">
<title>src/app/entry.tsx</title>
<g id="a_node2"><a xlink:href="src/app/entry.tsx" xlink:title="entry.tsx">
<path fill="#bbfeff" stroke="black" d="M72.08,-96.88C72.08,-96.88 29.92,-96.88 29.92,-96.88 26.96,-96.88 24,-93.92 24,-90.96 24,-90.96 24,-85.04 24,-85.04 24,-82.08 26.96,-79.12 29.92,-79.12 29.92,-79.12 72.08,-79.12 72.08,-79.12 75.04,-79.12 78,-82.08 78,-85.04 78,-85.04 78,-90.96 78,-90.96 78,-93.92 75.04,-96.88 72.08,-96.88"/>
<text xml:space="preserve" text-anchor="start" x="34.12" y="-84.33" font-family="Helvetica,sans-Serif" font-size="9.00">entry.tsx</text>
</a>
</g>
</g>
<!-- src/app/entry.tsx&#45;&gt;src/app/entry.css -->
<g id="edge1" class="edge">
<title>src/app/entry.tsx&#45;&gt;src/app/entry.css</title>
<path fill="none" stroke="#000000" stroke-width="2" stroke-opacity="0.200000" d="M69.4,-78.65C84.11,-70.74 105.37,-59.31 121.9,-50.43"/>
<polygon fill="#000000" fill-opacity="0.200000" stroke="#000000" stroke-width="2" stroke-opacity="0.200000" points="122.63,-52.42 126.92,-47.73 120.64,-48.72 122.63,-52.42"/>
</g>
<!-- src/app/providers/router/RouterProvider.tsx -->
<g id="node3" class="node">
<title>src/app/providers/router/RouterProvider.tsx</title>
<g id="a_node3"><a xlink:href="src/app/providers/router/RouterProvider.tsx" xlink:title="RouterProvider.tsx">
<path fill="#bbfeff" stroke="black" d="M187.83,-147.88C187.83,-147.88 107.92,-147.88 107.92,-147.88 104.96,-147.88 102,-144.92 102,-141.96 102,-141.96 102,-136.04 102,-136.04 102,-133.08 104.96,-130.12 107.92,-130.12 107.92,-130.12 187.83,-130.12 187.83,-130.12 190.79,-130.12 193.75,-133.08 193.75,-136.04 193.75,-136.04 193.75,-141.96 193.75,-141.96 193.75,-144.92 190.79,-147.88 187.83,-147.88"/>
<text xml:space="preserve" text-anchor="start" x="110" y="-135.32" font-family="Helvetica,sans-Serif" font-size="9.00">RouterProvider.tsx</text>
</a>
</g>
</g>
<!-- src/app/entry.tsx&#45;&gt;src/app/providers/router/RouterProvider.tsx -->
<g id="edge2" class="edge">
<title>src/app/entry.tsx&#45;&gt;src/app/providers/router/RouterProvider.tsx</title>
<path fill="none" stroke="#000000" stroke-width="2" stroke-opacity="0.200000" d="M57.81,-97.36C63.79,-106.15 73.9,-118.98 86,-126 88.43,-127.41 91,-128.67 93.64,-129.79"/>
<polygon fill="#000000" fill-opacity="0.200000" stroke="#000000" stroke-width="2" stroke-opacity="0.200000" points="92.58,-131.64 98.93,-131.72 94.02,-127.69 92.58,-131.64"/>
</g>
<!-- src/app/providers/layout/BaseLayoutProvider.tsx -->
<g id="node4" class="node">
<title>src/app/providers/layout/BaseLayoutProvider.tsx</title>
<g id="a_node4"><a xlink:href="src/app/providers/layout/BaseLayoutProvider.tsx" xlink:title="BaseLayoutProvider.tsx">
<path fill="#bbfeff" stroke="black" d="M316.58,-87.88C316.58,-87.88 215.67,-87.88 215.67,-87.88 212.71,-87.88 209.75,-84.92 209.75,-81.96 209.75,-81.96 209.75,-76.04 209.75,-76.04 209.75,-73.08 212.71,-70.12 215.67,-70.12 215.67,-70.12 316.58,-70.12 316.58,-70.12 319.54,-70.12 322.5,-73.08 322.5,-76.04 322.5,-76.04 322.5,-81.96 322.5,-81.96 322.5,-84.92 319.54,-87.88 316.58,-87.88"/>
<text xml:space="preserve" text-anchor="start" x="217.75" y="-75.33" font-family="Helvetica,sans-Serif" font-size="9.00">BaseLayoutProvider.tsx</text>
</a>
</g>
</g>
<!-- src/app/providers/router/RouterProvider.tsx&#45;&gt;src/app/providers/layout/BaseLayoutProvider.tsx -->
<g id="edge4" class="edge">
<title>src/app/providers/router/RouterProvider.tsx&#45;&gt;src/app/providers/layout/BaseLayoutProvider.tsx</title>
<path fill="none" stroke="#000000" stroke-width="2" stroke-opacity="0.200000" d="M185.66,-129.8C188.46,-128.66 191.19,-127.4 193.75,-126 197.9,-123.73 197.96,-121.82 201.75,-119 214.33,-109.62 229.12,-100.2 241.24,-92.86"/>
<polygon fill="#000000" fill-opacity="0.200000" stroke="#000000" stroke-width="2" stroke-opacity="0.200000" points="242.11,-94.79 246.18,-89.91 239.95,-91.19 242.11,-94.79"/>
</g>
<!-- src/app/providers/router/dataLoader.tsx -->
<g id="node6" class="node">
<title>src/app/providers/router/dataLoader.tsx</title>
<g id="a_node6"><a xlink:href="src/app/providers/router/dataLoader.tsx" xlink:title="dataLoader.tsx">
<path fill="#bbfeff" stroke="black" d="M298.58,-147.88C298.58,-147.88 233.67,-147.88 233.67,-147.88 230.71,-147.88 227.75,-144.92 227.75,-141.96 227.75,-141.96 227.75,-136.04 227.75,-136.04 227.75,-133.08 230.71,-130.12 233.67,-130.12 233.67,-130.12 298.58,-130.12 298.58,-130.12 301.54,-130.12 304.5,-133.08 304.5,-136.04 304.5,-136.04 304.5,-141.96 304.5,-141.96 304.5,-144.92 301.54,-147.88 298.58,-147.88"/>
<text xml:space="preserve" text-anchor="start" x="235.75" y="-135.32" font-family="Helvetica,sans-Serif" font-size="9.00">dataLoader.tsx</text>
</a>
</g>
</g>
<!-- src/app/providers/router/RouterProvider.tsx&#45;&gt;src/app/providers/router/dataLoader.tsx -->
<g id="edge5" class="edge">
<title>src/app/providers/router/RouterProvider.tsx&#45;&gt;src/app/providers/router/dataLoader.tsx</title>
<path fill="none" stroke="#000000" stroke-width="2" stroke-opacity="0.200000" d="M194.15,-139C202.12,-139 210.43,-139 218.43,-139"/>
<polygon fill="#000000" fill-opacity="0.200000" stroke="#000000" stroke-width="2" stroke-opacity="0.200000" points="218.28,-141.1 224.28,-139 218.28,-136.9 218.28,-141.1"/>
</g>
<!-- src/pages/home/index.ts -->
<g id="node7" class="node">
<title>src/pages/home/index.ts</title>
<g id="a_node7"><a xlink:href="src/pages/home/index.ts" xlink:title="index.ts">
<path fill="#ddfeff" stroke="black" d="M287.21,-271.88C287.21,-271.88 245.04,-271.88 245.04,-271.88 242.08,-271.88 239.12,-268.92 239.12,-265.96 239.12,-265.96 239.12,-260.04 239.12,-260.04 239.12,-257.08 242.08,-254.12 245.04,-254.12 245.04,-254.12 287.21,-254.12 287.21,-254.12 290.17,-254.12 293.12,-257.08 293.12,-260.04 293.12,-260.04 293.12,-265.96 293.12,-265.96 293.12,-268.92 290.17,-271.88 287.21,-271.88"/>
<text xml:space="preserve" text-anchor="start" x="250.38" y="-259.32" font-family="Helvetica,sans-Serif" font-size="9.00">index.ts</text>
</a>
</g>
</g>
<!-- src/app/providers/router/RouterProvider.tsx&#45;&gt;src/pages/home/index.ts -->
<g id="edge6" class="edge">
<title>src/app/providers/router/RouterProvider.tsx&#45;&gt;src/pages/home/index.ts</title>
<path fill="none" stroke="#000000" stroke-width="2" stroke-opacity="0.200000" d="M157.61,-148.32C177.49,-169.52 226.24,-221.52 250.67,-247.58"/>
<polygon fill="#000000" fill-opacity="0.200000" stroke="#000000" stroke-width="2" stroke-opacity="0.200000" points="248.9,-248.76 254.53,-251.7 251.96,-245.89 248.9,-248.76"/>
</g>
<!-- src/pages/login/index.ts -->
<g id="node8" class="node">
<title>src/pages/login/index.ts</title>
<g id="a_node8"><a xlink:href="src/pages/login/index.ts" xlink:title="index.ts">
<path fill="#ddfeff" stroke="black" d="M287.21,-365.88C287.21,-365.88 245.04,-365.88 245.04,-365.88 242.08,-365.88 239.12,-362.92 239.12,-359.96 239.12,-359.96 239.12,-354.04 239.12,-354.04 239.12,-351.08 242.08,-348.12 245.04,-348.12 245.04,-348.12 287.21,-348.12 287.21,-348.12 290.17,-348.12 293.12,-351.08 293.12,-354.04 293.12,-354.04 293.12,-359.96 293.12,-359.96 293.12,-362.92 290.17,-365.88 287.21,-365.88"/>
<text xml:space="preserve" text-anchor="start" x="250.38" y="-353.32" font-family="Helvetica,sans-Serif" font-size="9.00">index.ts</text>
</a>
</g>
</g>
<!-- src/app/providers/router/RouterProvider.tsx&#45;&gt;src/pages/login/index.ts -->
<g id="edge7" class="edge">
<title>src/app/providers/router/RouterProvider.tsx&#45;&gt;src/pages/login/index.ts</title>
<path fill="none" stroke="#000000" stroke-width="2" stroke-opacity="0.200000" d="M148.72,-148.34C148.7,-178.66 152.68,-275.62 201.75,-331 209.28,-339.5 220.01,-345.27 230.5,-349.18"/>
<polygon fill="#000000" fill-opacity="0.200000" stroke="#000000" stroke-width="2" stroke-opacity="0.200000" points="229.57,-351.08 235.93,-350.97 230.89,-347.09 229.57,-351.08"/>
</g>
<!-- src/pages/profile/index.ts -->
<g id="node9" class="node">
<title>src/pages/profile/index.ts</title>
<g id="a_node9"><a xlink:href="src/pages/profile/index.ts" xlink:title="index.ts">
<path fill="#ddfeff" stroke="black" d="M287.21,-459.88C287.21,-459.88 245.04,-459.88 245.04,-459.88 242.08,-459.88 239.12,-456.92 239.12,-453.96 239.12,-453.96 239.12,-448.04 239.12,-448.04 239.12,-445.08 242.08,-442.12 245.04,-442.12 245.04,-442.12 287.21,-442.12 287.21,-442.12 290.17,-442.12 293.12,-445.08 293.12,-448.04 293.12,-448.04 293.12,-453.96 293.12,-453.96 293.12,-456.92 290.17,-459.88 287.21,-459.88"/>
<text xml:space="preserve" text-anchor="start" x="250.38" y="-447.32" font-family="Helvetica,sans-Serif" font-size="9.00">index.ts</text>
</a>
</g>
</g>
<!-- src/app/providers/router/RouterProvider.tsx&#45;&gt;src/pages/profile/index.ts -->
<g id="edge8" class="edge">
<title>src/app/providers/router/RouterProvider.tsx&#45;&gt;src/pages/profile/index.ts</title>
<path fill="none" stroke="#000000" stroke-width="2" stroke-opacity="0.200000" d="M149.42,-148.33C152.17,-192.56 165.86,-380.81 201.75,-425 208.97,-433.89 219.72,-439.77 230.33,-443.64"/>
<polygon fill="#000000" fill-opacity="0.200000" stroke="#000000" stroke-width="2" stroke-opacity="0.200000" points="229.49,-445.58 235.85,-445.42 230.78,-441.58 229.49,-445.58"/>
</g>
<!-- src/entities/feature&#45;flags/index.ts -->
<g id="node5" class="node">
<title>src/entities/feature&#45;flags/index.ts</title>
<g id="a_node5"><a xlink:href="src/entities/feature-flags/index.ts" xlink:title="index.ts">
<path fill="#ddfeff" stroke="black" d="M504.58,-109.88C504.58,-109.88 462.42,-109.88 462.42,-109.88 459.46,-109.88 456.5,-106.92 456.5,-103.96 456.5,-103.96 456.5,-98.04 456.5,-98.04 456.5,-95.08 459.46,-92.12 462.42,-92.12 462.42,-92.12 504.58,-92.12 504.58,-92.12 507.54,-92.12 510.5,-95.08 510.5,-98.04 510.5,-98.04 510.5,-103.96 510.5,-103.96 510.5,-106.92 507.54,-109.88 504.58,-109.88"/>
<text xml:space="preserve" text-anchor="start" x="467.75" y="-97.33" font-family="Helvetica,sans-Serif" font-size="9.00">index.ts</text>
</a>
</g>
</g>
<!-- src/app/providers/layout/BaseLayoutProvider.tsx&#45;&gt;src/entities/feature&#45;flags/index.ts -->
<g id="edge3" class="edge">
<title>src/app/providers/layout/BaseLayoutProvider.tsx&#45;&gt;src/entities/feature&#45;flags/index.ts</title>
<path fill="none" stroke="#000000" stroke-width="2" stroke-opacity="0.200000" d="M322.87,-84.69C362.23,-88.71 413.76,-93.98 447.48,-97.42"/>
<polygon fill="#000000" fill-opacity="0.200000" stroke="#000000" stroke-width="2" stroke-opacity="0.200000" points="446.87,-99.47 453.06,-97.99 447.3,-95.29 446.87,-99.47"/>
</g>
<!-- src/entities/feature&#45;flags/model/actions.ts -->
<g id="node10" class="node">
<title>src/entities/feature&#45;flags/model/actions.ts</title>
<g id="a_node10"><a xlink:href="src/entities/feature-flags/model/actions.ts" xlink:title="actions.ts">
<path fill="#ddfeff" stroke="black" d="M628.58,-57.88C628.58,-57.88 586.17,-57.88 586.17,-57.88 583.21,-57.88 580.25,-54.92 580.25,-51.96 580.25,-51.96 580.25,-46.04 580.25,-46.04 580.25,-43.08 583.21,-40.12 586.17,-40.12 586.17,-40.12 628.58,-40.12 628.58,-40.12 631.54,-40.12 634.5,-43.08 634.5,-46.04 634.5,-46.04 634.5,-51.96 634.5,-51.96 634.5,-54.92 631.54,-57.88 628.58,-57.88"/>
<text xml:space="preserve" text-anchor="start" x="588.25" y="-45.33" font-family="Helvetica,sans-Serif" font-size="9.00">actions.ts</text>
</a>
</g>
</g>
<!-- src/entities/feature&#45;flags/index.ts&#45;&gt;src/entities/feature&#45;flags/model/actions.ts -->
<g id="edge10" class="edge">
<title>src/entities/feature&#45;flags/index.ts&#45;&gt;src/entities/feature&#45;flags/model/actions.ts</title>
<path fill="none" stroke="#000000" stroke-width="2" stroke-opacity="0.200000" d="M499.12,-91.76C512.55,-83.58 533.22,-71.76 552.38,-64 558.94,-61.34 566.13,-58.98 573.06,-56.97"/>
<polygon fill="#000000" fill-opacity="0.200000" stroke="#000000" stroke-width="2" stroke-opacity="0.200000" points="579.48,-57.36 573.14,-56.95 578.35,-53.31 579.48,-57.36"/>
</g>
<!-- src/entities/feature&#45;flags/model/store.ts -->
<g id="node11" class="node">
<title>src/entities/feature&#45;flags/model/store.ts</title>
<g id="a_node11"><a xlink:href="src/entities/feature-flags/model/store.ts" xlink:title="store.ts">
<path fill="#ddfeff" stroke="black" d="M717.33,-87.88C717.33,-87.88 675.17,-87.88 675.17,-87.88 672.21,-87.88 669.25,-84.92 669.25,-81.96 669.25,-81.96 669.25,-76.04 669.25,-76.04 669.25,-73.08 672.21,-70.12 675.17,-70.12 675.17,-70.12 717.33,-70.12 717.33,-70.12 720.29,-70.12 723.25,-73.08 723.25,-76.04 723.25,-76.04 723.25,-81.96 723.25,-81.96 723.25,-84.92 720.29,-87.88 717.33,-87.88"/>
<text xml:space="preserve" text-anchor="start" x="681.62" y="-75.33" font-family="Helvetica,sans-Serif" font-size="9.00">store.ts</text>
</a>
</g>
</g>
<!-- src/entities/feature&#45;flags/index.ts&#45;&gt;src/entities/feature&#45;flags/model/store.ts -->
<g id="edge11" class="edge">
<title>src/entities/feature&#45;flags/index.ts&#45;&gt;src/entities/feature&#45;flags/model/store.ts</title>
<path fill="none" stroke="#000000" stroke-width="2" stroke-opacity="0.200000" d="M510.96,-103C545.88,-104.95 609.04,-106.09 661.25,-94 664.53,-93.24 667.89,-92.16 671.16,-90.94"/>
<polygon fill="#000000" fill-opacity="0.200000" stroke="#000000" stroke-width="2" stroke-opacity="0.200000" points="677.56,-90.57 671.21,-90.91 675.96,-86.69 677.56,-90.57"/>
</g>
<!-- src/entities/feature&#45;flags/model/useFeatureFlag.tsx -->
<g id="node12" class="node">
<title>src/entities/feature&#45;flags/model/useFeatureFlag.tsx</title>
<g id="a_node12"><a xlink:href="src/entities/feature-flags/model/useFeatureFlag.tsx" xlink:title="useFeatureFlag.tsx">
<path fill="#bbfeff" stroke="black" d="M648.46,-87.88C648.46,-87.88 566.29,-87.88 566.29,-87.88 563.33,-87.88 560.38,-84.92 560.38,-81.96 560.38,-81.96 560.38,-76.04 560.38,-76.04 560.38,-73.08 563.33,-70.12 566.29,-70.12 566.29,-70.12 648.46,-70.12 648.46,-70.12 651.42,-70.12 654.38,-73.08 654.38,-76.04 654.38,-76.04 654.38,-81.96 654.38,-81.96 654.38,-84.92 651.42,-87.88 648.46,-87.88"/>
<text xml:space="preserve" text-anchor="start" x="568.38" y="-75.33" font-family="Helvetica,sans-Serif" font-size="9.00">useFeatureFlag.tsx</text>
</a>
</g>
</g>
<!-- src/entities/feature&#45;flags/index.ts&#45;&gt;src/entities/feature&#45;flags/model/useFeatureFlag.tsx -->
<g id="edge12" class="edge">
<title>src/entities/feature&#45;flags/index.ts&#45;&gt;src/entities/feature&#45;flags/model/useFeatureFlag.tsx</title>
<path fill="none" stroke="#000000" stroke-width="2" stroke-opacity="0.200000" d="M510.95,-96.23C523.45,-93.97 538.85,-91.19 553.6,-88.53"/>
<polygon fill="#000000" fill-opacity="0.200000" stroke="#000000" stroke-width="2" stroke-opacity="0.200000" points="559.7,-89.56 553.42,-88.56 558.96,-85.43 559.7,-89.56"/>
</g>
<!-- src/entities/feature&#45;flags/ui/FeatureToggler.tsx -->
<g id="node13" class="node">
<title>src/entities/feature&#45;flags/ui/FeatureToggler.tsx</title>
<g id="a_node13"><a xlink:href="src/entities/feature-flags/ui/FeatureToggler.tsx" xlink:title="FeatureToggler.tsx">
<path fill="#bbfeff" stroke="black" d="M647.33,-147.88C647.33,-147.88 567.42,-147.88 567.42,-147.88 564.46,-147.88 561.5,-144.92 561.5,-141.96 561.5,-141.96 561.5,-136.04 561.5,-136.04 561.5,-133.08 564.46,-130.12 567.42,-130.12 567.42,-130.12 647.33,-130.12 647.33,-130.12 650.29,-130.12 653.25,-133.08 653.25,-136.04 653.25,-136.04 653.25,-141.96 653.25,-141.96 653.25,-144.92 650.29,-147.88 647.33,-147.88"/>
<text xml:space="preserve" text-anchor="start" x="569.5" y="-135.32" font-family="Helvetica,sans-Serif" font-size="9.00">FeatureToggler.tsx</text>
</a>
</g>
</g>
<!-- src/entities/feature&#45;flags/index.ts&#45;&gt;src/entities/feature&#45;flags/ui/FeatureToggler.tsx -->
<g id="edge13" class="edge">
<title>src/entities/feature&#45;flags/index.ts&#45;&gt;src/entities/feature&#45;flags/ui/FeatureToggler.tsx</title>
<path fill="none" stroke="#000000" stroke-width="2" stroke-opacity="0.200000" d="M507.83,-110.36C520.82,-115.38 537.35,-121.44 552.38,-126 554.45,-126.63 556.58,-127.25 558.73,-127.86"/>
<polygon fill="#000000" fill-opacity="0.200000" stroke="#000000" stroke-width="2" stroke-opacity="0.200000" points="563.74,-131.39 558.5,-127.79 564.84,-127.34 563.74,-131.39"/>
</g>
<!-- src/app/providers/router/dataLoader.tsx&#45;&gt;src/entities/feature&#45;flags/index.ts -->
<g id="edge9" class="edge">
<title>src/app/providers/router/dataLoader.tsx&#45;&gt;src/entities/feature&#45;flags/index.ts</title>
<path fill="none" stroke="#000000" stroke-width="2" stroke-opacity="0.200000" d="M304.64,-132.38C344.98,-125.26 408.58,-114.04 447.79,-107.12"/>
<polygon fill="#000000" fill-opacity="0.200000" stroke="#000000" stroke-width="2" stroke-opacity="0.200000" points="447.73,-109.27 453.27,-106.16 447,-105.13 447.73,-109.27"/>
</g>
<!-- src/pages/home/ui/Page.tsx -->
<g id="node14" class="node">
<title>src/pages/home/ui/Page.tsx</title>
<g id="a_node14"><a xlink:href="src/pages/home/ui/Page.tsx" xlink:title="Page.tsx">
<path fill="#bbfeff" stroke="black" d="M410.58,-275.88C410.58,-275.88 368.42,-275.88 368.42,-275.88 365.46,-275.88 362.5,-272.92 362.5,-269.96 362.5,-269.96 362.5,-264.04 362.5,-264.04 362.5,-261.08 365.46,-258.12 368.42,-258.12 368.42,-258.12 410.58,-258.12 410.58,-258.12 413.54,-258.12 416.5,-261.08 416.5,-264.04 416.5,-264.04 416.5,-269.96 416.5,-269.96 416.5,-272.92 413.54,-275.88 410.58,-275.88"/>
<text xml:space="preserve" text-anchor="start" x="371.88" y="-263.32" font-family="Helvetica,sans-Serif" font-size="9.00">Page.tsx</text>
</a>
</g>
</g>
<!-- src/pages/home/index.ts&#45;&gt;src/pages/home/ui/Page.tsx -->
<g id="edge17" class="edge">
<title>src/pages/home/index.ts&#45;&gt;src/pages/home/ui/Page.tsx</title>
<path fill="none" stroke="#000000" stroke-width="2" stroke-opacity="0.200000" d="M293.46,-263.87C311.59,-264.47 335.83,-265.26 355.28,-265.91"/>
<polygon fill="#000000" fill-opacity="0.200000" stroke="#000000" stroke-width="2" stroke-opacity="0.200000" points="361.15,-268.2 355.22,-265.9 361.28,-264 361.15,-268.2"/>
</g>
<!-- src/pages/login/ui/Page.tsx -->
<g id="node15" class="node">
<title>src/pages/login/ui/Page.tsx</title>
<g id="a_node15"><a xlink:href="src/pages/login/ui/Page.tsx" xlink:title="Page.tsx">
<path fill="#bbfeff" stroke="black" d="M410.58,-369.88C410.58,-369.88 368.42,-369.88 368.42,-369.88 365.46,-369.88 362.5,-366.92 362.5,-363.96 362.5,-363.96 362.5,-358.04 362.5,-358.04 362.5,-355.08 365.46,-352.12 368.42,-352.12 368.42,-352.12 410.58,-352.12 410.58,-352.12 413.54,-352.12 416.5,-355.08 416.5,-358.04 416.5,-358.04 416.5,-363.96 416.5,-363.96 416.5,-366.92 413.54,-369.88 410.58,-369.88"/>
<text xml:space="preserve" text-anchor="start" x="371.88" y="-357.32" font-family="Helvetica,sans-Serif" font-size="9.00">Page.tsx</text>
</a>
</g>
</g>
<!-- src/pages/login/index.ts&#45;&gt;src/pages/login/ui/Page.tsx -->
<g id="edge19" class="edge">
<title>src/pages/login/index.ts&#45;&gt;src/pages/login/ui/Page.tsx</title>
<path fill="none" stroke="#000000" stroke-width="2" stroke-opacity="0.200000" d="M293.46,-357.87C311.59,-358.47 335.83,-359.26 355.28,-359.91"/>
<polygon fill="#000000" fill-opacity="0.200000" stroke="#000000" stroke-width="2" stroke-opacity="0.200000" points="361.15,-362.2 355.22,-359.9 361.28,-358 361.15,-362.2"/>
</g>
<!-- src/pages/profile/ui/Page.tsx -->
<g id="node17" class="node">
<title>src/pages/profile/ui/Page.tsx</title>
<g id="a_node17"><a xlink:href="src/pages/profile/ui/Page.tsx" xlink:title="Page.tsx">
<path fill="#bbfeff" stroke="black" d="M410.58,-463.88C410.58,-463.88 368.42,-463.88 368.42,-463.88 365.46,-463.88 362.5,-460.92 362.5,-457.96 362.5,-457.96 362.5,-452.04 362.5,-452.04 362.5,-449.08 365.46,-446.12 368.42,-446.12 368.42,-446.12 410.58,-446.12 410.58,-446.12 413.54,-446.12 416.5,-449.08 416.5,-452.04 416.5,-452.04 416.5,-457.96 416.5,-457.96 416.5,-460.92 413.54,-463.88 410.58,-463.88"/>
<text xml:space="preserve" text-anchor="start" x="371.88" y="-451.32" font-family="Helvetica,sans-Serif" font-size="9.00">Page.tsx</text>
</a>
</g>
</g>
<!-- src/pages/profile/index.ts&#45;&gt;src/pages/profile/ui/Page.tsx -->
<g id="edge21" class="edge">
<title>src/pages/profile/index.ts&#45;&gt;src/pages/profile/ui/Page.tsx</title>
<path fill="none" stroke="#000000" stroke-width="2" stroke-opacity="0.200000" d="M293.46,-451.87C311.59,-452.47 335.83,-453.26 355.28,-453.91"/>
<polygon fill="#000000" fill-opacity="0.200000" stroke="#000000" stroke-width="2" stroke-opacity="0.200000" points="361.15,-456.2 355.22,-453.9 361.28,-452 361.15,-456.2"/>
</g>
<!-- src/entities/feature&#45;flags/model/actions.ts&#45;&gt;src/entities/feature&#45;flags/model/store.ts -->
<g id="edge14" class="edge">
<title>src/entities/feature&#45;flags/model/actions.ts&#45;&gt;src/entities/feature&#45;flags/model/store.ts</title>
<path fill="none" stroke="#000000" stroke-width="2" stroke-opacity="0.200000" d="M634.96,-55.76C643.44,-58.13 652.81,-60.96 661.25,-64 663.27,-64.73 665.34,-65.52 667.41,-66.35"/>
<polygon fill="#000000" fill-opacity="0.200000" stroke="#000000" stroke-width="2" stroke-opacity="0.200000" points="666.16,-68.1 672.51,-68.48 667.78,-64.23 666.16,-68.1"/>
</g>
<!-- src/entities/feature&#45;flags/model/useFeatureFlag.tsx&#45;&gt;src/entities/feature&#45;flags/model/store.ts -->
<g id="edge15" class="edge">
<title>src/entities/feature&#45;flags/model/useFeatureFlag.tsx&#45;&gt;src/entities/feature&#45;flags/model/store.ts</title>
<path fill="none" stroke="#000000" stroke-width="2" stroke-opacity="0.200000" d="M654.86,-79C656.68,-79 658.49,-79 660.28,-79"/>
<polygon fill="#000000" fill-opacity="0.200000" stroke="#000000" stroke-width="2" stroke-opacity="0.200000" points="659.97,-81.1 665.97,-79 659.97,-76.9 659.97,-81.1"/>
</g>
<!-- src/entities/feature&#45;flags/ui/FeatureToggler.tsx&#45;&gt;src/entities/feature&#45;flags/model/store.ts -->
<g id="edge16" class="edge">
<title>src/entities/feature&#45;flags/ui/FeatureToggler.tsx&#45;&gt;src/entities/feature&#45;flags/model/store.ts</title>
<path fill="none" stroke="#000000" stroke-width="2" stroke-opacity="0.200000" d="M653.74,-130.2C656.37,-128.98 658.9,-127.58 661.25,-126 672.34,-118.53 681.08,-106.16 686.91,-95.98"/>
<polygon fill="#000000" fill-opacity="0.200000" stroke="#000000" stroke-width="2" stroke-opacity="0.200000" points="688.72,-97.06 689.7,-90.78 685.02,-95.08 688.72,-97.06"/>
</g>
<!-- src/pages/home/ui/Page.tsx&#45;&gt;src/entities/feature&#45;flags/index.ts -->
<g id="edge18" class="edge">
<title>src/pages/home/ui/Page.tsx&#45;&gt;src/entities/feature&#45;flags/index.ts</title>
<path fill="none" stroke="#000000" stroke-width="2" stroke-opacity="0.200000" d="M395.45,-258.08C410.17,-231.5 453.9,-152.6 473.19,-117.81"/>
<polygon fill="#000000" fill-opacity="0.200000" stroke="#000000" stroke-width="2" stroke-opacity="0.200000" points="474.99,-118.88 476.06,-112.62 471.32,-116.85 474.99,-118.88"/>
</g>
<!-- src/pages/login/ui/LoginForm.tsx -->
<g id="node16" class="node">
<title>src/pages/login/ui/LoginForm.tsx</title>
<g id="a_node16"><a xlink:href="src/pages/login/ui/LoginForm.tsx" xlink:title="LoginForm.tsx">
<path fill="#bbfeff" stroke="black" d="M514.46,-369.88C514.46,-369.88 452.54,-369.88 452.54,-369.88 449.58,-369.88 446.62,-366.92 446.62,-363.96 446.62,-363.96 446.62,-358.04 446.62,-358.04 446.62,-355.08 449.58,-352.12 452.54,-352.12 452.54,-352.12 514.46,-352.12 514.46,-352.12 517.42,-352.12 520.38,-355.08 520.38,-358.04 520.38,-358.04 520.38,-363.96 520.38,-363.96 520.38,-366.92 517.42,-369.88 514.46,-369.88"/>
<text xml:space="preserve" text-anchor="start" x="454.62" y="-357.32" font-family="Helvetica,sans-Serif" font-size="9.00">LoginForm.tsx</text>
</a>
</g>
</g>
<!-- src/pages/login/ui/Page.tsx&#45;&gt;src/pages/login/ui/LoginForm.tsx -->
<g id="edge20" class="edge">
<title>src/pages/login/ui/Page.tsx&#45;&gt;src/pages/login/ui/LoginForm.tsx</title>
<path fill="none" stroke="#000000" stroke-width="2" stroke-opacity="0.200000" d="M416.62,-361C423.12,-361 430.27,-361 437.4,-361"/>
<polygon fill="#000000" fill-opacity="0.200000" stroke="#000000" stroke-width="2" stroke-opacity="0.200000" points="437.33,-363.1 443.33,-361 437.33,-358.9 437.33,-363.1"/>
</g>
</g>
</svg>
