<?xml version="1.0" encoding="UTF-8" standalone="no"?>
<!DOCTYPE svg PUBLIC "-//W3C//DTD SVG 1.1//EN"
 "http://www.w3.org/Graphics/SVG/1.1/DTD/svg11.dtd">
<!-- Generated by graphviz version 12.0.0 (20240704.0754)
 -->
<!-- Title: dependency&#45;cruiser output Pages: 1 -->
<svg width="1101pt" height="606pt"
 viewBox="0.00 0.00 1100.50 606.00" xmlns="http://www.w3.org/2000/svg" xmlns:xlink="http://www.w3.org/1999/xlink">
<g id="graph0" class="graph" transform="scale(1 1) rotate(0) translate(4 602)">
<title>dependency&#45;cruiser output</title>
<polygon fill="white" stroke="none" points="-4,4 -4,-602 1096.5,-602 1096.5,4 -4,4"/>
<g id="clust1" class="cluster">
<title>cluster_src</title>
<path fill="#ffffff" stroke="black" stroke-width="2" d="M20,-8C20,-8 1072.5,-8 1072.5,-8 1078.5,-8 1084.5,-14 1084.5,-20 1084.5,-20 1084.5,-578 1084.5,-578 1084.5,-584 1078.5,-590 1072.5,-590 1072.5,-590 20,-590 20,-590 14,-590 8,-584 8,-578 8,-578 8,-20 8,-20 8,-14 14,-8 20,-8"/>
<text text-anchor="middle" x="546.25" y="-577.45" font-family="Helvetica,sans-Serif" font-weight="bold" font-size="9.00">src</text>
</g>
<g id="clust2" class="cluster">
<title>cluster_src/app</title>
<path fill="#ffffff" stroke="black" stroke-width="2" d="M28,-16C28,-16 342.5,-16 342.5,-16 348.5,-16 354.5,-22 354.5,-28 354.5,-28 354.5,-150 354.5,-150 354.5,-156 348.5,-162 342.5,-162 342.5,-162 28,-162 28,-162 22,-162 16,-156 16,-150 16,-150 16,-28 16,-28 16,-22 22,-16 28,-16"/>
<text text-anchor="middle" x="185.25" y="-149.45" font-family="Helvetica,sans-Serif" font-weight="bold" font-size="9.00">app</text>
</g>
<g id="clust3" class="cluster">
<title>cluster_src/app/providers</title>
<path fill="#ffffff" stroke="black" stroke-width="2" d="M98,-50C98,-50 334.5,-50 334.5,-50 340.5,-50 346.5,-56 346.5,-62 346.5,-62 346.5,-124 346.5,-124 346.5,-130 340.5,-136 334.5,-136 334.5,-136 98,-136 98,-136 92,-136 86,-130 86,-124 86,-124 86,-62 86,-62 86,-56 92,-50 98,-50"/>
<text text-anchor="middle" x="216.25" y="-123.45" font-family="Helvetica,sans-Serif" font-weight="bold" font-size="9.00">providers</text>
</g>
<g id="clust4" class="cluster">
<title>cluster_src/app/providers/layout</title>
<path fill="#ffffff" stroke="black" stroke-width="2" d="M221.75,-58C221.75,-58 326.5,-58 326.5,-58 332.5,-58 338.5,-64 338.5,-70 338.5,-70 338.5,-98 338.5,-98 338.5,-104 332.5,-110 326.5,-110 326.5,-110 221.75,-110 221.75,-110 215.75,-110 209.75,-104 209.75,-98 209.75,-98 209.75,-70 209.75,-70 209.75,-64 215.75,-58 221.75,-58"/>
<text text-anchor="middle" x="274.12" y="-97.45" font-family="Helvetica,sans-Serif" font-weight="bold" font-size="9.00">layout</text>
</g>
<g id="clust5" class="cluster">
<title>cluster_src/app/providers/router</title>
<path fill="#ffffff" stroke="black" stroke-width="2" d="M106,-58C106,-58 189.75,-58 189.75,-58 195.75,-58 201.75,-64 201.75,-70 201.75,-70 201.75,-98 201.75,-98 201.75,-104 195.75,-110 189.75,-110 189.75,-110 106,-110 106,-110 100,-110 94,-104 94,-98 94,-98 94,-70 94,-70 94,-64 100,-58 106,-58"/>
<text text-anchor="middle" x="147.88" y="-97.45" font-family="Helvetica,sans-Serif" font-weight="bold" font-size="9.00">router</text>
</g>
<g id="clust6" class="cluster">
<title>cluster_src/entities</title>
<path fill="#ffffff" stroke="black" stroke-width="2" d="M554.5,-16C554.5,-16 927.5,-16 927.5,-16 933.5,-16 939.5,-22 939.5,-28 939.5,-28 939.5,-274 939.5,-274 939.5,-280 933.5,-286 927.5,-286 927.5,-286 554.5,-286 554.5,-286 548.5,-286 542.5,-280 542.5,-274 542.5,-274 542.5,-28 542.5,-28 542.5,-22 548.5,-16 554.5,-16"/>
<text text-anchor="middle" x="741" y="-273.45" font-family="Helvetica,sans-Serif" font-weight="bold" font-size="9.00">entities</text>
</g>
<g id="clust7" class="cluster">
<title>cluster_src/entities/pokemon</title>
<path fill="#ffffff" stroke="black" stroke-width="2" d="M562.5,-24C562.5,-24 919.5,-24 919.5,-24 925.5,-24 931.5,-30 931.5,-36 931.5,-36 931.5,-248 931.5,-248 931.5,-254 925.5,-260 919.5,-260 919.5,-260 562.5,-260 562.5,-260 556.5,-260 550.5,-254 550.5,-248 550.5,-248 550.5,-36 550.5,-36 550.5,-30 556.5,-24 562.5,-24"/>
<text text-anchor="middle" x="741" y="-247.45" font-family="Helvetica,sans-Serif" font-weight="bold" font-size="9.00">pokemon</text>
</g>
<g id="clust8" class="cluster">
<title>cluster_src/entities/pokemon/api</title>
<path fill="#ffffff" stroke="black" stroke-width="2" d="M570.5,-182C570.5,-182 667.75,-182 667.75,-182 673.75,-182 679.75,-188 679.75,-194 679.75,-194 679.75,-222 679.75,-222 679.75,-228 673.75,-234 667.75,-234 667.75,-234 570.5,-234 570.5,-234 564.5,-234 558.5,-228 558.5,-222 558.5,-222 558.5,-194 558.5,-194 558.5,-188 564.5,-182 570.5,-182"/>
<text text-anchor="middle" x="619.12" y="-221.45" font-family="Helvetica,sans-Serif" font-weight="bold" font-size="9.00">api</text>
</g>
<g id="clust9" class="cluster">
<title>cluster_src/entities/pokemon/lib</title>
<path fill="#ffffff" stroke="black" stroke-width="2" d="M699.75,-182C699.75,-182 788,-182 788,-182 794,-182 800,-188 800,-194 800,-194 800,-222 800,-222 800,-228 794,-234 788,-234 788,-234 699.75,-234 699.75,-234 693.75,-234 687.75,-228 687.75,-222 687.75,-222 687.75,-194 687.75,-194 687.75,-188 693.75,-182 699.75,-182"/>
<text text-anchor="middle" x="743.88" y="-221.45" font-family="Helvetica,sans-Serif" font-weight="bold" font-size="9.00">lib</text>
</g>
<g id="clust10" class="cluster">
<title>cluster_src/entities/pokemon/model</title>
<path fill="#ffffff" stroke="black" stroke-width="2" d="M838.75,-32C838.75,-32 884.75,-32 884.75,-32 890.75,-32 896.75,-38 896.75,-44 896.75,-44 896.75,-102 896.75,-102 896.75,-108 890.75,-114 884.75,-114 884.75,-114 838.75,-114 838.75,-114 832.75,-114 826.75,-108 826.75,-102 826.75,-102 826.75,-44 826.75,-44 826.75,-38 832.75,-32 838.75,-32"/>
<text text-anchor="middle" x="861.75" y="-101.45" font-family="Helvetica,sans-Serif" font-weight="bold" font-size="9.00">model</text>
</g>
<g id="clust11" class="cluster">
<title>cluster_src/entities/pokemon/ui</title>
<path fill="#ffffff" stroke="black" stroke-width="2" d="M703.5,-122C703.5,-122 911.5,-122 911.5,-122 917.5,-122 923.5,-128 923.5,-134 923.5,-134 923.5,-162 923.5,-162 923.5,-168 917.5,-174 911.5,-174 911.5,-174 703.5,-174 703.5,-174 697.5,-174 691.5,-168 691.5,-162 691.5,-162 691.5,-134 691.5,-134 691.5,-128 697.5,-122 703.5,-122"/>
<text text-anchor="middle" x="807.5" y="-161.45" font-family="Helvetica,sans-Serif" font-weight="bold" font-size="9.00">ui</text>
</g>
<g id="clust12" class="cluster">
<title>cluster_src/pages</title>
<path fill="#ffffff" stroke="black" stroke-width="2" d="M243.12,-170C243.12,-170 522.5,-170 522.5,-170 528.5,-170 534.5,-176 534.5,-182 534.5,-182 534.5,-372 534.5,-372 534.5,-378 528.5,-384 522.5,-384 522.5,-384 243.12,-384 243.12,-384 237.12,-384 231.12,-378 231.12,-372 231.12,-372 231.12,-182 231.12,-182 231.12,-176 237.12,-170 243.12,-170"/>
<text text-anchor="middle" x="382.81" y="-371.45" font-family="Helvetica,sans-Serif" font-weight="bold" font-size="9.00">pages</text>
</g>
<g id="clust13" class="cluster">
<title>cluster_src/pages/home</title>
<path fill="#ffffff" stroke="black" stroke-width="2" d="M251.12,-178C251.12,-178 514.5,-178 514.5,-178 520.5,-178 526.5,-184 526.5,-190 526.5,-190 526.5,-252 526.5,-252 526.5,-258 520.5,-264 514.5,-264 514.5,-264 251.12,-264 251.12,-264 245.12,-264 239.12,-258 239.12,-252 239.12,-252 239.12,-190 239.12,-190 239.12,-184 245.12,-178 251.12,-178"/>
<text text-anchor="middle" x="382.81" y="-251.45" font-family="Helvetica,sans-Serif" font-weight="bold" font-size="9.00">home</text>
</g>
<g id="clust14" class="cluster">
<title>cluster_src/pages/home/model</title>
<path fill="#ffffff" stroke="black" stroke-width="2" d="M460.5,-186C460.5,-186 506.5,-186 506.5,-186 512.5,-186 518.5,-192 518.5,-198 518.5,-198 518.5,-226 518.5,-226 518.5,-232 512.5,-238 506.5,-238 506.5,-238 460.5,-238 460.5,-238 454.5,-238 448.5,-232 448.5,-226 448.5,-226 448.5,-198 448.5,-198 448.5,-192 454.5,-186 460.5,-186"/>
<text text-anchor="middle" x="483.5" y="-225.45" font-family="Helvetica,sans-Serif" font-weight="bold" font-size="9.00">model</text>
</g>
<g id="clust15" class="cluster">
<title>cluster_src/pages/home/ui</title>
<path fill="#ffffff" stroke="black" stroke-width="2" d="M374.5,-186C374.5,-186 420.5,-186 420.5,-186 426.5,-186 432.5,-192 432.5,-198 432.5,-198 432.5,-226 432.5,-226 432.5,-232 426.5,-238 420.5,-238 420.5,-238 374.5,-238 374.5,-238 368.5,-238 362.5,-232 362.5,-226 362.5,-226 362.5,-198 362.5,-198 362.5,-192 368.5,-186 374.5,-186"/>
<text text-anchor="middle" x="397.5" y="-225.45" font-family="Helvetica,sans-Serif" font-weight="bold" font-size="9.00">ui</text>
</g>
<g id="clust16" class="cluster">
<title>cluster_src/pages/profile</title>
<path fill="#ffffff" stroke="black" stroke-width="2" d="M251.12,-272C251.12,-272 428.5,-272 428.5,-272 434.5,-272 440.5,-278 440.5,-284 440.5,-284 440.5,-346 440.5,-346 440.5,-352 434.5,-358 428.5,-358 428.5,-358 251.12,-358 251.12,-358 245.12,-358 239.12,-352 239.12,-346 239.12,-346 239.12,-284 239.12,-284 239.12,-278 245.12,-272 251.12,-272"/>
<text text-anchor="middle" x="339.81" y="-345.45" font-family="Helvetica,sans-Serif" font-weight="bold" font-size="9.00">profile</text>
</g>
<g id="clust17" class="cluster">
<title>cluster_src/pages/profile/ui</title>
<path fill="#ffffff" stroke="black" stroke-width="2" d="M374.5,-280C374.5,-280 420.5,-280 420.5,-280 426.5,-280 432.5,-286 432.5,-292 432.5,-292 432.5,-320 432.5,-320 432.5,-326 426.5,-332 420.5,-332 420.5,-332 374.5,-332 374.5,-332 368.5,-332 362.5,-326 362.5,-320 362.5,-320 362.5,-292 362.5,-292 362.5,-286 368.5,-280 374.5,-280"/>
<text text-anchor="middle" x="397.5" y="-319.45" font-family="Helvetica,sans-Serif" font-weight="bold" font-size="9.00">ui</text>
</g>
<g id="clust18" class="cluster">
<title>cluster_src/shared</title>
<path fill="#ffffff" stroke="black" stroke-width="2" d="M830.75,-294C830.75,-294 1064.5,-294 1064.5,-294 1070.5,-294 1076.5,-300 1076.5,-306 1076.5,-306 1076.5,-552 1076.5,-552 1076.5,-558 1070.5,-564 1064.5,-564 1064.5,-564 830.75,-564 830.75,-564 824.75,-564 818.75,-558 818.75,-552 818.75,-552 818.75,-306 818.75,-306 818.75,-300 824.75,-294 830.75,-294"/>
<text text-anchor="middle" x="947.62" y="-551.45" font-family="Helvetica,sans-Serif" font-weight="bold" font-size="9.00">shared</text>
</g>
<g id="clust19" class="cluster">
<title>cluster_src/shared/api</title>
<path fill="#ffffff" stroke="black" stroke-width="2" d="M838.75,-302C838.75,-302 1056.5,-302 1056.5,-302 1062.5,-302 1068.5,-308 1068.5,-314 1068.5,-314 1068.5,-406 1068.5,-406 1068.5,-412 1062.5,-418 1056.5,-418 1056.5,-418 838.75,-418 838.75,-418 832.75,-418 826.75,-412 826.75,-406 826.75,-406 826.75,-314 826.75,-314 826.75,-308 832.75,-302 838.75,-302"/>
<text text-anchor="middle" x="947.62" y="-405.45" font-family="Helvetica,sans-Serif" font-weight="bold" font-size="9.00">api</text>
</g>
<g id="clust20" class="cluster">
<title>cluster_src/shared/api/pokemon</title>
<path fill="#ffffff" stroke="black" stroke-width="2" d="M959.5,-310C959.5,-310 1048.5,-310 1048.5,-310 1054.5,-310 1060.5,-316 1060.5,-322 1060.5,-322 1060.5,-380 1060.5,-380 1060.5,-386 1054.5,-392 1048.5,-392 1048.5,-392 959.5,-392 959.5,-392 953.5,-392 947.5,-386 947.5,-380 947.5,-380 947.5,-322 947.5,-322 947.5,-316 953.5,-310 959.5,-310"/>
<text text-anchor="middle" x="1004" y="-379.45" font-family="Helvetica,sans-Serif" font-weight="bold" font-size="9.00">pokemon</text>
</g>
<g id="clust21" class="cluster">
<title>cluster_src/shared/lib</title>
<path fill="#ffffff" stroke="black" stroke-width="2" d="M838.75,-426C838.75,-426 884.75,-426 884.75,-426 890.75,-426 896.75,-432 896.75,-438 896.75,-438 896.75,-466 896.75,-466 896.75,-472 890.75,-478 884.75,-478 884.75,-478 838.75,-478 838.75,-478 832.75,-478 826.75,-472 826.75,-466 826.75,-466 826.75,-438 826.75,-438 826.75,-432 832.75,-426 838.75,-426"/>
<text text-anchor="middle" x="861.75" y="-465.45" font-family="Helvetica,sans-Serif" font-weight="bold" font-size="9.00">lib</text>
</g>
<g id="clust22" class="cluster">
<title>cluster_src/shared/ui</title>
<path fill="#ffffff" stroke="black" stroke-width="2" d="M838.75,-486C838.75,-486 884.75,-486 884.75,-486 890.75,-486 896.75,-492 896.75,-498 896.75,-498 896.75,-526 896.75,-526 896.75,-532 890.75,-538 884.75,-538 884.75,-538 838.75,-538 838.75,-538 832.75,-538 826.75,-532 826.75,-526 826.75,-526 826.75,-498 826.75,-498 826.75,-492 832.75,-486 838.75,-486"/>
<text text-anchor="middle" x="861.75" y="-525.45" font-family="Helvetica,sans-Serif" font-weight="bold" font-size="9.00">ui</text>
</g>
<!-- src/app/entry.css -->
<g id="node1" class="node">
<title>src/app/entry.css</title>
<g id="a_node1"><a xlink:href="src/app/entry.css" xlink:title="entry.css">
<path fill="#ffffcc" stroke="black" d="M168.96,-41.88C168.96,-41.88 126.79,-41.88 126.79,-41.88 123.83,-41.88 120.88,-38.92 120.88,-35.96 120.88,-35.96 120.88,-30.04 120.88,-30.04 120.88,-27.08 123.83,-24.12 126.79,-24.12 126.79,-24.12 168.96,-24.12 168.96,-24.12 171.92,-24.12 174.88,-27.08 174.88,-30.04 174.88,-30.04 174.88,-35.96 174.88,-35.96 174.88,-38.92 171.92,-41.88 168.96,-41.88"/>
<text text-anchor="start" x="129.88" y="-29.32" font-family="Helvetica,sans-Serif" font-size="9.00">entry.css</text>
</a>
</g>
</g>
<!-- src/app/entry.tsx -->
<g id="node2" class="node">
<title>src/app/entry.tsx</title>
<g id="a_node2"><a xlink:href="src/app/entry.tsx" xlink:title="entry.tsx">
<path fill="#bbfeff" stroke="black" d="M72.08,-62.88C72.08,-62.88 29.92,-62.88 29.92,-62.88 26.96,-62.88 24,-59.92 24,-56.96 24,-56.96 24,-51.04 24,-51.04 24,-48.08 26.96,-45.12 29.92,-45.12 29.92,-45.12 72.08,-45.12 72.08,-45.12 75.04,-45.12 78,-48.08 78,-51.04 78,-51.04 78,-56.96 78,-56.96 78,-59.92 75.04,-62.88 72.08,-62.88"/>
<text text-anchor="start" x="34.12" y="-50.33" font-family="Helvetica,sans-Serif" font-size="9.00">entry.tsx</text>
</a>
</g>
</g>
<!-- src/app/entry.tsx&#45;&gt;src/app/entry.css -->
<g id="edge1" class="edge">
<title>src/app/entry.tsx&#45;&gt;src/app/entry.css</title>
<path fill="none" stroke="#000000" stroke-width="2" stroke-opacity="0.200000" d="M78.43,-48.15C88.81,-45.85 100.88,-43.18 111.96,-40.73"/>
<polygon fill="#000000" fill-opacity="0.200000" stroke="#000000" stroke-width="2" stroke-opacity="0.200000" points="112.23,-42.82 117.63,-39.47 111.32,-38.72 112.23,-42.82"/>
</g>
<!-- src/app/providers/router/RouterProvider.tsx -->
<g id="node3" class="node">
<title>src/app/providers/router/RouterProvider.tsx</title>
<g id="a_node3"><a xlink:href="src/app/providers/router/RouterProvider.tsx" xlink:title="RouterProvider.tsx">
<path fill="#bbfeff" stroke="black" d="M187.83,-83.88C187.83,-83.88 107.92,-83.88 107.92,-83.88 104.96,-83.88 102,-80.92 102,-77.96 102,-77.96 102,-72.04 102,-72.04 102,-69.08 104.96,-66.12 107.92,-66.12 107.92,-66.12 187.83,-66.12 187.83,-66.12 190.79,-66.12 193.75,-69.08 193.75,-72.04 193.75,-72.04 193.75,-77.96 193.75,-77.96 193.75,-80.92 190.79,-83.88 187.83,-83.88"/>
<text text-anchor="start" x="110" y="-71.33" font-family="Helvetica,sans-Serif" font-size="9.00">RouterProvider.tsx</text>
</a>
</g>
</g>
<!-- src/app/entry.tsx&#45;&gt;src/app/providers/router/RouterProvider.tsx -->
<g id="edge2" class="edge">
<title>src/app/entry.tsx&#45;&gt;src/app/providers/router/RouterProvider.tsx</title>
<path fill="none" stroke="#000000" stroke-width="2" stroke-opacity="0.200000" d="M78.35,-60.26C80.93,-60.85 83.51,-61.44 86,-62 88.6,-62.58 91.27,-63.18 93.97,-63.77"/>
<polygon fill="#000000" fill-opacity="0.200000" stroke="#000000" stroke-width="2" stroke-opacity="0.200000" points="93.36,-65.79 99.67,-65.02 94.26,-61.68 93.36,-65.79"/>
</g>
<!-- src/app/providers/layout/BaseLayoutProvider.tsx -->
<g id="node4" class="node">
<title>src/app/providers/layout/BaseLayoutProvider.tsx</title>
<g id="a_node4"><a xlink:href="src/app/providers/layout/BaseLayoutProvider.tsx" xlink:title="BaseLayoutProvider.tsx">
<path fill="#bbfeff" stroke="black" d="M324.58,-83.88C324.58,-83.88 223.67,-83.88 223.67,-83.88 220.71,-83.88 217.75,-80.92 217.75,-77.96 217.75,-77.96 217.75,-72.04 217.75,-72.04 217.75,-69.08 220.71,-66.12 223.67,-66.12 223.67,-66.12 324.58,-66.12 324.58,-66.12 327.54,-66.12 330.5,-69.08 330.5,-72.04 330.5,-72.04 330.5,-77.96 330.5,-77.96 330.5,-80.92 327.54,-83.88 324.58,-83.88"/>
<text text-anchor="start" x="225.75" y="-71.33" font-family="Helvetica,sans-Serif" font-size="9.00">BaseLayoutProvider.tsx</text>
</a>
</g>
</g>
<!-- src/app/providers/router/RouterProvider.tsx&#45;&gt;src/app/providers/layout/BaseLayoutProvider.tsx -->
<g id="edge3" class="edge">
<title>src/app/providers/router/RouterProvider.tsx&#45;&gt;src/app/providers/layout/BaseLayoutProvider.tsx</title>
<path fill="none" stroke="#000000" stroke-width="2" stroke-opacity="0.200000" d="M194.08,-75C198.85,-75 203.77,-75 208.7,-75"/>
<polygon fill="#000000" fill-opacity="0.200000" stroke="#000000" stroke-width="2" stroke-opacity="0.200000" points="208.55,-77.1 214.55,-75 208.55,-72.9 208.55,-77.1"/>
</g>
<!-- src/pages/home/index.ts -->
<g id="node5" class="node">
<title>src/pages/home/index.ts</title>
<g id="a_node5"><a xlink:href="src/pages/home/index.ts" xlink:title="index.ts">
<path fill="#ddfeff" stroke="black" d="M295.21,-207.88C295.21,-207.88 253.04,-207.88 253.04,-207.88 250.08,-207.88 247.12,-204.92 247.12,-201.96 247.12,-201.96 247.12,-196.04 247.12,-196.04 247.12,-193.08 250.08,-190.12 253.04,-190.12 253.04,-190.12 295.21,-190.12 295.21,-190.12 298.17,-190.12 301.12,-193.08 301.12,-196.04 301.12,-196.04 301.12,-201.96 301.12,-201.96 301.12,-204.92 298.17,-207.88 295.21,-207.88"/>
<text text-anchor="start" x="258.38" y="-195.32" font-family="Helvetica,sans-Serif" font-size="9.00">index.ts</text>
</a>
</g>
</g>
<!-- src/app/providers/router/RouterProvider.tsx&#45;&gt;src/pages/home/index.ts -->
<g id="edge4" class="edge">
<title>src/app/providers/router/RouterProvider.tsx&#45;&gt;src/pages/home/index.ts</title>
<path fill="none" stroke="#000000" stroke-width="2" stroke-opacity="0.200000" d="M158.21,-84.32C179.45,-105.52 231.56,-157.52 257.68,-183.58"/>
<polygon fill="#000000" fill-opacity="0.200000" stroke="#000000" stroke-width="2" stroke-opacity="0.200000" points="256.14,-185.02 261.87,-187.77 259.11,-182.05 256.14,-185.02"/>
</g>
<!-- src/pages/profile/index.ts -->
<g id="node6" class="node">
<title>src/pages/profile/index.ts</title>
<g id="a_node6"><a xlink:href="src/pages/profile/index.ts" xlink:title="index.ts">
<path fill="#ddfeff" stroke="black" d="M295.21,-301.88C295.21,-301.88 253.04,-301.88 253.04,-301.88 250.08,-301.88 247.12,-298.92 247.12,-295.96 247.12,-295.96 247.12,-290.04 247.12,-290.04 247.12,-287.08 250.08,-284.12 253.04,-284.12 253.04,-284.12 295.21,-284.12 295.21,-284.12 298.17,-284.12 301.12,-287.08 301.12,-290.04 301.12,-290.04 301.12,-295.96 301.12,-295.96 301.12,-298.92 298.17,-301.88 295.21,-301.88"/>
<text text-anchor="start" x="258.38" y="-289.32" font-family="Helvetica,sans-Serif" font-size="9.00">index.ts</text>
</a>
</g>
</g>
<!-- src/app/providers/router/RouterProvider.tsx&#45;&gt;src/pages/profile/index.ts -->
<g id="edge5" class="edge">
<title>src/app/providers/router/RouterProvider.tsx&#45;&gt;src/pages/profile/index.ts</title>
<path fill="none" stroke="#000000" stroke-width="2" stroke-opacity="0.200000" d="M149.16,-84.36C150.58,-114.77 159.06,-211.95 209.75,-267 217.3,-275.2 227.82,-280.88 238.12,-284.79"/>
<polygon fill="#000000" fill-opacity="0.200000" stroke="#000000" stroke-width="2" stroke-opacity="0.200000" points="237.43,-286.77 243.79,-286.7 238.78,-282.79 237.43,-286.77"/>
</g>
<!-- src/pages/home/ui/Page.tsx -->
<g id="node15" class="node">
<title>src/pages/home/ui/Page.tsx</title>
<g id="a_node15"><a xlink:href="src/pages/home/ui/Page.tsx" xlink:title="Page.tsx">
<path fill="#bbfeff" stroke="black" d="M418.58,-211.88C418.58,-211.88 376.42,-211.88 376.42,-211.88 373.46,-211.88 370.5,-208.92 370.5,-205.96 370.5,-205.96 370.5,-200.04 370.5,-200.04 370.5,-197.08 373.46,-194.12 376.42,-194.12 376.42,-194.12 418.58,-194.12 418.58,-194.12 421.54,-194.12 424.5,-197.08 424.5,-200.04 424.5,-200.04 424.5,-205.96 424.5,-205.96 424.5,-208.92 421.54,-211.88 418.58,-211.88"/>
<text text-anchor="start" x="379.88" y="-199.32" font-family="Helvetica,sans-Serif" font-size="9.00">Page.tsx</text>
</a>
</g>
</g>
<!-- src/pages/home/index.ts&#45;&gt;src/pages/home/ui/Page.tsx -->
<g id="edge15" class="edge">
<title>src/pages/home/index.ts&#45;&gt;src/pages/home/ui/Page.tsx</title>
<path fill="none" stroke="#000000" stroke-width="2" stroke-opacity="0.200000" d="M301.46,-199.87C319.59,-200.47 343.83,-201.26 363.28,-201.91"/>
<polygon fill="#000000" fill-opacity="0.200000" stroke="#000000" stroke-width="2" stroke-opacity="0.200000" points="369.15,-204.2 363.22,-201.9 369.28,-200 369.15,-204.2"/>
</g>
<!-- src/pages/profile/ui/Page.tsx -->
<g id="node18" class="node">
<title>src/pages/profile/ui/Page.tsx</title>
<g id="a_node18"><a xlink:href="src/pages/profile/ui/Page.tsx" xlink:title="Page.tsx">
<path fill="#bbfeff" stroke="black" d="M418.58,-305.88C418.58,-305.88 376.42,-305.88 376.42,-305.88 373.46,-305.88 370.5,-302.92 370.5,-299.96 370.5,-299.96 370.5,-294.04 370.5,-294.04 370.5,-291.08 373.46,-288.12 376.42,-288.12 376.42,-288.12 418.58,-288.12 418.58,-288.12 421.54,-288.12 424.5,-291.08 424.5,-294.04 424.5,-294.04 424.5,-299.96 424.5,-299.96 424.5,-302.92 421.54,-305.88 418.58,-305.88"/>
<text text-anchor="start" x="379.88" y="-293.32" font-family="Helvetica,sans-Serif" font-size="9.00">Page.tsx</text>
</a>
</g>
</g>
<!-- src/pages/profile/index.ts&#45;&gt;src/pages/profile/ui/Page.tsx -->
<g id="edge21" class="edge">
<title>src/pages/profile/index.ts&#45;&gt;src/pages/profile/ui/Page.tsx</title>
<path fill="none" stroke="#000000" stroke-width="2" stroke-opacity="0.200000" d="M301.46,-293.87C319.59,-294.47 343.83,-295.26 363.28,-295.91"/>
<polygon fill="#000000" fill-opacity="0.200000" stroke="#000000" stroke-width="2" stroke-opacity="0.200000" points="369.15,-298.2 363.22,-295.9 369.28,-294 369.15,-298.2"/>
</g>
<!-- src/entities/pokemon/api/queryPokemonById.ts -->
<g id="node7" class="node">
<title>src/entities/pokemon/api/queryPokemonById.ts</title>
<g id="a_node7"><a xlink:href="src/entities/pokemon/api/queryPokemonById.ts" xlink:title="queryPokemonById.ts">
<path fill="#ddfeff" stroke="black" d="M665.83,-207.88C665.83,-207.88 572.42,-207.88 572.42,-207.88 569.46,-207.88 566.5,-204.92 566.5,-201.96 566.5,-201.96 566.5,-196.04 566.5,-196.04 566.5,-193.08 569.46,-190.12 572.42,-190.12 572.42,-190.12 665.83,-190.12 665.83,-190.12 668.79,-190.12 671.75,-193.08 671.75,-196.04 671.75,-196.04 671.75,-201.96 671.75,-201.96 671.75,-204.92 668.79,-207.88 665.83,-207.88"/>
<text text-anchor="start" x="574.5" y="-195.32" font-family="Helvetica,sans-Serif" font-size="9.00">queryPokemonById.ts</text>
</a>
</g>
</g>
<!-- src/entities/pokemon/lib/mapPokemonDto.ts -->
<g id="node8" class="node">
<title>src/entities/pokemon/lib/mapPokemonDto.ts</title>
<g id="a_node8"><a xlink:href="src/entities/pokemon/lib/mapPokemonDto.ts" xlink:title="mapPokemonDto.ts">
<path fill="#ddfeff" stroke="black" d="M786.08,-207.88C786.08,-207.88 701.67,-207.88 701.67,-207.88 698.71,-207.88 695.75,-204.92 695.75,-201.96 695.75,-201.96 695.75,-196.04 695.75,-196.04 695.75,-193.08 698.71,-190.12 701.67,-190.12 701.67,-190.12 786.08,-190.12 786.08,-190.12 789.04,-190.12 792,-193.08 792,-196.04 792,-196.04 792,-201.96 792,-201.96 792,-204.92 789.04,-207.88 786.08,-207.88"/>
<text text-anchor="start" x="703.75" y="-195.32" font-family="Helvetica,sans-Serif" font-size="9.00">mapPokemonDto.ts</text>
</a>
</g>
</g>
<!-- src/entities/pokemon/api/queryPokemonById.ts&#45;&gt;src/entities/pokemon/lib/mapPokemonDto.ts -->
<g id="edge6" class="edge">
<title>src/entities/pokemon/api/queryPokemonById.ts&#45;&gt;src/entities/pokemon/lib/mapPokemonDto.ts</title>
<path fill="none" stroke="#000000" stroke-width="2" stroke-opacity="0.200000" d="M672.18,-199C676.88,-199 681.65,-199 686.39,-199"/>
<polygon fill="#000000" fill-opacity="0.200000" stroke="#000000" stroke-width="2" stroke-opacity="0.200000" points="686.39,-201.1 692.39,-199 686.39,-196.9 686.39,-201.1"/>
</g>
<!-- src/shared/api/index.ts -->
<g id="node9" class="node">
<title>src/shared/api/index.ts</title>
<g id="a_node9"><a xlink:href="src/shared/api/index.ts" xlink:title="index.ts">
<path fill="#ddfeff" stroke="black" d="M882.83,-331.88C882.83,-331.88 840.67,-331.88 840.67,-331.88 837.71,-331.88 834.75,-328.92 834.75,-325.96 834.75,-325.96 834.75,-320.04 834.75,-320.04 834.75,-317.08 837.71,-314.12 840.67,-314.12 840.67,-314.12 882.83,-314.12 882.83,-314.12 885.79,-314.12 888.75,-317.08 888.75,-320.04 888.75,-320.04 888.75,-325.96 888.75,-325.96 888.75,-328.92 885.79,-331.88 882.83,-331.88"/>
<text text-anchor="start" x="846" y="-319.32" font-family="Helvetica,sans-Serif" font-size="9.00">index.ts</text>
</a>
</g>
</g>
<!-- src/entities/pokemon/api/queryPokemonById.ts&#45;&gt;src/shared/api/index.ts -->
<g id="edge7" class="edge">
<title>src/entities/pokemon/api/queryPokemonById.ts&#45;&gt;src/shared/api/index.ts</title>
<path fill="none" stroke="#000000" stroke-width="2" stroke-opacity="0.200000" d="M636.12,-208.29C649.75,-216.13 669.89,-227.55 687.75,-237 738.66,-263.94 799.12,-293.44 833.41,-309.94"/>
<polygon fill="#000000" fill-opacity="0.200000" stroke="#000000" stroke-width="2" stroke-opacity="0.200000" points="832.08,-311.63 838.4,-312.34 833.9,-307.84 832.08,-311.63"/>
</g>
<!-- src/entities/pokemon/lib/mapPokemonDto.ts&#45;&gt;src/shared/api/index.ts -->
<g id="edge12" class="edge">
<title>src/entities/pokemon/lib/mapPokemonDto.ts&#45;&gt;src/shared/api/index.ts</title>
<path fill="none" stroke="#000000" stroke-opacity="0.200000" d="M753.58,-208.32C773.65,-229.79 823.23,-282.85 847.26,-308.57"/>
<polygon fill="none" stroke="#000000" stroke-opacity="0.200000" points="845.59,-309.85 851.22,-312.8 848.66,-306.99 845.59,-309.85"/>
</g>
<!-- src/entities/pokemon/model/types.ts -->
<g id="node14" class="node">
<title>src/entities/pokemon/model/types.ts</title>
<g id="a_node14"><a xlink:href="src/entities/pokemon/model/types.ts" xlink:title="types.ts">
<path fill="#ddfeff" stroke="black" d="M882.83,-87.88C882.83,-87.88 840.67,-87.88 840.67,-87.88 837.71,-87.88 834.75,-84.92 834.75,-81.96 834.75,-81.96 834.75,-76.04 834.75,-76.04 834.75,-73.08 837.71,-70.12 840.67,-70.12 840.67,-70.12 882.83,-70.12 882.83,-70.12 885.79,-70.12 888.75,-73.08 888.75,-76.04 888.75,-76.04 888.75,-81.96 888.75,-81.96 888.75,-84.92 885.79,-87.88 882.83,-87.88"/>
<text text-anchor="start" x="846.38" y="-75.33" font-family="Helvetica,sans-Serif" font-size="9.00">types.ts</text>
</a>
</g>
</g>
<!-- src/entities/pokemon/lib/mapPokemonDto.ts&#45;&gt;src/entities/pokemon/model/types.ts -->
<g id="edge11" class="edge">
<title>src/entities/pokemon/lib/mapPokemonDto.ts&#45;&gt;src/entities/pokemon/model/types.ts</title>
<path fill="none" stroke="#000000" stroke-opacity="0.200000" d="M783.41,-189.76C789.77,-186.66 795.68,-182.52 800,-177 816.04,-156.51 794.86,-141.46 808,-119 814.54,-107.83 825.53,-98.74 835.8,-92.07"/>
<polygon fill="none" stroke="#000000" stroke-opacity="0.200000" points="836.75,-93.96 840.76,-89.03 834.55,-90.38 836.75,-93.96"/>
</g>
<!-- src/shared/api/pokemon/fetchPokemonApi.ts -->
<g id="node19" class="node">
<title>src/shared/api/pokemon/fetchPokemonApi.ts</title>
<g id="a_node19"><a xlink:href="src/shared/api/pokemon/fetchPokemonApi.ts" xlink:title="fetchPokemonApi.ts">
<path fill="#ddfeff" stroke="black" d="M1046.58,-335.88C1046.58,-335.88 961.42,-335.88 961.42,-335.88 958.46,-335.88 955.5,-332.92 955.5,-329.96 955.5,-329.96 955.5,-324.04 955.5,-324.04 955.5,-321.08 958.46,-318.12 961.42,-318.12 961.42,-318.12 1046.58,-318.12 1046.58,-318.12 1049.54,-318.12 1052.5,-321.08 1052.5,-324.04 1052.5,-324.04 1052.5,-329.96 1052.5,-329.96 1052.5,-332.92 1049.54,-335.88 1046.58,-335.88"/>
<text text-anchor="start" x="963.5" y="-323.32" font-family="Helvetica,sans-Serif" font-size="9.00">fetchPokemonApi.ts</text>
</a>
</g>
</g>
<!-- src/shared/api/index.ts&#45;&gt;src/shared/api/pokemon/fetchPokemonApi.ts -->
<g id="edge22" class="edge">
<title>src/shared/api/index.ts&#45;&gt;src/shared/api/pokemon/fetchPokemonApi.ts</title>
<path fill="none" stroke="#000000" stroke-width="2" stroke-opacity="0.200000" d="M889.13,-323.75C905.74,-324.23 927.8,-324.86 948.08,-325.43"/>
<polygon fill="#000000" fill-opacity="0.200000" stroke="#000000" stroke-width="2" stroke-opacity="0.200000" points="954.11,-327.71 948.17,-325.44 954.23,-323.51 954.11,-327.71"/>
</g>
<!-- src/shared/api/pokemon/types.ts -->
<g id="node20" class="node">
<title>src/shared/api/pokemon/types.ts</title>
<g id="a_node20"><a xlink:href="src/shared/api/pokemon/types.ts" xlink:title="types.ts">
<path fill="#ddfeff" stroke="black" d="M1025.08,-365.88C1025.08,-365.88 982.92,-365.88 982.92,-365.88 979.96,-365.88 977,-362.92 977,-359.96 977,-359.96 977,-354.04 977,-354.04 977,-351.08 979.96,-348.12 982.92,-348.12 982.92,-348.12 1025.08,-348.12 1025.08,-348.12 1028.04,-348.12 1031,-351.08 1031,-354.04 1031,-354.04 1031,-359.96 1031,-359.96 1031,-362.92 1028.04,-365.88 1025.08,-365.88"/>
<text text-anchor="start" x="988.62" y="-353.32" font-family="Helvetica,sans-Serif" font-size="9.00">types.ts</text>
</a>
</g>
</g>
<!-- src/shared/api/index.ts&#45;&gt;src/shared/api/pokemon/types.ts -->
<g id="edge23" class="edge">
<title>src/shared/api/index.ts&#45;&gt;src/shared/api/pokemon/types.ts</title>
<path fill="none" stroke="#000000" stroke-opacity="0.200000" d="M889.13,-329.4C911.95,-334.93 945.07,-342.96 969.71,-348.93"/>
<polygon fill="none" stroke="#000000" stroke-opacity="0.200000" points="968.94,-350.9 975.27,-350.28 969.93,-346.82 968.94,-350.9"/>
</g>
<!-- src/entities/pokemon/index.ts -->
<g id="node10" class="node">
<title>src/entities/pokemon/index.ts</title>
<g id="a_node10"><a xlink:href="src/entities/pokemon/index.ts" xlink:title="index.ts">
<path fill="#ddfeff" stroke="black" d="M640.21,-169.88C640.21,-169.88 598.04,-169.88 598.04,-169.88 595.08,-169.88 592.12,-166.92 592.12,-163.96 592.12,-163.96 592.12,-158.04 592.12,-158.04 592.12,-155.08 595.08,-152.12 598.04,-152.12 598.04,-152.12 640.21,-152.12 640.21,-152.12 643.17,-152.12 646.12,-155.08 646.12,-158.04 646.12,-158.04 646.12,-163.96 646.12,-163.96 646.12,-166.92 643.17,-169.88 640.21,-169.88"/>
<text text-anchor="start" x="603.38" y="-157.32" font-family="Helvetica,sans-Serif" font-size="9.00">index.ts</text>
</a>
</g>
</g>
<!-- src/entities/pokemon/model/consts.ts -->
<g id="node11" class="node">
<title>src/entities/pokemon/model/consts.ts</title>
<g id="a_node11"><a xlink:href="src/entities/pokemon/model/consts.ts" xlink:title="consts.ts">
<path fill="#ddfeff" stroke="black" d="M882.83,-57.88C882.83,-57.88 840.67,-57.88 840.67,-57.88 837.71,-57.88 834.75,-54.92 834.75,-51.96 834.75,-51.96 834.75,-46.04 834.75,-46.04 834.75,-43.08 837.71,-40.12 840.67,-40.12 840.67,-40.12 882.83,-40.12 882.83,-40.12 885.79,-40.12 888.75,-43.08 888.75,-46.04 888.75,-46.04 888.75,-51.96 888.75,-51.96 888.75,-54.92 885.79,-57.88 882.83,-57.88"/>
<text text-anchor="start" x="844.12" y="-45.33" font-family="Helvetica,sans-Serif" font-size="9.00">consts.ts</text>
</a>
</g>
</g>
<!-- src/entities/pokemon/index.ts&#45;&gt;src/entities/pokemon/model/consts.ts -->
<g id="edge8" class="edge">
<title>src/entities/pokemon/index.ts&#45;&gt;src/entities/pokemon/model/consts.ts</title>
<path fill="none" stroke="#000000" stroke-width="2" stroke-opacity="0.200000" d="M633.81,-151.79C647.26,-142.9 668.51,-129.32 687.75,-119 739.54,-91.22 752.85,-84.32 808,-64 814.37,-61.65 821.27,-59.45 827.93,-57.5"/>
<polygon fill="#000000" fill-opacity="0.200000" stroke="#000000" stroke-width="2" stroke-opacity="0.200000" points="834.09,-57.92 827.74,-57.55 832.93,-53.88 834.09,-57.92"/>
</g>
<!-- src/entities/pokemon/ui/PokemonCard.tsx -->
<g id="node12" class="node">
<title>src/entities/pokemon/ui/PokemonCard.tsx</title>
<g id="a_node12"><a xlink:href="src/entities/pokemon/ui/PokemonCard.tsx" xlink:title="PokemonCard.tsx">
<path fill="#bbfeff" stroke="black" d="M782.33,-147.88C782.33,-147.88 705.42,-147.88 705.42,-147.88 702.46,-147.88 699.5,-144.92 699.5,-141.96 699.5,-141.96 699.5,-136.04 699.5,-136.04 699.5,-133.08 702.46,-130.12 705.42,-130.12 705.42,-130.12 782.33,-130.12 782.33,-130.12 785.29,-130.12 788.25,-133.08 788.25,-136.04 788.25,-136.04 788.25,-141.96 788.25,-141.96 788.25,-144.92 785.29,-147.88 782.33,-147.88"/>
<text text-anchor="start" x="707.5" y="-135.32" font-family="Helvetica,sans-Serif" font-size="9.00">PokemonCard.tsx</text>
</a>
</g>
</g>
<!-- src/entities/pokemon/index.ts&#45;&gt;src/entities/pokemon/ui/PokemonCard.tsx -->
<g id="edge9" class="edge">
<title>src/entities/pokemon/index.ts&#45;&gt;src/entities/pokemon/ui/PokemonCard.tsx</title>
<path fill="none" stroke="#000000" stroke-width="2" stroke-opacity="0.200000" d="M646.46,-156.28C659.9,-153.87 676.7,-150.86 692.5,-148.03"/>
<polygon fill="#000000" fill-opacity="0.200000" stroke="#000000" stroke-width="2" stroke-opacity="0.200000" points="698.59,-149.07 692.31,-148.06 697.85,-144.94 698.59,-149.07"/>
</g>
<!-- src/entities/pokemon/ui/PokemonCardStub.tsx -->
<g id="node13" class="node">
<title>src/entities/pokemon/ui/PokemonCardStub.tsx</title>
<g id="a_node13"><a xlink:href="src/entities/pokemon/ui/PokemonCardStub.tsx" xlink:title="PokemonCardStub.tsx">
<path fill="#bbfeff" stroke="black" d="M909.58,-147.88C909.58,-147.88 813.92,-147.88 813.92,-147.88 810.96,-147.88 808,-144.92 808,-141.96 808,-141.96 808,-136.04 808,-136.04 808,-133.08 810.96,-130.12 813.92,-130.12 813.92,-130.12 909.58,-130.12 909.58,-130.12 912.54,-130.12 915.5,-133.08 915.5,-136.04 915.5,-136.04 915.5,-141.96 915.5,-141.96 915.5,-144.92 912.54,-147.88 909.58,-147.88"/>
<text text-anchor="start" x="816" y="-135.32" font-family="Helvetica,sans-Serif" font-size="9.00">PokemonCardStub.tsx</text>
</a>
</g>
</g>
<!-- src/entities/pokemon/index.ts&#45;&gt;src/entities/pokemon/ui/PokemonCardStub.tsx -->
<g id="edge10" class="edge">
<title>src/entities/pokemon/index.ts&#45;&gt;src/entities/pokemon/ui/PokemonCardStub.tsx</title>
<path fill="none" stroke="#000000" stroke-width="2" stroke-opacity="0.200000" d="M646.49,-161.64C681.68,-162.12 745.85,-161.66 800,-154 806.94,-153.02 814.24,-151.58 821.27,-149.98"/>
<polygon fill="#000000" fill-opacity="0.200000" stroke="#000000" stroke-width="2" stroke-opacity="0.200000" points="827.71,-150.6 821.39,-149.95 826.74,-146.52 827.71,-150.6"/>
</g>
<!-- src/entities/pokemon/ui/PokemonCard.tsx&#45;&gt;src/entities/pokemon/ui/PokemonCardStub.tsx -->
<g id="edge14" class="edge">
<title>src/entities/pokemon/ui/PokemonCard.tsx&#45;&gt;src/entities/pokemon/ui/PokemonCardStub.tsx</title>
<path fill="none" stroke="#000000" stroke-width="2" stroke-opacity="0.200000" d="M788.68,-139C791.95,-139 795.28,-139 798.63,-139"/>
<polygon fill="#000000" fill-opacity="0.200000" stroke="#000000" stroke-width="2" stroke-opacity="0.200000" points="798.49,-141.1 804.49,-139 798.49,-136.9 798.49,-141.1"/>
</g>
<!-- src/entities/pokemon/ui/PokemonCard.tsx&#45;&gt;src/entities/pokemon/model/types.ts -->
<g id="edge13" class="edge">
<title>src/entities/pokemon/ui/PokemonCard.tsx&#45;&gt;src/entities/pokemon/model/types.ts</title>
<path fill="none" stroke="#000000" stroke-width="2" stroke-opacity="0.200000" d="M788.63,-130.8C792.56,-129.43 796.42,-127.84 800,-126 804.2,-123.84 804.34,-121.98 808,-119 818.65,-110.32 830.85,-101.03 840.84,-93.58"/>
<polygon fill="#000000" fill-opacity="0.200000" stroke="#000000" stroke-width="2" stroke-opacity="0.200000" points="841.98,-95.35 845.55,-90.09 839.48,-91.98 841.98,-95.35"/>
</g>
<!-- src/pages/home/ui/Page.tsx&#45;&gt;src/entities/pokemon/index.ts -->
<g id="edge19" class="edge">
<title>src/pages/home/ui/Page.tsx&#45;&gt;src/entities/pokemon/index.ts</title>
<path fill="none" stroke="#000000" stroke-width="2" stroke-opacity="0.200000" d="M407,-212.33C416.19,-221.64 431.76,-235.36 448.5,-241 484.72,-253.2 505.8,-266.24 534.5,-241 555.37,-222.65 523.92,-199.65 542.5,-179 552.67,-167.7 568.53,-162.86 583.1,-160.98"/>
<polygon fill="#000000" fill-opacity="0.200000" stroke="#000000" stroke-width="2" stroke-opacity="0.200000" points="583.15,-163.09 588.93,-160.44 582.76,-158.9 583.15,-163.09"/>
</g>
<!-- src/pages/home/model/store.ts -->
<g id="node16" class="node">
<title>src/pages/home/model/store.ts</title>
<g id="a_node16"><a xlink:href="src/pages/home/model/store.ts" xlink:title="store.ts">
<path fill="#ddfeff" stroke="black" d="M504.58,-211.88C504.58,-211.88 462.42,-211.88 462.42,-211.88 459.46,-211.88 456.5,-208.92 456.5,-205.96 456.5,-205.96 456.5,-200.04 456.5,-200.04 456.5,-197.08 459.46,-194.12 462.42,-194.12 462.42,-194.12 504.58,-194.12 504.58,-194.12 507.54,-194.12 510.5,-197.08 510.5,-200.04 510.5,-200.04 510.5,-205.96 510.5,-205.96 510.5,-208.92 507.54,-211.88 504.58,-211.88"/>
<text text-anchor="start" x="468.88" y="-199.32" font-family="Helvetica,sans-Serif" font-size="9.00">store.ts</text>
</a>
</g>
</g>
<!-- src/pages/home/ui/Page.tsx&#45;&gt;src/pages/home/model/store.ts -->
<g id="edge18" class="edge">
<title>src/pages/home/ui/Page.tsx&#45;&gt;src/pages/home/model/store.ts</title>
<path fill="none" stroke="#000000" stroke-width="2" stroke-opacity="0.200000" d="M424.62,-203C431.82,-203 439.75,-203 447.37,-203"/>
<polygon fill="#000000" fill-opacity="0.200000" stroke="#000000" stroke-width="2" stroke-opacity="0.200000" points="447.08,-205.1 453.08,-203 447.08,-200.9 447.08,-205.1"/>
</g>
<!-- src/shared/ui/Input.tsx -->
<g id="node17" class="node">
<title>src/shared/ui/Input.tsx</title>
<g id="a_node17"><a xlink:href="src/shared/ui/Input.tsx" xlink:title="Input.tsx">
<path fill="#bbfeff" stroke="black" d="M882.83,-511.88C882.83,-511.88 840.67,-511.88 840.67,-511.88 837.71,-511.88 834.75,-508.92 834.75,-505.96 834.75,-505.96 834.75,-500.04 834.75,-500.04 834.75,-497.08 837.71,-494.12 840.67,-494.12 840.67,-494.12 882.83,-494.12 882.83,-494.12 885.79,-494.12 888.75,-497.08 888.75,-500.04 888.75,-500.04 888.75,-505.96 888.75,-505.96 888.75,-508.92 885.79,-511.88 882.83,-511.88"/>
<text text-anchor="start" x="844.88" y="-499.32" font-family="Helvetica,sans-Serif" font-size="9.00">Input.tsx</text>
</a>
</g>
</g>
<!-- src/pages/home/ui/Page.tsx&#45;&gt;src/shared/ui/Input.tsx -->
<g id="edge20" class="edge">
<title>src/pages/home/ui/Page.tsx&#45;&gt;src/shared/ui/Input.tsx</title>
<path fill="none" stroke="#000000" stroke-width="2" stroke-opacity="0.200000" d="M406.84,-212.26C416.37,-222.57 432.7,-239.45 448.5,-252 596.84,-369.82 640.07,-393.33 808,-481 814.25,-484.26 821.09,-487.41 827.71,-490.25"/>
<polygon fill="#000000" fill-opacity="0.200000" stroke="#000000" stroke-width="2" stroke-opacity="0.200000" points="826.78,-492.14 833.13,-492.51 828.4,-488.26 826.78,-492.14"/>
</g>
<!-- src/pages/home/model/store.ts&#45;&gt;src/entities/pokemon/api/queryPokemonById.ts -->
<g id="edge17" class="edge">
<title>src/pages/home/model/store.ts&#45;&gt;src/entities/pokemon/api/queryPokemonById.ts</title>
<path fill="none" stroke="#000000" stroke-width="2" stroke-opacity="0.200000" d="M510.9,-202.21C524.18,-201.81 540.88,-201.31 557.12,-200.83"/>
<polygon fill="#000000" fill-opacity="0.200000" stroke="#000000" stroke-width="2" stroke-opacity="0.200000" points="557.11,-202.93 563.04,-200.65 556.98,-198.73 557.11,-202.93"/>
</g>
<!-- src/pages/home/model/store.ts&#45;&gt;src/entities/pokemon/index.ts -->
<g id="edge16" class="edge">
<title>src/pages/home/model/store.ts&#45;&gt;src/entities/pokemon/index.ts</title>
<path fill="none" stroke="#000000" stroke-width="2" stroke-opacity="0.200000" d="M504.87,-193.64C515.86,-188.83 529.75,-183.13 542.5,-179 555.65,-174.75 570.37,-171.02 583.31,-168.07"/>
<polygon fill="#000000" fill-opacity="0.200000" stroke="#000000" stroke-width="2" stroke-opacity="0.200000" points="583.58,-170.16 588.99,-166.81 582.68,-166.06 583.58,-170.16"/>
</g>
<!-- src/shared/lib/app.d.ts -->
<g id="node21" class="node">
<title>src/shared/lib/app.d.ts</title>
<g id="a_node21"><a xlink:href="src/shared/lib/app.d.ts" xlink:title="app.d.ts">
<path fill="#ccffcc" stroke="black" d="M882.83,-451.88C882.83,-451.88 840.67,-451.88 840.67,-451.88 837.71,-451.88 834.75,-448.92 834.75,-445.96 834.75,-445.96 834.75,-440.04 834.75,-440.04 834.75,-437.08 837.71,-434.12 840.67,-434.12 840.67,-434.12 882.83,-434.12 882.83,-434.12 885.79,-434.12 888.75,-437.08 888.75,-440.04 888.75,-440.04 888.75,-445.96 888.75,-445.96 888.75,-448.92 885.79,-451.88 882.83,-451.88"/>
<text text-anchor="start" x="845.62" y="-439.32" font-family="Helvetica,sans-Serif" font-size="9.00">app.d.ts</text>
</a>
</g>
</g>
</g>
</svg>
