<?xml version="1.0" encoding="UTF-8" standalone="no"?>
<!DOCTYPE svg PUBLIC "-//W3C//DTD SVG 1.1//EN"
 "http://www.w3.org/Graphics/SVG/1.1/DTD/svg11.dtd">
<!-- Generated by graphviz version 12.0.0 (20240704.0754)
 -->
<!-- Title: dependency&#45;cruiser output Pages: 1 -->
<svg width="1106pt" height="606pt"
 viewBox="0.00 0.00 1105.88 606.00" xmlns="http://www.w3.org/2000/svg" xmlns:xlink="http://www.w3.org/1999/xlink">
<g id="graph0" class="graph" transform="scale(1 1) rotate(0) translate(4 602)">
<title>dependency&#45;cruiser output</title>
<polygon fill="white" stroke="none" points="-4,4 -4,-602 1101.88,-602 1101.88,4 -4,4"/>
<g id="clust1" class="cluster">
<title>cluster_src</title>
<path fill="#ffffff" stroke="black" stroke-width="2" d="M20,-8C20,-8 1077.88,-8 1077.88,-8 1083.88,-8 1089.88,-14 1089.88,-20 1089.88,-20 1089.88,-578 1089.88,-578 1089.88,-584 1083.88,-590 1077.88,-590 1077.88,-590 20,-590 20,-590 14,-590 8,-584 8,-578 8,-578 8,-20 8,-20 8,-14 14,-8 20,-8"/>
<text text-anchor="middle" x="548.94" y="-577.45" font-family="Helvetica,sans-Serif" font-weight="bold" font-size="9.00">src</text>
</g>
<g id="clust2" class="cluster">
<title>cluster_src/app</title>
<path fill="#ffffff" stroke="black" stroke-width="2" d="M28,-16C28,-16 347.88,-16 347.88,-16 353.88,-16 359.88,-22 359.88,-28 359.88,-28 359.88,-150 359.88,-150 359.88,-156 353.88,-162 347.88,-162 347.88,-162 28,-162 28,-162 22,-162 16,-156 16,-150 16,-150 16,-28 16,-28 16,-22 22,-16 28,-16"/>
<text text-anchor="middle" x="187.94" y="-149.45" font-family="Helvetica,sans-Serif" font-weight="bold" font-size="9.00">app</text>
</g>
<g id="clust3" class="cluster">
<title>cluster_src/app/providers</title>
<path fill="#ffffff" stroke="black" stroke-width="2" d="M103.38,-50C103.38,-50 339.88,-50 339.88,-50 345.88,-50 351.88,-56 351.88,-62 351.88,-62 351.88,-124 351.88,-124 351.88,-130 345.88,-136 339.88,-136 339.88,-136 103.37,-136 103.37,-136 97.38,-136 91.38,-130 91.38,-124 91.38,-124 91.38,-62 91.38,-62 91.38,-56 97.38,-50 103.38,-50"/>
<text text-anchor="middle" x="221.62" y="-123.45" font-family="Helvetica,sans-Serif" font-weight="bold" font-size="9.00">providers</text>
</g>
<g id="clust4" class="cluster">
<title>cluster_src/app/providers/layout</title>
<path fill="#ffffff" stroke="black" stroke-width="2" d="M227.12,-58C227.12,-58 331.88,-58 331.88,-58 337.88,-58 343.88,-64 343.88,-70 343.88,-70 343.88,-98 343.88,-98 343.88,-104 337.88,-110 331.88,-110 331.88,-110 227.12,-110 227.12,-110 221.12,-110 215.12,-104 215.12,-98 215.12,-98 215.12,-70 215.12,-70 215.12,-64 221.12,-58 227.12,-58"/>
<text text-anchor="middle" x="279.5" y="-97.45" font-family="Helvetica,sans-Serif" font-weight="bold" font-size="9.00">layout</text>
</g>
<g id="clust5" class="cluster">
<title>cluster_src/app/providers/router</title>
<path fill="#ffffff" stroke="black" stroke-width="2" d="M111.38,-58C111.38,-58 195.12,-58 195.12,-58 201.12,-58 207.12,-64 207.12,-70 207.12,-70 207.12,-98 207.12,-98 207.12,-104 201.12,-110 195.12,-110 195.12,-110 111.38,-110 111.38,-110 105.38,-110 99.38,-104 99.38,-98 99.38,-98 99.38,-70 99.38,-70 99.38,-64 105.38,-58 111.38,-58"/>
<text text-anchor="middle" x="153.25" y="-97.45" font-family="Helvetica,sans-Serif" font-weight="bold" font-size="9.00">router</text>
</g>
<g id="clust6" class="cluster">
<title>cluster_src/entities</title>
<path fill="#ffffff" stroke="black" stroke-width="2" d="M559.88,-16C559.88,-16 932.88,-16 932.88,-16 938.88,-16 944.88,-22 944.88,-28 944.88,-28 944.88,-274 944.88,-274 944.88,-280 938.88,-286 932.88,-286 932.88,-286 559.88,-286 559.88,-286 553.88,-286 547.88,-280 547.88,-274 547.88,-274 547.88,-28 547.88,-28 547.88,-22 553.88,-16 559.88,-16"/>
<text text-anchor="middle" x="746.38" y="-273.45" font-family="Helvetica,sans-Serif" font-weight="bold" font-size="9.00">entities</text>
</g>
<g id="clust7" class="cluster">
<title>cluster_src/entities/pokemon</title>
<path fill="#ffffff" stroke="black" stroke-width="2" d="M567.88,-24C567.88,-24 924.88,-24 924.88,-24 930.88,-24 936.88,-30 936.88,-36 936.88,-36 936.88,-248 936.88,-248 936.88,-254 930.88,-260 924.88,-260 924.88,-260 567.88,-260 567.88,-260 561.88,-260 555.88,-254 555.88,-248 555.88,-248 555.88,-36 555.88,-36 555.88,-30 561.88,-24 567.88,-24"/>
<text text-anchor="middle" x="746.38" y="-247.45" font-family="Helvetica,sans-Serif" font-weight="bold" font-size="9.00">pokemon</text>
</g>
<g id="clust8" class="cluster">
<title>cluster_src/entities/pokemon/api</title>
<path fill="#ffffff" stroke="black" stroke-width="2" d="M575.88,-182C575.88,-182 673.12,-182 673.12,-182 679.12,-182 685.12,-188 685.12,-194 685.12,-194 685.12,-222 685.12,-222 685.12,-228 679.12,-234 673.12,-234 673.12,-234 575.88,-234 575.88,-234 569.88,-234 563.88,-228 563.88,-222 563.88,-222 563.88,-194 563.88,-194 563.88,-188 569.88,-182 575.88,-182"/>
<text text-anchor="middle" x="624.5" y="-221.45" font-family="Helvetica,sans-Serif" font-weight="bold" font-size="9.00">api</text>
</g>
<g id="clust9" class="cluster">
<title>cluster_src/entities/pokemon/lib</title>
<path fill="#ffffff" stroke="black" stroke-width="2" d="M705.12,-182C705.12,-182 793.38,-182 793.38,-182 799.38,-182 805.38,-188 805.38,-194 805.38,-194 805.38,-222 805.38,-222 805.38,-228 799.38,-234 793.38,-234 793.38,-234 705.12,-234 705.12,-234 699.12,-234 693.12,-228 693.12,-222 693.12,-222 693.12,-194 693.12,-194 693.12,-188 699.12,-182 705.12,-182"/>
<text text-anchor="middle" x="749.25" y="-221.45" font-family="Helvetica,sans-Serif" font-weight="bold" font-size="9.00">lib</text>
</g>
<g id="clust10" class="cluster">
<title>cluster_src/entities/pokemon/model</title>
<path fill="#ffffff" stroke="black" stroke-width="2" d="M844.12,-32C844.12,-32 890.12,-32 890.12,-32 896.12,-32 902.12,-38 902.12,-44 902.12,-44 902.12,-102 902.12,-102 902.12,-108 896.12,-114 890.12,-114 890.12,-114 844.12,-114 844.12,-114 838.12,-114 832.12,-108 832.12,-102 832.12,-102 832.12,-44 832.12,-44 832.12,-38 838.12,-32 844.12,-32"/>
<text text-anchor="middle" x="867.12" y="-101.45" font-family="Helvetica,sans-Serif" font-weight="bold" font-size="9.00">model</text>
</g>
<g id="clust11" class="cluster">
<title>cluster_src/entities/pokemon/ui</title>
<path fill="#ffffff" stroke="black" stroke-width="2" d="M708.88,-122C708.88,-122 916.88,-122 916.88,-122 922.88,-122 928.88,-128 928.88,-134 928.88,-134 928.88,-162 928.88,-162 928.88,-168 922.88,-174 916.88,-174 916.88,-174 708.88,-174 708.88,-174 702.88,-174 696.88,-168 696.88,-162 696.88,-162 696.88,-134 696.88,-134 696.88,-128 702.88,-122 708.88,-122"/>
<text text-anchor="middle" x="812.88" y="-161.45" font-family="Helvetica,sans-Serif" font-weight="bold" font-size="9.00">ui</text>
</g>
<g id="clust12" class="cluster">
<title>cluster_src/pages</title>
<path fill="#ffffff" stroke="black" stroke-width="2" d="M248.5,-170C248.5,-170 527.88,-170 527.88,-170 533.88,-170 539.88,-176 539.88,-182 539.88,-182 539.88,-372 539.88,-372 539.88,-378 533.88,-384 527.88,-384 527.88,-384 248.5,-384 248.5,-384 242.5,-384 236.5,-378 236.5,-372 236.5,-372 236.5,-182 236.5,-182 236.5,-176 242.5,-170 248.5,-170"/>
<text text-anchor="middle" x="388.19" y="-371.45" font-family="Helvetica,sans-Serif" font-weight="bold" font-size="9.00">pages</text>
</g>
<g id="clust13" class="cluster">
<title>cluster_src/pages/home</title>
<path fill="#ffffff" stroke="black" stroke-width="2" d="M256.5,-178C256.5,-178 519.88,-178 519.88,-178 525.88,-178 531.88,-184 531.88,-190 531.88,-190 531.88,-252 531.88,-252 531.88,-258 525.88,-264 519.88,-264 519.88,-264 256.5,-264 256.5,-264 250.5,-264 244.5,-258 244.5,-252 244.5,-252 244.5,-190 244.5,-190 244.5,-184 250.5,-178 256.5,-178"/>
<text text-anchor="middle" x="388.19" y="-251.45" font-family="Helvetica,sans-Serif" font-weight="bold" font-size="9.00">home</text>
</g>
<g id="clust14" class="cluster">
<title>cluster_src/pages/home/model</title>
<path fill="#ffffff" stroke="black" stroke-width="2" d="M465.88,-186C465.88,-186 511.88,-186 511.88,-186 517.88,-186 523.88,-192 523.88,-198 523.88,-198 523.88,-226 523.88,-226 523.88,-232 517.88,-238 511.88,-238 511.88,-238 465.88,-238 465.88,-238 459.88,-238 453.88,-232 453.88,-226 453.88,-226 453.88,-198 453.88,-198 453.88,-192 459.88,-186 465.88,-186"/>
<text text-anchor="middle" x="488.88" y="-225.45" font-family="Helvetica,sans-Serif" font-weight="bold" font-size="9.00">model</text>
</g>
<g id="clust15" class="cluster">
<title>cluster_src/pages/home/ui</title>
<path fill="#ffffff" stroke="black" stroke-width="2" d="M379.88,-186C379.88,-186 425.88,-186 425.88,-186 431.88,-186 437.88,-192 437.88,-198 437.88,-198 437.88,-226 437.88,-226 437.88,-232 431.88,-238 425.88,-238 425.88,-238 379.88,-238 379.88,-238 373.88,-238 367.88,-232 367.88,-226 367.88,-226 367.88,-198 367.88,-198 367.88,-192 373.88,-186 379.88,-186"/>
<text text-anchor="middle" x="402.88" y="-225.45" font-family="Helvetica,sans-Serif" font-weight="bold" font-size="9.00">ui</text>
</g>
<g id="clust16" class="cluster">
<title>cluster_src/pages/profile</title>
<path fill="#ffffff" stroke="black" stroke-width="2" d="M256.5,-272C256.5,-272 433.88,-272 433.88,-272 439.88,-272 445.88,-278 445.88,-284 445.88,-284 445.88,-346 445.88,-346 445.88,-352 439.88,-358 433.88,-358 433.88,-358 256.5,-358 256.5,-358 250.5,-358 244.5,-352 244.5,-346 244.5,-346 244.5,-284 244.5,-284 244.5,-278 250.5,-272 256.5,-272"/>
<text text-anchor="middle" x="345.19" y="-345.45" font-family="Helvetica,sans-Serif" font-weight="bold" font-size="9.00">profile</text>
</g>
<g id="clust17" class="cluster">
<title>cluster_src/pages/profile/ui</title>
<path fill="#ffffff" stroke="black" stroke-width="2" d="M379.88,-280C379.88,-280 425.88,-280 425.88,-280 431.88,-280 437.88,-286 437.88,-292 437.88,-292 437.88,-320 437.88,-320 437.88,-326 431.88,-332 425.88,-332 425.88,-332 379.88,-332 379.88,-332 373.88,-332 367.88,-326 367.88,-320 367.88,-320 367.88,-292 367.88,-292 367.88,-286 373.88,-280 379.88,-280"/>
<text text-anchor="middle" x="402.88" y="-319.45" font-family="Helvetica,sans-Serif" font-weight="bold" font-size="9.00">ui</text>
</g>
<g id="clust18" class="cluster">
<title>cluster_src/shared</title>
<path fill="#ffffff" stroke="black" stroke-width="2" d="M836.12,-294C836.12,-294 1069.88,-294 1069.88,-294 1075.88,-294 1081.88,-300 1081.88,-306 1081.88,-306 1081.88,-552 1081.88,-552 1081.88,-558 1075.88,-564 1069.88,-564 1069.88,-564 836.12,-564 836.12,-564 830.12,-564 824.12,-558 824.12,-552 824.12,-552 824.12,-306 824.12,-306 824.12,-300 830.12,-294 836.12,-294"/>
<text text-anchor="middle" x="953" y="-551.45" font-family="Helvetica,sans-Serif" font-weight="bold" font-size="9.00">shared</text>
</g>
<g id="clust19" class="cluster">
<title>cluster_src/shared/api</title>
<path fill="#ffffff" stroke="black" stroke-width="2" d="M844.12,-302C844.12,-302 1061.88,-302 1061.88,-302 1067.88,-302 1073.88,-308 1073.88,-314 1073.88,-314 1073.88,-406 1073.88,-406 1073.88,-412 1067.88,-418 1061.88,-418 1061.88,-418 844.12,-418 844.12,-418 838.12,-418 832.12,-412 832.12,-406 832.12,-406 832.12,-314 832.12,-314 832.12,-308 838.12,-302 844.12,-302"/>
<text text-anchor="middle" x="953" y="-405.45" font-family="Helvetica,sans-Serif" font-weight="bold" font-size="9.00">api</text>
</g>
<g id="clust20" class="cluster">
<title>cluster_src/shared/api/pokemon</title>
<path fill="#ffffff" stroke="black" stroke-width="2" d="M964.88,-310C964.88,-310 1053.88,-310 1053.88,-310 1059.88,-310 1065.88,-316 1065.88,-322 1065.88,-322 1065.88,-380 1065.88,-380 1065.88,-386 1059.88,-392 1053.88,-392 1053.88,-392 964.88,-392 964.88,-392 958.88,-392 952.88,-386 952.88,-380 952.88,-380 952.88,-322 952.88,-322 952.88,-316 958.88,-310 964.88,-310"/>
<text text-anchor="middle" x="1009.38" y="-379.45" font-family="Helvetica,sans-Serif" font-weight="bold" font-size="9.00">pokemon</text>
</g>
<g id="clust21" class="cluster">
<title>cluster_src/shared/lib</title>
<path fill="#ffffff" stroke="black" stroke-width="2" d="M844.12,-426C844.12,-426 890.12,-426 890.12,-426 896.12,-426 902.12,-432 902.12,-438 902.12,-438 902.12,-466 902.12,-466 902.12,-472 896.12,-478 890.12,-478 890.12,-478 844.12,-478 844.12,-478 838.12,-478 832.12,-472 832.12,-466 832.12,-466 832.12,-438 832.12,-438 832.12,-432 838.12,-426 844.12,-426"/>
<text text-anchor="middle" x="867.12" y="-465.45" font-family="Helvetica,sans-Serif" font-weight="bold" font-size="9.00">lib</text>
</g>
<g id="clust22" class="cluster">
<title>cluster_src/shared/ui</title>
<path fill="#ffffff" stroke="black" stroke-width="2" d="M844.12,-486C844.12,-486 890.12,-486 890.12,-486 896.12,-486 902.12,-492 902.12,-498 902.12,-498 902.12,-526 902.12,-526 902.12,-532 896.12,-538 890.12,-538 890.12,-538 844.12,-538 844.12,-538 838.12,-538 832.12,-532 832.12,-526 832.12,-526 832.12,-498 832.12,-498 832.12,-492 838.12,-486 844.12,-486"/>
<text text-anchor="middle" x="867.12" y="-525.45" font-family="Helvetica,sans-Serif" font-weight="bold" font-size="9.00">ui</text>
</g>
<!-- src/app/entry.css -->
<g id="node1" class="node">
<title>src/app/entry.css</title>
<g id="a_node1"><a xlink:href="src/app/entry.css" xlink:title="entry.css">
<path fill="#ffffcc" stroke="black" d="M174.33,-41.88C174.33,-41.88 132.17,-41.88 132.17,-41.88 129.21,-41.88 126.25,-38.92 126.25,-35.96 126.25,-35.96 126.25,-30.04 126.25,-30.04 126.25,-27.08 129.21,-24.12 132.17,-24.12 132.17,-24.12 174.33,-24.12 174.33,-24.12 177.29,-24.12 180.25,-27.08 180.25,-30.04 180.25,-30.04 180.25,-35.96 180.25,-35.96 180.25,-38.92 177.29,-41.88 174.33,-41.88"/>
<text text-anchor="start" x="135.25" y="-29.32" font-family="Helvetica,sans-Serif" font-size="9.00">entry.css</text>
</a>
</g>
</g>
<!-- src/app/entry.tsx -->
<g id="node2" class="node">
<title>src/app/entry.tsx</title>
<g id="a_node2"><a xlink:href="src/app/entry.tsx" xlink:title="entry.tsx">
<path fill="#bbfeff" stroke="black" d="M72.08,-62.88C72.08,-62.88 29.92,-62.88 29.92,-62.88 26.96,-62.88 24,-59.92 24,-56.96 24,-56.96 24,-51.04 24,-51.04 24,-48.08 26.96,-45.12 29.92,-45.12 29.92,-45.12 72.08,-45.12 72.08,-45.12 75.04,-45.12 78,-48.08 78,-51.04 78,-51.04 78,-56.96 78,-56.96 78,-59.92 75.04,-62.88 72.08,-62.88"/>
<text text-anchor="start" x="34.12" y="-50.33" font-family="Helvetica,sans-Serif" font-size="9.00">entry.tsx</text>
</a>
</g>
</g>
<!-- src/app/entry.tsx&#45;&gt;src/app/entry.css -->
<g id="edge1" class="edge">
<title>src/app/entry.tsx&#45;&gt;src/app/entry.css</title>
<path fill="none" stroke="#000000" stroke-width="2" stroke-opacity="0.200000" d="M78.34,-48.48C90.31,-45.97 104.64,-42.97 117.48,-40.28"/>
<polygon fill="#000000" fill-opacity="0.200000" stroke="#000000" stroke-width="2" stroke-opacity="0.200000" points="117.68,-42.39 123.12,-39.1 116.82,-38.28 117.68,-42.39"/>
</g>
<!-- src/app/providers/router/RouterProvider.tsx -->
<g id="node3" class="node">
<title>src/app/providers/router/RouterProvider.tsx</title>
<g id="a_node3"><a xlink:href="src/app/providers/router/RouterProvider.tsx" xlink:title="RouterProvider.tsx">
<path fill="#bbfeff" stroke="black" d="M193.21,-83.88C193.21,-83.88 113.29,-83.88 113.29,-83.88 110.33,-83.88 107.38,-80.92 107.38,-77.96 107.38,-77.96 107.38,-72.04 107.38,-72.04 107.38,-69.08 110.33,-66.12 113.29,-66.12 113.29,-66.12 193.21,-66.12 193.21,-66.12 196.17,-66.12 199.12,-69.08 199.12,-72.04 199.12,-72.04 199.12,-77.96 199.12,-77.96 199.12,-80.92 196.17,-83.88 193.21,-83.88"/>
<text text-anchor="start" x="115.38" y="-71.33" font-family="Helvetica,sans-Serif" font-size="9.00">RouterProvider.tsx</text>
</a>
</g>
</g>
<!-- src/app/entry.tsx&#45;&gt;src/app/providers/router/RouterProvider.tsx -->
<g id="edge2" class="edge">
<title>src/app/entry.tsx&#45;&gt;src/app/providers/router/RouterProvider.tsx</title>
<path fill="none" stroke="#000000" stroke-width="2" stroke-opacity="0.200000" d="M78.34,-59.52C84.84,-60.88 92.04,-62.39 99.32,-63.91"/>
<polygon fill="#000000" fill-opacity="0.200000" stroke="#000000" stroke-width="2" stroke-opacity="0.200000" points="98.6,-65.91 104.91,-65.08 99.46,-61.8 98.6,-65.91"/>
</g>
<!-- src/app/providers/layout/BaseLayoutProvider.tsx -->
<g id="node4" class="node">
<title>src/app/providers/layout/BaseLayoutProvider.tsx</title>
<g id="a_node4"><a xlink:href="src/app/providers/layout/BaseLayoutProvider.tsx" xlink:title="BaseLayoutProvider.tsx">
<path fill="#bbfeff" stroke="black" d="M329.96,-83.88C329.96,-83.88 229.04,-83.88 229.04,-83.88 226.08,-83.88 223.12,-80.92 223.12,-77.96 223.12,-77.96 223.12,-72.04 223.12,-72.04 223.12,-69.08 226.08,-66.12 229.04,-66.12 229.04,-66.12 329.96,-66.12 329.96,-66.12 332.92,-66.12 335.88,-69.08 335.88,-72.04 335.88,-72.04 335.88,-77.96 335.88,-77.96 335.88,-80.92 332.92,-83.88 329.96,-83.88"/>
<text text-anchor="start" x="231.12" y="-71.33" font-family="Helvetica,sans-Serif" font-size="9.00">BaseLayoutProvider.tsx</text>
</a>
</g>
</g>
<!-- src/app/providers/router/RouterProvider.tsx&#45;&gt;src/app/providers/layout/BaseLayoutProvider.tsx -->
<g id="edge3" class="edge">
<title>src/app/providers/router/RouterProvider.tsx&#45;&gt;src/app/providers/layout/BaseLayoutProvider.tsx</title>
<path fill="none" stroke="#000000" stroke-width="2" stroke-opacity="0.200000" d="M199.46,-75C204.23,-75 209.14,-75 214.08,-75"/>
<polygon fill="#000000" fill-opacity="0.200000" stroke="#000000" stroke-width="2" stroke-opacity="0.200000" points="213.92,-77.1 219.92,-75 213.92,-72.9 213.92,-77.1"/>
</g>
<!-- src/pages/home/index.ts -->
<g id="node5" class="node">
<title>src/pages/home/index.ts</title>
<g id="a_node5"><a xlink:href="src/pages/home/index.ts" xlink:title="index.ts">
<path fill="#ddfeff" stroke="black" d="M300.58,-207.88C300.58,-207.88 258.42,-207.88 258.42,-207.88 255.46,-207.88 252.5,-204.92 252.5,-201.96 252.5,-201.96 252.5,-196.04 252.5,-196.04 252.5,-193.08 255.46,-190.12 258.42,-190.12 258.42,-190.12 300.58,-190.12 300.58,-190.12 303.54,-190.12 306.5,-193.08 306.5,-196.04 306.5,-196.04 306.5,-201.96 306.5,-201.96 306.5,-204.92 303.54,-207.88 300.58,-207.88"/>
<text text-anchor="start" x="263.75" y="-195.32" font-family="Helvetica,sans-Serif" font-size="9.00">index.ts</text>
</a>
</g>
</g>
<!-- src/app/providers/router/RouterProvider.tsx&#45;&gt;src/pages/home/index.ts -->
<g id="edge4" class="edge">
<title>src/app/providers/router/RouterProvider.tsx&#45;&gt;src/pages/home/index.ts</title>
<path fill="none" stroke="#000000" stroke-width="2" stroke-opacity="0.200000" d="M163.59,-84.32C184.83,-105.52 236.94,-157.52 263.05,-183.58"/>
<polygon fill="#000000" fill-opacity="0.200000" stroke="#000000" stroke-width="2" stroke-opacity="0.200000" points="261.52,-185.02 267.25,-187.77 264.48,-182.05 261.52,-185.02"/>
</g>
<!-- src/pages/profile/index.ts -->
<g id="node6" class="node">
<title>src/pages/profile/index.ts</title>
<g id="a_node6"><a xlink:href="src/pages/profile/index.ts" xlink:title="index.ts">
<path fill="#ddfeff" stroke="black" d="M300.58,-301.88C300.58,-301.88 258.42,-301.88 258.42,-301.88 255.46,-301.88 252.5,-298.92 252.5,-295.96 252.5,-295.96 252.5,-290.04 252.5,-290.04 252.5,-287.08 255.46,-284.12 258.42,-284.12 258.42,-284.12 300.58,-284.12 300.58,-284.12 303.54,-284.12 306.5,-287.08 306.5,-290.04 306.5,-290.04 306.5,-295.96 306.5,-295.96 306.5,-298.92 303.54,-301.88 300.58,-301.88"/>
<text text-anchor="start" x="263.75" y="-289.32" font-family="Helvetica,sans-Serif" font-size="9.00">index.ts</text>
</a>
</g>
</g>
<!-- src/app/providers/router/RouterProvider.tsx&#45;&gt;src/pages/profile/index.ts -->
<g id="edge5" class="edge">
<title>src/app/providers/router/RouterProvider.tsx&#45;&gt;src/pages/profile/index.ts</title>
<path fill="none" stroke="#000000" stroke-width="2" stroke-opacity="0.200000" d="M154.53,-84.36C155.95,-114.77 164.43,-211.95 215.12,-267 222.68,-275.2 233.2,-280.88 243.5,-284.79"/>
<polygon fill="#000000" fill-opacity="0.200000" stroke="#000000" stroke-width="2" stroke-opacity="0.200000" points="242.81,-286.77 249.16,-286.7 244.15,-282.79 242.81,-286.77"/>
</g>
<!-- src/pages/home/ui/Page.tsx -->
<g id="node15" class="node">
<title>src/pages/home/ui/Page.tsx</title>
<g id="a_node15"><a xlink:href="src/pages/home/ui/Page.tsx" xlink:title="Page.tsx">
<path fill="#bbfeff" stroke="black" d="M423.96,-211.88C423.96,-211.88 381.79,-211.88 381.79,-211.88 378.83,-211.88 375.88,-208.92 375.88,-205.96 375.88,-205.96 375.88,-200.04 375.88,-200.04 375.88,-197.08 378.83,-194.12 381.79,-194.12 381.79,-194.12 423.96,-194.12 423.96,-194.12 426.92,-194.12 429.88,-197.08 429.88,-200.04 429.88,-200.04 429.88,-205.96 429.88,-205.96 429.88,-208.92 426.92,-211.88 423.96,-211.88"/>
<text text-anchor="start" x="385.25" y="-199.32" font-family="Helvetica,sans-Serif" font-size="9.00">Page.tsx</text>
</a>
</g>
</g>
<!-- src/pages/home/index.ts&#45;&gt;src/pages/home/ui/Page.tsx -->
<g id="edge15" class="edge">
<title>src/pages/home/index.ts&#45;&gt;src/pages/home/ui/Page.tsx</title>
<path fill="none" stroke="#000000" stroke-width="2" stroke-opacity="0.200000" d="M306.84,-199.87C324.97,-200.47 349.2,-201.26 368.66,-201.91"/>
<polygon fill="#000000" fill-opacity="0.200000" stroke="#000000" stroke-width="2" stroke-opacity="0.200000" points="374.52,-204.2 368.59,-201.9 374.66,-200 374.52,-204.2"/>
</g>
<!-- src/pages/profile/ui/Page.tsx -->
<g id="node18" class="node">
<title>src/pages/profile/ui/Page.tsx</title>
<g id="a_node18"><a xlink:href="src/pages/profile/ui/Page.tsx" xlink:title="Page.tsx">
<path fill="#bbfeff" stroke="black" d="M423.96,-305.88C423.96,-305.88 381.79,-305.88 381.79,-305.88 378.83,-305.88 375.88,-302.92 375.88,-299.96 375.88,-299.96 375.88,-294.04 375.88,-294.04 375.88,-291.08 378.83,-288.12 381.79,-288.12 381.79,-288.12 423.96,-288.12 423.96,-288.12 426.92,-288.12 429.88,-291.08 429.88,-294.04 429.88,-294.04 429.88,-299.96 429.88,-299.96 429.88,-302.92 426.92,-305.88 423.96,-305.88"/>
<text text-anchor="start" x="385.25" y="-293.32" font-family="Helvetica,sans-Serif" font-size="9.00">Page.tsx</text>
</a>
</g>
</g>
<!-- src/pages/profile/index.ts&#45;&gt;src/pages/profile/ui/Page.tsx -->
<g id="edge21" class="edge">
<title>src/pages/profile/index.ts&#45;&gt;src/pages/profile/ui/Page.tsx</title>
<path fill="none" stroke="#000000" stroke-width="2" stroke-opacity="0.200000" d="M306.84,-293.87C324.97,-294.47 349.2,-295.26 368.66,-295.91"/>
<polygon fill="#000000" fill-opacity="0.200000" stroke="#000000" stroke-width="2" stroke-opacity="0.200000" points="374.52,-298.2 368.59,-295.9 374.66,-294 374.52,-298.2"/>
</g>
<!-- src/entities/pokemon/api/queryPokemonById.ts -->
<g id="node7" class="node">
<title>src/entities/pokemon/api/queryPokemonById.ts</title>
<g id="a_node7"><a xlink:href="src/entities/pokemon/api/queryPokemonById.ts" xlink:title="queryPokemonById.ts">
<path fill="#ddfeff" stroke="black" d="M671.21,-207.88C671.21,-207.88 577.79,-207.88 577.79,-207.88 574.83,-207.88 571.88,-204.92 571.88,-201.96 571.88,-201.96 571.88,-196.04 571.88,-196.04 571.88,-193.08 574.83,-190.12 577.79,-190.12 577.79,-190.12 671.21,-190.12 671.21,-190.12 674.17,-190.12 677.12,-193.08 677.12,-196.04 677.12,-196.04 677.12,-201.96 677.12,-201.96 677.12,-204.92 674.17,-207.88 671.21,-207.88"/>
<text text-anchor="start" x="579.88" y="-195.32" font-family="Helvetica,sans-Serif" font-size="9.00">queryPokemonById.ts</text>
</a>
</g>
</g>
<!-- src/entities/pokemon/lib/mapPokemonDto.ts -->
<g id="node8" class="node">
<title>src/entities/pokemon/lib/mapPokemonDto.ts</title>
<g id="a_node8"><a xlink:href="src/entities/pokemon/lib/mapPokemonDto.ts" xlink:title="mapPokemonDto.ts">
<path fill="#ddfeff" stroke="black" d="M791.46,-207.88C791.46,-207.88 707.04,-207.88 707.04,-207.88 704.08,-207.88 701.12,-204.92 701.12,-201.96 701.12,-201.96 701.12,-196.04 701.12,-196.04 701.12,-193.08 704.08,-190.12 707.04,-190.12 707.04,-190.12 791.46,-190.12 791.46,-190.12 794.42,-190.12 797.38,-193.08 797.38,-196.04 797.38,-196.04 797.38,-201.96 797.38,-201.96 797.38,-204.92 794.42,-207.88 791.46,-207.88"/>
<text text-anchor="start" x="709.12" y="-195.32" font-family="Helvetica,sans-Serif" font-size="9.00">mapPokemonDto.ts</text>
</a>
</g>
</g>
<!-- src/entities/pokemon/api/queryPokemonById.ts&#45;&gt;src/entities/pokemon/lib/mapPokemonDto.ts -->
<g id="edge6" class="edge">
<title>src/entities/pokemon/api/queryPokemonById.ts&#45;&gt;src/entities/pokemon/lib/mapPokemonDto.ts</title>
<path fill="none" stroke="#000000" stroke-width="2" stroke-opacity="0.200000" d="M677.56,-199C682.26,-199 687.03,-199 691.76,-199"/>
<polygon fill="#000000" fill-opacity="0.200000" stroke="#000000" stroke-width="2" stroke-opacity="0.200000" points="691.76,-201.1 697.76,-199 691.76,-196.9 691.76,-201.1"/>
</g>
<!-- src/shared/api/index.ts -->
<g id="node9" class="node">
<title>src/shared/api/index.ts</title>
<g id="a_node9"><a xlink:href="src/shared/api/index.ts" xlink:title="index.ts">
<path fill="#ddfeff" stroke="black" d="M888.21,-331.88C888.21,-331.88 846.04,-331.88 846.04,-331.88 843.08,-331.88 840.12,-328.92 840.12,-325.96 840.12,-325.96 840.12,-320.04 840.12,-320.04 840.12,-317.08 843.08,-314.12 846.04,-314.12 846.04,-314.12 888.21,-314.12 888.21,-314.12 891.17,-314.12 894.12,-317.08 894.12,-320.04 894.12,-320.04 894.12,-325.96 894.12,-325.96 894.12,-328.92 891.17,-331.88 888.21,-331.88"/>
<text text-anchor="start" x="851.38" y="-319.32" font-family="Helvetica,sans-Serif" font-size="9.00">index.ts</text>
</a>
</g>
</g>
<!-- src/entities/pokemon/api/queryPokemonById.ts&#45;&gt;src/shared/api/index.ts -->
<g id="edge7" class="edge">
<title>src/entities/pokemon/api/queryPokemonById.ts&#45;&gt;src/shared/api/index.ts</title>
<path fill="none" stroke="#000000" stroke-width="2" stroke-opacity="0.200000" d="M641.5,-208.29C655.12,-216.13 675.27,-227.55 693.12,-237 744.04,-263.94 804.5,-293.44 838.78,-309.94"/>
<polygon fill="#000000" fill-opacity="0.200000" stroke="#000000" stroke-width="2" stroke-opacity="0.200000" points="837.46,-311.63 843.77,-312.34 839.28,-307.84 837.46,-311.63"/>
</g>
<!-- src/entities/pokemon/lib/mapPokemonDto.ts&#45;&gt;src/shared/api/index.ts -->
<g id="edge12" class="edge">
<title>src/entities/pokemon/lib/mapPokemonDto.ts&#45;&gt;src/shared/api/index.ts</title>
<path fill="none" stroke="#000000" stroke-opacity="0.200000" d="M758.96,-208.32C779.02,-229.79 828.61,-282.85 852.64,-308.57"/>
<polygon fill="none" stroke="#000000" stroke-opacity="0.200000" points="850.97,-309.85 856.6,-312.8 854.03,-306.99 850.97,-309.85"/>
</g>
<!-- src/entities/pokemon/model/types.ts -->
<g id="node14" class="node">
<title>src/entities/pokemon/model/types.ts</title>
<g id="a_node14"><a xlink:href="src/entities/pokemon/model/types.ts" xlink:title="types.ts">
<path fill="#ddfeff" stroke="black" d="M888.21,-87.88C888.21,-87.88 846.04,-87.88 846.04,-87.88 843.08,-87.88 840.12,-84.92 840.12,-81.96 840.12,-81.96 840.12,-76.04 840.12,-76.04 840.12,-73.08 843.08,-70.12 846.04,-70.12 846.04,-70.12 888.21,-70.12 888.21,-70.12 891.17,-70.12 894.12,-73.08 894.12,-76.04 894.12,-76.04 894.12,-81.96 894.12,-81.96 894.12,-84.92 891.17,-87.88 888.21,-87.88"/>
<text text-anchor="start" x="851.75" y="-75.33" font-family="Helvetica,sans-Serif" font-size="9.00">types.ts</text>
</a>
</g>
</g>
<!-- src/entities/pokemon/lib/mapPokemonDto.ts&#45;&gt;src/entities/pokemon/model/types.ts -->
<g id="edge11" class="edge">
<title>src/entities/pokemon/lib/mapPokemonDto.ts&#45;&gt;src/entities/pokemon/model/types.ts</title>
<path fill="none" stroke="#000000" stroke-opacity="0.200000" d="M788.79,-189.76C795.14,-186.66 801.06,-182.52 805.38,-177 821.41,-156.51 800.23,-141.46 813.38,-119 819.91,-107.83 830.91,-98.74 841.17,-92.07"/>
<polygon fill="none" stroke="#000000" stroke-opacity="0.200000" points="842.12,-93.96 846.13,-89.03 839.92,-90.38 842.12,-93.96"/>
</g>
<!-- src/shared/api/pokemon/fetchPokemonApi.ts -->
<g id="node19" class="node">
<title>src/shared/api/pokemon/fetchPokemonApi.ts</title>
<g id="a_node19"><a xlink:href="src/shared/api/pokemon/fetchPokemonApi.ts" xlink:title="fetchPokemonApi.ts">
<path fill="#ddfeff" stroke="black" d="M1051.96,-335.88C1051.96,-335.88 966.79,-335.88 966.79,-335.88 963.83,-335.88 960.88,-332.92 960.88,-329.96 960.88,-329.96 960.88,-324.04 960.88,-324.04 960.88,-321.08 963.83,-318.12 966.79,-318.12 966.79,-318.12 1051.96,-318.12 1051.96,-318.12 1054.92,-318.12 1057.88,-321.08 1057.88,-324.04 1057.88,-324.04 1057.88,-329.96 1057.88,-329.96 1057.88,-332.92 1054.92,-335.88 1051.96,-335.88"/>
<text text-anchor="start" x="968.88" y="-323.32" font-family="Helvetica,sans-Serif" font-size="9.00">fetchPokemonApi.ts</text>
</a>
</g>
</g>
<!-- src/shared/api/index.ts&#45;&gt;src/shared/api/pokemon/fetchPokemonApi.ts -->
<g id="edge22" class="edge">
<title>src/shared/api/index.ts&#45;&gt;src/shared/api/pokemon/fetchPokemonApi.ts</title>
<path fill="none" stroke="#000000" stroke-width="2" stroke-opacity="0.200000" d="M894.5,-323.75C911.11,-324.23 933.18,-324.86 953.45,-325.43"/>
<polygon fill="#000000" fill-opacity="0.200000" stroke="#000000" stroke-width="2" stroke-opacity="0.200000" points="959.48,-327.71 953.54,-325.44 959.6,-323.51 959.48,-327.71"/>
</g>
<!-- src/shared/api/pokemon/types.ts -->
<g id="node20" class="node">
<title>src/shared/api/pokemon/types.ts</title>
<g id="a_node20"><a xlink:href="src/shared/api/pokemon/types.ts" xlink:title="types.ts">
<path fill="#ddfeff" stroke="black" d="M1030.46,-365.88C1030.46,-365.88 988.29,-365.88 988.29,-365.88 985.33,-365.88 982.38,-362.92 982.38,-359.96 982.38,-359.96 982.38,-354.04 982.38,-354.04 982.38,-351.08 985.33,-348.12 988.29,-348.12 988.29,-348.12 1030.46,-348.12 1030.46,-348.12 1033.42,-348.12 1036.38,-351.08 1036.38,-354.04 1036.38,-354.04 1036.38,-359.96 1036.38,-359.96 1036.38,-362.92 1033.42,-365.88 1030.46,-365.88"/>
<text text-anchor="start" x="994" y="-353.32" font-family="Helvetica,sans-Serif" font-size="9.00">types.ts</text>
</a>
</g>
</g>
<!-- src/shared/api/index.ts&#45;&gt;src/shared/api/pokemon/types.ts -->
<g id="edge23" class="edge">
<title>src/shared/api/index.ts&#45;&gt;src/shared/api/pokemon/types.ts</title>
<path fill="none" stroke="#000000" stroke-opacity="0.200000" d="M894.5,-329.4C917.33,-334.93 950.44,-342.96 975.08,-348.93"/>
<polygon fill="none" stroke="#000000" stroke-opacity="0.200000" points="974.32,-350.9 980.64,-350.28 975.31,-346.82 974.32,-350.9"/>
</g>
<!-- src/entities/pokemon/index.ts -->
<g id="node10" class="node">
<title>src/entities/pokemon/index.ts</title>
<g id="a_node10"><a xlink:href="src/entities/pokemon/index.ts" xlink:title="index.ts">
<path fill="#ddfeff" stroke="black" d="M645.58,-169.88C645.58,-169.88 603.42,-169.88 603.42,-169.88 600.46,-169.88 597.5,-166.92 597.5,-163.96 597.5,-163.96 597.5,-158.04 597.5,-158.04 597.5,-155.08 600.46,-152.12 603.42,-152.12 603.42,-152.12 645.58,-152.12 645.58,-152.12 648.54,-152.12 651.5,-155.08 651.5,-158.04 651.5,-158.04 651.5,-163.96 651.5,-163.96 651.5,-166.92 648.54,-169.88 645.58,-169.88"/>
<text text-anchor="start" x="608.75" y="-157.32" font-family="Helvetica,sans-Serif" font-size="9.00">index.ts</text>
</a>
</g>
</g>
<!-- src/entities/pokemon/model/consts.ts -->
<g id="node11" class="node">
<title>src/entities/pokemon/model/consts.ts</title>
<g id="a_node11"><a xlink:href="src/entities/pokemon/model/consts.ts" xlink:title="consts.ts">
<path fill="#ddfeff" stroke="black" d="M888.21,-57.88C888.21,-57.88 846.04,-57.88 846.04,-57.88 843.08,-57.88 840.12,-54.92 840.12,-51.96 840.12,-51.96 840.12,-46.04 840.12,-46.04 840.12,-43.08 843.08,-40.12 846.04,-40.12 846.04,-40.12 888.21,-40.12 888.21,-40.12 891.17,-40.12 894.12,-43.08 894.12,-46.04 894.12,-46.04 894.12,-51.96 894.12,-51.96 894.12,-54.92 891.17,-57.88 888.21,-57.88"/>
<text text-anchor="start" x="849.5" y="-45.33" font-family="Helvetica,sans-Serif" font-size="9.00">consts.ts</text>
</a>
</g>
</g>
<!-- src/entities/pokemon/index.ts&#45;&gt;src/entities/pokemon/model/consts.ts -->
<g id="edge8" class="edge">
<title>src/entities/pokemon/index.ts&#45;&gt;src/entities/pokemon/model/consts.ts</title>
<path fill="none" stroke="#000000" stroke-width="2" stroke-opacity="0.200000" d="M639.18,-151.79C652.63,-142.9 673.88,-129.32 693.12,-119 744.91,-91.22 758.23,-84.32 813.38,-64 819.74,-61.65 826.65,-59.45 833.3,-57.5"/>
<polygon fill="#000000" fill-opacity="0.200000" stroke="#000000" stroke-width="2" stroke-opacity="0.200000" points="839.46,-57.92 833.12,-57.55 838.31,-53.88 839.46,-57.92"/>
</g>
<!-- src/entities/pokemon/ui/PokemonCard.tsx -->
<g id="node12" class="node">
<title>src/entities/pokemon/ui/PokemonCard.tsx</title>
<g id="a_node12"><a xlink:href="src/entities/pokemon/ui/PokemonCard.tsx" xlink:title="PokemonCard.tsx">
<path fill="#bbfeff" stroke="black" d="M787.71,-147.88C787.71,-147.88 710.79,-147.88 710.79,-147.88 707.83,-147.88 704.88,-144.92 704.88,-141.96 704.88,-141.96 704.88,-136.04 704.88,-136.04 704.88,-133.08 707.83,-130.12 710.79,-130.12 710.79,-130.12 787.71,-130.12 787.71,-130.12 790.67,-130.12 793.62,-133.08 793.62,-136.04 793.62,-136.04 793.62,-141.96 793.62,-141.96 793.62,-144.92 790.67,-147.88 787.71,-147.88"/>
<text text-anchor="start" x="712.88" y="-135.32" font-family="Helvetica,sans-Serif" font-size="9.00">PokemonCard.tsx</text>
</a>
</g>
</g>
<!-- src/entities/pokemon/index.ts&#45;&gt;src/entities/pokemon/ui/PokemonCard.tsx -->
<g id="edge9" class="edge">
<title>src/entities/pokemon/index.ts&#45;&gt;src/entities/pokemon/ui/PokemonCard.tsx</title>
<path fill="none" stroke="#000000" stroke-width="2" stroke-opacity="0.200000" d="M651.83,-156.28C665.27,-153.87 682.08,-150.86 697.88,-148.03"/>
<polygon fill="#000000" fill-opacity="0.200000" stroke="#000000" stroke-width="2" stroke-opacity="0.200000" points="703.96,-149.07 697.69,-148.06 703.22,-144.94 703.96,-149.07"/>
</g>
<!-- src/entities/pokemon/ui/PokemonCardStub.tsx -->
<g id="node13" class="node">
<title>src/entities/pokemon/ui/PokemonCardStub.tsx</title>
<g id="a_node13"><a xlink:href="src/entities/pokemon/ui/PokemonCardStub.tsx" xlink:title="PokemonCardStub.tsx">
<path fill="#bbfeff" stroke="black" d="M914.96,-147.88C914.96,-147.88 819.29,-147.88 819.29,-147.88 816.33,-147.88 813.38,-144.92 813.38,-141.96 813.38,-141.96 813.38,-136.04 813.38,-136.04 813.38,-133.08 816.33,-130.12 819.29,-130.12 819.29,-130.12 914.96,-130.12 914.96,-130.12 917.92,-130.12 920.88,-133.08 920.88,-136.04 920.88,-136.04 920.88,-141.96 920.88,-141.96 920.88,-144.92 917.92,-147.88 914.96,-147.88"/>
<text text-anchor="start" x="821.38" y="-135.32" font-family="Helvetica,sans-Serif" font-size="9.00">PokemonCardStub.tsx</text>
</a>
</g>
</g>
<!-- src/entities/pokemon/index.ts&#45;&gt;src/entities/pokemon/ui/PokemonCardStub.tsx -->
<g id="edge10" class="edge">
<title>src/entities/pokemon/index.ts&#45;&gt;src/entities/pokemon/ui/PokemonCardStub.tsx</title>
<path fill="none" stroke="#000000" stroke-width="2" stroke-opacity="0.200000" d="M651.86,-161.64C687.05,-162.12 751.22,-161.66 805.38,-154 812.31,-153.02 819.61,-151.58 826.65,-149.98"/>
<polygon fill="#000000" fill-opacity="0.200000" stroke="#000000" stroke-width="2" stroke-opacity="0.200000" points="833.09,-150.6 826.76,-149.95 832.12,-146.52 833.09,-150.6"/>
</g>
<!-- src/entities/pokemon/ui/PokemonCard.tsx&#45;&gt;src/entities/pokemon/ui/PokemonCardStub.tsx -->
<g id="edge14" class="edge">
<title>src/entities/pokemon/ui/PokemonCard.tsx&#45;&gt;src/entities/pokemon/ui/PokemonCardStub.tsx</title>
<path fill="none" stroke="#000000" stroke-width="2" stroke-opacity="0.200000" d="M794.06,-139C797.33,-139 800.66,-139 804.01,-139"/>
<polygon fill="#000000" fill-opacity="0.200000" stroke="#000000" stroke-width="2" stroke-opacity="0.200000" points="803.87,-141.1 809.87,-139 803.87,-136.9 803.87,-141.1"/>
</g>
<!-- src/entities/pokemon/ui/PokemonCard.tsx&#45;&gt;src/entities/pokemon/model/types.ts -->
<g id="edge13" class="edge">
<title>src/entities/pokemon/ui/PokemonCard.tsx&#45;&gt;src/entities/pokemon/model/types.ts</title>
<path fill="none" stroke="#000000" stroke-width="2" stroke-opacity="0.200000" d="M794,-130.8C797.94,-129.43 801.79,-127.84 805.38,-126 809.58,-123.84 809.71,-121.98 813.38,-119 824.02,-110.32 836.23,-101.03 846.22,-93.58"/>
<polygon fill="#000000" fill-opacity="0.200000" stroke="#000000" stroke-width="2" stroke-opacity="0.200000" points="847.35,-95.35 850.92,-90.09 844.85,-91.98 847.35,-95.35"/>
</g>
<!-- src/pages/home/ui/Page.tsx&#45;&gt;src/entities/pokemon/index.ts -->
<g id="edge19" class="edge">
<title>src/pages/home/ui/Page.tsx&#45;&gt;src/entities/pokemon/index.ts</title>
<path fill="none" stroke="#000000" stroke-width="2" stroke-opacity="0.200000" d="M412.38,-212.33C421.56,-221.64 437.14,-235.36 453.88,-241 490.1,-253.2 511.17,-266.24 539.88,-241 560.74,-222.65 529.29,-199.65 547.88,-179 558.04,-167.7 573.9,-162.86 588.47,-160.98"/>
<polygon fill="#000000" fill-opacity="0.200000" stroke="#000000" stroke-width="2" stroke-opacity="0.200000" points="588.53,-163.09 594.31,-160.44 588.14,-158.9 588.53,-163.09"/>
</g>
<!-- src/pages/home/model/store.ts -->
<g id="node16" class="node">
<title>src/pages/home/model/store.ts</title>
<g id="a_node16"><a xlink:href="src/pages/home/model/store.ts" xlink:title="store.ts">
<path fill="#ddfeff" stroke="black" d="M509.96,-211.88C509.96,-211.88 467.79,-211.88 467.79,-211.88 464.83,-211.88 461.88,-208.92 461.88,-205.96 461.88,-205.96 461.88,-200.04 461.88,-200.04 461.88,-197.08 464.83,-194.12 467.79,-194.12 467.79,-194.12 509.96,-194.12 509.96,-194.12 512.92,-194.12 515.88,-197.08 515.88,-200.04 515.88,-200.04 515.88,-205.96 515.88,-205.96 515.88,-208.92 512.92,-211.88 509.96,-211.88"/>
<text text-anchor="start" x="474.25" y="-199.32" font-family="Helvetica,sans-Serif" font-size="9.00">store.ts</text>
</a>
</g>
</g>
<!-- src/pages/home/ui/Page.tsx&#45;&gt;src/pages/home/model/store.ts -->
<g id="edge18" class="edge">
<title>src/pages/home/ui/Page.tsx&#45;&gt;src/pages/home/model/store.ts</title>
<path fill="none" stroke="#000000" stroke-width="2" stroke-opacity="0.200000" d="M429.99,-203C437.19,-203 445.12,-203 452.74,-203"/>
<polygon fill="#000000" fill-opacity="0.200000" stroke="#000000" stroke-width="2" stroke-opacity="0.200000" points="452.46,-205.1 458.46,-203 452.46,-200.9 452.46,-205.1"/>
</g>
<!-- src/shared/ui/Input.tsx -->
<g id="node17" class="node">
<title>src/shared/ui/Input.tsx</title>
<g id="a_node17"><a xlink:href="src/shared/ui/Input.tsx" xlink:title="Input.tsx">
<path fill="#bbfeff" stroke="black" d="M888.21,-511.88C888.21,-511.88 846.04,-511.88 846.04,-511.88 843.08,-511.88 840.12,-508.92 840.12,-505.96 840.12,-505.96 840.12,-500.04 840.12,-500.04 840.12,-497.08 843.08,-494.12 846.04,-494.12 846.04,-494.12 888.21,-494.12 888.21,-494.12 891.17,-494.12 894.12,-497.08 894.12,-500.04 894.12,-500.04 894.12,-505.96 894.12,-505.96 894.12,-508.92 891.17,-511.88 888.21,-511.88"/>
<text text-anchor="start" x="850.25" y="-499.32" font-family="Helvetica,sans-Serif" font-size="9.00">Input.tsx</text>
</a>
</g>
</g>
<!-- src/pages/home/ui/Page.tsx&#45;&gt;src/shared/ui/Input.tsx -->
<g id="edge20" class="edge">
<title>src/pages/home/ui/Page.tsx&#45;&gt;src/shared/ui/Input.tsx</title>
<path fill="none" stroke="#000000" stroke-width="2" stroke-opacity="0.200000" d="M412.21,-212.26C421.74,-222.57 438.08,-239.45 453.88,-252 602.22,-369.82 645.44,-393.33 813.38,-481 819.62,-484.26 826.46,-487.41 833.09,-490.25"/>
<polygon fill="#000000" fill-opacity="0.200000" stroke="#000000" stroke-width="2" stroke-opacity="0.200000" points="832.16,-492.14 838.5,-492.51 833.77,-488.26 832.16,-492.14"/>
</g>
<!-- src/pages/home/model/store.ts&#45;&gt;src/entities/pokemon/api/queryPokemonById.ts -->
<g id="edge17" class="edge">
<title>src/pages/home/model/store.ts&#45;&gt;src/entities/pokemon/api/queryPokemonById.ts</title>
<path fill="none" stroke="#000000" stroke-width="2" stroke-opacity="0.200000" d="M516.28,-202.21C529.56,-201.81 546.26,-201.31 562.5,-200.83"/>
<polygon fill="#000000" fill-opacity="0.200000" stroke="#000000" stroke-width="2" stroke-opacity="0.200000" points="562.48,-202.93 568.42,-200.65 562.36,-198.73 562.48,-202.93"/>
</g>
<!-- src/pages/home/model/store.ts&#45;&gt;src/entities/pokemon/index.ts -->
<g id="edge16" class="edge">
<title>src/pages/home/model/store.ts&#45;&gt;src/entities/pokemon/index.ts</title>
<path fill="none" stroke="#000000" stroke-width="2" stroke-opacity="0.200000" d="M510.25,-193.64C521.23,-188.83 535.12,-183.13 547.88,-179 561.02,-174.75 575.75,-171.02 588.69,-168.07"/>
<polygon fill="#000000" fill-opacity="0.200000" stroke="#000000" stroke-width="2" stroke-opacity="0.200000" points="588.96,-170.16 594.36,-166.81 588.05,-166.06 588.96,-170.16"/>
</g>
<!-- src/shared/lib/app.d.ts -->
<g id="node21" class="node">
<title>src/shared/lib/app.d.ts</title>
<g id="a_node21"><a xlink:href="src/shared/lib/app.d.ts" xlink:title="app.d.ts">
<path fill="#ccffcc" stroke="black" d="M888.21,-451.88C888.21,-451.88 846.04,-451.88 846.04,-451.88 843.08,-451.88 840.12,-448.92 840.12,-445.96 840.12,-445.96 840.12,-440.04 840.12,-440.04 840.12,-437.08 843.08,-434.12 846.04,-434.12 846.04,-434.12 888.21,-434.12 888.21,-434.12 891.17,-434.12 894.12,-437.08 894.12,-440.04 894.12,-440.04 894.12,-445.96 894.12,-445.96 894.12,-448.92 891.17,-451.88 888.21,-451.88"/>
<text text-anchor="start" x="851" y="-439.32" font-family="Helvetica,sans-Serif" font-size="9.00">app.d.ts</text>
</a>
</g>
</g>
<!-- src/vite&#45;env.d.ts -->
<g id="node22" class="node">
<title>src/vite&#45;env.d.ts</title>
<g id="a_node22"><a xlink:href="src/vite-env.d.ts" xlink:title="vite&#45;env.d.ts">
<path fill="#ccffcc" stroke="black" d="M77.46,-375.88C77.46,-375.88 24.54,-375.88 24.54,-375.88 21.58,-375.88 18.62,-372.92 18.62,-369.96 18.62,-369.96 18.62,-364.04 18.62,-364.04 18.62,-361.08 21.58,-358.12 24.54,-358.12 24.54,-358.12 77.46,-358.12 77.46,-358.12 80.42,-358.12 83.38,-361.08 83.38,-364.04 83.38,-364.04 83.38,-369.96 83.38,-369.96 83.38,-372.92 80.42,-375.88 77.46,-375.88"/>
<text text-anchor="start" x="26.62" y="-363.32" font-family="Helvetica,sans-Serif" font-size="9.00">vite&#45;env.d.ts</text>
</a>
</g>
</g>
</g>
</svg>
