<?xml version="1.0" encoding="UTF-8" standalone="no"?>
<!DOCTYPE svg PUBLIC "-//W3C//DTD SVG 1.1//EN"
 "http://www.w3.org/Graphics/SVG/1.1/DTD/svg11.dtd">
<!-- Generated by graphviz version 12.0.0 (20240704.0754)
 -->
<!-- Title: dependency&#45;cruiser output Pages: 1 -->
<svg width="414pt" height="260pt"
 viewBox="0.00 0.00 414.25 260.00" xmlns="http://www.w3.org/2000/svg" xmlns:xlink="http://www.w3.org/1999/xlink">
<g id="graph0" class="graph" transform="scale(1 1) rotate(0) translate(4 256)">
<title>dependency&#45;cruiser output</title>
<polygon fill="white" stroke="none" points="-4,4 -4,-256 410.25,-256 410.25,4 -4,4"/>
<g id="clust1" class="cluster">
<title>cluster_src</title>
<path fill="#ffffff" stroke="black" stroke-width="2" d="M20,-8C20,-8 386.25,-8 386.25,-8 392.25,-8 398.25,-14 398.25,-20 398.25,-20 398.25,-232 398.25,-232 398.25,-238 392.25,-244 386.25,-244 386.25,-244 20,-244 20,-244 14,-244 8,-238 8,-232 8,-232 8,-20 8,-20 8,-14 14,-8 20,-8"/>
<text text-anchor="middle" x="203.12" y="-231.45" font-family="Helvetica,sans-Serif" font-weight="bold" font-size="9.00">src</text>
</g>
<g id="clust2" class="cluster">
<title>cluster_src/app</title>
<path fill="#ffffff" stroke="black" stroke-width="2" d="M28,-16C28,-16 222,-16 222,-16 228,-16 234,-22 234,-28 234,-28 234,-116 234,-116 234,-122 228,-128 222,-128 222,-128 28,-128 28,-128 22,-128 16,-122 16,-116 16,-116 16,-28 16,-28 16,-22 22,-16 28,-16"/>
<text text-anchor="middle" x="125" y="-115.45" font-family="Helvetica,sans-Serif" font-weight="bold" font-size="9.00">app</text>
</g>
<g id="clust3" class="cluster">
<title>cluster_src/app/providers</title>
<path fill="#ffffff" stroke="black" stroke-width="2" d="M98,-50C98,-50 214,-50 214,-50 220,-50 226,-56 226,-62 226,-62 226,-90 226,-90 226,-96 220,-102 214,-102 214,-102 98,-102 98,-102 92,-102 86,-96 86,-90 86,-90 86,-62 86,-62 86,-56 92,-50 98,-50"/>
<text text-anchor="middle" x="156" y="-89.45" font-family="Helvetica,sans-Serif" font-weight="bold" font-size="9.00">providers</text>
</g>
<g id="clust4" class="cluster">
<title>cluster_src/entities</title>
<path fill="#ffffff" stroke="black" stroke-width="2" d="M254,-95C254,-95 300.25,-95 300.25,-95 306.25,-95 312.25,-101 312.25,-107 312.25,-107 312.25,-135 312.25,-135 312.25,-141 306.25,-147 300.25,-147 300.25,-147 254,-147 254,-147 248,-147 242,-141 242,-135 242,-135 242,-107 242,-107 242,-101 248,-95 254,-95"/>
<text text-anchor="middle" x="277.12" y="-134.45" font-family="Helvetica,sans-Serif" font-weight="bold" font-size="9.00">entities</text>
</g>
<g id="clust5" class="cluster">
<title>cluster_src/pages</title>
<path fill="#ffffff" stroke="black" stroke-width="2" d="M168,-136C168,-136 214,-136 214,-136 220,-136 226,-142 226,-148 226,-148 226,-206 226,-206 226,-212 220,-218 214,-218 214,-218 168,-218 168,-218 162,-218 156,-212 156,-206 156,-206 156,-148 156,-148 156,-142 162,-136 168,-136"/>
<text text-anchor="middle" x="191" y="-205.45" font-family="Helvetica,sans-Serif" font-weight="bold" font-size="9.00">pages</text>
</g>
<g id="clust6" class="cluster">
<title>cluster_src/shared</title>
<path fill="#ffffff" stroke="black" stroke-width="2" d="M332.25,-102C332.25,-102 378.25,-102 378.25,-102 384.25,-102 390.25,-108 390.25,-114 390.25,-114 390.25,-202 390.25,-202 390.25,-208 384.25,-214 378.25,-214 378.25,-214 332.25,-214 332.25,-214 326.25,-214 320.25,-208 320.25,-202 320.25,-202 320.25,-114 320.25,-114 320.25,-108 326.25,-102 332.25,-102"/>
<text text-anchor="middle" x="355.25" y="-201.45" font-family="Helvetica,sans-Serif" font-weight="bold" font-size="9.00">shared</text>
</g>
<!-- src/app/entry.css -->
<g id="node1" class="node">
<title>src/app/entry.css</title>
<g id="a_node1"><a xlink:href="src/app/entry.css" xlink:title="entry.css">
<path fill="#ffffcc" stroke="black" d="M142.08,-41.88C142.08,-41.88 99.92,-41.88 99.92,-41.88 96.96,-41.88 94,-38.92 94,-35.96 94,-35.96 94,-30.04 94,-30.04 94,-27.08 96.96,-24.12 99.92,-24.12 99.92,-24.12 142.08,-24.12 142.08,-24.12 145.04,-24.12 148,-27.08 148,-30.04 148,-30.04 148,-35.96 148,-35.96 148,-38.92 145.04,-41.88 142.08,-41.88"/>
<text text-anchor="start" x="103" y="-29.32" font-family="Helvetica,sans-Serif" font-size="9.00">entry.css</text>
</a>
</g>
</g>
<!-- src/app/entry.tsx -->
<g id="node2" class="node">
<title>src/app/entry.tsx</title>
<g id="a_node2"><a xlink:href="src/app/entry.tsx" xlink:title="entry.tsx">
<path fill="#bbfeff" stroke="black" d="M72.08,-58.88C72.08,-58.88 29.92,-58.88 29.92,-58.88 26.96,-58.88 24,-55.92 24,-52.96 24,-52.96 24,-47.04 24,-47.04 24,-44.08 26.96,-41.12 29.92,-41.12 29.92,-41.12 72.08,-41.12 72.08,-41.12 75.04,-41.12 78,-44.08 78,-47.04 78,-47.04 78,-52.96 78,-52.96 78,-55.92 75.04,-58.88 72.08,-58.88"/>
<text text-anchor="start" x="34.12" y="-46.33" font-family="Helvetica,sans-Serif" font-size="9.00">entry.tsx</text>
</a>
</g>
</g>
<!-- src/app/entry.tsx&#45;&gt;src/app/entry.css -->
<g id="edge1" class="edge">
<title>src/app/entry.tsx&#45;&gt;src/app/entry.css</title>
<path fill="none" stroke="#000000" stroke-width="2" stroke-opacity="0.200000" d="M78.49,-43.38C80.7,-42.82 82.97,-42.26 85.24,-41.69"/>
<polygon fill="#000000" fill-opacity="0.200000" stroke="#000000" stroke-width="2" stroke-opacity="0.200000" points="85.67,-43.75 90.99,-40.25 84.66,-39.67 85.67,-43.75"/>
</g>
<!-- src/app/providers/router/ -->
<g id="node3" class="node">
<title>src/app/providers/router/</title>
<g id="a_node3"><a xlink:href="src/app/providers/router/" xlink:title="router">
<polygon fill="#ffffcc" stroke="black" points="148,-75.88 95.97,-75.88 94,-73.9 94,-58.12 146.03,-58.12 148,-60.1 148,-75.88"/>
<polyline fill="none" stroke="black" points="146.03,-73.9 94,-73.9"/>
<polyline fill="none" stroke="black" points="146.03,-73.9 146.03,-58.12"/>
<polyline fill="none" stroke="black" points="146.03,-73.9 148,-75.88"/>
<text text-anchor="start" x="109" y="-63.33" font-family="Helvetica,sans-Serif" font-size="9.00">router</text>
</a>
</g>
</g>
<!-- src/app/entry.tsx&#45;&gt;src/app/providers/router/ -->
<g id="edge2" class="edge">
<title>src/app/entry.tsx&#45;&gt;src/app/providers/router/</title>
<path fill="none" stroke="#000000" stroke-width="2" stroke-opacity="0.200000" d="M78.49,-56.62C80.7,-57.18 82.97,-57.74 85.24,-58.31"/>
<polygon fill="#000000" fill-opacity="0.200000" stroke="#000000" stroke-width="2" stroke-opacity="0.200000" points="84.66,-60.33 90.99,-59.75 85.67,-56.25 84.66,-60.33"/>
</g>
<!-- src/app/providers/layout/ -->
<g id="node4" class="node">
<title>src/app/providers/layout/</title>
<g id="a_node4"><a xlink:href="src/app/providers/layout/" xlink:title="layout">
<polygon fill="#ffffcc" stroke="black" points="218,-75.88 165.97,-75.88 164,-73.9 164,-58.12 216.03,-58.12 218,-60.1 218,-75.88"/>
<polyline fill="none" stroke="black" points="216.03,-73.9 164,-73.9"/>
<polyline fill="none" stroke="black" points="216.03,-73.9 216.03,-58.12"/>
<polyline fill="none" stroke="black" points="216.03,-73.9 218,-75.88"/>
<text text-anchor="start" x="178.62" y="-63.33" font-family="Helvetica,sans-Serif" font-size="9.00">layout</text>
</a>
</g>
</g>
<!-- src/app/providers/router/&#45;&gt;src/app/providers/layout/ -->
<g id="edge3" class="edge">
<title>src/app/providers/router/&#45;&gt;src/app/providers/layout/</title>
<path fill="none" stroke="#000000" stroke-width="2" stroke-opacity="0.200000" d="M148.49,-67C150.7,-67 152.97,-67 155.24,-67"/>
<polygon fill="#000000" fill-opacity="0.200000" stroke="#000000" stroke-width="2" stroke-opacity="0.200000" points="154.9,-69.1 160.9,-67 154.9,-64.9 154.9,-69.1"/>
</g>
<!-- src/pages/home/ -->
<g id="node5" class="node">
<title>src/pages/home/</title>
<g id="a_node5"><a xlink:href="src/pages/home/" xlink:title="home">
<polygon fill="#ffffcc" stroke="black" points="218,-161.88 165.97,-161.88 164,-159.9 164,-144.12 216.03,-144.12 218,-146.1 218,-161.88"/>
<polyline fill="none" stroke="black" points="216.03,-159.9 164,-159.9"/>
<polyline fill="none" stroke="black" points="216.03,-159.9 216.03,-144.12"/>
<polyline fill="none" stroke="black" points="216.03,-159.9 218,-161.88"/>
<text text-anchor="start" x="179.38" y="-149.32" font-family="Helvetica,sans-Serif" font-size="9.00">home</text>
</a>
</g>
</g>
<!-- src/app/providers/router/&#45;&gt;src/pages/home/ -->
<g id="edge4" class="edge">
<title>src/app/providers/router/&#45;&gt;src/pages/home/</title>
<path fill="none" stroke="#000000" stroke-width="2" stroke-opacity="0.200000" d="M129.28,-76.2C140.73,-90.69 163.11,-118.99 177.27,-136.9"/>
<polygon fill="#000000" fill-opacity="0.200000" stroke="#000000" stroke-width="2" stroke-opacity="0.200000" points="175.53,-138.08 180.9,-141.49 178.82,-135.48 175.53,-138.08"/>
</g>
<!-- src/pages/profile/ -->
<g id="node6" class="node">
<title>src/pages/profile/</title>
<g id="a_node6"><a xlink:href="src/pages/profile/" xlink:title="profile">
<polygon fill="#ffffcc" stroke="black" points="218,-191.88 165.97,-191.88 164,-189.9 164,-174.12 216.03,-174.12 218,-176.1 218,-191.88"/>
<polyline fill="none" stroke="black" points="216.03,-189.9 164,-189.9"/>
<polyline fill="none" stroke="black" points="216.03,-189.9 216.03,-174.12"/>
<polyline fill="none" stroke="black" points="216.03,-189.9 218,-191.88"/>
<text text-anchor="start" x="178.25" y="-179.32" font-family="Helvetica,sans-Serif" font-size="9.00">profile</text>
</a>
</g>
</g>
<!-- src/app/providers/router/&#45;&gt;src/pages/profile/ -->
<g id="edge5" class="edge">
<title>src/app/providers/router/&#45;&gt;src/pages/profile/</title>
<path fill="none" stroke="#000000" stroke-width="2" stroke-opacity="0.200000" d="M122.67,-76.33C124.54,-95.78 131.42,-141.08 156,-168 156.27,-168.3 156.55,-168.59 156.84,-168.88"/>
<polygon fill="#000000" fill-opacity="0.200000" stroke="#000000" stroke-width="2" stroke-opacity="0.200000" points="155.19,-170.26 161.22,-172.27 157.76,-166.93 155.19,-170.26"/>
</g>
<!-- src/entities/pokemon/ -->
<g id="node7" class="node">
<title>src/entities/pokemon/</title>
<g id="a_node7"><a xlink:href="src/entities/pokemon/" xlink:title="pokemon">
<polygon fill="#ffffcc" stroke="black" points="304.25,-120.88 251.97,-120.88 250,-118.9 250,-103.12 302.28,-103.12 304.25,-105.1 304.25,-120.88"/>
<polyline fill="none" stroke="black" points="302.28,-118.9 250,-118.9"/>
<polyline fill="none" stroke="black" points="302.28,-118.9 302.28,-103.12"/>
<polyline fill="none" stroke="black" points="302.28,-118.9 304.25,-120.88"/>
<text text-anchor="start" x="258" y="-108.33" font-family="Helvetica,sans-Serif" font-size="9.00">pokemon</text>
</a>
</g>
</g>
<!-- src/pages/home/&#45;&gt;src/entities/pokemon/ -->
<g id="edge7" class="edge">
<title>src/pages/home/&#45;&gt;src/entities/pokemon/</title>
<path fill="none" stroke="#000000" stroke-width="2" stroke-opacity="0.200000" d="M211.09,-143.7C222.38,-138.19 236.86,-131.13 249.29,-125.08"/>
<polygon fill="#000000" fill-opacity="0.200000" stroke="#000000" stroke-width="2" stroke-opacity="0.200000" points="249.92,-127.11 254.39,-122.59 248.08,-123.33 249.92,-127.11"/>
</g>
<!-- src/shared/ui/ -->
<g id="node9" class="node">
<title>src/shared/ui/</title>
<g id="a_node9"><a xlink:href="src/shared/ui/" xlink:title="ui">
<polygon fill="#ffffcc" stroke="black" points="382.25,-157.88 330.22,-157.88 328.25,-155.9 328.25,-140.12 380.28,-140.12 382.25,-142.1 382.25,-157.88"/>
<polyline fill="none" stroke="black" points="380.28,-155.9 328.25,-155.9"/>
<polyline fill="none" stroke="black" points="380.28,-155.9 380.28,-140.12"/>
<polyline fill="none" stroke="black" points="380.28,-155.9 382.25,-157.88"/>
<text text-anchor="start" x="351.5" y="-145.32" font-family="Helvetica,sans-Serif" font-size="9.00">ui</text>
</a>
</g>
</g>
<!-- src/pages/home/&#45;&gt;src/shared/ui/ -->
<g id="edge8" class="edge">
<title>src/pages/home/&#45;&gt;src/shared/ui/</title>
<path fill="none" stroke="#000000" stroke-width="2" stroke-opacity="0.200000" d="M218.43,-152.35C245.77,-151.67 288.63,-150.62 318.88,-149.87"/>
<polygon fill="#000000" fill-opacity="0.200000" stroke="#000000" stroke-width="2" stroke-opacity="0.200000" points="318.86,-151.97 324.81,-149.73 318.76,-147.77 318.86,-151.97"/>
</g>
<!-- src/shared/api/ -->
<g id="node8" class="node">
<title>src/shared/api/</title>
<g id="a_node8"><a xlink:href="src/shared/api/" xlink:title="api">
<polygon fill="#ffffcc" stroke="black" points="382.25,-127.88 330.22,-127.88 328.25,-125.9 328.25,-110.12 380.28,-110.12 382.25,-112.1 382.25,-127.88"/>
<polyline fill="none" stroke="black" points="380.28,-125.9 328.25,-125.9"/>
<polyline fill="none" stroke="black" points="380.28,-125.9 380.28,-110.12"/>
<polyline fill="none" stroke="black" points="380.28,-125.9 382.25,-127.88"/>
<text text-anchor="start" x="348.88" y="-115.33" font-family="Helvetica,sans-Serif" font-size="9.00">api</text>
</a>
</g>
</g>
<!-- src/entities/pokemon/&#45;&gt;src/shared/api/ -->
<g id="edge6" class="edge">
<title>src/entities/pokemon/&#45;&gt;src/shared/api/</title>
<path fill="none" stroke="#000000" stroke-width="2" stroke-opacity="0.200000" d="M304.75,-114.45C309.3,-114.87 314.08,-115.31 318.81,-115.74"/>
<polygon fill="#000000" fill-opacity="0.200000" stroke="#000000" stroke-width="2" stroke-opacity="0.200000" points="318.59,-117.83 324.75,-116.29 318.97,-113.65 318.59,-117.83"/>
</g>
<!-- src/shared/lib/ -->
<g id="node10" class="node">
<title>src/shared/lib/</title>
<g id="a_node10"><a xlink:href="src/shared/lib/" xlink:title="lib">
<polygon fill="#ccffcc" stroke="black" points="382.25,-187.88 330.22,-187.88 328.25,-185.9 328.25,-170.12 380.28,-170.12 382.25,-172.1 382.25,-187.88"/>
<polyline fill="none" stroke="black" points="380.28,-185.9 328.25,-185.9"/>
<polyline fill="none" stroke="black" points="380.28,-185.9 380.28,-170.12"/>
<polyline fill="none" stroke="black" points="380.28,-185.9 382.25,-187.88"/>
<text text-anchor="start" x="350.38" y="-175.32" font-family="Helvetica,sans-Serif" font-size="9.00">lib</text>
</a>
</g>
</g>
</g>
</svg>
