<?xml version="1.0" encoding="UTF-8" standalone="no"?>
<!DOCTYPE svg PUBLIC "-//W3C//DTD SVG 1.1//EN"
 "http://www.w3.org/Graphics/SVG/1.1/DTD/svg11.dtd">
<!-- Generated by graphviz version 14.1.2 (20260124.0452)
 -->
<!-- Title: dependency&#45;cruiser output Pages: 1 -->
<svg width="1131pt" height="536pt"
 viewBox="0.00 0.00 1131.00 536.00" xmlns="http://www.w3.org/2000/svg" xmlns:xlink="http://www.w3.org/1999/xlink">
<g id="graph0" class="graph" transform="scale(1 1) rotate(0) translate(4 532)">
<title>dependency&#45;cruiser output</title>
<polygon fill="white" stroke="none" points="-4,4 -4,-532 1126.62,-532 1126.62,4 -4,4"/>
<g id="clust1" class="cluster">
<title>cluster_src</title>
<path fill="#ffffff" stroke="black" stroke-width="2" d="M20,-8C20,-8 1102.62,-8 1102.62,-8 1108.62,-8 1114.62,-14 1114.62,-20 1114.62,-20 1114.62,-508 1114.62,-508 1114.62,-514 1108.62,-520 1102.62,-520 1102.62,-520 20,-520 20,-520 14,-520 8,-514 8,-508 8,-508 8,-20 8,-20 8,-14 14,-8 20,-8"/>
<text xml:space="preserve" text-anchor="middle" x="561.31" y="-507.45" font-family="Helvetica,sans-Serif" font-weight="bold" font-size="9.00">src</text>
</g>
<g id="clust2" class="cluster">
<title>cluster_src/app</title>
<path fill="#ffffff" stroke="black" stroke-width="2" d="M28,-16C28,-16 342.5,-16 342.5,-16 348.5,-16 354.5,-22 354.5,-28 354.5,-28 354.5,-150 354.5,-150 354.5,-156 348.5,-162 342.5,-162 342.5,-162 28,-162 28,-162 22,-162 16,-156 16,-150 16,-150 16,-28 16,-28 16,-22 22,-16 28,-16"/>
<text xml:space="preserve" text-anchor="middle" x="185.25" y="-149.45" font-family="Helvetica,sans-Serif" font-weight="bold" font-size="9.00">app</text>
</g>
<g id="clust3" class="cluster">
<title>cluster_src/app/providers</title>
<path fill="#ffffff" stroke="black" stroke-width="2" d="M98,-50C98,-50 334.5,-50 334.5,-50 340.5,-50 346.5,-56 346.5,-62 346.5,-62 346.5,-124 346.5,-124 346.5,-130 340.5,-136 334.5,-136 334.5,-136 98,-136 98,-136 92,-136 86,-130 86,-124 86,-124 86,-62 86,-62 86,-56 92,-50 98,-50"/>
<text xml:space="preserve" text-anchor="middle" x="216.25" y="-123.45" font-family="Helvetica,sans-Serif" font-weight="bold" font-size="9.00">providers</text>
</g>
<g id="clust4" class="cluster">
<title>cluster_src/app/providers/layout</title>
<path fill="#ffffff" stroke="black" stroke-width="2" d="M221.75,-58C221.75,-58 326.5,-58 326.5,-58 332.5,-58 338.5,-64 338.5,-70 338.5,-70 338.5,-98 338.5,-98 338.5,-104 332.5,-110 326.5,-110 326.5,-110 221.75,-110 221.75,-110 215.75,-110 209.75,-104 209.75,-98 209.75,-98 209.75,-70 209.75,-70 209.75,-64 215.75,-58 221.75,-58"/>
<text xml:space="preserve" text-anchor="middle" x="274.12" y="-97.45" font-family="Helvetica,sans-Serif" font-weight="bold" font-size="9.00">layout</text>
</g>
<g id="clust5" class="cluster">
<title>cluster_src/app/providers/router</title>
<path fill="#ffffff" stroke="black" stroke-width="2" d="M106,-58C106,-58 189.75,-58 189.75,-58 195.75,-58 201.75,-64 201.75,-70 201.75,-70 201.75,-98 201.75,-98 201.75,-104 195.75,-110 189.75,-110 189.75,-110 106,-110 106,-110 100,-110 94,-104 94,-98 94,-98 94,-70 94,-70 94,-64 100,-58 106,-58"/>
<text xml:space="preserve" text-anchor="middle" x="147.88" y="-97.45" font-family="Helvetica,sans-Serif" font-weight="bold" font-size="9.00">router</text>
</g>
<g id="clust6" class="cluster">
<title>cluster_src/entities</title>
<path fill="#ffffff" stroke="black" stroke-width="2" d="M554.5,-16C554.5,-16 957.62,-16 957.62,-16 963.62,-16 969.62,-22 969.62,-28 969.62,-28 969.62,-204 969.62,-204 969.62,-210 963.62,-216 957.62,-216 957.62,-216 554.5,-216 554.5,-216 548.5,-216 542.5,-210 542.5,-204 542.5,-204 542.5,-28 542.5,-28 542.5,-22 548.5,-16 554.5,-16"/>
<text xml:space="preserve" text-anchor="middle" x="756.06" y="-203.45" font-family="Helvetica,sans-Serif" font-weight="bold" font-size="9.00">entities</text>
</g>
<g id="clust7" class="cluster">
<title>cluster_src/entities/pokemon</title>
<path fill="#ffffff" stroke="black" stroke-width="2" d="M562.5,-24C562.5,-24 949.62,-24 949.62,-24 955.62,-24 961.62,-30 961.62,-36 961.62,-36 961.62,-178 961.62,-178 961.62,-184 955.62,-190 949.62,-190 949.62,-190 562.5,-190 562.5,-190 556.5,-190 550.5,-184 550.5,-178 550.5,-178 550.5,-36 550.5,-36 550.5,-30 556.5,-24 562.5,-24"/>
<text xml:space="preserve" text-anchor="middle" x="756.06" y="-177.45" font-family="Helvetica,sans-Serif" font-weight="bold" font-size="9.00">pokemon</text>
</g>
<g id="clust8" class="cluster">
<title>cluster_src/entities/pokemon/api</title>
<path fill="#ffffff" stroke="black" stroke-width="2" d="M632.5,-112C632.5,-112 729.75,-112 729.75,-112 735.75,-112 741.75,-118 741.75,-124 741.75,-124 741.75,-152 741.75,-152 741.75,-158 735.75,-164 729.75,-164 729.75,-164 632.5,-164 632.5,-164 626.5,-164 620.5,-158 620.5,-152 620.5,-152 620.5,-124 620.5,-124 620.5,-118 626.5,-112 632.5,-112"/>
<text xml:space="preserve" text-anchor="middle" x="681.12" y="-151.45" font-family="Helvetica,sans-Serif" font-weight="bold" font-size="9.00">api</text>
</g>
<g id="clust9" class="cluster">
<title>cluster_src/entities/pokemon/lib</title>
<path fill="#ffffff" stroke="black" stroke-width="2" d="M761.75,-112C761.75,-112 850,-112 850,-112 856,-112 862,-118 862,-124 862,-124 862,-152 862,-152 862,-158 856,-164 850,-164 850,-164 761.75,-164 761.75,-164 755.75,-164 749.75,-158 749.75,-152 749.75,-152 749.75,-124 749.75,-124 749.75,-118 755.75,-112 761.75,-112"/>
<text xml:space="preserve" text-anchor="middle" x="805.88" y="-151.45" font-family="Helvetica,sans-Serif" font-weight="bold" font-size="9.00">lib</text>
</g>
<g id="clust10" class="cluster">
<title>cluster_src/entities/pokemon/model</title>
<path fill="#ffffff" stroke="black" stroke-width="2" d="M895.62,-32C895.62,-32 941.62,-32 941.62,-32 947.62,-32 953.62,-38 953.62,-44 953.62,-44 953.62,-102 953.62,-102 953.62,-108 947.62,-114 941.62,-114 941.62,-114 895.62,-114 895.62,-114 889.62,-114 883.62,-108 883.62,-102 883.62,-102 883.62,-44 883.62,-44 883.62,-38 889.62,-32 895.62,-32"/>
<text xml:space="preserve" text-anchor="middle" x="918.62" y="-101.45" font-family="Helvetica,sans-Serif" font-weight="bold" font-size="9.00">model</text>
</g>
<g id="clust11" class="cluster">
<title>cluster_src/entities/pokemon/ui</title>
<path fill="#ffffff" stroke="black" stroke-width="2" d="M640.75,-52C640.75,-52 855.62,-52 855.62,-52 861.62,-52 867.62,-58 867.62,-64 867.62,-64 867.62,-92 867.62,-92 867.62,-98 861.62,-104 855.62,-104 855.62,-104 640.75,-104 640.75,-104 634.75,-104 628.75,-98 628.75,-92 628.75,-92 628.75,-64 628.75,-64 628.75,-58 634.75,-52 640.75,-52"/>
<text xml:space="preserve" text-anchor="middle" x="748.19" y="-91.45" font-family="Helvetica,sans-Serif" font-weight="bold" font-size="9.00">ui</text>
</g>
<g id="clust12" class="cluster">
<title>cluster_src/pages</title>
<path fill="#ffffff" stroke="black" stroke-width="2" d="M243.12,-170C243.12,-170 522.5,-170 522.5,-170 528.5,-170 534.5,-176 534.5,-182 534.5,-182 534.5,-372 534.5,-372 534.5,-378 528.5,-384 522.5,-384 522.5,-384 243.12,-384 243.12,-384 237.12,-384 231.12,-378 231.12,-372 231.12,-372 231.12,-182 231.12,-182 231.12,-176 237.12,-170 243.12,-170"/>
<text xml:space="preserve" text-anchor="middle" x="382.81" y="-371.45" font-family="Helvetica,sans-Serif" font-weight="bold" font-size="9.00">pages</text>
</g>
<g id="clust13" class="cluster">
<title>cluster_src/pages/home</title>
<path fill="#ffffff" stroke="black" stroke-width="2" d="M251.12,-178C251.12,-178 514.5,-178 514.5,-178 520.5,-178 526.5,-184 526.5,-190 526.5,-190 526.5,-252 526.5,-252 526.5,-258 520.5,-264 514.5,-264 514.5,-264 251.12,-264 251.12,-264 245.12,-264 239.12,-258 239.12,-252 239.12,-252 239.12,-190 239.12,-190 239.12,-184 245.12,-178 251.12,-178"/>
<text xml:space="preserve" text-anchor="middle" x="382.81" y="-251.45" font-family="Helvetica,sans-Serif" font-weight="bold" font-size="9.00">home</text>
</g>
<g id="clust14" class="cluster">
<title>cluster_src/pages/home/model</title>
<path fill="#ffffff" stroke="black" stroke-width="2" d="M460.5,-186C460.5,-186 506.5,-186 506.5,-186 512.5,-186 518.5,-192 518.5,-198 518.5,-198 518.5,-226 518.5,-226 518.5,-232 512.5,-238 506.5,-238 506.5,-238 460.5,-238 460.5,-238 454.5,-238 448.5,-232 448.5,-226 448.5,-226 448.5,-198 448.5,-198 448.5,-192 454.5,-186 460.5,-186"/>
<text xml:space="preserve" text-anchor="middle" x="483.5" y="-225.45" font-family="Helvetica,sans-Serif" font-weight="bold" font-size="9.00">model</text>
</g>
<g id="clust15" class="cluster">
<title>cluster_src/pages/home/ui</title>
<path fill="#ffffff" stroke="black" stroke-width="2" d="M374.5,-186C374.5,-186 420.5,-186 420.5,-186 426.5,-186 432.5,-192 432.5,-198 432.5,-198 432.5,-226 432.5,-226 432.5,-232 426.5,-238 420.5,-238 420.5,-238 374.5,-238 374.5,-238 368.5,-238 362.5,-232 362.5,-226 362.5,-226 362.5,-198 362.5,-198 362.5,-192 368.5,-186 374.5,-186"/>
<text xml:space="preserve" text-anchor="middle" x="397.5" y="-225.45" font-family="Helvetica,sans-Serif" font-weight="bold" font-size="9.00">ui</text>
</g>
<g id="clust16" class="cluster">
<title>cluster_src/pages/profile</title>
<path fill="#ffffff" stroke="black" stroke-width="2" d="M251.12,-272C251.12,-272 428.5,-272 428.5,-272 434.5,-272 440.5,-278 440.5,-284 440.5,-284 440.5,-346 440.5,-346 440.5,-352 434.5,-358 428.5,-358 428.5,-358 251.12,-358 251.12,-358 245.12,-358 239.12,-352 239.12,-346 239.12,-346 239.12,-284 239.12,-284 239.12,-278 245.12,-272 251.12,-272"/>
<text xml:space="preserve" text-anchor="middle" x="339.81" y="-345.45" font-family="Helvetica,sans-Serif" font-weight="bold" font-size="9.00">profile</text>
</g>
<g id="clust17" class="cluster">
<title>cluster_src/pages/profile/ui</title>
<path fill="#ffffff" stroke="black" stroke-width="2" d="M374.5,-280C374.5,-280 420.5,-280 420.5,-280 426.5,-280 432.5,-286 432.5,-292 432.5,-292 432.5,-320 432.5,-320 432.5,-326 426.5,-332 420.5,-332 420.5,-332 374.5,-332 374.5,-332 368.5,-332 362.5,-326 362.5,-320 362.5,-320 362.5,-292 362.5,-292 362.5,-286 368.5,-280 374.5,-280"/>
<text xml:space="preserve" text-anchor="middle" x="397.5" y="-319.45" font-family="Helvetica,sans-Serif" font-weight="bold" font-size="9.00">ui</text>
</g>
<g id="clust18" class="cluster">
<title>cluster_src/shared</title>
<path fill="#ffffff" stroke="black" stroke-width="2" d="M887.62,-224C887.62,-224 1094.62,-224 1094.62,-224 1100.62,-224 1106.62,-230 1106.62,-236 1106.62,-236 1106.62,-482 1106.62,-482 1106.62,-488 1100.62,-494 1094.62,-494 1094.62,-494 887.62,-494 887.62,-494 881.62,-494 875.62,-488 875.62,-482 875.62,-482 875.62,-236 875.62,-236 875.62,-230 881.62,-224 887.62,-224"/>
<text xml:space="preserve" text-anchor="middle" x="991.12" y="-481.45" font-family="Helvetica,sans-Serif" font-weight="bold" font-size="9.00">shared</text>
</g>
<g id="clust19" class="cluster">
<title>cluster_src/shared/api</title>
<path fill="#ffffff" stroke="black" stroke-width="2" d="M895.62,-232C895.62,-232 1086.62,-232 1086.62,-232 1092.62,-232 1098.62,-238 1098.62,-244 1098.62,-244 1098.62,-336 1098.62,-336 1098.62,-342 1092.62,-348 1086.62,-348 1086.62,-348 895.62,-348 895.62,-348 889.62,-348 883.62,-342 883.62,-336 883.62,-336 883.62,-244 883.62,-244 883.62,-238 889.62,-232 895.62,-232"/>
<text xml:space="preserve" text-anchor="middle" x="991.12" y="-335.45" font-family="Helvetica,sans-Serif" font-weight="bold" font-size="9.00">api</text>
</g>
<g id="clust20" class="cluster">
<title>cluster_src/shared/api/pokemon</title>
<path fill="#ffffff" stroke="black" stroke-width="2" d="M989.62,-240C989.62,-240 1078.62,-240 1078.62,-240 1084.62,-240 1090.62,-246 1090.62,-252 1090.62,-252 1090.62,-310 1090.62,-310 1090.62,-316 1084.62,-322 1078.62,-322 1078.62,-322 989.62,-322 989.62,-322 983.62,-322 977.62,-316 977.62,-310 977.62,-310 977.62,-252 977.62,-252 977.62,-246 983.62,-240 989.62,-240"/>
<text xml:space="preserve" text-anchor="middle" x="1034.12" y="-309.45" font-family="Helvetica,sans-Serif" font-weight="bold" font-size="9.00">pokemon</text>
</g>
<g id="clust21" class="cluster">
<title>cluster_src/shared/lib</title>
<path fill="#ffffff" stroke="black" stroke-width="2" d="M895.62,-356C895.62,-356 941.62,-356 941.62,-356 947.62,-356 953.62,-362 953.62,-368 953.62,-368 953.62,-396 953.62,-396 953.62,-402 947.62,-408 941.62,-408 941.62,-408 895.62,-408 895.62,-408 889.62,-408 883.62,-402 883.62,-396 883.62,-396 883.62,-368 883.62,-368 883.62,-362 889.62,-356 895.62,-356"/>
<text xml:space="preserve" text-anchor="middle" x="918.62" y="-395.45" font-family="Helvetica,sans-Serif" font-weight="bold" font-size="9.00">lib</text>
</g>
<g id="clust22" class="cluster">
<title>cluster_src/shared/ui</title>
<path fill="#ffffff" stroke="black" stroke-width="2" d="M895.62,-416C895.62,-416 941.62,-416 941.62,-416 947.62,-416 953.62,-422 953.62,-428 953.62,-428 953.62,-456 953.62,-456 953.62,-462 947.62,-468 941.62,-468 941.62,-468 895.62,-468 895.62,-468 889.62,-468 883.62,-462 883.62,-456 883.62,-456 883.62,-428 883.62,-428 883.62,-422 889.62,-416 895.62,-416"/>
<text xml:space="preserve" text-anchor="middle" x="918.62" y="-455.45" font-family="Helvetica,sans-Serif" font-weight="bold" font-size="9.00">ui</text>
</g>
<!-- src/app/entry.css -->
<g id="node1" class="node">
<title>src/app/entry.css</title>
<g id="a_node1"><a xlink:href="src/app/entry.css" xlink:title="entry.css">
<path fill="#ffffcc" stroke="black" d="M168.96,-41.88C168.96,-41.88 126.79,-41.88 126.79,-41.88 123.83,-41.88 120.88,-38.92 120.88,-35.96 120.88,-35.96 120.88,-30.04 120.88,-30.04 120.88,-27.08 123.83,-24.12 126.79,-24.12 126.79,-24.12 168.96,-24.12 168.96,-24.12 171.92,-24.12 174.88,-27.08 174.88,-30.04 174.88,-30.04 174.88,-35.96 174.88,-35.96 174.88,-38.92 171.92,-41.88 168.96,-41.88"/>
<text xml:space="preserve" text-anchor="start" x="129.88" y="-29.32" font-family="Helvetica,sans-Serif" font-size="9.00">entry.css</text>
</a>
</g>
</g>
<!-- src/app/entry.tsx -->
<g id="node2" class="node">
<title>src/app/entry.tsx</title>
<g id="a_node2"><a xlink:href="src/app/entry.tsx" xlink:title="entry.tsx">
<path fill="#bbfeff" stroke="black" d="M72.08,-62.88C72.08,-62.88 29.92,-62.88 29.92,-62.88 26.96,-62.88 24,-59.92 24,-56.96 24,-56.96 24,-51.04 24,-51.04 24,-48.08 26.96,-45.12 29.92,-45.12 29.92,-45.12 72.08,-45.12 72.08,-45.12 75.04,-45.12 78,-48.08 78,-51.04 78,-51.04 78,-56.96 78,-56.96 78,-59.92 75.04,-62.88 72.08,-62.88"/>
<text xml:space="preserve" text-anchor="start" x="34.12" y="-50.33" font-family="Helvetica,sans-Serif" font-size="9.00">entry.tsx</text>
</a>
</g>
</g>
<!-- src/app/entry.tsx&#45;&gt;src/app/entry.css -->
<g id="edge1" class="edge">
<title>src/app/entry.tsx&#45;&gt;src/app/entry.css</title>
<path fill="none" stroke="#000000" stroke-width="2" stroke-opacity="0.200000" d="M78.43,-48.15C88.81,-45.85 100.88,-43.18 111.96,-40.73"/>
<polygon fill="#000000" fill-opacity="0.200000" stroke="#000000" stroke-width="2" stroke-opacity="0.200000" points="112.23,-42.82 117.63,-39.47 111.32,-38.72 112.23,-42.82"/>
</g>
<!-- src/app/providers/router/RouterProvider.tsx -->
<g id="node3" class="node">
<title>src/app/providers/router/RouterProvider.tsx</title>
<g id="a_node3"><a xlink:href="src/app/providers/router/RouterProvider.tsx" xlink:title="RouterProvider.tsx">
<path fill="#bbfeff" stroke="black" d="M187.83,-83.88C187.83,-83.88 107.92,-83.88 107.92,-83.88 104.96,-83.88 102,-80.92 102,-77.96 102,-77.96 102,-72.04 102,-72.04 102,-69.08 104.96,-66.12 107.92,-66.12 107.92,-66.12 187.83,-66.12 187.83,-66.12 190.79,-66.12 193.75,-69.08 193.75,-72.04 193.75,-72.04 193.75,-77.96 193.75,-77.96 193.75,-80.92 190.79,-83.88 187.83,-83.88"/>
<text xml:space="preserve" text-anchor="start" x="110" y="-71.33" font-family="Helvetica,sans-Serif" font-size="9.00">RouterProvider.tsx</text>
</a>
</g>
</g>
<!-- src/app/entry.tsx&#45;&gt;src/app/providers/router/RouterProvider.tsx -->
<g id="edge2" class="edge">
<title>src/app/entry.tsx&#45;&gt;src/app/providers/router/RouterProvider.tsx</title>
<path fill="none" stroke="#000000" stroke-width="2" stroke-opacity="0.200000" d="M78.35,-60.26C80.93,-60.85 83.51,-61.44 86,-62 88.6,-62.58 91.27,-63.18 93.97,-63.77"/>
<polygon fill="#000000" fill-opacity="0.200000" stroke="#000000" stroke-width="2" stroke-opacity="0.200000" points="93.36,-65.79 99.67,-65.02 94.26,-61.68 93.36,-65.79"/>
</g>
<!-- src/app/providers/layout/BaseLayoutProvider.tsx -->
<g id="node4" class="node">
<title>src/app/providers/layout/BaseLayoutProvider.tsx</title>
<g id="a_node4"><a xlink:href="src/app/providers/layout/BaseLayoutProvider.tsx" xlink:title="BaseLayoutProvider.tsx">
<path fill="#bbfeff" stroke="black" d="M324.58,-83.88C324.58,-83.88 223.67,-83.88 223.67,-83.88 220.71,-83.88 217.75,-80.92 217.75,-77.96 217.75,-77.96 217.75,-72.04 217.75,-72.04 217.75,-69.08 220.71,-66.12 223.67,-66.12 223.67,-66.12 324.58,-66.12 324.58,-66.12 327.54,-66.12 330.5,-69.08 330.5,-72.04 330.5,-72.04 330.5,-77.96 330.5,-77.96 330.5,-80.92 327.54,-83.88 324.58,-83.88"/>
<text xml:space="preserve" text-anchor="start" x="225.75" y="-71.33" font-family="Helvetica,sans-Serif" font-size="9.00">BaseLayoutProvider.tsx</text>
</a>
</g>
</g>
<!-- src/app/providers/router/RouterProvider.tsx&#45;&gt;src/app/providers/layout/BaseLayoutProvider.tsx -->
<g id="edge3" class="edge">
<title>src/app/providers/router/RouterProvider.tsx&#45;&gt;src/app/providers/layout/BaseLayoutProvider.tsx</title>
<path fill="none" stroke="#000000" stroke-width="2" stroke-opacity="0.200000" d="M194.08,-75C198.85,-75 203.77,-75 208.7,-75"/>
<polygon fill="#000000" fill-opacity="0.200000" stroke="#000000" stroke-width="2" stroke-opacity="0.200000" points="208.55,-77.1 214.55,-75 208.55,-72.9 208.55,-77.1"/>
</g>
<!-- src/pages/home/index.ts -->
<g id="node5" class="node">
<title>src/pages/home/index.ts</title>
<g id="a_node5"><a xlink:href="src/pages/home/index.ts" xlink:title="index.ts">
<path fill="#ddfeff" stroke="black" d="M295.21,-207.88C295.21,-207.88 253.04,-207.88 253.04,-207.88 250.08,-207.88 247.12,-204.92 247.12,-201.96 247.12,-201.96 247.12,-196.04 247.12,-196.04 247.12,-193.08 250.08,-190.12 253.04,-190.12 253.04,-190.12 295.21,-190.12 295.21,-190.12 298.17,-190.12 301.12,-193.08 301.12,-196.04 301.12,-196.04 301.12,-201.96 301.12,-201.96 301.12,-204.92 298.17,-207.88 295.21,-207.88"/>
<text xml:space="preserve" text-anchor="start" x="258.38" y="-195.32" font-family="Helvetica,sans-Serif" font-size="9.00">index.ts</text>
</a>
</g>
</g>
<!-- src/app/providers/router/RouterProvider.tsx&#45;&gt;src/pages/home/index.ts -->
<g id="edge4" class="edge">
<title>src/app/providers/router/RouterProvider.tsx&#45;&gt;src/pages/home/index.ts</title>
<path fill="none" stroke="#000000" stroke-width="2" stroke-opacity="0.200000" d="M158.21,-84.32C179.45,-105.52 231.56,-157.52 257.68,-183.58"/>
<polygon fill="#000000" fill-opacity="0.200000" stroke="#000000" stroke-width="2" stroke-opacity="0.200000" points="256.14,-185.02 261.87,-187.77 259.11,-182.05 256.14,-185.02"/>
</g>
<!-- src/pages/profile/index.ts -->
<g id="node6" class="node">
<title>src/pages/profile/index.ts</title>
<g id="a_node6"><a xlink:href="src/pages/profile/index.ts" xlink:title="index.ts">
<path fill="#ddfeff" stroke="black" d="M295.21,-301.88C295.21,-301.88 253.04,-301.88 253.04,-301.88 250.08,-301.88 247.12,-298.92 247.12,-295.96 247.12,-295.96 247.12,-290.04 247.12,-290.04 247.12,-287.08 250.08,-284.12 253.04,-284.12 253.04,-284.12 295.21,-284.12 295.21,-284.12 298.17,-284.12 301.12,-287.08 301.12,-290.04 301.12,-290.04 301.12,-295.96 301.12,-295.96 301.12,-298.92 298.17,-301.88 295.21,-301.88"/>
<text xml:space="preserve" text-anchor="start" x="258.38" y="-289.32" font-family="Helvetica,sans-Serif" font-size="9.00">index.ts</text>
</a>
</g>
</g>
<!-- src/app/providers/router/RouterProvider.tsx&#45;&gt;src/pages/profile/index.ts -->
<g id="edge5" class="edge">
<title>src/app/providers/router/RouterProvider.tsx&#45;&gt;src/pages/profile/index.ts</title>
<path fill="none" stroke="#000000" stroke-width="2" stroke-opacity="0.200000" d="M149.16,-84.36C150.58,-114.77 159.06,-211.95 209.75,-267 217.3,-275.2 227.82,-280.88 238.12,-284.79"/>
<polygon fill="#000000" fill-opacity="0.200000" stroke="#000000" stroke-width="2" stroke-opacity="0.200000" points="237.43,-286.77 243.79,-286.7 238.78,-282.79 237.43,-286.77"/>
</g>
<!-- src/pages/home/ui/Page.tsx -->
<g id="node15" class="node">
<title>src/pages/home/ui/Page.tsx</title>
<g id="a_node15"><a xlink:href="src/pages/home/ui/Page.tsx" xlink:title="Page.tsx">
<path fill="#bbfeff" stroke="black" d="M418.58,-211.88C418.58,-211.88 376.42,-211.88 376.42,-211.88 373.46,-211.88 370.5,-208.92 370.5,-205.96 370.5,-205.96 370.5,-200.04 370.5,-200.04 370.5,-197.08 373.46,-194.12 376.42,-194.12 376.42,-194.12 418.58,-194.12 418.58,-194.12 421.54,-194.12 424.5,-197.08 424.5,-200.04 424.5,-200.04 424.5,-205.96 424.5,-205.96 424.5,-208.92 421.54,-211.88 418.58,-211.88"/>
<text xml:space="preserve" text-anchor="start" x="379.88" y="-199.32" font-family="Helvetica,sans-Serif" font-size="9.00">Page.tsx</text>
</a>
</g>
</g>
<!-- src/pages/home/index.ts&#45;&gt;src/pages/home/ui/Page.tsx -->
<g id="edge16" class="edge">
<title>src/pages/home/index.ts&#45;&gt;src/pages/home/ui/Page.tsx</title>
<path fill="none" stroke="#000000" stroke-width="2" stroke-opacity="0.200000" d="M301.46,-199.87C319.59,-200.47 343.83,-201.26 363.28,-201.91"/>
<polygon fill="#000000" fill-opacity="0.200000" stroke="#000000" stroke-width="2" stroke-opacity="0.200000" points="369.15,-204.2 363.22,-201.9 369.28,-200 369.15,-204.2"/>
</g>
<!-- src/pages/profile/ui/Page.tsx -->
<g id="node18" class="node">
<title>src/pages/profile/ui/Page.tsx</title>
<g id="a_node18"><a xlink:href="src/pages/profile/ui/Page.tsx" xlink:title="Page.tsx">
<path fill="#bbfeff" stroke="black" d="M418.58,-305.88C418.58,-305.88 376.42,-305.88 376.42,-305.88 373.46,-305.88 370.5,-302.92 370.5,-299.96 370.5,-299.96 370.5,-294.04 370.5,-294.04 370.5,-291.08 373.46,-288.12 376.42,-288.12 376.42,-288.12 418.58,-288.12 418.58,-288.12 421.54,-288.12 424.5,-291.08 424.5,-294.04 424.5,-294.04 424.5,-299.96 424.5,-299.96 424.5,-302.92 421.54,-305.88 418.58,-305.88"/>
<text xml:space="preserve" text-anchor="start" x="379.88" y="-293.32" font-family="Helvetica,sans-Serif" font-size="9.00">Page.tsx</text>
</a>
</g>
</g>
<!-- src/pages/profile/index.ts&#45;&gt;src/pages/profile/ui/Page.tsx -->
<g id="edge21" class="edge">
<title>src/pages/profile/index.ts&#45;&gt;src/pages/profile/ui/Page.tsx</title>
<path fill="none" stroke="#000000" stroke-width="2" stroke-opacity="0.200000" d="M301.46,-293.87C319.59,-294.47 343.83,-295.26 363.28,-295.91"/>
<polygon fill="#000000" fill-opacity="0.200000" stroke="#000000" stroke-width="2" stroke-opacity="0.200000" points="369.15,-298.2 363.22,-295.9 369.28,-294 369.15,-298.2"/>
</g>
<!-- src/entities/pokemon/api/queryPokemonById.ts -->
<g id="node7" class="node">
<title>src/entities/pokemon/api/queryPokemonById.ts</title>
<g id="a_node7"><a xlink:href="src/entities/pokemon/api/queryPokemonById.ts" xlink:title="queryPokemonById.ts">
<path fill="#ddfeff" stroke="black" d="M727.83,-137.88C727.83,-137.88 634.42,-137.88 634.42,-137.88 631.46,-137.88 628.5,-134.92 628.5,-131.96 628.5,-131.96 628.5,-126.04 628.5,-126.04 628.5,-123.08 631.46,-120.12 634.42,-120.12 634.42,-120.12 727.83,-120.12 727.83,-120.12 730.79,-120.12 733.75,-123.08 733.75,-126.04 733.75,-126.04 733.75,-131.96 733.75,-131.96 733.75,-134.92 730.79,-137.88 727.83,-137.88"/>
<text xml:space="preserve" text-anchor="start" x="636.5" y="-125.33" font-family="Helvetica,sans-Serif" font-size="9.00">queryPokemonById.ts</text>
</a>
</g>
</g>
<!-- src/entities/pokemon/lib/mapPokemonDto.ts -->
<g id="node8" class="node">
<title>src/entities/pokemon/lib/mapPokemonDto.ts</title>
<g id="a_node8"><a xlink:href="src/entities/pokemon/lib/mapPokemonDto.ts" xlink:title="mapPokemonDto.ts">
<path fill="#ddfeff" stroke="black" d="M848.08,-137.88C848.08,-137.88 763.67,-137.88 763.67,-137.88 760.71,-137.88 757.75,-134.92 757.75,-131.96 757.75,-131.96 757.75,-126.04 757.75,-126.04 757.75,-123.08 760.71,-120.12 763.67,-120.12 763.67,-120.12 848.08,-120.12 848.08,-120.12 851.04,-120.12 854,-123.08 854,-126.04 854,-126.04 854,-131.96 854,-131.96 854,-134.92 851.04,-137.88 848.08,-137.88"/>
<text xml:space="preserve" text-anchor="start" x="765.75" y="-125.33" font-family="Helvetica,sans-Serif" font-size="9.00">mapPokemonDto.ts</text>
</a>
</g>
</g>
<!-- src/entities/pokemon/api/queryPokemonById.ts&#45;&gt;src/entities/pokemon/lib/mapPokemonDto.ts -->
<g id="edge6" class="edge">
<title>src/entities/pokemon/api/queryPokemonById.ts&#45;&gt;src/entities/pokemon/lib/mapPokemonDto.ts</title>
<path fill="none" stroke="#000000" stroke-width="2" stroke-opacity="0.200000" d="M734.18,-129C738.88,-129 743.65,-129 748.39,-129"/>
<polygon fill="#000000" fill-opacity="0.200000" stroke="#000000" stroke-width="2" stroke-opacity="0.200000" points="748.39,-131.1 754.39,-129 748.39,-126.9 748.39,-131.1"/>
</g>
<!-- src/shared/api/index.ts -->
<g id="node9" class="node">
<title>src/shared/api/index.ts</title>
<g id="a_node9"><a xlink:href="src/shared/api/index.ts" xlink:title="index.ts">
<path fill="#ddfeff" stroke="black" d="M939.71,-261.88C939.71,-261.88 897.54,-261.88 897.54,-261.88 894.58,-261.88 891.62,-258.92 891.62,-255.96 891.62,-255.96 891.62,-250.04 891.62,-250.04 891.62,-247.08 894.58,-244.12 897.54,-244.12 897.54,-244.12 939.71,-244.12 939.71,-244.12 942.67,-244.12 945.62,-247.08 945.62,-250.04 945.62,-250.04 945.62,-255.96 945.62,-255.96 945.62,-258.92 942.67,-261.88 939.71,-261.88"/>
<text xml:space="preserve" text-anchor="start" x="902.88" y="-249.32" font-family="Helvetica,sans-Serif" font-size="9.00">index.ts</text>
</a>
</g>
</g>
<!-- src/entities/pokemon/api/queryPokemonById.ts&#45;&gt;src/shared/api/index.ts -->
<g id="edge7" class="edge">
<title>src/entities/pokemon/api/queryPokemonById.ts&#45;&gt;src/shared/api/index.ts</title>
<path fill="none" stroke="#000000" stroke-width="2" stroke-opacity="0.200000" d="M698.15,-138.24C711.79,-146.04 731.95,-157.45 749.75,-167 799.22,-193.56 857.74,-223.12 890.98,-239.75"/>
<polygon fill="#000000" fill-opacity="0.200000" stroke="#000000" stroke-width="2" stroke-opacity="0.200000" points="889.86,-241.53 896.16,-242.34 891.73,-237.78 889.86,-241.53"/>
</g>
<!-- src/entities/pokemon/lib/mapPokemonDto.ts&#45;&gt;src/shared/api/index.ts -->
<g id="edge13" class="edge">
<title>src/entities/pokemon/lib/mapPokemonDto.ts&#45;&gt;src/shared/api/index.ts</title>
<path fill="none" stroke="#000000" stroke-opacity="0.200000" d="M815.2,-138.32C834.37,-159.79 881.77,-212.85 904.74,-238.57"/>
<polygon fill="none" stroke="#000000" stroke-opacity="0.200000" points="902.93,-239.7 908.5,-242.78 906.07,-236.91 902.93,-239.7"/>
</g>
<!-- src/entities/pokemon/model/types.ts -->
<g id="node14" class="node">
<title>src/entities/pokemon/model/types.ts</title>
<g id="a_node14"><a xlink:href="src/entities/pokemon/model/types.ts" xlink:title="types.ts">
<path fill="#ddfeff" stroke="black" d="M939.71,-87.88C939.71,-87.88 897.54,-87.88 897.54,-87.88 894.58,-87.88 891.62,-84.92 891.62,-81.96 891.62,-81.96 891.62,-76.04 891.62,-76.04 891.62,-73.08 894.58,-70.12 897.54,-70.12 897.54,-70.12 939.71,-70.12 939.71,-70.12 942.67,-70.12 945.62,-73.08 945.62,-76.04 945.62,-76.04 945.62,-81.96 945.62,-81.96 945.62,-84.92 942.67,-87.88 939.71,-87.88"/>
<text xml:space="preserve" text-anchor="start" x="903.25" y="-75.33" font-family="Helvetica,sans-Serif" font-size="9.00">types.ts</text>
</a>
</g>
</g>
<!-- src/entities/pokemon/lib/mapPokemonDto.ts&#45;&gt;src/entities/pokemon/model/types.ts -->
<g id="edge12" class="edge">
<title>src/entities/pokemon/lib/mapPokemonDto.ts&#45;&gt;src/entities/pokemon/model/types.ts</title>
<path fill="none" stroke="#000000" stroke-opacity="0.200000" d="M835.69,-119.65C845.92,-116.04 857.42,-111.67 867.62,-107 877.29,-102.58 887.59,-96.98 896.31,-91.95"/>
<polygon fill="none" stroke="#000000" stroke-opacity="0.200000" points="897.22,-93.85 901.34,-89 895.1,-90.22 897.22,-93.85"/>
</g>
<!-- src/shared/api/pokemon/fetchPokemonApi.ts -->
<g id="node19" class="node">
<title>src/shared/api/pokemon/fetchPokemonApi.ts</title>
<g id="a_node19"><a xlink:href="src/shared/api/pokemon/fetchPokemonApi.ts" xlink:title="fetchPokemonApi.ts">
<path fill="#ddfeff" stroke="black" d="M1076.71,-265.88C1076.71,-265.88 991.54,-265.88 991.54,-265.88 988.58,-265.88 985.62,-262.92 985.62,-259.96 985.62,-259.96 985.62,-254.04 985.62,-254.04 985.62,-251.08 988.58,-248.12 991.54,-248.12 991.54,-248.12 1076.71,-248.12 1076.71,-248.12 1079.67,-248.12 1082.62,-251.08 1082.62,-254.04 1082.62,-254.04 1082.62,-259.96 1082.62,-259.96 1082.62,-262.92 1079.67,-265.88 1076.71,-265.88"/>
<text xml:space="preserve" text-anchor="start" x="993.62" y="-253.32" font-family="Helvetica,sans-Serif" font-size="9.00">fetchPokemonApi.ts</text>
</a>
</g>
</g>
<!-- src/shared/api/index.ts&#45;&gt;src/shared/api/pokemon/fetchPokemonApi.ts -->
<g id="edge22" class="edge">
<title>src/shared/api/index.ts&#45;&gt;src/shared/api/pokemon/fetchPokemonApi.ts</title>
<path fill="none" stroke="#000000" stroke-width="2" stroke-opacity="0.200000" d="M945.95,-253.93C955.71,-254.27 967.18,-254.68 978.53,-255.08"/>
<polygon fill="#000000" fill-opacity="0.200000" stroke="#000000" stroke-width="2" stroke-opacity="0.200000" points="984.49,-257.39 978.57,-255.08 984.64,-253.19 984.49,-257.39"/>
</g>
<!-- src/shared/api/pokemon/types.ts -->
<g id="node20" class="node">
<title>src/shared/api/pokemon/types.ts</title>
<g id="a_node20"><a xlink:href="src/shared/api/pokemon/types.ts" xlink:title="types.ts">
<path fill="#ddfeff" stroke="black" d="M1055.21,-295.88C1055.21,-295.88 1013.04,-295.88 1013.04,-295.88 1010.08,-295.88 1007.12,-292.92 1007.12,-289.96 1007.12,-289.96 1007.12,-284.04 1007.12,-284.04 1007.12,-281.08 1010.08,-278.12 1013.04,-278.12 1013.04,-278.12 1055.21,-278.12 1055.21,-278.12 1058.17,-278.12 1061.12,-281.08 1061.12,-284.04 1061.12,-284.04 1061.12,-289.96 1061.12,-289.96 1061.12,-292.92 1058.17,-295.88 1055.21,-295.88"/>
<text xml:space="preserve" text-anchor="start" x="1018.75" y="-283.32" font-family="Helvetica,sans-Serif" font-size="9.00">types.ts</text>
</a>
</g>
</g>
<!-- src/shared/api/index.ts&#45;&gt;src/shared/api/pokemon/types.ts -->
<g id="edge23" class="edge">
<title>src/shared/api/index.ts&#45;&gt;src/shared/api/pokemon/types.ts</title>
<path fill="none" stroke="#000000" stroke-opacity="0.200000" d="M946.1,-262C955.96,-265.26 967.27,-268.91 977.62,-272 984.73,-274.12 992.38,-276.27 999.66,-278.26"/>
<polygon fill="none" stroke="#000000" stroke-opacity="0.200000" points="998.99,-280.25 1005.33,-279.79 1000.08,-276.2 998.99,-280.25"/>
</g>
<!-- src/entities/pokemon/index.ts -->
<g id="node10" class="node">
<title>src/entities/pokemon/index.ts</title>
<g id="a_node10"><a xlink:href="src/entities/pokemon/index.ts" xlink:title="index.ts">
<path fill="#ddfeff" stroke="black" d="M606.58,-121.88C606.58,-121.88 564.42,-121.88 564.42,-121.88 561.46,-121.88 558.5,-118.92 558.5,-115.96 558.5,-115.96 558.5,-110.04 558.5,-110.04 558.5,-107.08 561.46,-104.12 564.42,-104.12 564.42,-104.12 606.58,-104.12 606.58,-104.12 609.54,-104.12 612.5,-107.08 612.5,-110.04 612.5,-110.04 612.5,-115.96 612.5,-115.96 612.5,-118.92 609.54,-121.88 606.58,-121.88"/>
<text xml:space="preserve" text-anchor="start" x="569.75" y="-109.33" font-family="Helvetica,sans-Serif" font-size="9.00">index.ts</text>
</a>
</g>
</g>
<!-- src/entities/pokemon/index.ts&#45;&gt;src/entities/pokemon/api/queryPokemonById.ts -->
<g id="edge8" class="edge">
<title>src/entities/pokemon/index.ts&#45;&gt;src/entities/pokemon/api/queryPokemonById.ts</title>
<path fill="none" stroke="#000000" stroke-width="2" stroke-opacity="0.200000" d="M612.58,-117.46C615.32,-117.93 618.18,-118.41 621.1,-118.91"/>
<polygon fill="#000000" fill-opacity="0.200000" stroke="#000000" stroke-width="2" stroke-opacity="0.200000" points="626.69,-122 621.13,-118.92 627.4,-117.86 626.69,-122"/>
</g>
<!-- src/entities/pokemon/model/consts.ts -->
<g id="node11" class="node">
<title>src/entities/pokemon/model/consts.ts</title>
<g id="a_node11"><a xlink:href="src/entities/pokemon/model/consts.ts" xlink:title="consts.ts">
<path fill="#ddfeff" stroke="black" d="M939.71,-57.88C939.71,-57.88 897.54,-57.88 897.54,-57.88 894.58,-57.88 891.62,-54.92 891.62,-51.96 891.62,-51.96 891.62,-46.04 891.62,-46.04 891.62,-43.08 894.58,-40.12 897.54,-40.12 897.54,-40.12 939.71,-40.12 939.71,-40.12 942.67,-40.12 945.62,-43.08 945.62,-46.04 945.62,-46.04 945.62,-51.96 945.62,-51.96 945.62,-54.92 942.67,-57.88 939.71,-57.88"/>
<text xml:space="preserve" text-anchor="start" x="901" y="-45.33" font-family="Helvetica,sans-Serif" font-size="9.00">consts.ts</text>
</a>
</g>
</g>
<!-- src/entities/pokemon/index.ts&#45;&gt;src/entities/pokemon/model/consts.ts -->
<g id="edge9" class="edge">
<title>src/entities/pokemon/index.ts&#45;&gt;src/entities/pokemon/model/consts.ts</title>
<path fill="none" stroke="#000000" stroke-width="2" stroke-opacity="0.200000" d="M588.46,-103.67C592.04,-89.2 601.13,-61.68 620.5,-49 702.4,4.64 826.17,-21.25 884.71,-38.23"/>
<polygon fill="#000000" fill-opacity="0.200000" stroke="#000000" stroke-width="2" stroke-opacity="0.200000" points="889.96,-41.98 884.81,-38.26 891.16,-37.96 889.96,-41.98"/>
</g>
<!-- src/entities/pokemon/ui/PokemonCard.tsx -->
<g id="node12" class="node">
<title>src/entities/pokemon/ui/PokemonCard.tsx</title>
<g id="a_node12"><a xlink:href="src/entities/pokemon/ui/PokemonCard.tsx" xlink:title="PokemonCard.tsx">
<path fill="#bbfeff" stroke="black" d="M719.58,-77.88C719.58,-77.88 642.67,-77.88 642.67,-77.88 639.71,-77.88 636.75,-74.92 636.75,-71.96 636.75,-71.96 636.75,-66.04 636.75,-66.04 636.75,-63.08 639.71,-60.12 642.67,-60.12 642.67,-60.12 719.58,-60.12 719.58,-60.12 722.54,-60.12 725.5,-63.08 725.5,-66.04 725.5,-66.04 725.5,-71.96 725.5,-71.96 725.5,-74.92 722.54,-77.88 719.58,-77.88"/>
<text xml:space="preserve" text-anchor="start" x="644.75" y="-65.33" font-family="Helvetica,sans-Serif" font-size="9.00">PokemonCard.tsx</text>
</a>
</g>
</g>
<!-- src/entities/pokemon/index.ts&#45;&gt;src/entities/pokemon/ui/PokemonCard.tsx -->
<g id="edge10" class="edge">
<title>src/entities/pokemon/index.ts&#45;&gt;src/entities/pokemon/ui/PokemonCard.tsx</title>
<path fill="none" stroke="#000000" stroke-width="2" stroke-opacity="0.200000" d="M594.2,-103.71C600.54,-96.68 610.14,-87.35 620.5,-82 623.46,-80.47 626.6,-79.12 629.82,-77.93"/>
<polygon fill="#000000" fill-opacity="0.200000" stroke="#000000" stroke-width="2" stroke-opacity="0.200000" points="636.23,-78 629.88,-77.91 634.91,-74.02 636.23,-78"/>
</g>
<!-- src/entities/pokemon/ui/PokemonCardStub.tsx -->
<g id="node13" class="node">
<title>src/entities/pokemon/ui/PokemonCardStub.tsx</title>
<g id="a_node13"><a xlink:href="src/entities/pokemon/ui/PokemonCardStub.tsx" xlink:title="PokemonCardStub.tsx">
<path fill="#bbfeff" stroke="black" d="M853.71,-77.88C853.71,-77.88 758.04,-77.88 758.04,-77.88 755.08,-77.88 752.12,-74.92 752.12,-71.96 752.12,-71.96 752.12,-66.04 752.12,-66.04 752.12,-63.08 755.08,-60.12 758.04,-60.12 758.04,-60.12 853.71,-60.12 853.71,-60.12 856.67,-60.12 859.62,-63.08 859.62,-66.04 859.62,-66.04 859.62,-71.96 859.62,-71.96 859.62,-74.92 856.67,-77.88 853.71,-77.88"/>
<text xml:space="preserve" text-anchor="start" x="760.12" y="-65.33" font-family="Helvetica,sans-Serif" font-size="9.00">PokemonCardStub.tsx</text>
</a>
</g>
</g>
<!-- src/entities/pokemon/index.ts&#45;&gt;src/entities/pokemon/ui/PokemonCardStub.tsx -->
<g id="edge11" class="edge">
<title>src/entities/pokemon/index.ts&#45;&gt;src/entities/pokemon/ui/PokemonCardStub.tsx</title>
<path fill="none" stroke="#000000" stroke-width="2" stroke-opacity="0.200000" d="M612.95,-108.46C643.91,-103.06 696.69,-93.56 741.75,-84 747.74,-82.73 754.03,-81.32 760.22,-79.9"/>
<polygon fill="#000000" fill-opacity="0.200000" stroke="#000000" stroke-width="2" stroke-opacity="0.200000" points="766.39,-80.61 760.07,-79.93 765.44,-76.52 766.39,-80.61"/>
</g>
<!-- src/entities/pokemon/ui/PokemonCard.tsx&#45;&gt;src/entities/pokemon/ui/PokemonCardStub.tsx -->
<g id="edge15" class="edge">
<title>src/entities/pokemon/ui/PokemonCard.tsx&#45;&gt;src/entities/pokemon/ui/PokemonCardStub.tsx</title>
<path fill="none" stroke="#000000" stroke-width="2" stroke-opacity="0.200000" d="M725.75,-69C731.26,-69 736.99,-69 742.73,-69"/>
<polygon fill="#000000" fill-opacity="0.200000" stroke="#000000" stroke-width="2" stroke-opacity="0.200000" points="742.69,-71.1 748.69,-69 742.69,-66.9 742.69,-71.1"/>
</g>
<!-- src/entities/pokemon/ui/PokemonCard.tsx&#45;&gt;src/entities/pokemon/model/types.ts -->
<g id="edge14" class="edge">
<title>src/entities/pokemon/ui/PokemonCard.tsx&#45;&gt;src/entities/pokemon/model/types.ts</title>
<path fill="none" stroke="#000000" stroke-opacity="0.200000" d="M725.8,-59.64C731.17,-58.44 736.59,-57.21 741.75,-56 745.32,-55.17 746.11,-54.45 749.75,-54 801.75,-47.6 820.41,-31.31 867.62,-54 872.75,-56.47 870.99,-60.7 875.62,-64 878.39,-65.98 881.45,-67.71 884.61,-69.24"/>
<polygon fill="none" stroke="#000000" stroke-opacity="0.200000" points="883.47,-71.03 889.81,-71.48 885.13,-67.18 883.47,-71.03"/>
</g>
<!-- src/pages/home/ui/Page.tsx&#45;&gt;src/entities/pokemon/index.ts -->
<g id="edge19" class="edge">
<title>src/pages/home/ui/Page.tsx&#45;&gt;src/entities/pokemon/index.ts</title>
<path fill="none" stroke="#000000" stroke-width="2" stroke-opacity="0.200000" d="M407,-212.33C416.19,-221.64 431.76,-235.36 448.5,-241 484.72,-253.2 502.94,-262.56 534.5,-241 571.14,-215.98 580.93,-159.76 583.55,-130.87"/>
<polygon fill="#000000" fill-opacity="0.200000" stroke="#000000" stroke-width="2" stroke-opacity="0.200000" points="585.62,-131.37 583.96,-125.23 581.43,-131.06 585.62,-131.37"/>
</g>
<!-- src/pages/home/model/store.ts -->
<g id="node16" class="node">
<title>src/pages/home/model/store.ts</title>
<g id="a_node16"><a xlink:href="src/pages/home/model/store.ts" xlink:title="store.ts">
<path fill="#ddfeff" stroke="black" d="M504.58,-211.88C504.58,-211.88 462.42,-211.88 462.42,-211.88 459.46,-211.88 456.5,-208.92 456.5,-205.96 456.5,-205.96 456.5,-200.04 456.5,-200.04 456.5,-197.08 459.46,-194.12 462.42,-194.12 462.42,-194.12 504.58,-194.12 504.58,-194.12 507.54,-194.12 510.5,-197.08 510.5,-200.04 510.5,-200.04 510.5,-205.96 510.5,-205.96 510.5,-208.92 507.54,-211.88 504.58,-211.88"/>
<text xml:space="preserve" text-anchor="start" x="468.88" y="-199.32" font-family="Helvetica,sans-Serif" font-size="9.00">store.ts</text>
</a>
</g>
</g>
<!-- src/pages/home/ui/Page.tsx&#45;&gt;src/pages/home/model/store.ts -->
<g id="edge18" class="edge">
<title>src/pages/home/ui/Page.tsx&#45;&gt;src/pages/home/model/store.ts</title>
<path fill="none" stroke="#000000" stroke-width="2" stroke-opacity="0.200000" d="M424.62,-203C431.82,-203 439.75,-203 447.37,-203"/>
<polygon fill="#000000" fill-opacity="0.200000" stroke="#000000" stroke-width="2" stroke-opacity="0.200000" points="447.08,-205.1 453.08,-203 447.08,-200.9 447.08,-205.1"/>
</g>
<!-- src/shared/ui/Input.tsx -->
<g id="node17" class="node">
<title>src/shared/ui/Input.tsx</title>
<g id="a_node17"><a xlink:href="src/shared/ui/Input.tsx" xlink:title="Input.tsx">
<path fill="#bbfeff" stroke="black" d="M939.71,-441.88C939.71,-441.88 897.54,-441.88 897.54,-441.88 894.58,-441.88 891.62,-438.92 891.62,-435.96 891.62,-435.96 891.62,-430.04 891.62,-430.04 891.62,-427.08 894.58,-424.12 897.54,-424.12 897.54,-424.12 939.71,-424.12 939.71,-424.12 942.67,-424.12 945.62,-427.08 945.62,-430.04 945.62,-430.04 945.62,-435.96 945.62,-435.96 945.62,-438.92 942.67,-441.88 939.71,-441.88"/>
<text xml:space="preserve" text-anchor="start" x="901.75" y="-429.32" font-family="Helvetica,sans-Serif" font-size="9.00">Input.tsx</text>
</a>
</g>
</g>
<!-- src/pages/home/ui/Page.tsx&#45;&gt;src/shared/ui/Input.tsx -->
<g id="edge20" class="edge">
<title>src/pages/home/ui/Page.tsx&#45;&gt;src/shared/ui/Input.tsx</title>
<path fill="none" stroke="#000000" stroke-width="2" stroke-opacity="0.200000" d="M403.96,-212.01C423.85,-243.53 495.88,-347 584.5,-347 584.5,-347 584.5,-347 682.12,-347 724.16,-347 836.84,-395.96 889.63,-420"/>
<polygon fill="#000000" fill-opacity="0.200000" stroke="#000000" stroke-width="2" stroke-opacity="0.200000" points="888.48,-421.79 894.81,-422.37 890.23,-417.97 888.48,-421.79"/>
</g>
<!-- src/pages/home/model/store.ts&#45;&gt;src/entities/pokemon/index.ts -->
<g id="edge17" class="edge">
<title>src/pages/home/model/store.ts&#45;&gt;src/entities/pokemon/index.ts</title>
<path fill="none" stroke="#000000" stroke-width="2" stroke-opacity="0.200000" d="M494.83,-193.71C512.13,-178.13 547.13,-146.63 567.92,-127.92"/>
<polygon fill="#000000" fill-opacity="0.200000" stroke="#000000" stroke-width="2" stroke-opacity="0.200000" points="569.08,-129.71 572.13,-124.13 566.27,-126.59 569.08,-129.71"/>
</g>
<!-- src/shared/lib/app.d.ts -->
<g id="node21" class="node">
<title>src/shared/lib/app.d.ts</title>
<g id="a_node21"><a xlink:href="src/shared/lib/app.d.ts" xlink:title="app.d.ts">
<path fill="#ccffcc" stroke="black" d="M939.71,-381.88C939.71,-381.88 897.54,-381.88 897.54,-381.88 894.58,-381.88 891.62,-378.92 891.62,-375.96 891.62,-375.96 891.62,-370.04 891.62,-370.04 891.62,-367.08 894.58,-364.12 897.54,-364.12 897.54,-364.12 939.71,-364.12 939.71,-364.12 942.67,-364.12 945.62,-367.08 945.62,-370.04 945.62,-370.04 945.62,-375.96 945.62,-375.96 945.62,-378.92 942.67,-381.88 939.71,-381.88"/>
<text xml:space="preserve" text-anchor="start" x="902.5" y="-369.32" font-family="Helvetica,sans-Serif" font-size="9.00">app.d.ts</text>
</a>
</g>
</g>
</g>
</svg>
