<?xml version="1.0" encoding="UTF-8" standalone="no"?>
<!DOCTYPE svg PUBLIC "-//W3C//DTD SVG 1.1//EN"
 "http://www.w3.org/Graphics/SVG/1.1/DTD/svg11.dtd">
<!-- Generated by graphviz version 12.0.0 (20240704.0754)
 -->
<!-- Title: dependency&#45;cruiser output Pages: 1 -->
<svg width="1107pt" height="410pt"
 viewBox="0.00 0.00 1107.25 410.00" xmlns="http://www.w3.org/2000/svg" xmlns:xlink="http://www.w3.org/1999/xlink">
<g id="graph0" class="graph" transform="scale(1 1) rotate(0) translate(4 406)">
<title>dependency&#45;cruiser output</title>
<polygon fill="white" stroke="none" points="-4,4 -4,-406 1103.25,-406 1103.25,4 -4,4"/>
<g id="clust1" class="cluster">
<title>cluster_src</title>
<path fill="#ffffff" stroke="black" stroke-width="2" d="M20,-8C20,-8 1079.25,-8 1079.25,-8 1085.25,-8 1091.25,-14 1091.25,-20 1091.25,-20 1091.25,-382 1091.25,-382 1091.25,-388 1085.25,-394 1079.25,-394 1079.25,-394 20,-394 20,-394 14,-394 8,-388 8,-382 8,-382 8,-20 8,-20 8,-14 14,-8 20,-8"/>
<text text-anchor="middle" x="549.62" y="-381.45" font-family="Helvetica,sans-Serif" font-weight="bold" font-size="9.00">src</text>
</g>
<g id="clust2" class="cluster">
<title>cluster_src/app</title>
<path fill="#ffffff" stroke="black" stroke-width="2" d="M28,-161C28,-161 342.5,-161 342.5,-161 348.5,-161 354.5,-167 354.5,-173 354.5,-173 354.5,-295 354.5,-295 354.5,-301 348.5,-307 342.5,-307 342.5,-307 28,-307 28,-307 22,-307 16,-301 16,-295 16,-295 16,-173 16,-173 16,-167 22,-161 28,-161"/>
<text text-anchor="middle" x="185.25" y="-294.45" font-family="Helvetica,sans-Serif" font-weight="bold" font-size="9.00">app</text>
</g>
<g id="clust3" class="cluster">
<title>cluster_src/app/providers</title>
<path fill="#ffffff" stroke="black" stroke-width="2" d="M98,-195C98,-195 334.5,-195 334.5,-195 340.5,-195 346.5,-201 346.5,-207 346.5,-207 346.5,-269 346.5,-269 346.5,-275 340.5,-281 334.5,-281 334.5,-281 98,-281 98,-281 92,-281 86,-275 86,-269 86,-269 86,-207 86,-207 86,-201 92,-195 98,-195"/>
<text text-anchor="middle" x="216.25" y="-268.45" font-family="Helvetica,sans-Serif" font-weight="bold" font-size="9.00">providers</text>
</g>
<g id="clust4" class="cluster">
<title>cluster_src/app/providers/layout</title>
<path fill="#ffffff" stroke="black" stroke-width="2" d="M221.75,-203C221.75,-203 326.5,-203 326.5,-203 332.5,-203 338.5,-209 338.5,-215 338.5,-215 338.5,-243 338.5,-243 338.5,-249 332.5,-255 326.5,-255 326.5,-255 221.75,-255 221.75,-255 215.75,-255 209.75,-249 209.75,-243 209.75,-243 209.75,-215 209.75,-215 209.75,-209 215.75,-203 221.75,-203"/>
<text text-anchor="middle" x="274.12" y="-242.45" font-family="Helvetica,sans-Serif" font-weight="bold" font-size="9.00">layout</text>
</g>
<g id="clust5" class="cluster">
<title>cluster_src/app/providers/router</title>
<path fill="#ffffff" stroke="black" stroke-width="2" d="M106,-203C106,-203 189.75,-203 189.75,-203 195.75,-203 201.75,-209 201.75,-215 201.75,-215 201.75,-243 201.75,-243 201.75,-249 195.75,-255 189.75,-255 189.75,-255 106,-255 106,-255 100,-255 94,-249 94,-243 94,-243 94,-215 94,-215 94,-209 100,-203 106,-203"/>
<text text-anchor="middle" x="147.88" y="-242.45" font-family="Helvetica,sans-Serif" font-weight="bold" font-size="9.00">router</text>
</g>
<g id="clust6" class="cluster">
<title>cluster_src/pages</title>
<path fill="#ffffff" stroke="black" stroke-width="2" d="M472,-16C472,-16 646.38,-16 646.38,-16 652.38,-16 658.38,-22 658.38,-28 658.38,-28 658.38,-218 658.38,-218 658.38,-224 652.38,-230 646.38,-230 646.38,-230 472,-230 472,-230 466,-230 460,-224 460,-218 460,-218 460,-28 460,-28 460,-22 466,-16 472,-16"/>
<text text-anchor="middle" x="559.19" y="-217.45" font-family="Helvetica,sans-Serif" font-weight="bold" font-size="9.00">pages</text>
</g>
<g id="clust7" class="cluster">
<title>cluster_src/pages/home</title>
<path fill="#ffffff" stroke="black" stroke-width="2" d="M480,-118C480,-118 638.38,-118 638.38,-118 644.38,-118 650.38,-124 650.38,-130 650.38,-130 650.38,-192 650.38,-192 650.38,-198 644.38,-204 638.38,-204 638.38,-204 480,-204 480,-204 474,-204 468,-198 468,-192 468,-192 468,-130 468,-130 468,-124 474,-118 480,-118"/>
<text text-anchor="middle" x="559.19" y="-191.45" font-family="Helvetica,sans-Serif" font-weight="bold" font-size="9.00">home</text>
</g>
<g id="clust8" class="cluster">
<title>cluster_src/pages/home/ui</title>
<path fill="#ffffff" stroke="black" stroke-width="2" d="M584.38,-126C584.38,-126 630.38,-126 630.38,-126 636.38,-126 642.38,-132 642.38,-138 642.38,-138 642.38,-166 642.38,-166 642.38,-172 636.38,-178 630.38,-178 630.38,-178 584.38,-178 584.38,-178 578.38,-178 572.38,-172 572.38,-166 572.38,-166 572.38,-138 572.38,-138 572.38,-132 578.38,-126 584.38,-126"/>
<text text-anchor="middle" x="607.38" y="-165.45" font-family="Helvetica,sans-Serif" font-weight="bold" font-size="9.00">ui</text>
</g>
<g id="clust9" class="cluster">
<title>cluster_src/pages/profile</title>
<path fill="#ffffff" stroke="black" stroke-width="2" d="M480,-24C480,-24 638.38,-24 638.38,-24 644.38,-24 650.38,-30 650.38,-36 650.38,-36 650.38,-98 650.38,-98 650.38,-104 644.38,-110 638.38,-110 638.38,-110 480,-110 480,-110 474,-110 468,-104 468,-98 468,-98 468,-36 468,-36 468,-30 474,-24 480,-24"/>
<text text-anchor="middle" x="559.19" y="-97.45" font-family="Helvetica,sans-Serif" font-weight="bold" font-size="9.00">profile</text>
</g>
<g id="clust10" class="cluster">
<title>cluster_src/pages/profile/ui</title>
<path fill="#ffffff" stroke="black" stroke-width="2" d="M584.38,-32C584.38,-32 630.38,-32 630.38,-32 636.38,-32 642.38,-38 642.38,-44 642.38,-44 642.38,-72 642.38,-72 642.38,-78 636.38,-84 630.38,-84 630.38,-84 584.38,-84 584.38,-84 578.38,-84 572.38,-78 572.38,-72 572.38,-72 572.38,-44 572.38,-44 572.38,-38 578.38,-32 584.38,-32"/>
<text text-anchor="middle" x="607.38" y="-71.45" font-family="Helvetica,sans-Serif" font-weight="bold" font-size="9.00">ui</text>
</g>
<g id="clust11" class="cluster">
<title>cluster_src/shared</title>
<path fill="#ffffff" stroke="black" stroke-width="2" d="M688.25,-118C688.25,-118 1071.25,-118 1071.25,-118 1077.25,-118 1083.25,-124 1083.25,-130 1083.25,-130 1083.25,-356 1083.25,-356 1083.25,-362 1077.25,-368 1071.25,-368 1071.25,-368 688.25,-368 688.25,-368 682.25,-368 676.25,-362 676.25,-356 676.25,-356 676.25,-130 676.25,-130 676.25,-124 682.25,-118 688.25,-118"/>
<text text-anchor="middle" x="879.75" y="-355.45" font-family="Helvetica,sans-Serif" font-weight="bold" font-size="9.00">shared</text>
</g>
<g id="clust12" class="cluster">
<title>cluster_src/shared/dialog&#45;manager</title>
<path fill="#ffffff" stroke="black" stroke-width="2" d="M696.25,-216C696.25,-216 1063.25,-216 1063.25,-216 1069.25,-216 1075.25,-222 1075.25,-228 1075.25,-228 1075.25,-330 1075.25,-330 1075.25,-336 1069.25,-342 1063.25,-342 1063.25,-342 696.25,-342 696.25,-342 690.25,-342 684.25,-336 684.25,-330 684.25,-330 684.25,-228 684.25,-228 684.25,-222 690.25,-216 696.25,-216"/>
<text text-anchor="middle" x="879.75" y="-329.45" font-family="Helvetica,sans-Serif" font-weight="bold" font-size="9.00">dialog&#45;manager</text>
</g>
<g id="clust13" class="cluster">
<title>cluster_src/shared/dialog&#45;manager/lib</title>
<path fill="#ffffff" stroke="black" stroke-width="2" d="M766.25,-224C766.25,-224 886,-224 886,-224 892,-224 898,-230 898,-236 898,-236 898,-294 898,-294 898,-300 892,-306 886,-306 886,-306 766.25,-306 766.25,-306 760.25,-306 754.25,-300 754.25,-294 754.25,-294 754.25,-236 754.25,-236 754.25,-230 760.25,-224 766.25,-224"/>
<text text-anchor="middle" x="826.12" y="-293.45" font-family="Helvetica,sans-Serif" font-weight="bold" font-size="9.00">lib</text>
</g>
<g id="clust14" class="cluster">
<title>cluster_src/shared/dialog&#45;manager/model</title>
<path fill="#ffffff" stroke="black" stroke-width="2" d="M928.62,-254C928.62,-254 1055.25,-254 1055.25,-254 1061.25,-254 1067.25,-260 1067.25,-266 1067.25,-266 1067.25,-294 1067.25,-294 1067.25,-300 1061.25,-306 1055.25,-306 1055.25,-306 928.62,-306 928.62,-306 922.62,-306 916.62,-300 916.62,-294 916.62,-294 916.62,-266 916.62,-266 916.62,-260 922.62,-254 928.62,-254"/>
<text text-anchor="middle" x="991.94" y="-293.45" font-family="Helvetica,sans-Serif" font-weight="bold" font-size="9.00">model</text>
</g>
<g id="clust15" class="cluster">
<title>cluster_src/shared/ui</title>
<path fill="#ffffff" stroke="black" stroke-width="2" d="M918,-126C918,-126 985.25,-126 985.25,-126 991.25,-126 997.25,-132 997.25,-138 997.25,-138 997.25,-196 997.25,-196 997.25,-202 991.25,-208 985.25,-208 985.25,-208 918,-208 918,-208 912,-208 906,-202 906,-196 906,-196 906,-138 906,-138 906,-132 912,-126 918,-126"/>
<text text-anchor="middle" x="951.62" y="-195.45" font-family="Helvetica,sans-Serif" font-weight="bold" font-size="9.00">ui</text>
</g>
<g id="clust16" class="cluster">
<title>cluster_src/widgets</title>
<path fill="#ffffff" stroke="black" stroke-width="2" d="M374.5,-238C374.5,-238 656.25,-238 656.25,-238 662.25,-238 668.25,-244 668.25,-250 668.25,-250 668.25,-346 668.25,-346 668.25,-352 662.25,-358 656.25,-358 656.25,-358 374.5,-358 374.5,-358 368.5,-358 362.5,-352 362.5,-346 362.5,-346 362.5,-250 362.5,-250 362.5,-244 368.5,-238 374.5,-238"/>
<text text-anchor="middle" x="515.38" y="-345.45" font-family="Helvetica,sans-Serif" font-weight="bold" font-size="9.00">widgets</text>
</g>
<g id="clust17" class="cluster">
<title>cluster_src/widgets/LoginDialog</title>
<path fill="#ffffff" stroke="black" stroke-width="2" d="M382.5,-246C382.5,-246 648.25,-246 648.25,-246 654.25,-246 660.25,-252 660.25,-258 660.25,-258 660.25,-320 660.25,-320 660.25,-326 654.25,-332 648.25,-332 648.25,-332 382.5,-332 382.5,-332 376.5,-332 370.5,-326 370.5,-320 370.5,-320 370.5,-258 370.5,-258 370.5,-252 376.5,-246 382.5,-246"/>
<text text-anchor="middle" x="515.38" y="-319.45" font-family="Helvetica,sans-Serif" font-weight="bold" font-size="9.00">LoginDialog</text>
</g>
<g id="clust18" class="cluster">
<title>cluster_src/widgets/LoginDialog/ui</title>
<path fill="#ffffff" stroke="black" stroke-width="2" d="M452.5,-254C452.5,-254 640.25,-254 640.25,-254 646.25,-254 652.25,-260 652.25,-266 652.25,-266 652.25,-294 652.25,-294 652.25,-300 646.25,-306 640.25,-306 640.25,-306 452.5,-306 452.5,-306 446.5,-306 440.5,-300 440.5,-294 440.5,-294 440.5,-266 440.5,-266 440.5,-260 446.5,-254 452.5,-254"/>
<text text-anchor="middle" x="546.38" y="-293.45" font-family="Helvetica,sans-Serif" font-weight="bold" font-size="9.00">ui</text>
</g>
<!-- src/app/entry.css -->
<g id="node1" class="node">
<title>src/app/entry.css</title>
<g id="a_node1"><a xlink:href="src/app/entry.css" xlink:title="entry.css">
<path fill="#ffffcc" stroke="black" d="M168.96,-186.88C168.96,-186.88 126.79,-186.88 126.79,-186.88 123.83,-186.88 120.88,-183.92 120.88,-180.96 120.88,-180.96 120.88,-175.04 120.88,-175.04 120.88,-172.08 123.83,-169.12 126.79,-169.12 126.79,-169.12 168.96,-169.12 168.96,-169.12 171.92,-169.12 174.88,-172.08 174.88,-175.04 174.88,-175.04 174.88,-180.96 174.88,-180.96 174.88,-183.92 171.92,-186.88 168.96,-186.88"/>
<text text-anchor="start" x="129.88" y="-174.32" font-family="Helvetica,sans-Serif" font-size="9.00">entry.css</text>
</a>
</g>
</g>
<!-- src/app/entry.tsx -->
<g id="node2" class="node">
<title>src/app/entry.tsx</title>
<g id="a_node2"><a xlink:href="src/app/entry.tsx" xlink:title="entry.tsx">
<path fill="#bbfeff" stroke="black" d="M72.08,-228.88C72.08,-228.88 29.92,-228.88 29.92,-228.88 26.96,-228.88 24,-225.92 24,-222.96 24,-222.96 24,-217.04 24,-217.04 24,-214.08 26.96,-211.12 29.92,-211.12 29.92,-211.12 72.08,-211.12 72.08,-211.12 75.04,-211.12 78,-214.08 78,-217.04 78,-217.04 78,-222.96 78,-222.96 78,-225.92 75.04,-228.88 72.08,-228.88"/>
<text text-anchor="start" x="34.12" y="-216.32" font-family="Helvetica,sans-Serif" font-size="9.00">entry.tsx</text>
</a>
</g>
</g>
<!-- src/app/entry.tsx&#45;&gt;src/app/entry.css -->
<g id="edge1" class="edge">
<title>src/app/entry.tsx&#45;&gt;src/app/entry.css</title>
<path fill="none" stroke="#000000" stroke-width="2" stroke-opacity="0.200000" d="M66.57,-210.63C72.47,-207.05 79.43,-203.09 86,-200 94.24,-196.13 103.36,-192.51 111.98,-189.36"/>
<polygon fill="#000000" fill-opacity="0.200000" stroke="#000000" stroke-width="2" stroke-opacity="0.200000" points="112.57,-191.38 117.52,-187.39 111.17,-187.42 112.57,-191.38"/>
</g>
<!-- src/app/providers/router/RouterProvider.tsx -->
<g id="node3" class="node">
<title>src/app/providers/router/RouterProvider.tsx</title>
<g id="a_node3"><a xlink:href="src/app/providers/router/RouterProvider.tsx" xlink:title="RouterProvider.tsx">
<path fill="#bbfeff" stroke="black" d="M187.83,-228.88C187.83,-228.88 107.92,-228.88 107.92,-228.88 104.96,-228.88 102,-225.92 102,-222.96 102,-222.96 102,-217.04 102,-217.04 102,-214.08 104.96,-211.12 107.92,-211.12 107.92,-211.12 187.83,-211.12 187.83,-211.12 190.79,-211.12 193.75,-214.08 193.75,-217.04 193.75,-217.04 193.75,-222.96 193.75,-222.96 193.75,-225.92 190.79,-228.88 187.83,-228.88"/>
<text text-anchor="start" x="110" y="-216.32" font-family="Helvetica,sans-Serif" font-size="9.00">RouterProvider.tsx</text>
</a>
</g>
</g>
<!-- src/app/entry.tsx&#45;&gt;src/app/providers/router/RouterProvider.tsx -->
<g id="edge2" class="edge">
<title>src/app/entry.tsx&#45;&gt;src/app/providers/router/RouterProvider.tsx</title>
<path fill="none" stroke="#000000" stroke-width="2" stroke-opacity="0.200000" d="M78.43,-220C82.95,-220 87.79,-220 92.74,-220"/>
<polygon fill="#000000" fill-opacity="0.200000" stroke="#000000" stroke-width="2" stroke-opacity="0.200000" points="92.66,-222.1 98.66,-220 92.66,-217.9 92.66,-222.1"/>
</g>
<!-- src/shared/dialog&#45;manager/index.ts -->
<g id="node4" class="node">
<title>src/shared/dialog&#45;manager/index.ts</title>
<g id="a_node4"><a xlink:href="src/shared/dialog-manager/index.ts" xlink:title="index.ts">
<path fill="#ddfeff" stroke="black" d="M740.33,-279.88C740.33,-279.88 698.17,-279.88 698.17,-279.88 695.21,-279.88 692.25,-276.92 692.25,-273.96 692.25,-273.96 692.25,-268.04 692.25,-268.04 692.25,-265.08 695.21,-262.12 698.17,-262.12 698.17,-262.12 740.33,-262.12 740.33,-262.12 743.29,-262.12 746.25,-265.08 746.25,-268.04 746.25,-268.04 746.25,-273.96 746.25,-273.96 746.25,-276.92 743.29,-279.88 740.33,-279.88"/>
<text text-anchor="start" x="703.5" y="-267.32" font-family="Helvetica,sans-Serif" font-size="9.00">index.ts</text>
</a>
</g>
</g>
<!-- src/app/entry.tsx&#45;&gt;src/shared/dialog&#45;manager/index.ts -->
<g id="edge3" class="edge">
<title>src/app/entry.tsx&#45;&gt;src/shared/dialog&#45;manager/index.ts</title>
<path fill="none" stroke="#000000" stroke-width="2" stroke-opacity="0.200000" d="M58.87,-229.2C83.76,-261.38 173.09,-367 273.12,-367 273.12,-367 273.12,-367 504,-367 581.42,-367 600.11,-345.75 668.25,-309 680.06,-302.63 692.08,-293.6 701.36,-285.94"/>
<polygon fill="#000000" fill-opacity="0.200000" stroke="#000000" stroke-width="2" stroke-opacity="0.200000" points="702.65,-287.61 705.87,-282.13 699.93,-284.4 702.65,-287.61"/>
</g>
<!-- src/app/providers/layout/BaseLayoutProvider.tsx -->
<g id="node5" class="node">
<title>src/app/providers/layout/BaseLayoutProvider.tsx</title>
<g id="a_node5"><a xlink:href="src/app/providers/layout/BaseLayoutProvider.tsx" xlink:title="BaseLayoutProvider.tsx">
<path fill="#bbfeff" stroke="black" d="M324.58,-228.88C324.58,-228.88 223.67,-228.88 223.67,-228.88 220.71,-228.88 217.75,-225.92 217.75,-222.96 217.75,-222.96 217.75,-217.04 217.75,-217.04 217.75,-214.08 220.71,-211.12 223.67,-211.12 223.67,-211.12 324.58,-211.12 324.58,-211.12 327.54,-211.12 330.5,-214.08 330.5,-217.04 330.5,-217.04 330.5,-222.96 330.5,-222.96 330.5,-225.92 327.54,-228.88 324.58,-228.88"/>
<text text-anchor="start" x="225.75" y="-216.32" font-family="Helvetica,sans-Serif" font-size="9.00">BaseLayoutProvider.tsx</text>
</a>
</g>
</g>
<!-- src/app/providers/router/RouterProvider.tsx&#45;&gt;src/app/providers/layout/BaseLayoutProvider.tsx -->
<g id="edge5" class="edge">
<title>src/app/providers/router/RouterProvider.tsx&#45;&gt;src/app/providers/layout/BaseLayoutProvider.tsx</title>
<path fill="none" stroke="#000000" stroke-width="2" stroke-opacity="0.200000" d="M194.08,-220C198.85,-220 203.77,-220 208.7,-220"/>
<polygon fill="#000000" fill-opacity="0.200000" stroke="#000000" stroke-width="2" stroke-opacity="0.200000" points="208.55,-222.1 214.55,-220 208.55,-217.9 208.55,-222.1"/>
</g>
<!-- src/pages/home/index.ts -->
<g id="node7" class="node">
<title>src/pages/home/index.ts</title>
<g id="a_node7"><a xlink:href="src/pages/home/index.ts" xlink:title="index.ts">
<path fill="#ddfeff" stroke="black" d="M524.08,-164.88C524.08,-164.88 481.92,-164.88 481.92,-164.88 478.96,-164.88 476,-161.92 476,-158.96 476,-158.96 476,-153.04 476,-153.04 476,-150.08 478.96,-147.12 481.92,-147.12 481.92,-147.12 524.08,-147.12 524.08,-147.12 527.04,-147.12 530,-150.08 530,-153.04 530,-153.04 530,-158.96 530,-158.96 530,-161.92 527.04,-164.88 524.08,-164.88"/>
<text text-anchor="start" x="487.25" y="-152.32" font-family="Helvetica,sans-Serif" font-size="9.00">index.ts</text>
</a>
</g>
</g>
<!-- src/app/providers/router/RouterProvider.tsx&#45;&gt;src/pages/home/index.ts -->
<g id="edge6" class="edge">
<title>src/app/providers/router/RouterProvider.tsx&#45;&gt;src/pages/home/index.ts</title>
<path fill="none" stroke="#000000" stroke-width="2" stroke-opacity="0.200000" d="M193.59,-210.66C196.41,-209.57 199.15,-208.35 201.75,-207 205.94,-204.82 205.46,-201.99 209.75,-200 295.74,-160.13 409.79,-154.89 466.64,-155.06"/>
<polygon fill="#000000" fill-opacity="0.200000" stroke="#000000" stroke-width="2" stroke-opacity="0.200000" points="466.55,-157.16 472.56,-155.11 466.58,-152.96 466.55,-157.16"/>
</g>
<!-- src/pages/profile/index.ts -->
<g id="node8" class="node">
<title>src/pages/profile/index.ts</title>
<g id="a_node8"><a xlink:href="src/pages/profile/index.ts" xlink:title="index.ts">
<path fill="#ddfeff" stroke="black" d="M524.08,-70.88C524.08,-70.88 481.92,-70.88 481.92,-70.88 478.96,-70.88 476,-67.92 476,-64.96 476,-64.96 476,-59.04 476,-59.04 476,-56.08 478.96,-53.12 481.92,-53.12 481.92,-53.12 524.08,-53.12 524.08,-53.12 527.04,-53.12 530,-56.08 530,-59.04 530,-59.04 530,-64.96 530,-64.96 530,-67.92 527.04,-70.88 524.08,-70.88"/>
<text text-anchor="start" x="487.25" y="-58.33" font-family="Helvetica,sans-Serif" font-size="9.00">index.ts</text>
</a>
</g>
</g>
<!-- src/app/providers/router/RouterProvider.tsx&#45;&gt;src/pages/profile/index.ts -->
<g id="edge7" class="edge">
<title>src/app/providers/router/RouterProvider.tsx&#45;&gt;src/pages/profile/index.ts</title>
<path fill="none" stroke="#000000" stroke-width="2" stroke-opacity="0.200000" d="M193.79,-213.24C196.74,-211.55 199.44,-209.5 201.75,-207 216.72,-190.79 195.41,-174.77 209.75,-158 275.76,-80.83 404.95,-65.34 467.04,-62.47"/>
<polygon fill="#000000" fill-opacity="0.200000" stroke="#000000" stroke-width="2" stroke-opacity="0.200000" points="466.76,-64.58 472.67,-62.25 466.6,-60.39 466.76,-64.58"/>
</g>
<!-- src/shared/dialog&#45;manager/lib/DialogManagerProvider.tsx -->
<g id="node12" class="node">
<title>src/shared/dialog&#45;manager/lib/DialogManagerProvider.tsx</title>
<g id="a_node12"><a xlink:href="src/shared/dialog-manager/lib/DialogManagerProvider.tsx" xlink:title="DialogManagerProvider.tsx">
<path fill="#bbfeff" stroke="black" d="M884.08,-249.88C884.08,-249.88 768.17,-249.88 768.17,-249.88 765.21,-249.88 762.25,-246.92 762.25,-243.96 762.25,-243.96 762.25,-238.04 762.25,-238.04 762.25,-235.08 765.21,-232.12 768.17,-232.12 768.17,-232.12 884.08,-232.12 884.08,-232.12 887.04,-232.12 890,-235.08 890,-238.04 890,-238.04 890,-243.96 890,-243.96 890,-246.92 887.04,-249.88 884.08,-249.88"/>
<text text-anchor="start" x="770.25" y="-237.32" font-family="Helvetica,sans-Serif" font-size="9.00">DialogManagerProvider.tsx</text>
</a>
</g>
</g>
<!-- src/shared/dialog&#45;manager/index.ts&#45;&gt;src/shared/dialog&#45;manager/lib/DialogManagerProvider.tsx -->
<g id="edge12" class="edge">
<title>src/shared/dialog&#45;manager/index.ts&#45;&gt;src/shared/dialog&#45;manager/lib/DialogManagerProvider.tsx</title>
<path fill="none" stroke="#000000" stroke-width="2" stroke-opacity="0.200000" d="M739.4,-261.73C744.18,-259.64 749.34,-257.58 754.25,-256 758.67,-254.57 763.3,-253.25 767.97,-252.02"/>
<polygon fill="#000000" fill-opacity="0.200000" stroke="#000000" stroke-width="2" stroke-opacity="0.200000" points="774.38,-252.57 768.05,-252 773.35,-248.5 774.38,-252.57"/>
</g>
<!-- src/shared/dialog&#45;manager/lib/useDialog.tsx -->
<g id="node13" class="node">
<title>src/shared/dialog&#45;manager/lib/useDialog.tsx</title>
<g id="a_node13"><a xlink:href="src/shared/dialog-manager/lib/useDialog.tsx" xlink:title="useDialog.tsx">
<path fill="#bbfeff" stroke="black" d="M855.96,-279.88C855.96,-279.88 796.29,-279.88 796.29,-279.88 793.33,-279.88 790.38,-276.92 790.38,-273.96 790.38,-273.96 790.38,-268.04 790.38,-268.04 790.38,-265.08 793.33,-262.12 796.29,-262.12 796.29,-262.12 855.96,-262.12 855.96,-262.12 858.92,-262.12 861.88,-265.08 861.88,-268.04 861.88,-268.04 861.88,-273.96 861.88,-273.96 861.88,-276.92 858.92,-279.88 855.96,-279.88"/>
<text text-anchor="start" x="798.38" y="-267.32" font-family="Helvetica,sans-Serif" font-size="9.00">useDialog.tsx</text>
</a>
</g>
</g>
<!-- src/shared/dialog&#45;manager/index.ts&#45;&gt;src/shared/dialog&#45;manager/lib/useDialog.tsx -->
<g id="edge13" class="edge">
<title>src/shared/dialog&#45;manager/index.ts&#45;&gt;src/shared/dialog&#45;manager/lib/useDialog.tsx</title>
<path fill="none" stroke="#000000" stroke-width="2" stroke-opacity="0.200000" d="M746.71,-271C757.67,-271 770.65,-271 782.87,-271"/>
<polygon fill="#000000" fill-opacity="0.200000" stroke="#000000" stroke-width="2" stroke-opacity="0.200000" points="788.95,-273.1 782.95,-271 788.95,-268.9 788.95,-273.1"/>
</g>
<!-- src/shared/dialog&#45;manager/model/store.ts -->
<g id="node14" class="node">
<title>src/shared/dialog&#45;manager/model/store.ts</title>
<g id="a_node14"><a xlink:href="src/shared/dialog-manager/model/store.ts" xlink:title="store.ts">
<path fill="#ddfeff" stroke="black" d="M972.71,-279.88C972.71,-279.88 930.54,-279.88 930.54,-279.88 927.58,-279.88 924.62,-276.92 924.62,-273.96 924.62,-273.96 924.62,-268.04 924.62,-268.04 924.62,-265.08 927.58,-262.12 930.54,-262.12 930.54,-262.12 972.71,-262.12 972.71,-262.12 975.67,-262.12 978.62,-265.08 978.62,-268.04 978.62,-268.04 978.62,-273.96 978.62,-273.96 978.62,-276.92 975.67,-279.88 972.71,-279.88"/>
<text text-anchor="start" x="937" y="-267.32" font-family="Helvetica,sans-Serif" font-size="9.00">store.ts</text>
</a>
</g>
</g>
<!-- src/shared/dialog&#45;manager/index.ts&#45;&gt;src/shared/dialog&#45;manager/model/store.ts -->
<g id="edge14" class="edge">
<title>src/shared/dialog&#45;manager/index.ts&#45;&gt;src/shared/dialog&#45;manager/model/store.ts</title>
<path fill="none" stroke="#000000" stroke-width="2" stroke-opacity="0.200000" d="M725.34,-280.24C731.02,-289.48 741.16,-303.15 754.25,-309 812.57,-335.08 837.21,-328.65 898,-309 912.66,-304.26 926.66,-293.75 936.54,-284.98"/>
<polygon fill="#000000" fill-opacity="0.200000" stroke="#000000" stroke-width="2" stroke-opacity="0.200000" points="942.26,-282.56 936.43,-285.08 939.42,-279.47 942.26,-282.56"/>
</g>
<!-- src/widgets/LoginDialog/index.ts -->
<g id="node6" class="node">
<title>src/widgets/LoginDialog/index.ts</title>
<g id="a_node6"><a xlink:href="src/widgets/LoginDialog/index.ts" xlink:title="index.ts">
<path fill="#ddfeff" stroke="black" d="M426.58,-275.88C426.58,-275.88 384.42,-275.88 384.42,-275.88 381.46,-275.88 378.5,-272.92 378.5,-269.96 378.5,-269.96 378.5,-264.04 378.5,-264.04 378.5,-261.08 381.46,-258.12 384.42,-258.12 384.42,-258.12 426.58,-258.12 426.58,-258.12 429.54,-258.12 432.5,-261.08 432.5,-264.04 432.5,-264.04 432.5,-269.96 432.5,-269.96 432.5,-272.92 429.54,-275.88 426.58,-275.88"/>
<text text-anchor="start" x="389.75" y="-263.32" font-family="Helvetica,sans-Serif" font-size="9.00">index.ts</text>
</a>
</g>
</g>
<!-- src/app/providers/layout/BaseLayoutProvider.tsx&#45;&gt;src/widgets/LoginDialog/index.ts -->
<g id="edge4" class="edge">
<title>src/app/providers/layout/BaseLayoutProvider.tsx&#45;&gt;src/widgets/LoginDialog/index.ts</title>
<path fill="none" stroke="#000000" stroke-width="2" stroke-opacity="0.200000" d="M300.69,-229.29C320.71,-236.56 348.74,-246.74 370.63,-254.7"/>
<polygon fill="#000000" fill-opacity="0.200000" stroke="#000000" stroke-width="2" stroke-opacity="0.200000" points="369.79,-256.63 376.15,-256.7 371.23,-252.68 369.79,-256.63"/>
</g>
<!-- src/widgets/LoginDialog/ui/LoginDialogTrigger.tsx -->
<g id="node17" class="node">
<title>src/widgets/LoginDialog/ui/LoginDialogTrigger.tsx</title>
<g id="a_node17"><a xlink:href="src/widgets/LoginDialog/ui/LoginDialogTrigger.tsx" xlink:title="LoginDialogTrigger.tsx">
<path fill="#bbfeff" stroke="black" d="M551.58,-279.88C551.58,-279.88 454.42,-279.88 454.42,-279.88 451.46,-279.88 448.5,-276.92 448.5,-273.96 448.5,-273.96 448.5,-268.04 448.5,-268.04 448.5,-265.08 451.46,-262.12 454.42,-262.12 454.42,-262.12 551.58,-262.12 551.58,-262.12 554.54,-262.12 557.5,-265.08 557.5,-268.04 557.5,-268.04 557.5,-273.96 557.5,-273.96 557.5,-276.92 554.54,-279.88 551.58,-279.88"/>
<text text-anchor="start" x="456.5" y="-267.32" font-family="Helvetica,sans-Serif" font-size="9.00">LoginDialogTrigger.tsx</text>
</a>
</g>
</g>
<!-- src/widgets/LoginDialog/index.ts&#45;&gt;src/widgets/LoginDialog/ui/LoginDialogTrigger.tsx -->
<g id="edge19" class="edge">
<title>src/widgets/LoginDialog/index.ts&#45;&gt;src/widgets/LoginDialog/ui/LoginDialogTrigger.tsx</title>
<path fill="none" stroke="#000000" stroke-width="2" stroke-opacity="0.200000" d="M432.85,-268.1C435.58,-268.22 438.43,-268.34 441.35,-268.46"/>
<polygon fill="#000000" fill-opacity="0.200000" stroke="#000000" stroke-width="2" stroke-opacity="0.200000" points="447.18,-270.81 441.28,-268.46 447.36,-266.61 447.18,-270.81"/>
</g>
<!-- src/pages/home/ui/Page.tsx -->
<g id="node9" class="node">
<title>src/pages/home/ui/Page.tsx</title>
<g id="a_node9"><a xlink:href="src/pages/home/ui/Page.tsx" xlink:title="Page.tsx">
<path fill="#bbfeff" stroke="black" d="M628.46,-151.88C628.46,-151.88 586.29,-151.88 586.29,-151.88 583.33,-151.88 580.38,-148.92 580.38,-145.96 580.38,-145.96 580.38,-140.04 580.38,-140.04 580.38,-137.08 583.33,-134.12 586.29,-134.12 586.29,-134.12 628.46,-134.12 628.46,-134.12 631.42,-134.12 634.38,-137.08 634.38,-140.04 634.38,-140.04 634.38,-145.96 634.38,-145.96 634.38,-148.92 631.42,-151.88 628.46,-151.88"/>
<text text-anchor="start" x="589.75" y="-139.32" font-family="Helvetica,sans-Serif" font-size="9.00">Page.tsx</text>
</a>
</g>
</g>
<!-- src/pages/home/index.ts&#45;&gt;src/pages/home/ui/Page.tsx -->
<g id="edge8" class="edge">
<title>src/pages/home/index.ts&#45;&gt;src/pages/home/ui/Page.tsx</title>
<path fill="none" stroke="#000000" stroke-width="2" stroke-opacity="0.200000" d="M530.36,-152.65C543.38,-151 559.22,-148.99 573.07,-147.23"/>
<polygon fill="#000000" fill-opacity="0.200000" stroke="#000000" stroke-width="2" stroke-opacity="0.200000" points="579.37,-148.55 573.16,-147.22 578.84,-144.38 579.37,-148.55"/>
</g>
<!-- src/pages/profile/ui/Page.tsx -->
<g id="node10" class="node">
<title>src/pages/profile/ui/Page.tsx</title>
<g id="a_node10"><a xlink:href="src/pages/profile/ui/Page.tsx" xlink:title="Page.tsx">
<path fill="#bbfeff" stroke="black" d="M628.46,-57.88C628.46,-57.88 586.29,-57.88 586.29,-57.88 583.33,-57.88 580.38,-54.92 580.38,-51.96 580.38,-51.96 580.38,-46.04 580.38,-46.04 580.38,-43.08 583.33,-40.12 586.29,-40.12 586.29,-40.12 628.46,-40.12 628.46,-40.12 631.42,-40.12 634.38,-43.08 634.38,-46.04 634.38,-46.04 634.38,-51.96 634.38,-51.96 634.38,-54.92 631.42,-57.88 628.46,-57.88"/>
<text text-anchor="start" x="589.75" y="-45.33" font-family="Helvetica,sans-Serif" font-size="9.00">Page.tsx</text>
</a>
</g>
</g>
<!-- src/pages/profile/index.ts&#45;&gt;src/pages/profile/ui/Page.tsx -->
<g id="edge9" class="edge">
<title>src/pages/profile/index.ts&#45;&gt;src/pages/profile/ui/Page.tsx</title>
<path fill="none" stroke="#000000" stroke-width="2" stroke-opacity="0.200000" d="M530.36,-58.65C543.38,-57 559.22,-54.99 573.07,-53.23"/>
<polygon fill="#000000" fill-opacity="0.200000" stroke="#000000" stroke-width="2" stroke-opacity="0.200000" points="579.37,-54.55 573.16,-53.22 578.84,-50.38 579.37,-54.55"/>
</g>
<!-- src/pages/profile/ui/Page.tsx&#45;&gt;src/shared/dialog&#45;manager/index.ts -->
<g id="edge10" class="edge">
<title>src/pages/profile/ui/Page.tsx&#45;&gt;src/shared/dialog&#45;manager/index.ts</title>
<path fill="none" stroke="#000000" stroke-width="2" stroke-opacity="0.200000" d="M617.71,-58.25C630.66,-71.52 654.07,-97.23 668.25,-123 692.45,-166.98 707.79,-224.72 714.44,-253.34"/>
<polygon fill="#000000" fill-opacity="0.200000" stroke="#000000" stroke-width="2" stroke-opacity="0.200000" points="712.32,-253.52 715.69,-258.92 716.42,-252.6 712.32,-253.52"/>
</g>
<!-- src/shared/ui/AlertDialog.tsx -->
<g id="node11" class="node">
<title>src/shared/ui/AlertDialog.tsx</title>
<g id="a_node11"><a xlink:href="src/shared/ui/AlertDialog.tsx" xlink:title="AlertDialog.tsx">
<path fill="#bbfeff" stroke="black" d="M983.33,-151.88C983.33,-151.88 919.92,-151.88 919.92,-151.88 916.96,-151.88 914,-148.92 914,-145.96 914,-145.96 914,-140.04 914,-140.04 914,-137.08 916.96,-134.12 919.92,-134.12 919.92,-134.12 983.33,-134.12 983.33,-134.12 986.29,-134.12 989.25,-137.08 989.25,-140.04 989.25,-140.04 989.25,-145.96 989.25,-145.96 989.25,-148.92 986.29,-151.88 983.33,-151.88"/>
<text text-anchor="start" x="922" y="-139.32" font-family="Helvetica,sans-Serif" font-size="9.00">AlertDialog.tsx</text>
</a>
</g>
</g>
<!-- src/pages/profile/ui/Page.tsx&#45;&gt;src/shared/ui/AlertDialog.tsx -->
<g id="edge11" class="edge">
<title>src/pages/profile/ui/Page.tsx&#45;&gt;src/shared/ui/AlertDialog.tsx</title>
<path fill="none" stroke="#000000" stroke-width="2" stroke-opacity="0.200000" d="M634.66,-56.22C693.55,-72.39 836.49,-111.65 908.16,-131.34"/>
<polygon fill="#000000" fill-opacity="0.200000" stroke="#000000" stroke-width="2" stroke-opacity="0.200000" points="907.28,-133.27 913.62,-132.84 908.39,-129.22 907.28,-133.27"/>
</g>
<!-- src/shared/dialog&#45;manager/lib/DialogManagerProvider.tsx&#45;&gt;src/shared/dialog&#45;manager/model/store.ts -->
<g id="edge16" class="edge">
<title>src/shared/dialog&#45;manager/lib/DialogManagerProvider.tsx&#45;&gt;src/shared/dialog&#45;manager/model/store.ts</title>
<path fill="none" stroke="#000000" stroke-width="2" stroke-opacity="0.200000" d="M873.36,-250.3C881.59,-252.1 890.07,-254.03 898,-256 903.76,-257.43 909.85,-259.05 915.75,-260.69"/>
<polygon fill="#000000" fill-opacity="0.200000" stroke="#000000" stroke-width="2" stroke-opacity="0.200000" points="914.96,-262.65 921.31,-262.26 916.1,-258.61 914.96,-262.65"/>
</g>
<!-- src/shared/ui/Dialog.tsx -->
<g id="node15" class="node">
<title>src/shared/ui/Dialog.tsx</title>
<g id="a_node15"><a xlink:href="src/shared/ui/Dialog.tsx" xlink:title="Dialog.tsx">
<path fill="#bbfeff" stroke="black" d="M973.96,-181.88C973.96,-181.88 929.29,-181.88 929.29,-181.88 926.33,-181.88 923.38,-178.92 923.38,-175.96 923.38,-175.96 923.38,-170.04 923.38,-170.04 923.38,-167.08 926.33,-164.12 929.29,-164.12 929.29,-164.12 973.96,-164.12 973.96,-164.12 976.92,-164.12 979.88,-167.08 979.88,-170.04 979.88,-170.04 979.88,-175.96 979.88,-175.96 979.88,-178.92 976.92,-181.88 973.96,-181.88"/>
<text text-anchor="start" x="931.38" y="-169.32" font-family="Helvetica,sans-Serif" font-size="9.00">Dialog.tsx</text>
</a>
</g>
</g>
<!-- src/shared/dialog&#45;manager/lib/DialogManagerProvider.tsx&#45;&gt;src/shared/ui/Dialog.tsx -->
<g id="edge15" class="edge">
<title>src/shared/dialog&#45;manager/lib/DialogManagerProvider.tsx&#45;&gt;src/shared/ui/Dialog.tsx</title>
<path fill="none" stroke="#000000" stroke-width="2" stroke-opacity="0.200000" d="M844.04,-231.69C865.29,-219.99 901.9,-199.83 926.19,-186.45"/>
<polygon fill="#000000" fill-opacity="0.200000" stroke="#000000" stroke-width="2" stroke-opacity="0.200000" points="927.02,-188.39 931.26,-183.66 925,-184.71 927.02,-188.39"/>
</g>
<!-- src/shared/dialog&#45;manager/lib/useDialog.tsx&#45;&gt;src/shared/dialog&#45;manager/model/store.ts -->
<g id="edge17" class="edge">
<title>src/shared/dialog&#45;manager/lib/useDialog.tsx&#45;&gt;src/shared/dialog&#45;manager/model/store.ts</title>
<path fill="none" stroke="#000000" stroke-width="2" stroke-opacity="0.200000" d="M862.18,-271C878.91,-271 898.87,-271 915.6,-271"/>
<polygon fill="#000000" fill-opacity="0.200000" stroke="#000000" stroke-width="2" stroke-opacity="0.200000" points="915.49,-273.1 921.49,-271 915.49,-268.9 915.49,-273.1"/>
</g>
<!-- src/shared/dialog&#45;manager/model/types.ts -->
<g id="node16" class="node">
<title>src/shared/dialog&#45;manager/model/types.ts</title>
<g id="a_node16"><a xlink:href="src/shared/dialog-manager/model/types.ts" xlink:title="types.ts">
<path fill="#ddfeff" stroke="black" d="M1053.33,-279.88C1053.33,-279.88 1011.17,-279.88 1011.17,-279.88 1008.21,-279.88 1005.25,-276.92 1005.25,-273.96 1005.25,-273.96 1005.25,-268.04 1005.25,-268.04 1005.25,-265.08 1008.21,-262.12 1011.17,-262.12 1011.17,-262.12 1053.33,-262.12 1053.33,-262.12 1056.29,-262.12 1059.25,-265.08 1059.25,-268.04 1059.25,-268.04 1059.25,-273.96 1059.25,-273.96 1059.25,-276.92 1056.29,-279.88 1053.33,-279.88"/>
<text text-anchor="start" x="1016.88" y="-267.32" font-family="Helvetica,sans-Serif" font-size="9.00">types.ts</text>
</a>
</g>
</g>
<!-- src/shared/dialog&#45;manager/model/store.ts&#45;&gt;src/shared/dialog&#45;manager/model/types.ts -->
<g id="edge18" class="edge">
<title>src/shared/dialog&#45;manager/model/store.ts&#45;&gt;src/shared/dialog&#45;manager/model/types.ts</title>
<path fill="none" stroke="#000000" stroke-opacity="0.200000" d="M978.81,-271C984.84,-271 991.35,-271 997.65,-271"/>
<polygon fill="none" stroke="#000000" stroke-opacity="0.200000" points="997.4,-273.1 1003.4,-271 997.4,-268.9 997.4,-273.1"/>
</g>
<!-- src/widgets/LoginDialog/ui/LoginDialogTrigger.tsx&#45;&gt;src/shared/dialog&#45;manager/index.ts -->
<g id="edge21" class="edge">
<title>src/widgets/LoginDialog/ui/LoginDialogTrigger.tsx&#45;&gt;src/shared/dialog&#45;manager/index.ts</title>
<path fill="none" stroke="#000000" stroke-width="2" stroke-opacity="0.200000" d="M538.61,-280.33C548.8,-282.67 560.03,-284.83 570.5,-286 613.68,-290.81 625.27,-292.31 668.25,-286 673.36,-285.25 678.68,-284.09 683.85,-282.74"/>
<polygon fill="#000000" fill-opacity="0.200000" stroke="#000000" stroke-width="2" stroke-opacity="0.200000" points="684.25,-284.81 689.45,-281.15 683.11,-280.77 684.25,-284.81"/>
</g>
<!-- src/widgets/LoginDialog/ui/LoginForm.tsx -->
<g id="node18" class="node">
<title>src/widgets/LoginDialog/ui/LoginForm.tsx</title>
<g id="a_node18"><a xlink:href="src/widgets/LoginDialog/ui/LoginForm.tsx" xlink:title="LoginForm.tsx">
<path fill="#bbfeff" stroke="black" d="M638.33,-279.88C638.33,-279.88 576.42,-279.88 576.42,-279.88 573.46,-279.88 570.5,-276.92 570.5,-273.96 570.5,-273.96 570.5,-268.04 570.5,-268.04 570.5,-265.08 573.46,-262.12 576.42,-262.12 576.42,-262.12 638.33,-262.12 638.33,-262.12 641.29,-262.12 644.25,-265.08 644.25,-268.04 644.25,-268.04 644.25,-273.96 644.25,-273.96 644.25,-276.92 641.29,-279.88 638.33,-279.88"/>
<text text-anchor="start" x="578.5" y="-267.32" font-family="Helvetica,sans-Serif" font-size="9.00">LoginForm.tsx</text>
</a>
</g>
</g>
<!-- src/widgets/LoginDialog/ui/LoginDialogTrigger.tsx&#45;&gt;src/widgets/LoginDialog/ui/LoginForm.tsx -->
<g id="edge20" class="edge">
<title>src/widgets/LoginDialog/ui/LoginDialogTrigger.tsx&#45;&gt;src/widgets/LoginDialog/ui/LoginForm.tsx</title>
<path fill="none" stroke="#000000" stroke-width="2" stroke-opacity="0.200000" d="M557.89,-271C559.05,-271 560.21,-271 561.37,-271"/>
<polygon fill="#000000" fill-opacity="0.200000" stroke="#000000" stroke-width="2" stroke-opacity="0.200000" points="561.11,-273.1 567.11,-271 561.11,-268.9 561.11,-273.1"/>
</g>
<!-- src/widgets/LoginDialog/ui/LoginForm.tsx&#45;&gt;src/shared/dialog&#45;manager/index.ts -->
<g id="edge22" class="edge">
<title>src/widgets/LoginDialog/ui/LoginForm.tsx&#45;&gt;src/shared/dialog&#45;manager/index.ts</title>
<path fill="none" stroke="#000000" stroke-width="2" stroke-opacity="0.200000" d="M644.66,-271C657.13,-271 671.06,-271 683.42,-271"/>
<polygon fill="#000000" fill-opacity="0.200000" stroke="#000000" stroke-width="2" stroke-opacity="0.200000" points="683.07,-273.1 689.07,-271 683.07,-268.9 683.07,-273.1"/>
</g>
<!-- src/widgets/LoginDialog/ui/LoginForm.tsx&#45;&gt;src/shared/ui/AlertDialog.tsx -->
<g id="edge23" class="edge">
<title>src/widgets/LoginDialog/ui/LoginForm.tsx&#45;&gt;src/shared/ui/AlertDialog.tsx</title>
<path fill="none" stroke="#000000" stroke-width="2" stroke-opacity="0.200000" d="M616.62,-261.67C628.51,-248.78 651.76,-225.7 676.25,-213 751.02,-174.22 848.61,-155.99 904.98,-148.18"/>
<polygon fill="#000000" fill-opacity="0.200000" stroke="#000000" stroke-width="2" stroke-opacity="0.200000" points="904.99,-150.3 910.66,-147.42 904.43,-146.13 904.99,-150.3"/>
</g>
</g>
</svg>
