<?xml version="1.0" encoding="UTF-8" standalone="no"?>
<!DOCTYPE svg PUBLIC "-//W3C//DTD SVG 1.1//EN"
 "http://www.w3.org/Graphics/SVG/1.1/DTD/svg11.dtd">
<!-- Generated by graphviz version 12.0.0 (20240704.0754)
 -->
<!-- Title: dependency&#45;cruiser output Pages: 1 -->
<svg width="521pt" height="266pt"
 viewBox="0.00 0.00 520.50 266.00" xmlns="http://www.w3.org/2000/svg" xmlns:xlink="http://www.w3.org/1999/xlink">
<g id="graph0" class="graph" transform="scale(1 1) rotate(0) translate(4 262)">
<title>dependency&#45;cruiser output</title>
<polygon fill="white" stroke="none" points="-4,4 -4,-262 516.5,-262 516.5,4 -4,4"/>
<g id="clust1" class="cluster">
<title>cluster_src</title>
<path fill="#ffffff" stroke="black" stroke-width="2" d="M20,-8C20,-8 492.5,-8 492.5,-8 498.5,-8 504.5,-14 504.5,-20 504.5,-20 504.5,-238 504.5,-238 504.5,-244 498.5,-250 492.5,-250 492.5,-250 20,-250 20,-250 14,-250 8,-244 8,-238 8,-238 8,-20 8,-20 8,-14 14,-8 20,-8"/>
<text text-anchor="middle" x="256.25" y="-237.45" font-family="Helvetica,sans-Serif" font-weight="bold" font-size="9.00">src</text>
</g>
<g id="clust2" class="cluster">
<title>cluster_src/app</title>
<path fill="#ffffff" stroke="black" stroke-width="2" d="M28,-22C28,-22 222,-22 222,-22 228,-22 234,-28 234,-34 234,-34 234,-122 234,-122 234,-128 228,-134 222,-134 222,-134 28,-134 28,-134 22,-134 16,-128 16,-122 16,-122 16,-34 16,-34 16,-28 22,-22 28,-22"/>
<text text-anchor="middle" x="125" y="-121.45" font-family="Helvetica,sans-Serif" font-weight="bold" font-size="9.00">app</text>
</g>
<g id="clust3" class="cluster">
<title>cluster_src/app/providers</title>
<path fill="#ffffff" stroke="black" stroke-width="2" d="M98,-56C98,-56 214,-56 214,-56 220,-56 226,-62 226,-68 226,-68 226,-96 226,-96 226,-102 220,-108 214,-108 214,-108 98,-108 98,-108 92,-108 86,-102 86,-96 86,-96 86,-68 86,-68 86,-62 92,-56 98,-56"/>
<text text-anchor="middle" x="156" y="-95.45" font-family="Helvetica,sans-Serif" font-weight="bold" font-size="9.00">providers</text>
</g>
<g id="clust4" class="cluster">
<title>cluster_src/pages</title>
<path fill="#ffffff" stroke="black" stroke-width="2" d="M168,-142C168,-142 214,-142 214,-142 220,-142 226,-148 226,-154 226,-154 226,-212 226,-212 226,-218 220,-224 214,-224 214,-224 168,-224 168,-224 162,-224 156,-218 156,-212 156,-212 156,-154 156,-154 156,-148 162,-142 168,-142"/>
<text text-anchor="middle" x="191" y="-211.45" font-family="Helvetica,sans-Serif" font-weight="bold" font-size="9.00">pages</text>
</g>
<g id="clust5" class="cluster">
<title>cluster_src/shared</title>
<path fill="#ffffff" stroke="black" stroke-width="2" d="M344.25,-63C344.25,-63 484.5,-63 484.5,-63 490.5,-63 496.5,-69 496.5,-75 496.5,-75 496.5,-103 496.5,-103 496.5,-109 490.5,-115 484.5,-115 484.5,-115 344.25,-115 344.25,-115 338.25,-115 332.25,-109 332.25,-103 332.25,-103 332.25,-75 332.25,-75 332.25,-69 338.25,-63 344.25,-63"/>
<text text-anchor="middle" x="414.38" y="-102.45" font-family="Helvetica,sans-Serif" font-weight="bold" font-size="9.00">shared</text>
</g>
<g id="clust6" class="cluster">
<title>cluster_src/widgets</title>
<path fill="#ffffff" stroke="black" stroke-width="2" d="M254,-63C254,-63 312.25,-63 312.25,-63 318.25,-63 324.25,-69 324.25,-75 324.25,-75 324.25,-103 324.25,-103 324.25,-109 318.25,-115 312.25,-115 312.25,-115 254,-115 254,-115 248,-115 242,-109 242,-103 242,-103 242,-75 242,-75 242,-69 248,-63 254,-63"/>
<text text-anchor="middle" x="283.12" y="-102.45" font-family="Helvetica,sans-Serif" font-weight="bold" font-size="9.00">widgets</text>
</g>
<!-- src/app/entry.css -->
<g id="node1" class="node">
<title>src/app/entry.css</title>
<g id="a_node1"><a xlink:href="src/app/entry.css" xlink:title="entry.css">
<path fill="#ffffcc" stroke="black" d="M142.08,-47.88C142.08,-47.88 99.92,-47.88 99.92,-47.88 96.96,-47.88 94,-44.92 94,-41.96 94,-41.96 94,-36.04 94,-36.04 94,-33.08 96.96,-30.12 99.92,-30.12 99.92,-30.12 142.08,-30.12 142.08,-30.12 145.04,-30.12 148,-33.08 148,-36.04 148,-36.04 148,-41.96 148,-41.96 148,-44.92 145.04,-47.88 142.08,-47.88"/>
<text text-anchor="start" x="103" y="-35.33" font-family="Helvetica,sans-Serif" font-size="9.00">entry.css</text>
</a>
</g>
</g>
<!-- src/app/entry.tsx -->
<g id="node2" class="node">
<title>src/app/entry.tsx</title>
<g id="a_node2"><a xlink:href="src/app/entry.tsx" xlink:title="entry.tsx">
<path fill="#bbfeff" stroke="black" d="M72.08,-47.88C72.08,-47.88 29.92,-47.88 29.92,-47.88 26.96,-47.88 24,-44.92 24,-41.96 24,-41.96 24,-36.04 24,-36.04 24,-33.08 26.96,-30.12 29.92,-30.12 29.92,-30.12 72.08,-30.12 72.08,-30.12 75.04,-30.12 78,-33.08 78,-36.04 78,-36.04 78,-41.96 78,-41.96 78,-44.92 75.04,-47.88 72.08,-47.88"/>
<text text-anchor="start" x="34.12" y="-35.33" font-family="Helvetica,sans-Serif" font-size="9.00">entry.tsx</text>
</a>
</g>
</g>
<!-- src/app/entry.tsx&#45;&gt;src/app/entry.css -->
<g id="edge1" class="edge">
<title>src/app/entry.tsx&#45;&gt;src/app/entry.css</title>
<path fill="none" stroke="#000000" stroke-width="2" stroke-opacity="0.200000" d="M78.49,-39C80.7,-39 82.97,-39 85.24,-39"/>
<polygon fill="#000000" fill-opacity="0.200000" stroke="#000000" stroke-width="2" stroke-opacity="0.200000" points="84.9,-41.1 90.9,-39 84.9,-36.9 84.9,-41.1"/>
</g>
<!-- src/app/providers/router/ -->
<g id="node3" class="node">
<title>src/app/providers/router/</title>
<g id="a_node3"><a xlink:href="src/app/providers/router/" xlink:title="router">
<polygon fill="#ffffcc" stroke="black" points="148,-81.88 95.97,-81.88 94,-79.9 94,-64.12 146.03,-64.12 148,-66.1 148,-81.88"/>
<polyline fill="none" stroke="black" points="146.03,-79.9 94,-79.9"/>
<polyline fill="none" stroke="black" points="146.03,-79.9 146.03,-64.12"/>
<polyline fill="none" stroke="black" points="146.03,-79.9 148,-81.88"/>
<text text-anchor="start" x="109" y="-69.33" font-family="Helvetica,sans-Serif" font-size="9.00">router</text>
</a>
</g>
</g>
<!-- src/app/entry.tsx&#45;&gt;src/app/providers/router/ -->
<g id="edge2" class="edge">
<title>src/app/entry.tsx&#45;&gt;src/app/providers/router/</title>
<path fill="none" stroke="#000000" stroke-width="2" stroke-opacity="0.200000" d="M65.56,-48.19C70.47,-51.34 76.2,-54.84 86.14,-59.81"/>
<polygon fill="#000000" fill-opacity="0.200000" stroke="#000000" stroke-width="2" stroke-opacity="0.200000" points="85.12,-61.65 91.44,-62.39 86.96,-57.88 85.12,-61.65"/>
</g>
<!-- src/shared/dialog&#45;manager/ -->
<g id="node4" class="node">
<title>src/shared/dialog&#45;manager/</title>
<g id="a_node4"><a xlink:href="src/shared/dialog-manager/" xlink:title="dialog&#45;manager">
<polygon fill="#ffffcc" stroke="black" points="421.5,-88.88 342.22,-88.88 340.25,-86.9 340.25,-71.12 419.53,-71.12 421.5,-73.1 421.5,-88.88"/>
<polyline fill="none" stroke="black" points="419.53,-86.9 340.25,-86.9"/>
<polyline fill="none" stroke="black" points="419.53,-86.9 419.53,-71.12"/>
<polyline fill="none" stroke="black" points="419.53,-86.9 421.5,-88.88"/>
<text text-anchor="start" x="348.25" y="-76.33" font-family="Helvetica,sans-Serif" font-size="9.00">dialog&#45;manager</text>
</a>
</g>
</g>
<!-- src/app/entry.tsx&#45;&gt;src/shared/dialog&#45;manager/ -->
<g id="edge3" class="edge">
<title>src/app/entry.tsx&#45;&gt;src/shared/dialog&#45;manager/</title>
<path fill="none" stroke="#000000" stroke-width="2" stroke-opacity="0.200000" d="M69.18,-29.77C74.43,-27.41 80.32,-25.2 86,-24 112.96,-18.32 120.58,-21.23 148,-24 227.55,-32.04 247.27,-38.42 324.25,-60 332.09,-62.2 340.41,-64.95 348.16,-67.71"/>
<polygon fill="#000000" fill-opacity="0.200000" stroke="#000000" stroke-width="2" stroke-opacity="0.200000" points="347.1,-69.56 353.45,-69.64 348.54,-65.61 347.1,-69.56"/>
</g>
<!-- src/app/providers/layout/ -->
<g id="node5" class="node">
<title>src/app/providers/layout/</title>
<g id="a_node5"><a xlink:href="src/app/providers/layout/" xlink:title="layout">
<polygon fill="#ffffcc" stroke="black" points="218,-81.88 165.97,-81.88 164,-79.9 164,-64.12 216.03,-64.12 218,-66.1 218,-81.88"/>
<polyline fill="none" stroke="black" points="216.03,-79.9 164,-79.9"/>
<polyline fill="none" stroke="black" points="216.03,-79.9 216.03,-64.12"/>
<polyline fill="none" stroke="black" points="216.03,-79.9 218,-81.88"/>
<text text-anchor="start" x="178.62" y="-69.33" font-family="Helvetica,sans-Serif" font-size="9.00">layout</text>
</a>
</g>
</g>
<!-- src/app/providers/router/&#45;&gt;src/app/providers/layout/ -->
<g id="edge5" class="edge">
<title>src/app/providers/router/&#45;&gt;src/app/providers/layout/</title>
<path fill="none" stroke="#000000" stroke-width="2" stroke-opacity="0.200000" d="M148.49,-73C150.7,-73 152.97,-73 155.24,-73"/>
<polygon fill="#000000" fill-opacity="0.200000" stroke="#000000" stroke-width="2" stroke-opacity="0.200000" points="154.9,-75.1 160.9,-73 154.9,-70.9 154.9,-75.1"/>
</g>
<!-- src/pages/home/ -->
<g id="node7" class="node">
<title>src/pages/home/</title>
<g id="a_node7"><a xlink:href="src/pages/home/" xlink:title="home">
<polygon fill="#ffffcc" stroke="black" points="218,-167.88 165.97,-167.88 164,-165.9 164,-150.12 216.03,-150.12 218,-152.1 218,-167.88"/>
<polyline fill="none" stroke="black" points="216.03,-165.9 164,-165.9"/>
<polyline fill="none" stroke="black" points="216.03,-165.9 216.03,-150.12"/>
<polyline fill="none" stroke="black" points="216.03,-165.9 218,-167.88"/>
<text text-anchor="start" x="179.38" y="-155.32" font-family="Helvetica,sans-Serif" font-size="9.00">home</text>
</a>
</g>
</g>
<!-- src/app/providers/router/&#45;&gt;src/pages/home/ -->
<g id="edge6" class="edge">
<title>src/app/providers/router/&#45;&gt;src/pages/home/</title>
<path fill="none" stroke="#000000" stroke-width="2" stroke-opacity="0.200000" d="M129.28,-82.2C140.73,-96.69 163.11,-124.99 177.27,-142.9"/>
<polygon fill="#000000" fill-opacity="0.200000" stroke="#000000" stroke-width="2" stroke-opacity="0.200000" points="175.53,-144.08 180.9,-147.49 178.82,-141.48 175.53,-144.08"/>
</g>
<!-- src/pages/profile/ -->
<g id="node8" class="node">
<title>src/pages/profile/</title>
<g id="a_node8"><a xlink:href="src/pages/profile/" xlink:title="profile">
<polygon fill="#ffffcc" stroke="black" points="218,-197.88 165.97,-197.88 164,-195.9 164,-180.12 216.03,-180.12 218,-182.1 218,-197.88"/>
<polyline fill="none" stroke="black" points="216.03,-195.9 164,-195.9"/>
<polyline fill="none" stroke="black" points="216.03,-195.9 216.03,-180.12"/>
<polyline fill="none" stroke="black" points="216.03,-195.9 218,-197.88"/>
<text text-anchor="start" x="178.25" y="-185.32" font-family="Helvetica,sans-Serif" font-size="9.00">profile</text>
</a>
</g>
</g>
<!-- src/app/providers/router/&#45;&gt;src/pages/profile/ -->
<g id="edge7" class="edge">
<title>src/app/providers/router/&#45;&gt;src/pages/profile/</title>
<path fill="none" stroke="#000000" stroke-width="2" stroke-opacity="0.200000" d="M122.67,-82.33C124.54,-101.78 131.42,-147.08 156,-174 156.27,-174.3 156.55,-174.59 156.84,-174.88"/>
<polygon fill="#000000" fill-opacity="0.200000" stroke="#000000" stroke-width="2" stroke-opacity="0.200000" points="155.19,-176.26 161.22,-178.27 157.76,-172.93 155.19,-176.26"/>
</g>
<!-- src/shared/ui/ -->
<g id="node9" class="node">
<title>src/shared/ui/</title>
<g id="a_node9"><a xlink:href="src/shared/ui/" xlink:title="ui">
<polygon fill="#ffffcc" stroke="black" points="488.5,-88.88 436.47,-88.88 434.5,-86.9 434.5,-71.12 486.53,-71.12 488.5,-73.1 488.5,-88.88"/>
<polyline fill="none" stroke="black" points="486.53,-86.9 434.5,-86.9"/>
<polyline fill="none" stroke="black" points="486.53,-86.9 486.53,-71.12"/>
<polyline fill="none" stroke="black" points="486.53,-86.9 488.5,-88.88"/>
<text text-anchor="start" x="457.75" y="-76.33" font-family="Helvetica,sans-Serif" font-size="9.00">ui</text>
</a>
</g>
</g>
<!-- src/shared/dialog&#45;manager/&#45;&gt;src/shared/ui/ -->
<g id="edge10" class="edge">
<title>src/shared/dialog&#45;manager/&#45;&gt;src/shared/ui/</title>
<path fill="none" stroke="#000000" stroke-width="2" stroke-opacity="0.200000" d="M421.65,-80C422.85,-80 424.05,-80 425.24,-80"/>
<polygon fill="#000000" fill-opacity="0.200000" stroke="#000000" stroke-width="2" stroke-opacity="0.200000" points="425.2,-82.1 431.2,-80 425.2,-77.9 425.2,-82.1"/>
</g>
<!-- src/widgets/LoginDialog/ -->
<g id="node6" class="node">
<title>src/widgets/LoginDialog/</title>
<g id="a_node6"><a xlink:href="src/widgets/LoginDialog/" xlink:title="LoginDialog">
<polygon fill="#ffffcc" stroke="black" points="316.25,-88.88 251.97,-88.88 250,-86.9 250,-71.12 314.28,-71.12 316.25,-73.1 316.25,-88.88"/>
<polyline fill="none" stroke="black" points="314.28,-86.9 250,-86.9"/>
<polyline fill="none" stroke="black" points="314.28,-86.9 314.28,-71.12"/>
<polyline fill="none" stroke="black" points="314.28,-86.9 316.25,-88.88"/>
<text text-anchor="start" x="258" y="-76.33" font-family="Helvetica,sans-Serif" font-size="9.00">LoginDialog</text>
</a>
</g>
</g>
<!-- src/app/providers/layout/&#45;&gt;src/widgets/LoginDialog/ -->
<g id="edge4" class="edge">
<title>src/app/providers/layout/&#45;&gt;src/widgets/LoginDialog/</title>
<path fill="none" stroke="#000000" stroke-width="2" stroke-opacity="0.200000" d="M218.07,-75.02C225.17,-75.58 233.04,-76.19 240.76,-76.79"/>
<polygon fill="#000000" fill-opacity="0.200000" stroke="#000000" stroke-width="2" stroke-opacity="0.200000" points="240.54,-78.88 246.69,-77.25 240.87,-74.69 240.54,-78.88"/>
</g>
<!-- src/widgets/LoginDialog/&#45;&gt;src/shared/dialog&#45;manager/ -->
<g id="edge11" class="edge">
<title>src/widgets/LoginDialog/&#45;&gt;src/shared/dialog&#45;manager/</title>
<path fill="none" stroke="#000000" stroke-width="2" stroke-opacity="0.200000" d="M316.54,-80C321.22,-80 326.12,-80 331.03,-80"/>
<polygon fill="#000000" fill-opacity="0.200000" stroke="#000000" stroke-width="2" stroke-opacity="0.200000" points="330.82,-82.1 336.82,-80 330.82,-77.9 330.82,-82.1"/>
</g>
<!-- src/widgets/LoginDialog/&#45;&gt;src/shared/ui/ -->
<g id="edge12" class="edge">
<title>src/widgets/LoginDialog/&#45;&gt;src/shared/ui/</title>
<path fill="none" stroke="#000000" stroke-width="2" stroke-opacity="0.200000" d="M308.77,-89.25C316.2,-91.61 324.46,-93.81 332.25,-95 371.46,-100.97 382.5,-102.24 421.5,-95 425.11,-94.33 428.82,-93.34 432.44,-92.18"/>
<polygon fill="#000000" fill-opacity="0.200000" stroke="#000000" stroke-width="2" stroke-opacity="0.200000" points="432.88,-94.25 437.82,-90.26 431.46,-90.3 432.88,-94.25"/>
</g>
<!-- src/pages/profile/&#45;&gt;src/shared/dialog&#45;manager/ -->
<g id="edge8" class="edge">
<title>src/pages/profile/&#45;&gt;src/shared/dialog&#45;manager/</title>
<path fill="none" stroke="#000000" stroke-width="2" stroke-opacity="0.200000" d="M218.12,-180.64C223.46,-178.67 228.98,-176.42 234,-174 282.37,-150.68 334.1,-114.27 361.06,-94.29"/>
<polygon fill="#000000" fill-opacity="0.200000" stroke="#000000" stroke-width="2" stroke-opacity="0.200000" points="362.01,-96.21 365.56,-90.93 359.5,-92.84 362.01,-96.21"/>
</g>
<!-- src/pages/profile/&#45;&gt;src/shared/ui/ -->
<g id="edge9" class="edge">
<title>src/pages/profile/&#45;&gt;src/shared/ui/</title>
<path fill="none" stroke="#000000" stroke-width="2" stroke-opacity="0.200000" d="M218.28,-182.42C245.28,-175.35 288.33,-163.18 324.25,-149 369.08,-131.3 378.66,-123.1 421.5,-101 426.14,-98.61 431.06,-96 435.79,-93.47"/>
<polygon fill="#000000" fill-opacity="0.200000" stroke="#000000" stroke-width="2" stroke-opacity="0.200000" points="436.53,-95.46 440.82,-90.77 434.54,-91.76 436.53,-95.46"/>
</g>
</g>
</svg>
