<?xml version="1.0" encoding="UTF-8" standalone="no"?>
<!DOCTYPE svg PUBLIC "-//W3C//DTD SVG 1.1//EN"
 "http://www.w3.org/Graphics/SVG/1.1/DTD/svg11.dtd">
<!-- Generated by graphviz version 12.0.0 (20240704.0754)
 -->
<!-- Title: dependency&#45;cruiser output Pages: 1 -->
<svg width="1113pt" height="410pt"
 viewBox="0.00 0.00 1112.62 410.00" xmlns="http://www.w3.org/2000/svg" xmlns:xlink="http://www.w3.org/1999/xlink">
<g id="graph0" class="graph" transform="scale(1 1) rotate(0) translate(4 406)">
<title>dependency&#45;cruiser output</title>
<polygon fill="white" stroke="none" points="-4,4 -4,-406 1108.62,-406 1108.62,4 -4,4"/>
<g id="clust1" class="cluster">
<title>cluster_src</title>
<path fill="#ffffff" stroke="black" stroke-width="2" d="M20,-8C20,-8 1084.62,-8 1084.62,-8 1090.62,-8 1096.62,-14 1096.62,-20 1096.62,-20 1096.62,-382 1096.62,-382 1096.62,-388 1090.62,-394 1084.62,-394 1084.62,-394 20,-394 20,-394 14,-394 8,-388 8,-382 8,-382 8,-20 8,-20 8,-14 14,-8 20,-8"/>
<text text-anchor="middle" x="552.31" y="-381.45" font-family="Helvetica,sans-Serif" font-weight="bold" font-size="9.00">src</text>
</g>
<g id="clust2" class="cluster">
<title>cluster_src/app</title>
<path fill="#ffffff" stroke="black" stroke-width="2" d="M28,-132C28,-132 347.88,-132 347.88,-132 353.88,-132 359.88,-138 359.88,-144 359.88,-144 359.88,-266 359.88,-266 359.88,-272 353.88,-278 347.88,-278 347.88,-278 28,-278 28,-278 22,-278 16,-272 16,-266 16,-266 16,-144 16,-144 16,-138 22,-132 28,-132"/>
<text text-anchor="middle" x="187.94" y="-265.45" font-family="Helvetica,sans-Serif" font-weight="bold" font-size="9.00">app</text>
</g>
<g id="clust3" class="cluster">
<title>cluster_src/app/providers</title>
<path fill="#ffffff" stroke="black" stroke-width="2" d="M103.38,-166C103.38,-166 339.88,-166 339.88,-166 345.88,-166 351.88,-172 351.88,-178 351.88,-178 351.88,-240 351.88,-240 351.88,-246 345.88,-252 339.88,-252 339.88,-252 103.37,-252 103.37,-252 97.38,-252 91.38,-246 91.38,-240 91.38,-240 91.38,-178 91.38,-178 91.38,-172 97.38,-166 103.38,-166"/>
<text text-anchor="middle" x="221.62" y="-239.45" font-family="Helvetica,sans-Serif" font-weight="bold" font-size="9.00">providers</text>
</g>
<g id="clust4" class="cluster">
<title>cluster_src/app/providers/layout</title>
<path fill="#ffffff" stroke="black" stroke-width="2" d="M227.12,-174C227.12,-174 331.88,-174 331.88,-174 337.88,-174 343.88,-180 343.88,-186 343.88,-186 343.88,-214 343.88,-214 343.88,-220 337.88,-226 331.88,-226 331.88,-226 227.12,-226 227.12,-226 221.12,-226 215.12,-220 215.12,-214 215.12,-214 215.12,-186 215.12,-186 215.12,-180 221.12,-174 227.12,-174"/>
<text text-anchor="middle" x="279.5" y="-213.45" font-family="Helvetica,sans-Serif" font-weight="bold" font-size="9.00">layout</text>
</g>
<g id="clust5" class="cluster">
<title>cluster_src/app/providers/router</title>
<path fill="#ffffff" stroke="black" stroke-width="2" d="M111.38,-174C111.38,-174 195.12,-174 195.12,-174 201.12,-174 207.12,-180 207.12,-186 207.12,-186 207.12,-214 207.12,-214 207.12,-220 201.12,-226 195.12,-226 195.12,-226 111.38,-226 111.38,-226 105.38,-226 99.38,-220 99.38,-214 99.38,-214 99.38,-186 99.38,-186 99.38,-180 105.38,-174 111.38,-174"/>
<text text-anchor="middle" x="153.25" y="-213.45" font-family="Helvetica,sans-Serif" font-weight="bold" font-size="9.00">router</text>
</g>
<g id="clust6" class="cluster">
<title>cluster_src/pages</title>
<path fill="#ffffff" stroke="black" stroke-width="2" d="M477.38,-16C477.38,-16 651.75,-16 651.75,-16 657.75,-16 663.75,-22 663.75,-28 663.75,-28 663.75,-218 663.75,-218 663.75,-224 657.75,-230 651.75,-230 651.75,-230 477.38,-230 477.38,-230 471.38,-230 465.38,-224 465.38,-218 465.38,-218 465.38,-28 465.38,-28 465.38,-22 471.38,-16 477.38,-16"/>
<text text-anchor="middle" x="564.56" y="-217.45" font-family="Helvetica,sans-Serif" font-weight="bold" font-size="9.00">pages</text>
</g>
<g id="clust7" class="cluster">
<title>cluster_src/pages/home</title>
<path fill="#ffffff" stroke="black" stroke-width="2" d="M485.38,-118C485.38,-118 643.75,-118 643.75,-118 649.75,-118 655.75,-124 655.75,-130 655.75,-130 655.75,-192 655.75,-192 655.75,-198 649.75,-204 643.75,-204 643.75,-204 485.38,-204 485.38,-204 479.38,-204 473.38,-198 473.38,-192 473.38,-192 473.38,-130 473.38,-130 473.38,-124 479.38,-118 485.38,-118"/>
<text text-anchor="middle" x="564.56" y="-191.45" font-family="Helvetica,sans-Serif" font-weight="bold" font-size="9.00">home</text>
</g>
<g id="clust8" class="cluster">
<title>cluster_src/pages/home/ui</title>
<path fill="#ffffff" stroke="black" stroke-width="2" d="M589.75,-126C589.75,-126 635.75,-126 635.75,-126 641.75,-126 647.75,-132 647.75,-138 647.75,-138 647.75,-166 647.75,-166 647.75,-172 641.75,-178 635.75,-178 635.75,-178 589.75,-178 589.75,-178 583.75,-178 577.75,-172 577.75,-166 577.75,-166 577.75,-138 577.75,-138 577.75,-132 583.75,-126 589.75,-126"/>
<text text-anchor="middle" x="612.75" y="-165.45" font-family="Helvetica,sans-Serif" font-weight="bold" font-size="9.00">ui</text>
</g>
<g id="clust9" class="cluster">
<title>cluster_src/pages/profile</title>
<path fill="#ffffff" stroke="black" stroke-width="2" d="M485.38,-24C485.38,-24 643.75,-24 643.75,-24 649.75,-24 655.75,-30 655.75,-36 655.75,-36 655.75,-98 655.75,-98 655.75,-104 649.75,-110 643.75,-110 643.75,-110 485.38,-110 485.38,-110 479.38,-110 473.38,-104 473.38,-98 473.38,-98 473.38,-36 473.38,-36 473.38,-30 479.38,-24 485.38,-24"/>
<text text-anchor="middle" x="564.56" y="-97.45" font-family="Helvetica,sans-Serif" font-weight="bold" font-size="9.00">profile</text>
</g>
<g id="clust10" class="cluster">
<title>cluster_src/pages/profile/ui</title>
<path fill="#ffffff" stroke="black" stroke-width="2" d="M589.75,-32C589.75,-32 635.75,-32 635.75,-32 641.75,-32 647.75,-38 647.75,-44 647.75,-44 647.75,-72 647.75,-72 647.75,-78 641.75,-84 635.75,-84 635.75,-84 589.75,-84 589.75,-84 583.75,-84 577.75,-78 577.75,-72 577.75,-72 577.75,-44 577.75,-44 577.75,-38 583.75,-32 589.75,-32"/>
<text text-anchor="middle" x="612.75" y="-71.45" font-family="Helvetica,sans-Serif" font-weight="bold" font-size="9.00">ui</text>
</g>
<g id="clust11" class="cluster">
<title>cluster_src/shared</title>
<path fill="#ffffff" stroke="black" stroke-width="2" d="M693.62,-118C693.62,-118 1076.62,-118 1076.62,-118 1082.62,-118 1088.62,-124 1088.62,-130 1088.62,-130 1088.62,-356 1088.62,-356 1088.62,-362 1082.62,-368 1076.62,-368 1076.62,-368 693.62,-368 693.62,-368 687.62,-368 681.62,-362 681.62,-356 681.62,-356 681.62,-130 681.62,-130 681.62,-124 687.62,-118 693.62,-118"/>
<text text-anchor="middle" x="885.12" y="-355.45" font-family="Helvetica,sans-Serif" font-weight="bold" font-size="9.00">shared</text>
</g>
<g id="clust12" class="cluster">
<title>cluster_src/shared/dialog&#45;manager</title>
<path fill="#ffffff" stroke="black" stroke-width="2" d="M701.62,-216C701.62,-216 1068.62,-216 1068.62,-216 1074.62,-216 1080.62,-222 1080.62,-228 1080.62,-228 1080.62,-330 1080.62,-330 1080.62,-336 1074.62,-342 1068.62,-342 1068.62,-342 701.62,-342 701.62,-342 695.62,-342 689.62,-336 689.62,-330 689.62,-330 689.62,-228 689.62,-228 689.62,-222 695.62,-216 701.62,-216"/>
<text text-anchor="middle" x="885.12" y="-329.45" font-family="Helvetica,sans-Serif" font-weight="bold" font-size="9.00">dialog&#45;manager</text>
</g>
<g id="clust13" class="cluster">
<title>cluster_src/shared/dialog&#45;manager/lib</title>
<path fill="#ffffff" stroke="black" stroke-width="2" d="M771.62,-224C771.62,-224 891.38,-224 891.38,-224 897.38,-224 903.38,-230 903.38,-236 903.38,-236 903.38,-294 903.38,-294 903.38,-300 897.38,-306 891.38,-306 891.38,-306 771.62,-306 771.62,-306 765.62,-306 759.62,-300 759.62,-294 759.62,-294 759.62,-236 759.62,-236 759.62,-230 765.62,-224 771.62,-224"/>
<text text-anchor="middle" x="831.5" y="-293.45" font-family="Helvetica,sans-Serif" font-weight="bold" font-size="9.00">lib</text>
</g>
<g id="clust14" class="cluster">
<title>cluster_src/shared/dialog&#45;manager/model</title>
<path fill="#ffffff" stroke="black" stroke-width="2" d="M934,-254C934,-254 1060.62,-254 1060.62,-254 1066.62,-254 1072.62,-260 1072.62,-266 1072.62,-266 1072.62,-294 1072.62,-294 1072.62,-300 1066.62,-306 1060.62,-306 1060.62,-306 934,-306 934,-306 928,-306 922,-300 922,-294 922,-294 922,-266 922,-266 922,-260 928,-254 934,-254"/>
<text text-anchor="middle" x="997.31" y="-293.45" font-family="Helvetica,sans-Serif" font-weight="bold" font-size="9.00">model</text>
</g>
<g id="clust15" class="cluster">
<title>cluster_src/shared/ui</title>
<path fill="#ffffff" stroke="black" stroke-width="2" d="M923.38,-126C923.38,-126 990.62,-126 990.62,-126 996.62,-126 1002.62,-132 1002.62,-138 1002.62,-138 1002.62,-196 1002.62,-196 1002.62,-202 996.62,-208 990.62,-208 990.62,-208 923.38,-208 923.38,-208 917.38,-208 911.38,-202 911.38,-196 911.38,-196 911.38,-138 911.38,-138 911.38,-132 917.38,-126 923.38,-126"/>
<text text-anchor="middle" x="957" y="-195.45" font-family="Helvetica,sans-Serif" font-weight="bold" font-size="9.00">ui</text>
</g>
<g id="clust16" class="cluster">
<title>cluster_src/widgets</title>
<path fill="#ffffff" stroke="black" stroke-width="2" d="M379.88,-238C379.88,-238 661.62,-238 661.62,-238 667.62,-238 673.62,-244 673.62,-250 673.62,-250 673.62,-346 673.62,-346 673.62,-352 667.62,-358 661.62,-358 661.62,-358 379.88,-358 379.88,-358 373.88,-358 367.88,-352 367.88,-346 367.88,-346 367.88,-250 367.88,-250 367.88,-244 373.88,-238 379.88,-238"/>
<text text-anchor="middle" x="520.75" y="-345.45" font-family="Helvetica,sans-Serif" font-weight="bold" font-size="9.00">widgets</text>
</g>
<g id="clust17" class="cluster">
<title>cluster_src/widgets/LoginDialog</title>
<path fill="#ffffff" stroke="black" stroke-width="2" d="M387.88,-246C387.88,-246 653.62,-246 653.62,-246 659.62,-246 665.62,-252 665.62,-258 665.62,-258 665.62,-320 665.62,-320 665.62,-326 659.62,-332 653.62,-332 653.62,-332 387.88,-332 387.88,-332 381.88,-332 375.88,-326 375.88,-320 375.88,-320 375.88,-258 375.88,-258 375.88,-252 381.88,-246 387.88,-246"/>
<text text-anchor="middle" x="520.75" y="-319.45" font-family="Helvetica,sans-Serif" font-weight="bold" font-size="9.00">LoginDialog</text>
</g>
<g id="clust18" class="cluster">
<title>cluster_src/widgets/LoginDialog/ui</title>
<path fill="#ffffff" stroke="black" stroke-width="2" d="M457.88,-254C457.88,-254 645.62,-254 645.62,-254 651.62,-254 657.62,-260 657.62,-266 657.62,-266 657.62,-294 657.62,-294 657.62,-300 651.62,-306 645.62,-306 645.62,-306 457.88,-306 457.88,-306 451.88,-306 445.88,-300 445.88,-294 445.88,-294 445.88,-266 445.88,-266 445.88,-260 451.88,-254 457.88,-254"/>
<text text-anchor="middle" x="551.75" y="-293.45" font-family="Helvetica,sans-Serif" font-weight="bold" font-size="9.00">ui</text>
</g>
<!-- src/app/entry.css -->
<g id="node1" class="node">
<title>src/app/entry.css</title>
<g id="a_node1"><a xlink:href="src/app/entry.css" xlink:title="entry.css">
<path fill="#ffffcc" stroke="black" d="M174.33,-157.88C174.33,-157.88 132.17,-157.88 132.17,-157.88 129.21,-157.88 126.25,-154.92 126.25,-151.96 126.25,-151.96 126.25,-146.04 126.25,-146.04 126.25,-143.08 129.21,-140.12 132.17,-140.12 132.17,-140.12 174.33,-140.12 174.33,-140.12 177.29,-140.12 180.25,-143.08 180.25,-146.04 180.25,-146.04 180.25,-151.96 180.25,-151.96 180.25,-154.92 177.29,-157.88 174.33,-157.88"/>
<text text-anchor="start" x="135.25" y="-145.32" font-family="Helvetica,sans-Serif" font-size="9.00">entry.css</text>
</a>
</g>
</g>
<!-- src/app/entry.tsx -->
<g id="node2" class="node">
<title>src/app/entry.tsx</title>
<g id="a_node2"><a xlink:href="src/app/entry.tsx" xlink:title="entry.tsx">
<path fill="#bbfeff" stroke="black" d="M72.08,-199.88C72.08,-199.88 29.92,-199.88 29.92,-199.88 26.96,-199.88 24,-196.92 24,-193.96 24,-193.96 24,-188.04 24,-188.04 24,-185.08 26.96,-182.12 29.92,-182.12 29.92,-182.12 72.08,-182.12 72.08,-182.12 75.04,-182.12 78,-185.08 78,-188.04 78,-188.04 78,-193.96 78,-193.96 78,-196.92 75.04,-199.88 72.08,-199.88"/>
<text text-anchor="start" x="34.12" y="-187.32" font-family="Helvetica,sans-Serif" font-size="9.00">entry.tsx</text>
</a>
</g>
</g>
<!-- src/app/entry.tsx&#45;&gt;src/app/entry.css -->
<g id="edge1" class="edge">
<title>src/app/entry.tsx&#45;&gt;src/app/entry.css</title>
<path fill="none" stroke="#000000" stroke-width="2" stroke-opacity="0.200000" d="M69.03,-181.77C75.88,-178.21 83.92,-174.23 91.38,-171 99.73,-167.39 108.89,-163.86 117.51,-160.72"/>
<polygon fill="#000000" fill-opacity="0.200000" stroke="#000000" stroke-width="2" stroke-opacity="0.200000" points="118.11,-162.74 123.05,-158.74 116.7,-158.78 118.11,-162.74"/>
</g>
<!-- src/app/providers/router/RouterProvider.tsx -->
<g id="node3" class="node">
<title>src/app/providers/router/RouterProvider.tsx</title>
<g id="a_node3"><a xlink:href="src/app/providers/router/RouterProvider.tsx" xlink:title="RouterProvider.tsx">
<path fill="#bbfeff" stroke="black" d="M193.21,-199.88C193.21,-199.88 113.29,-199.88 113.29,-199.88 110.33,-199.88 107.38,-196.92 107.38,-193.96 107.38,-193.96 107.38,-188.04 107.38,-188.04 107.38,-185.08 110.33,-182.12 113.29,-182.12 113.29,-182.12 193.21,-182.12 193.21,-182.12 196.17,-182.12 199.12,-185.08 199.12,-188.04 199.12,-188.04 199.12,-193.96 199.12,-193.96 199.12,-196.92 196.17,-199.88 193.21,-199.88"/>
<text text-anchor="start" x="115.38" y="-187.32" font-family="Helvetica,sans-Serif" font-size="9.00">RouterProvider.tsx</text>
</a>
</g>
</g>
<!-- src/app/entry.tsx&#45;&gt;src/app/providers/router/RouterProvider.tsx -->
<g id="edge2" class="edge">
<title>src/app/entry.tsx&#45;&gt;src/app/providers/router/RouterProvider.tsx</title>
<path fill="none" stroke="#000000" stroke-width="2" stroke-opacity="0.200000" d="M78.34,-191C84.54,-191 91.37,-191 98.3,-191"/>
<polygon fill="#000000" fill-opacity="0.200000" stroke="#000000" stroke-width="2" stroke-opacity="0.200000" points="98.07,-193.1 104.07,-191 98.07,-188.9 98.07,-193.1"/>
</g>
<!-- src/shared/dialog&#45;manager/index.ts -->
<g id="node4" class="node">
<title>src/shared/dialog&#45;manager/index.ts</title>
<g id="a_node4"><a xlink:href="src/shared/dialog-manager/index.ts" xlink:title="index.ts">
<path fill="#ddfeff" stroke="black" d="M745.71,-279.88C745.71,-279.88 703.54,-279.88 703.54,-279.88 700.58,-279.88 697.62,-276.92 697.62,-273.96 697.62,-273.96 697.62,-268.04 697.62,-268.04 697.62,-265.08 700.58,-262.12 703.54,-262.12 703.54,-262.12 745.71,-262.12 745.71,-262.12 748.67,-262.12 751.62,-265.08 751.62,-268.04 751.62,-268.04 751.62,-273.96 751.62,-273.96 751.62,-276.92 748.67,-279.88 745.71,-279.88"/>
<text text-anchor="start" x="708.88" y="-267.32" font-family="Helvetica,sans-Serif" font-size="9.00">index.ts</text>
</a>
</g>
</g>
<!-- src/app/entry.tsx&#45;&gt;src/shared/dialog&#45;manager/index.ts -->
<g id="edge3" class="edge">
<title>src/app/entry.tsx&#45;&gt;src/shared/dialog&#45;manager/index.ts</title>
<path fill="none" stroke="#000000" stroke-width="2" stroke-opacity="0.200000" d="M78.21,-199.64C80.1,-200.91 81.86,-202.35 83.38,-204 91.27,-212.58 84.57,-219.52 91.38,-229 151.63,-312.95 175.16,-367 278.5,-367 278.5,-367 278.5,-367 509.38,-367 586.79,-367 605.49,-345.75 673.62,-309 685.44,-302.63 697.45,-293.6 706.74,-285.94"/>
<polygon fill="#000000" fill-opacity="0.200000" stroke="#000000" stroke-width="2" stroke-opacity="0.200000" points="708.02,-287.61 711.24,-282.13 705.31,-284.4 708.02,-287.61"/>
</g>
<!-- src/app/providers/layout/BaseLayoutProvider.tsx -->
<g id="node5" class="node">
<title>src/app/providers/layout/BaseLayoutProvider.tsx</title>
<g id="a_node5"><a xlink:href="src/app/providers/layout/BaseLayoutProvider.tsx" xlink:title="BaseLayoutProvider.tsx">
<path fill="#bbfeff" stroke="black" d="M329.96,-199.88C329.96,-199.88 229.04,-199.88 229.04,-199.88 226.08,-199.88 223.12,-196.92 223.12,-193.96 223.12,-193.96 223.12,-188.04 223.12,-188.04 223.12,-185.08 226.08,-182.12 229.04,-182.12 229.04,-182.12 329.96,-182.12 329.96,-182.12 332.92,-182.12 335.88,-185.08 335.88,-188.04 335.88,-188.04 335.88,-193.96 335.88,-193.96 335.88,-196.92 332.92,-199.88 329.96,-199.88"/>
<text text-anchor="start" x="231.12" y="-187.32" font-family="Helvetica,sans-Serif" font-size="9.00">BaseLayoutProvider.tsx</text>
</a>
</g>
</g>
<!-- src/app/providers/router/RouterProvider.tsx&#45;&gt;src/app/providers/layout/BaseLayoutProvider.tsx -->
<g id="edge5" class="edge">
<title>src/app/providers/router/RouterProvider.tsx&#45;&gt;src/app/providers/layout/BaseLayoutProvider.tsx</title>
<path fill="none" stroke="#000000" stroke-width="2" stroke-opacity="0.200000" d="M199.46,-191C204.23,-191 209.14,-191 214.08,-191"/>
<polygon fill="#000000" fill-opacity="0.200000" stroke="#000000" stroke-width="2" stroke-opacity="0.200000" points="213.92,-193.1 219.92,-191 213.92,-188.9 213.92,-193.1"/>
</g>
<!-- src/pages/home/index.ts -->
<g id="node7" class="node">
<title>src/pages/home/index.ts</title>
<g id="a_node7"><a xlink:href="src/pages/home/index.ts" xlink:title="index.ts">
<path fill="#ddfeff" stroke="black" d="M529.46,-162.88C529.46,-162.88 487.29,-162.88 487.29,-162.88 484.33,-162.88 481.38,-159.92 481.38,-156.96 481.38,-156.96 481.38,-151.04 481.38,-151.04 481.38,-148.08 484.33,-145.12 487.29,-145.12 487.29,-145.12 529.46,-145.12 529.46,-145.12 532.42,-145.12 535.38,-148.08 535.38,-151.04 535.38,-151.04 535.38,-156.96 535.38,-156.96 535.38,-159.92 532.42,-162.88 529.46,-162.88"/>
<text text-anchor="start" x="492.62" y="-150.32" font-family="Helvetica,sans-Serif" font-size="9.00">index.ts</text>
</a>
</g>
</g>
<!-- src/app/providers/router/RouterProvider.tsx&#45;&gt;src/pages/home/index.ts -->
<g id="edge6" class="edge">
<title>src/app/providers/router/RouterProvider.tsx&#45;&gt;src/pages/home/index.ts</title>
<path fill="none" stroke="#000000" stroke-width="2" stroke-opacity="0.200000" d="M198.96,-181.66C201.78,-180.57 204.53,-179.35 207.12,-178 211.32,-175.82 210.75,-172.79 215.12,-171 302.01,-135.44 415.67,-142.35 472.23,-148.95"/>
<polygon fill="#000000" fill-opacity="0.200000" stroke="#000000" stroke-width="2" stroke-opacity="0.200000" points="471.91,-151.03 478.12,-149.67 472.42,-146.86 471.91,-151.03"/>
</g>
<!-- src/pages/profile/index.ts -->
<g id="node8" class="node">
<title>src/pages/profile/index.ts</title>
<g id="a_node8"><a xlink:href="src/pages/profile/index.ts" xlink:title="index.ts">
<path fill="#ddfeff" stroke="black" d="M529.46,-70.88C529.46,-70.88 487.29,-70.88 487.29,-70.88 484.33,-70.88 481.38,-67.92 481.38,-64.96 481.38,-64.96 481.38,-59.04 481.38,-59.04 481.38,-56.08 484.33,-53.12 487.29,-53.12 487.29,-53.12 529.46,-53.12 529.46,-53.12 532.42,-53.12 535.38,-56.08 535.38,-59.04 535.38,-59.04 535.38,-64.96 535.38,-64.96 535.38,-67.92 532.42,-70.88 529.46,-70.88"/>
<text text-anchor="start" x="492.62" y="-58.33" font-family="Helvetica,sans-Serif" font-size="9.00">index.ts</text>
</a>
</g>
</g>
<!-- src/app/providers/router/RouterProvider.tsx&#45;&gt;src/pages/profile/index.ts -->
<g id="edge7" class="edge">
<title>src/app/providers/router/RouterProvider.tsx&#45;&gt;src/pages/profile/index.ts</title>
<path fill="none" stroke="#000000" stroke-width="2" stroke-opacity="0.200000" d="M199.52,-183.83C202.31,-182.23 204.88,-180.3 207.12,-178 218.85,-165.94 203.54,-153.2 215.12,-141 283.65,-68.88 410.61,-60.22 472.14,-60.61"/>
<polygon fill="#000000" fill-opacity="0.200000" stroke="#000000" stroke-width="2" stroke-opacity="0.200000" points="472.02,-62.7 478.05,-60.69 472.08,-58.5 472.02,-62.7"/>
</g>
<!-- src/shared/dialog&#45;manager/lib/DialogManagerProvider.tsx -->
<g id="node12" class="node">
<title>src/shared/dialog&#45;manager/lib/DialogManagerProvider.tsx</title>
<g id="a_node12"><a xlink:href="src/shared/dialog-manager/lib/DialogManagerProvider.tsx" xlink:title="DialogManagerProvider.tsx">
<path fill="#bbfeff" stroke="black" d="M889.46,-249.88C889.46,-249.88 773.54,-249.88 773.54,-249.88 770.58,-249.88 767.62,-246.92 767.62,-243.96 767.62,-243.96 767.62,-238.04 767.62,-238.04 767.62,-235.08 770.58,-232.12 773.54,-232.12 773.54,-232.12 889.46,-232.12 889.46,-232.12 892.42,-232.12 895.38,-235.08 895.38,-238.04 895.38,-238.04 895.38,-243.96 895.38,-243.96 895.38,-246.92 892.42,-249.88 889.46,-249.88"/>
<text text-anchor="start" x="775.62" y="-237.32" font-family="Helvetica,sans-Serif" font-size="9.00">DialogManagerProvider.tsx</text>
</a>
</g>
</g>
<!-- src/shared/dialog&#45;manager/index.ts&#45;&gt;src/shared/dialog&#45;manager/lib/DialogManagerProvider.tsx -->
<g id="edge12" class="edge">
<title>src/shared/dialog&#45;manager/index.ts&#45;&gt;src/shared/dialog&#45;manager/lib/DialogManagerProvider.tsx</title>
<path fill="none" stroke="#000000" stroke-width="2" stroke-opacity="0.200000" d="M744.77,-261.73C749.55,-259.64 754.71,-257.58 759.62,-256 764.05,-254.57 768.67,-253.25 773.34,-252.02"/>
<polygon fill="#000000" fill-opacity="0.200000" stroke="#000000" stroke-width="2" stroke-opacity="0.200000" points="779.75,-252.57 773.42,-252 778.73,-248.5 779.75,-252.57"/>
</g>
<!-- src/shared/dialog&#45;manager/lib/useDialog.tsx -->
<g id="node13" class="node">
<title>src/shared/dialog&#45;manager/lib/useDialog.tsx</title>
<g id="a_node13"><a xlink:href="src/shared/dialog-manager/lib/useDialog.tsx" xlink:title="useDialog.tsx">
<path fill="#bbfeff" stroke="black" d="M861.33,-279.88C861.33,-279.88 801.67,-279.88 801.67,-279.88 798.71,-279.88 795.75,-276.92 795.75,-273.96 795.75,-273.96 795.75,-268.04 795.75,-268.04 795.75,-265.08 798.71,-262.12 801.67,-262.12 801.67,-262.12 861.33,-262.12 861.33,-262.12 864.29,-262.12 867.25,-265.08 867.25,-268.04 867.25,-268.04 867.25,-273.96 867.25,-273.96 867.25,-276.92 864.29,-279.88 861.33,-279.88"/>
<text text-anchor="start" x="803.75" y="-267.32" font-family="Helvetica,sans-Serif" font-size="9.00">useDialog.tsx</text>
</a>
</g>
</g>
<!-- src/shared/dialog&#45;manager/index.ts&#45;&gt;src/shared/dialog&#45;manager/lib/useDialog.tsx -->
<g id="edge13" class="edge">
<title>src/shared/dialog&#45;manager/index.ts&#45;&gt;src/shared/dialog&#45;manager/lib/useDialog.tsx</title>
<path fill="none" stroke="#000000" stroke-width="2" stroke-opacity="0.200000" d="M752.09,-271C763.05,-271 776.03,-271 788.24,-271"/>
<polygon fill="#000000" fill-opacity="0.200000" stroke="#000000" stroke-width="2" stroke-opacity="0.200000" points="794.32,-273.1 788.32,-271 794.32,-268.9 794.32,-273.1"/>
</g>
<!-- src/shared/dialog&#45;manager/model/store.ts -->
<g id="node14" class="node">
<title>src/shared/dialog&#45;manager/model/store.ts</title>
<g id="a_node14"><a xlink:href="src/shared/dialog-manager/model/store.ts" xlink:title="store.ts">
<path fill="#ddfeff" stroke="black" d="M978.08,-279.88C978.08,-279.88 935.92,-279.88 935.92,-279.88 932.96,-279.88 930,-276.92 930,-273.96 930,-273.96 930,-268.04 930,-268.04 930,-265.08 932.96,-262.12 935.92,-262.12 935.92,-262.12 978.08,-262.12 978.08,-262.12 981.04,-262.12 984,-265.08 984,-268.04 984,-268.04 984,-273.96 984,-273.96 984,-276.92 981.04,-279.88 978.08,-279.88"/>
<text text-anchor="start" x="942.38" y="-267.32" font-family="Helvetica,sans-Serif" font-size="9.00">store.ts</text>
</a>
</g>
</g>
<!-- src/shared/dialog&#45;manager/index.ts&#45;&gt;src/shared/dialog&#45;manager/model/store.ts -->
<g id="edge14" class="edge">
<title>src/shared/dialog&#45;manager/index.ts&#45;&gt;src/shared/dialog&#45;manager/model/store.ts</title>
<path fill="none" stroke="#000000" stroke-width="2" stroke-opacity="0.200000" d="M730.72,-280.24C736.4,-289.48 746.53,-303.15 759.62,-309 817.95,-335.08 842.58,-328.65 903.38,-309 918.03,-304.26 932.04,-293.75 941.91,-284.98"/>
<polygon fill="#000000" fill-opacity="0.200000" stroke="#000000" stroke-width="2" stroke-opacity="0.200000" points="947.64,-282.56 941.8,-285.08 944.79,-279.47 947.64,-282.56"/>
</g>
<!-- src/widgets/LoginDialog/index.ts -->
<g id="node6" class="node">
<title>src/widgets/LoginDialog/index.ts</title>
<g id="a_node6"><a xlink:href="src/widgets/LoginDialog/index.ts" xlink:title="index.ts">
<path fill="#ddfeff" stroke="black" d="M431.96,-275.88C431.96,-275.88 389.79,-275.88 389.79,-275.88 386.83,-275.88 383.88,-272.92 383.88,-269.96 383.88,-269.96 383.88,-264.04 383.88,-264.04 383.88,-261.08 386.83,-258.12 389.79,-258.12 389.79,-258.12 431.96,-258.12 431.96,-258.12 434.92,-258.12 437.88,-261.08 437.88,-264.04 437.88,-264.04 437.88,-269.96 437.88,-269.96 437.88,-272.92 434.92,-275.88 431.96,-275.88"/>
<text text-anchor="start" x="395.12" y="-263.32" font-family="Helvetica,sans-Serif" font-size="9.00">index.ts</text>
</a>
</g>
</g>
<!-- src/app/providers/layout/BaseLayoutProvider.tsx&#45;&gt;src/widgets/LoginDialog/index.ts -->
<g id="edge4" class="edge">
<title>src/app/providers/layout/BaseLayoutProvider.tsx&#45;&gt;src/widgets/LoginDialog/index.ts</title>
<path fill="none" stroke="#000000" stroke-width="2" stroke-opacity="0.200000" d="M296.36,-200.32C318.99,-213.61 360.66,-238.09 386.73,-253.41"/>
<polygon fill="#000000" fill-opacity="0.200000" stroke="#000000" stroke-width="2" stroke-opacity="0.200000" points="385.44,-255.08 391.68,-256.31 387.57,-251.46 385.44,-255.08"/>
</g>
<!-- src/widgets/LoginDialog/ui/LoginDialogTrigger.tsx -->
<g id="node18" class="node">
<title>src/widgets/LoginDialog/ui/LoginDialogTrigger.tsx</title>
<g id="a_node18"><a xlink:href="src/widgets/LoginDialog/ui/LoginDialogTrigger.tsx" xlink:title="LoginDialogTrigger.tsx">
<path fill="#bbfeff" stroke="black" d="M556.96,-279.88C556.96,-279.88 459.79,-279.88 459.79,-279.88 456.83,-279.88 453.88,-276.92 453.88,-273.96 453.88,-273.96 453.88,-268.04 453.88,-268.04 453.88,-265.08 456.83,-262.12 459.79,-262.12 459.79,-262.12 556.96,-262.12 556.96,-262.12 559.92,-262.12 562.88,-265.08 562.88,-268.04 562.88,-268.04 562.88,-273.96 562.88,-273.96 562.88,-276.92 559.92,-279.88 556.96,-279.88"/>
<text text-anchor="start" x="461.88" y="-267.32" font-family="Helvetica,sans-Serif" font-size="9.00">LoginDialogTrigger.tsx</text>
</a>
</g>
</g>
<!-- src/widgets/LoginDialog/index.ts&#45;&gt;src/widgets/LoginDialog/ui/LoginDialogTrigger.tsx -->
<g id="edge19" class="edge">
<title>src/widgets/LoginDialog/index.ts&#45;&gt;src/widgets/LoginDialog/ui/LoginDialogTrigger.tsx</title>
<path fill="none" stroke="#000000" stroke-width="2" stroke-opacity="0.200000" d="M438.22,-268.1C440.96,-268.22 443.81,-268.34 446.73,-268.46"/>
<polygon fill="#000000" fill-opacity="0.200000" stroke="#000000" stroke-width="2" stroke-opacity="0.200000" points="452.56,-270.81 446.65,-268.46 452.73,-266.61 452.56,-270.81"/>
</g>
<!-- src/pages/home/ui/Page.tsx -->
<g id="node9" class="node">
<title>src/pages/home/ui/Page.tsx</title>
<g id="a_node9"><a xlink:href="src/pages/home/ui/Page.tsx" xlink:title="Page.tsx">
<path fill="#bbfeff" stroke="black" d="M633.83,-151.88C633.83,-151.88 591.67,-151.88 591.67,-151.88 588.71,-151.88 585.75,-148.92 585.75,-145.96 585.75,-145.96 585.75,-140.04 585.75,-140.04 585.75,-137.08 588.71,-134.12 591.67,-134.12 591.67,-134.12 633.83,-134.12 633.83,-134.12 636.79,-134.12 639.75,-137.08 639.75,-140.04 639.75,-140.04 639.75,-145.96 639.75,-145.96 639.75,-148.92 636.79,-151.88 633.83,-151.88"/>
<text text-anchor="start" x="595.12" y="-139.32" font-family="Helvetica,sans-Serif" font-size="9.00">Page.tsx</text>
</a>
</g>
</g>
<!-- src/pages/home/index.ts&#45;&gt;src/pages/home/ui/Page.tsx -->
<g id="edge8" class="edge">
<title>src/pages/home/index.ts&#45;&gt;src/pages/home/ui/Page.tsx</title>
<path fill="none" stroke="#000000" stroke-width="2" stroke-opacity="0.200000" d="M535.74,-151.17C548.76,-149.77 564.6,-148.07 578.44,-146.58"/>
<polygon fill="#000000" fill-opacity="0.200000" stroke="#000000" stroke-width="2" stroke-opacity="0.200000" points="584.71,-148.02 578.52,-146.57 584.26,-143.84 584.71,-148.02"/>
</g>
<!-- src/pages/profile/ui/Page.tsx -->
<g id="node10" class="node">
<title>src/pages/profile/ui/Page.tsx</title>
<g id="a_node10"><a xlink:href="src/pages/profile/ui/Page.tsx" xlink:title="Page.tsx">
<path fill="#bbfeff" stroke="black" d="M633.83,-57.88C633.83,-57.88 591.67,-57.88 591.67,-57.88 588.71,-57.88 585.75,-54.92 585.75,-51.96 585.75,-51.96 585.75,-46.04 585.75,-46.04 585.75,-43.08 588.71,-40.12 591.67,-40.12 591.67,-40.12 633.83,-40.12 633.83,-40.12 636.79,-40.12 639.75,-43.08 639.75,-46.04 639.75,-46.04 639.75,-51.96 639.75,-51.96 639.75,-54.92 636.79,-57.88 633.83,-57.88"/>
<text text-anchor="start" x="595.12" y="-45.33" font-family="Helvetica,sans-Serif" font-size="9.00">Page.tsx</text>
</a>
</g>
</g>
<!-- src/pages/profile/index.ts&#45;&gt;src/pages/profile/ui/Page.tsx -->
<g id="edge9" class="edge">
<title>src/pages/profile/index.ts&#45;&gt;src/pages/profile/ui/Page.tsx</title>
<path fill="none" stroke="#000000" stroke-width="2" stroke-opacity="0.200000" d="M535.74,-58.65C548.76,-57 564.6,-54.99 578.44,-53.23"/>
<polygon fill="#000000" fill-opacity="0.200000" stroke="#000000" stroke-width="2" stroke-opacity="0.200000" points="584.75,-54.55 578.53,-53.22 584.22,-50.38 584.75,-54.55"/>
</g>
<!-- src/pages/profile/ui/Page.tsx&#45;&gt;src/shared/dialog&#45;manager/index.ts -->
<g id="edge10" class="edge">
<title>src/pages/profile/ui/Page.tsx&#45;&gt;src/shared/dialog&#45;manager/index.ts</title>
<path fill="none" stroke="#000000" stroke-width="2" stroke-opacity="0.200000" d="M623.09,-58.25C636.04,-71.52 659.44,-97.23 673.62,-123 697.82,-166.98 713.17,-224.72 719.81,-253.34"/>
<polygon fill="#000000" fill-opacity="0.200000" stroke="#000000" stroke-width="2" stroke-opacity="0.200000" points="717.7,-253.52 721.07,-258.92 721.8,-252.6 717.7,-253.52"/>
</g>
<!-- src/shared/ui/AlertDialog.tsx -->
<g id="node11" class="node">
<title>src/shared/ui/AlertDialog.tsx</title>
<g id="a_node11"><a xlink:href="src/shared/ui/AlertDialog.tsx" xlink:title="AlertDialog.tsx">
<path fill="#bbfeff" stroke="black" d="M988.71,-151.88C988.71,-151.88 925.29,-151.88 925.29,-151.88 922.33,-151.88 919.38,-148.92 919.38,-145.96 919.38,-145.96 919.38,-140.04 919.38,-140.04 919.38,-137.08 922.33,-134.12 925.29,-134.12 925.29,-134.12 988.71,-134.12 988.71,-134.12 991.67,-134.12 994.62,-137.08 994.62,-140.04 994.62,-140.04 994.62,-145.96 994.62,-145.96 994.62,-148.92 991.67,-151.88 988.71,-151.88"/>
<text text-anchor="start" x="927.38" y="-139.32" font-family="Helvetica,sans-Serif" font-size="9.00">AlertDialog.tsx</text>
</a>
</g>
</g>
<!-- src/pages/profile/ui/Page.tsx&#45;&gt;src/shared/ui/AlertDialog.tsx -->
<g id="edge11" class="edge">
<title>src/pages/profile/ui/Page.tsx&#45;&gt;src/shared/ui/AlertDialog.tsx</title>
<path fill="none" stroke="#000000" stroke-width="2" stroke-opacity="0.200000" d="M640.04,-56.22C698.92,-72.39 841.86,-111.65 913.54,-131.34"/>
<polygon fill="#000000" fill-opacity="0.200000" stroke="#000000" stroke-width="2" stroke-opacity="0.200000" points="912.66,-133.27 919,-132.84 913.77,-129.22 912.66,-133.27"/>
</g>
<!-- src/shared/dialog&#45;manager/lib/DialogManagerProvider.tsx&#45;&gt;src/shared/dialog&#45;manager/model/store.ts -->
<g id="edge16" class="edge">
<title>src/shared/dialog&#45;manager/lib/DialogManagerProvider.tsx&#45;&gt;src/shared/dialog&#45;manager/model/store.ts</title>
<path fill="none" stroke="#000000" stroke-width="2" stroke-opacity="0.200000" d="M878.74,-250.3C886.97,-252.1 895.44,-254.03 903.38,-256 909.14,-257.43 915.22,-259.05 921.13,-260.69"/>
<polygon fill="#000000" fill-opacity="0.200000" stroke="#000000" stroke-width="2" stroke-opacity="0.200000" points="920.34,-262.65 926.68,-262.26 921.48,-258.61 920.34,-262.65"/>
</g>
<!-- src/shared/ui/Dialog.tsx -->
<g id="node15" class="node">
<title>src/shared/ui/Dialog.tsx</title>
<g id="a_node15"><a xlink:href="src/shared/ui/Dialog.tsx" xlink:title="Dialog.tsx">
<path fill="#bbfeff" stroke="black" d="M979.33,-181.88C979.33,-181.88 934.67,-181.88 934.67,-181.88 931.71,-181.88 928.75,-178.92 928.75,-175.96 928.75,-175.96 928.75,-170.04 928.75,-170.04 928.75,-167.08 931.71,-164.12 934.67,-164.12 934.67,-164.12 979.33,-164.12 979.33,-164.12 982.29,-164.12 985.25,-167.08 985.25,-170.04 985.25,-170.04 985.25,-175.96 985.25,-175.96 985.25,-178.92 982.29,-181.88 979.33,-181.88"/>
<text text-anchor="start" x="936.75" y="-169.32" font-family="Helvetica,sans-Serif" font-size="9.00">Dialog.tsx</text>
</a>
</g>
</g>
<!-- src/shared/dialog&#45;manager/lib/DialogManagerProvider.tsx&#45;&gt;src/shared/ui/Dialog.tsx -->
<g id="edge15" class="edge">
<title>src/shared/dialog&#45;manager/lib/DialogManagerProvider.tsx&#45;&gt;src/shared/ui/Dialog.tsx</title>
<path fill="none" stroke="#000000" stroke-width="2" stroke-opacity="0.200000" d="M849.41,-231.69C870.66,-219.99 907.28,-199.83 931.57,-186.45"/>
<polygon fill="#000000" fill-opacity="0.200000" stroke="#000000" stroke-width="2" stroke-opacity="0.200000" points="932.4,-188.39 936.64,-183.66 930.37,-184.71 932.4,-188.39"/>
</g>
<!-- src/shared/dialog&#45;manager/lib/useDialog.tsx&#45;&gt;src/shared/dialog&#45;manager/model/store.ts -->
<g id="edge17" class="edge">
<title>src/shared/dialog&#45;manager/lib/useDialog.tsx&#45;&gt;src/shared/dialog&#45;manager/model/store.ts</title>
<path fill="none" stroke="#000000" stroke-width="2" stroke-opacity="0.200000" d="M867.56,-271C884.29,-271 904.25,-271 920.97,-271"/>
<polygon fill="#000000" fill-opacity="0.200000" stroke="#000000" stroke-width="2" stroke-opacity="0.200000" points="920.86,-273.1 926.86,-271 920.86,-268.9 920.86,-273.1"/>
</g>
<!-- src/shared/dialog&#45;manager/model/types.ts -->
<g id="node16" class="node">
<title>src/shared/dialog&#45;manager/model/types.ts</title>
<g id="a_node16"><a xlink:href="src/shared/dialog-manager/model/types.ts" xlink:title="types.ts">
<path fill="#ddfeff" stroke="black" d="M1058.71,-279.88C1058.71,-279.88 1016.54,-279.88 1016.54,-279.88 1013.58,-279.88 1010.62,-276.92 1010.62,-273.96 1010.62,-273.96 1010.62,-268.04 1010.62,-268.04 1010.62,-265.08 1013.58,-262.12 1016.54,-262.12 1016.54,-262.12 1058.71,-262.12 1058.71,-262.12 1061.67,-262.12 1064.62,-265.08 1064.62,-268.04 1064.62,-268.04 1064.62,-273.96 1064.62,-273.96 1064.62,-276.92 1061.67,-279.88 1058.71,-279.88"/>
<text text-anchor="start" x="1022.25" y="-267.32" font-family="Helvetica,sans-Serif" font-size="9.00">types.ts</text>
</a>
</g>
</g>
<!-- src/shared/dialog&#45;manager/model/store.ts&#45;&gt;src/shared/dialog&#45;manager/model/types.ts -->
<g id="edge18" class="edge">
<title>src/shared/dialog&#45;manager/model/store.ts&#45;&gt;src/shared/dialog&#45;manager/model/types.ts</title>
<path fill="none" stroke="#000000" stroke-opacity="0.200000" d="M984.18,-271C990.22,-271 996.72,-271 1003.02,-271"/>
<polygon fill="none" stroke="#000000" stroke-opacity="0.200000" points="1002.78,-273.1 1008.78,-271 1002.78,-268.9 1002.78,-273.1"/>
</g>
<!-- src/vite&#45;env.d.ts -->
<g id="node17" class="node">
<title>src/vite&#45;env.d.ts</title>
<g id="a_node17"><a xlink:href="src/vite-env.d.ts" xlink:title="vite&#45;env.d.ts">
<path fill="#ccffcc" stroke="black" d="M77.46,-324.88C77.46,-324.88 24.54,-324.88 24.54,-324.88 21.58,-324.88 18.62,-321.92 18.62,-318.96 18.62,-318.96 18.62,-313.04 18.62,-313.04 18.62,-310.08 21.58,-307.12 24.54,-307.12 24.54,-307.12 77.46,-307.12 77.46,-307.12 80.42,-307.12 83.38,-310.08 83.38,-313.04 83.38,-313.04 83.38,-318.96 83.38,-318.96 83.38,-321.92 80.42,-324.88 77.46,-324.88"/>
<text text-anchor="start" x="26.62" y="-312.32" font-family="Helvetica,sans-Serif" font-size="9.00">vite&#45;env.d.ts</text>
</a>
</g>
</g>
<!-- src/widgets/LoginDialog/ui/LoginDialogTrigger.tsx&#45;&gt;src/shared/dialog&#45;manager/index.ts -->
<g id="edge21" class="edge">
<title>src/widgets/LoginDialog/ui/LoginDialogTrigger.tsx&#45;&gt;src/shared/dialog&#45;manager/index.ts</title>
<path fill="none" stroke="#000000" stroke-width="2" stroke-opacity="0.200000" d="M543.99,-280.33C554.18,-282.67 565.41,-284.83 575.88,-286 619.05,-290.81 630.64,-292.31 673.62,-286 678.74,-285.25 684.05,-284.09 689.23,-282.74"/>
<polygon fill="#000000" fill-opacity="0.200000" stroke="#000000" stroke-width="2" stroke-opacity="0.200000" points="689.63,-284.81 694.83,-281.15 688.48,-280.77 689.63,-284.81"/>
</g>
<!-- src/widgets/LoginDialog/ui/LoginForm.tsx -->
<g id="node19" class="node">
<title>src/widgets/LoginDialog/ui/LoginForm.tsx</title>
<g id="a_node19"><a xlink:href="src/widgets/LoginDialog/ui/LoginForm.tsx" xlink:title="LoginForm.tsx">
<path fill="#bbfeff" stroke="black" d="M643.71,-279.88C643.71,-279.88 581.79,-279.88 581.79,-279.88 578.83,-279.88 575.88,-276.92 575.88,-273.96 575.88,-273.96 575.88,-268.04 575.88,-268.04 575.88,-265.08 578.83,-262.12 581.79,-262.12 581.79,-262.12 643.71,-262.12 643.71,-262.12 646.67,-262.12 649.62,-265.08 649.62,-268.04 649.62,-268.04 649.62,-273.96 649.62,-273.96 649.62,-276.92 646.67,-279.88 643.71,-279.88"/>
<text text-anchor="start" x="583.88" y="-267.32" font-family="Helvetica,sans-Serif" font-size="9.00">LoginForm.tsx</text>
</a>
</g>
</g>
<!-- src/widgets/LoginDialog/ui/LoginDialogTrigger.tsx&#45;&gt;src/widgets/LoginDialog/ui/LoginForm.tsx -->
<g id="edge20" class="edge">
<title>src/widgets/LoginDialog/ui/LoginDialogTrigger.tsx&#45;&gt;src/widgets/LoginDialog/ui/LoginForm.tsx</title>
<path fill="none" stroke="#000000" stroke-width="2" stroke-opacity="0.200000" d="M563.26,-271C564.43,-271 565.59,-271 566.75,-271"/>
<polygon fill="#000000" fill-opacity="0.200000" stroke="#000000" stroke-width="2" stroke-opacity="0.200000" points="566.48,-273.1 572.48,-271 566.48,-268.9 566.48,-273.1"/>
</g>
<!-- src/widgets/LoginDialog/ui/LoginForm.tsx&#45;&gt;src/shared/dialog&#45;manager/index.ts -->
<g id="edge22" class="edge">
<title>src/widgets/LoginDialog/ui/LoginForm.tsx&#45;&gt;src/shared/dialog&#45;manager/index.ts</title>
<path fill="none" stroke="#000000" stroke-width="2" stroke-opacity="0.200000" d="M650.03,-271C662.51,-271 676.44,-271 688.79,-271"/>
<polygon fill="#000000" fill-opacity="0.200000" stroke="#000000" stroke-width="2" stroke-opacity="0.200000" points="688.44,-273.1 694.44,-271 688.44,-268.9 688.44,-273.1"/>
</g>
<!-- src/widgets/LoginDialog/ui/LoginForm.tsx&#45;&gt;src/shared/ui/AlertDialog.tsx -->
<g id="edge23" class="edge">
<title>src/widgets/LoginDialog/ui/LoginForm.tsx&#45;&gt;src/shared/ui/AlertDialog.tsx</title>
<path fill="none" stroke="#000000" stroke-width="2" stroke-opacity="0.200000" d="M621.99,-261.67C633.89,-248.78 657.13,-225.7 681.62,-213 756.4,-174.22 853.98,-155.99 910.35,-148.18"/>
<polygon fill="#000000" fill-opacity="0.200000" stroke="#000000" stroke-width="2" stroke-opacity="0.200000" points="910.37,-150.3 916.04,-147.42 909.81,-146.13 910.37,-150.3"/>
</g>
</g>
</svg>
